  0
SECTION
  2
HEADER
  9
$ANGBASE
  50
0.0
  9
$ANGDIR
  70
1
  9
$MEASUREMENT
  70
0
  0
ENDSEC
  0
SECTION
  2
TABLES
  0
TABLE
  2
LTYPE
  70
4
  0
LTYPE
  5
40F
  2
CONTINUOUS
  70
0
  3
Solid line
  72
65
  73
0
  40
0.0
  0
LTYPE
  5
410
  2
DASHDOT
 70
0
  3
Dash Dot ____ _ ____ _
 72
65
 73
4
 40
2.0
 49
1.25
 49
-0.25
 49
0.25
 49
-0.25
  0
LTYPE
  5
411
  2
DASHED
 70
0
  3
Dashed __ __ __ __ __
 72
65
 73
2
 40
0.75
 49
0.5
 49
-0.25
  0
LTYPE
  5
43B
  2
DOTTED
 70
0
  3
Dotted .  .  .  .
 72
65
 73
2
 40
0.2
 49
0.0
 49
-0.2
  0
ENDTAB
  0
TABLE
  2
STYLE
  70
4
  0
STYLE
  2
KICAD
  70
0
  40
0
  41
1
  42
1
  50
0
  71
0
  3
isocp.shx
  0
STYLE
  2
KICADB
  70
0
  40
0
  41
1
  42
1
  50
0
  71
0
  3
isocp.shx
  0
STYLE
  2
KICADI
  70
0
  40
0
  41
1
  42
1
  50
15
  71
0
  3
isocp.shx
  0
STYLE
  2
KICADBI
  70
0
  40
0
  41
1
  42
1
  50
15
  71
0
  3
isocp.shx
  0
ENDTAB
  0
TABLE
  2
LAYER
  70
1
  0
LAYER
  2
BLACK
  70
0
  62
7
  6
CONTINUOUS
  0
ENDTAB
  0
ENDSEC
  0
SECTION
  2
ENTITIES
0
LINE
8
BLACK
6
CONTINUOUS
10
5.2567231102362202
20
-1.2247520866141732
11
5.2570424409448817
21
-1.2249654330708661
0
LINE
8
BLACK
6
CONTINUOUS
10
5.2570424409448817
20
-1.2249654330708661
11
5.5720030314960631
21
-1.5399260629921259
0
LINE
8
BLACK
6
CONTINUOUS
10
5.5720030314960631
20
-1.5399260629921259
11
5.5722164173228341
21
-1.5402453543307086
0
LINE
8
BLACK
6
CONTINUOUS
10
5.5722164173228341
20
-1.5402453543307086
11
5.5722164173228341
21
-1.5402453937007874
0
LINE
8
BLACK
6
CONTINUOUS
10
5.5722164173228341
20
-1.5402453937007874
11
5.5722913385826773
21
-1.5406220472440944
0
LINE
8
BLACK
6
CONTINUOUS
10
5.5722913385826773
20
-1.5406220472440944
11
5.5722913385826773
21
-4.247708661417323
0
LINE
8
BLACK
6
CONTINUOUS
10
5.5722913385826773
20
-4.247708661417323
11
5.5722164173228341
21
-4.2480853149606297
0
LINE
8
BLACK
6
CONTINUOUS
10
5.5722164173228341
20
-4.2480853149606297
11
5.5722164173228341
21
-4.2480853543307084
0
LINE
8
BLACK
6
CONTINUOUS
10
5.5722164173228341
20
-4.2480853543307084
11
5.5720030314960631
21
-4.2484046456692912
0
LINE
8
BLACK
6
CONTINUOUS
10
5.5720030314960631
20
-4.2484046456692912
11
5.2570424409448817
21
-4.5633652755905514
0
LINE
8
BLACK
6
CONTINUOUS
10
5.2570424409448817
20
-4.5633652755905514
11
5.2567231102362202
21
-4.5635786220472436
0
LINE
8
BLACK
6
CONTINUOUS
10
5.2567231102362202
20
-4.5635786220472436
11
5.2563464566929134
21
-4.5636535433070868
0
LINE
8
BLACK
6
CONTINUOUS
10
5.2563464566929134
20
-4.5636535433070868
11
2.3724881889763778
21
-4.5636535433070868
0
LINE
8
BLACK
6
CONTINUOUS
10
2.3724881889763778
20
-4.5636535433070868
11
2.3721115354330706
21
-4.5635786220472436
0
LINE
8
BLACK
6
CONTINUOUS
10
2.3721115354330706
20
-4.5635786220472436
11
2.3721114960629919
21
-4.5635786220472436
0
LINE
8
BLACK
6
CONTINUOUS
10
2.3721114960629919
20
-4.5635786220472436
11
2.3717922047244095
21
-4.5633652362204726
0
LINE
8
BLACK
6
CONTINUOUS
10
2.3717922047244095
20
-4.5633652362204726
11
2.0568315748031494
21
-4.2484046456692912
0
LINE
8
BLACK
6
CONTINUOUS
10
2.0568315748031494
20
-4.2484046456692912
11
2.0566182283464567
21
-4.2480853149606297
0
LINE
8
BLACK
6
CONTINUOUS
10
2.0566182283464567
20
-4.2480853149606297
11
2.0565433070866139
21
-4.247708661417323
0
LINE
8
BLACK
6
CONTINUOUS
10
2.0565433070866139
20
-4.247708661417323
11
2.0565433070866139
21
-1.5406220472440944
0
LINE
8
BLACK
6
CONTINUOUS
10
2.0565433070866139
20
-1.5406220472440944
11
2.0566182283464567
21
-1.5402453937007874
0
LINE
8
BLACK
6
CONTINUOUS
10
2.0566182283464567
20
-1.5402453937007874
11
2.0566182677165354
21
-1.5402453543307086
0
LINE
8
BLACK
6
CONTINUOUS
10
2.0566182677165354
20
-1.5402453543307086
11
2.0568315748031494
21
-1.5399260629921259
0
LINE
8
BLACK
6
CONTINUOUS
10
2.0568315748031494
20
-1.5399260629921259
11
2.3717922047244095
21
-1.2249654724409449
0
LINE
8
BLACK
6
CONTINUOUS
10
2.3717922047244095
20
-1.2249654724409449
11
2.3721114960629919
21
-1.2247520866141732
0
LINE
8
BLACK
6
CONTINUOUS
10
2.3721114960629919
20
-1.2247520866141732
11
2.3721115354330706
21
-1.2247520866141732
0
LINE
8
BLACK
6
CONTINUOUS
10
2.3721115354330706
20
-1.2247520866141732
11
2.3724881889763778
21
-1.2246771653543307
0
LINE
8
BLACK
6
CONTINUOUS
10
2.3724881889763778
20
-1.2246771653543307
11
5.2563464566929134
21
-1.2246771653543307
0
LINE
8
BLACK
6
CONTINUOUS
10
5.2563464566929134
20
-1.2246771653543307
11
5.2567231102362202
21
-1.2247520866141732
0
LINE
8
BLACK
6
CONTINUOUS
10
2.3728958661417323
20
-1.2266456692913386
11
2.0585118110236218
21
-1.5410297244094489
0
LINE
8
BLACK
6
CONTINUOUS
10
2.0585118110236218
20
-1.5410297244094489
11
2.0585118110236218
21
-4.2473009448818893
0
LINE
8
BLACK
6
CONTINUOUS
10
2.0585118110236218
20
-4.2473009448818893
11
2.3728958661417323
21
-4.5616850393700785
0
LINE
8
BLACK
6
CONTINUOUS
10
2.3728958661417323
20
-4.5616850393700785
11
5.2559387401574806
21
-4.5616850393700785
0
LINE
8
BLACK
6
CONTINUOUS
10
5.2559387401574806
20
-4.5616850393700785
11
5.570322834645669
21
-4.2473009448818893
0
LINE
8
BLACK
6
CONTINUOUS
10
5.570322834645669
20
-4.2473009448818893
11
5.570322834645669
21
-1.5410297244094489
0
LINE
8
BLACK
6
CONTINUOUS
10
5.570322834645669
20
-1.5410297244094489
11
5.2559387401574806
21
-1.2266456692913386
0
LINE
8
BLACK
6
CONTINUOUS
10
5.2559387401574806
20
-1.2266456692913386
11
2.3728958661417323
21
-1.2266456692913386
0
CIRCLE
8
BLACK
10
3.7204723622047244
20
-3.6702766141732281
40
0.0196850393700787
0
CIRCLE
8
BLACK
10
3.6204723622047243
20
-3.6702766141732281
40
0.0196850393700787
0
CIRCLE
8
BLACK
10
3.5204723622047243
20
-3.6702766141732281
40
0.0196850393700787
0
CIRCLE
8
BLACK
10
3.4204723622047242
20
-3.6702766141732281
40
0.0196850393700787
0
CIRCLE
8
BLACK
10
2.6161102362204725
20
-1.7691653543307087
40
0.0216535433070866
0
CIRCLE
8
BLACK
10
2.6161102362204725
20
-1.8691653543307085
40
0.0216535433070866
0
CIRCLE
8
BLACK
10
2.6161102362204725
20
-1.9691653543307086
40
0.0216535433070866
0
CIRCLE
8
BLACK
10
2.6161102362204725
20
-2.0691653543307087
40
0.0216535433070866
0
CIRCLE
8
BLACK
10
2.6161102362204725
20
-2.1691653543307088
40
0.0216535433070866
0
CIRCLE
8
BLACK
10
2.6161102362204725
20
-2.2691653543307084
40
0.0216535433070866
0
CIRCLE
8
BLACK
10
2.6161102362204725
20
-2.3691653543307085
40
0.0216535433070866
0
CIRCLE
8
BLACK
10
2.6161102362204725
20
-2.4691653543307086
40
0.0216535433070866
0
CIRCLE
8
BLACK
10
2.6161102362204725
20
-2.5691653543307087
40
0.0216535433070866
0
CIRCLE
8
BLACK
10
2.6161102362204725
20
-2.6691653543307088
40
0.0216535433070866
0
CIRCLE
8
BLACK
10
2.6161102362204725
20
-2.7691653543307084
40
0.0216535433070866
0
CIRCLE
8
BLACK
10
2.6161102362204725
20
-2.8691653543307085
40
0.0216535433070866
0
CIRCLE
8
BLACK
10
2.6161102362204725
20
-2.9691653543307086
40
0.0216535433070866
0
CIRCLE
8
BLACK
10
2.6161102362204725
20
-3.0691653543307087
40
0.0216535433070866
0
CIRCLE
8
BLACK
10
2.6161102362204725
20
-3.1691653543307088
40
0.0216535433070866
0
CIRCLE
8
BLACK
10
2.6161102362204725
20
-3.2691653543307084
40
0.0216535433070866
0
CIRCLE
8
BLACK
10
2.6161102362204725
20
-3.3691653543307085
40
0.0216535433070866
0
CIRCLE
8
BLACK
10
2.6161102362204725
20
-3.4691653543307086
40
0.0216535433070866
0
CIRCLE
8
BLACK
10
2.6161102362204725
20
-3.5691653543307087
40
0.0216535433070866
0
CIRCLE
8
BLACK
10
2.6161102362204725
20
-3.6691653543307088
40
0.0216535433070866
0
CIRCLE
8
BLACK
10
2.6161102362204725
20
-3.7691653543307084
40
0.0216535433070866
0
CIRCLE
8
BLACK
10
2.6161102362204725
20
-3.8691653543307085
40
0.0216535433070866
0
CIRCLE
8
BLACK
10
2.6161102362204725
20
-3.9691653543307086
40
0.0216535433070866
0
CIRCLE
8
BLACK
10
2.6161102362204725
20
-4.0691653543307087
40
0.0216535433070866
0
CIRCLE
8
BLACK
10
3.2161102362204725
20
-4.0691653543307087
40
0.0216535433070866
0
CIRCLE
8
BLACK
10
3.2161102362204725
20
-3.9691653543307086
40
0.0216535433070866
0
CIRCLE
8
BLACK
10
3.2161102362204725
20
-3.8691653543307085
40
0.0216535433070866
0
CIRCLE
8
BLACK
10
3.2161102362204725
20
-3.7691653543307084
40
0.0216535433070866
0
CIRCLE
8
BLACK
10
3.2161102362204725
20
-3.6691653543307088
40
0.0216535433070866
0
CIRCLE
8
BLACK
10
3.2161102362204725
20
-3.5691653543307087
40
0.0216535433070866
0
CIRCLE
8
BLACK
10
3.2161102362204725
20
-3.4691653543307086
40
0.0216535433070866
0
CIRCLE
8
BLACK
10
3.2161102362204725
20
-3.3691653543307085
40
0.0216535433070866
0
CIRCLE
8
BLACK
10
3.2161102362204725
20
-3.2691653543307084
40
0.0216535433070866
0
CIRCLE
8
BLACK
10
3.2161102362204725
20
-3.1691653543307088
40
0.0216535433070866
0
CIRCLE
8
BLACK
10
3.2161102362204725
20
-3.0691653543307087
40
0.0216535433070866
0
CIRCLE
8
BLACK
10
3.2161102362204725
20
-2.9691653543307086
40
0.0216535433070866
0
CIRCLE
8
BLACK
10
3.2161102362204725
20
-2.8691653543307085
40
0.0216535433070866
0
CIRCLE
8
BLACK
10
3.2161102362204725
20
-2.7691653543307084
40
0.0216535433070866
0
CIRCLE
8
BLACK
10
3.2161102362204725
20
-2.6691653543307088
40
0.0216535433070866
0
CIRCLE
8
BLACK
10
3.2161102362204725
20
-2.5691653543307087
40
0.0216535433070866
0
CIRCLE
8
BLACK
10
3.2161102362204725
20
-2.4691653543307086
40
0.0216535433070866
0
CIRCLE
8
BLACK
10
3.2161102362204725
20
-2.3691653543307085
40
0.0216535433070866
0
CIRCLE
8
BLACK
10
3.2161102362204725
20
-2.2691653543307084
40
0.0216535433070866
0
CIRCLE
8
BLACK
10
3.2161102362204725
20
-2.1691653543307088
40
0.0216535433070866
0
CIRCLE
8
BLACK
10
3.2161102362204725
20
-2.0691653543307087
40
0.0216535433070866
0
CIRCLE
8
BLACK
10
3.2161102362204725
20
-1.9691653543307086
40
0.0216535433070866
0
CIRCLE
8
BLACK
10
3.2161102362204725
20
-1.8691653543307085
40
0.0216535433070866
0
CIRCLE
8
BLACK
10
3.2161102362204725
20
-1.7691653543307087
40
0.0216535433070866
0
CIRCLE
8
BLACK
10
3.1161102362204725
20
-1.8691653543307085
40
0.0216535433070866
0
CIRCLE
8
BLACK
10
2.7161102362204725
20
-3.5691653543307087
40
0.0216535433070866
0
CIRCLE
8
BLACK
10
2.8161102362204722
20
-3.5691653543307087
40
0.0216535433070866
0
CIRCLE
8
BLACK
10
2.9161102362204723
20
-3.5691653543307087
40
0.0216535433070866
0
CIRCLE
8
BLACK
10
3.0161102362204724
20
-3.5691653543307087
40
0.0216535433070866
0
CIRCLE
8
BLACK
10
3.1161102362204725
20
-3.5691653543307087
40
0.0216535433070866
0
CIRCLE
8
BLACK
10
2.7362204724409449
20
-2.0171653543307086
40
0.0216535433070866
0
CIRCLE
8
BLACK
10
2.7362204724409449
20
-2.1171653543307087
40
0.0216535433070866
0
CIRCLE
8
BLACK
10
2.7362204724409449
20
-2.2171653543307088
40
0.0216535433070866
0
CIRCLE
8
BLACK
10
2.7362204724409449
20
-2.3171653543307085
40
0.0216535433070866
0
CIRCLE
8
BLACK
10
2.7362204724409449
20
-2.4171653543307086
40
0.0216535433070866
0
CIRCLE
8
BLACK
10
3.1201102362204725
20
-2.2797952755905513
40
0.015748031496063
0
CIRCLE
8
BLACK
10
3.0413700787401572
20
-2.2797952755905513
40
0.015748031496063
0
CIRCLE
8
BLACK
10
2.9626299212598424
20
-2.2797952755905513
40
0.015748031496063
0
CIRCLE
8
BLACK
10
2.9626299212598424
20
-2.3585354330708661
40
0.015748031496063
0
CIRCLE
8
BLACK
10
3.0413700787401572
20
-2.3585354330708661
40
0.015748031496063
0
CIRCLE
8
BLACK
10
3.1201102362204725
20
-2.3585354330708661
40
0.015748031496063
0
CIRCLE
8
BLACK
10
2.9661102362204725
20
-1.7979055118110236
40
0.015748031496063
0
CIRCLE
8
BLACK
10
2.8661102362204725
20
-1.7979055118110236
40
0.015748031496063
0
CIRCLE
8
BLACK
10
3.7204723622047244
20
-3.2919301574803148
40
0.0196850393700787
0
CIRCLE
8
BLACK
10
3.6204723622047243
20
-3.2919301574803148
40
0.0196850393700787
0
CIRCLE
8
BLACK
10
3.5204723622047243
20
-3.2919301574803148
40
0.0196850393700787
0
CIRCLE
8
BLACK
10
3.4204723622047242
20
-3.2919301574803148
40
0.0196850393700787
0
CIRCLE
8
BLACK
10
4.248472440944882
20
-4.1584645669291334
40
0.0196850393700787
0
CIRCLE
8
BLACK
10
4.1484724409448814
20
-4.1584645669291334
40
0.0196850393700787
0
CIRCLE
8
BLACK
10
4.0484724409448818
20
-4.1584645669291334
40
0.0196850393700787
0
CIRCLE
8
BLACK
10
4.0496535433070866
20
-1.6486220472440944
40
0.0196850393700787
0
CIRCLE
8
BLACK
10
4.1496535433070862
20
-1.6486220472440944
40
0.0196850393700787
0
CIRCLE
8
BLACK
10
4.2496535433070868
20
-1.6486220472440944
40
0.0196850393700787
0
CIRCLE
8
BLACK
10
3.7204723622047244
20
-2.1698829133858268
40
0.0196850393700787
0
CIRCLE
8
BLACK
10
3.6204723622047243
20
-2.1698829133858268
40
0.0196850393700787
0
CIRCLE
8
BLACK
10
3.5204723622047243
20
-2.1698829133858268
40
0.0196850393700787
0
CIRCLE
8
BLACK
10
3.4204723622047242
20
-2.1698829133858268
40
0.0196850393700787
0
CIRCLE
8
BLACK
10
3.9732283464566929
20
-2.3799212598425195
40
0.02
0
CIRCLE
8
BLACK
10
4.073228346456693
20
-2.3799212598425195
40
0.02
0
CIRCLE
8
BLACK
10
4.1732283464566926
20
-2.3799212598425195
40
0.02
0
CIRCLE
8
BLACK
10
4.2732283464566931
20
-2.3799212598425195
40
0.02
0
CIRCLE
8
BLACK
10
4.3732283464566928
20
-2.3799212598425195
40
0.02
0
CIRCLE
8
BLACK
10
3.9251968503937005
20
-3.0539370078740156
40
0.0196850393700787
0
CIRCLE
8
BLACK
10
3.9251968503937005
20
-3.1539370078740157
40
0.0196850393700787
0
CIRCLE
8
BLACK
10
3.9251968503937005
20
-3.2539370078740157
40
0.0196850393700787
0
CIRCLE
8
BLACK
10
3.9251968503937005
20
-3.3539370078740158
40
0.0196850393700787
0
CIRCLE
8
BLACK
10
3.9251968503937005
20
-3.4539370078740155
40
0.0196850393700787
0
CIRCLE
8
BLACK
10
3.9251968503937005
20
-3.5539370078740156
40
0.0196850393700787
0
CIRCLE
8
BLACK
10
3.9251968503937005
20
-3.6539370078740157
40
0.0196850393700787
0
CIRCLE
8
BLACK
10
3.9251968503937005
20
-3.7539370078740157
40
0.0196850393700787
0
CIRCLE
8
BLACK
10
3.9251968503937005
20
-3.8539370078740158
40
0.0196850393700787
0
CIRCLE
8
BLACK
10
3.9251968503937005
20
-3.9539370078740155
40
0.0196850393700787
0
CIRCLE
8
BLACK
10
5.1968503937007871
20
-4.1732283464566926
40
0.062992125984252
0
CIRCLE
8
BLACK
10
3.3803622047244093
20
-1.6486220472440944
40
0.0196850393700787
0
CIRCLE
8
BLACK
10
3.4803622047244094
20
-1.6486220472440944
40
0.0196850393700787
0
CIRCLE
8
BLACK
10
3.5803622047244095
20
-1.6486220472440944
40
0.0196850393700787
0
CIRCLE
8
BLACK
10
2.2440944881889764
20
-1.6141732283464567
40
0.062992125984252
0
CIRCLE
8
BLACK
10
5.5118110236220472
20
-2.4606299212598426
40
0.0177165354330709
0
CIRCLE
8
BLACK
10
5.4330708661417324
20
-2.4606299212598426
40
0.0177165354330709
0
CIRCLE
8
BLACK
10
5.3543307086614176
20
-2.4606299212598426
40
0.0177165354330709
0
CIRCLE
8
BLACK
10
5.2755905511811019
20
-2.4606299212598426
40
0.0177165354330709
0
CIRCLE
8
BLACK
10
5.1968503937007871
20
-2.4606299212598426
40
0.0177165354330709
0
CIRCLE
8
BLACK
10
5.1181102362204722
20
-2.4606299212598426
40
0.0177165354330709
0
CIRCLE
8
BLACK
10
5.0393700787401574
20
-2.4606299212598426
40
0.0177165354330709
0
CIRCLE
8
BLACK
10
4.9606299212598426
20
-2.4606299212598426
40
0.0177165354330709
0
CIRCLE
8
BLACK
10
4.8818897637795278
20
-2.4606299212598426
40
0.0177165354330709
0
CIRCLE
8
BLACK
10
4.8031496062992121
20
-2.4606299212598426
40
0.0177165354330709
0
CIRCLE
8
BLACK
10
4.8031496062992121
20
-3.326771653543307
40
0.0177165354330709
0
CIRCLE
8
BLACK
10
4.8818897637795278
20
-3.326771653543307
40
0.0177165354330709
0
CIRCLE
8
BLACK
10
4.9606299212598426
20
-3.326771653543307
40
0.0177165354330709
0
CIRCLE
8
BLACK
10
5.0393700787401574
20
-3.326771653543307
40
0.0177165354330709
0
CIRCLE
8
BLACK
10
5.1181102362204722
20
-3.326771653543307
40
0.0177165354330709
0
CIRCLE
8
BLACK
10
5.1968503937007871
20
-3.326771653543307
40
0.0177165354330709
0
CIRCLE
8
BLACK
10
5.2755905511811019
20
-3.326771653543307
40
0.0177165354330709
0
CIRCLE
8
BLACK
10
5.3543307086614176
20
-3.326771653543307
40
0.0177165354330709
0
CIRCLE
8
BLACK
10
5.4330708661417324
20
-3.326771653543307
40
0.0177165354330709
0
CIRCLE
8
BLACK
10
5.5118110236220472
20
-3.326771653543307
40
0.0177165354330709
0
CIRCLE
8
BLACK
10
3.7204723622047244
20
-2.5438986614173227
40
0.0196850393700787
0
CIRCLE
8
BLACK
10
3.6204723622047243
20
-2.5438986614173227
40
0.0196850393700787
0
CIRCLE
8
BLACK
10
3.5204723622047243
20
-2.5438986614173227
40
0.0196850393700787
0
CIRCLE
8
BLACK
10
3.4204723622047242
20
-2.5438986614173227
40
0.0196850393700787
0
CIRCLE
8
BLACK
10
2.2440944881889764
20
-4.1732283464566926
40
0.062992125984252
0
CIRCLE
8
BLACK
10
3.5791811023622047
20
-4.1584645669291334
40
0.0196850393700787
0
CIRCLE
8
BLACK
10
3.4791811023622046
20
-4.1584645669291334
40
0.0196850393700787
0
CIRCLE
8
BLACK
10
3.3791811023622045
20
-4.1584645669291334
40
0.0196850393700787
0
CIRCLE
8
BLACK
10
5.1968503937007871
20
-1.6141732283464567
40
0.062992125984252
0
CIRCLE
8
BLACK
10
2.1440944881889763
20
-2.2440944881889764
40
0.0196850393700787
0
CIRCLE
8
BLACK
10
2.2440944881889764
20
-2.2440944881889764
40
0.0196850393700787
0
CIRCLE
8
BLACK
10
2.1440944881889763
20
-2.3440944881889765
40
0.0196850393700787
0
CIRCLE
8
BLACK
10
2.2440944881889764
20
-2.3440944881889765
40
0.0196850393700787
0
CIRCLE
8
BLACK
10
2.1440944881889763
20
-2.4440944881889761
40
0.0196850393700787
0
CIRCLE
8
BLACK
10
2.2440944881889764
20
-2.4440944881889761
40
0.0196850393700787
0
CIRCLE
8
BLACK
10
2.1440944881889763
20
-2.5440944881889762
40
0.0196850393700787
0
CIRCLE
8
BLACK
10
2.2440944881889764
20
-2.5440944881889762
40
0.0196850393700787
0
CIRCLE
8
BLACK
10
2.1440944881889763
20
-2.6440944881889763
40
0.0196850393700787
0
CIRCLE
8
BLACK
10
2.2440944881889764
20
-2.6440944881889763
40
0.0196850393700787
0
CIRCLE
8
BLACK
10
2.1440944881889763
20
-2.7440944881889764
40
0.0196850393700787
0
CIRCLE
8
BLACK
10
2.2440944881889764
20
-2.7440944881889764
40
0.0196850393700787
0
CIRCLE
8
BLACK
10
2.1440944881889763
20
-2.8440944881889765
40
0.0196850393700787
0
CIRCLE
8
BLACK
10
2.2440944881889764
20
-2.8440944881889765
40
0.0196850393700787
0
CIRCLE
8
BLACK
10
2.1440944881889763
20
-2.9440944881889761
40
0.0196850393700787
0
CIRCLE
8
BLACK
10
2.2440944881889764
20
-2.9440944881889761
40
0.0196850393700787
0
CIRCLE
8
BLACK
10
2.1440944881889763
20
-3.0440944881889762
40
0.0196850393700787
0
CIRCLE
8
BLACK
10
2.2440944881889764
20
-3.0440944881889762
40
0.0196850393700787
0
CIRCLE
8
BLACK
10
2.1440944881889763
20
-3.1440944881889763
40
0.0196850393700787
0
CIRCLE
8
BLACK
10
2.2440944881889764
20
-3.1440944881889763
40
0.0196850393700787
0
CIRCLE
8
BLACK
10
2.1440944881889763
20
-3.2440944881889764
40
0.0196850393700787
0
CIRCLE
8
BLACK
10
2.2440944881889764
20
-3.2440944881889764
40
0.0196850393700787
0
CIRCLE
8
BLACK
10
2.1440944881889763
20
-3.3440944881889765
40
0.0196850393700787
0
CIRCLE
8
BLACK
10
2.2440944881889764
20
-3.3440944881889765
40
0.0196850393700787
0
CIRCLE
8
BLACK
10
2.1440944881889763
20
-3.4440944881889761
40
0.0196850393700787
0
CIRCLE
8
BLACK
10
2.2440944881889764
20
-3.4440944881889761
40
0.0196850393700787
0
CIRCLE
8
BLACK
10
2.1440944881889763
20
-3.5440944881889762
40
0.0196850393700787
0
CIRCLE
8
BLACK
10
2.2440944881889764
20
-3.5440944881889762
40
0.0196850393700787
0
CIRCLE
8
BLACK
10
5.4064960629921259
20
-3.1102362204724407
40
0.0196850393700787
0
CIRCLE
8
BLACK
10
5.4064960629921259
20
-2.6771653543307088
40
0.0196850393700787
0
CIRCLE
8
BLACK
10
5.0127952755905509
20
-2.795275590551181
40
0.0374015748031496
0
CIRCLE
8
BLACK
10
5.0127952755905509
20
-2.9921259842519685
40
0.0374015748031496
  0
ENDSEC
  0
EOF
