M48
; DRILL file {KiCad 9.0.1} date 2025-05-02T13:40:21-0400
; FORMAT={-:-/ absolute / inch / decimal}
; #@! TF.CreationDate,2025-05-02T13:40:21-04:00
; #@! TF.GenerationSoftware,Kicad,Pcbnew,9.0.1
; #@! TF.FileFunction,Plated,1,4,PTH
FMAT,2
INCH
; #@! TA.AperFunction,Plated,PTH,ViaDrill
T1C0.0118
; #@! TA.AperFunction,Plated,PTH,ComponentDrill
T2C0.0197
; #@! TA.AperFunction,Plated,PTH,ComponentDrill
T3C0.0236
; #@! TA.AperFunction,Plated,PTH,ComponentDrill
T4C0.0394
; #@! TA.AperFunction,Plated,PTH,ComponentDrill
T5C0.0591
; #@! TA.AperFunction,Plated,PTH,ComponentDrill
T6C0.1260
%
G90
G05
T1
X2.2638Y-4.3602
X2.2638Y-4.439
X2.2736Y-4.065
X2.2736Y-4.1142
X2.2736Y-4.7539
X2.2835Y-4.6752
X2.3327Y-4.3504
X2.3425Y-4.4587
X2.3524Y-4.7157
X2.3622Y-4.2126
X2.3622Y-4.2815
X2.3622Y-4.5276
X2.3622Y-4.8425
X2.372Y-4.5866
X2.4016Y-3.9665
X2.4213Y-4.5571
X2.4606Y-4.626
X2.4606Y-4.8819
X2.4631Y-4.3135
X2.4705Y-4.5276
X2.4705Y-5.0748
X2.4705Y-5.1063
X2.4803Y-4.0669
X2.4803Y-4.1043
X2.4803Y-4.3996
X2.4902Y-3.7205
X2.4902Y-3.8976
X2.4961Y-4.6063
X2.5Y-4.7441
X2.5039Y-4.4488
X2.5098Y-3.8091
X2.5098Y-4.2028
X2.5098Y-4.4882
X2.5197Y-3.9665
X2.5303Y-4.8433
X2.5492Y-4.1142
X2.5492Y-4.5945
X2.5492Y-4.6555
X2.5512Y-4.2008
X2.5591Y-3.9075
X2.5591Y-4.8197
X2.563Y-4.7559
X2.5689Y-4.0644
X2.5689Y-5.0295
X2.5748Y-4.6929
X2.5778Y-4.5651
X2.5787Y-3.8386
X2.5984Y-3.9665
X2.5984Y-3.9961
X2.5984Y-4.3898
X2.5991Y-5.0206
X2.6027Y-4.4433
X2.6181Y-4.7343
X2.624Y-4.5157
X2.628Y-3.8878
X2.628Y-3.9665
X2.628Y-3.9961
X2.628Y-5.0295
X2.6419Y-4.8581
X2.6476Y-3.7343
X2.6575Y-3.9665
X2.6575Y-3.9961
X2.6575Y-4.252
X2.6579Y-4.9909
X2.6673Y-4.4193
X2.6673Y-4.5579
X2.6679Y-4.9608
X2.6772Y-4.7343
X2.687Y-3.9665
X2.687Y-3.9961
X2.6978Y-5.0216
X2.7067Y-3.8091
X2.7067Y-4.0846
X2.7165Y-4.1929
X2.7323Y-4.8701
X2.7362Y-4.7008
X2.7362Y-4.7441
X2.7559Y-3.8583
X2.7657Y-4.1339
X2.7657Y-4.5965
X2.7672Y-4.2239
X2.7788Y-4.4694
X2.7795Y-4.4365
X2.7862Y-4.8524
X2.7912Y-4.0395
X2.7953Y-4.0846
X2.8051Y-4.5579
X2.8099Y-4.5071
X2.8169Y-4.252
X2.8346Y-4.5591
X2.8371Y-4.4912
X2.839Y-4.4597
X2.8445Y-4.1339
X2.8465Y-4.5856
X2.8599Y-4.7812
X2.8701Y-4.9528
X2.8732Y-4.2421
X2.8839Y-4.0157
X2.8839Y-4.3307
X2.8898Y-4.8268
X2.8923Y-4.4362
X2.9052Y-4.083
X2.9055Y-4.6929
X2.9055Y-4.7638
X2.9232Y-4.252
X2.9291Y-4.5866
X2.9331Y-4.9996
X2.939Y-4.9461
X2.9488Y-4.685
X2.9488Y-4.7756
X2.9528Y-4.3898
X2.9724Y-3.878
X2.9724Y-4.9996
X2.9732Y-4.1232
X2.9794Y-4.301
X2.9803Y-4.7402
X2.9823Y-4.685
X2.9862Y-4.9342
X2.9921Y-3.9272
X3.0117Y-4.0468
X3.0285Y-4.2815
X3.0512Y-4.7638
X3.061Y-3.8386
X3.0709Y-4.5276
X3.0709Y-4.5571
X3.0748Y-4.0748
X3.0906Y-3.9567
X3.0982Y-4.231
X3.1063Y-4.3445
X3.1102Y-4.3996
X3.1102Y-4.7043
X3.1201Y-3.7106
X3.1201Y-3.7894
X3.1201Y-4.4488
X3.1201Y-4.5217
X3.126Y-4.5526
X3.1988Y-4.7146
X3.2185Y-3.7598
X3.2283Y-3.8484
X3.2283Y-4.937
X3.248Y-4.3209
X3.2835Y-4.2028
X3.2913Y-4.7736
X3.2972Y-4.3957
X3.2972Y-4.4882
X3.2972Y-4.5866
X3.3071Y-4.2421
X3.3071Y-4.626
X3.3071Y-4.811
X3.3169Y-5.1063
X3.3268Y-4.4429
X3.3366Y-3.878
X3.3465Y-4.3898
X3.3563Y-4.065
X3.3661Y-3.7598
X3.3691Y-4.2913
X3.373Y-4.8002
X3.376Y-4.1732
X3.3819Y-4.6949
X3.382Y-4.8568
X3.3848Y-4.4833
X3.3957Y-4.3504
X3.3986Y-4.2804
X3.4154Y-4.1929
X3.4173Y-4.7143
X3.4173Y-4.7717
X3.4173Y-5.0177
X3.4173Y-5.1063
X3.4252Y-4.0866
X3.4252Y-4.5276
X3.435Y-4.2815
X3.435Y-4.6063
X3.4449Y-4.8819
X3.4843Y-3.9665
X3.5039Y-4.2028
X3.5039Y-4.5177
X3.5138Y-4.2913
X3.5335Y-4.3602
X3.5335Y-4.6063
X3.5335Y-4.6555
X3.5335Y-4.8031
X3.5433Y-4.7047
X3.5531Y-4.4045
X3.5531Y-4.4587
X3.627Y-4.5148
X3.6319Y-4.0354
X3.6319Y-4.1437
X3.6319Y-4.3701
X3.6319Y-4.439
X3.6417Y-4.8917
T2
X2.6969Y-5.0787
X2.8346Y-3.9921
X3.0512Y-4.0059
X3.2087Y-5.0098
T4
X3.1677Y-3.9157
X3.1677Y-4.0157
X3.2677Y-3.9157
X3.2677Y-4.0157
T5
X2.8728Y-3.7598
X3.0328Y-3.7598
T6
X2.3622Y-3.8189
X2.3622Y-5.0
X3.5433Y-3.8189
X3.5433Y-5.0
T3
G00X2.7827Y-4.8947
M15
G01X2.7827Y-4.938
M16
G05
G00X2.7827Y-5.0659
M15
G01X2.7827Y-5.0974
M16
G05
G00X3.1228Y-4.8947
M15
G01X3.1228Y-4.938
M16
G05
G00X3.1228Y-5.0659
M15
G01X3.1228Y-5.0974
M16
G05
M30
