%TF.GenerationSoftware,KiCad,Pcbnew,9.0.1*%
%TF.CreationDate,2025-05-02T13:40:16-04:00*%
%TF.ProjectId,Control Board V2,436f6e74-726f-46c2-9042-6f6172642056,rev?*%
%TF.SameCoordinates,Original*%
%TF.FileFunction,Paste,Bot*%
%TF.FilePolarity,Positive*%
%FSLAX46Y46*%
G04 Gerber Fmt 4.6, Leading zero omitted, Abs format (unit mm)*
G04 Created by KiCad (PCBNEW 9.0.1) date 2025-05-02 13:40:16*
%MOMM*%
%LPD*%
G01*
G04 APERTURE LIST*
G04 Aperture macros list*
%AMRoundRect*
0 Rectangle with rounded corners*
0 $1 Rounding radius*
0 $2 $3 $4 $5 $6 $7 $8 $9 X,Y pos of 4 corners*
0 Add a 4 corners polygon primitive as box body*
4,1,4,$2,$3,$4,$5,$6,$7,$8,$9,$2,$3,0*
0 Add four circle primitives for the rounded corners*
1,1,$1+$1,$2,$3*
1,1,$1+$1,$4,$5*
1,1,$1+$1,$6,$7*
1,1,$1+$1,$8,$9*
0 Add four rect primitives between the rounded corners*
20,1,$1+$1,$2,$3,$4,$5,0*
20,1,$1+$1,$4,$5,$6,$7,0*
20,1,$1+$1,$6,$7,$8,$9,0*
20,1,$1+$1,$8,$9,$2,$3,0*%
G04 Aperture macros list end*
%ADD10RoundRect,0.140000X0.140000X0.170000X-0.140000X0.170000X-0.140000X-0.170000X0.140000X-0.170000X0*%
%ADD11RoundRect,0.200000X-0.650000X-0.400000X0.650000X-0.400000X0.650000X0.400000X-0.650000X0.400000X0*%
%ADD12RoundRect,0.135000X0.185000X-0.135000X0.185000X0.135000X-0.185000X0.135000X-0.185000X-0.135000X0*%
%ADD13RoundRect,0.140000X-0.140000X-0.170000X0.140000X-0.170000X0.140000X0.170000X-0.140000X0.170000X0*%
%ADD14RoundRect,0.050000X-0.200000X0.050000X-0.200000X-0.050000X0.200000X-0.050000X0.200000X0.050000X0*%
%ADD15R,0.280000X0.490000*%
%ADD16RoundRect,0.135000X-0.135000X-0.185000X0.135000X-0.185000X0.135000X0.185000X-0.135000X0.185000X0*%
%ADD17R,1.300000X1.100000*%
%ADD18RoundRect,0.140000X0.170000X-0.140000X0.170000X0.140000X-0.170000X0.140000X-0.170000X-0.140000X0*%
%ADD19RoundRect,0.140000X-0.170000X0.140000X-0.170000X-0.140000X0.170000X-0.140000X0.170000X0.140000X0*%
%ADD20RoundRect,0.135000X-0.185000X0.135000X-0.185000X-0.135000X0.185000X-0.135000X0.185000X0.135000X0*%
%ADD21RoundRect,0.135000X0.135000X0.185000X-0.135000X0.185000X-0.135000X-0.185000X0.135000X-0.185000X0*%
%ADD22RoundRect,0.075000X-0.275000X0.390000X-0.275000X-0.390000X0.275000X-0.390000X0.275000X0.390000X0*%
%ADD23RoundRect,0.075000X-0.275000X0.075000X-0.275000X-0.075000X0.275000X-0.075000X0.275000X0.075000X0*%
%ADD24R,1.200000X0.700000*%
%ADD25R,0.800000X1.000000*%
%ADD26R,2.800000X1.000000*%
%ADD27R,1.200000X1.000000*%
%ADD28R,1.900000X1.300000*%
%ADD29RoundRect,0.218750X-0.218750X-0.256250X0.218750X-0.256250X0.218750X0.256250X-0.218750X0.256250X0*%
G04 APERTURE END LIST*
D10*
%TO.C,C11*%
X73660000Y-117000000D03*
X72700000Y-117000000D03*
%TD*%
D11*
%TO.C,J30*%
X59750000Y-121556000D03*
X59750000Y-119778000D03*
X59750000Y-118000000D03*
%TD*%
D12*
%TO.C,R2*%
X67940000Y-122110000D03*
X67940000Y-121090000D03*
%TD*%
D13*
%TO.C,C2*%
X67790000Y-124280000D03*
X68750000Y-124280000D03*
%TD*%
D11*
%TO.C,J32*%
X59750000Y-105778000D03*
X59750000Y-104000000D03*
X59750000Y-102222000D03*
%TD*%
D14*
%TO.C,U5*%
X74090000Y-113080000D03*
X74090000Y-113480000D03*
X74090000Y-113880000D03*
X74090000Y-114280000D03*
X74090000Y-114680000D03*
X74090000Y-115080000D03*
X74090000Y-115480000D03*
X74090000Y-115880000D03*
X72840000Y-115880000D03*
X72840000Y-115480000D03*
X72840000Y-115080000D03*
X72840000Y-114680000D03*
X72840000Y-114280000D03*
X72840000Y-113880000D03*
X72840000Y-113480000D03*
X72840000Y-113080000D03*
D15*
X73465000Y-115530000D03*
X73465000Y-114830000D03*
X73465000Y-114130000D03*
X73465000Y-113430000D03*
%TD*%
D16*
%TO.C,R18*%
X63240000Y-110250000D03*
X64260000Y-110250000D03*
%TD*%
D13*
%TO.C,C30*%
X81270000Y-129720000D03*
X82230000Y-129720000D03*
%TD*%
D10*
%TO.C,C1*%
X66980000Y-128500000D03*
X66020000Y-128500000D03*
%TD*%
D17*
%TO.C,Y2*%
X71500000Y-119200000D03*
X73800000Y-119200000D03*
X73800000Y-121000000D03*
X71500000Y-121000000D03*
%TD*%
D18*
%TO.C,C33*%
X67750000Y-114460000D03*
X67750000Y-113500000D03*
%TD*%
D19*
%TO.C,C25*%
X68750000Y-115770000D03*
X68750000Y-116730000D03*
%TD*%
D20*
%TO.C,R9*%
X75500000Y-126990000D03*
X75500000Y-128010000D03*
%TD*%
D10*
%TO.C,C6*%
X71730000Y-123250000D03*
X70770000Y-123250000D03*
%TD*%
D21*
%TO.C,R7*%
X75260000Y-110000000D03*
X74240000Y-110000000D03*
%TD*%
D13*
%TO.C,C5*%
X67790000Y-123250000D03*
X68750000Y-123250000D03*
%TD*%
D11*
%TO.C,J31*%
X85500000Y-128778000D03*
X85500000Y-127000000D03*
X85500000Y-125222000D03*
%TD*%
D13*
%TO.C,C8*%
X66520000Y-119250000D03*
X67480000Y-119250000D03*
%TD*%
D18*
%TO.C,C35*%
X66940000Y-122080000D03*
X66940000Y-121120000D03*
%TD*%
D16*
%TO.C,R19*%
X63240000Y-111250000D03*
X64260000Y-111250000D03*
%TD*%
D11*
%TO.C,J33*%
X90250000Y-105806000D03*
X90250000Y-104028000D03*
X90250000Y-102250000D03*
%TD*%
D18*
%TO.C,C16*%
X70250000Y-116750000D03*
X70250000Y-115790000D03*
%TD*%
D22*
%TO.C,D5*%
X73250000Y-127250000D03*
D23*
X73250000Y-128135000D03*
%TD*%
D13*
%TO.C,C7*%
X67790000Y-125310000D03*
X68750000Y-125310000D03*
%TD*%
D12*
%TO.C,R22*%
X66750000Y-114510000D03*
X66750000Y-113490000D03*
%TD*%
D20*
%TO.C,R21*%
X69000000Y-101890000D03*
X69000000Y-102910000D03*
%TD*%
D10*
%TO.C,C3*%
X64980000Y-128500000D03*
X64020000Y-128500000D03*
%TD*%
%TO.C,C4*%
X64980000Y-129500000D03*
X64020000Y-129500000D03*
%TD*%
D13*
%TO.C,C31*%
X81270000Y-128750000D03*
X82230000Y-128750000D03*
%TD*%
%TO.C,C23*%
X72020000Y-106750000D03*
X72980000Y-106750000D03*
%TD*%
D24*
%TO.C,J2*%
X76775000Y-118275000D03*
X76775000Y-117175000D03*
X76775000Y-116075000D03*
X76775000Y-114975000D03*
X76775000Y-113875000D03*
X76775000Y-112775000D03*
X76775000Y-111675000D03*
X76775000Y-110575000D03*
X76775000Y-109625000D03*
D25*
X87275000Y-108675000D03*
D26*
X91425000Y-108675000D03*
D27*
X81075000Y-108675000D03*
X76775000Y-119825000D03*
D28*
X91875000Y-122175000D03*
%TD*%
D20*
%TO.C,R20*%
X70000000Y-101890000D03*
X70000000Y-102910000D03*
%TD*%
D18*
%TO.C,C17*%
X71250000Y-116730000D03*
X71250000Y-115770000D03*
%TD*%
D13*
%TO.C,C22*%
X72020000Y-107750000D03*
X72980000Y-107750000D03*
%TD*%
D29*
%TO.C,FB1*%
X73212500Y-123500000D03*
X74787500Y-123500000D03*
%TD*%
D18*
%TO.C,C36*%
X66000000Y-122080000D03*
X66000000Y-121120000D03*
%TD*%
D13*
%TO.C,C9*%
X66520000Y-118250000D03*
X67480000Y-118250000D03*
%TD*%
D19*
%TO.C,C24*%
X67750000Y-115770000D03*
X67750000Y-116730000D03*
%TD*%
D20*
%TO.C,R8*%
X74500000Y-126990000D03*
X74500000Y-128010000D03*
%TD*%
M02*
