%TF.GenerationSoftware,KiCad,Pcbnew,9.0.1*%
%TF.CreationDate,2025-05-02T13:40:16-04:00*%
%TF.ProjectId,Control Board V2,436f6e74-726f-46c2-9042-6f6172642056,rev?*%
%TF.SameCoordinates,Original*%
%TF.FileFunction,Copper,L1,Top*%
%TF.FilePolarity,Positive*%
%FSLAX46Y46*%
G04 Gerber Fmt 4.6, Leading zero omitted, Abs format (unit mm)*
G04 Created by KiCad (PCBNEW 9.0.1) date 2025-05-02 13:40:16*
%MOMM*%
%LPD*%
G01*
G04 APERTURE LIST*
G04 Aperture macros list*
%AMRoundRect*
0 Rectangle with rounded corners*
0 $1 Rounding radius*
0 $2 $3 $4 $5 $6 $7 $8 $9 X,Y pos of 4 corners*
0 Add a 4 corners polygon primitive as box body*
4,1,4,$2,$3,$4,$5,$6,$7,$8,$9,$2,$3,0*
0 Add four circle primitives for the rounded corners*
1,1,$1+$1,$2,$3*
1,1,$1+$1,$4,$5*
1,1,$1+$1,$6,$7*
1,1,$1+$1,$8,$9*
0 Add four rect primitives between the rounded corners*
20,1,$1+$1,$2,$3,$4,$5,0*
20,1,$1+$1,$4,$5,$6,$7,0*
20,1,$1+$1,$6,$7,$8,$9,0*
20,1,$1+$1,$8,$9,$2,$3,0*%
G04 Aperture macros list end*
%TA.AperFunction,SMDPad,CuDef*%
%ADD10RoundRect,0.147500X0.147500X0.172500X-0.147500X0.172500X-0.147500X-0.172500X0.147500X-0.172500X0*%
%TD*%
%TA.AperFunction,SMDPad,CuDef*%
%ADD11RoundRect,0.135000X-0.135000X-0.185000X0.135000X-0.185000X0.135000X0.185000X-0.135000X0.185000X0*%
%TD*%
%TA.AperFunction,SMDPad,CuDef*%
%ADD12RoundRect,0.150000X0.625000X-0.150000X0.625000X0.150000X-0.625000X0.150000X-0.625000X-0.150000X0*%
%TD*%
%TA.AperFunction,SMDPad,CuDef*%
%ADD13RoundRect,0.250000X0.650000X-0.350000X0.650000X0.350000X-0.650000X0.350000X-0.650000X-0.350000X0*%
%TD*%
%TA.AperFunction,SMDPad,CuDef*%
%ADD14RoundRect,0.140000X0.140000X0.170000X-0.140000X0.170000X-0.140000X-0.170000X0.140000X-0.170000X0*%
%TD*%
%TA.AperFunction,SMDPad,CuDef*%
%ADD15RoundRect,0.140000X0.170000X-0.140000X0.170000X0.140000X-0.170000X0.140000X-0.170000X-0.140000X0*%
%TD*%
%TA.AperFunction,SMDPad,CuDef*%
%ADD16C,0.226000*%
%TD*%
%TA.AperFunction,ComponentPad*%
%ADD17C,1.700000*%
%TD*%
%TA.AperFunction,ComponentPad*%
%ADD18R,1.700000X1.700000*%
%TD*%
%TA.AperFunction,SMDPad,CuDef*%
%ADD19RoundRect,0.075000X-0.175000X-0.425000X0.175000X-0.425000X0.175000X0.425000X-0.175000X0.425000X0*%
%TD*%
%TA.AperFunction,SMDPad,CuDef*%
%ADD20RoundRect,0.135000X0.135000X0.185000X-0.135000X0.185000X-0.135000X-0.185000X0.135000X-0.185000X0*%
%TD*%
%TA.AperFunction,SMDPad,CuDef*%
%ADD21RoundRect,0.150000X-0.625000X0.150000X-0.625000X-0.150000X0.625000X-0.150000X0.625000X0.150000X0*%
%TD*%
%TA.AperFunction,SMDPad,CuDef*%
%ADD22RoundRect,0.250000X-0.650000X0.350000X-0.650000X-0.350000X0.650000X-0.350000X0.650000X0.350000X0*%
%TD*%
%TA.AperFunction,ComponentPad*%
%ADD23C,1.000000*%
%TD*%
%TA.AperFunction,SMDPad,CuDef*%
%ADD24RoundRect,0.147500X-0.172500X0.147500X-0.172500X-0.147500X0.172500X-0.147500X0.172500X0.147500X0*%
%TD*%
%TA.AperFunction,ComponentPad*%
%ADD25C,5.500000*%
%TD*%
%TA.AperFunction,SMDPad,CuDef*%
%ADD26RoundRect,0.140000X-0.170000X0.140000X-0.170000X-0.140000X0.170000X-0.140000X0.170000X0.140000X0*%
%TD*%
%TA.AperFunction,SMDPad,CuDef*%
%ADD27RoundRect,0.050000X0.285000X0.100000X-0.285000X0.100000X-0.285000X-0.100000X0.285000X-0.100000X0*%
%TD*%
%TA.AperFunction,SMDPad,CuDef*%
%ADD28RoundRect,0.135000X0.185000X-0.135000X0.185000X0.135000X-0.185000X0.135000X-0.185000X-0.135000X0*%
%TD*%
%TA.AperFunction,SMDPad,CuDef*%
%ADD29R,0.300000X0.300000*%
%TD*%
%TA.AperFunction,SMDPad,CuDef*%
%ADD30R,0.900000X0.300000*%
%TD*%
%TA.AperFunction,SMDPad,CuDef*%
%ADD31R,0.300000X0.900000*%
%TD*%
%TA.AperFunction,SMDPad,CuDef*%
%ADD32R,1.800000X1.800000*%
%TD*%
%TA.AperFunction,SMDPad,CuDef*%
%ADD33RoundRect,0.140000X-0.140000X-0.170000X0.140000X-0.170000X0.140000X0.170000X-0.140000X0.170000X0*%
%TD*%
%TA.AperFunction,SMDPad,CuDef*%
%ADD34R,0.600000X0.200000*%
%TD*%
%TA.AperFunction,SMDPad,CuDef*%
%ADD35R,1.600000X0.200000*%
%TD*%
%TA.AperFunction,SMDPad,CuDef*%
%ADD36R,0.250000X0.275000*%
%TD*%
%TA.AperFunction,SMDPad,CuDef*%
%ADD37R,0.275000X0.250000*%
%TD*%
%TA.AperFunction,SMDPad,CuDef*%
%ADD38R,0.200000X0.200000*%
%TD*%
%TA.AperFunction,SMDPad,CuDef*%
%ADD39R,0.950000X1.750000*%
%TD*%
%TA.AperFunction,SMDPad,CuDef*%
%ADD40R,3.250000X1.750000*%
%TD*%
%TA.AperFunction,SMDPad,CuDef*%
%ADD41R,0.600000X1.240000*%
%TD*%
%TA.AperFunction,SMDPad,CuDef*%
%ADD42R,0.300000X1.240000*%
%TD*%
%TA.AperFunction,HeatsinkPad*%
%ADD43O,1.000000X2.100000*%
%TD*%
%TA.AperFunction,HeatsinkPad*%
%ADD44O,1.000000X1.800000*%
%TD*%
%TA.AperFunction,SMDPad,CuDef*%
%ADD45RoundRect,0.075000X0.075000X-0.700000X0.075000X0.700000X-0.075000X0.700000X-0.075000X-0.700000X0*%
%TD*%
%TA.AperFunction,SMDPad,CuDef*%
%ADD46RoundRect,0.075000X0.700000X-0.075000X0.700000X0.075000X-0.700000X0.075000X-0.700000X-0.075000X0*%
%TD*%
%TA.AperFunction,SMDPad,CuDef*%
%ADD47R,1.150000X0.400000*%
%TD*%
%TA.AperFunction,SMDPad,CuDef*%
%ADD48R,1.700000X0.900000*%
%TD*%
%TA.AperFunction,SMDPad,CuDef*%
%ADD49R,1.100000X0.800000*%
%TD*%
%TA.AperFunction,CastellatedPad*%
%ADD50O,3.000000X3.000000*%
%TD*%
%TA.AperFunction,SMDPad,CuDef*%
%ADD51RoundRect,0.050000X-0.225000X-0.050000X0.225000X-0.050000X0.225000X0.050000X-0.225000X0.050000X0*%
%TD*%
%TA.AperFunction,SMDPad,CuDef*%
%ADD52RoundRect,0.050000X0.050000X-0.225000X0.050000X0.225000X-0.050000X0.225000X-0.050000X-0.225000X0*%
%TD*%
%TA.AperFunction,SMDPad,CuDef*%
%ADD53RoundRect,0.135000X-0.185000X0.135000X-0.185000X-0.135000X0.185000X-0.135000X0.185000X0.135000X0*%
%TD*%
%TA.AperFunction,SMDPad,CuDef*%
%ADD54RoundRect,0.225000X-0.250000X0.225000X-0.250000X-0.225000X0.250000X-0.225000X0.250000X0.225000X0*%
%TD*%
%TA.AperFunction,ViaPad*%
%ADD55C,0.600000*%
%TD*%
%TA.AperFunction,Conductor*%
%ADD56C,0.160000*%
%TD*%
%TA.AperFunction,Conductor*%
%ADD57C,0.200000*%
%TD*%
%TA.AperFunction,Conductor*%
%ADD58C,0.250000*%
%TD*%
%TA.AperFunction,Conductor*%
%ADD59C,0.500000*%
%TD*%
G04 APERTURE END LIST*
D10*
%TO.P,D3,1,K*%
%TO.N,Net-(D3-K)*%
X82470000Y-123000000D03*
%TO.P,D3,2,A*%
%TO.N,Net-(D3-A)*%
X81500000Y-123000000D03*
%TD*%
D11*
%TO.P,R17,1*%
%TO.N,Net-(U6-PR1)*%
X77240000Y-99750000D03*
%TO.P,R17,2*%
%TO.N,GND*%
X78260000Y-99750000D03*
%TD*%
D12*
%TO.P,J38,1,Pin_1*%
%TO.N,UART4_TX*%
X88250000Y-121250000D03*
%TO.P,J38,2,Pin_2*%
%TO.N,UART4_RX*%
X88250000Y-120250000D03*
%TO.P,J38,3,Pin_3*%
%TO.N,+3V3*%
X88250000Y-119250000D03*
%TO.P,J38,4,Pin_4*%
%TO.N,GND*%
X88250000Y-118250000D03*
D13*
%TO.P,J38,MP,MountPin*%
X92125000Y-122550000D03*
X92125000Y-116950000D03*
%TD*%
D14*
%TO.P,C14,1*%
%TO.N,GND*%
X83230000Y-108750000D03*
%TO.P,C14,2*%
%TO.N,Net-(C14-Pad2)*%
X82270000Y-108750000D03*
%TD*%
D12*
%TO.P,J39,1,Pin_1*%
%TO.N,USART3_TX*%
X88250000Y-113375000D03*
%TO.P,J39,2,Pin_2*%
%TO.N,USART3_RX*%
X88250000Y-112375000D03*
%TO.P,J39,3,Pin_3*%
%TO.N,+3V3*%
X88250000Y-111375000D03*
%TO.P,J39,4,Pin_4*%
%TO.N,GND*%
X88250000Y-110375000D03*
D13*
%TO.P,J39,MP,MountPin*%
X92125000Y-114675000D03*
X92125000Y-109075000D03*
%TD*%
D15*
%TO.P,C20,1*%
%TO.N,+3V3*%
X81500000Y-106730000D03*
%TO.P,C20,2*%
%TO.N,GND*%
X81500000Y-105770000D03*
%TD*%
D16*
%TO.P,IC2,A1,SDA_B*%
%TO.N,I2C_1_SDA*%
X68250000Y-125500000D03*
%TO.P,IC2,A2,SCL_B*%
%TO.N,I2C_1_SCL*%
X68750000Y-125500000D03*
%TO.P,IC2,B1,GND*%
%TO.N,GND*%
X68250000Y-126000000D03*
%TO.P,IC2,B2,VCCB*%
%TO.N,+3V3*%
X68750000Y-126000000D03*
%TO.P,IC2,C1,VCCA*%
%TO.N,+1V8*%
X68250000Y-126500000D03*
%TO.P,IC2,C2,OE*%
X68750000Y-126500000D03*
%TO.P,IC2,D1,SDA_A*%
%TO.N,Net-(IC2-SDA_A)*%
X68250000Y-127000000D03*
%TO.P,IC2,D2,SCL_A*%
%TO.N,Net-(IC2-SCL_A)*%
X68750000Y-127000000D03*
%TD*%
D17*
%TO.P,J1,2,SWDIO*%
%TO.N,/SWDIO*%
X83000000Y-99460000D03*
%TO.P,J1,3,~{RESET}*%
%TO.N,/RESET*%
X83000000Y-102000000D03*
%TO.P,J1,4,SWCLK*%
%TO.N,/SWCLK*%
X80460000Y-102000000D03*
D18*
%TO.P,J1,5,GND*%
%TO.N,GND*%
X80460000Y-99460000D03*
%TD*%
D19*
%TO.P,Y1,1,1*%
%TO.N,/LSE_IN*%
X70500000Y-120200000D03*
%TO.P,Y1,2,2*%
%TO.N,Net-(C34-Pad1)*%
X71600000Y-120200000D03*
%TD*%
D12*
%TO.P,J40,1,Pin_1*%
%TO.N,/RADIO_RX*%
X88250000Y-105500000D03*
%TO.P,J40,2,Pin_2*%
%TO.N,/RADIO_TX*%
X88250000Y-104500000D03*
%TO.P,J40,3,Pin_3*%
%TO.N,+3V3*%
X88250000Y-103500000D03*
%TO.P,J40,4,Pin_4*%
%TO.N,GND*%
X88250000Y-102500000D03*
D13*
%TO.P,J40,MP,MountPin*%
X92125000Y-106800000D03*
X92125000Y-101200000D03*
%TD*%
D14*
%TO.P,C12,1*%
%TO.N,Net-(U2-VDDA)*%
X77730000Y-120190000D03*
%TO.P,C12,2*%
%TO.N,GND*%
X76770000Y-120190000D03*
%TD*%
D20*
%TO.P,R15,1*%
%TO.N,+3V3USB*%
X75770000Y-103500000D03*
%TO.P,R15,2*%
%TO.N,Net-(U6-ST)*%
X74750000Y-103500000D03*
%TD*%
D21*
%TO.P,J36,1,Pin_1*%
%TO.N,I2C_2_SCL*%
X61750000Y-110375000D03*
%TO.P,J36,2,Pin_2*%
%TO.N,I2C_2_SDA*%
X61750000Y-111375000D03*
%TO.P,J36,3,Pin_3*%
%TO.N,+3V3*%
X61750000Y-112375000D03*
%TO.P,J36,4,Pin_4*%
%TO.N,GND*%
X61750000Y-113375000D03*
D22*
%TO.P,J36,MP,MountPin*%
X57875000Y-109075000D03*
X57875000Y-114675000D03*
%TD*%
D15*
%TO.P,C21,1*%
%TO.N,+3V3*%
X82560000Y-106730000D03*
%TO.P,C21,2*%
%TO.N,GND*%
X82560000Y-105770000D03*
%TD*%
D11*
%TO.P,R16,1*%
%TO.N,+3V3USB*%
X77240000Y-98750000D03*
%TO.P,R16,2*%
%TO.N,Net-(U6-PR1)*%
X78260000Y-98750000D03*
%TD*%
D21*
%TO.P,J34,1,Pin_1*%
%TO.N,I2C_1_SCL*%
X61750000Y-118250000D03*
%TO.P,J34,2,Pin_2*%
%TO.N,I2C_1_SDA*%
X61750000Y-119250000D03*
%TO.P,J34,3,Pin_3*%
%TO.N,+3V3*%
X61750000Y-120250000D03*
%TO.P,J34,4,Pin_4*%
%TO.N,GND*%
X61750000Y-121250000D03*
D22*
%TO.P,J34,MP,MountPin*%
X57875000Y-116950000D03*
X57875000Y-122550000D03*
%TD*%
D23*
%TO.P,TP4,1,1*%
%TO.N,+VBUS*%
X68500000Y-129000000D03*
%TD*%
%TO.P,TP3,1,1*%
%TO.N,+3V3USB*%
X81500000Y-127250000D03*
%TD*%
D24*
%TO.P,D7,1,K*%
%TO.N,GND*%
X67250000Y-103750000D03*
%TO.P,D7,2,A*%
%TO.N,Net-(D7-A)*%
X67250000Y-104720000D03*
%TD*%
D25*
%TO.P,H2,1,1*%
%TO.N,GND*%
X60000000Y-97000000D03*
%TD*%
D26*
%TO.P,C10,1*%
%TO.N,/LSE_IN*%
X70510000Y-121470000D03*
%TO.P,C10,2*%
%TO.N,GND*%
X70510000Y-122430000D03*
%TD*%
D14*
%TO.P,C13,1*%
%TO.N,Net-(U2-VDDA)*%
X77730000Y-119250000D03*
%TO.P,C13,2*%
%TO.N,GND*%
X76770000Y-119250000D03*
%TD*%
D25*
%TO.P,H1,1,1*%
%TO.N,GND*%
X90000000Y-127000000D03*
%TD*%
D27*
%TO.P,U6,1,GND*%
%TO.N,GND*%
X75730000Y-102250000D03*
%TO.P,U6,2,VOUT*%
%TO.N,+3V3*%
X75730000Y-101750000D03*
%TO.P,U6,3,VIN1*%
%TO.N,+3V3USB*%
X75730000Y-101250000D03*
%TO.P,U6,4,PR1*%
%TO.N,Net-(U6-PR1)*%
X75730000Y-100750000D03*
%TO.P,U6,5,MODE*%
%TO.N,+3V3USB*%
X74250000Y-100750000D03*
%TO.P,U6,6,VIN2*%
%TO.N,+VBAT*%
X74250000Y-101250000D03*
%TO.P,U6,7,VOUT*%
%TO.N,+3V3*%
X74250000Y-101750000D03*
%TO.P,U6,8,ST*%
%TO.N,Net-(U6-ST)*%
X74250000Y-102250000D03*
%TD*%
D28*
%TO.P,R11,1*%
%TO.N,+VBUS*%
X81250000Y-129760000D03*
%TO.P,R11,2*%
%TO.N,/USB to UART/VBUS*%
X81250000Y-128740000D03*
%TD*%
D29*
%TO.P,U3,1,RS485/GPIO.1*%
%TO.N,unconnected-(U3-RS485{slash}GPIO.1-Pad1)*%
X83500000Y-124750000D03*
D30*
%TO.P,U3,2,CLK/GPIO.0*%
%TO.N,unconnected-(U3-CLK{slash}GPIO.0-Pad2)*%
X83200000Y-125250000D03*
%TO.P,U3,3,GND*%
%TO.N,GND*%
X83200000Y-125750000D03*
%TO.P,U3,4,D+*%
%TO.N,/USB to UART/D+*%
X83200000Y-126250000D03*
%TO.P,U3,5,D-*%
%TO.N,/USB to UART/D-*%
X83200000Y-126750000D03*
D29*
%TO.P,U3,6,VDD*%
%TO.N,+3V3USB*%
X83500000Y-127250000D03*
D31*
%TO.P,U3,7,VREGIN*%
%TO.N,/USB to UART/VBUS*%
X84000000Y-127550000D03*
%TO.P,U3,8,VBUS*%
X84500000Y-127550000D03*
%TO.P,U3,9,~{RST}*%
%TO.N,Net-(U3-~{RST})*%
X85000000Y-127550000D03*
%TO.P,U3,10,NC*%
%TO.N,unconnected-(U3-NC-Pad10)*%
X85500000Y-127550000D03*
D29*
%TO.P,U3,11,~{SUSPEND}*%
%TO.N,unconnected-(U3-~{SUSPEND}-Pad11)*%
X86000000Y-127250000D03*
D30*
%TO.P,U3,12,GND*%
%TO.N,GND*%
X86300000Y-126750000D03*
%TO.P,U3,13,~{WAKEUP}*%
%TO.N,unconnected-(U3-~{WAKEUP}-Pad13)*%
X86300000Y-126250000D03*
%TO.P,U3,14,SUSPEND*%
%TO.N,unconnected-(U3-SUSPEND-Pad14)*%
X86300000Y-125750000D03*
%TO.P,U3,15,~{CTS}*%
%TO.N,unconnected-(U3-~{CTS}-Pad15)*%
X86300000Y-125250000D03*
D29*
%TO.P,U3,16,~{RTS}*%
%TO.N,unconnected-(U3-~{RTS}-Pad16)*%
X86000000Y-124750000D03*
D31*
%TO.P,U3,17,RXD*%
%TO.N,/USART2_TX*%
X85500000Y-124450000D03*
%TO.P,U3,18,TXD*%
%TO.N,/USART2_RX*%
X85000000Y-124450000D03*
%TO.P,U3,19,~{RXT}/GPIO.3*%
%TO.N,Net-(D4-K)*%
X84500000Y-124450000D03*
%TO.P,U3,20,~{TXT}/GPIO.2*%
%TO.N,Net-(D3-K)*%
X84000000Y-124450000D03*
D32*
%TO.P,U3,21,GND*%
%TO.N,GND*%
X84750000Y-126000000D03*
%TD*%
D26*
%TO.P,C29,1*%
%TO.N,/USB to UART/VBUS*%
X83260000Y-128770000D03*
%TO.P,C29,2*%
%TO.N,GND*%
X83260000Y-129730000D03*
%TD*%
D33*
%TO.P,C18,1*%
%TO.N,+3V3*%
X82770000Y-114780000D03*
%TO.P,C18,2*%
%TO.N,GND*%
X83730000Y-114780000D03*
%TD*%
D26*
%TO.P,C28,1*%
%TO.N,/USB to UART/VBUS*%
X84250000Y-128770000D03*
%TO.P,C28,2*%
%TO.N,GND*%
X84250000Y-129730000D03*
%TD*%
D28*
%TO.P,R1,1*%
%TO.N,Net-(C34-Pad1)*%
X72750000Y-120260000D03*
%TO.P,R1,2*%
%TO.N,/LSE_OUT*%
X72750000Y-119240000D03*
%TD*%
D34*
%TO.P,IC4,1,VCC*%
%TO.N,+3V3*%
X66000000Y-116500000D03*
D35*
%TO.P,IC4,2,VSS*%
%TO.N,GND*%
X66500000Y-116900000D03*
D34*
%TO.P,IC4,3,SDA*%
%TO.N,I2C_1_SDA*%
X66000000Y-117300000D03*
%TO.P,IC4,4,SCL*%
%TO.N,I2C_1_SCL*%
X67000000Y-117300000D03*
%TO.P,IC4,5,~{WC}*%
%TO.N,/~{WC}*%
X67000000Y-116500000D03*
%TD*%
D36*
%TO.P,IC3,1,VDDIO*%
%TO.N,+3V3*%
X66762000Y-119487000D03*
%TO.P,IC3,2,SCK*%
%TO.N,I2C_1_SCL*%
X66262000Y-119487000D03*
D37*
%TO.P,IC3,3,VSS_1*%
%TO.N,GND*%
X65750000Y-119750000D03*
%TO.P,IC3,4,SDI*%
%TO.N,I2C_1_SDA*%
X65750000Y-120250000D03*
%TO.P,IC3,5,SDO*%
%TO.N,GND*%
X65750000Y-120750000D03*
D36*
%TO.P,IC3,6,CSB*%
%TO.N,+3V3*%
X66262000Y-121013000D03*
%TO.P,IC3,7,INT*%
%TO.N,/Barometer/INT*%
X66762000Y-121013000D03*
D37*
%TO.P,IC3,8,VSS_2*%
%TO.N,GND*%
X67274000Y-120750000D03*
%TO.P,IC3,9,VSS_3*%
X67274000Y-120250000D03*
%TO.P,IC3,10,VDD*%
%TO.N,+3V3*%
X67274000Y-119750000D03*
%TD*%
D14*
%TO.P,C15,1*%
%TO.N,GND*%
X83230000Y-107720000D03*
%TO.P,C15,2*%
%TO.N,Net-(C14-Pad2)*%
X82270000Y-107720000D03*
%TD*%
D28*
%TO.P,R10,1*%
%TO.N,+3V3*%
X85250000Y-129760000D03*
%TO.P,R10,2*%
%TO.N,Net-(U3-~{RST})*%
X85250000Y-128740000D03*
%TD*%
D38*
%TO.P,D2,1,GROUND*%
%TO.N,GND*%
X77000000Y-122000000D03*
%TO.P,D2,2,IO1*%
%TO.N,/USB to UART/D+*%
X77500000Y-121750000D03*
%TO.P,D2,3,IO2*%
%TO.N,/USB to UART/D-*%
X76500000Y-121750000D03*
%TD*%
D23*
%TO.P,TP2,1,1*%
%TO.N,+3V3*%
X77500000Y-101750000D03*
%TD*%
%TO.P,TP1,1,1*%
%TO.N,+VBAT*%
X72000000Y-101400000D03*
%TD*%
D39*
%TO.P,IC5,1,INPUT*%
%TO.N,Net-(BT1-+)*%
X69550000Y-94850000D03*
%TO.P,IC5,2,GROUND*%
%TO.N,GND*%
X67250000Y-94850000D03*
%TO.P,IC5,3,OUTPUT*%
%TO.N,+VBAT*%
X64950000Y-94850000D03*
D40*
%TO.P,IC5,4,TAB*%
%TO.N,GND*%
X67250000Y-101150000D03*
%TD*%
D41*
%TO.P,J35,A1,GND*%
%TO.N,GND*%
X71800000Y-124275000D03*
%TO.P,J35,A4,VBUS*%
%TO.N,+VBUS*%
X72600000Y-124275000D03*
D42*
%TO.P,J35,A5,CC1*%
%TO.N,Net-(J35-CC1)*%
X73750000Y-124275000D03*
%TO.P,J35,A6,D+*%
%TO.N,/USB to UART/D+*%
X74750000Y-124275000D03*
%TO.P,J35,A7,D-*%
%TO.N,/USB to UART/D-*%
X75250000Y-124275000D03*
%TO.P,J35,A8,SBU1*%
%TO.N,unconnected-(J35-SBU1-PadA8)*%
X76250000Y-124275000D03*
D41*
%TO.P,J35,A9,VBUS*%
%TO.N,+VBUS*%
X77400000Y-124275000D03*
%TO.P,J35,A12,GND*%
%TO.N,GND*%
X78200000Y-124275000D03*
%TO.P,J35,B1,GND*%
X78200000Y-124275000D03*
%TO.P,J35,B4,VBUS*%
%TO.N,+VBUS*%
X77400000Y-124275000D03*
D42*
%TO.P,J35,B5,CC2*%
%TO.N,Net-(J35-CC2)*%
X76750000Y-124275000D03*
%TO.P,J35,B6,D+*%
%TO.N,/USB to UART/D+*%
X75750000Y-124275000D03*
%TO.P,J35,B7,D-*%
%TO.N,/USB to UART/D-*%
X74250000Y-124275000D03*
%TO.P,J35,B8,SBU2*%
%TO.N,unconnected-(J35-SBU2-PadB8)*%
X73250000Y-124275000D03*
D41*
%TO.P,J35,B9,VBUS*%
%TO.N,+VBUS*%
X72600000Y-124275000D03*
%TO.P,J35,B12,GND*%
%TO.N,GND*%
X71800000Y-124275000D03*
D43*
%TO.P,J35,S1,SHIELD*%
X70680000Y-124875000D03*
D44*
X70680000Y-129075000D03*
D43*
X79320000Y-124875000D03*
D44*
X79320000Y-129075000D03*
%TD*%
D45*
%TO.P,U2,1,VBAT*%
%TO.N,+3V3*%
X71250001Y-117675000D03*
%TO.P,U2,2,PC13*%
%TO.N,/~{WC}*%
X71750000Y-117675000D03*
%TO.P,U2,3,PC14*%
%TO.N,/LSE_IN*%
X72250000Y-117675000D03*
%TO.P,U2,4,PC15*%
%TO.N,/LSE_OUT*%
X72750000Y-117675000D03*
%TO.P,U2,5,PH0*%
%TO.N,/HSE_IN*%
X73250000Y-117675000D03*
%TO.P,U2,6,PH1*%
%TO.N,/HSE_OUT*%
X73750001Y-117675000D03*
%TO.P,U2,7,NRST*%
%TO.N,/RESET*%
X74250000Y-117675000D03*
%TO.P,U2,8,PC0*%
%TO.N,/SD_DET*%
X74750000Y-117675000D03*
%TO.P,U2,9,PC1*%
%TO.N,Net-(J12-Pin_1)*%
X75250000Y-117675000D03*
%TO.P,U2,10,PC2*%
%TO.N,/FL_PWM*%
X75750000Y-117675000D03*
%TO.P,U2,11,PC3*%
%TO.N,Net-(J13-Pin_1)*%
X76249999Y-117675000D03*
%TO.P,U2,12,VSSA*%
%TO.N,GND*%
X76750000Y-117675000D03*
%TO.P,U2,13,VDDA*%
%TO.N,Net-(U2-VDDA)*%
X77250000Y-117675000D03*
%TO.P,U2,14,PA0*%
%TO.N,UART4_TX*%
X77750000Y-117675000D03*
%TO.P,U2,15,PA1*%
%TO.N,UART4_RX*%
X78250000Y-117675000D03*
%TO.P,U2,16,PA2*%
%TO.N,/USART2_TX*%
X78749999Y-117675000D03*
D46*
%TO.P,U2,17,PA3*%
%TO.N,/USART2_RX*%
X80675000Y-115749999D03*
%TO.P,U2,18,VSS*%
%TO.N,GND*%
X80675000Y-115250000D03*
%TO.P,U2,19,VDD*%
%TO.N,+3V3*%
X80675000Y-114750000D03*
%TO.P,U2,20,PA4*%
%TO.N,/SD_CS*%
X80675000Y-114250000D03*
%TO.P,U2,21,PA5*%
%TO.N,/SPI1_SCK*%
X80675000Y-113750000D03*
%TO.P,U2,22,PA6*%
%TO.N,/BL_PWM*%
X80675000Y-113249999D03*
%TO.P,U2,23,PA7*%
%TO.N,/BR_PWM*%
X80675000Y-112750000D03*
%TO.P,U2,24,PC4*%
%TO.N,USART3_RX*%
X80675000Y-112250000D03*
%TO.P,U2,25,PC5*%
%TO.N,Net-(J14-Pin_1)*%
X80675000Y-111750000D03*
%TO.P,U2,26,PB0*%
%TO.N,Net-(J26-Pin_1)*%
X80675000Y-111250000D03*
%TO.P,U2,27,PB1*%
%TO.N,Net-(J27-Pin_1)*%
X80675000Y-110750001D03*
%TO.P,U2,28,PB2*%
%TO.N,Net-(J28-Pin_1)*%
X80675000Y-110250000D03*
%TO.P,U2,29,PB10*%
%TO.N,I2C_2_SCL*%
X80675000Y-109750000D03*
%TO.P,U2,30,VCAP*%
%TO.N,Net-(C14-Pad2)*%
X80675000Y-109250000D03*
%TO.P,U2,31,VSS*%
%TO.N,GND*%
X80675000Y-108750000D03*
%TO.P,U2,32,VDD*%
%TO.N,+3V3*%
X80675000Y-108250001D03*
D45*
%TO.P,U2,33,PB12*%
%TO.N,I2C_2_SDA*%
X78749999Y-106325000D03*
%TO.P,U2,34,PB13*%
%TO.N,unconnected-(U2-PB13-Pad34)*%
X78250000Y-106325000D03*
%TO.P,U2,35,PB14*%
%TO.N,/UART4_DE*%
X77750000Y-106325000D03*
%TO.P,U2,36,PB15*%
%TO.N,/RADIO_TX*%
X77250000Y-106325000D03*
%TO.P,U2,37,PC6*%
%TO.N,Net-(J15-Pin_1)*%
X76750000Y-106325000D03*
%TO.P,U2,38,PC7*%
%TO.N,Net-(J16-Pin_1)*%
X76249999Y-106325000D03*
%TO.P,U2,39,PC8*%
%TO.N,Net-(J17-Pin_1)*%
X75750000Y-106325000D03*
%TO.P,U2,40,PC9*%
%TO.N,I2C_3_SDA*%
X75250000Y-106325000D03*
%TO.P,U2,41,PA8*%
%TO.N,I2C_3_SCL*%
X74750000Y-106325000D03*
%TO.P,U2,42,PA9*%
%TO.N,/RADIO_RX*%
X74250000Y-106325000D03*
%TO.P,U2,43,PA10*%
%TO.N,Net-(J22-Pin_1)*%
X73750001Y-106325000D03*
%TO.P,U2,44,PA11*%
%TO.N,Net-(J23-Pin_1)*%
X73250000Y-106325000D03*
%TO.P,U2,45,PA12*%
%TO.N,Net-(J24-Pin_1)*%
X72750000Y-106325000D03*
%TO.P,U2,46,PA13(JTMS*%
%TO.N,/SWDIO*%
X72250000Y-106325000D03*
%TO.P,U2,47,VSS*%
%TO.N,GND*%
X71750000Y-106325000D03*
%TO.P,U2,48,VDD*%
%TO.N,+3V3*%
X71250001Y-106325000D03*
D46*
%TO.P,U2,49,PA14(JTCK*%
%TO.N,/SWCLK*%
X69325000Y-108250001D03*
%TO.P,U2,50,PA15(JTDI)*%
%TO.N,Net-(J25-Pin_1)*%
X69325000Y-108750000D03*
%TO.P,U2,51,PC10*%
%TO.N,USART3_TX*%
X69325000Y-109250000D03*
%TO.P,U2,52,PC11*%
%TO.N,Net-(J18-Pin_1)*%
X69325000Y-109750000D03*
%TO.P,U2,53,PC12*%
%TO.N,Net-(J19-Pin_1)*%
X69325000Y-110250000D03*
%TO.P,U2,54,PD2*%
%TO.N,Net-(J10-Pin_1)*%
X69325000Y-110750001D03*
%TO.P,U2,55,PB3(JTDO*%
%TO.N,Net-(J29-Pin_1)*%
X69325000Y-111250000D03*
%TO.P,U2,56,PB4(NJTRST)*%
%TO.N,/SPI1_MISO*%
X69325000Y-111750000D03*
%TO.P,U2,57,PB5*%
%TO.N,/SPI2_MOSI*%
X69325000Y-112250000D03*
%TO.P,U2,58,PB6*%
%TO.N,I2C_1_SDA*%
X69325000Y-112750000D03*
%TO.P,U2,59,PB7*%
%TO.N,I2C_1_SCL*%
X69325000Y-113249999D03*
%TO.P,U2,60,BOOT0*%
%TO.N,Net-(U2-BOOT0)*%
X69325000Y-113750000D03*
%TO.P,U2,61,PB8*%
%TO.N,/FR_PWM*%
X69325000Y-114250000D03*
%TO.P,U2,62,VCAP*%
%TO.N,Net-(C16-Pad2)*%
X69325000Y-114750000D03*
%TO.P,U2,63,VSS*%
%TO.N,GND*%
X69325000Y-115250000D03*
%TO.P,U2,64,VDD*%
%TO.N,+3V3*%
X69325000Y-115749999D03*
%TD*%
D25*
%TO.P,H4,1,1*%
%TO.N,GND*%
X90000000Y-97000000D03*
%TD*%
D47*
%TO.P,IC1,1,VIN*%
%TO.N,Net-(IC1-EN)*%
X63800000Y-128450000D03*
%TO.P,IC1,2,GND*%
%TO.N,+3V3*%
X63800000Y-129100000D03*
%TO.P,IC1,3,EN*%
%TO.N,Net-(IC1-EN)*%
X63800000Y-129750000D03*
%TO.P,IC1,4,NC*%
%TO.N,unconnected-(IC1-NC-Pad4)*%
X65700000Y-129750000D03*
%TO.P,IC1,5,VOUT*%
%TO.N,+1V8*%
X65700000Y-128450000D03*
%TD*%
D48*
%TO.P,SW2,1,1*%
%TO.N,+3V3*%
X66650000Y-111300000D03*
%TO.P,SW2,2,2*%
%TO.N,Net-(U2-BOOT0)*%
X66650000Y-114700000D03*
D49*
%TO.P,SW2,3*%
%TO.N,N/C*%
X65010000Y-113000000D03*
%TD*%
D28*
%TO.P,R14,1*%
%TO.N,Net-(D4-A)*%
X80170000Y-120510000D03*
%TO.P,R14,2*%
%TO.N,GND*%
X80170000Y-119490000D03*
%TD*%
D33*
%TO.P,C26,1*%
%TO.N,GND*%
X85500000Y-100200000D03*
%TO.P,C26,2*%
%TO.N,+3V3*%
X86460000Y-100200000D03*
%TD*%
D50*
%TO.P,BT1,1,+*%
%TO.N,Net-(BT1-+)*%
X72968000Y-95500000D03*
%TO.P,BT1,2,-*%
%TO.N,GND*%
X77032000Y-95500000D03*
%TD*%
D51*
%TO.P,U1,1,NC*%
%TO.N,unconnected-(U1-NC-Pad1)*%
X64000000Y-124250000D03*
%TO.P,U1,2,NC*%
%TO.N,unconnected-(U1-NC-Pad2)*%
X64000000Y-124650000D03*
%TO.P,U1,3,NC*%
%TO.N,unconnected-(U1-NC-Pad3)*%
X64000000Y-125050000D03*
%TO.P,U1,4,NC*%
%TO.N,unconnected-(U1-NC-Pad4)*%
X64000000Y-125450000D03*
%TO.P,U1,5,NC*%
%TO.N,unconnected-(U1-NC-Pad5)*%
X64000000Y-125850000D03*
%TO.P,U1,6,NC*%
%TO.N,unconnected-(U1-NC-Pad6)*%
X64000000Y-126250000D03*
D52*
%TO.P,U1,7,AUX_CL*%
%TO.N,unconnected-(U1-AUX_CL-Pad7)*%
X64500000Y-126750000D03*
%TO.P,U1,8,VDDIO*%
%TO.N,+1V8*%
X64900000Y-126750000D03*
%TO.P,U1,9,SDO/AD0*%
%TO.N,GND*%
X65300000Y-126750000D03*
%TO.P,U1,10,REGOUT*%
%TO.N,Net-(U1-REGOUT)*%
X65700000Y-126750000D03*
%TO.P,U1,11,FSYNC*%
%TO.N,/IMU/FSYNC*%
X66100000Y-126750000D03*
%TO.P,U1,12,INT1*%
%TO.N,/IMU/INT*%
X66500000Y-126750000D03*
D51*
%TO.P,U1,13,VDD*%
%TO.N,+3V3*%
X67000000Y-126250000D03*
%TO.P,U1,14,NC*%
%TO.N,unconnected-(U1-NC-Pad14)*%
X67000000Y-125850000D03*
%TO.P,U1,15,NC*%
%TO.N,unconnected-(U1-NC-Pad15)*%
X67000000Y-125450000D03*
%TO.P,U1,16,NC*%
%TO.N,unconnected-(U1-NC-Pad16)*%
X67000000Y-125050000D03*
%TO.P,U1,17,NC*%
%TO.N,unconnected-(U1-NC-Pad17)*%
X67000000Y-124650000D03*
%TO.P,U1,18,GND*%
%TO.N,GND*%
X67000000Y-124250000D03*
D52*
%TO.P,U1,19,RESV*%
%TO.N,unconnected-(U1-RESV-Pad19)*%
X66500000Y-123750000D03*
%TO.P,U1,20,GND*%
%TO.N,GND*%
X66100000Y-123750000D03*
%TO.P,U1,21,AUX_DA*%
%TO.N,unconnected-(U1-AUX_DA-Pad21)*%
X65700000Y-123750000D03*
%TO.P,U1,22,~{CS}*%
%TO.N,unconnected-(U1-~{CS}-Pad22)*%
X65300000Y-123750000D03*
%TO.P,U1,23,SCL/SCLK*%
%TO.N,Net-(IC2-SCL_A)*%
X64900000Y-123750000D03*
%TO.P,U1,24,SDA/SDI*%
%TO.N,Net-(IC2-SDA_A)*%
X64500000Y-123750000D03*
%TD*%
D53*
%TO.P,R12,1*%
%TO.N,/USB to UART/VBUS*%
X82260000Y-128740000D03*
%TO.P,R12,2*%
%TO.N,GND*%
X82260000Y-129760000D03*
%TD*%
D10*
%TO.P,D4,1,K*%
%TO.N,Net-(D4-K)*%
X82485000Y-122000000D03*
%TO.P,D4,2,A*%
%TO.N,Net-(D4-A)*%
X81515000Y-122000000D03*
%TD*%
D28*
%TO.P,R13,1*%
%TO.N,Net-(D3-A)*%
X79000000Y-120510000D03*
%TO.P,R13,2*%
%TO.N,GND*%
X79000000Y-119490000D03*
%TD*%
D33*
%TO.P,C27,1*%
%TO.N,GND*%
X85500000Y-101290000D03*
%TO.P,C27,2*%
%TO.N,+3V3*%
X86460000Y-101290000D03*
%TD*%
D54*
%TO.P,C32,1*%
%TO.N,GND*%
X71600000Y-98025000D03*
%TO.P,C32,2*%
%TO.N,+VBAT*%
X71600000Y-99575000D03*
%TD*%
D33*
%TO.P,C19,1*%
%TO.N,+3V3*%
X82770000Y-115750000D03*
%TO.P,C19,2*%
%TO.N,GND*%
X83730000Y-115750000D03*
%TD*%
D26*
%TO.P,C34,1*%
%TO.N,Net-(C34-Pad1)*%
X71550000Y-121470000D03*
%TO.P,C34,2*%
%TO.N,GND*%
X71550000Y-122430000D03*
%TD*%
D28*
%TO.P,R23,1*%
%TO.N,Net-(D7-A)*%
X66250000Y-104745000D03*
%TO.P,R23,2*%
%TO.N,+3V3*%
X66250000Y-103725000D03*
%TD*%
D21*
%TO.P,J37,1,Pin_1*%
%TO.N,I2C_3_SCL*%
X61750000Y-102500000D03*
%TO.P,J37,2,Pin_2*%
%TO.N,I2C_3_SDA*%
X61750000Y-103500000D03*
%TO.P,J37,3,Pin_3*%
%TO.N,+3V3*%
X61750000Y-104500000D03*
%TO.P,J37,4,Pin_4*%
%TO.N,GND*%
X61750000Y-105500000D03*
D22*
%TO.P,J37,MP,MountPin*%
X57875000Y-101200000D03*
X57875000Y-106800000D03*
%TD*%
D25*
%TO.P,H3,1,1*%
%TO.N,GND*%
X60000000Y-127000000D03*
%TD*%
D55*
%TO.N,GND*%
X74900000Y-121300000D03*
X75700000Y-120400000D03*
X65100000Y-120800000D03*
%TO.N,+3V3*%
X86800000Y-127450000D03*
X86800000Y-129700000D03*
%TO.N,Net-(Y2-IN{slash}OUT)*%
X69500000Y-119400000D03*
X69500000Y-120500000D03*
%TO.N,/HSE_OUT*%
X74900000Y-119000000D03*
%TO.N,+3V3*%
X72301779Y-116473000D03*
%TO.N,GND*%
X72641496Y-121441496D03*
%TO.N,UART4_TX*%
X86800000Y-121200000D03*
X86800000Y-119743000D03*
%TO.N,Net-(U2-VDDA)*%
X77500000Y-121000000D03*
%TO.N,I2C_1_SDA*%
X63400000Y-117000000D03*
%TO.N,/USART2_RX*%
X85900000Y-119250000D03*
%TO.N,/BL_PWM*%
X85675000Y-121925000D03*
%TO.N,GND*%
X92500000Y-124250000D03*
X78500000Y-100500000D03*
X63500000Y-120500000D03*
X92250000Y-112750000D03*
X68750000Y-103750000D03*
X57750000Y-103250000D03*
X67500000Y-100750000D03*
X68250000Y-101500000D03*
X59500000Y-113250000D03*
X66750000Y-100750000D03*
X87250000Y-108750000D03*
X61000000Y-100750000D03*
X57500000Y-112750000D03*
X64750000Y-104500000D03*
X85750000Y-106000000D03*
X67500000Y-108000000D03*
X63750000Y-114000000D03*
X67250000Y-94850000D03*
X66750000Y-101500000D03*
X77750000Y-97500000D03*
X85500000Y-95500000D03*
X73465000Y-112679759D03*
X61500000Y-115750000D03*
X76925000Y-108750000D03*
X69000000Y-106500000D03*
X92250000Y-111000000D03*
X88500000Y-100750000D03*
X57750000Y-120750000D03*
X92125000Y-114675000D03*
X90000000Y-119500000D03*
X79401024Y-115635616D03*
X58000000Y-118750000D03*
X89000000Y-114750000D03*
X82000000Y-97750000D03*
X60000000Y-108750000D03*
X87000000Y-115000000D03*
X75000000Y-111500000D03*
X89250000Y-109000000D03*
X73800000Y-119200000D03*
X67500000Y-101500000D03*
X60250000Y-116500000D03*
X59250000Y-110500000D03*
X68750000Y-96750000D03*
X92250000Y-102500000D03*
X65400000Y-119200000D03*
X83750000Y-116500000D03*
X92250000Y-105250000D03*
X67765276Y-126003058D03*
X68000000Y-120250000D03*
X60000000Y-123000000D03*
X68250000Y-100750000D03*
X60000000Y-115000000D03*
X66000000Y-101500000D03*
X71000000Y-103750000D03*
X79250000Y-96250000D03*
X89750000Y-122000000D03*
X63250000Y-99000000D03*
X90250000Y-111875000D03*
X65250000Y-127750000D03*
X76497858Y-102788794D03*
X57750000Y-104500000D03*
X79000000Y-119490000D03*
X89000000Y-106750000D03*
X79000000Y-111750000D03*
X63250000Y-94500000D03*
X90250000Y-113250000D03*
X60000000Y-107000000D03*
X78000000Y-115750000D03*
X87500000Y-124000000D03*
X79250000Y-94250000D03*
X67750000Y-112248999D03*
X84250000Y-129700000D03*
X65000000Y-99250000D03*
X70250000Y-105000000D03*
X65500000Y-97500000D03*
X72980000Y-107750000D03*
X63750000Y-96750000D03*
X70000000Y-98000000D03*
X83750000Y-114000000D03*
X75500000Y-98500000D03*
X66000000Y-100750000D03*
X84750000Y-98500000D03*
X66750000Y-98750000D03*
X84000000Y-117500000D03*
X85250000Y-103250000D03*
X62750000Y-115000000D03*
X89750000Y-117000000D03*
X62500000Y-124000000D03*
X70250000Y-116750000D03*
X64000000Y-100750000D03*
X86750000Y-106500000D03*
X84000000Y-107750000D03*
X67103554Y-123396446D03*
X57500000Y-110750000D03*
X65476392Y-115952785D03*
X78100000Y-103500000D03*
X82000000Y-125399020D03*
X87250000Y-117000000D03*
X81750000Y-95500000D03*
%TO.N,+3V3*%
X83400000Y-106750000D03*
X59750000Y-119778000D03*
X71371075Y-114480000D03*
X66750000Y-127750000D03*
X66000000Y-111500000D03*
X79250000Y-114850000D03*
X70770000Y-123250000D03*
X87000000Y-103800000D03*
X62750000Y-128899997D03*
X89750000Y-118250000D03*
X73250000Y-110000000D03*
X71550003Y-108000000D03*
X65250000Y-103235000D03*
X66500000Y-120250000D03*
X73250000Y-102000000D03*
X63600000Y-113000000D03*
X63000000Y-104250000D03*
X89750000Y-110750000D03*
X73400000Y-122600000D03*
X67750000Y-115770000D03*
%TO.N,+1V8*%
X69400000Y-123700000D03*
%TO.N,Net-(U1-REGOUT)*%
X66017484Y-127524239D03*
%TO.N,Net-(IC1-EN)*%
X62750000Y-129700000D03*
%TO.N,/RESET*%
X74250000Y-108000000D03*
X74400000Y-116500000D03*
%TO.N,Net-(C16-Pad2)*%
X71250000Y-115770000D03*
%TO.N,+3V3USB*%
X85000000Y-111500000D03*
X85575000Y-109000000D03*
X76000000Y-99750000D03*
%TO.N,+VBUS*%
X72900000Y-125800000D03*
%TO.N,I2C_1_SCL*%
X64750000Y-116700000D03*
X62500000Y-117500000D03*
X64750000Y-118250000D03*
%TO.N,Net-(IC2-SDA_A)*%
X64269571Y-123019571D03*
X67511070Y-126770119D03*
%TO.N,Net-(IC2-SCL_A)*%
X65000000Y-122419571D03*
X68524144Y-127548286D03*
%TO.N,I2C_1_SDA*%
X66109285Y-112859285D03*
%TO.N,/SWCLK*%
X70287500Y-107287500D03*
%TO.N,/SWDIO*%
X75519731Y-104730269D03*
X72250000Y-105000000D03*
%TO.N,/SD_DET*%
X78000000Y-115000000D03*
%TO.N,I2C_2_SCL*%
X62562500Y-109562500D03*
X63750000Y-106750000D03*
X75675861Y-109245639D03*
%TO.N,I2C_2_SDA*%
X64799264Y-106700736D03*
X78695047Y-107466577D03*
X63000000Y-111750000D03*
%TO.N,I2C_3_SDA*%
X73791177Y-103708823D03*
X63000000Y-103300000D03*
%TO.N,I2C_3_SCL*%
X70896446Y-102603554D03*
%TO.N,USART3_TX*%
X82500000Y-109750000D03*
X84500000Y-112850000D03*
X78900000Y-110350000D03*
X83750000Y-111650000D03*
%TO.N,/FL_PWM*%
X75750000Y-119000000D03*
%TO.N,/BL_PWM*%
X79250000Y-113000000D03*
X83600000Y-121250000D03*
%TO.N,/FR_PWM*%
X70580442Y-113523362D03*
%TO.N,/BR_PWM*%
X86250000Y-110500000D03*
X86325201Y-108722148D03*
X85975000Y-113875000D03*
%TO.N,Net-(U2-BOOT0)*%
X66650000Y-114700000D03*
%TO.N,/SPI1_MISO*%
X72109381Y-113276825D03*
%TO.N,/SD_CS*%
X72000000Y-115800000D03*
%TO.N,/SPI2_MOSI*%
X70600000Y-112685852D03*
%TO.N,/SPI1_SCK*%
X72061206Y-114075376D03*
%TO.N,/USB to UART/D+*%
X74650000Y-125631427D03*
X75850000Y-125328013D03*
%TO.N,Net-(J35-CC1)*%
X74500000Y-126990000D03*
%TO.N,Net-(J35-CC2)*%
X75500000Y-126990000D03*
%TO.N,/USART2_RX*%
X85902852Y-123363961D03*
%TO.N,/USART2_TX*%
X84000000Y-122200000D03*
X81250000Y-119750000D03*
%TO.N,/HSE_IN*%
X73800000Y-121000000D03*
%TD*%
D56*
%TO.N,GND*%
X65700000Y-120800000D02*
X65750000Y-120750000D01*
X65100000Y-120800000D02*
X65700000Y-120800000D01*
D57*
%TO.N,I2C_3_SDA*%
X62800000Y-103500000D02*
X61750000Y-103500000D01*
X63000000Y-103300000D02*
X62800000Y-103500000D01*
%TO.N,/RESET*%
X74250000Y-116650000D02*
X74250000Y-117675000D01*
X74400000Y-116500000D02*
X74250000Y-116650000D01*
%TO.N,USART3_TX*%
X69374000Y-109299000D02*
X69325000Y-109250000D01*
X70182824Y-109299000D02*
X69374000Y-109299000D01*
X70401000Y-109517176D02*
X70182824Y-109299000D01*
X70401000Y-109982824D02*
X70401000Y-109517176D01*
X70383824Y-110000000D02*
X70401000Y-109982824D01*
X70401000Y-110017176D02*
X70383824Y-110000000D01*
X70401000Y-110326000D02*
X70401000Y-110017176D01*
X70825000Y-110750000D02*
X70401000Y-110326000D01*
X78900000Y-110350000D02*
X75921557Y-110350000D01*
X75521557Y-110750000D02*
X70825000Y-110750000D01*
X75921557Y-110350000D02*
X75521557Y-110750000D01*
D56*
%TO.N,/USART2_RX*%
X84175001Y-119250000D02*
X80675000Y-115749999D01*
X85900000Y-119250000D02*
X84175001Y-119250000D01*
D57*
%TO.N,Net-(IC2-SDA_A)*%
X64250000Y-123129226D02*
X64500000Y-123379226D01*
X64500000Y-123379226D02*
X64500000Y-123750000D01*
X64269571Y-123019571D02*
X64250000Y-123039142D01*
X64250000Y-123039142D02*
X64250000Y-123129226D01*
%TO.N,USART3_TX*%
X88075000Y-113200000D02*
X88250000Y-113375000D01*
X84850000Y-113200000D02*
X88075000Y-113200000D01*
X84500000Y-112850000D02*
X84850000Y-113200000D01*
D56*
%TO.N,/SWCLK*%
X70287500Y-107287500D02*
X69325000Y-108250001D01*
D57*
%TO.N,GND*%
X65762001Y-119725998D02*
X65750000Y-119737999D01*
X65762001Y-119562001D02*
X65762001Y-119725998D01*
X65400000Y-119200000D02*
X65762001Y-119562001D01*
X65750000Y-119737999D02*
X65750000Y-119750000D01*
D56*
%TO.N,UART4_TX*%
X78175562Y-116474439D02*
X77750000Y-116900001D01*
X78874439Y-116474439D02*
X78175562Y-116474439D01*
X82158000Y-119758000D02*
X78874439Y-116474439D01*
X77750000Y-116900001D02*
X77750000Y-117675000D01*
X86785000Y-119758000D02*
X82158000Y-119758000D01*
X86800000Y-119743000D02*
X86785000Y-119758000D01*
D57*
%TO.N,I2C_1_SCL*%
X68700000Y-122294430D02*
X68700000Y-119200000D01*
X68700000Y-119200000D02*
X66952512Y-117452512D01*
X68130000Y-122864430D02*
X68700000Y-122294430D01*
X68130000Y-124629999D02*
X68130000Y-122864430D01*
X68750000Y-125500000D02*
X68750000Y-125250000D01*
X68750000Y-125250000D02*
X68130000Y-124629999D01*
D56*
%TO.N,+3V3*%
X86800000Y-129700000D02*
X85310000Y-129700000D01*
X85310000Y-129700000D02*
X85250000Y-129760000D01*
%TO.N,+VBUS*%
X72600000Y-124967636D02*
X72600000Y-124275000D01*
X72900000Y-125800000D02*
X72900000Y-125267636D01*
D58*
X74473702Y-127849000D02*
X77200000Y-127849000D01*
D56*
X72900000Y-125267636D02*
X72600000Y-124967636D01*
D58*
X73222000Y-126597298D02*
X74473702Y-127849000D01*
X73222000Y-126122000D02*
X73222000Y-126597298D01*
X72900000Y-125800000D02*
X73222000Y-126122000D01*
D56*
%TO.N,/SWDIO*%
X75750000Y-104500000D02*
X75519731Y-104730269D01*
X76250000Y-104500000D02*
X75750000Y-104500000D01*
X81760000Y-100700000D02*
X80050000Y-100700000D01*
X80050000Y-100700000D02*
X76250000Y-104500000D01*
X83000000Y-99460000D02*
X81760000Y-100700000D01*
%TO.N,Net-(Y2-IN{slash}OUT)*%
X69500000Y-119600000D02*
X69500000Y-119400000D01*
X69500000Y-120500000D02*
X69500000Y-119600000D01*
%TO.N,/HSE_OUT*%
X74397700Y-119000000D02*
X73750001Y-118352301D01*
X74900000Y-119000000D02*
X74397700Y-119000000D01*
X73750001Y-118352301D02*
X73750001Y-117675000D01*
D57*
%TO.N,+1V8*%
X69500000Y-126500000D02*
X68750000Y-126500000D01*
X69879000Y-124629000D02*
X69879000Y-126121000D01*
X69879000Y-126121000D02*
X69500000Y-126500000D01*
X69400000Y-124150000D02*
X69879000Y-124629000D01*
X69400000Y-123700000D02*
X69400000Y-124150000D01*
D56*
%TO.N,GND*%
X70510000Y-122430000D02*
X71550000Y-122430000D01*
%TO.N,+3V3*%
X71677002Y-116473000D02*
X72301779Y-116473000D01*
X71250001Y-116900001D02*
X71677002Y-116473000D01*
X71250001Y-117675000D02*
X71250001Y-116900001D01*
D57*
%TO.N,/SD_CS*%
X72000000Y-115800000D02*
X72000000Y-115583070D01*
X73333070Y-114250000D02*
X80675000Y-114250000D01*
X72000000Y-115583070D02*
X73333070Y-114250000D01*
D56*
%TO.N,I2C_1_SDA*%
X63400000Y-117000000D02*
X63700000Y-117300000D01*
X63700000Y-117300000D02*
X66000000Y-117300000D01*
D57*
X63400000Y-117000000D02*
X63400000Y-117151470D01*
X62524999Y-119250000D02*
X61750000Y-119250000D01*
X63174265Y-118600734D02*
X62524999Y-119250000D01*
X63174265Y-117898035D02*
X63174265Y-118600734D01*
X63400000Y-117672300D02*
X63174265Y-117898035D01*
X63400000Y-117000000D02*
X63400000Y-117672300D01*
%TO.N,I2C_3_SCL*%
X74750000Y-105516176D02*
X74750000Y-106325000D01*
X71733824Y-102500000D02*
X74750000Y-105516176D01*
X63500000Y-102500000D02*
X71733824Y-102500000D01*
D56*
X63500000Y-102500000D02*
X61750000Y-102500000D01*
%TO.N,+3V3*%
X62875000Y-112375000D02*
X61750000Y-112375000D01*
X63600000Y-113000000D02*
X63500000Y-113000000D01*
X63500000Y-113000000D02*
X62875000Y-112375000D01*
D57*
%TO.N,/USB to UART/D-*%
X74250000Y-122950000D02*
X74250000Y-124275000D01*
X74600000Y-122600000D02*
X74250000Y-122950000D01*
X74990954Y-122600000D02*
X74600000Y-122600000D01*
X75840954Y-121750000D02*
X74990954Y-122600000D01*
X76500000Y-121750000D02*
X75840954Y-121750000D01*
D56*
%TO.N,GND*%
X71652992Y-122430000D02*
X72641496Y-121441496D01*
X71550000Y-122430000D02*
X71652992Y-122430000D01*
%TO.N,/LSE_IN*%
X72250000Y-118517402D02*
X72250000Y-117675000D01*
X70567402Y-120200000D02*
X72250000Y-118517402D01*
X70500000Y-120200000D02*
X70567402Y-120200000D01*
%TO.N,Net-(C34-Pad1)*%
X72690000Y-120200000D02*
X72750000Y-120260000D01*
X71600000Y-120200000D02*
X72690000Y-120200000D01*
%TO.N,/HSE_IN*%
X73292000Y-120492000D02*
X73292000Y-117717000D01*
X73800000Y-121000000D02*
X73292000Y-120492000D01*
X73292000Y-117717000D02*
X73250000Y-117675000D01*
D57*
%TO.N,Net-(U2-VDDA)*%
X77500000Y-120420000D02*
X77730000Y-120190000D01*
X77500000Y-121000000D02*
X77500000Y-120420000D01*
%TO.N,/BL_PWM*%
X83850000Y-121500000D02*
X83600000Y-121250000D01*
X85250000Y-121500000D02*
X83850000Y-121500000D01*
X85675000Y-121925000D02*
X85250000Y-121500000D01*
D56*
%TO.N,/USART2_TX*%
X86410852Y-123153540D02*
X86410852Y-123574382D01*
X86410852Y-123574382D02*
X85535234Y-124450000D01*
X84400000Y-122600000D02*
X85857312Y-122600000D01*
X85535234Y-124450000D02*
X85500000Y-124450000D01*
X84000000Y-122200000D02*
X84400000Y-122600000D01*
X85857312Y-122600000D02*
X86410852Y-123153540D01*
%TO.N,UART4_TX*%
X88200000Y-121200000D02*
X88250000Y-121250000D01*
X86800000Y-121200000D02*
X88200000Y-121200000D01*
%TO.N,UART4_RX*%
X83900000Y-120250000D02*
X88250000Y-120250000D01*
X80600000Y-120000000D02*
X81150000Y-120550000D01*
X81150000Y-120550000D02*
X83600000Y-120550000D01*
X83600000Y-120550000D02*
X83900000Y-120250000D01*
X78701182Y-120000000D02*
X80600000Y-120000000D01*
X78250000Y-119548818D02*
X78701182Y-120000000D01*
X78250000Y-117675000D02*
X78250000Y-119548818D01*
%TO.N,GND*%
X77000000Y-121750000D02*
X76770000Y-121520000D01*
D57*
X69325000Y-115250000D02*
X70133825Y-115250000D01*
X71800000Y-124275000D02*
X71280000Y-124275000D01*
X76770000Y-119250000D02*
X76770000Y-120190000D01*
X83730000Y-116480000D02*
X83750000Y-116500000D01*
X65351000Y-116078177D02*
X65476392Y-115952785D01*
X78260000Y-100260000D02*
X78500000Y-100500000D01*
X79786640Y-115250000D02*
X79401024Y-115635616D01*
X68250000Y-126000000D02*
X67768334Y-126000000D01*
X86300000Y-126750000D02*
X89750000Y-126750000D01*
X67103554Y-123396446D02*
X67103554Y-123353554D01*
X72366176Y-107750000D02*
X72980000Y-107750000D01*
D56*
X67500000Y-120750000D02*
X68000000Y-120250000D01*
D57*
X85500000Y-126750000D02*
X84750000Y-126000000D01*
X89750000Y-126750000D02*
X90000000Y-127000000D01*
X71280000Y-124275000D02*
X70680000Y-124875000D01*
X71750000Y-106325000D02*
X71750000Y-107133824D01*
D56*
X76770000Y-121520000D02*
X76770000Y-120190000D01*
D57*
X84500000Y-125750000D02*
X83200000Y-125750000D01*
X83230000Y-107720000D02*
X83970000Y-107720000D01*
X67768334Y-126000000D02*
X67765276Y-126003058D01*
X65400000Y-116900000D02*
X65351000Y-116851000D01*
X66100000Y-123150000D02*
X66100000Y-123750000D01*
X83970000Y-107720000D02*
X84000000Y-107750000D01*
X82350980Y-125750000D02*
X82000000Y-125399020D01*
X83730000Y-114020000D02*
X83750000Y-114000000D01*
X84250000Y-129730000D02*
X84250000Y-129700000D01*
X76770000Y-119250000D02*
X76770000Y-117695000D01*
X65250000Y-127600000D02*
X65300000Y-127550000D01*
X65351000Y-116851000D02*
X65351000Y-116078177D01*
X83730000Y-115750000D02*
X83730000Y-114780000D01*
X83730000Y-115750000D02*
X83730000Y-116480000D01*
D56*
X67274000Y-120750000D02*
X67500000Y-120750000D01*
D57*
X84000000Y-106250000D02*
X84000000Y-107750000D01*
D56*
X88985000Y-98015000D02*
X90000000Y-97000000D01*
D57*
X67103554Y-123353554D02*
X66750000Y-123000000D01*
X76268794Y-102788794D02*
X76497858Y-102788794D01*
X78720000Y-124275000D02*
X79320000Y-124875000D01*
X83730000Y-114780000D02*
X83730000Y-114020000D01*
X81500000Y-105770000D02*
X82560000Y-105770000D01*
X70401000Y-115517175D02*
X70401000Y-116599000D01*
X84250000Y-129730000D02*
X82290000Y-129730000D01*
D56*
X77000000Y-122000000D02*
X77000000Y-121750000D01*
D57*
X78200000Y-124275000D02*
X78720000Y-124275000D01*
X70401000Y-116599000D02*
X70250000Y-116750000D01*
X67000000Y-123500000D02*
X67000000Y-124250000D01*
X80675000Y-108750000D02*
X76925000Y-108750000D01*
X66250000Y-123000000D02*
X66100000Y-123150000D01*
X80675000Y-115250000D02*
X79786640Y-115250000D01*
X66750000Y-123000000D02*
X66250000Y-123000000D01*
X83200000Y-125750000D02*
X82350980Y-125750000D01*
X76770000Y-117695000D02*
X76750000Y-117675000D01*
X66500000Y-116900000D02*
X65400000Y-116900000D01*
X81500000Y-105770000D02*
X83520000Y-105770000D01*
X89160000Y-97000000D02*
X90000000Y-97000000D01*
X86300000Y-126750000D02*
X85500000Y-126750000D01*
X67103554Y-123396446D02*
X67000000Y-123500000D01*
X71750000Y-107133824D02*
X72366176Y-107750000D01*
X84750000Y-126000000D02*
X84500000Y-125750000D01*
X75730000Y-102250000D02*
X76268794Y-102788794D01*
X78260000Y-99750000D02*
X78260000Y-100260000D01*
X70133825Y-115250000D02*
X70401000Y-115517175D01*
X65250000Y-127750000D02*
X65250000Y-127600000D01*
D56*
X67274000Y-120250000D02*
X68000000Y-120250000D01*
X71550000Y-124025000D02*
X71800000Y-124275000D01*
D57*
X80170000Y-119490000D02*
X79000000Y-119490000D01*
X83520000Y-105770000D02*
X84000000Y-106250000D01*
X65300000Y-127550000D02*
X65300000Y-126750000D01*
X83230000Y-108750000D02*
X83230000Y-107720000D01*
X82290000Y-129730000D02*
X82260000Y-129760000D01*
%TO.N,+3V3*%
X66910070Y-126339930D02*
X67000000Y-126250000D01*
X69164000Y-124481100D02*
X69164000Y-125745806D01*
D58*
X86460000Y-100200000D02*
X86460000Y-101290000D01*
D57*
X71550003Y-108000000D02*
X71550003Y-107800003D01*
X80675000Y-107555000D02*
X81500000Y-106730000D01*
D56*
X65740000Y-103725000D02*
X65250000Y-103235000D01*
D57*
X75730000Y-101750000D02*
X77500000Y-101750000D01*
D56*
X89750000Y-118250000D02*
X88750000Y-119250000D01*
D57*
X66762000Y-119988000D02*
X66500000Y-120250000D01*
X68549000Y-123201000D02*
X68549000Y-123866100D01*
D56*
X66250000Y-103725000D02*
X65740000Y-103725000D01*
D57*
X68750000Y-123000000D02*
X68549000Y-123201000D01*
X66762000Y-119487000D02*
X66762000Y-119988000D01*
X63000000Y-104250000D02*
X62000000Y-104250000D01*
X66000000Y-116500000D02*
X66500000Y-116000000D01*
X71250000Y-107500000D02*
X71250000Y-107133826D01*
D58*
X86460000Y-101290000D02*
X86460000Y-102484999D01*
D57*
X66750000Y-127460347D02*
X66910070Y-127300277D01*
X82560000Y-106730000D02*
X83380000Y-106730000D01*
X82560000Y-106730000D02*
X81500000Y-106730000D01*
D58*
X87475001Y-103500000D02*
X88250000Y-103500000D01*
D57*
X66262000Y-120488000D02*
X66500000Y-120250000D01*
X62000000Y-104250000D02*
X61750000Y-104500000D01*
X82770000Y-114780000D02*
X82770000Y-115750000D01*
X66500000Y-116000000D02*
X68019998Y-116000000D01*
X80675000Y-114750000D02*
X82740000Y-114750000D01*
X62950003Y-129100000D02*
X62750000Y-128899997D01*
D58*
X86987500Y-103787500D02*
X87000000Y-103800000D01*
D57*
X68909806Y-126000000D02*
X68750000Y-126000000D01*
X69164000Y-125745806D02*
X68909806Y-126000000D01*
X59750000Y-119778000D02*
X59764042Y-119792042D01*
D58*
X86987500Y-103012500D02*
X86987500Y-103787500D01*
D57*
X73500000Y-101750000D02*
X73250000Y-102000000D01*
X68269999Y-115749999D02*
X69325000Y-115749999D01*
X67274000Y-119750000D02*
X67000000Y-119750000D01*
X80675000Y-114750000D02*
X79350000Y-114750000D01*
D58*
X86987500Y-103012500D02*
X87475001Y-103500000D01*
D57*
X70770000Y-123250000D02*
X70520000Y-123000000D01*
X74250000Y-101750000D02*
X73500000Y-101750000D01*
X79350000Y-114750000D02*
X79250000Y-114850000D01*
X70520000Y-123000000D02*
X68750000Y-123000000D01*
D58*
X86460000Y-102484999D02*
X86987500Y-103012500D01*
D57*
X83380000Y-106730000D02*
X83400000Y-106750000D01*
X59764042Y-119792042D02*
X61292042Y-119792042D01*
D56*
X89125000Y-111375000D02*
X88250000Y-111375000D01*
D57*
X66910070Y-127300277D02*
X66910070Y-126339930D01*
X71250000Y-107133826D02*
X71250001Y-107133825D01*
D56*
X89750000Y-110750000D02*
X89125000Y-111375000D01*
D57*
X66750000Y-127750000D02*
X66750000Y-127460347D01*
X80675000Y-108250001D02*
X80675000Y-107555000D01*
X66200000Y-111300000D02*
X66000000Y-111500000D01*
X71250001Y-107133825D02*
X71250001Y-106325000D01*
X66262000Y-121013000D02*
X66262000Y-120488000D01*
X68019998Y-116000000D02*
X68269999Y-115749999D01*
X63800000Y-129100000D02*
X62950003Y-129100000D01*
X68549000Y-123866100D02*
X69164000Y-124481100D01*
X66650000Y-111300000D02*
X66200000Y-111300000D01*
X82740000Y-114750000D02*
X82770000Y-114780000D01*
D56*
X88750000Y-119250000D02*
X88250000Y-119250000D01*
D57*
X67000000Y-119750000D02*
X66500000Y-120250000D01*
X71550003Y-107800003D02*
X71250000Y-107500000D01*
X61292042Y-119792042D02*
X61750000Y-120250000D01*
%TO.N,+1V8*%
X68250000Y-126500000D02*
X68750000Y-126500000D01*
X69164000Y-128086000D02*
X68941393Y-128308607D01*
X64900000Y-126750000D02*
X64900000Y-127150000D01*
X64649000Y-127998943D02*
X65100057Y-128450000D01*
X67917214Y-128450000D02*
X65700000Y-128450000D01*
X69164000Y-126828515D02*
X69164000Y-128086000D01*
X68835485Y-126500000D02*
X69164000Y-126828515D01*
X64649000Y-127401000D02*
X64649000Y-127998943D01*
X65100057Y-128450000D02*
X65700000Y-128450000D01*
X68941393Y-128308607D02*
X68831786Y-128199000D01*
X68831786Y-128199000D02*
X68168214Y-128199000D01*
X68168214Y-128199000D02*
X67917214Y-128450000D01*
X64900000Y-127150000D02*
X64649000Y-127401000D01*
X68750000Y-126500000D02*
X68835485Y-126500000D01*
%TO.N,Net-(U1-REGOUT)*%
X65700000Y-127206755D02*
X66017484Y-127524239D01*
X65700000Y-126750000D02*
X65700000Y-127206755D01*
%TO.N,Net-(IC1-EN)*%
X63750000Y-129700000D02*
X63800000Y-129750000D01*
X62750000Y-129700000D02*
X63750000Y-129700000D01*
X63800000Y-128450000D02*
X64527000Y-128450000D01*
X64527000Y-128450000D02*
X64676000Y-128599000D01*
X64676000Y-129649000D02*
X64575000Y-129750000D01*
X64676000Y-128599000D02*
X64676000Y-129649000D01*
X64575000Y-129750000D02*
X63800000Y-129750000D01*
%TO.N,Net-(U2-VDDA)*%
X77250000Y-118770000D02*
X77730000Y-119250000D01*
X77730000Y-119250000D02*
X77730000Y-120190000D01*
X77250000Y-117675000D02*
X77250000Y-118770000D01*
%TO.N,Net-(C14-Pad2)*%
X80675000Y-109250000D02*
X81770000Y-109250000D01*
X82270000Y-108750000D02*
X82270000Y-107720000D01*
X81770000Y-109250000D02*
X82270000Y-108750000D01*
%TO.N,Net-(C16-Pad2)*%
X69325000Y-114750000D02*
X70230000Y-114750000D01*
X70230000Y-114750000D02*
X71250000Y-115770000D01*
%TO.N,/USB to UART/VBUS*%
X83250000Y-128740000D02*
X84220000Y-128740000D01*
X83260000Y-128770000D02*
X83260000Y-128750000D01*
X84000000Y-127550000D02*
X84000000Y-128520000D01*
X83260000Y-128750000D02*
X83250000Y-128740000D01*
X81250000Y-128740000D02*
X83250000Y-128740000D01*
X84500000Y-127550000D02*
X84000000Y-127550000D01*
X84000000Y-128520000D02*
X84250000Y-128770000D01*
%TO.N,+3V3USB*%
X74847226Y-100750000D02*
X75347226Y-101250000D01*
X85000000Y-110250000D02*
X85000000Y-111500000D01*
X75250000Y-99750000D02*
X74250000Y-100750000D01*
X75094000Y-102824000D02*
X75094000Y-101503226D01*
X75347226Y-101250000D02*
X75730000Y-101250000D01*
X77240000Y-98750000D02*
X77000000Y-98750000D01*
X85575000Y-109675000D02*
X85000000Y-110250000D01*
X85575000Y-109000000D02*
X85575000Y-109675000D01*
X75094000Y-101503226D02*
X75347226Y-101250000D01*
X81500000Y-127250000D02*
X83500000Y-127250000D01*
X76000000Y-99750000D02*
X75250000Y-99750000D01*
X77000000Y-98750000D02*
X76000000Y-99750000D01*
X74250000Y-100750000D02*
X74847226Y-100750000D01*
X75770000Y-103500000D02*
X75094000Y-102824000D01*
D59*
%TO.N,+VBAT*%
X64950000Y-94850000D02*
X70300000Y-100200000D01*
D58*
X71625000Y-99400000D02*
X71600000Y-99400000D01*
D59*
X71100000Y-101000000D02*
X71600000Y-101000000D01*
X70550000Y-100450000D02*
X71100000Y-101000000D01*
D58*
X72150000Y-101250000D02*
X72000000Y-101400000D01*
D59*
X70300000Y-100200000D02*
X70550000Y-100450000D01*
D58*
X74250000Y-101250000D02*
X72150000Y-101250000D01*
D59*
X71600000Y-101000000D02*
X72000000Y-101400000D01*
D58*
X71425000Y-99575000D02*
X70550000Y-100450000D01*
X71600000Y-99575000D02*
X71425000Y-99575000D01*
D56*
%TO.N,Net-(D3-A)*%
X79000000Y-120750000D02*
X81250000Y-123000000D01*
X81250000Y-123000000D02*
X81500000Y-123000000D01*
X79000000Y-120510000D02*
X79000000Y-120750000D01*
%TO.N,Net-(D3-K)*%
X82470000Y-123000000D02*
X82550000Y-123000000D01*
X82550000Y-123000000D02*
X84000000Y-124450000D01*
%TO.N,Net-(D4-A)*%
X81515000Y-121855000D02*
X80170000Y-120510000D01*
X81515000Y-122000000D02*
X81515000Y-121855000D01*
%TO.N,Net-(D4-K)*%
X84500000Y-124015000D02*
X84500000Y-124450000D01*
X82485000Y-122000000D02*
X84500000Y-124015000D01*
D58*
%TO.N,+VBUS*%
X80146000Y-128332860D02*
X80146000Y-128656000D01*
X80146000Y-128656000D02*
X81250000Y-129760000D01*
X77200000Y-127849000D02*
X78977860Y-127849000D01*
X78977860Y-127849000D02*
X79662140Y-127849000D01*
X77400000Y-124893636D02*
X77189000Y-125104636D01*
X77189000Y-127838000D02*
X77200000Y-127849000D01*
X77189000Y-125104636D02*
X77189000Y-127838000D01*
X77400000Y-124275000D02*
X77400000Y-124893636D01*
X79662140Y-127849000D02*
X80146000Y-128332860D01*
D57*
%TO.N,I2C_1_SCL*%
X66262000Y-118453045D02*
X66106990Y-118298035D01*
X66262000Y-119487000D02*
X66262000Y-118453045D01*
X64750000Y-116700000D02*
X64750000Y-114698000D01*
X66838245Y-113260285D02*
X69314714Y-113260285D01*
X64750000Y-118250000D02*
X66058955Y-118250000D01*
X66625396Y-117779629D02*
X66106990Y-118298035D01*
X66058955Y-118250000D02*
X66106990Y-118298035D01*
X67000000Y-117405025D02*
X66952512Y-117452512D01*
X62500000Y-117500000D02*
X61750000Y-118250000D01*
X65697999Y-113750001D02*
X66348529Y-113750001D01*
X69314714Y-113260285D02*
X69325000Y-113249999D01*
X66348529Y-113750001D02*
X66838245Y-113260285D01*
X66952512Y-117452512D02*
X66625396Y-117779629D01*
X64750000Y-114698000D02*
X65697999Y-113750001D01*
X67000000Y-117300000D02*
X67000000Y-117405025D01*
%TO.N,Net-(IC2-SDA_A)*%
X67740951Y-127000000D02*
X67511070Y-126770119D01*
X68250000Y-127000000D02*
X67740951Y-127000000D01*
%TO.N,Net-(IC2-SCL_A)*%
X68750000Y-127322430D02*
X68750000Y-127000000D01*
X68524144Y-127548286D02*
X68750000Y-127322430D01*
X64900000Y-122519571D02*
X65000000Y-122419571D01*
X64900000Y-123750000D02*
X64900000Y-122519571D01*
%TO.N,I2C_1_SDA*%
X66109285Y-112859285D02*
X66790772Y-112859285D01*
X68151000Y-112849000D02*
X68250000Y-112750000D01*
X66801058Y-112848999D02*
X68151000Y-112849000D01*
X67729000Y-124979000D02*
X67729000Y-123030530D01*
X64951500Y-121451500D02*
X64385500Y-120885500D01*
X67729000Y-123030530D02*
X66149970Y-121451500D01*
X68250000Y-112750000D02*
X69325000Y-112750000D01*
X64385500Y-119250000D02*
X61750000Y-119250000D01*
X65385500Y-120250000D02*
X65750000Y-120250000D01*
X66149970Y-121451500D02*
X64951500Y-121451500D01*
X66790772Y-112859285D02*
X66801058Y-112848999D01*
X68250000Y-125500000D02*
X67729000Y-124979000D01*
X65385500Y-120250000D02*
X64385500Y-119250000D01*
X64385500Y-120885500D02*
X64385500Y-119250000D01*
D56*
%TO.N,/SWDIO*%
X72250000Y-105000000D02*
X72250000Y-106325000D01*
D57*
%TO.N,/SD_DET*%
X74750000Y-116900001D02*
X74750000Y-117675000D01*
X76650001Y-115000000D02*
X74750000Y-116900001D01*
X78000000Y-115000000D02*
X76650001Y-115000000D01*
%TO.N,I2C_2_SCL*%
X63750000Y-108375000D02*
X63750000Y-106750000D01*
X76180222Y-109750000D02*
X80675000Y-109750000D01*
X62562500Y-109562500D02*
X63750000Y-108375000D01*
X80626000Y-109701000D02*
X80675000Y-109750000D01*
X75675861Y-109245639D02*
X76180222Y-109750000D01*
D56*
X61750000Y-110375000D02*
X62562500Y-109562500D01*
D57*
%TO.N,I2C_2_SDA*%
X64250000Y-107250000D02*
X64799264Y-106700736D01*
X78695047Y-107188777D02*
X78749999Y-107133825D01*
X64250000Y-109649999D02*
X64250000Y-107250000D01*
X63000000Y-110899999D02*
X64250000Y-109649999D01*
D56*
X62625000Y-111375000D02*
X63000000Y-111750000D01*
D57*
X78695047Y-107466577D02*
X78695047Y-107188777D01*
D56*
X61750000Y-111375000D02*
X62625000Y-111375000D01*
D57*
X64799477Y-106700949D02*
X64799264Y-106700736D01*
X63000000Y-111750000D02*
X63000000Y-110899999D01*
X78749999Y-107133825D02*
X78749999Y-106325000D01*
%TO.N,I2C_3_SDA*%
X75250000Y-105333823D02*
X75250000Y-106325000D01*
X73791177Y-103708823D02*
X73791177Y-103875000D01*
X73791177Y-103875000D02*
X75250000Y-105333823D01*
%TO.N,USART3_RX*%
X88250000Y-112375000D02*
X88125000Y-112250000D01*
X88125000Y-112250000D02*
X80675000Y-112250000D01*
%TO.N,USART3_TX*%
X83750000Y-111000000D02*
X83750000Y-111650000D01*
X82500000Y-109750000D02*
X83750000Y-111000000D01*
D56*
%TO.N,/LSE_OUT*%
X72750000Y-119240000D02*
X72750000Y-117675000D01*
%TO.N,/LSE_IN*%
X70500000Y-120200000D02*
X70500000Y-121460000D01*
D57*
%TO.N,/FL_PWM*%
X75750000Y-117675000D02*
X75750000Y-119000000D01*
%TO.N,/BL_PWM*%
X79250000Y-113000000D02*
X79499999Y-113249999D01*
X79499999Y-113249999D02*
X80675000Y-113249999D01*
%TO.N,/FR_PWM*%
X70580442Y-113523362D02*
X70580442Y-113803382D01*
X70580442Y-113803382D02*
X70133824Y-114250000D01*
X70133824Y-114250000D02*
X69325000Y-114250000D01*
%TO.N,/BR_PWM*%
X86250000Y-108797349D02*
X86250000Y-109500000D01*
X83349943Y-112750000D02*
X80675000Y-112750000D01*
X85975000Y-113875000D02*
X85850000Y-114000000D01*
X86325201Y-108722148D02*
X86250000Y-108797349D01*
X84599943Y-114000000D02*
X83349943Y-112750000D01*
X86250000Y-109500000D02*
X86250000Y-110500000D01*
X85850000Y-114000000D02*
X84599943Y-114000000D01*
%TO.N,Net-(U3-~{RST})*%
X85000000Y-127550000D02*
X85000000Y-128490000D01*
X85000000Y-128490000D02*
X85250000Y-128740000D01*
%TO.N,Net-(U6-ST)*%
X74250000Y-102250000D02*
X74250000Y-103000000D01*
X74250000Y-103000000D02*
X74750000Y-103500000D01*
%TO.N,Net-(U6-PR1)*%
X77240000Y-99750000D02*
X76240000Y-100750000D01*
X77240000Y-99750000D02*
X77260000Y-99750000D01*
X77260000Y-99750000D02*
X78260000Y-98750000D01*
X76240000Y-100750000D02*
X75730000Y-100750000D01*
%TO.N,Net-(U2-BOOT0)*%
X66650000Y-114700000D02*
X67600000Y-113750000D01*
X67600000Y-113750000D02*
X69325000Y-113750000D01*
%TO.N,/SPI1_MISO*%
X72109381Y-113276825D02*
X70582556Y-111750000D01*
X70582556Y-111750000D02*
X69325000Y-111750000D01*
%TO.N,/RADIO_TX*%
X78266176Y-104500000D02*
X77250000Y-105516176D01*
X88250000Y-104500000D02*
X78266176Y-104500000D01*
X77250000Y-105516176D02*
X77250000Y-106325000D01*
%TO.N,/SPI2_MOSI*%
X70133824Y-112250000D02*
X69325000Y-112250000D01*
X70569676Y-112685852D02*
X70133824Y-112250000D01*
X70600000Y-112685852D02*
X70569676Y-112685852D01*
%TO.N,/SPI1_SCK*%
X72486149Y-113750000D02*
X80675000Y-113750000D01*
X72160773Y-114075376D02*
X72486149Y-113750000D01*
X72061206Y-114075376D02*
X72160773Y-114075376D01*
%TO.N,/RADIO_RX*%
X81231450Y-105101000D02*
X87851000Y-105101000D01*
X78943990Y-108067577D02*
X75183753Y-108067577D01*
X78943990Y-108067577D02*
X80889000Y-106122567D01*
X74250000Y-107133824D02*
X74250000Y-106325000D01*
X80889000Y-106122567D02*
X80889000Y-105443450D01*
X80889000Y-105443450D02*
X81231450Y-105101000D01*
X87851000Y-105101000D02*
X88250000Y-105500000D01*
X75183753Y-108067577D02*
X74250000Y-107133824D01*
%TO.N,/USB to UART/D+*%
X81449208Y-125999020D02*
X82018174Y-125999020D01*
X75850000Y-125328013D02*
X75828013Y-125328013D01*
X75112612Y-122904020D02*
X75777782Y-122904020D01*
X74650000Y-125631427D02*
X74650000Y-125350000D01*
X74750000Y-124275000D02*
X74774999Y-124250001D01*
X77500000Y-121750000D02*
X77500000Y-122525000D01*
X77500000Y-122525000D02*
X79343198Y-122525000D01*
X80975000Y-124156802D02*
X80975000Y-125524812D01*
X75828013Y-125328013D02*
X75750000Y-125250000D01*
X74774999Y-124250001D02*
X74774999Y-123241633D01*
X75000000Y-123016632D02*
X74774999Y-123241633D01*
X74774999Y-123241633D02*
X75112612Y-122904020D01*
X76156802Y-122525000D02*
X77500000Y-122525000D01*
X75750000Y-125250000D02*
X75750000Y-124275000D01*
X82524999Y-126250000D02*
X83200000Y-126250000D01*
X82499999Y-126275000D02*
X82524999Y-126250000D01*
X74750000Y-125250000D02*
X74750000Y-124275000D01*
X82294154Y-126275000D02*
X82499999Y-126275000D01*
X79343198Y-122525000D02*
X80975000Y-124156802D01*
X80975000Y-125524812D02*
X81449208Y-125999020D01*
X74650000Y-125350000D02*
X74750000Y-125250000D01*
X75777782Y-122904020D02*
X76156802Y-122525000D01*
X82018174Y-125999020D02*
X82294154Y-126275000D01*
%TO.N,/USB to UART/D-*%
X75251000Y-125880370D02*
X75251000Y-125382484D01*
X75964198Y-123354000D02*
X76343198Y-122975000D01*
X75299000Y-123354000D02*
X75964198Y-123354000D01*
X75250000Y-124275000D02*
X75225001Y-124250001D01*
X80525000Y-125711208D02*
X81262792Y-126449000D01*
X74250000Y-125181484D02*
X74049000Y-125382484D01*
X81262792Y-126449000D02*
X81831786Y-126449000D01*
X76343198Y-122975000D02*
X79156802Y-122975000D01*
X80525000Y-124343198D02*
X80525000Y-125711208D01*
X82107786Y-126725000D02*
X82499999Y-126725000D01*
X75250000Y-125381484D02*
X75250000Y-124275000D01*
X74250000Y-124275000D02*
X74250000Y-125181484D01*
X82524999Y-126750000D02*
X83200000Y-126750000D01*
X75225001Y-123427999D02*
X75299000Y-123354000D01*
X75225001Y-124250001D02*
X75225001Y-123427999D01*
X74049000Y-125382484D02*
X74049000Y-125880370D01*
X74049000Y-125880370D02*
X74259286Y-126090657D01*
X74898943Y-126232427D02*
X75251000Y-125880370D01*
X82499999Y-126725000D02*
X82524999Y-126750000D01*
X81831786Y-126449000D02*
X82107786Y-126725000D01*
X74401057Y-126232427D02*
X74898943Y-126232427D01*
X75251000Y-125382484D02*
X75250000Y-125381484D01*
X74259286Y-126090657D02*
X74401057Y-126232427D01*
X79156802Y-122975000D02*
X80525000Y-124343198D01*
%TO.N,Net-(J35-CC1)*%
X73750000Y-125114384D02*
X73648000Y-125216384D01*
X73648000Y-125216384D02*
X73648000Y-126138000D01*
X73750000Y-124275000D02*
X73750000Y-125114384D01*
X73648000Y-126138000D02*
X74500000Y-126990000D01*
%TO.N,Net-(J35-CC2)*%
X76750000Y-125740000D02*
X75500000Y-126990000D01*
X76750000Y-124275000D02*
X76750000Y-125740000D01*
D56*
%TO.N,Net-(D7-A)*%
X67225000Y-104745000D02*
X67250000Y-104720000D01*
X66250000Y-104745000D02*
X67225000Y-104745000D01*
%TO.N,Net-(C34-Pad1)*%
X71600000Y-120200000D02*
X71600000Y-121420000D01*
%TO.N,/USART2_RX*%
X85000000Y-123840000D02*
X85476039Y-123363961D01*
X85476039Y-123363961D02*
X85902852Y-123363961D01*
X85000000Y-124450000D02*
X85000000Y-123840000D01*
%TO.N,/USART2_TX*%
X79175000Y-117675000D02*
X81250000Y-119750000D01*
X78749999Y-117675000D02*
X79175000Y-117675000D01*
D57*
%TO.N,/~{WC}*%
X71750000Y-118581824D02*
X71750000Y-117675000D01*
X71580824Y-118751000D02*
X71750000Y-118581824D01*
X69751000Y-118751000D02*
X71580824Y-118751000D01*
X67500000Y-116500000D02*
X69751000Y-118751000D01*
X67000000Y-116500000D02*
X67500000Y-116500000D01*
%TD*%
%TA.AperFunction,Conductor*%
%TO.N,GND*%
G36*
X70930000Y-126394862D02*
G01*
X70971690Y-126386569D01*
X70971692Y-126386569D01*
X71153671Y-126311192D01*
X71153684Y-126311185D01*
X71317462Y-126201751D01*
X71317466Y-126201748D01*
X71456748Y-126062466D01*
X71456751Y-126062462D01*
X71566185Y-125898684D01*
X71566189Y-125898675D01*
X71567839Y-125894694D01*
X71611676Y-125840287D01*
X71677969Y-125818218D01*
X71745670Y-125835493D01*
X71757896Y-125843768D01*
X71762771Y-125847509D01*
X71762775Y-125847513D01*
X71762779Y-125847515D01*
X71762780Y-125847516D01*
X71780366Y-125857669D01*
X71891725Y-125921962D01*
X72035550Y-125960500D01*
X72035552Y-125960500D01*
X72043401Y-125962603D01*
X72042865Y-125964602D01*
X72096657Y-125988394D01*
X72131142Y-126035620D01*
X72190602Y-126179172D01*
X72190609Y-126179185D01*
X72278210Y-126310288D01*
X72278213Y-126310292D01*
X72389707Y-126421786D01*
X72389711Y-126421789D01*
X72520814Y-126509390D01*
X72526191Y-126512264D01*
X72525518Y-126513522D01*
X72530976Y-126517920D01*
X72544373Y-126522549D01*
X72557642Y-126539403D01*
X72574348Y-126552863D01*
X72579671Y-126567386D01*
X72587593Y-126577448D01*
X72592300Y-126601835D01*
X72595932Y-126611743D01*
X72596500Y-126617658D01*
X72596500Y-126658905D01*
X72602939Y-126691277D01*
X72620537Y-126779750D01*
X72625613Y-126792004D01*
X72667688Y-126893584D01*
X72680418Y-126912636D01*
X72693062Y-126931559D01*
X72693064Y-126931561D01*
X72736141Y-126996030D01*
X72736144Y-126996034D01*
X72827586Y-127087476D01*
X72827608Y-127087496D01*
X73987841Y-128247729D01*
X73987844Y-128247733D01*
X74074969Y-128334858D01*
X74144450Y-128381284D01*
X74150467Y-128385305D01*
X74150469Y-128385306D01*
X74177412Y-128403309D01*
X74177414Y-128403310D01*
X74177417Y-128403312D01*
X74216444Y-128419477D01*
X74216445Y-128419478D01*
X74216446Y-128419478D01*
X74291250Y-128450463D01*
X74320113Y-128456204D01*
X74412093Y-128474499D01*
X74412094Y-128474500D01*
X74412095Y-128474500D01*
X74412096Y-128474500D01*
X77138393Y-128474500D01*
X77138394Y-128474500D01*
X78196000Y-128474500D01*
X78263039Y-128494185D01*
X78308794Y-128546989D01*
X78320000Y-128598500D01*
X78320000Y-128825000D01*
X79020000Y-128825000D01*
X79020000Y-129325000D01*
X78320000Y-129325000D01*
X78320000Y-129573495D01*
X78358427Y-129766681D01*
X78358430Y-129766693D01*
X78433807Y-129948671D01*
X78433814Y-129948684D01*
X78472519Y-130006609D01*
X78493397Y-130073286D01*
X78474913Y-130140666D01*
X78422934Y-130187357D01*
X78369417Y-130199500D01*
X71630583Y-130199500D01*
X71563544Y-130179815D01*
X71517789Y-130127011D01*
X71507845Y-130057853D01*
X71527481Y-130006609D01*
X71566185Y-129948684D01*
X71566192Y-129948671D01*
X71641569Y-129766693D01*
X71641572Y-129766681D01*
X71679999Y-129573495D01*
X71680000Y-129573492D01*
X71680000Y-129325000D01*
X70980000Y-129325000D01*
X70980000Y-128825000D01*
X71680000Y-128825000D01*
X71680000Y-128576508D01*
X71679999Y-128576504D01*
X71641572Y-128383318D01*
X71641569Y-128383306D01*
X71566192Y-128201328D01*
X71566185Y-128201315D01*
X71456751Y-128037537D01*
X71456748Y-128037533D01*
X71317466Y-127898251D01*
X71317462Y-127898248D01*
X71153684Y-127788814D01*
X71153671Y-127788807D01*
X70971691Y-127713429D01*
X70971683Y-127713427D01*
X70930000Y-127705135D01*
X70930000Y-128508011D01*
X70920060Y-128490795D01*
X70864205Y-128434940D01*
X70795796Y-128395444D01*
X70719496Y-128375000D01*
X70640504Y-128375000D01*
X70564204Y-128395444D01*
X70495795Y-128434940D01*
X70439940Y-128490795D01*
X70430000Y-128508011D01*
X70430000Y-127705136D01*
X70429999Y-127705135D01*
X70388316Y-127713427D01*
X70388308Y-127713429D01*
X70206328Y-127788807D01*
X70206315Y-127788814D01*
X70042537Y-127898248D01*
X70042533Y-127898251D01*
X69976181Y-127964604D01*
X69914858Y-127998089D01*
X69845166Y-127993105D01*
X69789233Y-127951233D01*
X69764816Y-127885769D01*
X69764500Y-127876923D01*
X69764500Y-127112280D01*
X69784185Y-127045241D01*
X69826499Y-127004893D01*
X69868716Y-126980520D01*
X69980520Y-126868716D01*
X69980520Y-126868714D01*
X69990724Y-126858511D01*
X69990728Y-126858506D01*
X70237506Y-126611728D01*
X70237511Y-126611724D01*
X70247714Y-126601520D01*
X70247716Y-126601520D01*
X70359520Y-126489716D01*
X70422123Y-126381284D01*
X70438577Y-126352785D01*
X70479501Y-126200057D01*
X70479501Y-126041943D01*
X70479501Y-126034348D01*
X70479500Y-126034330D01*
X70479500Y-125648765D01*
X70495795Y-125665060D01*
X70564204Y-125704556D01*
X70640504Y-125725000D01*
X70719496Y-125725000D01*
X70795796Y-125704556D01*
X70864205Y-125665060D01*
X70920060Y-125609205D01*
X70930000Y-125591988D01*
X70930000Y-126394862D01*
G37*
%TD.AperFunction*%
%TA.AperFunction,Conductor*%
G36*
X88779588Y-128042330D02*
G01*
X88957670Y-128220412D01*
X89059301Y-128294251D01*
X87884971Y-129468580D01*
X87884972Y-129468581D01*
X88061637Y-129613567D01*
X88061651Y-129613577D01*
X88327144Y-129790974D01*
X88327162Y-129790985D01*
X88608762Y-129941504D01*
X88608767Y-129941506D01*
X88655681Y-129960939D01*
X88710084Y-130004780D01*
X88732149Y-130071074D01*
X88714870Y-130138774D01*
X88663732Y-130186384D01*
X88608228Y-130199500D01*
X87645134Y-130199500D01*
X87578095Y-130179815D01*
X87532340Y-130127011D01*
X87522396Y-130057853D01*
X87530573Y-130028047D01*
X87569737Y-129933497D01*
X87600500Y-129778842D01*
X87600500Y-129621158D01*
X87600500Y-129621155D01*
X87600499Y-129621153D01*
X87591019Y-129573495D01*
X87569737Y-129466503D01*
X87511125Y-129325000D01*
X87509397Y-129320827D01*
X87509392Y-129320818D01*
X87499033Y-129305315D01*
X87492323Y-129295273D01*
X87471445Y-129228598D01*
X87489928Y-129161218D01*
X87507744Y-129138701D01*
X88705747Y-127940697D01*
X88779588Y-128042330D01*
G37*
%TD.AperFunction*%
%TA.AperFunction,Conductor*%
G36*
X82824767Y-129497268D02*
G01*
X82833600Y-129502492D01*
X82833608Y-129502495D01*
X82989002Y-129547642D01*
X82989005Y-129547642D01*
X82989007Y-129547643D01*
X83025310Y-129550500D01*
X83025318Y-129550500D01*
X83494682Y-129550500D01*
X83494690Y-129550500D01*
X83530993Y-129547643D01*
X83530995Y-129547642D01*
X83530997Y-129547642D01*
X83686389Y-129502496D01*
X83686389Y-129502495D01*
X83686395Y-129502494D01*
X83691878Y-129499251D01*
X83759599Y-129482067D01*
X83818121Y-129499250D01*
X83823605Y-129502494D01*
X83823608Y-129502494D01*
X83823610Y-129502496D01*
X83979002Y-129547642D01*
X83979005Y-129547642D01*
X83979007Y-129547643D01*
X84015310Y-129550500D01*
X84126000Y-129550500D01*
X84134685Y-129553050D01*
X84143647Y-129551762D01*
X84167687Y-129562740D01*
X84193039Y-129570185D01*
X84198966Y-129577025D01*
X84207203Y-129580787D01*
X84221492Y-129603021D01*
X84238794Y-129622989D01*
X84241081Y-129633503D01*
X84244977Y-129639565D01*
X84250000Y-129674500D01*
X84250000Y-129856000D01*
X84230315Y-129923039D01*
X84177511Y-129968794D01*
X84126000Y-129980000D01*
X83204747Y-129980000D01*
X83154996Y-130007166D01*
X83128638Y-130010000D01*
X82384000Y-130010000D01*
X82316961Y-129990315D01*
X82271206Y-129937511D01*
X82260000Y-129886000D01*
X82260000Y-129634499D01*
X82279685Y-129567460D01*
X82332489Y-129521705D01*
X82384000Y-129510499D01*
X82509168Y-129510499D01*
X82509180Y-129510499D01*
X82545204Y-129507665D01*
X82623479Y-129484923D01*
X82658074Y-129480000D01*
X82761646Y-129480000D01*
X82824767Y-129497268D01*
G37*
%TD.AperFunction*%
%TA.AperFunction,Conductor*%
G36*
X79570000Y-126394862D02*
G01*
X79611690Y-126386569D01*
X79611692Y-126386569D01*
X79793671Y-126311192D01*
X79793684Y-126311185D01*
X79957462Y-126201751D01*
X79957465Y-126201749D01*
X79974202Y-126185012D01*
X79982146Y-126180673D01*
X79987571Y-126173427D01*
X80012329Y-126164191D01*
X80035524Y-126151525D01*
X80044553Y-126152170D01*
X80053034Y-126149007D01*
X80078854Y-126154623D01*
X80105216Y-126156508D01*
X80114269Y-126162326D01*
X80121308Y-126163857D01*
X80149555Y-126185002D01*
X80149563Y-126185007D01*
X80163352Y-126198795D01*
X80592672Y-126628115D01*
X80626157Y-126689438D01*
X80621173Y-126759130D01*
X80614354Y-126774239D01*
X80613370Y-126776078D01*
X80537950Y-126958160D01*
X80537947Y-126958170D01*
X80499500Y-127151456D01*
X80499500Y-127348545D01*
X80532290Y-127513389D01*
X80529271Y-127547121D01*
X80526855Y-127580913D01*
X80526165Y-127581834D01*
X80526063Y-127582980D01*
X80505282Y-127609731D01*
X80484984Y-127636847D01*
X80483906Y-127637249D01*
X80483200Y-127638158D01*
X80451252Y-127649428D01*
X80419519Y-127661264D01*
X80418394Y-127661019D01*
X80417310Y-127661402D01*
X80384349Y-127653613D01*
X80351246Y-127646412D01*
X80350033Y-127645504D01*
X80349313Y-127645334D01*
X80322992Y-127625262D01*
X80239565Y-127541835D01*
X80147999Y-127450269D01*
X80147998Y-127450267D01*
X80060873Y-127363142D01*
X80002170Y-127323918D01*
X79958426Y-127294688D01*
X79875298Y-127260256D01*
X79844592Y-127247537D01*
X79844584Y-127247535D01*
X79751693Y-127229057D01*
X79751684Y-127229057D01*
X79723747Y-127223500D01*
X79723746Y-127223500D01*
X77938500Y-127223500D01*
X77871461Y-127203815D01*
X77825706Y-127151011D01*
X77814500Y-127099500D01*
X77814500Y-126084500D01*
X77834185Y-126017461D01*
X77886989Y-125971706D01*
X77938500Y-125960500D01*
X77964447Y-125960500D01*
X77964450Y-125960500D01*
X78108275Y-125921962D01*
X78237225Y-125847513D01*
X78237233Y-125847504D01*
X78242099Y-125843771D01*
X78307266Y-125818570D01*
X78375712Y-125832601D01*
X78425707Y-125881410D01*
X78432156Y-125894684D01*
X78433808Y-125898672D01*
X78433814Y-125898684D01*
X78543248Y-126062462D01*
X78543251Y-126062466D01*
X78682533Y-126201748D01*
X78682537Y-126201751D01*
X78846315Y-126311185D01*
X78846328Y-126311192D01*
X79028308Y-126386569D01*
X79070000Y-126394862D01*
X79070000Y-125591988D01*
X79079940Y-125609205D01*
X79135795Y-125665060D01*
X79204204Y-125704556D01*
X79280504Y-125725000D01*
X79359496Y-125725000D01*
X79435796Y-125704556D01*
X79504205Y-125665060D01*
X79560060Y-125609205D01*
X79570000Y-125591988D01*
X79570000Y-126394862D01*
G37*
%TD.AperFunction*%
%TA.AperFunction,Conductor*%
G36*
X63917539Y-93820185D02*
G01*
X63963294Y-93872989D01*
X63974500Y-93924500D01*
X63974500Y-95772870D01*
X63974501Y-95772876D01*
X63980908Y-95832483D01*
X64031202Y-95967328D01*
X64031206Y-95967335D01*
X64117452Y-96082544D01*
X64117455Y-96082547D01*
X64232664Y-96168793D01*
X64232671Y-96168797D01*
X64367517Y-96219091D01*
X64367516Y-96219091D01*
X64374444Y-96219835D01*
X64427127Y-96225500D01*
X65212769Y-96225499D01*
X65279808Y-96245183D01*
X65300450Y-96261818D01*
X67474681Y-98436049D01*
X68601952Y-99563319D01*
X68635437Y-99624642D01*
X68630453Y-99694334D01*
X68588581Y-99750267D01*
X68523117Y-99774684D01*
X68514271Y-99775000D01*
X67500000Y-99775000D01*
X67500000Y-100900000D01*
X69375000Y-100900000D01*
X69375000Y-100635729D01*
X69381238Y-100614483D01*
X69382818Y-100592395D01*
X69390890Y-100581611D01*
X69394685Y-100568690D01*
X69411418Y-100554190D01*
X69424690Y-100536462D01*
X69437310Y-100531754D01*
X69447489Y-100522935D01*
X69469406Y-100519783D01*
X69490154Y-100512045D01*
X69503314Y-100514907D01*
X69516647Y-100512991D01*
X69536790Y-100522190D01*
X69558427Y-100526897D01*
X69576152Y-100540165D01*
X69580203Y-100542016D01*
X69586681Y-100548048D01*
X69712707Y-100674074D01*
X69712717Y-100674085D01*
X69717047Y-100678415D01*
X69717048Y-100678416D01*
X69962717Y-100924084D01*
X69962736Y-100924105D01*
X70400319Y-101361686D01*
X70517048Y-101478415D01*
X70517049Y-101478416D01*
X70621584Y-101582951D01*
X70676293Y-101619506D01*
X70682809Y-101627303D01*
X70691898Y-101631853D01*
X70704837Y-101653661D01*
X70721097Y-101673117D01*
X70722363Y-101683200D01*
X70727550Y-101691942D01*
X70726644Y-101717283D01*
X70729805Y-101742442D01*
X70725418Y-101751610D01*
X70725056Y-101761767D01*
X70710595Y-101782594D01*
X70699651Y-101805470D01*
X70689942Y-101812340D01*
X70685208Y-101819159D01*
X70654855Y-101837169D01*
X70527163Y-101890061D01*
X70479710Y-101899500D01*
X69499000Y-101899500D01*
X69431961Y-101879815D01*
X69386206Y-101827011D01*
X69375000Y-101775500D01*
X69375000Y-101400000D01*
X65125000Y-101400000D01*
X65125000Y-101775500D01*
X65105315Y-101842539D01*
X65052511Y-101888294D01*
X65001000Y-101899500D01*
X63420941Y-101899500D01*
X63362068Y-101915275D01*
X63329976Y-101919500D01*
X62915808Y-101919500D01*
X62848769Y-101899815D01*
X62828126Y-101883180D01*
X62776870Y-101831923D01*
X62776862Y-101831917D01*
X62639192Y-101750500D01*
X62635398Y-101748256D01*
X62635397Y-101748255D01*
X62635396Y-101748255D01*
X62635393Y-101748254D01*
X62477573Y-101702402D01*
X62477567Y-101702401D01*
X62440701Y-101699500D01*
X62440694Y-101699500D01*
X61059306Y-101699500D01*
X61059298Y-101699500D01*
X61022432Y-101702401D01*
X61022426Y-101702402D01*
X60864606Y-101748254D01*
X60864603Y-101748255D01*
X60723137Y-101831917D01*
X60723129Y-101831923D01*
X60606923Y-101948129D01*
X60606917Y-101948137D01*
X60523255Y-102089603D01*
X60523254Y-102089606D01*
X60477402Y-102247426D01*
X60477401Y-102247432D01*
X60474500Y-102284298D01*
X60474500Y-102715701D01*
X60477401Y-102752567D01*
X60477402Y-102752573D01*
X60523253Y-102910393D01*
X60538918Y-102936881D01*
X60556098Y-103004606D01*
X60538918Y-103063119D01*
X60523253Y-103089606D01*
X60477402Y-103247426D01*
X60477401Y-103247432D01*
X60474500Y-103284298D01*
X60474500Y-103715701D01*
X60477401Y-103752567D01*
X60477402Y-103752573D01*
X60523253Y-103910393D01*
X60523256Y-103910398D01*
X60530849Y-103923238D01*
X60538918Y-103936881D01*
X60556098Y-104004606D01*
X60538918Y-104063119D01*
X60523253Y-104089606D01*
X60477402Y-104247426D01*
X60477401Y-104247432D01*
X60474500Y-104284298D01*
X60474500Y-104715701D01*
X60477401Y-104752567D01*
X60477402Y-104752573D01*
X60523254Y-104910393D01*
X60523256Y-104910398D01*
X60539207Y-104937371D01*
X60556388Y-105005095D01*
X60539208Y-105063608D01*
X60523719Y-105089798D01*
X60523716Y-105089806D01*
X60477900Y-105247505D01*
X60477899Y-105247511D01*
X60477704Y-105249998D01*
X60477705Y-105250000D01*
X60840950Y-105250000D01*
X60875545Y-105254924D01*
X61022426Y-105297597D01*
X61022429Y-105297597D01*
X61022431Y-105297598D01*
X61059306Y-105300500D01*
X61059314Y-105300500D01*
X62440686Y-105300500D01*
X62440694Y-105300500D01*
X62477569Y-105297598D01*
X62477571Y-105297597D01*
X62477573Y-105297597D01*
X62624455Y-105254924D01*
X62659050Y-105250000D01*
X63022295Y-105250000D01*
X63022295Y-105249998D01*
X63022100Y-105247511D01*
X63022099Y-105247505D01*
X63008811Y-105201768D01*
X63009010Y-105131899D01*
X63046952Y-105073229D01*
X63103695Y-105045556D01*
X63233497Y-105019737D01*
X63379179Y-104959394D01*
X63510289Y-104871789D01*
X63621789Y-104760289D01*
X63709394Y-104629179D01*
X63712854Y-104620827D01*
X63723067Y-104596166D01*
X63769737Y-104483497D01*
X63800500Y-104328842D01*
X63800500Y-104171158D01*
X63800500Y-104171155D01*
X63800499Y-104171153D01*
X63797623Y-104156693D01*
X63769737Y-104016503D01*
X63764864Y-104004738D01*
X63709397Y-103870827D01*
X63709389Y-103870812D01*
X63691401Y-103843892D01*
X63670522Y-103777215D01*
X63689006Y-103709835D01*
X63691401Y-103706108D01*
X63709389Y-103679187D01*
X63709390Y-103679184D01*
X63709394Y-103679179D01*
X63769737Y-103533497D01*
X63800500Y-103378842D01*
X63800500Y-103224500D01*
X63820185Y-103157461D01*
X63872989Y-103111706D01*
X63924500Y-103100500D01*
X64325500Y-103100500D01*
X64392539Y-103120185D01*
X64438294Y-103172989D01*
X64449500Y-103224500D01*
X64449500Y-103313846D01*
X64480261Y-103468489D01*
X64480264Y-103468501D01*
X64540602Y-103614172D01*
X64540609Y-103614185D01*
X64628210Y-103745288D01*
X64628213Y-103745292D01*
X64739707Y-103856786D01*
X64739711Y-103856789D01*
X64870814Y-103944390D01*
X64870827Y-103944397D01*
X64975659Y-103987819D01*
X65016503Y-104004737D01*
X65171153Y-104035499D01*
X65171156Y-104035500D01*
X65171158Y-104035500D01*
X65178187Y-104035500D01*
X65203970Y-104043070D01*
X65230546Y-104047096D01*
X65239845Y-104053605D01*
X65245226Y-104055185D01*
X65260093Y-104066401D01*
X65263062Y-104069013D01*
X65275484Y-104081435D01*
X65383565Y-104189516D01*
X65431474Y-104217176D01*
X65440717Y-104225308D01*
X65453071Y-104244853D01*
X65469027Y-104261587D01*
X65471386Y-104273829D01*
X65478048Y-104284368D01*
X65477873Y-104307488D01*
X65482250Y-104330194D01*
X65477888Y-104353002D01*
X65432334Y-104509799D01*
X65429500Y-104545811D01*
X65429500Y-104944169D01*
X65429501Y-104944191D01*
X65432335Y-104980205D01*
X65477129Y-105134388D01*
X65477131Y-105134393D01*
X65558863Y-105272595D01*
X65558869Y-105272603D01*
X65672396Y-105386130D01*
X65672400Y-105386133D01*
X65672402Y-105386135D01*
X65810607Y-105467869D01*
X65834340Y-105474764D01*
X65964791Y-105512664D01*
X65964794Y-105512664D01*
X65964796Y-105512665D01*
X66000819Y-105515500D01*
X66499180Y-105515499D01*
X66535204Y-105512665D01*
X66689393Y-105467869D01*
X66691415Y-105466672D01*
X66693208Y-105466217D01*
X66696552Y-105464771D01*
X66696785Y-105465310D01*
X66759138Y-105449487D01*
X66810615Y-105464600D01*
X66810947Y-105463834D01*
X66817158Y-105466522D01*
X66817661Y-105466669D01*
X66818103Y-105466931D01*
X66818104Y-105466931D01*
X66818107Y-105466933D01*
X66975320Y-105512608D01*
X66975323Y-105512608D01*
X66975325Y-105512609D01*
X67012060Y-105515500D01*
X67012068Y-105515500D01*
X67487932Y-105515500D01*
X67487940Y-105515500D01*
X67524675Y-105512609D01*
X67524677Y-105512608D01*
X67524679Y-105512608D01*
X67681892Y-105466933D01*
X67681893Y-105466932D01*
X67681897Y-105466931D01*
X67822820Y-105383590D01*
X67938590Y-105267820D01*
X68021931Y-105126897D01*
X68021932Y-105126893D01*
X68021933Y-105126892D01*
X68067608Y-104969679D01*
X68067609Y-104969673D01*
X68068418Y-104959390D01*
X68070500Y-104932940D01*
X68070500Y-104507060D01*
X68067609Y-104470325D01*
X68040848Y-104378213D01*
X68021933Y-104313107D01*
X68021931Y-104313104D01*
X68021931Y-104313103D01*
X68012779Y-104297628D01*
X67995597Y-104229906D01*
X68012781Y-104171386D01*
X68021470Y-104156693D01*
X68021471Y-104156692D01*
X68066994Y-104000001D01*
X68066993Y-104000000D01*
X67761357Y-104000000D01*
X67698236Y-103982732D01*
X67681895Y-103973068D01*
X67681892Y-103973066D01*
X67524679Y-103927391D01*
X67524673Y-103927390D01*
X67487947Y-103924500D01*
X67487940Y-103924500D01*
X67374000Y-103924500D01*
X67365314Y-103921949D01*
X67356353Y-103923238D01*
X67332312Y-103912259D01*
X67306961Y-103904815D01*
X67301033Y-103897974D01*
X67292797Y-103894213D01*
X67278507Y-103871978D01*
X67261206Y-103852011D01*
X67258918Y-103841496D01*
X67255023Y-103835435D01*
X67250000Y-103800500D01*
X67250000Y-103624000D01*
X67269685Y-103556961D01*
X67322489Y-103511206D01*
X67374000Y-103500000D01*
X68066993Y-103500000D01*
X68066994Y-103499998D01*
X68021471Y-103343307D01*
X68021469Y-103343304D01*
X67988539Y-103287621D01*
X67971356Y-103219896D01*
X67993516Y-103153634D01*
X68047983Y-103109871D01*
X68095271Y-103100500D01*
X70209952Y-103100500D01*
X70276991Y-103120185D01*
X70297628Y-103136814D01*
X70343737Y-103182923D01*
X70386158Y-103225344D01*
X70517260Y-103312944D01*
X70517273Y-103312951D01*
X70607926Y-103350500D01*
X70662949Y-103373291D01*
X70817599Y-103404053D01*
X70817602Y-103404054D01*
X70817604Y-103404054D01*
X70975290Y-103404054D01*
X70975291Y-103404053D01*
X71129943Y-103373291D01*
X71275625Y-103312948D01*
X71406735Y-103225343D01*
X71420653Y-103211424D01*
X71481972Y-103177941D01*
X71551663Y-103182923D01*
X71596014Y-103211425D01*
X72372408Y-103987819D01*
X72405893Y-104049142D01*
X72400909Y-104118834D01*
X72359037Y-104174767D01*
X72293573Y-104199184D01*
X72284727Y-104199500D01*
X72171155Y-104199500D01*
X72016510Y-104230261D01*
X72016498Y-104230264D01*
X71870827Y-104290602D01*
X71870814Y-104290609D01*
X71739711Y-104378210D01*
X71739707Y-104378213D01*
X71628213Y-104489707D01*
X71628210Y-104489711D01*
X71540609Y-104620814D01*
X71540602Y-104620827D01*
X71480264Y-104766498D01*
X71480261Y-104766510D01*
X71449500Y-104921153D01*
X71449500Y-104925500D01*
X71429815Y-104992539D01*
X71377011Y-105038294D01*
X71325500Y-105049500D01*
X71137273Y-105049500D01*
X71024765Y-105064313D01*
X71024764Y-105064313D01*
X70884771Y-105122300D01*
X70884768Y-105122301D01*
X70884768Y-105122302D01*
X70764550Y-105214549D01*
X70711030Y-105284298D01*
X70672301Y-105334770D01*
X70614314Y-105474763D01*
X70614314Y-105474764D01*
X70599501Y-105587272D01*
X70599501Y-106382283D01*
X70579816Y-106449322D01*
X70527012Y-106495077D01*
X70457854Y-106505021D01*
X70451310Y-106503900D01*
X70366346Y-106487000D01*
X70366342Y-106487000D01*
X70208658Y-106487000D01*
X70208655Y-106487000D01*
X70054010Y-106517761D01*
X70053998Y-106517764D01*
X69908327Y-106578102D01*
X69908314Y-106578109D01*
X69777211Y-106665710D01*
X69777207Y-106665713D01*
X69665713Y-106777207D01*
X69665710Y-106777211D01*
X69578109Y-106908314D01*
X69578102Y-106908327D01*
X69517764Y-107053998D01*
X69517761Y-107054010D01*
X69487000Y-107208653D01*
X69487000Y-107215687D01*
X69467315Y-107282726D01*
X69450681Y-107303368D01*
X69190868Y-107563182D01*
X69129545Y-107596667D01*
X69103187Y-107599501D01*
X68587272Y-107599501D01*
X68474764Y-107614314D01*
X68474763Y-107614314D01*
X68334770Y-107672301D01*
X68334767Y-107672302D01*
X68334767Y-107672303D01*
X68214549Y-107764550D01*
X68162823Y-107831961D01*
X68122300Y-107884771D01*
X68064313Y-108024764D01*
X68064313Y-108024765D01*
X68049500Y-108137273D01*
X68049500Y-108362728D01*
X68065374Y-108483294D01*
X68062375Y-108483688D01*
X68062391Y-108516315D01*
X68065374Y-108516708D01*
X68049500Y-108637272D01*
X68049500Y-108862727D01*
X68065374Y-108983292D01*
X68062399Y-108983683D01*
X68062399Y-109016316D01*
X68065374Y-109016708D01*
X68064313Y-109024762D01*
X68064313Y-109024764D01*
X68061031Y-109049690D01*
X68049500Y-109137272D01*
X68049500Y-109362727D01*
X68056806Y-109418214D01*
X68064278Y-109474973D01*
X68065374Y-109483292D01*
X68062399Y-109483683D01*
X68062399Y-109516316D01*
X68065374Y-109516708D01*
X68064313Y-109524762D01*
X68064313Y-109524764D01*
X68062037Y-109542049D01*
X68049500Y-109637272D01*
X68049500Y-109862727D01*
X68058060Y-109927738D01*
X68061949Y-109957283D01*
X68065374Y-109983292D01*
X68062399Y-109983683D01*
X68062399Y-110016316D01*
X68065374Y-110016708D01*
X68049500Y-110137272D01*
X68049500Y-110362724D01*
X68051007Y-110374169D01*
X68040239Y-110443204D01*
X67993857Y-110495458D01*
X67926587Y-110514341D01*
X67859787Y-110493858D01*
X67853756Y-110489617D01*
X67742330Y-110406203D01*
X67742328Y-110406202D01*
X67607482Y-110355908D01*
X67607483Y-110355908D01*
X67547883Y-110349501D01*
X67547881Y-110349500D01*
X67547873Y-110349500D01*
X67547864Y-110349500D01*
X65752129Y-110349500D01*
X65752123Y-110349501D01*
X65692516Y-110355908D01*
X65557671Y-110406202D01*
X65557664Y-110406206D01*
X65442455Y-110492452D01*
X65442452Y-110492455D01*
X65356206Y-110607664D01*
X65356202Y-110607671D01*
X65305908Y-110742517D01*
X65299501Y-110802116D01*
X65299500Y-110802135D01*
X65299500Y-111074685D01*
X65290061Y-111122135D01*
X65274665Y-111159306D01*
X65230263Y-111266502D01*
X65230261Y-111266510D01*
X65199500Y-111421153D01*
X65199500Y-111578846D01*
X65230261Y-111733489D01*
X65230264Y-111733501D01*
X65290604Y-111879177D01*
X65290606Y-111879180D01*
X65308934Y-111906610D01*
X65329812Y-111973287D01*
X65311327Y-112040667D01*
X65259348Y-112087357D01*
X65205832Y-112099500D01*
X64412129Y-112099500D01*
X64412123Y-112099501D01*
X64352516Y-112105908D01*
X64217671Y-112156202D01*
X64217664Y-112156206D01*
X64102455Y-112242452D01*
X64096184Y-112248724D01*
X64094936Y-112247476D01*
X64081625Y-112257439D01*
X64062034Y-112276460D01*
X64054058Y-112278071D01*
X64047544Y-112282948D01*
X64020308Y-112284893D01*
X63993549Y-112290302D01*
X63982466Y-112287596D01*
X63977852Y-112287926D01*
X63959176Y-112282291D01*
X63957960Y-112281817D01*
X63833497Y-112230263D01*
X63817655Y-112227111D01*
X63807494Y-112223150D01*
X63788120Y-112208195D01*
X63766434Y-112196851D01*
X63760953Y-112187225D01*
X63752185Y-112180457D01*
X63743971Y-112157401D01*
X63731862Y-112136134D01*
X63732455Y-112125073D01*
X63728738Y-112114639D01*
X63734292Y-112090804D01*
X63735603Y-112066365D01*
X63737959Y-112060214D01*
X63769737Y-111983497D01*
X63800500Y-111828842D01*
X63800500Y-111671158D01*
X63800500Y-111671155D01*
X63800499Y-111671153D01*
X63791830Y-111627573D01*
X63769737Y-111516503D01*
X63762901Y-111500000D01*
X63709397Y-111370827D01*
X63709395Y-111370823D01*
X63709394Y-111370821D01*
X63633357Y-111257024D01*
X63612480Y-111190349D01*
X63630964Y-111122969D01*
X63648775Y-111100458D01*
X64608506Y-110140726D01*
X64608511Y-110140723D01*
X64618714Y-110130519D01*
X64618716Y-110130519D01*
X64730520Y-110018715D01*
X64786968Y-109920943D01*
X64809577Y-109881784D01*
X64850501Y-109729056D01*
X64850501Y-109570942D01*
X64850501Y-109563347D01*
X64850500Y-109563329D01*
X64850500Y-107608491D01*
X64870185Y-107541452D01*
X64922989Y-107495697D01*
X64950309Y-107486874D01*
X64968438Y-107483267D01*
X65032761Y-107470473D01*
X65178443Y-107410130D01*
X65309553Y-107322525D01*
X65421053Y-107211025D01*
X65508658Y-107079915D01*
X65569001Y-106934233D01*
X65599764Y-106779578D01*
X65599764Y-106621894D01*
X65599764Y-106621891D01*
X65599763Y-106621889D01*
X65592154Y-106583636D01*
X65569001Y-106467239D01*
X65541162Y-106400028D01*
X65508661Y-106321563D01*
X65508654Y-106321550D01*
X65421053Y-106190447D01*
X65421050Y-106190443D01*
X65309556Y-106078949D01*
X65309552Y-106078946D01*
X65178449Y-105991345D01*
X65178436Y-105991338D01*
X65032765Y-105931000D01*
X65032753Y-105930997D01*
X64878109Y-105900236D01*
X64878106Y-105900236D01*
X64720422Y-105900236D01*
X64720419Y-105900236D01*
X64565774Y-105930997D01*
X64565762Y-105931000D01*
X64420091Y-105991338D01*
X64420080Y-105991344D01*
X64306657Y-106067131D01*
X64239980Y-106088008D01*
X64172600Y-106069523D01*
X64168877Y-106067131D01*
X64156374Y-106058777D01*
X64129179Y-106040606D01*
X64129176Y-106040604D01*
X64129175Y-106040604D01*
X63983501Y-105980264D01*
X63983489Y-105980261D01*
X63828845Y-105949500D01*
X63828842Y-105949500D01*
X63671158Y-105949500D01*
X63671155Y-105949500D01*
X63516510Y-105980261D01*
X63516498Y-105980264D01*
X63370827Y-106040602D01*
X63370814Y-106040609D01*
X63239711Y-106128210D01*
X63239707Y-106128213D01*
X63128213Y-106239707D01*
X63128210Y-106239711D01*
X63040609Y-106370814D01*
X63040602Y-106370827D01*
X62980264Y-106516498D01*
X62980261Y-106516510D01*
X62949500Y-106671153D01*
X62949500Y-106828846D01*
X62980261Y-106983489D01*
X62980264Y-106983501D01*
X63040602Y-107129172D01*
X63040609Y-107129185D01*
X63128602Y-107260874D01*
X63149480Y-107327551D01*
X63149500Y-107329765D01*
X63149500Y-108074902D01*
X63129815Y-108141941D01*
X63113181Y-108162583D01*
X62547839Y-108727925D01*
X62486516Y-108761410D01*
X62484350Y-108761861D01*
X62329008Y-108792761D01*
X62328998Y-108792764D01*
X62183327Y-108853102D01*
X62183314Y-108853109D01*
X62052211Y-108940710D01*
X62052207Y-108940713D01*
X61940713Y-109052207D01*
X61940710Y-109052211D01*
X61853109Y-109183314D01*
X61853102Y-109183327D01*
X61792764Y-109328998D01*
X61792761Y-109329010D01*
X61763783Y-109474691D01*
X61731398Y-109536602D01*
X61670682Y-109571177D01*
X61642166Y-109574500D01*
X61059298Y-109574500D01*
X61022432Y-109577401D01*
X61022426Y-109577402D01*
X60864606Y-109623254D01*
X60864603Y-109623255D01*
X60723137Y-109706917D01*
X60723129Y-109706923D01*
X60606923Y-109823129D01*
X60606917Y-109823137D01*
X60523255Y-109964603D01*
X60523254Y-109964606D01*
X60477402Y-110122426D01*
X60477401Y-110122432D01*
X60474500Y-110159298D01*
X60474500Y-110590701D01*
X60477401Y-110627567D01*
X60477402Y-110627573D01*
X60523253Y-110785393D01*
X60538918Y-110811881D01*
X60556098Y-110879606D01*
X60538918Y-110938119D01*
X60523253Y-110964606D01*
X60477402Y-111122426D01*
X60477401Y-111122432D01*
X60474500Y-111159298D01*
X60474500Y-111590701D01*
X60477401Y-111627567D01*
X60477402Y-111627573D01*
X60523253Y-111785393D01*
X60538918Y-111811881D01*
X60556098Y-111879606D01*
X60538918Y-111938119D01*
X60523253Y-111964606D01*
X60477402Y-112122426D01*
X60477401Y-112122432D01*
X60474500Y-112159298D01*
X60474500Y-112590701D01*
X60477401Y-112627567D01*
X60477402Y-112627573D01*
X60523254Y-112785393D01*
X60523256Y-112785398D01*
X60539207Y-112812371D01*
X60556388Y-112880095D01*
X60539208Y-112938608D01*
X60523719Y-112964798D01*
X60523716Y-112964806D01*
X60477900Y-113122505D01*
X60477899Y-113122511D01*
X60477704Y-113124998D01*
X60477705Y-113125000D01*
X60840950Y-113125000D01*
X60875545Y-113129924D01*
X61022426Y-113172597D01*
X61022429Y-113172597D01*
X61022431Y-113172598D01*
X61059306Y-113175500D01*
X61059314Y-113175500D01*
X61626000Y-113175500D01*
X61693039Y-113195185D01*
X61738794Y-113247989D01*
X61750000Y-113299500D01*
X61750000Y-113375000D01*
X61876000Y-113375000D01*
X61943039Y-113394685D01*
X61988794Y-113447489D01*
X62000000Y-113499000D01*
X62000000Y-114175000D01*
X62440634Y-114175000D01*
X62440649Y-114174999D01*
X62477489Y-114172100D01*
X62477495Y-114172099D01*
X62635193Y-114126283D01*
X62635196Y-114126282D01*
X62776552Y-114042685D01*
X62776561Y-114042678D01*
X62892678Y-113926561D01*
X62892685Y-113926552D01*
X62976282Y-113785196D01*
X62987253Y-113747434D01*
X63024859Y-113688547D01*
X63088331Y-113659340D01*
X63157518Y-113669085D01*
X63175215Y-113678921D01*
X63220821Y-113709394D01*
X63220823Y-113709395D01*
X63220827Y-113709397D01*
X63312658Y-113747434D01*
X63366503Y-113769737D01*
X63521153Y-113800499D01*
X63521156Y-113800500D01*
X63521158Y-113800500D01*
X63678844Y-113800500D01*
X63678845Y-113800499D01*
X63833497Y-113769737D01*
X63956767Y-113718676D01*
X64026237Y-113711208D01*
X64088716Y-113742483D01*
X64100412Y-113755504D01*
X64102451Y-113757542D01*
X64102454Y-113757546D01*
X64121506Y-113771808D01*
X64217664Y-113843793D01*
X64217671Y-113843797D01*
X64238413Y-113851533D01*
X64352517Y-113894091D01*
X64412127Y-113900500D01*
X64412142Y-113900499D01*
X64412794Y-113900570D01*
X64427258Y-113906561D01*
X64442874Y-113907678D01*
X64458876Y-113919656D01*
X64477346Y-113927307D01*
X64486275Y-113940167D01*
X64498808Y-113949549D01*
X64505793Y-113968278D01*
X64517195Y-113984699D01*
X64517754Y-114000344D01*
X64523225Y-114015013D01*
X64518976Y-114034544D01*
X64519690Y-114054524D01*
X64511501Y-114068904D01*
X64508373Y-114083286D01*
X64487223Y-114111541D01*
X64381286Y-114217478D01*
X64381285Y-114217478D01*
X64381284Y-114217479D01*
X64269479Y-114329284D01*
X64257231Y-114350500D01*
X64237146Y-114385289D01*
X64190423Y-114466215D01*
X64149499Y-114618943D01*
X64149499Y-114618945D01*
X64149499Y-114787046D01*
X64149500Y-114787059D01*
X64149500Y-116120234D01*
X64144172Y-116138377D01*
X64143835Y-116157287D01*
X64130334Y-116185504D01*
X64129815Y-116187273D01*
X64128602Y-116189125D01*
X64042762Y-116317593D01*
X63989150Y-116362398D01*
X63919825Y-116371105D01*
X63870769Y-116351804D01*
X63779185Y-116290609D01*
X63779172Y-116290602D01*
X63633501Y-116230264D01*
X63633489Y-116230261D01*
X63478845Y-116199500D01*
X63478842Y-116199500D01*
X63321158Y-116199500D01*
X63321155Y-116199500D01*
X63166510Y-116230261D01*
X63166498Y-116230264D01*
X63020827Y-116290602D01*
X63020814Y-116290609D01*
X62889711Y-116378210D01*
X62889707Y-116378213D01*
X62778213Y-116489707D01*
X62778213Y-116489708D01*
X62690609Y-116620814D01*
X62690607Y-116620819D01*
X62689725Y-116622949D01*
X62688964Y-116623893D01*
X62687736Y-116626191D01*
X62687300Y-116625958D01*
X62645885Y-116677354D01*
X62579592Y-116699421D01*
X62575162Y-116699500D01*
X62421155Y-116699500D01*
X62266510Y-116730261D01*
X62266498Y-116730264D01*
X62120827Y-116790602D01*
X62120814Y-116790609D01*
X61989711Y-116878210D01*
X61989707Y-116878213D01*
X61878213Y-116989707D01*
X61878210Y-116989711D01*
X61790609Y-117120814D01*
X61790602Y-117120827D01*
X61730264Y-117266498D01*
X61730261Y-117266508D01*
X61713715Y-117349692D01*
X61681330Y-117411603D01*
X61620614Y-117446177D01*
X61592098Y-117449500D01*
X61059298Y-117449500D01*
X61022432Y-117452401D01*
X61022426Y-117452402D01*
X60864606Y-117498254D01*
X60864603Y-117498255D01*
X60723137Y-117581917D01*
X60723129Y-117581923D01*
X60606923Y-117698129D01*
X60606917Y-117698137D01*
X60523255Y-117839603D01*
X60523254Y-117839606D01*
X60477402Y-117997426D01*
X60477401Y-117997432D01*
X60474500Y-118034298D01*
X60474500Y-118465701D01*
X60477401Y-118502567D01*
X60477402Y-118502573D01*
X60523253Y-118660393D01*
X60538918Y-118686881D01*
X60556098Y-118754606D01*
X60538918Y-118813119D01*
X60523253Y-118839606D01*
X60477402Y-118997426D01*
X60477401Y-118997432D01*
X60474500Y-119034298D01*
X60474500Y-119067542D01*
X60471949Y-119076227D01*
X60473238Y-119085189D01*
X60462259Y-119109229D01*
X60454815Y-119134581D01*
X60447974Y-119140508D01*
X60444213Y-119148745D01*
X60421978Y-119163034D01*
X60402011Y-119180336D01*
X60391496Y-119182623D01*
X60385435Y-119186519D01*
X60350500Y-119191542D01*
X60346983Y-119191542D01*
X60279944Y-119171857D01*
X60265128Y-119159918D01*
X60264999Y-119160076D01*
X60260288Y-119156210D01*
X60129185Y-119068609D01*
X60129172Y-119068602D01*
X59983501Y-119008264D01*
X59983489Y-119008261D01*
X59828845Y-118977500D01*
X59828842Y-118977500D01*
X59671158Y-118977500D01*
X59671155Y-118977500D01*
X59516510Y-119008261D01*
X59516498Y-119008264D01*
X59370827Y-119068602D01*
X59370814Y-119068609D01*
X59239711Y-119156210D01*
X59239707Y-119156213D01*
X59128213Y-119267707D01*
X59128210Y-119267711D01*
X59040609Y-119398814D01*
X59040602Y-119398827D01*
X58980264Y-119544498D01*
X58980261Y-119544510D01*
X58949500Y-119699153D01*
X58949500Y-119856846D01*
X58980261Y-120011489D01*
X58980264Y-120011501D01*
X59040602Y-120157172D01*
X59040609Y-120157185D01*
X59128210Y-120288288D01*
X59128213Y-120288292D01*
X59239707Y-120399786D01*
X59239711Y-120399789D01*
X59370814Y-120487390D01*
X59370827Y-120487397D01*
X59467267Y-120527343D01*
X59516503Y-120547737D01*
X59671153Y-120578499D01*
X59671156Y-120578500D01*
X59671158Y-120578500D01*
X59828844Y-120578500D01*
X59828845Y-120578499D01*
X59983497Y-120547737D01*
X60129179Y-120487394D01*
X60239859Y-120413440D01*
X60257905Y-120407789D01*
X60273815Y-120397565D01*
X60304774Y-120393113D01*
X60306536Y-120392562D01*
X60308750Y-120392542D01*
X60354118Y-120392542D01*
X60421157Y-120412227D01*
X60466912Y-120465031D01*
X60475076Y-120496549D01*
X60476263Y-120496333D01*
X60477402Y-120502573D01*
X60523254Y-120660393D01*
X60523256Y-120660398D01*
X60539207Y-120687371D01*
X60556388Y-120755095D01*
X60539208Y-120813608D01*
X60523719Y-120839798D01*
X60523716Y-120839806D01*
X60477900Y-120997505D01*
X60477899Y-120997511D01*
X60477704Y-120999998D01*
X60477705Y-121000000D01*
X60840950Y-121000000D01*
X60875545Y-121004924D01*
X61022426Y-121047597D01*
X61022429Y-121047597D01*
X61022431Y-121047598D01*
X61059306Y-121050500D01*
X61059314Y-121050500D01*
X62440686Y-121050500D01*
X62440694Y-121050500D01*
X62477569Y-121047598D01*
X62477571Y-121047597D01*
X62477573Y-121047597D01*
X62624455Y-121004924D01*
X62659050Y-121000000D01*
X63022295Y-121000000D01*
X63022295Y-120999998D01*
X63022100Y-120997511D01*
X63022099Y-120997505D01*
X62976283Y-120839806D01*
X62976282Y-120839803D01*
X62960792Y-120813610D01*
X62943611Y-120745886D01*
X62960793Y-120687369D01*
X62976744Y-120660398D01*
X63022598Y-120502569D01*
X63025500Y-120465694D01*
X63025500Y-120034306D01*
X63022598Y-119997431D01*
X63022597Y-119997426D01*
X63022480Y-119996785D01*
X63022518Y-119996419D01*
X63022101Y-119991114D01*
X63023085Y-119991036D01*
X63029796Y-119927299D01*
X63073517Y-119872799D01*
X63139763Y-119850589D01*
X63144461Y-119850500D01*
X63661000Y-119850500D01*
X63728039Y-119870185D01*
X63773794Y-119922989D01*
X63785000Y-119974500D01*
X63785000Y-120798830D01*
X63784999Y-120798848D01*
X63784999Y-120964554D01*
X63784998Y-120964554D01*
X63825923Y-121117285D01*
X63844522Y-121149499D01*
X63844521Y-121149499D01*
X63844522Y-121149500D01*
X63904975Y-121254209D01*
X63904981Y-121254217D01*
X64023849Y-121373085D01*
X64023855Y-121373090D01*
X64381447Y-121730682D01*
X64414932Y-121792005D01*
X64409948Y-121861697D01*
X64381453Y-121906038D01*
X64378216Y-121909275D01*
X64378210Y-121909282D01*
X64290609Y-122040385D01*
X64290604Y-122040395D01*
X64244281Y-122152229D01*
X64200440Y-122206632D01*
X64153912Y-122226393D01*
X64036079Y-122249832D01*
X64036069Y-122249835D01*
X63890398Y-122310173D01*
X63890385Y-122310180D01*
X63759282Y-122397781D01*
X63759278Y-122397784D01*
X63647784Y-122509278D01*
X63647781Y-122509282D01*
X63560180Y-122640385D01*
X63560173Y-122640398D01*
X63499835Y-122786069D01*
X63499832Y-122786081D01*
X63469071Y-122940724D01*
X63469071Y-123098417D01*
X63499832Y-123253060D01*
X63499835Y-123253072D01*
X63560173Y-123398743D01*
X63560180Y-123398756D01*
X63630342Y-123503760D01*
X63651220Y-123570438D01*
X63632736Y-123637818D01*
X63580757Y-123684508D01*
X63572730Y-123688005D01*
X63502660Y-123715637D01*
X63502658Y-123715638D01*
X63382077Y-123807077D01*
X63290639Y-123927656D01*
X63235122Y-124068438D01*
X63233421Y-124082607D01*
X63224500Y-124156898D01*
X63224500Y-124343102D01*
X63229702Y-124386422D01*
X63235561Y-124435217D01*
X63235561Y-124464783D01*
X63232231Y-124492517D01*
X63224500Y-124556898D01*
X63224500Y-124743102D01*
X63230222Y-124790754D01*
X63235561Y-124835217D01*
X63235561Y-124864783D01*
X63230130Y-124910017D01*
X63224500Y-124956898D01*
X63224500Y-125143102D01*
X63228538Y-125176725D01*
X63235561Y-125235217D01*
X63235561Y-125264783D01*
X63234205Y-125276077D01*
X63224500Y-125356898D01*
X63224500Y-125543102D01*
X63225584Y-125552127D01*
X63235561Y-125635217D01*
X63235560Y-125664785D01*
X63231145Y-125701550D01*
X63203608Y-125765764D01*
X63145725Y-125804896D01*
X63075875Y-125806523D01*
X63016233Y-125770128D01*
X62993469Y-125734217D01*
X62941509Y-125608774D01*
X62941504Y-125608762D01*
X62790985Y-125327162D01*
X62790974Y-125327144D01*
X62613577Y-125061651D01*
X62613567Y-125061637D01*
X62468581Y-124884972D01*
X62468580Y-124884971D01*
X61294250Y-126059300D01*
X61220412Y-125957670D01*
X61042330Y-125779588D01*
X60940698Y-125705748D01*
X62115027Y-124531418D01*
X61938362Y-124386432D01*
X61938348Y-124386422D01*
X61672855Y-124209025D01*
X61672837Y-124209014D01*
X61391237Y-124058495D01*
X61391232Y-124058493D01*
X61096213Y-123936292D01*
X60790628Y-123843594D01*
X60790617Y-123843591D01*
X60477455Y-123781301D01*
X60477438Y-123781298D01*
X60159659Y-123750000D01*
X59840341Y-123750000D01*
X59522561Y-123781298D01*
X59522544Y-123781301D01*
X59209382Y-123843591D01*
X59209371Y-123843594D01*
X58903786Y-123936292D01*
X58608767Y-124058493D01*
X58608762Y-124058495D01*
X58327162Y-124209014D01*
X58327144Y-124209025D01*
X58061651Y-124386422D01*
X58061650Y-124386423D01*
X57884971Y-124531418D01*
X59059301Y-125705748D01*
X58957670Y-125779588D01*
X58779588Y-125957670D01*
X58705748Y-126059301D01*
X57531418Y-124884971D01*
X57386423Y-125061650D01*
X57386422Y-125061651D01*
X57209025Y-125327144D01*
X57209014Y-125327162D01*
X57058495Y-125608762D01*
X57058493Y-125608767D01*
X57039061Y-125655681D01*
X56995220Y-125710084D01*
X56928926Y-125732149D01*
X56861226Y-125714870D01*
X56813616Y-125663732D01*
X56800500Y-125608228D01*
X56800500Y-123721158D01*
X56820185Y-123654119D01*
X56872989Y-123608364D01*
X56942147Y-123598420D01*
X56963505Y-123603452D01*
X57072305Y-123639505D01*
X57072309Y-123639506D01*
X57175019Y-123649999D01*
X57624999Y-123649999D01*
X58125000Y-123649999D01*
X58574972Y-123649999D01*
X58574986Y-123649998D01*
X58677697Y-123639505D01*
X58844119Y-123584358D01*
X58844124Y-123584356D01*
X58993345Y-123492315D01*
X59117315Y-123368345D01*
X59209356Y-123219124D01*
X59209358Y-123219119D01*
X59264505Y-123052697D01*
X59264506Y-123052690D01*
X59274999Y-122949986D01*
X59275000Y-122949973D01*
X59275000Y-122800000D01*
X58125000Y-122800000D01*
X58125000Y-123649999D01*
X57624999Y-123649999D01*
X57625000Y-123649998D01*
X57625000Y-122300000D01*
X58125000Y-122300000D01*
X59274999Y-122300000D01*
X59274999Y-122150028D01*
X59274998Y-122150013D01*
X59264505Y-122047302D01*
X59209358Y-121880880D01*
X59209356Y-121880875D01*
X59117315Y-121731654D01*
X58993345Y-121607684D01*
X58917974Y-121561195D01*
X58844124Y-121515643D01*
X58844119Y-121515641D01*
X58796921Y-121500001D01*
X60477704Y-121500001D01*
X60477899Y-121502486D01*
X60523718Y-121660198D01*
X60607314Y-121801552D01*
X60607321Y-121801561D01*
X60723438Y-121917678D01*
X60723447Y-121917685D01*
X60864803Y-122001282D01*
X60864806Y-122001283D01*
X61022504Y-122047099D01*
X61022510Y-122047100D01*
X61059350Y-122049999D01*
X61059366Y-122050000D01*
X61500000Y-122050000D01*
X62000000Y-122050000D01*
X62440634Y-122050000D01*
X62440649Y-122049999D01*
X62477489Y-122047100D01*
X62477495Y-122047099D01*
X62635193Y-122001283D01*
X62635196Y-122001282D01*
X62776552Y-121917685D01*
X62776561Y-121917678D01*
X62892678Y-121801561D01*
X62892685Y-121801552D01*
X62976281Y-121660198D01*
X63022100Y-121502486D01*
X63022295Y-121500001D01*
X63022295Y-121500000D01*
X62000000Y-121500000D01*
X62000000Y-122050000D01*
X61500000Y-122050000D01*
X61500000Y-121500000D01*
X60477705Y-121500000D01*
X60477704Y-121500001D01*
X58796921Y-121500001D01*
X58677697Y-121460494D01*
X58677690Y-121460493D01*
X58574986Y-121450000D01*
X58125000Y-121450000D01*
X58125000Y-122300000D01*
X57625000Y-122300000D01*
X57625000Y-121450000D01*
X57175028Y-121450000D01*
X57175012Y-121450001D01*
X57072301Y-121460494D01*
X56963503Y-121496546D01*
X56893675Y-121498948D01*
X56833633Y-121463216D01*
X56802441Y-121400695D01*
X56800500Y-121378840D01*
X56800500Y-118121158D01*
X56820185Y-118054119D01*
X56872989Y-118008364D01*
X56942147Y-117998420D01*
X56963505Y-118003452D01*
X57072305Y-118039505D01*
X57072309Y-118039506D01*
X57175019Y-118049999D01*
X57624999Y-118049999D01*
X58125000Y-118049999D01*
X58574972Y-118049999D01*
X58574986Y-118049998D01*
X58677697Y-118039505D01*
X58844119Y-117984358D01*
X58844124Y-117984356D01*
X58993345Y-117892315D01*
X59117315Y-117768345D01*
X59209356Y-117619124D01*
X59209358Y-117619119D01*
X59264505Y-117452697D01*
X59264506Y-117452690D01*
X59274999Y-117349986D01*
X59275000Y-117349973D01*
X59275000Y-117200000D01*
X58125000Y-117200000D01*
X58125000Y-118049999D01*
X57624999Y-118049999D01*
X57625000Y-118049998D01*
X57625000Y-116700000D01*
X58125000Y-116700000D01*
X59274999Y-116700000D01*
X59274999Y-116550028D01*
X59274998Y-116550013D01*
X59264505Y-116447302D01*
X59209358Y-116280880D01*
X59209356Y-116280875D01*
X59117315Y-116131654D01*
X58993345Y-116007684D01*
X58848007Y-115918039D01*
X58801283Y-115866091D01*
X58790060Y-115797128D01*
X58817904Y-115733046D01*
X58848007Y-115706961D01*
X58993345Y-115617315D01*
X59117315Y-115493345D01*
X59209356Y-115344124D01*
X59209358Y-115344119D01*
X59264505Y-115177697D01*
X59264506Y-115177690D01*
X59274999Y-115074986D01*
X59275000Y-115074973D01*
X59275000Y-114925000D01*
X58125000Y-114925000D01*
X58125000Y-116700000D01*
X57625000Y-116700000D01*
X57625000Y-114425000D01*
X58125000Y-114425000D01*
X59274999Y-114425000D01*
X59274999Y-114275028D01*
X59274998Y-114275013D01*
X59264505Y-114172302D01*
X59209358Y-114005880D01*
X59209356Y-114005875D01*
X59117315Y-113856654D01*
X58993345Y-113732684D01*
X58917974Y-113686195D01*
X58844124Y-113640643D01*
X58844119Y-113640641D01*
X58796921Y-113625001D01*
X60477704Y-113625001D01*
X60477899Y-113627486D01*
X60523718Y-113785198D01*
X60607314Y-113926552D01*
X60607321Y-113926561D01*
X60723438Y-114042678D01*
X60723447Y-114042685D01*
X60864803Y-114126282D01*
X60864806Y-114126283D01*
X61022504Y-114172099D01*
X61022510Y-114172100D01*
X61059350Y-114174999D01*
X61059366Y-114175000D01*
X61500000Y-114175000D01*
X61500000Y-113625000D01*
X60477705Y-113625000D01*
X60477704Y-113625001D01*
X58796921Y-113625001D01*
X58677697Y-113585494D01*
X58677690Y-113585493D01*
X58574986Y-113575000D01*
X58125000Y-113575000D01*
X58125000Y-114425000D01*
X57625000Y-114425000D01*
X57625000Y-113575000D01*
X57175028Y-113575000D01*
X57175012Y-113575001D01*
X57072301Y-113585494D01*
X56963503Y-113621546D01*
X56893675Y-113623948D01*
X56833633Y-113588216D01*
X56802441Y-113525695D01*
X56800500Y-113503840D01*
X56800500Y-110246158D01*
X56820185Y-110179119D01*
X56872989Y-110133364D01*
X56942147Y-110123420D01*
X56963505Y-110128452D01*
X57072305Y-110164505D01*
X57072309Y-110164506D01*
X57175019Y-110174999D01*
X57624999Y-110174999D01*
X58125000Y-110174999D01*
X58574972Y-110174999D01*
X58574986Y-110174998D01*
X58677697Y-110164505D01*
X58844119Y-110109358D01*
X58844124Y-110109356D01*
X58993345Y-110017315D01*
X59117315Y-109893345D01*
X59209356Y-109744124D01*
X59209358Y-109744119D01*
X59264505Y-109577697D01*
X59264506Y-109577690D01*
X59274999Y-109474986D01*
X59275000Y-109474973D01*
X59275000Y-109325000D01*
X58125000Y-109325000D01*
X58125000Y-110174999D01*
X57624999Y-110174999D01*
X57625000Y-110174998D01*
X57625000Y-108825000D01*
X58125000Y-108825000D01*
X59274999Y-108825000D01*
X59274999Y-108675028D01*
X59274998Y-108675013D01*
X59264505Y-108572302D01*
X59209358Y-108405880D01*
X59209356Y-108405875D01*
X59117315Y-108256654D01*
X58993345Y-108132684D01*
X58848007Y-108043039D01*
X58801283Y-107991091D01*
X58790060Y-107922128D01*
X58817904Y-107858046D01*
X58848007Y-107831961D01*
X58993345Y-107742315D01*
X59117315Y-107618345D01*
X59209356Y-107469124D01*
X59209358Y-107469119D01*
X59264505Y-107302697D01*
X59264506Y-107302690D01*
X59274999Y-107199986D01*
X59275000Y-107199973D01*
X59275000Y-107050000D01*
X58125000Y-107050000D01*
X58125000Y-108825000D01*
X57625000Y-108825000D01*
X57625000Y-106550000D01*
X58125000Y-106550000D01*
X59274999Y-106550000D01*
X59274999Y-106400028D01*
X59274998Y-106400013D01*
X59264505Y-106297302D01*
X59209358Y-106130880D01*
X59209356Y-106130875D01*
X59117315Y-105981654D01*
X58993345Y-105857684D01*
X58917974Y-105811195D01*
X58844124Y-105765643D01*
X58844119Y-105765641D01*
X58796921Y-105750001D01*
X60477704Y-105750001D01*
X60477899Y-105752486D01*
X60523718Y-105910198D01*
X60607314Y-106051552D01*
X60607321Y-106051561D01*
X60723438Y-106167678D01*
X60723447Y-106167685D01*
X60864803Y-106251282D01*
X60864806Y-106251283D01*
X61022504Y-106297099D01*
X61022510Y-106297100D01*
X61059350Y-106299999D01*
X61059366Y-106300000D01*
X61500000Y-106300000D01*
X62000000Y-106300000D01*
X62440634Y-106300000D01*
X62440649Y-106299999D01*
X62477489Y-106297100D01*
X62477495Y-106297099D01*
X62635193Y-106251283D01*
X62635196Y-106251282D01*
X62776552Y-106167685D01*
X62776561Y-106167678D01*
X62892678Y-106051561D01*
X62892685Y-106051552D01*
X62976281Y-105910198D01*
X63022100Y-105752486D01*
X63022295Y-105750001D01*
X63022295Y-105750000D01*
X62000000Y-105750000D01*
X62000000Y-106300000D01*
X61500000Y-106300000D01*
X61500000Y-105750000D01*
X60477705Y-105750000D01*
X60477704Y-105750001D01*
X58796921Y-105750001D01*
X58677697Y-105710494D01*
X58677690Y-105710493D01*
X58574986Y-105700000D01*
X58125000Y-105700000D01*
X58125000Y-106550000D01*
X57625000Y-106550000D01*
X57625000Y-105700000D01*
X57175028Y-105700000D01*
X57175012Y-105700001D01*
X57072301Y-105710494D01*
X56963503Y-105746546D01*
X56893675Y-105748948D01*
X56833633Y-105713216D01*
X56802441Y-105650695D01*
X56800500Y-105628840D01*
X56800500Y-102371158D01*
X56820185Y-102304119D01*
X56872989Y-102258364D01*
X56942147Y-102248420D01*
X56963505Y-102253452D01*
X57072305Y-102289505D01*
X57072309Y-102289506D01*
X57175019Y-102299999D01*
X57624999Y-102299999D01*
X58125000Y-102299999D01*
X58574972Y-102299999D01*
X58574986Y-102299998D01*
X58677697Y-102289505D01*
X58844119Y-102234358D01*
X58844124Y-102234356D01*
X58993345Y-102142315D01*
X59117315Y-102018345D01*
X59209356Y-101869124D01*
X59209358Y-101869119D01*
X59264505Y-101702697D01*
X59264506Y-101702690D01*
X59274999Y-101599986D01*
X59275000Y-101599968D01*
X59275000Y-101450000D01*
X58125000Y-101450000D01*
X58125000Y-102299999D01*
X57624999Y-102299999D01*
X57625000Y-102299998D01*
X57625000Y-100100000D01*
X57175028Y-100100000D01*
X57175012Y-100100001D01*
X57072301Y-100110494D01*
X56963503Y-100146546D01*
X56893675Y-100148948D01*
X56833633Y-100113216D01*
X56802441Y-100050695D01*
X56800500Y-100028840D01*
X56800500Y-98391771D01*
X56820185Y-98324732D01*
X56872989Y-98278977D01*
X56942147Y-98269033D01*
X57005703Y-98298058D01*
X57039061Y-98344319D01*
X57058490Y-98391225D01*
X57058495Y-98391237D01*
X57209014Y-98672837D01*
X57209025Y-98672855D01*
X57386422Y-98938348D01*
X57386432Y-98938362D01*
X57531418Y-99115027D01*
X58705747Y-97940697D01*
X58779588Y-98042330D01*
X58957670Y-98220412D01*
X59059301Y-98294251D01*
X57884971Y-99468580D01*
X57884972Y-99468581D01*
X58061637Y-99613567D01*
X58061651Y-99613577D01*
X58327144Y-99790974D01*
X58327162Y-99790985D01*
X58468706Y-99866642D01*
X58518551Y-99915604D01*
X58534011Y-99983742D01*
X58510179Y-100049422D01*
X58454622Y-100091790D01*
X58410253Y-100100000D01*
X58125000Y-100100000D01*
X58125000Y-100950000D01*
X59274999Y-100950000D01*
X59274999Y-100800028D01*
X59274998Y-100800013D01*
X59264505Y-100697302D01*
X59209358Y-100530880D01*
X59209356Y-100530875D01*
X59117315Y-100381654D01*
X59102324Y-100366663D01*
X59068839Y-100305340D01*
X59073823Y-100235648D01*
X59115695Y-100179715D01*
X59181159Y-100155298D01*
X59214196Y-100157365D01*
X59522544Y-100218698D01*
X59522561Y-100218701D01*
X59840341Y-100250000D01*
X60159659Y-100250000D01*
X60391604Y-100227155D01*
X65125000Y-100227155D01*
X65125000Y-100900000D01*
X67000000Y-100900000D01*
X67000000Y-99775000D01*
X65577155Y-99775000D01*
X65517627Y-99781401D01*
X65517620Y-99781403D01*
X65382913Y-99831645D01*
X65382906Y-99831649D01*
X65267812Y-99917809D01*
X65267809Y-99917812D01*
X65181649Y-100032906D01*
X65181645Y-100032913D01*
X65131403Y-100167620D01*
X65131401Y-100167627D01*
X65125000Y-100227155D01*
X60391604Y-100227155D01*
X60477438Y-100218701D01*
X60477455Y-100218698D01*
X60790617Y-100156408D01*
X60790628Y-100156405D01*
X60959463Y-100105190D01*
X61096213Y-100063707D01*
X61391232Y-99941506D01*
X61391237Y-99941504D01*
X61672837Y-99790985D01*
X61672855Y-99790974D01*
X61938348Y-99613577D01*
X61938361Y-99613567D01*
X62115026Y-99468581D01*
X62115027Y-99468580D01*
X60940698Y-98294251D01*
X61042330Y-98220412D01*
X61220412Y-98042330D01*
X61294251Y-97940698D01*
X62468580Y-99115027D01*
X62468581Y-99115026D01*
X62613567Y-98938361D01*
X62613577Y-98938348D01*
X62790974Y-98672855D01*
X62790985Y-98672837D01*
X62941504Y-98391237D01*
X62941506Y-98391232D01*
X63063707Y-98096213D01*
X63156405Y-97790628D01*
X63156408Y-97790617D01*
X63218698Y-97477455D01*
X63218701Y-97477438D01*
X63250000Y-97159658D01*
X63250000Y-96840341D01*
X63218701Y-96522561D01*
X63218698Y-96522544D01*
X63156408Y-96209382D01*
X63156405Y-96209371D01*
X63063707Y-95903786D01*
X62941506Y-95608767D01*
X62941504Y-95608762D01*
X62790985Y-95327162D01*
X62790974Y-95327144D01*
X62613577Y-95061651D01*
X62613567Y-95061637D01*
X62468581Y-94884972D01*
X62468580Y-94884971D01*
X61294251Y-96059300D01*
X61220412Y-95957670D01*
X61042330Y-95779588D01*
X60940697Y-95705747D01*
X62115027Y-94531418D01*
X61938362Y-94386432D01*
X61938348Y-94386422D01*
X61672855Y-94209025D01*
X61672837Y-94209014D01*
X61391237Y-94058495D01*
X61391232Y-94058493D01*
X61344319Y-94039061D01*
X61289916Y-93995220D01*
X61267851Y-93928926D01*
X61285130Y-93861226D01*
X61336268Y-93813616D01*
X61391772Y-93800500D01*
X63850500Y-93800500D01*
X63917539Y-93820185D01*
G37*
%TD.AperFunction*%
%TA.AperFunction,Conductor*%
G36*
X66218039Y-93820185D02*
G01*
X66263794Y-93872989D01*
X66275000Y-93924500D01*
X66275000Y-94600000D01*
X68225000Y-94600000D01*
X68225000Y-93924500D01*
X68227550Y-93915814D01*
X68226262Y-93906853D01*
X68237240Y-93882812D01*
X68244685Y-93857461D01*
X68251525Y-93851533D01*
X68255287Y-93843297D01*
X68277521Y-93829007D01*
X68297489Y-93811706D01*
X68308003Y-93809418D01*
X68314065Y-93805523D01*
X68349000Y-93800500D01*
X68370500Y-93800500D01*
X68437539Y-93820185D01*
X68483294Y-93872989D01*
X68494500Y-93924500D01*
X68494500Y-95656455D01*
X68495924Y-95694381D01*
X68497316Y-95712909D01*
X68501576Y-95750592D01*
X68501576Y-95750594D01*
X68501577Y-95750596D01*
X68526272Y-95832483D01*
X68543120Y-95888351D01*
X68543121Y-95888353D01*
X68570593Y-95947367D01*
X68571450Y-95949410D01*
X68572606Y-95951692D01*
X68572609Y-95951696D01*
X68572610Y-95951699D01*
X68651280Y-96072167D01*
X68651281Y-96072168D01*
X68651282Y-96072169D01*
X68760698Y-96165587D01*
X68760701Y-96165589D01*
X68760704Y-96165591D01*
X68819757Y-96202935D01*
X68951063Y-96261745D01*
X69863859Y-96522544D01*
X71107737Y-96877938D01*
X71166790Y-96915282D01*
X71196278Y-96978625D01*
X71186839Y-97047854D01*
X71141471Y-97100990D01*
X71112676Y-97114873D01*
X71041518Y-97138452D01*
X71041507Y-97138457D01*
X70897271Y-97227424D01*
X70897267Y-97227427D01*
X70777427Y-97347267D01*
X70777424Y-97347271D01*
X70688457Y-97491507D01*
X70688452Y-97491518D01*
X70635144Y-97652393D01*
X70625000Y-97751677D01*
X70625000Y-97775000D01*
X72574999Y-97775000D01*
X72574999Y-97751692D01*
X72574998Y-97751677D01*
X72564855Y-97652392D01*
X72562038Y-97643890D01*
X72559633Y-97574062D01*
X72595362Y-97514018D01*
X72657881Y-97482823D01*
X72695922Y-97481942D01*
X72836880Y-97500500D01*
X72836887Y-97500500D01*
X73099113Y-97500500D01*
X73099120Y-97500500D01*
X73359116Y-97466270D01*
X73612419Y-97398398D01*
X73854697Y-97298043D01*
X73899609Y-97272112D01*
X73961609Y-97255500D01*
X74375990Y-97255500D01*
X74376000Y-97255500D01*
X74483456Y-97243947D01*
X74534967Y-97232741D01*
X74569197Y-97221347D01*
X74637497Y-97198616D01*
X74637501Y-97198613D01*
X74637504Y-97198613D01*
X74758543Y-97120825D01*
X74811347Y-97075070D01*
X74905567Y-96966336D01*
X74965338Y-96835459D01*
X74971847Y-96813293D01*
X74975059Y-96802356D01*
X74985023Y-96768421D01*
X74985024Y-96768416D01*
X75005500Y-96626000D01*
X75005500Y-93924500D01*
X75025185Y-93857461D01*
X75077989Y-93811706D01*
X75129500Y-93800500D01*
X88608228Y-93800500D01*
X88675267Y-93820185D01*
X88721022Y-93872989D01*
X88730966Y-93942147D01*
X88701941Y-94005703D01*
X88655681Y-94039061D01*
X88608767Y-94058493D01*
X88608762Y-94058495D01*
X88327162Y-94209014D01*
X88327144Y-94209025D01*
X88061651Y-94386422D01*
X88061650Y-94386423D01*
X87884971Y-94531418D01*
X89059301Y-95705748D01*
X88957670Y-95779588D01*
X88779588Y-95957670D01*
X88705748Y-96059301D01*
X87531418Y-94884971D01*
X87386423Y-95061650D01*
X87386422Y-95061651D01*
X87209025Y-95327144D01*
X87209014Y-95327162D01*
X87058495Y-95608762D01*
X87058493Y-95608767D01*
X86936292Y-95903786D01*
X86843594Y-96209371D01*
X86843591Y-96209382D01*
X86781301Y-96522544D01*
X86781298Y-96522561D01*
X86750000Y-96840341D01*
X86750000Y-97159658D01*
X86781298Y-97477438D01*
X86781301Y-97477455D01*
X86843591Y-97790617D01*
X86843594Y-97790628D01*
X86936292Y-98096213D01*
X87058493Y-98391232D01*
X87058495Y-98391237D01*
X87209014Y-98672837D01*
X87209025Y-98672855D01*
X87386422Y-98938348D01*
X87386432Y-98938362D01*
X87531418Y-99115027D01*
X88705747Y-97940697D01*
X88779588Y-98042330D01*
X88957670Y-98220412D01*
X89059301Y-98294251D01*
X87884971Y-99468580D01*
X87884972Y-99468581D01*
X88061637Y-99613567D01*
X88061651Y-99613577D01*
X88327144Y-99790974D01*
X88327162Y-99790985D01*
X88608762Y-99941504D01*
X88608767Y-99941506D01*
X88903786Y-100063707D01*
X89209371Y-100156405D01*
X89209382Y-100156408D01*
X89522544Y-100218698D01*
X89522561Y-100218701D01*
X89840341Y-100250000D01*
X90159659Y-100250000D01*
X90477438Y-100218701D01*
X90477455Y-100218698D01*
X90785803Y-100157365D01*
X90855394Y-100163592D01*
X90910572Y-100206455D01*
X90933816Y-100272345D01*
X90917748Y-100340342D01*
X90897677Y-100366661D01*
X90882684Y-100381654D01*
X90790643Y-100530875D01*
X90790641Y-100530880D01*
X90735494Y-100697302D01*
X90735493Y-100697309D01*
X90725000Y-100800013D01*
X90725000Y-100950000D01*
X91875000Y-100950000D01*
X91875000Y-100100000D01*
X91589746Y-100100000D01*
X91522707Y-100080315D01*
X91476952Y-100027511D01*
X91467008Y-99958353D01*
X91496033Y-99894797D01*
X91531293Y-99866642D01*
X91672837Y-99790985D01*
X91672855Y-99790974D01*
X91938348Y-99613577D01*
X91938361Y-99613567D01*
X92115026Y-99468581D01*
X92115027Y-99468580D01*
X90940698Y-98294251D01*
X91042330Y-98220412D01*
X91220412Y-98042330D01*
X91294251Y-97940698D01*
X92468580Y-99115027D01*
X92468581Y-99115026D01*
X92613567Y-98938361D01*
X92613577Y-98938348D01*
X92790974Y-98672855D01*
X92790985Y-98672837D01*
X92941504Y-98391237D01*
X92941509Y-98391225D01*
X92960939Y-98344319D01*
X93004779Y-98289915D01*
X93071073Y-98267850D01*
X93138773Y-98285129D01*
X93186384Y-98336266D01*
X93199500Y-98391771D01*
X93199500Y-100028841D01*
X93179815Y-100095880D01*
X93127011Y-100141635D01*
X93057853Y-100151579D01*
X93036496Y-100146547D01*
X92927697Y-100110494D01*
X92927690Y-100110493D01*
X92824986Y-100100000D01*
X92375000Y-100100000D01*
X92375000Y-102299999D01*
X92824972Y-102299999D01*
X92824986Y-102299998D01*
X92927697Y-102289505D01*
X93036496Y-102253453D01*
X93106324Y-102251051D01*
X93166366Y-102286783D01*
X93197559Y-102349303D01*
X93199500Y-102371159D01*
X93199500Y-105628841D01*
X93179815Y-105695880D01*
X93127011Y-105741635D01*
X93057853Y-105751579D01*
X93036496Y-105746547D01*
X92927697Y-105710494D01*
X92927690Y-105710493D01*
X92824986Y-105700000D01*
X92375000Y-105700000D01*
X92375000Y-110174999D01*
X92824972Y-110174999D01*
X92824986Y-110174998D01*
X92927697Y-110164505D01*
X93036496Y-110128453D01*
X93106324Y-110126051D01*
X93166366Y-110161783D01*
X93197559Y-110224303D01*
X93199500Y-110246159D01*
X93199500Y-113503841D01*
X93179815Y-113570880D01*
X93127011Y-113616635D01*
X93057853Y-113626579D01*
X93036496Y-113621547D01*
X92927697Y-113585494D01*
X92927690Y-113585493D01*
X92824986Y-113575000D01*
X92375000Y-113575000D01*
X92375000Y-118049999D01*
X92824972Y-118049999D01*
X92824986Y-118049998D01*
X92927697Y-118039505D01*
X93036496Y-118003453D01*
X93106324Y-118001051D01*
X93166366Y-118036783D01*
X93197559Y-118099303D01*
X93199500Y-118121159D01*
X93199500Y-121378841D01*
X93179815Y-121445880D01*
X93127011Y-121491635D01*
X93057853Y-121501579D01*
X93036496Y-121496547D01*
X92927697Y-121460494D01*
X92927690Y-121460493D01*
X92824986Y-121450000D01*
X92375000Y-121450000D01*
X92375000Y-123649999D01*
X92824972Y-123649999D01*
X92824986Y-123649998D01*
X92927697Y-123639505D01*
X93036496Y-123603453D01*
X93106324Y-123601051D01*
X93166366Y-123636783D01*
X93197559Y-123699303D01*
X93199500Y-123721159D01*
X93199500Y-125608228D01*
X93179815Y-125675267D01*
X93127011Y-125721022D01*
X93057853Y-125730966D01*
X92994297Y-125701941D01*
X92960939Y-125655681D01*
X92941506Y-125608767D01*
X92941504Y-125608762D01*
X92790985Y-125327162D01*
X92790974Y-125327144D01*
X92613577Y-125061651D01*
X92613567Y-125061637D01*
X92468581Y-124884972D01*
X92468580Y-124884971D01*
X91294251Y-126059301D01*
X91220412Y-125957670D01*
X91042330Y-125779588D01*
X90940698Y-125705748D01*
X92115027Y-124531418D01*
X91938362Y-124386432D01*
X91938348Y-124386422D01*
X91672855Y-124209025D01*
X91672837Y-124209014D01*
X91391237Y-124058495D01*
X91391232Y-124058493D01*
X91096213Y-123936292D01*
X90790628Y-123843594D01*
X90790617Y-123843591D01*
X90477455Y-123781301D01*
X90477438Y-123781298D01*
X90159659Y-123750000D01*
X89840341Y-123750000D01*
X89522561Y-123781298D01*
X89522544Y-123781301D01*
X89209382Y-123843591D01*
X89209371Y-123843594D01*
X88903786Y-123936292D01*
X88608767Y-124058493D01*
X88608762Y-124058495D01*
X88327162Y-124209014D01*
X88327144Y-124209025D01*
X88061651Y-124386422D01*
X88061650Y-124386423D01*
X87884971Y-124531418D01*
X89059301Y-125705748D01*
X88957670Y-125779588D01*
X88779588Y-125957670D01*
X88705748Y-126059301D01*
X87531418Y-124884971D01*
X87531416Y-124884972D01*
X87443013Y-124992692D01*
X87385267Y-125032026D01*
X87315423Y-125033897D01*
X87255654Y-124997709D01*
X87230978Y-124957359D01*
X87193798Y-124857673D01*
X87193793Y-124857664D01*
X87107547Y-124742455D01*
X87107544Y-124742452D01*
X87023450Y-124679499D01*
X86992335Y-124656206D01*
X86992328Y-124656202D01*
X86857482Y-124605908D01*
X86857483Y-124605908D01*
X86797883Y-124599501D01*
X86797881Y-124599500D01*
X86797873Y-124599500D01*
X86797865Y-124599500D01*
X86766977Y-124599500D01*
X86699938Y-124579815D01*
X86654183Y-124527011D01*
X86651027Y-124519451D01*
X86645386Y-124504570D01*
X86644091Y-124492517D01*
X86593796Y-124357669D01*
X86585506Y-124346595D01*
X86579307Y-124330240D01*
X86577915Y-124312141D01*
X86571573Y-124295137D01*
X86575293Y-124278031D01*
X86573952Y-124260575D01*
X86582566Y-124244597D01*
X86586424Y-124226864D01*
X86606813Y-124199626D01*
X86607111Y-124199075D01*
X86607307Y-124198966D01*
X86607576Y-124198608D01*
X86665389Y-124140795D01*
X86875368Y-123930817D01*
X86883677Y-123916425D01*
X86951792Y-123798447D01*
X86979650Y-123694480D01*
X86991352Y-123650807D01*
X86991352Y-123497957D01*
X86991352Y-123077116D01*
X86989464Y-123070071D01*
X86966611Y-122984782D01*
X86966611Y-122984781D01*
X86957288Y-122949986D01*
X90725001Y-122949986D01*
X90735494Y-123052697D01*
X90790641Y-123219119D01*
X90790643Y-123219124D01*
X90882684Y-123368345D01*
X91006654Y-123492315D01*
X91155875Y-123584356D01*
X91155880Y-123584358D01*
X91322302Y-123639505D01*
X91322309Y-123639506D01*
X91425019Y-123649999D01*
X91874999Y-123649999D01*
X91875000Y-123649998D01*
X91875000Y-122800000D01*
X90725001Y-122800000D01*
X90725001Y-122949986D01*
X86957288Y-122949986D01*
X86951793Y-122929477D01*
X86951792Y-122929476D01*
X86951792Y-122929475D01*
X86875368Y-122797105D01*
X86767287Y-122689024D01*
X86442408Y-122364145D01*
X86435823Y-122352086D01*
X86425481Y-122343045D01*
X86419408Y-122322025D01*
X86408923Y-122302822D01*
X86409495Y-122287709D01*
X86406090Y-122275920D01*
X86410837Y-122252325D01*
X86411266Y-122241008D01*
X86413084Y-122234912D01*
X86444737Y-122158497D01*
X86446425Y-122150013D01*
X90725000Y-122150013D01*
X90725000Y-122300000D01*
X91875000Y-122300000D01*
X91875000Y-121450000D01*
X91425028Y-121450000D01*
X91425012Y-121450001D01*
X91322302Y-121460494D01*
X91155880Y-121515641D01*
X91155875Y-121515643D01*
X91006654Y-121607684D01*
X90882684Y-121731654D01*
X90790643Y-121880875D01*
X90790641Y-121880880D01*
X90735494Y-122047302D01*
X90735493Y-122047309D01*
X90725000Y-122150013D01*
X86446425Y-122150013D01*
X86462432Y-122069536D01*
X86464092Y-122063975D01*
X86480073Y-122039346D01*
X86493682Y-122013329D01*
X86498873Y-122010372D01*
X86502124Y-122005363D01*
X86528884Y-121993283D01*
X86554398Y-121978755D01*
X86561344Y-121978630D01*
X86565806Y-121976617D01*
X86577450Y-121978343D01*
X86607107Y-121977814D01*
X86721155Y-122000500D01*
X86721158Y-122000500D01*
X86878844Y-122000500D01*
X86878845Y-122000499D01*
X87033497Y-121969737D01*
X87139149Y-121925974D01*
X87208616Y-121918506D01*
X87249721Y-121933804D01*
X87364602Y-122001744D01*
X87404477Y-122013329D01*
X87522426Y-122047597D01*
X87522429Y-122047597D01*
X87522431Y-122047598D01*
X87559306Y-122050500D01*
X87559314Y-122050500D01*
X88940686Y-122050500D01*
X88940694Y-122050500D01*
X88977569Y-122047598D01*
X88977571Y-122047597D01*
X88977573Y-122047597D01*
X89045757Y-122027788D01*
X89098054Y-122012593D01*
X89135398Y-122001744D01*
X89276865Y-121918081D01*
X89393081Y-121801865D01*
X89476744Y-121660398D01*
X89520355Y-121510289D01*
X89522597Y-121502573D01*
X89522598Y-121502567D01*
X89525500Y-121465694D01*
X89525500Y-121034306D01*
X89522598Y-120997431D01*
X89518367Y-120982869D01*
X89476745Y-120839606D01*
X89476744Y-120839602D01*
X89469663Y-120827628D01*
X89461084Y-120813122D01*
X89443900Y-120745399D01*
X89461084Y-120686878D01*
X89476742Y-120660401D01*
X89476744Y-120660398D01*
X89522598Y-120502569D01*
X89525500Y-120465694D01*
X89525500Y-120034306D01*
X89522598Y-119997431D01*
X89522410Y-119996785D01*
X89476745Y-119839606D01*
X89476744Y-119839602D01*
X89461084Y-119813122D01*
X89443900Y-119745399D01*
X89461084Y-119686878D01*
X89476742Y-119660401D01*
X89476744Y-119660398D01*
X89518255Y-119517517D01*
X89522597Y-119502573D01*
X89522598Y-119502567D01*
X89524005Y-119484690D01*
X89525500Y-119465694D01*
X89525500Y-119346813D01*
X89534144Y-119317372D01*
X89540668Y-119287386D01*
X89544422Y-119282370D01*
X89545185Y-119279774D01*
X89561819Y-119259132D01*
X89734132Y-119086819D01*
X89795455Y-119053334D01*
X89821813Y-119050500D01*
X89828844Y-119050500D01*
X89828845Y-119050499D01*
X89983497Y-119019737D01*
X90129179Y-118959394D01*
X90260289Y-118871789D01*
X90371789Y-118760289D01*
X90459394Y-118629179D01*
X90519737Y-118483497D01*
X90550500Y-118328842D01*
X90550500Y-118171158D01*
X90550500Y-118171155D01*
X90550499Y-118171153D01*
X90541517Y-118126000D01*
X90519737Y-118016503D01*
X90512901Y-118000000D01*
X90459397Y-117870827D01*
X90459390Y-117870814D01*
X90371789Y-117739711D01*
X90371786Y-117739707D01*
X90260292Y-117628213D01*
X90260288Y-117628210D01*
X90129185Y-117540609D01*
X90129172Y-117540602D01*
X89983501Y-117480264D01*
X89983489Y-117480261D01*
X89828845Y-117449500D01*
X89828842Y-117449500D01*
X89671158Y-117449500D01*
X89671155Y-117449500D01*
X89516510Y-117480261D01*
X89516498Y-117480264D01*
X89370828Y-117540602D01*
X89370814Y-117540610D01*
X89358303Y-117548969D01*
X89291625Y-117569842D01*
X89226298Y-117552594D01*
X89135196Y-117498717D01*
X89135193Y-117498716D01*
X88977495Y-117452900D01*
X88977489Y-117452899D01*
X88940649Y-117450000D01*
X88500000Y-117450000D01*
X88500000Y-118126000D01*
X88480315Y-118193039D01*
X88427511Y-118238794D01*
X88376000Y-118250000D01*
X88250000Y-118250000D01*
X88250000Y-118325500D01*
X88230315Y-118392539D01*
X88177511Y-118438294D01*
X88126000Y-118449500D01*
X87559298Y-118449500D01*
X87522432Y-118452401D01*
X87522426Y-118452402D01*
X87375545Y-118495076D01*
X87340950Y-118500000D01*
X86977705Y-118500000D01*
X86977704Y-118500001D01*
X86977899Y-118502488D01*
X86977900Y-118502494D01*
X87023716Y-118660193D01*
X87023718Y-118660198D01*
X87039207Y-118686388D01*
X87040938Y-118693211D01*
X87045522Y-118698554D01*
X87049417Y-118726631D01*
X87056390Y-118754112D01*
X87054388Y-118762461D01*
X87055124Y-118767760D01*
X87048941Y-118785190D01*
X87045014Y-118801575D01*
X87042387Y-118807252D01*
X87023256Y-118839602D01*
X87016225Y-118863800D01*
X87012295Y-118872296D01*
X86995197Y-118891832D01*
X86981223Y-118913713D01*
X86972560Y-118917698D01*
X86966281Y-118924874D01*
X86941335Y-118932065D01*
X86917750Y-118942917D01*
X86904824Y-118942590D01*
X86899145Y-118944228D01*
X86892640Y-118942283D01*
X86885004Y-118942090D01*
X86884905Y-118943097D01*
X86878843Y-118942500D01*
X86878842Y-118942500D01*
X86721938Y-118942500D01*
X86654899Y-118922815D01*
X86613788Y-118875371D01*
X86612262Y-118876187D01*
X86609392Y-118870817D01*
X86521789Y-118739711D01*
X86521786Y-118739707D01*
X86410292Y-118628213D01*
X86410288Y-118628210D01*
X86279185Y-118540609D01*
X86279172Y-118540602D01*
X86133501Y-118480264D01*
X86133489Y-118480261D01*
X85978845Y-118449500D01*
X85978842Y-118449500D01*
X85821158Y-118449500D01*
X85821155Y-118449500D01*
X85666510Y-118480261D01*
X85666498Y-118480264D01*
X85520827Y-118540602D01*
X85520814Y-118540609D01*
X85389711Y-118628210D01*
X85389707Y-118628213D01*
X85384740Y-118633181D01*
X85323417Y-118666666D01*
X85297059Y-118669500D01*
X84466813Y-118669500D01*
X84399774Y-118649815D01*
X84379132Y-118633181D01*
X83745949Y-117999998D01*
X86977704Y-117999998D01*
X86977705Y-118000000D01*
X88000000Y-118000000D01*
X88000000Y-117450000D01*
X87559350Y-117450000D01*
X87522510Y-117452899D01*
X87522504Y-117452900D01*
X87364806Y-117498716D01*
X87364803Y-117498717D01*
X87223447Y-117582314D01*
X87223438Y-117582321D01*
X87107321Y-117698438D01*
X87107314Y-117698447D01*
X87023718Y-117839801D01*
X86977899Y-117997513D01*
X86977704Y-117999998D01*
X83745949Y-117999998D01*
X83095937Y-117349986D01*
X90725001Y-117349986D01*
X90735494Y-117452697D01*
X90790641Y-117619119D01*
X90790643Y-117619124D01*
X90882684Y-117768345D01*
X91006654Y-117892315D01*
X91155875Y-117984356D01*
X91155880Y-117984358D01*
X91322302Y-118039505D01*
X91322309Y-118039506D01*
X91425019Y-118049999D01*
X91874999Y-118049999D01*
X91875000Y-118049998D01*
X91875000Y-117200000D01*
X90725001Y-117200000D01*
X90725001Y-117349986D01*
X83095937Y-117349986D01*
X82518132Y-116772181D01*
X82484647Y-116710858D01*
X82489631Y-116641166D01*
X82531503Y-116585233D01*
X82596967Y-116560816D01*
X82605813Y-116560500D01*
X82974682Y-116560500D01*
X82974690Y-116560500D01*
X83010993Y-116557643D01*
X83010995Y-116557642D01*
X83010997Y-116557642D01*
X83108979Y-116529175D01*
X83166395Y-116512494D01*
X83187369Y-116500089D01*
X83255088Y-116482906D01*
X83313613Y-116500090D01*
X83333803Y-116512031D01*
X83480000Y-116554504D01*
X83480000Y-116554503D01*
X83980000Y-116554503D01*
X83995455Y-116550013D01*
X90725000Y-116550013D01*
X90725000Y-116700000D01*
X91875000Y-116700000D01*
X91875000Y-114925000D01*
X90725001Y-114925000D01*
X90725001Y-115074986D01*
X90735494Y-115177697D01*
X90790641Y-115344119D01*
X90790643Y-115344124D01*
X90882684Y-115493345D01*
X91006654Y-115617315D01*
X91151992Y-115706961D01*
X91198717Y-115758909D01*
X91209938Y-115827872D01*
X91182095Y-115891954D01*
X91151992Y-115918039D01*
X91006654Y-116007684D01*
X90882684Y-116131654D01*
X90790643Y-116280875D01*
X90790641Y-116280880D01*
X90735494Y-116447302D01*
X90735493Y-116447309D01*
X90725000Y-116550013D01*
X83995455Y-116550013D01*
X84126195Y-116512031D01*
X84247771Y-116440132D01*
X84265374Y-116429721D01*
X84265383Y-116429714D01*
X84379714Y-116315383D01*
X84379721Y-116315374D01*
X84462031Y-116176195D01*
X84462033Y-116176190D01*
X84507144Y-116020918D01*
X84507145Y-116020912D01*
X84508790Y-116000000D01*
X83980000Y-116000000D01*
X83980000Y-116554503D01*
X83480000Y-116554503D01*
X83480000Y-116248352D01*
X83497267Y-116185233D01*
X83502494Y-116176395D01*
X83504811Y-116168422D01*
X83547642Y-116020997D01*
X83547643Y-116020991D01*
X83548005Y-116016393D01*
X83550500Y-115984690D01*
X83550500Y-115515310D01*
X83549295Y-115500000D01*
X83980000Y-115500000D01*
X84508790Y-115500000D01*
X84507145Y-115479089D01*
X84462031Y-115323803D01*
X84458934Y-115316646D01*
X84461406Y-115315575D01*
X84447400Y-115260429D01*
X84460964Y-115214232D01*
X84458934Y-115213354D01*
X84462030Y-115206198D01*
X84507145Y-115050910D01*
X84508790Y-115030000D01*
X83980000Y-115030000D01*
X83980000Y-115500000D01*
X83549295Y-115500000D01*
X83547643Y-115479007D01*
X83547481Y-115478450D01*
X83502495Y-115323608D01*
X83499395Y-115316443D01*
X83501923Y-115315348D01*
X83487983Y-115260393D01*
X83501474Y-115214449D01*
X83499397Y-115213551D01*
X83502489Y-115206402D01*
X83502494Y-115206395D01*
X83547643Y-115050993D01*
X83550500Y-115014690D01*
X83550500Y-114904000D01*
X83570185Y-114836961D01*
X83622989Y-114791206D01*
X83674500Y-114780000D01*
X83730000Y-114780000D01*
X83730000Y-114654000D01*
X83749685Y-114586961D01*
X83802489Y-114541206D01*
X83854000Y-114530000D01*
X84283704Y-114530000D01*
X84345704Y-114546612D01*
X84368158Y-114559577D01*
X84520886Y-114600501D01*
X84520889Y-114600501D01*
X84686596Y-114600501D01*
X84686612Y-114600500D01*
X85610040Y-114600500D01*
X85657492Y-114609939D01*
X85679235Y-114618945D01*
X85741503Y-114644737D01*
X85896153Y-114675499D01*
X85896156Y-114675500D01*
X85896158Y-114675500D01*
X86053844Y-114675500D01*
X86053845Y-114675499D01*
X86208497Y-114644737D01*
X86354179Y-114584394D01*
X86485289Y-114496789D01*
X86596789Y-114385289D01*
X86670473Y-114275013D01*
X90725000Y-114275013D01*
X90725000Y-114425000D01*
X91875000Y-114425000D01*
X91875000Y-113575000D01*
X91425028Y-113575000D01*
X91425012Y-113575001D01*
X91322302Y-113585494D01*
X91155880Y-113640641D01*
X91155875Y-113640643D01*
X91006654Y-113732684D01*
X90882684Y-113856654D01*
X90790643Y-114005875D01*
X90790641Y-114005880D01*
X90735494Y-114172302D01*
X90735493Y-114172309D01*
X90725000Y-114275013D01*
X86670473Y-114275013D01*
X86684394Y-114254179D01*
X86744737Y-114108497D01*
X86775500Y-113953842D01*
X86775500Y-113924500D01*
X86778050Y-113915814D01*
X86776762Y-113906853D01*
X86787740Y-113882812D01*
X86795185Y-113857461D01*
X86802025Y-113851533D01*
X86805787Y-113843297D01*
X86828021Y-113829007D01*
X86847989Y-113811706D01*
X86858503Y-113809418D01*
X86864565Y-113805523D01*
X86899500Y-113800500D01*
X86961459Y-113800500D01*
X87028498Y-113820185D01*
X87068191Y-113861379D01*
X87106917Y-113926862D01*
X87106923Y-113926870D01*
X87223129Y-114043076D01*
X87223133Y-114043079D01*
X87223135Y-114043081D01*
X87364602Y-114126744D01*
X87400867Y-114137280D01*
X87522426Y-114172597D01*
X87522429Y-114172597D01*
X87522431Y-114172598D01*
X87559306Y-114175500D01*
X87559314Y-114175500D01*
X88940686Y-114175500D01*
X88940694Y-114175500D01*
X88977569Y-114172598D01*
X88977571Y-114172597D01*
X88977573Y-114172597D01*
X89045757Y-114152788D01*
X89099133Y-114137280D01*
X89135398Y-114126744D01*
X89276865Y-114043081D01*
X89393081Y-113926865D01*
X89476744Y-113785398D01*
X89522598Y-113627569D01*
X89525500Y-113590694D01*
X89525500Y-113159306D01*
X89522598Y-113122431D01*
X89513913Y-113092539D01*
X89476745Y-112964606D01*
X89476744Y-112964602D01*
X89461084Y-112938122D01*
X89443900Y-112870399D01*
X89461084Y-112811878D01*
X89476742Y-112785401D01*
X89476744Y-112785398D01*
X89522598Y-112627569D01*
X89525500Y-112590694D01*
X89525500Y-112159306D01*
X89522598Y-112122431D01*
X89520334Y-112114639D01*
X89476744Y-111964602D01*
X89473850Y-111957914D01*
X89465288Y-111888571D01*
X89495575Y-111825607D01*
X89499930Y-111821020D01*
X89589516Y-111731435D01*
X89734132Y-111586819D01*
X89795455Y-111553334D01*
X89821813Y-111550500D01*
X89828844Y-111550500D01*
X89828845Y-111550499D01*
X89983497Y-111519737D01*
X90129179Y-111459394D01*
X90260289Y-111371789D01*
X90371789Y-111260289D01*
X90459394Y-111129179D01*
X90462311Y-111122138D01*
X90519735Y-110983501D01*
X90519737Y-110983497D01*
X90550500Y-110828842D01*
X90550500Y-110671158D01*
X90550500Y-110671155D01*
X90550499Y-110671153D01*
X90543760Y-110637273D01*
X90519737Y-110516503D01*
X90519172Y-110515139D01*
X90459397Y-110370827D01*
X90459390Y-110370814D01*
X90371789Y-110239711D01*
X90371786Y-110239707D01*
X90260292Y-110128213D01*
X90260288Y-110128210D01*
X90129185Y-110040609D01*
X90129172Y-110040602D01*
X89983501Y-109980264D01*
X89983489Y-109980261D01*
X89828845Y-109949500D01*
X89828842Y-109949500D01*
X89671158Y-109949500D01*
X89671153Y-109949500D01*
X89574885Y-109968649D01*
X89505293Y-109962422D01*
X89450116Y-109919559D01*
X89443962Y-109910152D01*
X89392687Y-109823450D01*
X89392678Y-109823438D01*
X89276561Y-109707321D01*
X89276552Y-109707314D01*
X89135196Y-109623717D01*
X89135193Y-109623716D01*
X88977495Y-109577900D01*
X88977489Y-109577899D01*
X88940649Y-109575000D01*
X88500000Y-109575000D01*
X88500000Y-110251000D01*
X88480315Y-110318039D01*
X88427511Y-110363794D01*
X88376000Y-110375000D01*
X88124000Y-110375000D01*
X88056961Y-110355315D01*
X88011206Y-110302511D01*
X88000000Y-110251000D01*
X88000000Y-109575000D01*
X87559350Y-109575000D01*
X87522510Y-109577899D01*
X87522504Y-109577900D01*
X87364806Y-109623716D01*
X87364803Y-109623717D01*
X87223447Y-109707314D01*
X87223438Y-109707321D01*
X87107321Y-109823438D01*
X87107314Y-109823447D01*
X87081232Y-109867551D01*
X87030163Y-109915235D01*
X86961421Y-109927738D01*
X86896832Y-109901093D01*
X86856902Y-109843757D01*
X86850500Y-109804430D01*
X86850500Y-109474986D01*
X90725001Y-109474986D01*
X90735494Y-109577697D01*
X90790641Y-109744119D01*
X90790643Y-109744124D01*
X90882684Y-109893345D01*
X91006654Y-110017315D01*
X91155875Y-110109356D01*
X91155880Y-110109358D01*
X91322302Y-110164505D01*
X91322309Y-110164506D01*
X91425019Y-110174999D01*
X91874999Y-110174999D01*
X91875000Y-110174998D01*
X91875000Y-109325000D01*
X90725001Y-109325000D01*
X90725001Y-109474986D01*
X86850500Y-109474986D01*
X86850500Y-109380289D01*
X86858094Y-109354425D01*
X86862170Y-109327772D01*
X86868624Y-109318563D01*
X86870185Y-109313250D01*
X86881516Y-109298253D01*
X86884078Y-109295348D01*
X86946990Y-109232437D01*
X87034595Y-109101327D01*
X87094938Y-108955645D01*
X87125701Y-108800990D01*
X87125701Y-108675013D01*
X90725000Y-108675013D01*
X90725000Y-108825000D01*
X91875000Y-108825000D01*
X91875000Y-107050000D01*
X90725001Y-107050000D01*
X90725001Y-107199986D01*
X90735494Y-107302697D01*
X90790641Y-107469119D01*
X90790643Y-107469124D01*
X90882684Y-107618345D01*
X91006654Y-107742315D01*
X91151992Y-107831961D01*
X91198717Y-107883909D01*
X91209938Y-107952872D01*
X91182095Y-108016954D01*
X91151992Y-108043039D01*
X91006654Y-108132684D01*
X90882684Y-108256654D01*
X90790643Y-108405875D01*
X90790641Y-108405880D01*
X90735494Y-108572302D01*
X90735493Y-108572309D01*
X90725000Y-108675013D01*
X87125701Y-108675013D01*
X87125701Y-108643306D01*
X87125701Y-108643303D01*
X87125700Y-108643301D01*
X87117425Y-108601699D01*
X87094938Y-108488651D01*
X87078860Y-108449834D01*
X87034598Y-108342975D01*
X87034591Y-108342962D01*
X86946990Y-108211859D01*
X86946987Y-108211855D01*
X86835493Y-108100361D01*
X86835489Y-108100358D01*
X86704386Y-108012757D01*
X86704373Y-108012750D01*
X86558702Y-107952412D01*
X86558690Y-107952409D01*
X86404046Y-107921648D01*
X86404043Y-107921648D01*
X86246359Y-107921648D01*
X86246356Y-107921648D01*
X86091711Y-107952409D01*
X86091699Y-107952412D01*
X85946028Y-108012750D01*
X85946015Y-108012757D01*
X85814915Y-108100356D01*
X85751686Y-108163584D01*
X85690362Y-108197068D01*
X85659933Y-108198835D01*
X85659933Y-108199500D01*
X85496155Y-108199500D01*
X85341510Y-108230261D01*
X85341498Y-108230264D01*
X85195827Y-108290602D01*
X85195814Y-108290609D01*
X85064711Y-108378210D01*
X85064707Y-108378213D01*
X84953213Y-108489707D01*
X84953210Y-108489711D01*
X84865609Y-108620814D01*
X84865602Y-108620827D01*
X84805264Y-108766498D01*
X84805261Y-108766510D01*
X84774500Y-108921153D01*
X84774500Y-109078846D01*
X84805261Y-109233489D01*
X84805264Y-109233501D01*
X84865602Y-109379172D01*
X84865608Y-109379183D01*
X84871545Y-109388068D01*
X84892422Y-109454745D01*
X84873937Y-109522125D01*
X84856123Y-109544639D01*
X84624217Y-109776546D01*
X84624214Y-109776548D01*
X84624215Y-109776549D01*
X84519477Y-109881287D01*
X84475602Y-109957283D01*
X84475602Y-109957284D01*
X84440423Y-110018214D01*
X84438668Y-110024764D01*
X84399499Y-110170943D01*
X84399499Y-110170945D01*
X84399499Y-110339046D01*
X84399500Y-110339059D01*
X84399500Y-110500901D01*
X84379815Y-110567940D01*
X84327011Y-110613695D01*
X84257853Y-110623639D01*
X84194297Y-110594614D01*
X84187819Y-110588582D01*
X84114397Y-110515160D01*
X84114374Y-110515139D01*
X83369522Y-109770287D01*
X83336037Y-109708964D01*
X83341021Y-109639272D01*
X83382893Y-109583339D01*
X83447481Y-109558988D01*
X83470909Y-109557145D01*
X83626196Y-109512030D01*
X83765374Y-109429721D01*
X83765383Y-109429714D01*
X83879714Y-109315383D01*
X83879721Y-109315374D01*
X83962031Y-109176195D01*
X83962033Y-109176190D01*
X84007144Y-109020918D01*
X84007145Y-109020912D01*
X84008790Y-109000000D01*
X83354000Y-109000000D01*
X83286961Y-108980315D01*
X83241206Y-108927511D01*
X83230000Y-108876000D01*
X83230000Y-108750000D01*
X83174500Y-108750000D01*
X83107461Y-108730315D01*
X83061706Y-108677511D01*
X83050500Y-108626000D01*
X83050500Y-108515317D01*
X83050499Y-108515302D01*
X83050104Y-108510288D01*
X83049295Y-108500000D01*
X83480000Y-108500000D01*
X84008790Y-108500000D01*
X84007145Y-108479089D01*
X83962031Y-108323804D01*
X83946843Y-108298123D01*
X83929659Y-108230400D01*
X83946843Y-108171877D01*
X83962031Y-108146196D01*
X84007145Y-107990910D01*
X84008790Y-107970000D01*
X83480000Y-107970000D01*
X83480000Y-108500000D01*
X83049295Y-108500000D01*
X83047643Y-108479007D01*
X83039167Y-108449834D01*
X83002495Y-108323608D01*
X83002492Y-108323600D01*
X82997266Y-108314763D01*
X82992916Y-108298862D01*
X82985023Y-108286580D01*
X82980000Y-108251645D01*
X82980000Y-108218352D01*
X82997267Y-108155233D01*
X83002494Y-108146395D01*
X83006478Y-108132684D01*
X83047642Y-107990997D01*
X83047643Y-107990991D01*
X83050500Y-107954690D01*
X83050500Y-107844000D01*
X83070185Y-107776961D01*
X83122989Y-107731206D01*
X83174500Y-107720000D01*
X83230000Y-107720000D01*
X83230000Y-107674500D01*
X83249685Y-107607461D01*
X83302489Y-107561706D01*
X83354000Y-107550500D01*
X83478844Y-107550500D01*
X83478845Y-107550499D01*
X83555152Y-107535320D01*
X83633488Y-107519739D01*
X83633490Y-107519738D01*
X83633497Y-107519737D01*
X83730786Y-107479439D01*
X83778238Y-107470000D01*
X84008790Y-107470000D01*
X84007145Y-107449086D01*
X83988398Y-107384560D01*
X83988597Y-107314691D01*
X84018099Y-107265133D01*
X84017928Y-107264993D01*
X84018856Y-107263861D01*
X84019798Y-107262279D01*
X84021789Y-107260289D01*
X84109394Y-107129179D01*
X84169737Y-106983497D01*
X84200500Y-106828842D01*
X84200500Y-106671158D01*
X84200500Y-106671155D01*
X84200499Y-106671153D01*
X84199417Y-106665713D01*
X84169737Y-106516503D01*
X84149334Y-106467246D01*
X84121486Y-106400013D01*
X90725000Y-106400013D01*
X90725000Y-106550000D01*
X91875000Y-106550000D01*
X91875000Y-105700000D01*
X91425028Y-105700000D01*
X91425012Y-105700001D01*
X91322302Y-105710494D01*
X91155880Y-105765641D01*
X91155875Y-105765643D01*
X91006654Y-105857684D01*
X90882684Y-105981654D01*
X90790643Y-106130875D01*
X90790641Y-106130880D01*
X90735494Y-106297302D01*
X90735493Y-106297309D01*
X90725000Y-106400013D01*
X84121486Y-106400013D01*
X84109397Y-106370827D01*
X84109390Y-106370814D01*
X84021789Y-106239711D01*
X84021786Y-106239707D01*
X83910292Y-106128213D01*
X83910288Y-106128210D01*
X83779185Y-106040609D01*
X83779172Y-106040602D01*
X83633501Y-105980264D01*
X83633489Y-105980261D01*
X83478845Y-105949500D01*
X83478842Y-105949500D01*
X83321158Y-105949500D01*
X83321155Y-105949500D01*
X83166511Y-105980260D01*
X83166505Y-105980262D01*
X83100675Y-106007529D01*
X83031205Y-106014996D01*
X82990106Y-105999700D01*
X82986395Y-105997506D01*
X82986393Y-105997505D01*
X82986391Y-105997504D01*
X82830997Y-105952357D01*
X82830991Y-105952356D01*
X82794697Y-105949500D01*
X82792262Y-105949405D01*
X82726046Y-105927106D01*
X82682397Y-105872548D01*
X82675174Y-105803053D01*
X82706669Y-105740684D01*
X82766884Y-105705244D01*
X82797125Y-105701500D01*
X86869463Y-105701500D01*
X86936502Y-105721185D01*
X86982257Y-105773989D01*
X86988539Y-105790905D01*
X87023253Y-105910393D01*
X87023255Y-105910396D01*
X87106917Y-106051862D01*
X87106923Y-106051870D01*
X87223129Y-106168076D01*
X87223133Y-106168079D01*
X87223135Y-106168081D01*
X87364602Y-106251744D01*
X87406224Y-106263836D01*
X87522426Y-106297597D01*
X87522429Y-106297597D01*
X87522431Y-106297598D01*
X87559306Y-106300500D01*
X87559314Y-106300500D01*
X88940686Y-106300500D01*
X88940694Y-106300500D01*
X88977569Y-106297598D01*
X88977571Y-106297597D01*
X88977573Y-106297597D01*
X89045757Y-106277788D01*
X89098054Y-106262593D01*
X89135398Y-106251744D01*
X89276865Y-106168081D01*
X89393081Y-106051865D01*
X89476744Y-105910398D01*
X89522598Y-105752569D01*
X89525500Y-105715694D01*
X89525500Y-105284306D01*
X89522598Y-105247431D01*
X89500970Y-105172989D01*
X89476745Y-105089606D01*
X89476744Y-105089602D01*
X89461084Y-105063122D01*
X89443900Y-104995399D01*
X89461084Y-104936878D01*
X89476742Y-104910401D01*
X89476744Y-104910398D01*
X89520355Y-104760289D01*
X89522597Y-104752573D01*
X89522598Y-104752567D01*
X89525499Y-104715701D01*
X89525500Y-104715694D01*
X89525500Y-104284306D01*
X89522598Y-104247431D01*
X89517610Y-104230264D01*
X89476745Y-104089606D01*
X89476744Y-104089602D01*
X89461084Y-104063122D01*
X89443900Y-103995399D01*
X89461084Y-103936878D01*
X89476742Y-103910401D01*
X89476744Y-103910398D01*
X89522598Y-103752569D01*
X89525500Y-103715694D01*
X89525500Y-103284306D01*
X89522598Y-103247431D01*
X89514598Y-103219896D01*
X89476745Y-103089606D01*
X89476745Y-103089605D01*
X89476744Y-103089604D01*
X89476744Y-103089602D01*
X89460791Y-103062628D01*
X89443611Y-102994905D01*
X89460794Y-102936386D01*
X89476281Y-102910199D01*
X89522100Y-102752486D01*
X89522295Y-102750001D01*
X89522295Y-102750000D01*
X89159050Y-102750000D01*
X89124455Y-102745076D01*
X88977573Y-102702402D01*
X88977567Y-102702401D01*
X88940701Y-102699500D01*
X88940694Y-102699500D01*
X88374000Y-102699500D01*
X88306961Y-102679815D01*
X88261206Y-102627011D01*
X88250000Y-102575500D01*
X88250000Y-102500000D01*
X88124000Y-102500000D01*
X88056961Y-102480315D01*
X88011206Y-102427511D01*
X88000000Y-102376000D01*
X88000000Y-102250000D01*
X88500000Y-102250000D01*
X89522295Y-102250000D01*
X89522295Y-102249998D01*
X89522100Y-102247513D01*
X89476281Y-102089801D01*
X89392685Y-101948447D01*
X89392678Y-101948438D01*
X89276561Y-101832321D01*
X89276552Y-101832314D01*
X89135196Y-101748717D01*
X89135193Y-101748716D01*
X88977495Y-101702900D01*
X88977489Y-101702899D01*
X88940649Y-101700000D01*
X88500000Y-101700000D01*
X88500000Y-102250000D01*
X88000000Y-102250000D01*
X88000000Y-101700000D01*
X87559350Y-101700000D01*
X87522510Y-101702899D01*
X87382951Y-101743445D01*
X87313082Y-101743245D01*
X87254412Y-101705302D01*
X87225569Y-101641664D01*
X87224673Y-101615523D01*
X87225610Y-101602406D01*
X87226313Y-101599986D01*
X90725001Y-101599986D01*
X90735494Y-101702697D01*
X90790641Y-101869119D01*
X90790643Y-101869124D01*
X90882684Y-102018345D01*
X91006654Y-102142315D01*
X91155875Y-102234356D01*
X91155880Y-102234358D01*
X91322302Y-102289505D01*
X91322309Y-102289506D01*
X91425019Y-102299999D01*
X91874999Y-102299999D01*
X91875000Y-102299998D01*
X91875000Y-101450000D01*
X90725001Y-101450000D01*
X90725001Y-101599986D01*
X87226313Y-101599986D01*
X87237643Y-101560993D01*
X87240500Y-101524690D01*
X87240500Y-101055310D01*
X87237643Y-101019007D01*
X87224237Y-100972863D01*
X87192496Y-100863610D01*
X87192494Y-100863608D01*
X87192494Y-100863605D01*
X87159678Y-100808117D01*
X87142497Y-100740398D01*
X87159678Y-100681882D01*
X87192494Y-100626395D01*
X87192553Y-100626194D01*
X87237642Y-100470997D01*
X87237643Y-100470991D01*
X87240500Y-100434690D01*
X87240500Y-99965310D01*
X87237643Y-99929007D01*
X87232742Y-99912139D01*
X87196187Y-99786317D01*
X87192494Y-99773605D01*
X87110117Y-99634313D01*
X87110115Y-99634311D01*
X87110112Y-99634307D01*
X86995691Y-99519886D01*
X86995685Y-99519882D01*
X86877371Y-99449911D01*
X86856395Y-99437506D01*
X86856394Y-99437505D01*
X86856393Y-99437505D01*
X86856390Y-99437504D01*
X86700997Y-99392357D01*
X86700991Y-99392356D01*
X86664697Y-99389500D01*
X86664690Y-99389500D01*
X86255310Y-99389500D01*
X86255302Y-99389500D01*
X86219008Y-99392356D01*
X86219002Y-99392357D01*
X86063609Y-99437504D01*
X86063604Y-99437506D01*
X86042628Y-99449911D01*
X85974903Y-99467092D01*
X85916389Y-99449911D01*
X85896191Y-99437966D01*
X85896190Y-99437965D01*
X85750001Y-99395493D01*
X85750000Y-99395494D01*
X85750000Y-99701645D01*
X85732734Y-99764763D01*
X85727507Y-99773600D01*
X85727504Y-99773608D01*
X85682357Y-99929002D01*
X85682356Y-99929008D01*
X85679500Y-99965302D01*
X85679500Y-100434697D01*
X85682356Y-100470991D01*
X85682357Y-100470997D01*
X85727503Y-100626389D01*
X85727505Y-100626393D01*
X85727506Y-100626395D01*
X85732732Y-100635233D01*
X85737082Y-100651132D01*
X85744977Y-100663417D01*
X85750000Y-100698352D01*
X85750000Y-100791645D01*
X85732734Y-100854763D01*
X85727507Y-100863600D01*
X85727504Y-100863608D01*
X85682357Y-101019002D01*
X85682356Y-101019008D01*
X85679500Y-101055302D01*
X85679500Y-101524697D01*
X85682356Y-101560991D01*
X85682357Y-101560997D01*
X85727503Y-101716389D01*
X85727505Y-101716393D01*
X85727506Y-101716395D01*
X85732732Y-101725233D01*
X85750000Y-101788352D01*
X85750000Y-102094504D01*
X85784952Y-102120747D01*
X85826743Y-102176740D01*
X85834500Y-102219908D01*
X85834500Y-102546605D01*
X85849455Y-102621789D01*
X85858537Y-102667452D01*
X85869559Y-102694060D01*
X85869559Y-102694061D01*
X85905684Y-102781277D01*
X85905691Y-102781290D01*
X85974141Y-102883731D01*
X85974143Y-102883734D01*
X86307017Y-103216607D01*
X86340502Y-103277930D01*
X86335518Y-103347621D01*
X86322439Y-103373177D01*
X86290605Y-103420820D01*
X86290604Y-103420822D01*
X86230264Y-103566498D01*
X86230261Y-103566510D01*
X86199500Y-103721153D01*
X86199500Y-103775500D01*
X86179815Y-103842539D01*
X86127011Y-103888294D01*
X86075500Y-103899500D01*
X78352845Y-103899500D01*
X78352829Y-103899499D01*
X78345233Y-103899499D01*
X78187119Y-103899499D01*
X78072573Y-103930192D01*
X78034390Y-103940423D01*
X78002113Y-103959059D01*
X78002111Y-103959060D01*
X77894524Y-104021174D01*
X77826624Y-104037645D01*
X77760597Y-104014793D01*
X77717407Y-103959871D01*
X77710766Y-103890318D01*
X77742783Y-103828215D01*
X77744777Y-103826173D01*
X79035137Y-102535812D01*
X79096458Y-102502329D01*
X79166150Y-102507313D01*
X79222083Y-102549185D01*
X79233301Y-102567200D01*
X79263777Y-102627011D01*
X79302190Y-102702402D01*
X79304951Y-102707819D01*
X79429890Y-102879786D01*
X79580213Y-103030109D01*
X79752179Y-103155048D01*
X79752181Y-103155049D01*
X79752184Y-103155051D01*
X79941588Y-103251557D01*
X80143757Y-103317246D01*
X80353713Y-103350500D01*
X80353714Y-103350500D01*
X80566286Y-103350500D01*
X80566287Y-103350500D01*
X80776243Y-103317246D01*
X80978412Y-103251557D01*
X81167816Y-103155051D01*
X81215805Y-103120185D01*
X81339786Y-103030109D01*
X81339788Y-103030106D01*
X81339792Y-103030104D01*
X81490104Y-102879792D01*
X81490106Y-102879788D01*
X81490109Y-102879786D01*
X81611974Y-102712051D01*
X81615051Y-102707816D01*
X81619514Y-102699054D01*
X81667488Y-102648259D01*
X81735308Y-102631463D01*
X81801444Y-102653999D01*
X81840484Y-102699054D01*
X81844591Y-102707115D01*
X81844951Y-102707820D01*
X81969890Y-102879786D01*
X82120213Y-103030109D01*
X82292179Y-103155048D01*
X82292181Y-103155049D01*
X82292184Y-103155051D01*
X82481588Y-103251557D01*
X82683757Y-103317246D01*
X82893713Y-103350500D01*
X82893714Y-103350500D01*
X83106286Y-103350500D01*
X83106287Y-103350500D01*
X83316243Y-103317246D01*
X83518412Y-103251557D01*
X83707816Y-103155051D01*
X83755805Y-103120185D01*
X83879786Y-103030109D01*
X83879788Y-103030106D01*
X83879792Y-103030104D01*
X84030104Y-102879792D01*
X84030106Y-102879788D01*
X84030109Y-102879786D01*
X84151974Y-102712051D01*
X84155051Y-102707816D01*
X84251557Y-102518412D01*
X84317246Y-102316243D01*
X84350500Y-102106287D01*
X84350500Y-101893713D01*
X84317246Y-101683757D01*
X84270536Y-101540000D01*
X84721210Y-101540000D01*
X84722854Y-101560910D01*
X84767968Y-101716195D01*
X84850278Y-101855374D01*
X84850285Y-101855383D01*
X84964616Y-101969714D01*
X84964625Y-101969721D01*
X85103804Y-102052031D01*
X85250000Y-102094504D01*
X85250000Y-101540000D01*
X84721210Y-101540000D01*
X84270536Y-101540000D01*
X84251557Y-101481588D01*
X84155051Y-101292184D01*
X84051386Y-101149500D01*
X84030105Y-101120209D01*
X83949895Y-101039999D01*
X84721209Y-101039999D01*
X84721210Y-101040000D01*
X85250000Y-101040000D01*
X85250000Y-100450000D01*
X84721210Y-100450000D01*
X84722854Y-100470910D01*
X84767968Y-100626194D01*
X84800900Y-100681880D01*
X84818082Y-100749604D01*
X84800900Y-100808120D01*
X84767967Y-100863806D01*
X84767966Y-100863809D01*
X84722855Y-101019081D01*
X84722854Y-101019087D01*
X84721209Y-101039999D01*
X83949895Y-101039999D01*
X83879786Y-100969890D01*
X83707820Y-100844951D01*
X83707115Y-100844591D01*
X83699054Y-100840485D01*
X83648259Y-100792512D01*
X83631463Y-100724692D01*
X83653999Y-100658556D01*
X83699054Y-100619515D01*
X83707816Y-100615051D01*
X83773038Y-100567665D01*
X83879786Y-100490109D01*
X83879788Y-100490106D01*
X83879792Y-100490104D01*
X84030104Y-100339792D01*
X84030106Y-100339788D01*
X84030109Y-100339786D01*
X84155048Y-100167820D01*
X84155047Y-100167820D01*
X84155051Y-100167816D01*
X84251557Y-99978412D01*
X84260789Y-99949999D01*
X84721209Y-99949999D01*
X84721210Y-99950000D01*
X85250000Y-99950000D01*
X85250000Y-99395494D01*
X85249998Y-99395493D01*
X85103809Y-99437965D01*
X85103806Y-99437967D01*
X84964625Y-99520278D01*
X84964616Y-99520285D01*
X84850285Y-99634616D01*
X84850278Y-99634625D01*
X84767968Y-99773804D01*
X84767966Y-99773809D01*
X84722855Y-99929081D01*
X84722854Y-99929087D01*
X84721209Y-99949999D01*
X84260789Y-99949999D01*
X84317246Y-99776243D01*
X84350500Y-99566287D01*
X84350500Y-99353713D01*
X84317246Y-99143757D01*
X84251557Y-98941588D01*
X84155051Y-98752184D01*
X84155049Y-98752181D01*
X84155048Y-98752179D01*
X84030109Y-98580213D01*
X83879786Y-98429890D01*
X83707820Y-98304951D01*
X83518414Y-98208444D01*
X83518413Y-98208443D01*
X83518412Y-98208443D01*
X83316243Y-98142754D01*
X83316241Y-98142753D01*
X83316240Y-98142753D01*
X83154957Y-98117208D01*
X83106287Y-98109500D01*
X82893713Y-98109500D01*
X82845042Y-98117208D01*
X82683760Y-98142753D01*
X82481585Y-98208444D01*
X82292179Y-98304951D01*
X82120215Y-98429889D01*
X82006285Y-98543819D01*
X81944962Y-98577303D01*
X81875270Y-98572319D01*
X81819337Y-98530447D01*
X81802422Y-98499470D01*
X81753354Y-98367913D01*
X81753350Y-98367906D01*
X81667190Y-98252812D01*
X81667187Y-98252809D01*
X81552093Y-98166649D01*
X81552086Y-98166645D01*
X81417379Y-98116403D01*
X81417372Y-98116401D01*
X81357844Y-98110000D01*
X80710000Y-98110000D01*
X80710000Y-99026988D01*
X80652993Y-98994075D01*
X80525826Y-98960000D01*
X80394174Y-98960000D01*
X80267007Y-98994075D01*
X80210000Y-99026988D01*
X80210000Y-98110000D01*
X79562155Y-98110000D01*
X79502627Y-98116401D01*
X79502620Y-98116403D01*
X79367913Y-98166645D01*
X79367906Y-98166649D01*
X79252812Y-98252809D01*
X79194047Y-98331308D01*
X79138112Y-98373179D01*
X79068421Y-98378162D01*
X79007098Y-98344676D01*
X78988032Y-98316616D01*
X78986840Y-98317322D01*
X78975603Y-98298322D01*
X78901135Y-98172402D01*
X78901133Y-98172400D01*
X78901130Y-98172396D01*
X78787603Y-98058869D01*
X78787595Y-98058863D01*
X78649393Y-97977131D01*
X78649388Y-97977129D01*
X78495208Y-97932335D01*
X78495202Y-97932334D01*
X78459181Y-97929500D01*
X78060830Y-97929500D01*
X78060808Y-97929501D01*
X78024794Y-97932335D01*
X77870611Y-97977129D01*
X77870604Y-97977132D01*
X77813119Y-98011128D01*
X77745395Y-98028309D01*
X77686881Y-98011128D01*
X77629395Y-97977132D01*
X77629388Y-97977129D01*
X77475208Y-97932335D01*
X77475202Y-97932334D01*
X77439181Y-97929500D01*
X77040830Y-97929500D01*
X77040808Y-97929501D01*
X77004794Y-97932335D01*
X76850611Y-97977129D01*
X76850606Y-97977131D01*
X76712404Y-98058863D01*
X76712396Y-98058869D01*
X76598869Y-98172396D01*
X76598863Y-98172404D01*
X76517130Y-98310608D01*
X76517129Y-98310611D01*
X76496109Y-98382963D01*
X76464714Y-98436049D01*
X75985339Y-98915425D01*
X75924016Y-98948910D01*
X75921850Y-98949361D01*
X75766508Y-98980261D01*
X75766498Y-98980264D01*
X75620827Y-99040602D01*
X75620814Y-99040609D01*
X75489125Y-99128602D01*
X75471078Y-99134252D01*
X75455169Y-99144477D01*
X75424207Y-99148928D01*
X75422447Y-99149480D01*
X75420234Y-99149500D01*
X75336670Y-99149500D01*
X75336654Y-99149499D01*
X75329058Y-99149499D01*
X75170943Y-99149499D01*
X75094579Y-99169961D01*
X75018214Y-99190423D01*
X75018209Y-99190426D01*
X74881290Y-99269475D01*
X74881282Y-99269481D01*
X74087584Y-100063181D01*
X74026261Y-100096666D01*
X73999903Y-100099500D01*
X73921898Y-100099500D01*
X73882853Y-100104188D01*
X73833438Y-100110122D01*
X73692656Y-100165639D01*
X73572077Y-100257077D01*
X73480639Y-100377656D01*
X73425120Y-100518443D01*
X73423173Y-100526148D01*
X73421068Y-100525616D01*
X73397972Y-100579490D01*
X73340093Y-100618628D01*
X73302386Y-100624500D01*
X72677850Y-100624500D01*
X72661877Y-100620114D01*
X72647126Y-100620634D01*
X72620497Y-100608751D01*
X72614525Y-100607111D01*
X72611692Y-100605428D01*
X72473914Y-100513368D01*
X72417042Y-100489811D01*
X72409392Y-100485267D01*
X72391414Y-100465939D01*
X72370862Y-100449377D01*
X72367993Y-100440759D01*
X72361806Y-100434107D01*
X72357131Y-100408125D01*
X72348796Y-100383083D01*
X72351042Y-100374281D01*
X72349434Y-100365342D01*
X72359547Y-100340959D01*
X72366075Y-100315384D01*
X72374830Y-100304112D01*
X72376203Y-100300804D01*
X72378800Y-100299002D01*
X72385033Y-100290978D01*
X72422968Y-100253044D01*
X72512003Y-100108697D01*
X72565349Y-99947708D01*
X72575500Y-99848345D01*
X72575499Y-99301656D01*
X72571652Y-99264000D01*
X72565349Y-99202292D01*
X72565348Y-99202289D01*
X72549013Y-99152993D01*
X72512003Y-99041303D01*
X72511999Y-99041297D01*
X72511998Y-99041294D01*
X72422970Y-98896959D01*
X72422967Y-98896955D01*
X72413339Y-98887327D01*
X72379854Y-98826004D01*
X72384838Y-98756312D01*
X72413345Y-98711959D01*
X72422573Y-98702731D01*
X72511542Y-98558492D01*
X72511547Y-98558481D01*
X72564855Y-98397606D01*
X72574999Y-98298322D01*
X72575000Y-98298309D01*
X72575000Y-98275000D01*
X70625001Y-98275000D01*
X70625001Y-98298322D01*
X70635144Y-98397607D01*
X70688452Y-98558481D01*
X70688457Y-98558492D01*
X70777424Y-98702728D01*
X70777427Y-98702732D01*
X70786660Y-98711965D01*
X70820145Y-98773288D01*
X70815161Y-98842980D01*
X70786663Y-98887324D01*
X70777033Y-98896953D01*
X70777029Y-98896959D01*
X70688001Y-99041294D01*
X70687996Y-99041305D01*
X70634650Y-99202292D01*
X70634592Y-99202566D01*
X70634509Y-99202718D01*
X70632521Y-99208719D01*
X70631450Y-99208364D01*
X70601310Y-99264000D01*
X70540099Y-99297688D01*
X70470391Y-99292935D01*
X70425658Y-99264291D01*
X67598049Y-96436681D01*
X67564564Y-96375358D01*
X67569548Y-96305666D01*
X67611420Y-96249733D01*
X67676884Y-96225316D01*
X67685730Y-96225000D01*
X67772828Y-96225000D01*
X67772844Y-96224999D01*
X67832372Y-96218598D01*
X67832379Y-96218596D01*
X67967086Y-96168354D01*
X67967093Y-96168350D01*
X68082187Y-96082190D01*
X68082190Y-96082187D01*
X68168350Y-95967093D01*
X68168354Y-95967086D01*
X68218596Y-95832379D01*
X68218598Y-95832372D01*
X68224999Y-95772844D01*
X68225000Y-95772827D01*
X68225000Y-95100000D01*
X66312730Y-95100000D01*
X66245691Y-95080315D01*
X66225049Y-95063681D01*
X65961818Y-94800450D01*
X65928333Y-94739127D01*
X65925499Y-94712769D01*
X65925499Y-93924500D01*
X65928049Y-93915814D01*
X65926761Y-93906853D01*
X65937739Y-93882812D01*
X65945184Y-93857461D01*
X65952024Y-93851533D01*
X65955786Y-93843297D01*
X65978020Y-93829007D01*
X65997988Y-93811706D01*
X66008502Y-93809418D01*
X66014564Y-93805523D01*
X66049499Y-93800500D01*
X66151000Y-93800500D01*
X66218039Y-93820185D01*
G37*
%TD.AperFunction*%
%TA.AperFunction,Conductor*%
G36*
X82048120Y-123763070D02*
G01*
X82063103Y-123771931D01*
X82063105Y-123771931D01*
X82063106Y-123771932D01*
X82063107Y-123771933D01*
X82220320Y-123817608D01*
X82220323Y-123817608D01*
X82220325Y-123817609D01*
X82257060Y-123820500D01*
X82498187Y-123820500D01*
X82565226Y-123840185D01*
X82585868Y-123856819D01*
X82907507Y-124178458D01*
X82940992Y-124239781D01*
X82936008Y-124309473D01*
X82934371Y-124313630D01*
X82928412Y-124328002D01*
X82906204Y-124357669D01*
X82855909Y-124492517D01*
X82854405Y-124506502D01*
X82847569Y-124522991D01*
X82836388Y-124536855D01*
X82829571Y-124553312D01*
X82814911Y-124563489D01*
X82803710Y-124577380D01*
X82786809Y-124582998D01*
X82772177Y-124593157D01*
X82741116Y-124598189D01*
X82737409Y-124599422D01*
X82735896Y-124599035D01*
X82733028Y-124599500D01*
X82702131Y-124599500D01*
X82702123Y-124599501D01*
X82642516Y-124605908D01*
X82507671Y-124656202D01*
X82507664Y-124656206D01*
X82392455Y-124742452D01*
X82392452Y-124742455D01*
X82306206Y-124857664D01*
X82306202Y-124857671D01*
X82255908Y-124992517D01*
X82249501Y-125052116D01*
X82249500Y-125052135D01*
X82249500Y-125277719D01*
X82229815Y-125344758D01*
X82177011Y-125390513D01*
X82123456Y-125401702D01*
X82108169Y-125401449D01*
X82097231Y-125398519D01*
X81939117Y-125398519D01*
X81939113Y-125398520D01*
X81749305Y-125398520D01*
X81682266Y-125378835D01*
X81661624Y-125362201D01*
X81611819Y-125312396D01*
X81578334Y-125251073D01*
X81575500Y-125224715D01*
X81575500Y-124245862D01*
X81575501Y-124245849D01*
X81575501Y-124077746D01*
X81573006Y-124068436D01*
X81548397Y-123976593D01*
X81550060Y-123906744D01*
X81589222Y-123848881D01*
X81653451Y-123821377D01*
X81668172Y-123820500D01*
X81712932Y-123820500D01*
X81712940Y-123820500D01*
X81749675Y-123817609D01*
X81749677Y-123817608D01*
X81749679Y-123817608D01*
X81906892Y-123771933D01*
X81906892Y-123771932D01*
X81906897Y-123771931D01*
X81921879Y-123763070D01*
X81989601Y-123745887D01*
X82048120Y-123763070D01*
G37*
%TD.AperFunction*%
%TA.AperFunction,Conductor*%
G36*
X78393039Y-124294685D02*
G01*
X78438794Y-124347489D01*
X78450000Y-124399000D01*
X78450000Y-124855900D01*
X78443761Y-124877145D01*
X78442182Y-124899234D01*
X78434109Y-124910017D01*
X78430315Y-124922939D01*
X78413581Y-124937438D01*
X78400310Y-124955167D01*
X78387689Y-124959874D01*
X78377511Y-124968694D01*
X78355593Y-124971845D01*
X78334846Y-124979584D01*
X78321685Y-124976721D01*
X78308353Y-124978638D01*
X78288209Y-124969438D01*
X78266573Y-124964732D01*
X78248847Y-124951463D01*
X78244797Y-124949613D01*
X78238319Y-124943581D01*
X78236818Y-124942080D01*
X78203333Y-124880757D01*
X78200499Y-124854399D01*
X78200499Y-124399000D01*
X78220184Y-124331961D01*
X78272988Y-124286206D01*
X78324499Y-124275000D01*
X78326000Y-124275000D01*
X78393039Y-124294685D01*
G37*
%TD.AperFunction*%
%TA.AperFunction,Conductor*%
G36*
X71742539Y-124044685D02*
G01*
X71788294Y-124097489D01*
X71799500Y-124149000D01*
X71799500Y-124854399D01*
X71790855Y-124883839D01*
X71784332Y-124913826D01*
X71780577Y-124918841D01*
X71779815Y-124921438D01*
X71763181Y-124942080D01*
X71761681Y-124943580D01*
X71700358Y-124977065D01*
X71630666Y-124972081D01*
X71574733Y-124930209D01*
X71550316Y-124864745D01*
X71550000Y-124855899D01*
X71550000Y-124525000D01*
X70980000Y-124525000D01*
X70980000Y-124285504D01*
X70959556Y-124209204D01*
X70920060Y-124140795D01*
X70864205Y-124084940D01*
X70804553Y-124050500D01*
X70848844Y-124050500D01*
X70920982Y-124036150D01*
X70965059Y-124027382D01*
X70989249Y-124025000D01*
X71675500Y-124025000D01*
X71742539Y-124044685D01*
G37*
%TD.AperFunction*%
%TA.AperFunction,Conductor*%
G36*
X70578173Y-124028025D02*
G01*
X70607465Y-124033852D01*
X70564204Y-124045444D01*
X70495795Y-124084940D01*
X70439940Y-124140795D01*
X70430000Y-124158011D01*
X70430000Y-124149646D01*
X70449685Y-124082607D01*
X70502489Y-124036852D01*
X70571647Y-124026908D01*
X70578173Y-124028025D01*
G37*
%TD.AperFunction*%
%TA.AperFunction,Conductor*%
G36*
X72500819Y-121030500D02*
G01*
X72888119Y-121030499D01*
X72955158Y-121050183D01*
X73000913Y-121102987D01*
X73009736Y-121130307D01*
X73030261Y-121233491D01*
X73030264Y-121233501D01*
X73090602Y-121379172D01*
X73090609Y-121379185D01*
X73178210Y-121510288D01*
X73178213Y-121510292D01*
X73279114Y-121611193D01*
X73312599Y-121672516D01*
X73307615Y-121742208D01*
X73265743Y-121798141D01*
X73215626Y-121820491D01*
X73166507Y-121830261D01*
X73166498Y-121830264D01*
X73020827Y-121890602D01*
X73020814Y-121890609D01*
X72889711Y-121978210D01*
X72889707Y-121978213D01*
X72778213Y-122089707D01*
X72778210Y-122089711D01*
X72690609Y-122220814D01*
X72690602Y-122220827D01*
X72630264Y-122366498D01*
X72630261Y-122366510D01*
X72599500Y-122521153D01*
X72599500Y-122634628D01*
X72592137Y-122659702D01*
X72599116Y-122676915D01*
X72630261Y-122833491D01*
X72630264Y-122833501D01*
X72692208Y-122983048D01*
X72695715Y-123015673D01*
X72700385Y-123048147D01*
X72699431Y-123050234D01*
X72699677Y-123052517D01*
X72684988Y-123081860D01*
X72671360Y-123111703D01*
X72669429Y-123112943D01*
X72668402Y-123114996D01*
X72640192Y-123131733D01*
X72612582Y-123149477D01*
X72609551Y-123149912D01*
X72608312Y-123150648D01*
X72577647Y-123154500D01*
X72335267Y-123154500D01*
X72268228Y-123134815D01*
X72222473Y-123082011D01*
X72212529Y-123012853D01*
X72228535Y-122967378D01*
X72312031Y-122826193D01*
X72354504Y-122680000D01*
X71383441Y-122680000D01*
X71316402Y-122660315D01*
X71295760Y-122643681D01*
X71280292Y-122628213D01*
X71280288Y-122628210D01*
X71149185Y-122540609D01*
X71149172Y-122540602D01*
X71003501Y-122480264D01*
X71003491Y-122480261D01*
X70894091Y-122458500D01*
X70892676Y-122457760D01*
X70891084Y-122457863D01*
X70861838Y-122441628D01*
X70832180Y-122426115D01*
X70831389Y-122424727D01*
X70829995Y-122423953D01*
X70814174Y-122394495D01*
X70797606Y-122365399D01*
X70797691Y-122363803D01*
X70796937Y-122362399D01*
X70799553Y-122329065D01*
X70801346Y-122295630D01*
X70802280Y-122294334D01*
X70802405Y-122292743D01*
X70822646Y-122266091D01*
X70842213Y-122238958D01*
X70844008Y-122237964D01*
X70844664Y-122237102D01*
X70853188Y-122232887D01*
X70875758Y-122220403D01*
X70879675Y-122218972D01*
X70936395Y-122202494D01*
X70955080Y-122191443D01*
X70965827Y-122187520D01*
X70985505Y-122186249D01*
X71008352Y-122180000D01*
X71051648Y-122180000D01*
X71114766Y-122197267D01*
X71123605Y-122202494D01*
X71123608Y-122202494D01*
X71123610Y-122202496D01*
X71279002Y-122247642D01*
X71279005Y-122247642D01*
X71279007Y-122247643D01*
X71315310Y-122250500D01*
X71315318Y-122250500D01*
X71784682Y-122250500D01*
X71784690Y-122250500D01*
X71820993Y-122247643D01*
X71820995Y-122247642D01*
X71820997Y-122247642D01*
X71976389Y-122202496D01*
X71976389Y-122202495D01*
X71976395Y-122202494D01*
X71985233Y-122197267D01*
X72048352Y-122180000D01*
X72354504Y-122180000D01*
X72312031Y-122033803D01*
X72300090Y-122013613D01*
X72282906Y-121945889D01*
X72300089Y-121887369D01*
X72312494Y-121866395D01*
X72351923Y-121730682D01*
X72357642Y-121710997D01*
X72357643Y-121710991D01*
X72360500Y-121674690D01*
X72360500Y-121265310D01*
X72357643Y-121229007D01*
X72345326Y-121186612D01*
X72345414Y-121155669D01*
X72343428Y-121124792D01*
X72345512Y-121121038D01*
X72345525Y-121116744D01*
X72362329Y-121090758D01*
X72377351Y-121063710D01*
X72381133Y-121061679D01*
X72383466Y-121058073D01*
X72411653Y-121045297D01*
X72438912Y-121030665D01*
X72444766Y-121030288D01*
X72447104Y-121029229D01*
X72474125Y-121028399D01*
X72500819Y-121030500D01*
G37*
%TD.AperFunction*%
%TA.AperFunction,Conductor*%
G36*
X65966518Y-122123531D02*
G01*
X65992840Y-122143605D01*
X66612054Y-122762819D01*
X66621109Y-122779401D01*
X66634234Y-122792997D01*
X66637507Y-122809434D01*
X66645539Y-122824142D01*
X66644191Y-122842989D01*
X66647882Y-122861520D01*
X66641750Y-122877115D01*
X66640555Y-122893834D01*
X66629231Y-122908960D01*
X66622318Y-122926545D01*
X66608725Y-122936351D01*
X66598683Y-122949767D01*
X66580979Y-122956369D01*
X66565656Y-122967426D01*
X66539169Y-122971964D01*
X66533219Y-122974184D01*
X66531042Y-122974321D01*
X66527719Y-122974500D01*
X66406898Y-122974500D01*
X66318436Y-122985123D01*
X66316530Y-122985874D01*
X66304565Y-122986519D01*
X66301578Y-122985814D01*
X66283113Y-122985814D01*
X66193055Y-122975000D01*
X66006945Y-122975000D01*
X65916887Y-122985814D01*
X65887320Y-122985814D01*
X65806235Y-122976077D01*
X65742020Y-122948539D01*
X65702888Y-122890657D01*
X65701261Y-122820806D01*
X65707664Y-122804628D01*
X65707063Y-122804379D01*
X65769735Y-122653072D01*
X65769737Y-122653068D01*
X65800500Y-122498413D01*
X65800500Y-122340729D01*
X65797771Y-122327011D01*
X65790955Y-122292743D01*
X65783542Y-122255476D01*
X65789769Y-122185887D01*
X65832631Y-122130709D01*
X65898521Y-122107464D01*
X65966518Y-122123531D01*
G37*
%TD.AperFunction*%
%TA.AperFunction,Conductor*%
G36*
X74058495Y-119474464D02*
G01*
X74173635Y-119540940D01*
X74237778Y-119558127D01*
X74321275Y-119580500D01*
X74321276Y-119580500D01*
X74321277Y-119580500D01*
X74326263Y-119581836D01*
X74381851Y-119613930D01*
X74389707Y-119621786D01*
X74389711Y-119621789D01*
X74520814Y-119709390D01*
X74520827Y-119709397D01*
X74607745Y-119745399D01*
X74666503Y-119769737D01*
X74805719Y-119797429D01*
X74821153Y-119800499D01*
X74821156Y-119800500D01*
X74821158Y-119800500D01*
X74978844Y-119800500D01*
X74978845Y-119800499D01*
X75133497Y-119769737D01*
X75253574Y-119720000D01*
X75277548Y-119710070D01*
X75347017Y-119702601D01*
X75372452Y-119710070D01*
X75457745Y-119745399D01*
X75516503Y-119769737D01*
X75655719Y-119797429D01*
X75671153Y-119800499D01*
X75671156Y-119800500D01*
X75671158Y-119800500D01*
X75828843Y-119800500D01*
X75844281Y-119797429D01*
X75913873Y-119803656D01*
X75969051Y-119846518D01*
X75992296Y-119912407D01*
X75992092Y-119928773D01*
X75991208Y-119939998D01*
X75991210Y-119940000D01*
X76646000Y-119940000D01*
X76713039Y-119959685D01*
X76758794Y-120012489D01*
X76770000Y-120064000D01*
X76770000Y-120316000D01*
X76750315Y-120383039D01*
X76697511Y-120428794D01*
X76646000Y-120440000D01*
X75991210Y-120440000D01*
X75992854Y-120460910D01*
X76037968Y-120616195D01*
X76120278Y-120755374D01*
X76120285Y-120755383D01*
X76234616Y-120869714D01*
X76234625Y-120869721D01*
X76317559Y-120918768D01*
X76365243Y-120969837D01*
X76377746Y-121038579D01*
X76351101Y-121103168D01*
X76293765Y-121143098D01*
X76254438Y-121149500D01*
X75927624Y-121149500D01*
X75927608Y-121149499D01*
X75920012Y-121149499D01*
X75761897Y-121149499D01*
X75694707Y-121167503D01*
X75609168Y-121190423D01*
X75609163Y-121190426D01*
X75472244Y-121269475D01*
X75472236Y-121269481D01*
X74778538Y-121963181D01*
X74751610Y-121977884D01*
X74725792Y-121994477D01*
X74719591Y-121995368D01*
X74717215Y-121996666D01*
X74690857Y-121999500D01*
X74686670Y-121999500D01*
X74686654Y-121999499D01*
X74679058Y-121999499D01*
X74520943Y-121999499D01*
X74444579Y-122019961D01*
X74368214Y-122040423D01*
X74368209Y-122040426D01*
X74231285Y-122119478D01*
X74224461Y-122126302D01*
X74163136Y-122159784D01*
X74093445Y-122154797D01*
X74046096Y-122123186D01*
X74039253Y-122115848D01*
X74021789Y-122089711D01*
X73919358Y-121987280D01*
X73917879Y-121985694D01*
X73903142Y-121956312D01*
X73887400Y-121927483D01*
X73887559Y-121925245D01*
X73886554Y-121923240D01*
X73890039Y-121890572D01*
X73892384Y-121857791D01*
X73893729Y-121855994D01*
X73893967Y-121853765D01*
X73914558Y-121828169D01*
X73934256Y-121801858D01*
X73936549Y-121800834D01*
X73937764Y-121799326D01*
X73946386Y-121796448D01*
X73984372Y-121779508D01*
X74033497Y-121769737D01*
X74175319Y-121710993D01*
X74179172Y-121709397D01*
X74179172Y-121709396D01*
X74179179Y-121709394D01*
X74310289Y-121621789D01*
X74421789Y-121510289D01*
X74509394Y-121379179D01*
X74509535Y-121378840D01*
X74554832Y-121269480D01*
X74569737Y-121233497D01*
X74600500Y-121078842D01*
X74600500Y-120921158D01*
X74600500Y-120921155D01*
X74600499Y-120921153D01*
X74590267Y-120869714D01*
X74569737Y-120766503D01*
X74536958Y-120687367D01*
X74509397Y-120620827D01*
X74509390Y-120620814D01*
X74421789Y-120489711D01*
X74421786Y-120489707D01*
X74310292Y-120378213D01*
X74310288Y-120378210D01*
X74179185Y-120290609D01*
X74179172Y-120290602D01*
X74033501Y-120230264D01*
X74033491Y-120230261D01*
X73972308Y-120218091D01*
X73910397Y-120185706D01*
X73875823Y-120124990D01*
X73872500Y-120096474D01*
X73872500Y-119581853D01*
X73892185Y-119514814D01*
X73944989Y-119469059D01*
X74014147Y-119459115D01*
X74058495Y-119474464D01*
G37*
%TD.AperFunction*%
%TA.AperFunction,Conductor*%
G36*
X65604539Y-118870185D02*
G01*
X65650294Y-118922989D01*
X65661500Y-118974500D01*
X65661500Y-119003206D01*
X65641815Y-119070245D01*
X65589011Y-119116000D01*
X65550757Y-119126495D01*
X65505126Y-119131401D01*
X65505120Y-119131403D01*
X65370413Y-119181645D01*
X65370407Y-119181649D01*
X65339742Y-119204604D01*
X65309845Y-119215754D01*
X65274279Y-119229020D01*
X65274277Y-119229019D01*
X65274277Y-119229020D01*
X65244573Y-119222557D01*
X65206006Y-119214168D01*
X65206004Y-119214167D01*
X65177752Y-119193017D01*
X65125089Y-119140354D01*
X65091604Y-119079031D01*
X65096588Y-119009339D01*
X65138460Y-118953406D01*
X65143852Y-118949589D01*
X65241202Y-118884542D01*
X65260876Y-118871397D01*
X65327554Y-118850520D01*
X65329766Y-118850500D01*
X65537500Y-118850500D01*
X65604539Y-118870185D01*
G37*
%TD.AperFunction*%
%TA.AperFunction,Conductor*%
G36*
X70539546Y-116215724D02*
G01*
X70571650Y-116222309D01*
X70573506Y-116223986D01*
X70575595Y-116224495D01*
X70603323Y-116246331D01*
X70610691Y-116254069D01*
X70628211Y-116280289D01*
X70739711Y-116391789D01*
X70745538Y-116395682D01*
X70754661Y-116405263D01*
X70767303Y-116429827D01*
X70782859Y-116452662D01*
X70783068Y-116460455D01*
X70786636Y-116467388D01*
X70783991Y-116494889D01*
X70784732Y-116522506D01*
X70780694Y-116529175D01*
X70779948Y-116536936D01*
X70763237Y-116566259D01*
X70672303Y-116684766D01*
X70672301Y-116684769D01*
X70614314Y-116824763D01*
X70614314Y-116824764D01*
X70599501Y-116937272D01*
X70599501Y-118026500D01*
X70579816Y-118093539D01*
X70527012Y-118139294D01*
X70475501Y-118150500D01*
X70051098Y-118150500D01*
X69984059Y-118130815D01*
X69963417Y-118114181D01*
X69260839Y-117411603D01*
X68456856Y-116607621D01*
X68423372Y-116546299D01*
X68428356Y-116476607D01*
X68470228Y-116420674D01*
X68535692Y-116396257D01*
X68560717Y-116397001D01*
X68587280Y-116400499D01*
X68587283Y-116400499D01*
X70062713Y-116400499D01*
X70062720Y-116400499D01*
X70175236Y-116385686D01*
X70315233Y-116327697D01*
X70435451Y-116235450D01*
X70435451Y-116235448D01*
X70438036Y-116233466D01*
X70440216Y-116232622D01*
X70441664Y-116230785D01*
X70472640Y-116220087D01*
X70503205Y-116208271D01*
X70505496Y-116208741D01*
X70507706Y-116207978D01*
X70539546Y-116215724D01*
G37*
%TD.AperFunction*%
%TA.AperFunction,Conductor*%
G36*
X77487273Y-115620185D02*
G01*
X77489125Y-115621398D01*
X77620814Y-115709390D01*
X77620827Y-115709397D01*
X77766498Y-115769735D01*
X77766503Y-115769737D01*
X77791925Y-115774793D01*
X77853836Y-115807178D01*
X77888410Y-115867893D01*
X77884671Y-115937663D01*
X77843805Y-115994335D01*
X77829739Y-116003795D01*
X77819133Y-116009918D01*
X77819124Y-116009925D01*
X77465014Y-116364035D01*
X77403691Y-116397520D01*
X77366814Y-116399057D01*
X77366768Y-116399765D01*
X77362726Y-116399500D01*
X77362720Y-116399500D01*
X77137280Y-116399500D01*
X77137272Y-116399500D01*
X77035265Y-116412930D01*
X77035263Y-116412930D01*
X77024764Y-116414313D01*
X76884767Y-116472302D01*
X76825486Y-116517789D01*
X76760319Y-116542984D01*
X76691874Y-116528946D01*
X76674512Y-116517789D01*
X76648512Y-116497838D01*
X76607310Y-116441410D01*
X76601120Y-116405894D01*
X76599999Y-116404911D01*
X76517269Y-116415804D01*
X76484646Y-116415771D01*
X76475945Y-116414607D01*
X76475235Y-116414313D01*
X76379631Y-116401726D01*
X76379373Y-116401692D01*
X76347571Y-116387545D01*
X76315727Y-116373458D01*
X76315654Y-116373347D01*
X76315534Y-116373294D01*
X76296447Y-116344227D01*
X76277257Y-116315133D01*
X76277255Y-116315001D01*
X76277183Y-116314891D01*
X76276840Y-116280145D01*
X76276426Y-116245268D01*
X76276496Y-116245148D01*
X76276495Y-116245025D01*
X76277553Y-116243340D01*
X76308127Y-116191108D01*
X76862417Y-115636819D01*
X76923740Y-115603334D01*
X76950098Y-115600500D01*
X77420234Y-115600500D01*
X77487273Y-115620185D01*
G37*
%TD.AperFunction*%
%TA.AperFunction,Conductor*%
G36*
X78713136Y-115480714D02*
G01*
X78744878Y-115481282D01*
X78749062Y-115483284D01*
X78751157Y-115483434D01*
X78776713Y-115496512D01*
X78870821Y-115559394D01*
X78870823Y-115559395D01*
X78870827Y-115559397D01*
X78970060Y-115600500D01*
X79016503Y-115619737D01*
X79171153Y-115650499D01*
X79171156Y-115650500D01*
X79275500Y-115650500D01*
X79282641Y-115652596D01*
X79289980Y-115651348D01*
X79315711Y-115662307D01*
X79342539Y-115670185D01*
X79347412Y-115675809D01*
X79354262Y-115678727D01*
X79369983Y-115701857D01*
X79388294Y-115722989D01*
X79390327Y-115731789D01*
X79393538Y-115736513D01*
X79398024Y-115765096D01*
X79399459Y-115771306D01*
X79399500Y-115772897D01*
X79399500Y-115862719D01*
X79402377Y-115884572D01*
X79402545Y-115891092D01*
X79395178Y-115918801D01*
X79390760Y-115947135D01*
X79386313Y-115952144D01*
X79384593Y-115958617D01*
X79363413Y-115977945D01*
X79344380Y-115999391D01*
X79337931Y-116001201D01*
X79332985Y-116005716D01*
X79304715Y-116010527D01*
X79277111Y-116018277D01*
X79270244Y-116016393D01*
X79264106Y-116017438D01*
X79246105Y-116009771D01*
X79216586Y-116001673D01*
X79098506Y-115933500D01*
X79098505Y-115933499D01*
X79040806Y-115918039D01*
X78995536Y-115905909D01*
X78995533Y-115905908D01*
X78950864Y-115893939D01*
X78950863Y-115893939D01*
X78511762Y-115893939D01*
X78444723Y-115874254D01*
X78398968Y-115821450D01*
X78389024Y-115752292D01*
X78418049Y-115688736D01*
X78442871Y-115666837D01*
X78505657Y-115624884D01*
X78510289Y-115621789D01*
X78620144Y-115511933D01*
X78648010Y-115496717D01*
X78675019Y-115480034D01*
X78678451Y-115480095D01*
X78681465Y-115478450D01*
X78713136Y-115480714D01*
G37*
%TD.AperFunction*%
%TA.AperFunction,Conductor*%
G36*
X83116885Y-113370185D02*
G01*
X83137527Y-113386819D01*
X83522516Y-113771808D01*
X83556001Y-113833131D01*
X83551017Y-113902823D01*
X83509145Y-113958756D01*
X83469430Y-113978565D01*
X83333809Y-114017966D01*
X83333804Y-114017968D01*
X83313608Y-114029912D01*
X83245884Y-114047092D01*
X83187370Y-114029910D01*
X83166397Y-114017507D01*
X83166390Y-114017504D01*
X83010997Y-113972357D01*
X83010991Y-113972356D01*
X82974697Y-113969500D01*
X82974690Y-113969500D01*
X82565310Y-113969500D01*
X82565302Y-113969500D01*
X82529008Y-113972356D01*
X82529002Y-113972357D01*
X82373609Y-114017504D01*
X82373606Y-114017505D01*
X82234315Y-114099881D01*
X82234307Y-114099887D01*
X82221014Y-114113181D01*
X82194086Y-114127884D01*
X82168268Y-114144477D01*
X82162067Y-114145368D01*
X82159691Y-114146666D01*
X82133333Y-114149500D01*
X82060854Y-114149500D01*
X81993815Y-114129815D01*
X81948060Y-114077011D01*
X81937915Y-114041687D01*
X81934626Y-114016707D01*
X81937689Y-114016303D01*
X81937689Y-113983698D01*
X81934626Y-113983295D01*
X81936603Y-113968278D01*
X81950500Y-113862720D01*
X81950500Y-113637280D01*
X81935687Y-113524764D01*
X81935685Y-113524761D01*
X81934914Y-113518898D01*
X81934853Y-113518767D01*
X81934866Y-113518530D01*
X81934626Y-113516707D01*
X81934969Y-113516661D01*
X81935755Y-113502458D01*
X81934531Y-113483474D01*
X81935615Y-113475406D01*
X81935687Y-113475235D01*
X81937933Y-113458168D01*
X81937960Y-113457974D01*
X81952114Y-113426216D01*
X81966183Y-113394416D01*
X81966331Y-113394317D01*
X81966404Y-113394156D01*
X81995391Y-113375150D01*
X82024508Y-113355946D01*
X82024734Y-113355912D01*
X82024834Y-113355847D01*
X82025190Y-113355843D01*
X82060854Y-113350500D01*
X83049846Y-113350500D01*
X83116885Y-113370185D01*
G37*
%TD.AperFunction*%
%TA.AperFunction,Conductor*%
G36*
X78387273Y-110970185D02*
G01*
X78389125Y-110971398D01*
X78520814Y-111059390D01*
X78520827Y-111059397D01*
X78639408Y-111108514D01*
X78666503Y-111119737D01*
X78812280Y-111148734D01*
X78821153Y-111150499D01*
X78821156Y-111150500D01*
X78821158Y-111150500D01*
X78978844Y-111150500D01*
X78978845Y-111150499D01*
X79133497Y-111119737D01*
X79228048Y-111080572D01*
X79297517Y-111073104D01*
X79359996Y-111104379D01*
X79395648Y-111164468D01*
X79399500Y-111195134D01*
X79399500Y-111362727D01*
X79408511Y-111431167D01*
X79412227Y-111459394D01*
X79415374Y-111483292D01*
X79412399Y-111483683D01*
X79412399Y-111516316D01*
X79415374Y-111516708D01*
X79414313Y-111524762D01*
X79414313Y-111524764D01*
X79411482Y-111546269D01*
X79399500Y-111637272D01*
X79399500Y-111862727D01*
X79402903Y-111888571D01*
X79414056Y-111973287D01*
X79415058Y-111980893D01*
X79415111Y-111981006D01*
X79415100Y-111981211D01*
X79415374Y-111983292D01*
X79414986Y-111983343D01*
X79414258Y-111997012D01*
X79415498Y-112016298D01*
X79414405Y-112024541D01*
X79414313Y-112024764D01*
X79405488Y-112091798D01*
X79391518Y-112123296D01*
X79377237Y-112155582D01*
X79377186Y-112155615D01*
X79377163Y-112155668D01*
X79348388Y-112174610D01*
X79318912Y-112194053D01*
X79318837Y-112194064D01*
X79318804Y-112194086D01*
X79318682Y-112194087D01*
X79282564Y-112199500D01*
X79171155Y-112199500D01*
X79016510Y-112230261D01*
X79016498Y-112230264D01*
X78870827Y-112290602D01*
X78870814Y-112290609D01*
X78739711Y-112378210D01*
X78739707Y-112378213D01*
X78628213Y-112489707D01*
X78628210Y-112489711D01*
X78540609Y-112620814D01*
X78540602Y-112620827D01*
X78480264Y-112766498D01*
X78480261Y-112766510D01*
X78449500Y-112921153D01*
X78449500Y-113025500D01*
X78429815Y-113092539D01*
X78377011Y-113138294D01*
X78325500Y-113149500D01*
X73002001Y-113149500D01*
X72934962Y-113129815D01*
X72889207Y-113077011D01*
X72880383Y-113049689D01*
X72879118Y-113043328D01*
X72879016Y-113043081D01*
X72818778Y-112897652D01*
X72818771Y-112897639D01*
X72731170Y-112766536D01*
X72731167Y-112766532D01*
X72619673Y-112655038D01*
X72619669Y-112655035D01*
X72488566Y-112567434D01*
X72488553Y-112567427D01*
X72342882Y-112507089D01*
X72342872Y-112507086D01*
X72187532Y-112476187D01*
X72125622Y-112443802D01*
X72124043Y-112442251D01*
X71698090Y-112016298D01*
X71243971Y-111562180D01*
X71210487Y-111500858D01*
X71215471Y-111431167D01*
X71257343Y-111375233D01*
X71322807Y-111350816D01*
X71331653Y-111350500D01*
X75434888Y-111350500D01*
X75434904Y-111350501D01*
X75442500Y-111350501D01*
X75600611Y-111350501D01*
X75600614Y-111350501D01*
X75753342Y-111309577D01*
X75820469Y-111270821D01*
X75890273Y-111230520D01*
X76002077Y-111118716D01*
X76002077Y-111118714D01*
X76012278Y-111108514D01*
X76012282Y-111108508D01*
X76133974Y-110986818D01*
X76195298Y-110953334D01*
X76221655Y-110950500D01*
X78320234Y-110950500D01*
X78387273Y-110970185D01*
G37*
%TD.AperFunction*%
%TA.AperFunction,Conductor*%
G36*
X73016551Y-107585794D02*
G01*
X73016705Y-107584626D01*
X73024763Y-107585686D01*
X73024764Y-107585687D01*
X73137280Y-107600500D01*
X73137287Y-107600500D01*
X73363445Y-107600500D01*
X73430484Y-107620185D01*
X73476239Y-107672989D01*
X73486183Y-107742147D01*
X73481159Y-107760411D01*
X73482031Y-107760676D01*
X73480261Y-107766510D01*
X73449500Y-107921153D01*
X73449500Y-108078846D01*
X73480261Y-108233489D01*
X73480264Y-108233501D01*
X73540602Y-108379172D01*
X73540609Y-108379185D01*
X73628210Y-108510288D01*
X73628213Y-108510292D01*
X73739707Y-108621786D01*
X73739711Y-108621789D01*
X73870814Y-108709390D01*
X73870827Y-108709397D01*
X73997824Y-108762000D01*
X74016503Y-108769737D01*
X74142045Y-108794709D01*
X74171153Y-108800499D01*
X74171156Y-108800500D01*
X74171158Y-108800500D01*
X74328844Y-108800500D01*
X74328845Y-108800499D01*
X74483497Y-108769737D01*
X74629179Y-108709394D01*
X74760289Y-108621789D01*
X74760291Y-108621786D01*
X74764993Y-108617928D01*
X74765861Y-108618986D01*
X74783665Y-108609261D01*
X74805689Y-108593235D01*
X74813874Y-108592760D01*
X74821073Y-108588829D01*
X74848244Y-108590769D01*
X74875442Y-108589193D01*
X74886333Y-108593488D01*
X74890765Y-108593805D01*
X74908341Y-108601974D01*
X74908947Y-108602315D01*
X74951968Y-108627154D01*
X74953948Y-108627684D01*
X74962409Y-108632454D01*
X74981758Y-108652334D01*
X75003362Y-108669739D01*
X75005787Y-108677022D01*
X75011141Y-108682523D01*
X75016671Y-108709709D01*
X75025435Y-108736030D01*
X75023537Y-108743467D01*
X75025068Y-108750990D01*
X75015022Y-108776849D01*
X75008165Y-108803732D01*
X75004617Y-108809362D01*
X74966473Y-108866448D01*
X74966463Y-108866466D01*
X74906125Y-109012137D01*
X74906122Y-109012149D01*
X74875361Y-109166792D01*
X74875361Y-109324485D01*
X74906122Y-109479128D01*
X74906125Y-109479140D01*
X74966463Y-109624811D01*
X74966470Y-109624824D01*
X75054071Y-109755927D01*
X75054074Y-109755931D01*
X75165568Y-109867425D01*
X75165572Y-109867428D01*
X75247840Y-109922398D01*
X75292645Y-109976010D01*
X75301352Y-110045335D01*
X75271198Y-110108362D01*
X75211755Y-110145082D01*
X75178949Y-110149500D01*
X74174500Y-110149500D01*
X74107461Y-110129815D01*
X74061706Y-110077011D01*
X74050500Y-110025500D01*
X74050500Y-109921155D01*
X74050499Y-109921153D01*
X74042668Y-109881784D01*
X74019737Y-109766503D01*
X74015356Y-109755927D01*
X73959397Y-109620827D01*
X73959390Y-109620814D01*
X73871789Y-109489711D01*
X73871786Y-109489707D01*
X73760292Y-109378213D01*
X73760288Y-109378210D01*
X73629185Y-109290609D01*
X73629172Y-109290602D01*
X73483501Y-109230264D01*
X73483489Y-109230261D01*
X73328845Y-109199500D01*
X73328842Y-109199500D01*
X73171158Y-109199500D01*
X73171155Y-109199500D01*
X73016510Y-109230261D01*
X73016498Y-109230264D01*
X72870827Y-109290602D01*
X72870814Y-109290609D01*
X72739711Y-109378210D01*
X72739707Y-109378213D01*
X72628213Y-109489707D01*
X72628210Y-109489711D01*
X72540609Y-109620814D01*
X72540602Y-109620827D01*
X72480264Y-109766498D01*
X72480261Y-109766510D01*
X72449500Y-109921153D01*
X72449500Y-110025500D01*
X72429815Y-110092539D01*
X72377011Y-110138294D01*
X72325500Y-110149500D01*
X71125501Y-110149500D01*
X71116815Y-110146949D01*
X71107855Y-110148238D01*
X71083813Y-110137259D01*
X71058462Y-110129815D01*
X71052535Y-110122975D01*
X71044299Y-110119214D01*
X71030008Y-110096978D01*
X71012707Y-110077011D01*
X71010419Y-110066498D01*
X71006524Y-110060436D01*
X71001501Y-110025500D01*
X71001501Y-109962422D01*
X71001501Y-109938119D01*
X71001501Y-109903766D01*
X71001500Y-109903762D01*
X71001500Y-109438119D01*
X70996166Y-109418214D01*
X70987204Y-109384767D01*
X70960577Y-109285392D01*
X70960573Y-109285385D01*
X70881524Y-109148466D01*
X70881521Y-109148462D01*
X70881520Y-109148460D01*
X70769716Y-109036656D01*
X70769715Y-109036655D01*
X70765385Y-109032325D01*
X70765374Y-109032315D01*
X70670414Y-108937355D01*
X70670412Y-108937352D01*
X70636819Y-108903759D01*
X70603334Y-108842436D01*
X70600500Y-108816078D01*
X70600500Y-108637286D01*
X70600500Y-108637280D01*
X70585687Y-108524764D01*
X70585686Y-108524761D01*
X70584944Y-108519125D01*
X70584891Y-108519011D01*
X70584902Y-108518804D01*
X70584626Y-108516705D01*
X70585020Y-108516653D01*
X70585767Y-108503017D01*
X70584499Y-108483719D01*
X70585592Y-108475466D01*
X70585687Y-108475237D01*
X70596374Y-108394060D01*
X70610447Y-108362314D01*
X70624627Y-108330261D01*
X70624669Y-108330233D01*
X70624690Y-108330186D01*
X70653624Y-108311133D01*
X70682951Y-108291789D01*
X70683003Y-108291788D01*
X70683045Y-108291761D01*
X70717190Y-108291381D01*
X70752816Y-108290957D01*
X70752860Y-108290984D01*
X70752910Y-108290984D01*
X70782005Y-108309228D01*
X70812040Y-108328029D01*
X70812073Y-108328083D01*
X70812104Y-108328102D01*
X70812159Y-108328219D01*
X70833861Y-108362888D01*
X70840606Y-108379172D01*
X70840609Y-108379178D01*
X70840612Y-108379185D01*
X70928213Y-108510288D01*
X70928216Y-108510292D01*
X71039710Y-108621786D01*
X71039714Y-108621789D01*
X71170817Y-108709390D01*
X71170830Y-108709397D01*
X71297827Y-108762000D01*
X71316506Y-108769737D01*
X71442048Y-108794709D01*
X71471156Y-108800499D01*
X71471159Y-108800500D01*
X71471161Y-108800500D01*
X71628847Y-108800500D01*
X71628848Y-108800499D01*
X71783500Y-108769737D01*
X71929182Y-108709394D01*
X72060292Y-108621789D01*
X72171792Y-108510289D01*
X72259397Y-108379179D01*
X72319740Y-108233497D01*
X72350503Y-108078842D01*
X72350503Y-107921158D01*
X72350503Y-107921155D01*
X72350502Y-107921153D01*
X72343265Y-107884771D01*
X72319740Y-107766503D01*
X72318598Y-107763748D01*
X72318431Y-107762190D01*
X72317972Y-107760676D01*
X72318259Y-107760588D01*
X72315933Y-107738955D01*
X72309167Y-107714951D01*
X72312262Y-107704815D01*
X72311130Y-107694280D01*
X72322292Y-107671980D01*
X72329578Y-107648129D01*
X72337662Y-107641276D01*
X72342405Y-107631801D01*
X72363849Y-107619077D01*
X72382875Y-107602949D01*
X72398382Y-107598586D01*
X72402493Y-107596148D01*
X72416843Y-107593374D01*
X72475236Y-107585687D01*
X72475458Y-107585595D01*
X72483686Y-107584503D01*
X72504258Y-107587689D01*
X72516302Y-107587689D01*
X72516705Y-107584626D01*
X72524763Y-107585686D01*
X72524764Y-107585687D01*
X72637280Y-107600500D01*
X72637287Y-107600500D01*
X72862713Y-107600500D01*
X72862720Y-107600500D01*
X72975236Y-107585687D01*
X72975236Y-107585686D01*
X72983295Y-107584626D01*
X72983698Y-107587689D01*
X72983903Y-107587689D01*
X72997197Y-107583457D01*
X73016551Y-107585794D01*
G37*
%TD.AperFunction*%
%TA.AperFunction,Conductor*%
G36*
X79389496Y-108587462D02*
G01*
X79405251Y-108601699D01*
X79466502Y-108619685D01*
X79497840Y-108648515D01*
X79517790Y-108674515D01*
X79527830Y-108700488D01*
X79540883Y-108725081D01*
X79540253Y-108732623D01*
X79542983Y-108739684D01*
X79537388Y-108766958D01*
X79535073Y-108794709D01*
X79529753Y-108804181D01*
X79528944Y-108808129D01*
X79517792Y-108825483D01*
X79497840Y-108851484D01*
X79441416Y-108892688D01*
X79405894Y-108898879D01*
X79404911Y-108900000D01*
X79415804Y-108982729D01*
X79415669Y-109016094D01*
X79414529Y-109024242D01*
X79414313Y-109024764D01*
X79412025Y-109042139D01*
X79411950Y-109042679D01*
X79397756Y-109074074D01*
X79383817Y-109105584D01*
X79383382Y-109105870D01*
X79383168Y-109106345D01*
X79354282Y-109125064D01*
X79325492Y-109144054D01*
X79324825Y-109144153D01*
X79324534Y-109144343D01*
X79323537Y-109144346D01*
X79289146Y-109149500D01*
X76574684Y-109149500D01*
X76507645Y-109129815D01*
X76461890Y-109077011D01*
X76453067Y-109049695D01*
X76445598Y-109012142D01*
X76422193Y-108955637D01*
X76385258Y-108866466D01*
X76385251Y-108866453D01*
X76381586Y-108860968D01*
X76360708Y-108794291D01*
X76379192Y-108726910D01*
X76431171Y-108680220D01*
X76484688Y-108668077D01*
X78857321Y-108668077D01*
X78857337Y-108668078D01*
X78864933Y-108668078D01*
X79023044Y-108668078D01*
X79023047Y-108668078D01*
X79175775Y-108627154D01*
X79248214Y-108585331D01*
X79255573Y-108581081D01*
X79323469Y-108564610D01*
X79389496Y-108587462D01*
G37*
%TD.AperFunction*%
%TA.AperFunction,Conductor*%
G36*
X82354138Y-105710680D02*
G01*
X82385771Y-105718635D01*
X82387496Y-105720475D01*
X82389914Y-105721185D01*
X82411253Y-105745811D01*
X82433562Y-105769604D01*
X82434018Y-105772084D01*
X82435669Y-105773989D01*
X82440307Y-105806248D01*
X82446211Y-105838319D01*
X82445254Y-105840652D01*
X82445613Y-105843147D01*
X82432071Y-105872797D01*
X82419701Y-105902965D01*
X82417635Y-105904410D01*
X82416588Y-105906703D01*
X82389157Y-105924331D01*
X82362449Y-105943015D01*
X82359135Y-105943624D01*
X82357810Y-105944477D01*
X82327738Y-105949405D01*
X82325302Y-105949500D01*
X82289008Y-105952356D01*
X82289002Y-105952357D01*
X82133608Y-105997504D01*
X82133600Y-105997507D01*
X82124767Y-106002732D01*
X82108865Y-106007082D01*
X82096581Y-106014977D01*
X82061646Y-106020000D01*
X81998354Y-106020000D01*
X81935233Y-106002732D01*
X81926399Y-105997507D01*
X81926391Y-105997504D01*
X81770997Y-105952357D01*
X81770991Y-105952356D01*
X81734697Y-105949500D01*
X81732262Y-105949405D01*
X81666046Y-105927106D01*
X81622397Y-105872548D01*
X81615174Y-105803053D01*
X81646669Y-105740684D01*
X81706884Y-105705244D01*
X81737125Y-105701500D01*
X82322875Y-105701500D01*
X82354138Y-105710680D01*
G37*
%TD.AperFunction*%
%TA.AperFunction,Conductor*%
G36*
X76721168Y-102399599D02*
G01*
X76761669Y-102426591D01*
X76862214Y-102527136D01*
X76862218Y-102527139D01*
X77026079Y-102636628D01*
X77026086Y-102636632D01*
X77042955Y-102643619D01*
X77097359Y-102687459D01*
X77119425Y-102753753D01*
X77102147Y-102821453D01*
X77083185Y-102845862D01*
X76725679Y-103203368D01*
X76664356Y-103236853D01*
X76594664Y-103231869D01*
X76538731Y-103189997D01*
X76518923Y-103150286D01*
X76492869Y-103060607D01*
X76411135Y-102922402D01*
X76411133Y-102922400D01*
X76411130Y-102922396D01*
X76407999Y-102919265D01*
X76374514Y-102857942D01*
X76379498Y-102788250D01*
X76396877Y-102756658D01*
X76498920Y-102622096D01*
X76557302Y-102474049D01*
X76559146Y-102474776D01*
X76589277Y-102423718D01*
X76651682Y-102392295D01*
X76721168Y-102399599D01*
G37*
%TD.AperFunction*%
%TA.AperFunction,Conductor*%
G36*
X78453039Y-99769685D02*
G01*
X78498794Y-99822489D01*
X78510000Y-99874000D01*
X78510000Y-100562843D01*
X78649194Y-100522404D01*
X78787285Y-100440738D01*
X78787290Y-100440734D01*
X78903454Y-100324570D01*
X78964777Y-100291085D01*
X79034469Y-100296069D01*
X79090403Y-100337940D01*
X79114425Y-100398992D01*
X79116401Y-100417374D01*
X79116403Y-100417379D01*
X79166645Y-100552086D01*
X79166647Y-100552089D01*
X79192292Y-100586346D01*
X79216710Y-100651810D01*
X79201859Y-100720084D01*
X79180707Y-100748339D01*
X78595862Y-101333185D01*
X78534539Y-101366670D01*
X78464848Y-101361686D01*
X78408914Y-101319815D01*
X78393619Y-101292955D01*
X78386632Y-101276086D01*
X78386628Y-101276079D01*
X78277139Y-101112218D01*
X78277136Y-101112214D01*
X78137785Y-100972863D01*
X78137781Y-100972860D01*
X77973920Y-100863371D01*
X77973907Y-100863364D01*
X77791839Y-100787950D01*
X77791829Y-100787947D01*
X77650754Y-100759885D01*
X77627303Y-100747618D01*
X77602355Y-100738799D01*
X77596830Y-100731678D01*
X77588843Y-100727500D01*
X77575747Y-100704502D01*
X77559527Y-100683595D01*
X77558729Y-100674616D01*
X77554269Y-100666784D01*
X77555685Y-100640359D01*
X77553344Y-100613999D01*
X77557527Y-100606014D01*
X77558010Y-100597014D01*
X77573488Y-100575549D01*
X77585769Y-100552109D01*
X77594998Y-100545720D01*
X77598876Y-100540343D01*
X77613655Y-100530475D01*
X77624564Y-100524271D01*
X77629393Y-100522869D01*
X77688293Y-100488035D01*
X77689200Y-100487520D01*
X77722209Y-100479741D01*
X77755093Y-100471398D01*
X77756217Y-100471728D01*
X77757207Y-100471495D01*
X77765954Y-100474587D01*
X77813612Y-100488581D01*
X77870805Y-100522404D01*
X78010000Y-100562844D01*
X78010000Y-100010408D01*
X78010001Y-100009847D01*
X78010021Y-100005257D01*
X78010500Y-99999181D01*
X78010499Y-99899681D01*
X78010500Y-99899535D01*
X78020430Y-99866273D01*
X78030183Y-99833058D01*
X78030443Y-99832735D01*
X78030488Y-99832585D01*
X78030735Y-99832372D01*
X78046810Y-99812423D01*
X78072918Y-99786315D01*
X78134240Y-99752833D01*
X78160596Y-99750000D01*
X78386000Y-99750000D01*
X78453039Y-99769685D01*
G37*
%TD.AperFunction*%
%TD*%
%TA.AperFunction,Conductor*%
%TO.N,Net-(BT1-+)*%
G36*
X74443039Y-93820185D02*
G01*
X74488794Y-93872989D01*
X74500000Y-93924500D01*
X74500000Y-96626000D01*
X74480315Y-96693039D01*
X74427511Y-96738794D01*
X74376000Y-96750000D01*
X72517367Y-96750000D01*
X72483302Y-96745229D01*
X69089935Y-95775695D01*
X69030882Y-95738351D01*
X69001394Y-95675008D01*
X69000000Y-95656466D01*
X69000000Y-93924500D01*
X69019685Y-93857461D01*
X69072489Y-93811706D01*
X69124000Y-93800500D01*
X74376000Y-93800500D01*
X74443039Y-93820185D01*
G37*
%TD.AperFunction*%
%TD*%
M02*
