G04 #@! TF.GenerationSoftware,KiCad,Pcbnew,9.0.1*
G04 #@! TF.CreationDate,2025-04-30T23:29:37-04:00*
G04 #@! TF.ProjectId,Control Board V2,436f6e74-726f-46c2-9042-6f6172642056,rev?*
G04 #@! TF.SameCoordinates,Original*
G04 #@! TF.FileFunction,Soldermask,Top*
G04 #@! TF.FilePolarity,Negative*
%FSLAX46Y46*%
G04 Gerber Fmt 4.6, Leading zero omitted, Abs format (unit mm)*
G04 Created by KiCad (PCBNEW 9.0.1) date 2025-04-30 23:29:37*
%MOMM*%
%LPD*%
G01*
G04 APERTURE LIST*
G04 Aperture macros list*
%AMRoundRect*
0 Rectangle with rounded corners*
0 $1 Rounding radius*
0 $2 $3 $4 $5 $6 $7 $8 $9 X,Y pos of 4 corners*
0 Add a 4 corners polygon primitive as box body*
4,1,4,$2,$3,$4,$5,$6,$7,$8,$9,$2,$3,0*
0 Add four circle primitives for the rounded corners*
1,1,$1+$1,$2,$3*
1,1,$1+$1,$4,$5*
1,1,$1+$1,$6,$7*
1,1,$1+$1,$8,$9*
0 Add four rect primitives between the rounded corners*
20,1,$1+$1,$2,$3,$4,$5,0*
20,1,$1+$1,$4,$5,$6,$7,0*
20,1,$1+$1,$6,$7,$8,$9,0*
20,1,$1+$1,$8,$9,$2,$3,0*%
G04 Aperture macros list end*
%ADD10RoundRect,0.147500X0.147500X0.172500X-0.147500X0.172500X-0.147500X-0.172500X0.147500X-0.172500X0*%
%ADD11RoundRect,0.135000X-0.135000X-0.185000X0.135000X-0.185000X0.135000X0.185000X-0.135000X0.185000X0*%
%ADD12RoundRect,0.150000X0.625000X-0.150000X0.625000X0.150000X-0.625000X0.150000X-0.625000X-0.150000X0*%
%ADD13RoundRect,0.250000X0.650000X-0.350000X0.650000X0.350000X-0.650000X0.350000X-0.650000X-0.350000X0*%
%ADD14RoundRect,0.140000X0.140000X0.170000X-0.140000X0.170000X-0.140000X-0.170000X0.140000X-0.170000X0*%
%ADD15RoundRect,0.140000X0.170000X-0.140000X0.170000X0.140000X-0.170000X0.140000X-0.170000X-0.140000X0*%
%ADD16C,0.226000*%
%ADD17C,1.700000*%
%ADD18R,1.700000X1.700000*%
%ADD19RoundRect,0.075000X-0.175000X-0.425000X0.175000X-0.425000X0.175000X0.425000X-0.175000X0.425000X0*%
%ADD20RoundRect,0.135000X0.135000X0.185000X-0.135000X0.185000X-0.135000X-0.185000X0.135000X-0.185000X0*%
%ADD21RoundRect,0.150000X-0.625000X0.150000X-0.625000X-0.150000X0.625000X-0.150000X0.625000X0.150000X0*%
%ADD22RoundRect,0.250000X-0.650000X0.350000X-0.650000X-0.350000X0.650000X-0.350000X0.650000X0.350000X0*%
%ADD23C,1.000000*%
%ADD24RoundRect,0.147500X-0.172500X0.147500X-0.172500X-0.147500X0.172500X-0.147500X0.172500X0.147500X0*%
%ADD25C,5.500000*%
%ADD26RoundRect,0.140000X-0.170000X0.140000X-0.170000X-0.140000X0.170000X-0.140000X0.170000X0.140000X0*%
%ADD27RoundRect,0.050000X0.285000X0.100000X-0.285000X0.100000X-0.285000X-0.100000X0.285000X-0.100000X0*%
%ADD28RoundRect,0.135000X0.185000X-0.135000X0.185000X0.135000X-0.185000X0.135000X-0.185000X-0.135000X0*%
%ADD29R,0.300000X0.300000*%
%ADD30R,0.900000X0.300000*%
%ADD31R,0.300000X0.900000*%
%ADD32R,1.800000X1.800000*%
%ADD33RoundRect,0.140000X-0.140000X-0.170000X0.140000X-0.170000X0.140000X0.170000X-0.140000X0.170000X0*%
%ADD34R,0.600000X0.200000*%
%ADD35R,1.600000X0.200000*%
%ADD36R,0.250000X0.275000*%
%ADD37R,0.275000X0.250000*%
%ADD38R,0.200000X0.200000*%
%ADD39R,0.950000X1.750000*%
%ADD40R,3.250000X1.750000*%
%ADD41C,0.650000*%
%ADD42R,0.600000X1.240000*%
%ADD43R,0.300000X1.240000*%
%ADD44O,1.000000X2.100000*%
%ADD45O,1.000000X1.800000*%
%ADD46RoundRect,0.075000X0.075000X-0.700000X0.075000X0.700000X-0.075000X0.700000X-0.075000X-0.700000X0*%
%ADD47RoundRect,0.075000X0.700000X-0.075000X0.700000X0.075000X-0.700000X0.075000X-0.700000X-0.075000X0*%
%ADD48R,1.150000X0.400000*%
%ADD49R,1.700000X0.900000*%
%ADD50R,1.100000X0.800000*%
%ADD51O,3.000000X3.000000*%
%ADD52RoundRect,0.050000X-0.225000X-0.050000X0.225000X-0.050000X0.225000X0.050000X-0.225000X0.050000X0*%
%ADD53RoundRect,0.050000X0.050000X-0.225000X0.050000X0.225000X-0.050000X0.225000X-0.050000X-0.225000X0*%
%ADD54RoundRect,0.135000X-0.185000X0.135000X-0.185000X-0.135000X0.185000X-0.135000X0.185000X0.135000X0*%
%ADD55RoundRect,0.225000X-0.250000X0.225000X-0.250000X-0.225000X0.250000X-0.225000X0.250000X0.225000X0*%
G04 APERTURE END LIST*
D10*
G04 #@! TO.C,D3*
X82470000Y-123000000D03*
X81500000Y-123000000D03*
G04 #@! TD*
D11*
G04 #@! TO.C,R17*
X77240000Y-99750000D03*
X78260000Y-99750000D03*
G04 #@! TD*
D12*
G04 #@! TO.C,J38*
X88250000Y-121250000D03*
X88250000Y-120250000D03*
X88250000Y-119250000D03*
X88250000Y-118250000D03*
D13*
X92125000Y-122550000D03*
X92125000Y-116950000D03*
G04 #@! TD*
D14*
G04 #@! TO.C,C14*
X83230000Y-108750000D03*
X82270000Y-108750000D03*
G04 #@! TD*
D12*
G04 #@! TO.C,J39*
X88250000Y-113375000D03*
X88250000Y-112375000D03*
X88250000Y-111375000D03*
X88250000Y-110375000D03*
D13*
X92125000Y-114675000D03*
X92125000Y-109075000D03*
G04 #@! TD*
D15*
G04 #@! TO.C,C20*
X81500000Y-106730000D03*
X81500000Y-105770000D03*
G04 #@! TD*
D16*
G04 #@! TO.C,IC2*
X68250000Y-125500000D03*
X68750000Y-125500000D03*
X68250000Y-126000000D03*
X68750000Y-126000000D03*
X68250000Y-126500000D03*
X68750000Y-126500000D03*
X68250000Y-127000000D03*
X68750000Y-127000000D03*
G04 #@! TD*
D17*
G04 #@! TO.C,J1*
X83000000Y-99460000D03*
X83000000Y-102000000D03*
X80460000Y-102000000D03*
D18*
X80460000Y-99460000D03*
G04 #@! TD*
D19*
G04 #@! TO.C,Y1*
X70500000Y-119750000D03*
X71600000Y-119750000D03*
G04 #@! TD*
D12*
G04 #@! TO.C,J40*
X88250000Y-105500000D03*
X88250000Y-104500000D03*
X88250000Y-103500000D03*
X88250000Y-102500000D03*
D13*
X92125000Y-106800000D03*
X92125000Y-101200000D03*
G04 #@! TD*
D14*
G04 #@! TO.C,C12*
X77730000Y-120190000D03*
X76770000Y-120190000D03*
G04 #@! TD*
D20*
G04 #@! TO.C,R15*
X75770000Y-103500000D03*
X74750000Y-103500000D03*
G04 #@! TD*
D21*
G04 #@! TO.C,J36*
X61750000Y-110375000D03*
X61750000Y-111375000D03*
X61750000Y-112375000D03*
X61750000Y-113375000D03*
D22*
X57875000Y-109075000D03*
X57875000Y-114675000D03*
G04 #@! TD*
D15*
G04 #@! TO.C,C21*
X82560000Y-106730000D03*
X82560000Y-105770000D03*
G04 #@! TD*
D11*
G04 #@! TO.C,R16*
X77240000Y-98750000D03*
X78260000Y-98750000D03*
G04 #@! TD*
D21*
G04 #@! TO.C,J34*
X61750000Y-118250000D03*
X61750000Y-119250000D03*
X61750000Y-120250000D03*
X61750000Y-121250000D03*
D22*
X57875000Y-116950000D03*
X57875000Y-122550000D03*
G04 #@! TD*
D23*
G04 #@! TO.C,TP4*
X68500000Y-129000000D03*
G04 #@! TD*
G04 #@! TO.C,TP3*
X81500000Y-127250000D03*
G04 #@! TD*
D24*
G04 #@! TO.C,D7*
X67250000Y-103750000D03*
X67250000Y-104720000D03*
G04 #@! TD*
D25*
G04 #@! TO.C,H2*
X60000000Y-97000000D03*
G04 #@! TD*
D26*
G04 #@! TO.C,C10*
X70510000Y-121020000D03*
X70510000Y-121980000D03*
G04 #@! TD*
D14*
G04 #@! TO.C,C13*
X77730000Y-119250000D03*
X76770000Y-119250000D03*
G04 #@! TD*
D25*
G04 #@! TO.C,H1*
X90000000Y-127000000D03*
G04 #@! TD*
D27*
G04 #@! TO.C,U6*
X75730000Y-102250000D03*
X75730000Y-101750000D03*
X75730000Y-101250000D03*
X75730000Y-100750000D03*
X74250000Y-100750000D03*
X74250000Y-101250000D03*
X74250000Y-101750000D03*
X74250000Y-102250000D03*
G04 #@! TD*
D28*
G04 #@! TO.C,R11*
X81250000Y-129760000D03*
X81250000Y-128740000D03*
G04 #@! TD*
D29*
G04 #@! TO.C,U3*
X83500000Y-124750000D03*
D30*
X83200000Y-125250000D03*
X83200000Y-125750000D03*
X83200000Y-126250000D03*
X83200000Y-126750000D03*
D29*
X83500000Y-127250000D03*
D31*
X84000000Y-127550000D03*
X84500000Y-127550000D03*
X85000000Y-127550000D03*
X85500000Y-127550000D03*
D29*
X86000000Y-127250000D03*
D30*
X86300000Y-126750000D03*
X86300000Y-126250000D03*
X86300000Y-125750000D03*
X86300000Y-125250000D03*
D29*
X86000000Y-124750000D03*
D31*
X85500000Y-124450000D03*
X85000000Y-124450000D03*
X84500000Y-124450000D03*
X84000000Y-124450000D03*
D32*
X84750000Y-126000000D03*
G04 #@! TD*
D26*
G04 #@! TO.C,C29*
X83260000Y-128770000D03*
X83260000Y-129730000D03*
G04 #@! TD*
D33*
G04 #@! TO.C,C18*
X82770000Y-114780000D03*
X83730000Y-114780000D03*
G04 #@! TD*
D26*
G04 #@! TO.C,C28*
X84250000Y-128770000D03*
X84250000Y-129730000D03*
G04 #@! TD*
D28*
G04 #@! TO.C,R1*
X72750000Y-120260000D03*
X72750000Y-119240000D03*
G04 #@! TD*
D34*
G04 #@! TO.C,IC4*
X66000000Y-116500000D03*
D35*
X66500000Y-116900000D03*
D34*
X66000000Y-117300000D03*
X67000000Y-117300000D03*
X67000000Y-116500000D03*
G04 #@! TD*
D36*
G04 #@! TO.C,IC3*
X66762000Y-119487000D03*
X66262000Y-119487000D03*
D37*
X65750000Y-119750000D03*
X65750000Y-120250000D03*
X65750000Y-120750000D03*
D36*
X66262000Y-121013000D03*
X66762000Y-121013000D03*
D37*
X67274000Y-120750000D03*
X67274000Y-120250000D03*
X67274000Y-119750000D03*
G04 #@! TD*
D14*
G04 #@! TO.C,C15*
X83230000Y-107720000D03*
X82270000Y-107720000D03*
G04 #@! TD*
D28*
G04 #@! TO.C,R10*
X85250000Y-129760000D03*
X85250000Y-128740000D03*
G04 #@! TD*
D38*
G04 #@! TO.C,D2*
X77000000Y-122000000D03*
X77500000Y-121750000D03*
X76500000Y-121750000D03*
G04 #@! TD*
D23*
G04 #@! TO.C,TP2*
X77500000Y-101750000D03*
G04 #@! TD*
G04 #@! TO.C,TP1*
X72000000Y-101400000D03*
G04 #@! TD*
D39*
G04 #@! TO.C,IC5*
X69550000Y-94850000D03*
X67250000Y-94850000D03*
X64950000Y-94850000D03*
D40*
X67250000Y-101150000D03*
G04 #@! TD*
D41*
G04 #@! TO.C,J35*
X72110000Y-125395000D03*
X77890000Y-125395000D03*
D42*
X71800000Y-124275000D03*
X72600000Y-124275000D03*
D43*
X73750000Y-124275000D03*
X74750000Y-124275000D03*
X75250000Y-124275000D03*
X76250000Y-124275000D03*
D42*
X77400000Y-124275000D03*
X78200000Y-124275000D03*
X78200000Y-124275000D03*
X77400000Y-124275000D03*
D43*
X76750000Y-124275000D03*
X75750000Y-124275000D03*
X74250000Y-124275000D03*
X73250000Y-124275000D03*
D42*
X72600000Y-124275000D03*
X71800000Y-124275000D03*
D44*
X70680000Y-124875000D03*
D45*
X70680000Y-129075000D03*
D44*
X79320000Y-124875000D03*
D45*
X79320000Y-129075000D03*
G04 #@! TD*
D46*
G04 #@! TO.C,U2*
X71250001Y-117675000D03*
X71750000Y-117675000D03*
X72250000Y-117675000D03*
X72750000Y-117675000D03*
X73250000Y-117675000D03*
X73750001Y-117675000D03*
X74250000Y-117675000D03*
X74750000Y-117675000D03*
X75250000Y-117675000D03*
X75750000Y-117675000D03*
X76249999Y-117675000D03*
X76750000Y-117675000D03*
X77250000Y-117675000D03*
X77750000Y-117675000D03*
X78250000Y-117675000D03*
X78749999Y-117675000D03*
D47*
X80675000Y-115749999D03*
X80675000Y-115250000D03*
X80675000Y-114750000D03*
X80675000Y-114250000D03*
X80675000Y-113750000D03*
X80675000Y-113249999D03*
X80675000Y-112750000D03*
X80675000Y-112250000D03*
X80675000Y-111750000D03*
X80675000Y-111250000D03*
X80675000Y-110750001D03*
X80675000Y-110250000D03*
X80675000Y-109750000D03*
X80675000Y-109250000D03*
X80675000Y-108750000D03*
X80675000Y-108250001D03*
D46*
X78749999Y-106325000D03*
X78250000Y-106325000D03*
X77750000Y-106325000D03*
X77250000Y-106325000D03*
X76750000Y-106325000D03*
X76249999Y-106325000D03*
X75750000Y-106325000D03*
X75250000Y-106325000D03*
X74750000Y-106325000D03*
X74250000Y-106325000D03*
X73750001Y-106325000D03*
X73250000Y-106325000D03*
X72750000Y-106325000D03*
X72250000Y-106325000D03*
X71750000Y-106325000D03*
X71250001Y-106325000D03*
D47*
X69325000Y-108250001D03*
X69325000Y-108750000D03*
X69325000Y-109250000D03*
X69325000Y-109750000D03*
X69325000Y-110250000D03*
X69325000Y-110750001D03*
X69325000Y-111250000D03*
X69325000Y-111750000D03*
X69325000Y-112250000D03*
X69325000Y-112750000D03*
X69325000Y-113249999D03*
X69325000Y-113750000D03*
X69325000Y-114250000D03*
X69325000Y-114750000D03*
X69325000Y-115250000D03*
X69325000Y-115749999D03*
G04 #@! TD*
D25*
G04 #@! TO.C,H4*
X90000000Y-97000000D03*
G04 #@! TD*
D48*
G04 #@! TO.C,IC1*
X63800000Y-128450000D03*
X63800000Y-129100000D03*
X63800000Y-129750000D03*
X65700000Y-129750000D03*
X65700000Y-128450000D03*
G04 #@! TD*
D49*
G04 #@! TO.C,SW2*
X66650000Y-111300000D03*
X66650000Y-114700000D03*
D50*
X65010000Y-113000000D03*
G04 #@! TD*
D28*
G04 #@! TO.C,R14*
X80170000Y-120510000D03*
X80170000Y-119490000D03*
G04 #@! TD*
D33*
G04 #@! TO.C,C26*
X85500000Y-100200000D03*
X86460000Y-100200000D03*
G04 #@! TD*
D51*
G04 #@! TO.C,BT1*
X72968000Y-95500000D03*
X77032000Y-95500000D03*
G04 #@! TD*
D52*
G04 #@! TO.C,U1*
X64000000Y-124250000D03*
X64000000Y-124650000D03*
X64000000Y-125050000D03*
X64000000Y-125450000D03*
X64000000Y-125850000D03*
X64000000Y-126250000D03*
D53*
X64500000Y-126750000D03*
X64900000Y-126750000D03*
X65300000Y-126750000D03*
X65700000Y-126750000D03*
X66100000Y-126750000D03*
X66500000Y-126750000D03*
D52*
X67000000Y-126250000D03*
X67000000Y-125850000D03*
X67000000Y-125450000D03*
X67000000Y-125050000D03*
X67000000Y-124650000D03*
X67000000Y-124250000D03*
D53*
X66500000Y-123750000D03*
X66100000Y-123750000D03*
X65700000Y-123750000D03*
X65300000Y-123750000D03*
X64900000Y-123750000D03*
X64500000Y-123750000D03*
G04 #@! TD*
D54*
G04 #@! TO.C,R12*
X82260000Y-128740000D03*
X82260000Y-129760000D03*
G04 #@! TD*
D10*
G04 #@! TO.C,D4*
X82485000Y-122000000D03*
X81515000Y-122000000D03*
G04 #@! TD*
D28*
G04 #@! TO.C,R13*
X79000000Y-120510000D03*
X79000000Y-119490000D03*
G04 #@! TD*
D33*
G04 #@! TO.C,C27*
X85500000Y-101290000D03*
X86460000Y-101290000D03*
G04 #@! TD*
D55*
G04 #@! TO.C,C32*
X71600000Y-98025000D03*
X71600000Y-99575000D03*
G04 #@! TD*
D33*
G04 #@! TO.C,C19*
X82770000Y-115750000D03*
X83730000Y-115750000D03*
G04 #@! TD*
D26*
G04 #@! TO.C,C34*
X71550000Y-121020000D03*
X71550000Y-121980000D03*
G04 #@! TD*
D28*
G04 #@! TO.C,R23*
X66250000Y-104745000D03*
X66250000Y-103725000D03*
G04 #@! TD*
D21*
G04 #@! TO.C,J37*
X61750000Y-102500000D03*
X61750000Y-103500000D03*
X61750000Y-104500000D03*
X61750000Y-105500000D03*
D22*
X57875000Y-101200000D03*
X57875000Y-106800000D03*
G04 #@! TD*
D25*
G04 #@! TO.C,H3*
X60000000Y-127000000D03*
G04 #@! TD*
M02*
