G04 #@! TF.GenerationSoftware,KiCad,Pcbnew,9.0.1*
G04 #@! TF.CreationDate,2025-04-30T23:29:38-04:00*
G04 #@! TF.ProjectId,Control Board V2,436f6e74-726f-46c2-9042-6f6172642056,rev?*
G04 #@! TF.SameCoordinates,Original*
G04 #@! TF.FileFunction,Copper,L2,Inr*
G04 #@! TF.FilePolarity,Positive*
%FSLAX46Y46*%
G04 Gerber Fmt 4.6, Leading zero omitted, Abs format (unit mm)*
G04 Created by KiCad (PCBNEW 9.0.1) date 2025-04-30 23:29:38*
%MOMM*%
%LPD*%
G01*
G04 APERTURE LIST*
G04 #@! TA.AperFunction,ComponentPad*
%ADD10C,1.700000*%
G04 #@! TD*
G04 #@! TA.AperFunction,ComponentPad*
%ADD11R,1.700000X1.700000*%
G04 #@! TD*
G04 #@! TA.AperFunction,ComponentPad*
%ADD12C,1.000000*%
G04 #@! TD*
G04 #@! TA.AperFunction,ComponentPad*
%ADD13C,5.500000*%
G04 #@! TD*
G04 #@! TA.AperFunction,HeatsinkPad*
%ADD14O,1.000000X2.100000*%
G04 #@! TD*
G04 #@! TA.AperFunction,HeatsinkPad*
%ADD15O,1.000000X1.800000*%
G04 #@! TD*
G04 #@! TA.AperFunction,CastellatedPad*
%ADD16O,3.000000X3.000000*%
G04 #@! TD*
G04 #@! TA.AperFunction,ViaPad*
%ADD17C,0.600000*%
G04 #@! TD*
G04 APERTURE END LIST*
D10*
G04 #@! TO.N,/SWDIO*
G04 #@! TO.C,J1*
X83000000Y-99460000D03*
G04 #@! TO.N,/RESET*
X83000000Y-102000000D03*
G04 #@! TO.N,/SWCLK*
X80460000Y-102000000D03*
D11*
G04 #@! TO.N,GND*
X80460000Y-99460000D03*
G04 #@! TD*
D12*
G04 #@! TO.N,+VBUS*
G04 #@! TO.C,TP4*
X68500000Y-129000000D03*
G04 #@! TD*
G04 #@! TO.N,+3V3USB*
G04 #@! TO.C,TP3*
X81500000Y-127250000D03*
G04 #@! TD*
D13*
G04 #@! TO.N,GND*
G04 #@! TO.C,H2*
X60000000Y-97000000D03*
G04 #@! TD*
G04 #@! TO.N,GND*
G04 #@! TO.C,H1*
X90000000Y-127000000D03*
G04 #@! TD*
D12*
G04 #@! TO.N,+3V3*
G04 #@! TO.C,TP2*
X77500000Y-101750000D03*
G04 #@! TD*
G04 #@! TO.N,+VBAT*
G04 #@! TO.C,TP1*
X72000000Y-101400000D03*
G04 #@! TD*
D14*
G04 #@! TO.N,GND*
G04 #@! TO.C,J35*
X70680000Y-124875000D03*
D15*
X70680000Y-129075000D03*
D14*
X79320000Y-124875000D03*
D15*
X79320000Y-129075000D03*
G04 #@! TD*
D13*
G04 #@! TO.N,GND*
G04 #@! TO.C,H4*
X90000000Y-97000000D03*
G04 #@! TD*
D16*
G04 #@! TO.N,Net-(BT1-+)*
G04 #@! TO.C,BT1*
X72968000Y-95500000D03*
G04 #@! TO.N,GND*
X77032000Y-95500000D03*
G04 #@! TD*
D13*
G04 #@! TO.N,GND*
G04 #@! TO.C,H3*
X60000000Y-127000000D03*
G04 #@! TD*
D17*
G04 #@! TO.N,I2C_3_SCL*
X70896446Y-102603554D03*
G04 #@! TO.N,+3V3*
X87000000Y-103800000D03*
G04 #@! TO.N,GND*
X92500000Y-124250000D03*
X78500000Y-100500000D03*
X63500000Y-120500000D03*
X65228561Y-120829112D03*
X92250000Y-112750000D03*
X68750000Y-103750000D03*
X57750000Y-103250000D03*
X67500000Y-100750000D03*
X68250000Y-101500000D03*
X59500000Y-113250000D03*
X66750000Y-100750000D03*
X87250000Y-108750000D03*
X61000000Y-100750000D03*
X57500000Y-112750000D03*
X64750000Y-104500000D03*
X85750000Y-106000000D03*
X67500000Y-108000000D03*
X63750000Y-114000000D03*
X67250000Y-94850000D03*
X66750000Y-101500000D03*
X77750000Y-97500000D03*
X85500000Y-95500000D03*
X73465000Y-112679759D03*
X61500000Y-115750000D03*
X76925000Y-108750000D03*
X69000000Y-106500000D03*
X92250000Y-111000000D03*
X88500000Y-100750000D03*
X57750000Y-120750000D03*
X92125000Y-114675000D03*
X90000000Y-119500000D03*
X79401024Y-115635616D03*
X58000000Y-118750000D03*
X89000000Y-114750000D03*
X82000000Y-97750000D03*
X60000000Y-108750000D03*
X87000000Y-115000000D03*
X75000000Y-111500000D03*
X89250000Y-109000000D03*
X73800000Y-119200000D03*
X67500000Y-101500000D03*
X60250000Y-116500000D03*
X59250000Y-110500000D03*
X68750000Y-96750000D03*
X92250000Y-102500000D03*
X65762001Y-118918978D03*
X83750000Y-116500000D03*
X92250000Y-105250000D03*
X67765276Y-126003058D03*
X68000000Y-120250000D03*
X60000000Y-123000000D03*
X68250000Y-100750000D03*
X60000000Y-115000000D03*
X66000000Y-101500000D03*
X71000000Y-103750000D03*
X79250000Y-96250000D03*
X89750000Y-122000000D03*
X63250000Y-99000000D03*
X90250000Y-111875000D03*
X65250000Y-127750000D03*
X76497858Y-102788794D03*
X57750000Y-104500000D03*
X79000000Y-119490000D03*
X87000000Y-122750000D03*
X89000000Y-106750000D03*
X79000000Y-111750000D03*
X63250000Y-94500000D03*
X90250000Y-113250000D03*
X60000000Y-107000000D03*
X78000000Y-115750000D03*
X87500000Y-124000000D03*
X79250000Y-94250000D03*
X67750000Y-112248999D03*
X84250000Y-129700000D03*
X65000000Y-99250000D03*
X70250000Y-105000000D03*
X65500000Y-97500000D03*
X72980000Y-107750000D03*
X63750000Y-96750000D03*
X70000000Y-98000000D03*
X83750000Y-114000000D03*
X75500000Y-98500000D03*
X66000000Y-100750000D03*
X84750000Y-98500000D03*
X66750000Y-98750000D03*
X84000000Y-117500000D03*
X85250000Y-103250000D03*
X62750000Y-115000000D03*
X89750000Y-117000000D03*
X62500000Y-124000000D03*
X71550000Y-121980000D03*
X70250000Y-116750000D03*
X64000000Y-100750000D03*
X86750000Y-106500000D03*
X84000000Y-107750000D03*
X67103554Y-123396446D03*
X57500000Y-110750000D03*
X65476392Y-115952785D03*
X84750000Y-126000000D03*
X78500000Y-103250000D03*
X82000000Y-125399020D03*
X87250000Y-117000000D03*
X81750000Y-95500000D03*
G04 #@! TO.N,+3V3*
X86750000Y-129500000D03*
X83400000Y-106750000D03*
X59750000Y-119778000D03*
X86750000Y-128500000D03*
X71371075Y-114480000D03*
X66750000Y-127750000D03*
X66000000Y-111500000D03*
X79250000Y-114850000D03*
X70770000Y-123250000D03*
X62750000Y-128899997D03*
X89750000Y-118250000D03*
X73250000Y-110000000D03*
X71550003Y-108000000D03*
X70400000Y-117676000D03*
X65250000Y-103235000D03*
X66500000Y-120250000D03*
X73250000Y-102000000D03*
X63358554Y-112858554D03*
X63000000Y-104250000D03*
X89750000Y-110750000D03*
X73250000Y-123250000D03*
X67750000Y-115770000D03*
G04 #@! TO.N,+1V8*
X69150000Y-123500000D03*
G04 #@! TO.N,Net-(U1-REGOUT)*
X66017484Y-127524239D03*
G04 #@! TO.N,Net-(IC1-EN)*
X62750000Y-129700000D03*
G04 #@! TO.N,/RESET*
X74250000Y-108000000D03*
X71250000Y-110000002D03*
X74250000Y-116500000D03*
G04 #@! TO.N,Net-(U2-VDDA)*
X77500000Y-121250000D03*
G04 #@! TO.N,Net-(C16-Pad2)*
X71250000Y-115770000D03*
G04 #@! TO.N,+3V3USB*
X85000000Y-111500000D03*
X85575000Y-109000000D03*
X76000000Y-99750000D03*
G04 #@! TO.N,+VBUS*
X73148000Y-125515636D03*
G04 #@! TO.N,I2C_1_SCL*
X64750000Y-116700000D03*
X62500000Y-117500000D03*
X64750000Y-118250000D03*
G04 #@! TO.N,Net-(IC2-SDA_A)*
X64250000Y-123000000D03*
X67511070Y-126770119D03*
G04 #@! TO.N,Net-(IC2-SCL_A)*
X65000000Y-122419571D03*
X68524144Y-127548286D03*
G04 #@! TO.N,I2C_1_SDA*
X66109285Y-112859285D03*
X63274265Y-117798035D03*
G04 #@! TO.N,/SWCLK*
X70700001Y-106991736D03*
G04 #@! TO.N,/SWDIO*
X75519731Y-104730269D03*
X72250000Y-105000000D03*
G04 #@! TO.N,/SD_DET*
X78000000Y-115000000D03*
G04 #@! TO.N,I2C_2_SCL*
X62562500Y-109562500D03*
X63750000Y-106750000D03*
X75675861Y-109245639D03*
G04 #@! TO.N,I2C_2_SDA*
X64799264Y-106700736D03*
X78695047Y-107466577D03*
X63000000Y-111750000D03*
G04 #@! TO.N,I2C_3_SDA*
X73791177Y-103708823D03*
X62775815Y-103030805D03*
G04 #@! TO.N,I2C_3_SCL*
X62553582Y-101553582D03*
G04 #@! TO.N,USART3_TX*
X82500000Y-109750000D03*
X84500000Y-112850000D03*
X78500000Y-110350000D03*
X83750000Y-111650000D03*
G04 #@! TO.N,/FL_PWM*
X75750000Y-119000000D03*
G04 #@! TO.N,/BL_PWM*
X79250000Y-113000000D03*
X85750000Y-122000000D03*
X83600000Y-121250000D03*
G04 #@! TO.N,/FR_PWM*
X70580442Y-113523362D03*
G04 #@! TO.N,/BR_PWM*
X86250000Y-110500000D03*
X86325201Y-108722148D03*
X85975000Y-113875000D03*
G04 #@! TO.N,Net-(U2-BOOT0)*
X66650000Y-114700000D03*
G04 #@! TO.N,/SPI1_MISO*
X72109381Y-113276825D03*
G04 #@! TO.N,/SD_CS*
X72000000Y-116250000D03*
G04 #@! TO.N,/SPI2_MOSI*
X70600000Y-112685852D03*
G04 #@! TO.N,/SPI1_SCK*
X72061206Y-114075376D03*
G04 #@! TO.N,/USB to UART/D+*
X74650000Y-125631427D03*
X75850000Y-125328013D03*
G04 #@! TO.N,Net-(J35-CC1)*
X74500000Y-126990000D03*
G04 #@! TO.N,Net-(J35-CC2)*
X75500000Y-126990000D03*
G04 #@! TO.N,/USART2_RX*
X85902852Y-123363961D03*
X85601000Y-119250000D03*
G04 #@! TO.N,/USART2_TX*
X86750000Y-123500000D03*
X84000000Y-122200000D03*
X81250000Y-119750000D03*
G04 #@! TO.N,/HSE_OUT*
X74850002Y-119000000D03*
G04 #@! TO.N,/HSE_IN*
X73800000Y-121000000D03*
G04 #@! TD*
G04 #@! TA.AperFunction,Conductor*
G04 #@! TO.N,GND*
G36*
X71606043Y-93820185D02*
G01*
X71651798Y-93872989D01*
X71661742Y-93942147D01*
X71632717Y-94005703D01*
X71626685Y-94012181D01*
X71460718Y-94178148D01*
X71301075Y-94386196D01*
X71169958Y-94613299D01*
X71169953Y-94613309D01*
X71069605Y-94855571D01*
X71069602Y-94855581D01*
X71001730Y-95108885D01*
X70967500Y-95368872D01*
X70967500Y-95631127D01*
X70994123Y-95833339D01*
X71001730Y-95891116D01*
X71069602Y-96144418D01*
X71069605Y-96144428D01*
X71169953Y-96386690D01*
X71169958Y-96386700D01*
X71301075Y-96613803D01*
X71460718Y-96821851D01*
X71460726Y-96821860D01*
X71646140Y-97007274D01*
X71646148Y-97007281D01*
X71854196Y-97166924D01*
X72081299Y-97298041D01*
X72081309Y-97298046D01*
X72323571Y-97398394D01*
X72323581Y-97398398D01*
X72576884Y-97466270D01*
X72836880Y-97500500D01*
X72836887Y-97500500D01*
X73099113Y-97500500D01*
X73099120Y-97500500D01*
X73359116Y-97466270D01*
X73612419Y-97398398D01*
X73854697Y-97298043D01*
X74081803Y-97166924D01*
X74289851Y-97007282D01*
X74289855Y-97007277D01*
X74289860Y-97007274D01*
X74475274Y-96821860D01*
X74475277Y-96821855D01*
X74475282Y-96821851D01*
X74634924Y-96613803D01*
X74766043Y-96386697D01*
X74866398Y-96144419D01*
X74934270Y-95891116D01*
X74968500Y-95631120D01*
X74968500Y-95368880D01*
X74934270Y-95108884D01*
X74866398Y-94855581D01*
X74815754Y-94733315D01*
X74766046Y-94613309D01*
X74766041Y-94613299D01*
X74634924Y-94386196D01*
X74475281Y-94178148D01*
X74475274Y-94178140D01*
X74309315Y-94012181D01*
X74275830Y-93950858D01*
X74280814Y-93881166D01*
X74322686Y-93825233D01*
X74388150Y-93800816D01*
X74396996Y-93800500D01*
X88608228Y-93800500D01*
X88675267Y-93820185D01*
X88721022Y-93872989D01*
X88730966Y-93942147D01*
X88701941Y-94005703D01*
X88655681Y-94039061D01*
X88608767Y-94058493D01*
X88608762Y-94058495D01*
X88327162Y-94209014D01*
X88327144Y-94209025D01*
X88061651Y-94386422D01*
X88061650Y-94386423D01*
X87884971Y-94531418D01*
X89059301Y-95705748D01*
X88957670Y-95779588D01*
X88779588Y-95957670D01*
X88705748Y-96059301D01*
X87531418Y-94884971D01*
X87386423Y-95061650D01*
X87386422Y-95061651D01*
X87209025Y-95327144D01*
X87209014Y-95327162D01*
X87058495Y-95608762D01*
X87058493Y-95608767D01*
X86936292Y-95903786D01*
X86843594Y-96209371D01*
X86843591Y-96209382D01*
X86781301Y-96522544D01*
X86781298Y-96522561D01*
X86750000Y-96840341D01*
X86750000Y-97159658D01*
X86781298Y-97477438D01*
X86781301Y-97477455D01*
X86843591Y-97790617D01*
X86843594Y-97790628D01*
X86936292Y-98096213D01*
X87058493Y-98391232D01*
X87058495Y-98391237D01*
X87209014Y-98672837D01*
X87209025Y-98672855D01*
X87386422Y-98938348D01*
X87386432Y-98938362D01*
X87531418Y-99115027D01*
X88705747Y-97940697D01*
X88779588Y-98042330D01*
X88957670Y-98220412D01*
X89059301Y-98294251D01*
X87884971Y-99468580D01*
X87884972Y-99468581D01*
X88061637Y-99613567D01*
X88061651Y-99613577D01*
X88327144Y-99790974D01*
X88327162Y-99790985D01*
X88608762Y-99941504D01*
X88608767Y-99941506D01*
X88903786Y-100063707D01*
X89209371Y-100156405D01*
X89209382Y-100156408D01*
X89522544Y-100218698D01*
X89522561Y-100218701D01*
X89840341Y-100250000D01*
X90159659Y-100250000D01*
X90477438Y-100218701D01*
X90477455Y-100218698D01*
X90790617Y-100156408D01*
X90790628Y-100156405D01*
X91096213Y-100063707D01*
X91391232Y-99941506D01*
X91391237Y-99941504D01*
X91672837Y-99790985D01*
X91672855Y-99790974D01*
X91938348Y-99613577D01*
X91938361Y-99613567D01*
X92115026Y-99468581D01*
X92115027Y-99468580D01*
X90940698Y-98294251D01*
X91042330Y-98220412D01*
X91220412Y-98042330D01*
X91294251Y-97940698D01*
X92468580Y-99115027D01*
X92468581Y-99115026D01*
X92613567Y-98938361D01*
X92613577Y-98938348D01*
X92790974Y-98672855D01*
X92790985Y-98672837D01*
X92941504Y-98391237D01*
X92941509Y-98391225D01*
X92960939Y-98344319D01*
X93004779Y-98289915D01*
X93071073Y-98267850D01*
X93138773Y-98285129D01*
X93186384Y-98336266D01*
X93199500Y-98391771D01*
X93199500Y-125608228D01*
X93179815Y-125675267D01*
X93127011Y-125721022D01*
X93057853Y-125730966D01*
X92994297Y-125701941D01*
X92960939Y-125655681D01*
X92941506Y-125608767D01*
X92941504Y-125608762D01*
X92790985Y-125327162D01*
X92790974Y-125327144D01*
X92613577Y-125061651D01*
X92613567Y-125061637D01*
X92468581Y-124884972D01*
X92468580Y-124884971D01*
X91294251Y-126059301D01*
X91220412Y-125957670D01*
X91042330Y-125779588D01*
X90940698Y-125705748D01*
X92115027Y-124531418D01*
X91938362Y-124386432D01*
X91938348Y-124386422D01*
X91672855Y-124209025D01*
X91672837Y-124209014D01*
X91391237Y-124058495D01*
X91391232Y-124058493D01*
X91096213Y-123936292D01*
X90790628Y-123843594D01*
X90790617Y-123843591D01*
X90477455Y-123781301D01*
X90477438Y-123781298D01*
X90159659Y-123750000D01*
X89840341Y-123750000D01*
X89522561Y-123781298D01*
X89522544Y-123781301D01*
X89209382Y-123843591D01*
X89209371Y-123843594D01*
X88903786Y-123936292D01*
X88608767Y-124058493D01*
X88608762Y-124058495D01*
X88327162Y-124209014D01*
X88327144Y-124209025D01*
X88061651Y-124386422D01*
X88061650Y-124386423D01*
X87884971Y-124531418D01*
X89059301Y-125705748D01*
X88957670Y-125779588D01*
X88779588Y-125957670D01*
X88705748Y-126059301D01*
X87531418Y-124884971D01*
X87386423Y-125061650D01*
X87386422Y-125061651D01*
X87209025Y-125327144D01*
X87209014Y-125327162D01*
X87058495Y-125608762D01*
X87058493Y-125608767D01*
X86936292Y-125903786D01*
X86843594Y-126209371D01*
X86843591Y-126209382D01*
X86781301Y-126522544D01*
X86781298Y-126522561D01*
X86750000Y-126840341D01*
X86750000Y-127159658D01*
X86781298Y-127477438D01*
X86781300Y-127477451D01*
X86795992Y-127551308D01*
X86789765Y-127620900D01*
X86746903Y-127676077D01*
X86681013Y-127699322D01*
X86674375Y-127699500D01*
X86671155Y-127699500D01*
X86516510Y-127730261D01*
X86516498Y-127730264D01*
X86370827Y-127790602D01*
X86370814Y-127790609D01*
X86239711Y-127878210D01*
X86239707Y-127878213D01*
X86128213Y-127989707D01*
X86128210Y-127989711D01*
X86040609Y-128120814D01*
X86040602Y-128120827D01*
X85980264Y-128266498D01*
X85980261Y-128266510D01*
X85949500Y-128421153D01*
X85949500Y-128578846D01*
X85980261Y-128733489D01*
X85980264Y-128733501D01*
X86040602Y-128879172D01*
X86040609Y-128879185D01*
X86075304Y-128931109D01*
X86096182Y-128997786D01*
X86077698Y-129065167D01*
X86075304Y-129068891D01*
X86040609Y-129120814D01*
X86040602Y-129120827D01*
X85980264Y-129266498D01*
X85980261Y-129266510D01*
X85949500Y-129421153D01*
X85949500Y-129578846D01*
X85980261Y-129733489D01*
X85980264Y-129733501D01*
X86040602Y-129879172D01*
X86040609Y-129879185D01*
X86125752Y-130006609D01*
X86146630Y-130073286D01*
X86128146Y-130140666D01*
X86076167Y-130187357D01*
X86022650Y-130199500D01*
X80270583Y-130199500D01*
X80203544Y-130179815D01*
X80157789Y-130127011D01*
X80147845Y-130057853D01*
X80167481Y-130006609D01*
X80206185Y-129948684D01*
X80206192Y-129948671D01*
X80281569Y-129766693D01*
X80281572Y-129766681D01*
X80319999Y-129573495D01*
X80320000Y-129573492D01*
X80320000Y-129325000D01*
X79620000Y-129325000D01*
X79620000Y-128825000D01*
X80320000Y-128825000D01*
X80320000Y-128576508D01*
X80319999Y-128576504D01*
X80281572Y-128383318D01*
X80281569Y-128383306D01*
X80206192Y-128201328D01*
X80206185Y-128201315D01*
X80096751Y-128037537D01*
X80096748Y-128037533D01*
X79957466Y-127898251D01*
X79957462Y-127898248D01*
X79793684Y-127788814D01*
X79793671Y-127788807D01*
X79611691Y-127713429D01*
X79611683Y-127713427D01*
X79570000Y-127705135D01*
X79570000Y-128508011D01*
X79560060Y-128490795D01*
X79504205Y-128434940D01*
X79435796Y-128395444D01*
X79359496Y-128375000D01*
X79280504Y-128375000D01*
X79204204Y-128395444D01*
X79135795Y-128434940D01*
X79079940Y-128490795D01*
X79070000Y-128508011D01*
X79070000Y-127705136D01*
X79069999Y-127705135D01*
X79028316Y-127713427D01*
X79028308Y-127713429D01*
X78846328Y-127788807D01*
X78846315Y-127788814D01*
X78682537Y-127898248D01*
X78682533Y-127898251D01*
X78543251Y-128037533D01*
X78543248Y-128037537D01*
X78433814Y-128201315D01*
X78433807Y-128201328D01*
X78358430Y-128383306D01*
X78358427Y-128383318D01*
X78320000Y-128576504D01*
X78320000Y-128825000D01*
X79020000Y-128825000D01*
X79020000Y-129325000D01*
X78320000Y-129325000D01*
X78320000Y-129573495D01*
X78358427Y-129766681D01*
X78358430Y-129766693D01*
X78433807Y-129948671D01*
X78433814Y-129948684D01*
X78472519Y-130006609D01*
X78493397Y-130073286D01*
X78474913Y-130140666D01*
X78422934Y-130187357D01*
X78369417Y-130199500D01*
X71630583Y-130199500D01*
X71563544Y-130179815D01*
X71517789Y-130127011D01*
X71507845Y-130057853D01*
X71527481Y-130006609D01*
X71566185Y-129948684D01*
X71566192Y-129948671D01*
X71641569Y-129766693D01*
X71641572Y-129766681D01*
X71679999Y-129573495D01*
X71680000Y-129573492D01*
X71680000Y-129325000D01*
X70980000Y-129325000D01*
X70980000Y-128825000D01*
X71680000Y-128825000D01*
X71680000Y-128576508D01*
X71679999Y-128576504D01*
X71641572Y-128383318D01*
X71641569Y-128383306D01*
X71566192Y-128201328D01*
X71566185Y-128201315D01*
X71456751Y-128037537D01*
X71456748Y-128037533D01*
X71317466Y-127898251D01*
X71317462Y-127898248D01*
X71153684Y-127788814D01*
X71153671Y-127788807D01*
X70971691Y-127713429D01*
X70971683Y-127713427D01*
X70930000Y-127705135D01*
X70930000Y-128508011D01*
X70920060Y-128490795D01*
X70864205Y-128434940D01*
X70795796Y-128395444D01*
X70719496Y-128375000D01*
X70640504Y-128375000D01*
X70564204Y-128395444D01*
X70495795Y-128434940D01*
X70439940Y-128490795D01*
X70430000Y-128508011D01*
X70430000Y-127705136D01*
X70429999Y-127705135D01*
X70388316Y-127713427D01*
X70388308Y-127713429D01*
X70206328Y-127788807D01*
X70206315Y-127788814D01*
X70042537Y-127898248D01*
X70042533Y-127898251D01*
X69903251Y-128037533D01*
X69903248Y-128037537D01*
X69793814Y-128201315D01*
X69793807Y-128201328D01*
X69718430Y-128383306D01*
X69718427Y-128383318D01*
X69680000Y-128576504D01*
X69680000Y-128610950D01*
X69660315Y-128677989D01*
X69607511Y-128723744D01*
X69538353Y-128733688D01*
X69474797Y-128704663D01*
X69441439Y-128658402D01*
X69386635Y-128526092D01*
X69386628Y-128526079D01*
X69277139Y-128362218D01*
X69277136Y-128362214D01*
X69147396Y-128232474D01*
X69113911Y-128171151D01*
X69118895Y-128101459D01*
X69142962Y-128064010D01*
X69142072Y-128063279D01*
X69145935Y-128058572D01*
X69233534Y-127927471D01*
X69233534Y-127927470D01*
X69233538Y-127927465D01*
X69293881Y-127781783D01*
X69324644Y-127627128D01*
X69324644Y-127469444D01*
X69324644Y-127469441D01*
X69324643Y-127469439D01*
X69304700Y-127369179D01*
X69293881Y-127314789D01*
X69293879Y-127314784D01*
X69233541Y-127169113D01*
X69233534Y-127169100D01*
X69145933Y-127037997D01*
X69145930Y-127037993D01*
X69034436Y-126926499D01*
X69034432Y-126926496D01*
X68903329Y-126838895D01*
X68903316Y-126838888D01*
X68757645Y-126778550D01*
X68757633Y-126778547D01*
X68602989Y-126747786D01*
X68602986Y-126747786D01*
X68445302Y-126747786D01*
X68445299Y-126747786D01*
X68439237Y-126748383D01*
X68439016Y-126746140D01*
X68379446Y-126740783D01*
X68324288Y-126697896D01*
X68303281Y-126649605D01*
X68280808Y-126536629D01*
X68280807Y-126536622D01*
X68257232Y-126479707D01*
X68220467Y-126390946D01*
X68220460Y-126390933D01*
X68132859Y-126259830D01*
X68132856Y-126259826D01*
X68021362Y-126148332D01*
X68021358Y-126148329D01*
X67890255Y-126060728D01*
X67890242Y-126060721D01*
X67744571Y-126000383D01*
X67744559Y-126000380D01*
X67589915Y-125969619D01*
X67589912Y-125969619D01*
X67432228Y-125969619D01*
X67432225Y-125969619D01*
X67277580Y-126000380D01*
X67277568Y-126000383D01*
X67131897Y-126060721D01*
X67131884Y-126060728D01*
X67000781Y-126148329D01*
X67000777Y-126148332D01*
X66889283Y-126259826D01*
X66889280Y-126259830D01*
X66801679Y-126390933D01*
X66801672Y-126390946D01*
X66741334Y-126536617D01*
X66741331Y-126536629D01*
X66710570Y-126691272D01*
X66710570Y-126792603D01*
X66690885Y-126859642D01*
X66638081Y-126905397D01*
X66568923Y-126915341D01*
X66517679Y-126895705D01*
X66396669Y-126814848D01*
X66396656Y-126814841D01*
X66250985Y-126754503D01*
X66250973Y-126754500D01*
X66096329Y-126723739D01*
X66096326Y-126723739D01*
X65938642Y-126723739D01*
X65938639Y-126723739D01*
X65783994Y-126754500D01*
X65783982Y-126754503D01*
X65638311Y-126814841D01*
X65638298Y-126814848D01*
X65507195Y-126902449D01*
X65507191Y-126902452D01*
X65395697Y-127013946D01*
X65395694Y-127013950D01*
X65308093Y-127145053D01*
X65308086Y-127145066D01*
X65247748Y-127290737D01*
X65247745Y-127290749D01*
X65216984Y-127445392D01*
X65216984Y-127603085D01*
X65247745Y-127757728D01*
X65247748Y-127757740D01*
X65308086Y-127903411D01*
X65308093Y-127903424D01*
X65395694Y-128034527D01*
X65395697Y-128034531D01*
X65507191Y-128146025D01*
X65507195Y-128146028D01*
X65638298Y-128233629D01*
X65638311Y-128233636D01*
X65745917Y-128278207D01*
X65783987Y-128293976D01*
X65923299Y-128321687D01*
X65938637Y-128324738D01*
X65938640Y-128324739D01*
X65938642Y-128324739D01*
X66096326Y-128324739D01*
X66111666Y-128321687D01*
X66181256Y-128327910D01*
X66223546Y-128355624D01*
X66239708Y-128371787D01*
X66239711Y-128371789D01*
X66370814Y-128459390D01*
X66370827Y-128459397D01*
X66446630Y-128490795D01*
X66516503Y-128519737D01*
X66671153Y-128550499D01*
X66671156Y-128550500D01*
X66671158Y-128550500D01*
X66828844Y-128550500D01*
X66828845Y-128550499D01*
X66983497Y-128519737D01*
X67129179Y-128459394D01*
X67260289Y-128371789D01*
X67371789Y-128260289D01*
X67459394Y-128129179D01*
X67462854Y-128120827D01*
X67517163Y-127989711D01*
X67519737Y-127983497D01*
X67543228Y-127865399D01*
X67575612Y-127803489D01*
X67636328Y-127768915D01*
X67706098Y-127772654D01*
X67762770Y-127813520D01*
X67779406Y-127842138D01*
X67814748Y-127927461D01*
X67814753Y-127927471D01*
X67896965Y-128050509D01*
X67917843Y-128117187D01*
X67899359Y-128184567D01*
X67866563Y-128218555D01*
X67866926Y-128218997D01*
X67863140Y-128222103D01*
X67862760Y-128222498D01*
X67862221Y-128222858D01*
X67862214Y-128222863D01*
X67722863Y-128362214D01*
X67722860Y-128362218D01*
X67613371Y-128526079D01*
X67613364Y-128526092D01*
X67537950Y-128708160D01*
X67537947Y-128708170D01*
X67499500Y-128901456D01*
X67499500Y-128901459D01*
X67499500Y-129098541D01*
X67499500Y-129098543D01*
X67499499Y-129098543D01*
X67537947Y-129291829D01*
X67537950Y-129291839D01*
X67613364Y-129473907D01*
X67613371Y-129473920D01*
X67722860Y-129637781D01*
X67722863Y-129637785D01*
X67862214Y-129777136D01*
X67862218Y-129777139D01*
X68026079Y-129886628D01*
X68026092Y-129886635D01*
X68205480Y-129960939D01*
X68259884Y-130004780D01*
X68281949Y-130071074D01*
X68264670Y-130138773D01*
X68213533Y-130186384D01*
X68158028Y-130199500D01*
X63595134Y-130199500D01*
X63528095Y-130179815D01*
X63482340Y-130127011D01*
X63472396Y-130057853D01*
X63480573Y-130028047D01*
X63519737Y-129933497D01*
X63550500Y-129778842D01*
X63550500Y-129621158D01*
X63550500Y-129621155D01*
X63550499Y-129621153D01*
X63543994Y-129588450D01*
X63519737Y-129466503D01*
X63470423Y-129347449D01*
X63462955Y-129277981D01*
X63470421Y-129252551D01*
X63519737Y-129133494D01*
X63550500Y-128978839D01*
X63550500Y-128821155D01*
X63550500Y-128821152D01*
X63550499Y-128821150D01*
X63519737Y-128666500D01*
X63492192Y-128600000D01*
X63459397Y-128520824D01*
X63459390Y-128520811D01*
X63371789Y-128389708D01*
X63371786Y-128389704D01*
X63260292Y-128278210D01*
X63260288Y-128278207D01*
X63127400Y-128189413D01*
X63082595Y-128135800D01*
X63073888Y-128066475D01*
X63077630Y-128050316D01*
X63156405Y-127790628D01*
X63156408Y-127790617D01*
X63218698Y-127477455D01*
X63218701Y-127477438D01*
X63250000Y-127159658D01*
X63250000Y-126840341D01*
X63218701Y-126522561D01*
X63218698Y-126522544D01*
X63164487Y-126250000D01*
X64500000Y-126250000D01*
X66500000Y-126250000D01*
X66500000Y-124250000D01*
X64500000Y-124250000D01*
X64500000Y-126250000D01*
X63164487Y-126250000D01*
X63156408Y-126209382D01*
X63156405Y-126209371D01*
X63063707Y-125903786D01*
X62941506Y-125608767D01*
X62941504Y-125608762D01*
X62790985Y-125327162D01*
X62790974Y-125327144D01*
X62613577Y-125061651D01*
X62613567Y-125061637D01*
X62468581Y-124884972D01*
X62468580Y-124884971D01*
X61294250Y-126059300D01*
X61220412Y-125957670D01*
X61042330Y-125779588D01*
X60940698Y-125705748D01*
X62115027Y-124531418D01*
X61938362Y-124386432D01*
X61938348Y-124386422D01*
X61811613Y-124301740D01*
X61672855Y-124209025D01*
X61672837Y-124209014D01*
X61391237Y-124058495D01*
X61391232Y-124058493D01*
X61096213Y-123936292D01*
X60790628Y-123843594D01*
X60790617Y-123843591D01*
X60477455Y-123781301D01*
X60477438Y-123781298D01*
X60159659Y-123750000D01*
X59840341Y-123750000D01*
X59522561Y-123781298D01*
X59522544Y-123781301D01*
X59209382Y-123843591D01*
X59209371Y-123843594D01*
X58903786Y-123936292D01*
X58608767Y-124058493D01*
X58608762Y-124058495D01*
X58327162Y-124209014D01*
X58327144Y-124209025D01*
X58061651Y-124386422D01*
X58061650Y-124386423D01*
X57884971Y-124531418D01*
X59059301Y-125705748D01*
X58957670Y-125779588D01*
X58779588Y-125957670D01*
X58705748Y-126059301D01*
X57531418Y-124884971D01*
X57386423Y-125061650D01*
X57386422Y-125061651D01*
X57209025Y-125327144D01*
X57209014Y-125327162D01*
X57058495Y-125608762D01*
X57058493Y-125608767D01*
X57039061Y-125655681D01*
X56995220Y-125710084D01*
X56928926Y-125732149D01*
X56861226Y-125714870D01*
X56813616Y-125663732D01*
X56800500Y-125608228D01*
X56800500Y-122921153D01*
X63449500Y-122921153D01*
X63449500Y-123078846D01*
X63480261Y-123233489D01*
X63480264Y-123233501D01*
X63540602Y-123379172D01*
X63540609Y-123379185D01*
X63628210Y-123510288D01*
X63628213Y-123510292D01*
X63739707Y-123621786D01*
X63739711Y-123621789D01*
X63870814Y-123709390D01*
X63870827Y-123709397D01*
X64016498Y-123769735D01*
X64016503Y-123769737D01*
X64171153Y-123800499D01*
X64171156Y-123800500D01*
X64171158Y-123800500D01*
X64328844Y-123800500D01*
X64328845Y-123800499D01*
X64483497Y-123769737D01*
X64629179Y-123709394D01*
X64760289Y-123621789D01*
X64871789Y-123510289D01*
X64931348Y-123421153D01*
X68349500Y-123421153D01*
X68349500Y-123578846D01*
X68380261Y-123733489D01*
X68380264Y-123733501D01*
X68440602Y-123879172D01*
X68440609Y-123879185D01*
X68528210Y-124010288D01*
X68528213Y-124010292D01*
X68639707Y-124121786D01*
X68639711Y-124121789D01*
X68770814Y-124209390D01*
X68770827Y-124209397D01*
X68848926Y-124241746D01*
X68916503Y-124269737D01*
X69071153Y-124300499D01*
X69071156Y-124300500D01*
X69071158Y-124300500D01*
X69228844Y-124300500D01*
X69228845Y-124300499D01*
X69383497Y-124269737D01*
X69451074Y-124241746D01*
X69508548Y-124217940D01*
X69578017Y-124210471D01*
X69640496Y-124241746D01*
X69676148Y-124301835D01*
X69680000Y-124332501D01*
X69680000Y-124625000D01*
X70380000Y-124625000D01*
X70380000Y-125125000D01*
X69680000Y-125125000D01*
X69680000Y-125523495D01*
X69718427Y-125716681D01*
X69718430Y-125716693D01*
X69793807Y-125898671D01*
X69793814Y-125898684D01*
X69903248Y-126062462D01*
X69903251Y-126062466D01*
X70042533Y-126201748D01*
X70042537Y-126201751D01*
X70206315Y-126311185D01*
X70206328Y-126311192D01*
X70388308Y-126386569D01*
X70430000Y-126394862D01*
X70430000Y-125591988D01*
X70439940Y-125609205D01*
X70495795Y-125665060D01*
X70564204Y-125704556D01*
X70640504Y-125725000D01*
X70719496Y-125725000D01*
X70795796Y-125704556D01*
X70864205Y-125665060D01*
X70920060Y-125609205D01*
X70930000Y-125591988D01*
X70930000Y-126394862D01*
X70971690Y-126386569D01*
X70971692Y-126386569D01*
X71153671Y-126311192D01*
X71153684Y-126311185D01*
X71317462Y-126201751D01*
X71317466Y-126201748D01*
X71456748Y-126062466D01*
X71456751Y-126062462D01*
X71566185Y-125898684D01*
X71566189Y-125898675D01*
X71567839Y-125894694D01*
X71611676Y-125840287D01*
X71677969Y-125818218D01*
X71745670Y-125835493D01*
X71757896Y-125843768D01*
X71762771Y-125847509D01*
X71762775Y-125847513D01*
X71762779Y-125847515D01*
X71762780Y-125847516D01*
X71763303Y-125847818D01*
X71891725Y-125921962D01*
X72035550Y-125960500D01*
X72035553Y-125960500D01*
X72184447Y-125960500D01*
X72184450Y-125960500D01*
X72328275Y-125921962D01*
X72328277Y-125921960D01*
X72328279Y-125921960D01*
X72334881Y-125919226D01*
X72404350Y-125911759D01*
X72466829Y-125943035D01*
X72485433Y-125964897D01*
X72526210Y-126025924D01*
X72526213Y-126025928D01*
X72637707Y-126137422D01*
X72637711Y-126137425D01*
X72768814Y-126225026D01*
X72768827Y-126225033D01*
X72902994Y-126280606D01*
X72914503Y-126285373D01*
X73044268Y-126311185D01*
X73069153Y-126316135D01*
X73069156Y-126316136D01*
X73069158Y-126316136D01*
X73226844Y-126316136D01*
X73226845Y-126316135D01*
X73381497Y-126285373D01*
X73527179Y-126225030D01*
X73658289Y-126137425D01*
X73769789Y-126025925D01*
X73769791Y-126025921D01*
X73771481Y-126024232D01*
X73787969Y-126015228D01*
X73801459Y-126002158D01*
X73817996Y-125998832D01*
X73832804Y-125990747D01*
X73851541Y-125992087D01*
X73869957Y-125988384D01*
X73885668Y-125994527D01*
X73902496Y-125995731D01*
X73917533Y-126006987D01*
X73935029Y-126013829D01*
X73954379Y-126034569D01*
X73958430Y-126037602D01*
X73959589Y-126039176D01*
X73960968Y-126041081D01*
X74028211Y-126141716D01*
X74048688Y-126162193D01*
X74054468Y-126170173D01*
X74062996Y-126194188D01*
X74075208Y-126216552D01*
X74074492Y-126226559D01*
X74077850Y-126236014D01*
X74072041Y-126260824D01*
X74070224Y-126286244D01*
X74064210Y-126294276D01*
X74061924Y-126304045D01*
X74043623Y-126321777D01*
X74028352Y-126342177D01*
X74022934Y-126346012D01*
X73989707Y-126368213D01*
X73878213Y-126479707D01*
X73878210Y-126479711D01*
X73790609Y-126610814D01*
X73790602Y-126610827D01*
X73730264Y-126756498D01*
X73730261Y-126756510D01*
X73699500Y-126911153D01*
X73699500Y-127068846D01*
X73730261Y-127223489D01*
X73730264Y-127223501D01*
X73790602Y-127369172D01*
X73790609Y-127369185D01*
X73878210Y-127500288D01*
X73878213Y-127500292D01*
X73989707Y-127611786D01*
X73989711Y-127611789D01*
X74120814Y-127699390D01*
X74120827Y-127699397D01*
X74195348Y-127730264D01*
X74266503Y-127759737D01*
X74412647Y-127788807D01*
X74421153Y-127790499D01*
X74421156Y-127790500D01*
X74421158Y-127790500D01*
X74578844Y-127790500D01*
X74578845Y-127790499D01*
X74733497Y-127759737D01*
X74879179Y-127699394D01*
X74931110Y-127664694D01*
X74997785Y-127643816D01*
X75065165Y-127662300D01*
X75068863Y-127664676D01*
X75120821Y-127699394D01*
X75120823Y-127699395D01*
X75120825Y-127699396D01*
X75195348Y-127730264D01*
X75266503Y-127759737D01*
X75412647Y-127788807D01*
X75421153Y-127790499D01*
X75421156Y-127790500D01*
X75421158Y-127790500D01*
X75578844Y-127790500D01*
X75578845Y-127790499D01*
X75733497Y-127759737D01*
X75846166Y-127713067D01*
X75879172Y-127699397D01*
X75879172Y-127699396D01*
X75879179Y-127699394D01*
X76010289Y-127611789D01*
X76121789Y-127500289D01*
X76209394Y-127369179D01*
X76217942Y-127348543D01*
X80499499Y-127348543D01*
X80537947Y-127541829D01*
X80537950Y-127541839D01*
X80613364Y-127723907D01*
X80613371Y-127723920D01*
X80722860Y-127887781D01*
X80722863Y-127887785D01*
X80862214Y-128027136D01*
X80862218Y-128027139D01*
X81026079Y-128136628D01*
X81026092Y-128136635D01*
X81182277Y-128201328D01*
X81208165Y-128212051D01*
X81208169Y-128212051D01*
X81208170Y-128212052D01*
X81401456Y-128250500D01*
X81401459Y-128250500D01*
X81598543Y-128250500D01*
X81756915Y-128218997D01*
X81791835Y-128212051D01*
X81973914Y-128136632D01*
X82137782Y-128027139D01*
X82277139Y-127887782D01*
X82386632Y-127723914D01*
X82394411Y-127705135D01*
X82433075Y-127611789D01*
X82462051Y-127541835D01*
X82496395Y-127369179D01*
X82500500Y-127348543D01*
X82500500Y-127151456D01*
X82462052Y-126958170D01*
X82462051Y-126958169D01*
X82462051Y-126958165D01*
X82448934Y-126926497D01*
X82386635Y-126776092D01*
X82386628Y-126776079D01*
X82277139Y-126612218D01*
X82277136Y-126612214D01*
X82137785Y-126472863D01*
X82137781Y-126472860D01*
X81973920Y-126363371D01*
X81973907Y-126363364D01*
X81791839Y-126287950D01*
X81791829Y-126287947D01*
X81598543Y-126249500D01*
X81598541Y-126249500D01*
X81401459Y-126249500D01*
X81401457Y-126249500D01*
X81208170Y-126287947D01*
X81208160Y-126287950D01*
X81026092Y-126363364D01*
X81026079Y-126363371D01*
X80862218Y-126472860D01*
X80862214Y-126472863D01*
X80722863Y-126612214D01*
X80722860Y-126612218D01*
X80613371Y-126776079D01*
X80613364Y-126776092D01*
X80537950Y-126958160D01*
X80537947Y-126958170D01*
X80499500Y-127151456D01*
X80499500Y-127151459D01*
X80499500Y-127348541D01*
X80499500Y-127348543D01*
X80499499Y-127348543D01*
X76217942Y-127348543D01*
X76217943Y-127348541D01*
X76231925Y-127314784D01*
X76269737Y-127223497D01*
X76280556Y-127169107D01*
X76290091Y-127121175D01*
X76290091Y-127121174D01*
X76300499Y-127068846D01*
X76300500Y-127068844D01*
X76300500Y-126911155D01*
X76300499Y-126911153D01*
X76288128Y-126848961D01*
X76269737Y-126756503D01*
X76256166Y-126723739D01*
X76209397Y-126610827D01*
X76209390Y-126610814D01*
X76121789Y-126479711D01*
X76121786Y-126479707D01*
X76010292Y-126368213D01*
X76010288Y-126368210D01*
X75964076Y-126337332D01*
X75919271Y-126283720D01*
X75910564Y-126214395D01*
X75940719Y-126151367D01*
X76000162Y-126114648D01*
X76008776Y-126112613D01*
X76083497Y-126097750D01*
X76229179Y-126037407D01*
X76360289Y-125949802D01*
X76471789Y-125838302D01*
X76559394Y-125707192D01*
X76619737Y-125561510D01*
X76650500Y-125406855D01*
X76650500Y-125320550D01*
X77324500Y-125320550D01*
X77324500Y-125469450D01*
X77349168Y-125561510D01*
X77363038Y-125613276D01*
X77363039Y-125613277D01*
X77437484Y-125742221D01*
X77437486Y-125742224D01*
X77437487Y-125742225D01*
X77542775Y-125847513D01*
X77542776Y-125847514D01*
X77542778Y-125847515D01*
X77543303Y-125847818D01*
X77671725Y-125921962D01*
X77815550Y-125960500D01*
X77815553Y-125960500D01*
X77964447Y-125960500D01*
X77964450Y-125960500D01*
X78108275Y-125921962D01*
X78237225Y-125847513D01*
X78237233Y-125847504D01*
X78242099Y-125843771D01*
X78307266Y-125818570D01*
X78375712Y-125832601D01*
X78425707Y-125881410D01*
X78432156Y-125894684D01*
X78433808Y-125898672D01*
X78433814Y-125898684D01*
X78543248Y-126062462D01*
X78543251Y-126062466D01*
X78682533Y-126201748D01*
X78682537Y-126201751D01*
X78846315Y-126311185D01*
X78846328Y-126311192D01*
X79028308Y-126386569D01*
X79070000Y-126394862D01*
X79070000Y-125591988D01*
X79079940Y-125609205D01*
X79135795Y-125665060D01*
X79204204Y-125704556D01*
X79280504Y-125725000D01*
X79359496Y-125725000D01*
X79435796Y-125704556D01*
X79504205Y-125665060D01*
X79560060Y-125609205D01*
X79570000Y-125591988D01*
X79570000Y-126394862D01*
X79611690Y-126386569D01*
X79611692Y-126386569D01*
X79793671Y-126311192D01*
X79793684Y-126311185D01*
X79957462Y-126201751D01*
X79957466Y-126201748D01*
X80096748Y-126062466D01*
X80096751Y-126062462D01*
X80206185Y-125898684D01*
X80206192Y-125898671D01*
X80281569Y-125716693D01*
X80281572Y-125716681D01*
X80319999Y-125523495D01*
X80320000Y-125523492D01*
X80320000Y-125125000D01*
X79620000Y-125125000D01*
X79620000Y-124625000D01*
X80320000Y-124625000D01*
X80320000Y-124226508D01*
X80319999Y-124226504D01*
X80281572Y-124033318D01*
X80281569Y-124033306D01*
X80206192Y-123851328D01*
X80206185Y-123851315D01*
X80096751Y-123687537D01*
X80096748Y-123687533D01*
X79957466Y-123548251D01*
X79957462Y-123548248D01*
X79793684Y-123438814D01*
X79793671Y-123438807D01*
X79611691Y-123363429D01*
X79611683Y-123363427D01*
X79570000Y-123355135D01*
X79570000Y-124158011D01*
X79560060Y-124140795D01*
X79504205Y-124084940D01*
X79435796Y-124045444D01*
X79359496Y-124025000D01*
X79280504Y-124025000D01*
X79204204Y-124045444D01*
X79135795Y-124084940D01*
X79079940Y-124140795D01*
X79070000Y-124158011D01*
X79070000Y-123355136D01*
X79069999Y-123355135D01*
X79028316Y-123363427D01*
X79028308Y-123363429D01*
X78846328Y-123438807D01*
X78846315Y-123438814D01*
X78682537Y-123548248D01*
X78682533Y-123548251D01*
X78543251Y-123687533D01*
X78543248Y-123687537D01*
X78433814Y-123851315D01*
X78433807Y-123851328D01*
X78358430Y-124033306D01*
X78358427Y-124033318D01*
X78320000Y-124226504D01*
X78320000Y-124625000D01*
X79020000Y-124625000D01*
X79020000Y-125125000D01*
X78458690Y-125125000D01*
X78391651Y-125105315D01*
X78351303Y-125063000D01*
X78350516Y-125061637D01*
X78342513Y-125047775D01*
X78237225Y-124942487D01*
X78237224Y-124942486D01*
X78237221Y-124942484D01*
X78108277Y-124868039D01*
X78108276Y-124868038D01*
X78072318Y-124858403D01*
X77964450Y-124829500D01*
X77815550Y-124829500D01*
X77729255Y-124852622D01*
X77671723Y-124868038D01*
X77671722Y-124868039D01*
X77542778Y-124942484D01*
X77542773Y-124942488D01*
X77437488Y-125047773D01*
X77437484Y-125047778D01*
X77363039Y-125176722D01*
X77363038Y-125176723D01*
X77343769Y-125248637D01*
X77324500Y-125320550D01*
X76650500Y-125320550D01*
X76650500Y-125249171D01*
X76650500Y-125249168D01*
X76650499Y-125249166D01*
X76636089Y-125176722D01*
X76619737Y-125094516D01*
X76600378Y-125047778D01*
X76559397Y-124948840D01*
X76559390Y-124948827D01*
X76471789Y-124817724D01*
X76471786Y-124817720D01*
X76360292Y-124706226D01*
X76360288Y-124706223D01*
X76229185Y-124618622D01*
X76229172Y-124618615D01*
X76083501Y-124558277D01*
X76083489Y-124558274D01*
X75928845Y-124527513D01*
X75928842Y-124527513D01*
X75771158Y-124527513D01*
X75771155Y-124527513D01*
X75616510Y-124558274D01*
X75616498Y-124558277D01*
X75470827Y-124618615D01*
X75470814Y-124618622D01*
X75339711Y-124706223D01*
X75339707Y-124706226D01*
X75228213Y-124817720D01*
X75228210Y-124817724D01*
X75186916Y-124879525D01*
X75133303Y-124924330D01*
X75063978Y-124933037D01*
X75035238Y-124923325D01*
X75034808Y-124924364D01*
X74883501Y-124861691D01*
X74883489Y-124861688D01*
X74728845Y-124830927D01*
X74728842Y-124830927D01*
X74571158Y-124830927D01*
X74571155Y-124830927D01*
X74416510Y-124861688D01*
X74416498Y-124861691D01*
X74270827Y-124922029D01*
X74270814Y-124922036D01*
X74139711Y-125009637D01*
X74026517Y-125122831D01*
X73965194Y-125156315D01*
X73895502Y-125151331D01*
X73839569Y-125109459D01*
X73835734Y-125104040D01*
X73769789Y-125005347D01*
X73769786Y-125005343D01*
X73658292Y-124893849D01*
X73658288Y-124893846D01*
X73527185Y-124806245D01*
X73527172Y-124806238D01*
X73381501Y-124745900D01*
X73381489Y-124745897D01*
X73226845Y-124715136D01*
X73226842Y-124715136D01*
X73069158Y-124715136D01*
X73069155Y-124715136D01*
X72914510Y-124745897D01*
X72914498Y-124745900D01*
X72768827Y-124806238D01*
X72768814Y-124806245D01*
X72637711Y-124893846D01*
X72608090Y-124923467D01*
X72546766Y-124956951D01*
X72477075Y-124951965D01*
X72458410Y-124943171D01*
X72328277Y-124868039D01*
X72328276Y-124868038D01*
X72292318Y-124858403D01*
X72184450Y-124829500D01*
X72035550Y-124829500D01*
X71949255Y-124852622D01*
X71891723Y-124868038D01*
X71891722Y-124868039D01*
X71762778Y-124942484D01*
X71762773Y-124942488D01*
X71657489Y-125047772D01*
X71657485Y-125047778D01*
X71648697Y-125063000D01*
X71598131Y-125111215D01*
X71541310Y-125125000D01*
X70980000Y-125125000D01*
X70980000Y-124625000D01*
X71680000Y-124625000D01*
X71680000Y-124226508D01*
X71679999Y-124226504D01*
X71641572Y-124033318D01*
X71641569Y-124033306D01*
X71566192Y-123851328D01*
X71566185Y-123851315D01*
X71492630Y-123741233D01*
X71471752Y-123674556D01*
X71481171Y-123624890D01*
X71539735Y-123483501D01*
X71539737Y-123483497D01*
X71570500Y-123328842D01*
X71570500Y-123171158D01*
X71570500Y-123171155D01*
X71570499Y-123171153D01*
X72449500Y-123171153D01*
X72449500Y-123328846D01*
X72480261Y-123483489D01*
X72480264Y-123483501D01*
X72540602Y-123629172D01*
X72540609Y-123629185D01*
X72628210Y-123760288D01*
X72628213Y-123760292D01*
X72739707Y-123871786D01*
X72739711Y-123871789D01*
X72870814Y-123959390D01*
X72870827Y-123959397D01*
X73016498Y-124019735D01*
X73016503Y-124019737D01*
X73145740Y-124045444D01*
X73171153Y-124050499D01*
X73171156Y-124050500D01*
X73171158Y-124050500D01*
X73328844Y-124050500D01*
X73328845Y-124050499D01*
X73483497Y-124019737D01*
X73629179Y-123959394D01*
X73760289Y-123871789D01*
X73871789Y-123760289D01*
X73959394Y-123629179D01*
X74019737Y-123483497D01*
X74050500Y-123328842D01*
X74050500Y-123171158D01*
X74050500Y-123171155D01*
X74050499Y-123171153D01*
X74027575Y-123055906D01*
X74019737Y-123016503D01*
X74019735Y-123016498D01*
X73959397Y-122870827D01*
X73959390Y-122870814D01*
X73871789Y-122739711D01*
X73871786Y-122739707D01*
X73760292Y-122628213D01*
X73760288Y-122628210D01*
X73629185Y-122540609D01*
X73629172Y-122540602D01*
X73483501Y-122480264D01*
X73483489Y-122480261D01*
X73328845Y-122449500D01*
X73328842Y-122449500D01*
X73171158Y-122449500D01*
X73171155Y-122449500D01*
X73016510Y-122480261D01*
X73016498Y-122480264D01*
X72870827Y-122540602D01*
X72870814Y-122540609D01*
X72739711Y-122628210D01*
X72739707Y-122628213D01*
X72628213Y-122739707D01*
X72628210Y-122739711D01*
X72540609Y-122870814D01*
X72540602Y-122870827D01*
X72480264Y-123016498D01*
X72480261Y-123016510D01*
X72449500Y-123171153D01*
X71570499Y-123171153D01*
X71547575Y-123055906D01*
X71539737Y-123016503D01*
X71539735Y-123016498D01*
X71479397Y-122870827D01*
X71479390Y-122870814D01*
X71391789Y-122739711D01*
X71391786Y-122739707D01*
X71280292Y-122628213D01*
X71280288Y-122628210D01*
X71149185Y-122540609D01*
X71149172Y-122540602D01*
X71003501Y-122480264D01*
X71003489Y-122480261D01*
X70848845Y-122449500D01*
X70848842Y-122449500D01*
X70691158Y-122449500D01*
X70691155Y-122449500D01*
X70536510Y-122480261D01*
X70536498Y-122480264D01*
X70390827Y-122540602D01*
X70390814Y-122540609D01*
X70259711Y-122628210D01*
X70259707Y-122628213D01*
X70148213Y-122739707D01*
X70148210Y-122739711D01*
X70060609Y-122870814D01*
X70060604Y-122870823D01*
X70008458Y-122996717D01*
X69964617Y-123051120D01*
X69898323Y-123073185D01*
X69830624Y-123055906D01*
X69790795Y-123018155D01*
X69771789Y-122989711D01*
X69771786Y-122989707D01*
X69660292Y-122878213D01*
X69660288Y-122878210D01*
X69529185Y-122790609D01*
X69529172Y-122790602D01*
X69383501Y-122730264D01*
X69383489Y-122730261D01*
X69228845Y-122699500D01*
X69228842Y-122699500D01*
X69071158Y-122699500D01*
X69071155Y-122699500D01*
X68916510Y-122730261D01*
X68916498Y-122730264D01*
X68770827Y-122790602D01*
X68770814Y-122790609D01*
X68639711Y-122878210D01*
X68639707Y-122878213D01*
X68528213Y-122989707D01*
X68528210Y-122989711D01*
X68440609Y-123120814D01*
X68440602Y-123120827D01*
X68380264Y-123266498D01*
X68380261Y-123266510D01*
X68349500Y-123421153D01*
X64931348Y-123421153D01*
X64959394Y-123379179D01*
X64995127Y-123292909D01*
X65038965Y-123238509D01*
X65085494Y-123218747D01*
X65233497Y-123189308D01*
X65379179Y-123128965D01*
X65510289Y-123041360D01*
X65621789Y-122929860D01*
X65709394Y-122798750D01*
X65769737Y-122653068D01*
X65800500Y-122498413D01*
X65800500Y-122340729D01*
X65800500Y-122340726D01*
X65800499Y-122340724D01*
X65790529Y-122290602D01*
X65769737Y-122186074D01*
X65725322Y-122078846D01*
X65709397Y-122040398D01*
X65709390Y-122040385D01*
X65621789Y-121909282D01*
X65621786Y-121909278D01*
X65510292Y-121797784D01*
X65510288Y-121797781D01*
X65379185Y-121710180D01*
X65379172Y-121710173D01*
X65233501Y-121649835D01*
X65233489Y-121649832D01*
X65078845Y-121619071D01*
X65078842Y-121619071D01*
X64921158Y-121619071D01*
X64921155Y-121619071D01*
X64766510Y-121649832D01*
X64766498Y-121649835D01*
X64620827Y-121710173D01*
X64620814Y-121710180D01*
X64489711Y-121797781D01*
X64489707Y-121797784D01*
X64378213Y-121909278D01*
X64378210Y-121909282D01*
X64290609Y-122040385D01*
X64290604Y-122040394D01*
X64254873Y-122126659D01*
X64211032Y-122181062D01*
X64164504Y-122200823D01*
X64016508Y-122230261D01*
X64016498Y-122230264D01*
X63870827Y-122290602D01*
X63870814Y-122290609D01*
X63739711Y-122378210D01*
X63739707Y-122378213D01*
X63628213Y-122489707D01*
X63628210Y-122489711D01*
X63540609Y-122620814D01*
X63540602Y-122620827D01*
X63480264Y-122766498D01*
X63480261Y-122766510D01*
X63449500Y-122921153D01*
X56800500Y-122921153D01*
X56800500Y-119699153D01*
X58949500Y-119699153D01*
X58949500Y-119856846D01*
X58980261Y-120011489D01*
X58980264Y-120011501D01*
X59040602Y-120157172D01*
X59040609Y-120157185D01*
X59128210Y-120288288D01*
X59128213Y-120288292D01*
X59239707Y-120399786D01*
X59239711Y-120399789D01*
X59370814Y-120487390D01*
X59370827Y-120487397D01*
X59499277Y-120540602D01*
X59516503Y-120547737D01*
X59671153Y-120578499D01*
X59671156Y-120578500D01*
X59671158Y-120578500D01*
X59828844Y-120578500D01*
X59828845Y-120578499D01*
X59983497Y-120547737D01*
X60129179Y-120487394D01*
X60260289Y-120399789D01*
X60371789Y-120288289D01*
X60450057Y-120171153D01*
X65699500Y-120171153D01*
X65699500Y-120328846D01*
X65730261Y-120483489D01*
X65730264Y-120483501D01*
X65790602Y-120629172D01*
X65790609Y-120629185D01*
X65878210Y-120760288D01*
X65878213Y-120760292D01*
X65989707Y-120871786D01*
X65989711Y-120871789D01*
X66120814Y-120959390D01*
X66120827Y-120959397D01*
X66258683Y-121016498D01*
X66266503Y-121019737D01*
X66421153Y-121050499D01*
X66421156Y-121050500D01*
X66421158Y-121050500D01*
X66578844Y-121050500D01*
X66578845Y-121050499D01*
X66733497Y-121019737D01*
X66879179Y-120959394D01*
X66936411Y-120921153D01*
X72999500Y-120921153D01*
X72999500Y-121078846D01*
X73030261Y-121233489D01*
X73030264Y-121233501D01*
X73090602Y-121379172D01*
X73090609Y-121379185D01*
X73178210Y-121510288D01*
X73178213Y-121510292D01*
X73289707Y-121621786D01*
X73289711Y-121621789D01*
X73420814Y-121709390D01*
X73420827Y-121709397D01*
X73558683Y-121766498D01*
X73566503Y-121769737D01*
X73707489Y-121797781D01*
X73721153Y-121800499D01*
X73721156Y-121800500D01*
X73721158Y-121800500D01*
X73878844Y-121800500D01*
X73878845Y-121800499D01*
X74033497Y-121769737D01*
X74146166Y-121723067D01*
X74179172Y-121709397D01*
X74179172Y-121709396D01*
X74179179Y-121709394D01*
X74310289Y-121621789D01*
X74421789Y-121510289D01*
X74509394Y-121379179D01*
X74569737Y-121233497D01*
X74582138Y-121171153D01*
X76699500Y-121171153D01*
X76699500Y-121328846D01*
X76730261Y-121483489D01*
X76730264Y-121483501D01*
X76790602Y-121629172D01*
X76790609Y-121629185D01*
X76878210Y-121760288D01*
X76878213Y-121760292D01*
X76989707Y-121871786D01*
X76989711Y-121871789D01*
X77120814Y-121959390D01*
X77120827Y-121959397D01*
X77266498Y-122019735D01*
X77266503Y-122019737D01*
X77403854Y-122047058D01*
X77421153Y-122050499D01*
X77421156Y-122050500D01*
X77421158Y-122050500D01*
X77578844Y-122050500D01*
X77578845Y-122050499D01*
X77733497Y-122019737D01*
X77879179Y-121959394D01*
X78010289Y-121871789D01*
X78121789Y-121760289D01*
X78209394Y-121629179D01*
X78212854Y-121620827D01*
X78267163Y-121489711D01*
X78269737Y-121483497D01*
X78300500Y-121328842D01*
X78300500Y-121171158D01*
X78300500Y-121171155D01*
X78300499Y-121171153D01*
X82799500Y-121171153D01*
X82799500Y-121328846D01*
X82830261Y-121483489D01*
X82830264Y-121483501D01*
X82890602Y-121629172D01*
X82890609Y-121629185D01*
X82978210Y-121760288D01*
X82978213Y-121760292D01*
X83089707Y-121871786D01*
X83089711Y-121871789D01*
X83161512Y-121919766D01*
X83206317Y-121973379D01*
X83215024Y-122042704D01*
X83214239Y-122047058D01*
X83199500Y-122121158D01*
X83199500Y-122278846D01*
X83230261Y-122433489D01*
X83230264Y-122433501D01*
X83290602Y-122579172D01*
X83290609Y-122579185D01*
X83378210Y-122710288D01*
X83378213Y-122710292D01*
X83489707Y-122821786D01*
X83489711Y-122821789D01*
X83620814Y-122909390D01*
X83620827Y-122909397D01*
X83766498Y-122969735D01*
X83766503Y-122969737D01*
X83902140Y-122996717D01*
X83921153Y-123000499D01*
X83921156Y-123000500D01*
X83921158Y-123000500D01*
X84078844Y-123000500D01*
X84078845Y-123000499D01*
X84233497Y-122969737D01*
X84379179Y-122909394D01*
X84510289Y-122821789D01*
X84621789Y-122710289D01*
X84709394Y-122579179D01*
X84769737Y-122433497D01*
X84785165Y-122355936D01*
X84817549Y-122294025D01*
X84878265Y-122259451D01*
X84948034Y-122263190D01*
X85004707Y-122304056D01*
X85021343Y-122332675D01*
X85040602Y-122379172D01*
X85040609Y-122379185D01*
X85128210Y-122510288D01*
X85128213Y-122510292D01*
X85239707Y-122621786D01*
X85239711Y-122621789D01*
X85277872Y-122647288D01*
X85322677Y-122700901D01*
X85331384Y-122770226D01*
X85301229Y-122833253D01*
X85296664Y-122838069D01*
X85281066Y-122853667D01*
X85281062Y-122853672D01*
X85193461Y-122984775D01*
X85193454Y-122984788D01*
X85133116Y-123130459D01*
X85133113Y-123130471D01*
X85102352Y-123285114D01*
X85102352Y-123442807D01*
X85133113Y-123597450D01*
X85133116Y-123597462D01*
X85193454Y-123743133D01*
X85193461Y-123743146D01*
X85281062Y-123874249D01*
X85281065Y-123874253D01*
X85392559Y-123985747D01*
X85392563Y-123985750D01*
X85523666Y-124073351D01*
X85523679Y-124073358D01*
X85640604Y-124121789D01*
X85669355Y-124133698D01*
X85824005Y-124164460D01*
X85824008Y-124164461D01*
X85824010Y-124164461D01*
X85981696Y-124164461D01*
X85981697Y-124164460D01*
X86136349Y-124133698D01*
X86149922Y-124128076D01*
X86219391Y-124120606D01*
X86266267Y-124139534D01*
X86370814Y-124209390D01*
X86370827Y-124209397D01*
X86448926Y-124241746D01*
X86516503Y-124269737D01*
X86671153Y-124300499D01*
X86671156Y-124300500D01*
X86671158Y-124300500D01*
X86828844Y-124300500D01*
X86828845Y-124300499D01*
X86983497Y-124269737D01*
X87129179Y-124209394D01*
X87260289Y-124121789D01*
X87371789Y-124010289D01*
X87459394Y-123879179D01*
X87519737Y-123733497D01*
X87550500Y-123578842D01*
X87550500Y-123421158D01*
X87550500Y-123421155D01*
X87550499Y-123421153D01*
X87539017Y-123363429D01*
X87519737Y-123266503D01*
X87506062Y-123233489D01*
X87459397Y-123120827D01*
X87459390Y-123120814D01*
X87371789Y-122989711D01*
X87371786Y-122989707D01*
X87260292Y-122878213D01*
X87260288Y-122878210D01*
X87129185Y-122790609D01*
X87129172Y-122790602D01*
X86983501Y-122730264D01*
X86983489Y-122730261D01*
X86828845Y-122699500D01*
X86828842Y-122699500D01*
X86671158Y-122699500D01*
X86671155Y-122699500D01*
X86516506Y-122730261D01*
X86516501Y-122730263D01*
X86502920Y-122735888D01*
X86495028Y-122736735D01*
X86488276Y-122740907D01*
X86460781Y-122740415D01*
X86433450Y-122743352D01*
X86424575Y-122739768D01*
X86418418Y-122739658D01*
X86386580Y-122724424D01*
X86374976Y-122716670D01*
X86330173Y-122663057D01*
X86321467Y-122593732D01*
X86351624Y-122530705D01*
X86356191Y-122525887D01*
X86371787Y-122510291D01*
X86371789Y-122510289D01*
X86459394Y-122379179D01*
X86469022Y-122355936D01*
X86494666Y-122294025D01*
X86519737Y-122233497D01*
X86550500Y-122078842D01*
X86550500Y-121921158D01*
X86550500Y-121921155D01*
X86550499Y-121921153D01*
X86535165Y-121844064D01*
X86519737Y-121766503D01*
X86517163Y-121760288D01*
X86459397Y-121620827D01*
X86459390Y-121620814D01*
X86371789Y-121489711D01*
X86371786Y-121489707D01*
X86260292Y-121378213D01*
X86260288Y-121378210D01*
X86129185Y-121290609D01*
X86129172Y-121290602D01*
X85983501Y-121230264D01*
X85983489Y-121230261D01*
X85828845Y-121199500D01*
X85828842Y-121199500D01*
X85671158Y-121199500D01*
X85671155Y-121199500D01*
X85516510Y-121230261D01*
X85516498Y-121230264D01*
X85370827Y-121290602D01*
X85370814Y-121290609D01*
X85239711Y-121378210D01*
X85239707Y-121378213D01*
X85128213Y-121489707D01*
X85128210Y-121489711D01*
X85040609Y-121620814D01*
X85040602Y-121620827D01*
X84980264Y-121766498D01*
X84980261Y-121766508D01*
X84964834Y-121844064D01*
X84932448Y-121905975D01*
X84871732Y-121940549D01*
X84801963Y-121936808D01*
X84745291Y-121895941D01*
X84728657Y-121867326D01*
X84709394Y-121820821D01*
X84709390Y-121820814D01*
X84621789Y-121689711D01*
X84621786Y-121689707D01*
X84510292Y-121578213D01*
X84510288Y-121578210D01*
X84438487Y-121530234D01*
X84393682Y-121476622D01*
X84384975Y-121407297D01*
X84385761Y-121402940D01*
X84400500Y-121328844D01*
X84400500Y-121171155D01*
X84400499Y-121171153D01*
X84369738Y-121016510D01*
X84369737Y-121016503D01*
X84309794Y-120871786D01*
X84309397Y-120870827D01*
X84309390Y-120870814D01*
X84221789Y-120739711D01*
X84221786Y-120739707D01*
X84110292Y-120628213D01*
X84110288Y-120628210D01*
X83979185Y-120540609D01*
X83979172Y-120540602D01*
X83833501Y-120480264D01*
X83833489Y-120480261D01*
X83678845Y-120449500D01*
X83678842Y-120449500D01*
X83521158Y-120449500D01*
X83521155Y-120449500D01*
X83366510Y-120480261D01*
X83366498Y-120480264D01*
X83220827Y-120540602D01*
X83220814Y-120540609D01*
X83089711Y-120628210D01*
X83089707Y-120628213D01*
X82978213Y-120739707D01*
X82978210Y-120739711D01*
X82890609Y-120870814D01*
X82890602Y-120870827D01*
X82830264Y-121016498D01*
X82830261Y-121016510D01*
X82799500Y-121171153D01*
X78300499Y-121171153D01*
X78269738Y-121016510D01*
X78269737Y-121016503D01*
X78209794Y-120871786D01*
X78209397Y-120870827D01*
X78209390Y-120870814D01*
X78121789Y-120739711D01*
X78121786Y-120739707D01*
X78010292Y-120628213D01*
X78010288Y-120628210D01*
X77879185Y-120540609D01*
X77879172Y-120540602D01*
X77733501Y-120480264D01*
X77733489Y-120480261D01*
X77578845Y-120449500D01*
X77578842Y-120449500D01*
X77421158Y-120449500D01*
X77421155Y-120449500D01*
X77266510Y-120480261D01*
X77266498Y-120480264D01*
X77120827Y-120540602D01*
X77120814Y-120540609D01*
X76989711Y-120628210D01*
X76989707Y-120628213D01*
X76878213Y-120739707D01*
X76878210Y-120739711D01*
X76790609Y-120870814D01*
X76790602Y-120870827D01*
X76730264Y-121016498D01*
X76730261Y-121016510D01*
X76699500Y-121171153D01*
X74582138Y-121171153D01*
X74588161Y-121140874D01*
X74600500Y-121078844D01*
X74600500Y-120921155D01*
X74600499Y-120921153D01*
X74569738Y-120766510D01*
X74569737Y-120766503D01*
X74567163Y-120760288D01*
X74509397Y-120620827D01*
X74509390Y-120620814D01*
X74421789Y-120489711D01*
X74421786Y-120489707D01*
X74310292Y-120378213D01*
X74310288Y-120378210D01*
X74179185Y-120290609D01*
X74179172Y-120290602D01*
X74033501Y-120230264D01*
X74033489Y-120230261D01*
X73878845Y-120199500D01*
X73878842Y-120199500D01*
X73721158Y-120199500D01*
X73721155Y-120199500D01*
X73566510Y-120230261D01*
X73566498Y-120230264D01*
X73420827Y-120290602D01*
X73420814Y-120290609D01*
X73289711Y-120378210D01*
X73289707Y-120378213D01*
X73178213Y-120489707D01*
X73178210Y-120489711D01*
X73090609Y-120620814D01*
X73090602Y-120620827D01*
X73030264Y-120766498D01*
X73030261Y-120766510D01*
X72999500Y-120921153D01*
X66936411Y-120921153D01*
X67010289Y-120871789D01*
X67011264Y-120870814D01*
X67054694Y-120827385D01*
X67121786Y-120760292D01*
X67121789Y-120760289D01*
X67209394Y-120629179D01*
X67212854Y-120620827D01*
X67243129Y-120547735D01*
X67269737Y-120483497D01*
X67300500Y-120328842D01*
X67300500Y-120171158D01*
X67300500Y-120171155D01*
X67300499Y-120171153D01*
X67269738Y-120016510D01*
X67269737Y-120016503D01*
X67267665Y-120011501D01*
X67209397Y-119870827D01*
X67209390Y-119870814D01*
X67121789Y-119739711D01*
X67121786Y-119739707D01*
X67010292Y-119628213D01*
X67010288Y-119628210D01*
X66879185Y-119540609D01*
X66879172Y-119540602D01*
X66733501Y-119480264D01*
X66733489Y-119480261D01*
X66578845Y-119449500D01*
X66578842Y-119449500D01*
X66421158Y-119449500D01*
X66421155Y-119449500D01*
X66266510Y-119480261D01*
X66266498Y-119480264D01*
X66120827Y-119540602D01*
X66120814Y-119540609D01*
X65989711Y-119628210D01*
X65989707Y-119628213D01*
X65878213Y-119739707D01*
X65878210Y-119739711D01*
X65790609Y-119870814D01*
X65790602Y-119870827D01*
X65730264Y-120016498D01*
X65730261Y-120016510D01*
X65699500Y-120171153D01*
X60450057Y-120171153D01*
X60459394Y-120157179D01*
X60519737Y-120011497D01*
X60550500Y-119856842D01*
X60550500Y-119699158D01*
X60550500Y-119699155D01*
X60550499Y-119699153D01*
X60536388Y-119628213D01*
X60519737Y-119544503D01*
X60508137Y-119516498D01*
X60459397Y-119398827D01*
X60459390Y-119398814D01*
X60371789Y-119267711D01*
X60371786Y-119267707D01*
X60260292Y-119156213D01*
X60260288Y-119156210D01*
X60129185Y-119068609D01*
X60129172Y-119068602D01*
X59983501Y-119008264D01*
X59983489Y-119008261D01*
X59828845Y-118977500D01*
X59828842Y-118977500D01*
X59671158Y-118977500D01*
X59671155Y-118977500D01*
X59516510Y-119008261D01*
X59516498Y-119008264D01*
X59370827Y-119068602D01*
X59370814Y-119068609D01*
X59239711Y-119156210D01*
X59239707Y-119156213D01*
X59128213Y-119267707D01*
X59128210Y-119267711D01*
X59040609Y-119398814D01*
X59040602Y-119398827D01*
X58980264Y-119544498D01*
X58980261Y-119544510D01*
X58949500Y-119699153D01*
X56800500Y-119699153D01*
X56800500Y-117421153D01*
X61699500Y-117421153D01*
X61699500Y-117578846D01*
X61730261Y-117733489D01*
X61730264Y-117733501D01*
X61790602Y-117879172D01*
X61790609Y-117879185D01*
X61878210Y-118010288D01*
X61878213Y-118010292D01*
X61989707Y-118121786D01*
X61989711Y-118121789D01*
X62120814Y-118209390D01*
X62120827Y-118209397D01*
X62266498Y-118269735D01*
X62266503Y-118269737D01*
X62407514Y-118297786D01*
X62421153Y-118300499D01*
X62421156Y-118300500D01*
X62421158Y-118300500D01*
X62578831Y-118300500D01*
X62578842Y-118300500D01*
X62578852Y-118300497D01*
X62580372Y-118300348D01*
X62581174Y-118300500D01*
X62584934Y-118300500D01*
X62584934Y-118301212D01*
X62649019Y-118313359D01*
X62680218Y-118336066D01*
X62722362Y-118378210D01*
X62763977Y-118419825D01*
X62895079Y-118507425D01*
X62895092Y-118507432D01*
X62975190Y-118540609D01*
X63040768Y-118567772D01*
X63195418Y-118598534D01*
X63195421Y-118598535D01*
X63195423Y-118598535D01*
X63353109Y-118598535D01*
X63353110Y-118598534D01*
X63507762Y-118567772D01*
X63653444Y-118507429D01*
X63689273Y-118483489D01*
X63789619Y-118416440D01*
X63790719Y-118418086D01*
X63846639Y-118394334D01*
X63915507Y-118406123D01*
X63967068Y-118453273D01*
X63979658Y-118481502D01*
X63980264Y-118483501D01*
X64040602Y-118629172D01*
X64040609Y-118629185D01*
X64128210Y-118760288D01*
X64128213Y-118760292D01*
X64239707Y-118871786D01*
X64239711Y-118871789D01*
X64370814Y-118959390D01*
X64370827Y-118959397D01*
X64508683Y-119016498D01*
X64516503Y-119019737D01*
X64671153Y-119050499D01*
X64671156Y-119050500D01*
X64671158Y-119050500D01*
X64828844Y-119050500D01*
X64828845Y-119050499D01*
X64983497Y-119019737D01*
X65129179Y-118959394D01*
X65186411Y-118921153D01*
X74049502Y-118921153D01*
X74049502Y-119078846D01*
X74080263Y-119233489D01*
X74080266Y-119233501D01*
X74140604Y-119379172D01*
X74140611Y-119379185D01*
X74228212Y-119510288D01*
X74228215Y-119510292D01*
X74339709Y-119621786D01*
X74339713Y-119621789D01*
X74470816Y-119709390D01*
X74470829Y-119709397D01*
X74616500Y-119769735D01*
X74616505Y-119769737D01*
X74771155Y-119800499D01*
X74771158Y-119800500D01*
X74771160Y-119800500D01*
X74928846Y-119800500D01*
X74928847Y-119800499D01*
X75083499Y-119769737D01*
X75229181Y-119709394D01*
X75231105Y-119708108D01*
X75232266Y-119707744D01*
X75234548Y-119706525D01*
X75234779Y-119706957D01*
X75297778Y-119687226D01*
X75365160Y-119705706D01*
X75368869Y-119708090D01*
X75370821Y-119709394D01*
X75370823Y-119709395D01*
X75370825Y-119709396D01*
X75516498Y-119769735D01*
X75516503Y-119769737D01*
X75671153Y-119800499D01*
X75671156Y-119800500D01*
X75671158Y-119800500D01*
X75828844Y-119800500D01*
X75828845Y-119800499D01*
X75983497Y-119769737D01*
X76129179Y-119709394D01*
X76186411Y-119671153D01*
X80449500Y-119671153D01*
X80449500Y-119828846D01*
X80480261Y-119983489D01*
X80480264Y-119983501D01*
X80540602Y-120129172D01*
X80540609Y-120129185D01*
X80628210Y-120260288D01*
X80628213Y-120260292D01*
X80739707Y-120371786D01*
X80739711Y-120371789D01*
X80870814Y-120459390D01*
X80870827Y-120459397D01*
X80944013Y-120489711D01*
X81016503Y-120519737D01*
X81157258Y-120547735D01*
X81171153Y-120550499D01*
X81171156Y-120550500D01*
X81171158Y-120550500D01*
X81328844Y-120550500D01*
X81328845Y-120550499D01*
X81483497Y-120519737D01*
X81629179Y-120459394D01*
X81760289Y-120371789D01*
X81871789Y-120260289D01*
X81959394Y-120129179D01*
X82019737Y-119983497D01*
X82050500Y-119828842D01*
X82050500Y-119671158D01*
X82050500Y-119671155D01*
X82050499Y-119671153D01*
X82025308Y-119544510D01*
X82019737Y-119516503D01*
X82006062Y-119483489D01*
X81959397Y-119370827D01*
X81959390Y-119370814D01*
X81871790Y-119239712D01*
X81871784Y-119239705D01*
X81803232Y-119171153D01*
X84800500Y-119171153D01*
X84800500Y-119328846D01*
X84831261Y-119483489D01*
X84831264Y-119483501D01*
X84891602Y-119629172D01*
X84891609Y-119629185D01*
X84979210Y-119760288D01*
X84979213Y-119760292D01*
X85090707Y-119871786D01*
X85090711Y-119871789D01*
X85221814Y-119959390D01*
X85221827Y-119959397D01*
X85347619Y-120011501D01*
X85367503Y-120019737D01*
X85522153Y-120050499D01*
X85522156Y-120050500D01*
X85522158Y-120050500D01*
X85679844Y-120050500D01*
X85679845Y-120050499D01*
X85834497Y-120019737D01*
X85980179Y-119959394D01*
X86111289Y-119871789D01*
X86222789Y-119760289D01*
X86310394Y-119629179D01*
X86370737Y-119483497D01*
X86401500Y-119328842D01*
X86401500Y-119171158D01*
X86401500Y-119171155D01*
X86401499Y-119171153D01*
X86383137Y-119078842D01*
X86370737Y-119016503D01*
X86367323Y-119008261D01*
X86310397Y-118870827D01*
X86310390Y-118870814D01*
X86222789Y-118739711D01*
X86222786Y-118739707D01*
X86111292Y-118628213D01*
X86111288Y-118628210D01*
X85980185Y-118540609D01*
X85980172Y-118540602D01*
X85834501Y-118480264D01*
X85834489Y-118480261D01*
X85679845Y-118449500D01*
X85679842Y-118449500D01*
X85522158Y-118449500D01*
X85522155Y-118449500D01*
X85367510Y-118480261D01*
X85367498Y-118480264D01*
X85221827Y-118540602D01*
X85221814Y-118540609D01*
X85090711Y-118628210D01*
X85090707Y-118628213D01*
X84979213Y-118739707D01*
X84979210Y-118739711D01*
X84891609Y-118870814D01*
X84891602Y-118870827D01*
X84831264Y-119016498D01*
X84831261Y-119016510D01*
X84800500Y-119171153D01*
X81803232Y-119171153D01*
X81760292Y-119128213D01*
X81760288Y-119128210D01*
X81629185Y-119040609D01*
X81629172Y-119040602D01*
X81483501Y-118980264D01*
X81483489Y-118980261D01*
X81328845Y-118949500D01*
X81328842Y-118949500D01*
X81171158Y-118949500D01*
X81171155Y-118949500D01*
X81016510Y-118980261D01*
X81016498Y-118980264D01*
X80870827Y-119040602D01*
X80870814Y-119040609D01*
X80739711Y-119128210D01*
X80739707Y-119128213D01*
X80628213Y-119239707D01*
X80628210Y-119239711D01*
X80540609Y-119370814D01*
X80540602Y-119370827D01*
X80480264Y-119516498D01*
X80480261Y-119516510D01*
X80449500Y-119671153D01*
X76186411Y-119671153D01*
X76260289Y-119621789D01*
X76260292Y-119621786D01*
X76304694Y-119577385D01*
X76371786Y-119510292D01*
X76371789Y-119510289D01*
X76459394Y-119379179D01*
X76462854Y-119370827D01*
X76505567Y-119267707D01*
X76519737Y-119233497D01*
X76550500Y-119078842D01*
X76550500Y-118921158D01*
X76550500Y-118921155D01*
X76550499Y-118921153D01*
X76519738Y-118766510D01*
X76519737Y-118766503D01*
X76517163Y-118760288D01*
X76459397Y-118620827D01*
X76459390Y-118620814D01*
X76371789Y-118489711D01*
X76371786Y-118489707D01*
X76260292Y-118378213D01*
X76260288Y-118378210D01*
X76129185Y-118290609D01*
X76129173Y-118290602D01*
X76102674Y-118279627D01*
X75983501Y-118230264D01*
X75983489Y-118230261D01*
X75828845Y-118199500D01*
X75828842Y-118199500D01*
X75671158Y-118199500D01*
X75671155Y-118199500D01*
X75516510Y-118230261D01*
X75516498Y-118230264D01*
X75370828Y-118290602D01*
X75370805Y-118290614D01*
X75368882Y-118291900D01*
X75367721Y-118292263D01*
X75365447Y-118293479D01*
X75365216Y-118293047D01*
X75302203Y-118312772D01*
X75234825Y-118294282D01*
X75231120Y-118291900D01*
X75229196Y-118290614D01*
X75229173Y-118290602D01*
X75083503Y-118230264D01*
X75083491Y-118230261D01*
X74928847Y-118199500D01*
X74928844Y-118199500D01*
X74771160Y-118199500D01*
X74771157Y-118199500D01*
X74616512Y-118230261D01*
X74616500Y-118230264D01*
X74470829Y-118290602D01*
X74470816Y-118290609D01*
X74339713Y-118378210D01*
X74339709Y-118378213D01*
X74228215Y-118489707D01*
X74228212Y-118489711D01*
X74140611Y-118620814D01*
X74140604Y-118620827D01*
X74080266Y-118766498D01*
X74080263Y-118766510D01*
X74049502Y-118921153D01*
X65186411Y-118921153D01*
X65260289Y-118871789D01*
X65261264Y-118870814D01*
X65304694Y-118827385D01*
X65371786Y-118760292D01*
X65371789Y-118760289D01*
X65459394Y-118629179D01*
X65462854Y-118620827D01*
X65484830Y-118567770D01*
X65519737Y-118483497D01*
X65550500Y-118328842D01*
X65550500Y-118171158D01*
X65550500Y-118171155D01*
X65550499Y-118171153D01*
X65527430Y-118055179D01*
X65519737Y-118016503D01*
X65475411Y-117909489D01*
X65459397Y-117870827D01*
X65459390Y-117870814D01*
X65371789Y-117739711D01*
X65371786Y-117739707D01*
X65315570Y-117683491D01*
X65315564Y-117683486D01*
X65260289Y-117628211D01*
X65213808Y-117597153D01*
X69599500Y-117597153D01*
X69599500Y-117754846D01*
X69630261Y-117909489D01*
X69630264Y-117909501D01*
X69690602Y-118055172D01*
X69690609Y-118055185D01*
X69778210Y-118186288D01*
X69778213Y-118186292D01*
X69889707Y-118297786D01*
X69889711Y-118297789D01*
X70020814Y-118385390D01*
X70020827Y-118385397D01*
X70103945Y-118419825D01*
X70166503Y-118445737D01*
X70321153Y-118476499D01*
X70321156Y-118476500D01*
X70321158Y-118476500D01*
X70478844Y-118476500D01*
X70478845Y-118476499D01*
X70633497Y-118445737D01*
X70779179Y-118385394D01*
X70910289Y-118297789D01*
X71021789Y-118186289D01*
X71031903Y-118171153D01*
X88949500Y-118171153D01*
X88949500Y-118328846D01*
X88980261Y-118483489D01*
X88980264Y-118483501D01*
X89040602Y-118629172D01*
X89040609Y-118629185D01*
X89128210Y-118760288D01*
X89128213Y-118760292D01*
X89239707Y-118871786D01*
X89239711Y-118871789D01*
X89370814Y-118959390D01*
X89370827Y-118959397D01*
X89508683Y-119016498D01*
X89516503Y-119019737D01*
X89671153Y-119050499D01*
X89671156Y-119050500D01*
X89671158Y-119050500D01*
X89828844Y-119050500D01*
X89828845Y-119050499D01*
X89983497Y-119019737D01*
X90129179Y-118959394D01*
X90260289Y-118871789D01*
X90371789Y-118760289D01*
X90459394Y-118629179D01*
X90462854Y-118620827D01*
X90484830Y-118567770D01*
X90519737Y-118483497D01*
X90550500Y-118328842D01*
X90550500Y-118171158D01*
X90550500Y-118171155D01*
X90550499Y-118171153D01*
X90527430Y-118055179D01*
X90519737Y-118016503D01*
X90475411Y-117909489D01*
X90459397Y-117870827D01*
X90459390Y-117870814D01*
X90371789Y-117739711D01*
X90371786Y-117739707D01*
X90260292Y-117628213D01*
X90260288Y-117628210D01*
X90129185Y-117540609D01*
X90129172Y-117540602D01*
X89983501Y-117480264D01*
X89983489Y-117480261D01*
X89828845Y-117449500D01*
X89828842Y-117449500D01*
X89671158Y-117449500D01*
X89671155Y-117449500D01*
X89516510Y-117480261D01*
X89516498Y-117480264D01*
X89370827Y-117540602D01*
X89370814Y-117540609D01*
X89239711Y-117628210D01*
X89239707Y-117628213D01*
X89128213Y-117739707D01*
X89128210Y-117739711D01*
X89040609Y-117870814D01*
X89040602Y-117870827D01*
X88980264Y-118016498D01*
X88980261Y-118016510D01*
X88949500Y-118171153D01*
X71031903Y-118171153D01*
X71109394Y-118055179D01*
X71169737Y-117909497D01*
X71200500Y-117754842D01*
X71200500Y-117597158D01*
X71200500Y-117597155D01*
X71200499Y-117597153D01*
X71194011Y-117564538D01*
X71169737Y-117442503D01*
X71156023Y-117409394D01*
X71109397Y-117296827D01*
X71109390Y-117296814D01*
X71021789Y-117165711D01*
X71021786Y-117165707D01*
X70910292Y-117054213D01*
X70910288Y-117054210D01*
X70779185Y-116966609D01*
X70779172Y-116966602D01*
X70633501Y-116906264D01*
X70633489Y-116906261D01*
X70478845Y-116875500D01*
X70478842Y-116875500D01*
X70321158Y-116875500D01*
X70321155Y-116875500D01*
X70166510Y-116906261D01*
X70166498Y-116906264D01*
X70020827Y-116966602D01*
X70020814Y-116966609D01*
X69889711Y-117054210D01*
X69889707Y-117054213D01*
X69778213Y-117165707D01*
X69778210Y-117165711D01*
X69690609Y-117296814D01*
X69690602Y-117296827D01*
X69630264Y-117442498D01*
X69630261Y-117442510D01*
X69599500Y-117597153D01*
X65213808Y-117597153D01*
X65180745Y-117575061D01*
X65176476Y-117571628D01*
X65159525Y-117547265D01*
X65140491Y-117524490D01*
X65139788Y-117518899D01*
X65136571Y-117514275D01*
X65135482Y-117484613D01*
X65131784Y-117455165D01*
X65134215Y-117450082D01*
X65134009Y-117444452D01*
X65149128Y-117418911D01*
X65161938Y-117392138D01*
X65168181Y-117386728D01*
X65169602Y-117384328D01*
X65172807Y-117382719D01*
X65185296Y-117371898D01*
X65204055Y-117359363D01*
X65260289Y-117321789D01*
X65371789Y-117210289D01*
X65459394Y-117079179D01*
X65519737Y-116933497D01*
X65550500Y-116778842D01*
X65550500Y-116621158D01*
X65550500Y-116621155D01*
X65550499Y-116621153D01*
X65544339Y-116590185D01*
X65519737Y-116466503D01*
X65500955Y-116421158D01*
X65459397Y-116320827D01*
X65459390Y-116320814D01*
X65371789Y-116189711D01*
X65371786Y-116189707D01*
X65260292Y-116078213D01*
X65260288Y-116078210D01*
X65129185Y-115990609D01*
X65129172Y-115990602D01*
X64983501Y-115930264D01*
X64983489Y-115930261D01*
X64828845Y-115899500D01*
X64828842Y-115899500D01*
X64671158Y-115899500D01*
X64671155Y-115899500D01*
X64516510Y-115930261D01*
X64516498Y-115930264D01*
X64370827Y-115990602D01*
X64370814Y-115990609D01*
X64239711Y-116078210D01*
X64239707Y-116078213D01*
X64128213Y-116189707D01*
X64128210Y-116189711D01*
X64040609Y-116320814D01*
X64040602Y-116320827D01*
X63980264Y-116466498D01*
X63980261Y-116466510D01*
X63949500Y-116621153D01*
X63949500Y-116778846D01*
X63980261Y-116933489D01*
X63980264Y-116933501D01*
X64040602Y-117079172D01*
X64040608Y-117079183D01*
X64052209Y-117096545D01*
X64073086Y-117163223D01*
X64054601Y-117230603D01*
X64002622Y-117277292D01*
X63933652Y-117288468D01*
X63869588Y-117260582D01*
X63861425Y-117253116D01*
X63784557Y-117176248D01*
X63784553Y-117176245D01*
X63653450Y-117088644D01*
X63653437Y-117088637D01*
X63507766Y-117028299D01*
X63507754Y-117028296D01*
X63353110Y-116997535D01*
X63353107Y-116997535D01*
X63195423Y-116997535D01*
X63195417Y-116997535D01*
X63193873Y-116997687D01*
X63193072Y-116997535D01*
X63189332Y-116997535D01*
X63189332Y-116996825D01*
X63125227Y-116984666D01*
X63094045Y-116961967D01*
X63010289Y-116878211D01*
X63010288Y-116878210D01*
X63010287Y-116878209D01*
X62879185Y-116790609D01*
X62879172Y-116790602D01*
X62733501Y-116730264D01*
X62733489Y-116730261D01*
X62578845Y-116699500D01*
X62578842Y-116699500D01*
X62421158Y-116699500D01*
X62421155Y-116699500D01*
X62266510Y-116730261D01*
X62266498Y-116730264D01*
X62120827Y-116790602D01*
X62120814Y-116790609D01*
X61989711Y-116878210D01*
X61989707Y-116878213D01*
X61878213Y-116989707D01*
X61878210Y-116989711D01*
X61790609Y-117120814D01*
X61790602Y-117120827D01*
X61730264Y-117266498D01*
X61730261Y-117266510D01*
X61699500Y-117421153D01*
X56800500Y-117421153D01*
X56800500Y-114621153D01*
X65849500Y-114621153D01*
X65849500Y-114778846D01*
X65880261Y-114933489D01*
X65880264Y-114933501D01*
X65940602Y-115079172D01*
X65940609Y-115079185D01*
X66028210Y-115210288D01*
X66028213Y-115210292D01*
X66139707Y-115321786D01*
X66139711Y-115321789D01*
X66270814Y-115409390D01*
X66270827Y-115409397D01*
X66367646Y-115449500D01*
X66416503Y-115469737D01*
X66551119Y-115496514D01*
X66571153Y-115500499D01*
X66571156Y-115500500D01*
X66571158Y-115500500D01*
X66728844Y-115500500D01*
X66816062Y-115483151D01*
X66885654Y-115489378D01*
X66940831Y-115532241D01*
X66964076Y-115598131D01*
X66961872Y-115628958D01*
X66949500Y-115691158D01*
X66949500Y-115848846D01*
X66980261Y-116003489D01*
X66980264Y-116003501D01*
X67040602Y-116149172D01*
X67040609Y-116149185D01*
X67128210Y-116280288D01*
X67128213Y-116280292D01*
X67239707Y-116391786D01*
X67239711Y-116391789D01*
X67370814Y-116479390D01*
X67370827Y-116479397D01*
X67516498Y-116539735D01*
X67516503Y-116539737D01*
X67671153Y-116570499D01*
X67671156Y-116570500D01*
X67671158Y-116570500D01*
X67828844Y-116570500D01*
X67828845Y-116570499D01*
X67983497Y-116539737D01*
X68119264Y-116483501D01*
X68129172Y-116479397D01*
X68129172Y-116479396D01*
X68129179Y-116479394D01*
X68260289Y-116391789D01*
X68371789Y-116280289D01*
X68459394Y-116149179D01*
X68519737Y-116003497D01*
X68550500Y-115848842D01*
X68550500Y-115691158D01*
X68550500Y-115691155D01*
X68550499Y-115691153D01*
X68519737Y-115536503D01*
X68508879Y-115510289D01*
X68459397Y-115390827D01*
X68459390Y-115390814D01*
X68371789Y-115259711D01*
X68371786Y-115259707D01*
X68260292Y-115148213D01*
X68260288Y-115148210D01*
X68129185Y-115060609D01*
X68129172Y-115060602D01*
X67983501Y-115000264D01*
X67983489Y-115000261D01*
X67828845Y-114969500D01*
X67828842Y-114969500D01*
X67671158Y-114969500D01*
X67583935Y-114986849D01*
X67514344Y-114980620D01*
X67459167Y-114937757D01*
X67435923Y-114871867D01*
X67438128Y-114841039D01*
X67450500Y-114778844D01*
X67450500Y-114621155D01*
X67450499Y-114621153D01*
X67449573Y-114616498D01*
X67419737Y-114466503D01*
X67419735Y-114466498D01*
X67359397Y-114320827D01*
X67359390Y-114320814D01*
X67271789Y-114189711D01*
X67271786Y-114189707D01*
X67160292Y-114078213D01*
X67160288Y-114078210D01*
X67029185Y-113990609D01*
X67029172Y-113990602D01*
X66883501Y-113930264D01*
X66883489Y-113930261D01*
X66728845Y-113899500D01*
X66728842Y-113899500D01*
X66571158Y-113899500D01*
X66571155Y-113899500D01*
X66416510Y-113930261D01*
X66416498Y-113930264D01*
X66270827Y-113990602D01*
X66270814Y-113990609D01*
X66139711Y-114078210D01*
X66139707Y-114078213D01*
X66028213Y-114189707D01*
X66028210Y-114189711D01*
X65940609Y-114320814D01*
X65940602Y-114320827D01*
X65880264Y-114466498D01*
X65880261Y-114466510D01*
X65849500Y-114621153D01*
X56800500Y-114621153D01*
X56800500Y-111671153D01*
X62199500Y-111671153D01*
X62199500Y-111828846D01*
X62230261Y-111983489D01*
X62230264Y-111983501D01*
X62290602Y-112129172D01*
X62290609Y-112129185D01*
X62378210Y-112260288D01*
X62378213Y-112260292D01*
X62489707Y-112371786D01*
X62489711Y-112371789D01*
X62564885Y-112422019D01*
X62609690Y-112475631D01*
X62618397Y-112544956D01*
X62610556Y-112572571D01*
X62588818Y-112625053D01*
X62588815Y-112625064D01*
X62558054Y-112779707D01*
X62558054Y-112937400D01*
X62588815Y-113092043D01*
X62588818Y-113092055D01*
X62649156Y-113237726D01*
X62649163Y-113237739D01*
X62736764Y-113368842D01*
X62736767Y-113368846D01*
X62848261Y-113480340D01*
X62848265Y-113480343D01*
X62979368Y-113567944D01*
X62979381Y-113567951D01*
X63125052Y-113628289D01*
X63125057Y-113628291D01*
X63264354Y-113655999D01*
X63279707Y-113659053D01*
X63279710Y-113659054D01*
X63279712Y-113659054D01*
X63437398Y-113659054D01*
X63437399Y-113659053D01*
X63592051Y-113628291D01*
X63737733Y-113567948D01*
X63868843Y-113480343D01*
X63980343Y-113368843D01*
X64067948Y-113237733D01*
X64128291Y-113092051D01*
X64159054Y-112937396D01*
X64159054Y-112779712D01*
X64159054Y-112779709D01*
X64159053Y-112779707D01*
X64156426Y-112766498D01*
X64128291Y-112625057D01*
X64104420Y-112567427D01*
X64067951Y-112479381D01*
X64067944Y-112479368D01*
X63980343Y-112348265D01*
X63980340Y-112348261D01*
X63868846Y-112236767D01*
X63868842Y-112236764D01*
X63793668Y-112186534D01*
X63748863Y-112132922D01*
X63740156Y-112063597D01*
X63747998Y-112035979D01*
X63769737Y-111983497D01*
X63800500Y-111828842D01*
X63800500Y-111671158D01*
X63800500Y-111671155D01*
X63800499Y-111671153D01*
X63782137Y-111578842D01*
X63769737Y-111516503D01*
X63730242Y-111421153D01*
X65199500Y-111421153D01*
X65199500Y-111578846D01*
X65230261Y-111733489D01*
X65230264Y-111733501D01*
X65290602Y-111879172D01*
X65290609Y-111879185D01*
X65378210Y-112010288D01*
X65378213Y-112010292D01*
X65489709Y-112121788D01*
X65498950Y-112127962D01*
X65543756Y-112181573D01*
X65552466Y-112250897D01*
X65522313Y-112313926D01*
X65517745Y-112318746D01*
X65487495Y-112348996D01*
X65399894Y-112480099D01*
X65399887Y-112480112D01*
X65339549Y-112625783D01*
X65339546Y-112625795D01*
X65308785Y-112780438D01*
X65308785Y-112938131D01*
X65339546Y-113092774D01*
X65339549Y-113092786D01*
X65399887Y-113238457D01*
X65399894Y-113238470D01*
X65487495Y-113369573D01*
X65487498Y-113369577D01*
X65598992Y-113481071D01*
X65598996Y-113481074D01*
X65730099Y-113568675D01*
X65730112Y-113568682D01*
X65875783Y-113629020D01*
X65875788Y-113629022D01*
X66011410Y-113655999D01*
X66030438Y-113659784D01*
X66030441Y-113659785D01*
X66030443Y-113659785D01*
X66188129Y-113659785D01*
X66188130Y-113659784D01*
X66342782Y-113629022D01*
X66488464Y-113568679D01*
X66619574Y-113481074D01*
X66656133Y-113444515D01*
X69779942Y-113444515D01*
X69779942Y-113602208D01*
X69810703Y-113756851D01*
X69810706Y-113756863D01*
X69871044Y-113902534D01*
X69871051Y-113902547D01*
X69958652Y-114033650D01*
X69958655Y-114033654D01*
X70070149Y-114145148D01*
X70070153Y-114145151D01*
X70201256Y-114232752D01*
X70201269Y-114232759D01*
X70346940Y-114293097D01*
X70346945Y-114293099D01*
X70416580Y-114306950D01*
X70470766Y-114317729D01*
X70532677Y-114350114D01*
X70567251Y-114410829D01*
X70570575Y-114439346D01*
X70570575Y-114558846D01*
X70601336Y-114713489D01*
X70601339Y-114713501D01*
X70661677Y-114859172D01*
X70661684Y-114859185D01*
X70752167Y-114994602D01*
X70773045Y-115061280D01*
X70754560Y-115128660D01*
X70736747Y-115151174D01*
X70628210Y-115259711D01*
X70540609Y-115390814D01*
X70540602Y-115390827D01*
X70480264Y-115536498D01*
X70480261Y-115536510D01*
X70449500Y-115691153D01*
X70449500Y-115848846D01*
X70480261Y-116003489D01*
X70480264Y-116003501D01*
X70540602Y-116149172D01*
X70540609Y-116149185D01*
X70628210Y-116280288D01*
X70628213Y-116280292D01*
X70739707Y-116391786D01*
X70739711Y-116391789D01*
X70870814Y-116479390D01*
X70870827Y-116479397D01*
X71016498Y-116539735D01*
X71016503Y-116539737D01*
X71171153Y-116570499D01*
X71171156Y-116570500D01*
X71171158Y-116570500D01*
X71185119Y-116570500D01*
X71252158Y-116590185D01*
X71288221Y-116625610D01*
X71378207Y-116760284D01*
X71378213Y-116760292D01*
X71489707Y-116871786D01*
X71489711Y-116871789D01*
X71620814Y-116959390D01*
X71620827Y-116959397D01*
X71766498Y-117019735D01*
X71766503Y-117019737D01*
X71921153Y-117050499D01*
X71921156Y-117050500D01*
X71921158Y-117050500D01*
X72078844Y-117050500D01*
X72078845Y-117050499D01*
X72233497Y-117019737D01*
X72379179Y-116959394D01*
X72510289Y-116871789D01*
X72621789Y-116760289D01*
X72709394Y-116629179D01*
X72712719Y-116621153D01*
X72746442Y-116539737D01*
X72769737Y-116483497D01*
X72782138Y-116421153D01*
X73449500Y-116421153D01*
X73449500Y-116578846D01*
X73480261Y-116733489D01*
X73480264Y-116733501D01*
X73540602Y-116879172D01*
X73540609Y-116879185D01*
X73628210Y-117010288D01*
X73628213Y-117010292D01*
X73739707Y-117121786D01*
X73739711Y-117121789D01*
X73870814Y-117209390D01*
X73870827Y-117209397D01*
X74008683Y-117266498D01*
X74016503Y-117269737D01*
X74152663Y-117296821D01*
X74171153Y-117300499D01*
X74171156Y-117300500D01*
X74171158Y-117300500D01*
X74328844Y-117300500D01*
X74328845Y-117300499D01*
X74483497Y-117269737D01*
X74629179Y-117209394D01*
X74760289Y-117121789D01*
X74871789Y-117010289D01*
X74959394Y-116879179D01*
X75019737Y-116733497D01*
X75050500Y-116578842D01*
X75050500Y-116421158D01*
X75050500Y-116421155D01*
X75050499Y-116421153D01*
X75044658Y-116391789D01*
X75019737Y-116266503D01*
X74987929Y-116189711D01*
X74959397Y-116120827D01*
X74959390Y-116120814D01*
X74871789Y-115989711D01*
X74871786Y-115989707D01*
X74760292Y-115878213D01*
X74760288Y-115878210D01*
X74629185Y-115790609D01*
X74629172Y-115790602D01*
X74483501Y-115730264D01*
X74483489Y-115730261D01*
X74328845Y-115699500D01*
X74328842Y-115699500D01*
X74171158Y-115699500D01*
X74171155Y-115699500D01*
X74016510Y-115730261D01*
X74016498Y-115730264D01*
X73870827Y-115790602D01*
X73870814Y-115790609D01*
X73739711Y-115878210D01*
X73739707Y-115878213D01*
X73628213Y-115989707D01*
X73628210Y-115989711D01*
X73540609Y-116120814D01*
X73540602Y-116120827D01*
X73480264Y-116266498D01*
X73480261Y-116266510D01*
X73449500Y-116421153D01*
X72782138Y-116421153D01*
X72800500Y-116328842D01*
X72800500Y-116171158D01*
X72800500Y-116171155D01*
X72800499Y-116171153D01*
X72782012Y-116078213D01*
X72769737Y-116016503D01*
X72769735Y-116016498D01*
X72709397Y-115870827D01*
X72709390Y-115870814D01*
X72621789Y-115739711D01*
X72621786Y-115739707D01*
X72510292Y-115628213D01*
X72510288Y-115628210D01*
X72379185Y-115540609D01*
X72379172Y-115540602D01*
X72233501Y-115480264D01*
X72233489Y-115480261D01*
X72078845Y-115449500D01*
X72078842Y-115449500D01*
X72064881Y-115449500D01*
X72057263Y-115447263D01*
X72049427Y-115448533D01*
X72024217Y-115437559D01*
X71997842Y-115429815D01*
X71991011Y-115423105D01*
X71985363Y-115420647D01*
X71961778Y-115394390D01*
X71959395Y-115390823D01*
X71959394Y-115390821D01*
X71871789Y-115259711D01*
X71868906Y-115255396D01*
X71848029Y-115188719D01*
X71866514Y-115121339D01*
X71884324Y-115098828D01*
X71992864Y-114990289D01*
X72027965Y-114937757D01*
X72032490Y-114930985D01*
X72044255Y-114921153D01*
X77199500Y-114921153D01*
X77199500Y-115078846D01*
X77230261Y-115233489D01*
X77230264Y-115233501D01*
X77290602Y-115379172D01*
X77290609Y-115379185D01*
X77378210Y-115510288D01*
X77378213Y-115510292D01*
X77489707Y-115621786D01*
X77489711Y-115621789D01*
X77620814Y-115709390D01*
X77620827Y-115709397D01*
X77694013Y-115739711D01*
X77766503Y-115769737D01*
X77921153Y-115800499D01*
X77921156Y-115800500D01*
X77921158Y-115800500D01*
X78078844Y-115800500D01*
X78078845Y-115800499D01*
X78233497Y-115769737D01*
X78379179Y-115709394D01*
X78510289Y-115621789D01*
X78620144Y-115511933D01*
X78681465Y-115478450D01*
X78751157Y-115483434D01*
X78776713Y-115496512D01*
X78870821Y-115559394D01*
X78870823Y-115559395D01*
X78870827Y-115559397D01*
X78964341Y-115598131D01*
X79016503Y-115619737D01*
X79171153Y-115650499D01*
X79171156Y-115650500D01*
X79171158Y-115650500D01*
X79328844Y-115650500D01*
X79328845Y-115650499D01*
X79483497Y-115619737D01*
X79629179Y-115559394D01*
X79760289Y-115471789D01*
X79871789Y-115360289D01*
X79959394Y-115229179D01*
X80019737Y-115083497D01*
X80050500Y-114928842D01*
X80050500Y-114771158D01*
X80050500Y-114771155D01*
X80050499Y-114771153D01*
X80025353Y-114644737D01*
X80019737Y-114616503D01*
X80006963Y-114585664D01*
X79959397Y-114470827D01*
X79959390Y-114470814D01*
X79871789Y-114339711D01*
X79871786Y-114339707D01*
X79760292Y-114228213D01*
X79760288Y-114228210D01*
X79629185Y-114140609D01*
X79629172Y-114140602D01*
X79483501Y-114080264D01*
X79483489Y-114080261D01*
X79328845Y-114049500D01*
X79328842Y-114049500D01*
X79171158Y-114049500D01*
X79171155Y-114049500D01*
X79016510Y-114080261D01*
X79016498Y-114080264D01*
X78870827Y-114140602D01*
X78870814Y-114140609D01*
X78739711Y-114228210D01*
X78629856Y-114338065D01*
X78568533Y-114371549D01*
X78498841Y-114366565D01*
X78473284Y-114353485D01*
X78379184Y-114290609D01*
X78379172Y-114290602D01*
X78233501Y-114230264D01*
X78233489Y-114230261D01*
X78078845Y-114199500D01*
X78078842Y-114199500D01*
X77921158Y-114199500D01*
X77921155Y-114199500D01*
X77766510Y-114230261D01*
X77766498Y-114230264D01*
X77620827Y-114290602D01*
X77620814Y-114290609D01*
X77489711Y-114378210D01*
X77489707Y-114378213D01*
X77378213Y-114489707D01*
X77378210Y-114489711D01*
X77290609Y-114620814D01*
X77290602Y-114620827D01*
X77230264Y-114766498D01*
X77230261Y-114766510D01*
X77199500Y-114921153D01*
X72044255Y-114921153D01*
X72086102Y-114886180D01*
X72135592Y-114875876D01*
X72140050Y-114875876D01*
X72140051Y-114875875D01*
X72294703Y-114845113D01*
X72345153Y-114824215D01*
X72402398Y-114800505D01*
X72440378Y-114784773D01*
X72440378Y-114784772D01*
X72440385Y-114784770D01*
X72571495Y-114697165D01*
X72682995Y-114585665D01*
X72770600Y-114454555D01*
X72830943Y-114308873D01*
X72861706Y-114154218D01*
X72861706Y-113996534D01*
X72861706Y-113996531D01*
X72861705Y-113996529D01*
X72848523Y-113930261D01*
X72830943Y-113841879D01*
X72830941Y-113841874D01*
X72804122Y-113777126D01*
X72796653Y-113707657D01*
X72815581Y-113660782D01*
X72818775Y-113656004D01*
X72879118Y-113510322D01*
X72909881Y-113355667D01*
X72909881Y-113197983D01*
X72909881Y-113197980D01*
X72909880Y-113197978D01*
X72891438Y-113105264D01*
X72879118Y-113043328D01*
X72845646Y-112962518D01*
X72828512Y-112921153D01*
X78449500Y-112921153D01*
X78449500Y-113078846D01*
X78480261Y-113233489D01*
X78480264Y-113233501D01*
X78540602Y-113379172D01*
X78540609Y-113379185D01*
X78628210Y-113510288D01*
X78628213Y-113510292D01*
X78739707Y-113621786D01*
X78739711Y-113621789D01*
X78870814Y-113709390D01*
X78870827Y-113709397D01*
X78985422Y-113756863D01*
X79016503Y-113769737D01*
X79171153Y-113800499D01*
X79171156Y-113800500D01*
X79171158Y-113800500D01*
X79328844Y-113800500D01*
X79328845Y-113800499D01*
X79483497Y-113769737D01*
X79629179Y-113709394D01*
X79760289Y-113621789D01*
X79871789Y-113510289D01*
X79959394Y-113379179D01*
X79963373Y-113369574D01*
X80011571Y-113253211D01*
X80019737Y-113233497D01*
X80050500Y-113078842D01*
X80050500Y-112921158D01*
X80050500Y-112921155D01*
X80050499Y-112921153D01*
X80045822Y-112897639D01*
X80019737Y-112766503D01*
X79985760Y-112684474D01*
X79959397Y-112620827D01*
X79959390Y-112620814D01*
X79871789Y-112489711D01*
X79871786Y-112489707D01*
X79760292Y-112378213D01*
X79760288Y-112378210D01*
X79629185Y-112290609D01*
X79629172Y-112290602D01*
X79483501Y-112230264D01*
X79483489Y-112230261D01*
X79328845Y-112199500D01*
X79328842Y-112199500D01*
X79171158Y-112199500D01*
X79171155Y-112199500D01*
X79016510Y-112230261D01*
X79016498Y-112230264D01*
X78870827Y-112290602D01*
X78870814Y-112290609D01*
X78739711Y-112378210D01*
X78739707Y-112378213D01*
X78628213Y-112489707D01*
X78628210Y-112489711D01*
X78540609Y-112620814D01*
X78540602Y-112620827D01*
X78480264Y-112766498D01*
X78480261Y-112766510D01*
X78449500Y-112921153D01*
X72828512Y-112921153D01*
X72818778Y-112897652D01*
X72818771Y-112897639D01*
X72731170Y-112766536D01*
X72731167Y-112766532D01*
X72619673Y-112655038D01*
X72619669Y-112655035D01*
X72488566Y-112567434D01*
X72488553Y-112567427D01*
X72342882Y-112507089D01*
X72342870Y-112507086D01*
X72188226Y-112476325D01*
X72188223Y-112476325D01*
X72030539Y-112476325D01*
X72030536Y-112476325D01*
X71875891Y-112507086D01*
X71875879Y-112507089D01*
X71730208Y-112567427D01*
X71730195Y-112567434D01*
X71599085Y-112655039D01*
X71596492Y-112657168D01*
X71594870Y-112657856D01*
X71594027Y-112658420D01*
X71593920Y-112658259D01*
X71532180Y-112684474D01*
X71463313Y-112672675D01*
X71411758Y-112625517D01*
X71396221Y-112585497D01*
X71380624Y-112507086D01*
X71369737Y-112452355D01*
X71356226Y-112419737D01*
X71309397Y-112306679D01*
X71309390Y-112306666D01*
X71221789Y-112175563D01*
X71221786Y-112175559D01*
X71110292Y-112064065D01*
X71110288Y-112064062D01*
X70979185Y-111976461D01*
X70979172Y-111976454D01*
X70833501Y-111916116D01*
X70833489Y-111916113D01*
X70678845Y-111885352D01*
X70678842Y-111885352D01*
X70521158Y-111885352D01*
X70521155Y-111885352D01*
X70366510Y-111916113D01*
X70366498Y-111916116D01*
X70220827Y-111976454D01*
X70220814Y-111976461D01*
X70089711Y-112064062D01*
X70089707Y-112064065D01*
X69978213Y-112175559D01*
X69978210Y-112175563D01*
X69890609Y-112306666D01*
X69890602Y-112306679D01*
X69830264Y-112452350D01*
X69830261Y-112452362D01*
X69799500Y-112607005D01*
X69799500Y-112764698D01*
X69830261Y-112919341D01*
X69830264Y-112919353D01*
X69878095Y-113034827D01*
X69885564Y-113104296D01*
X69872895Y-113140727D01*
X69871047Y-113144183D01*
X69810706Y-113289860D01*
X69810703Y-113289872D01*
X69779942Y-113444515D01*
X66656133Y-113444515D01*
X66731074Y-113369574D01*
X66818679Y-113238464D01*
X66822523Y-113229185D01*
X66848856Y-113165609D01*
X66879022Y-113092782D01*
X66909785Y-112938127D01*
X66909785Y-112780443D01*
X66909785Y-112780440D01*
X66909784Y-112780438D01*
X66907018Y-112766532D01*
X66879022Y-112625788D01*
X66854850Y-112567431D01*
X66818682Y-112480112D01*
X66818675Y-112480099D01*
X66731074Y-112348996D01*
X66731071Y-112348992D01*
X66619577Y-112237498D01*
X66619572Y-112237494D01*
X66610333Y-112231321D01*
X66565527Y-112177710D01*
X66556818Y-112108385D01*
X66586972Y-112045357D01*
X66591523Y-112040554D01*
X66621789Y-112010289D01*
X66709394Y-111879179D01*
X66769737Y-111733497D01*
X66800500Y-111578842D01*
X66800500Y-111571153D01*
X82949500Y-111571153D01*
X82949500Y-111728846D01*
X82980261Y-111883489D01*
X82980264Y-111883501D01*
X83040602Y-112029172D01*
X83040609Y-112029185D01*
X83128210Y-112160288D01*
X83128213Y-112160292D01*
X83239707Y-112271786D01*
X83239711Y-112271789D01*
X83370814Y-112359390D01*
X83370827Y-112359397D01*
X83516498Y-112419735D01*
X83516503Y-112419737D01*
X83607104Y-112437758D01*
X83641099Y-112444521D01*
X83703010Y-112476906D01*
X83737584Y-112537621D01*
X83733845Y-112607391D01*
X83731471Y-112613586D01*
X83730264Y-112616499D01*
X83730261Y-112616510D01*
X83699500Y-112771153D01*
X83699500Y-112928846D01*
X83730261Y-113083489D01*
X83730264Y-113083501D01*
X83790602Y-113229172D01*
X83790609Y-113229185D01*
X83878210Y-113360288D01*
X83878213Y-113360292D01*
X83989707Y-113471786D01*
X83989711Y-113471789D01*
X84120814Y-113559390D01*
X84120827Y-113559397D01*
X84266498Y-113619735D01*
X84266503Y-113619737D01*
X84375963Y-113641510D01*
X84421153Y-113650499D01*
X84421156Y-113650500D01*
X84421158Y-113650500D01*
X84578844Y-113650500D01*
X84578845Y-113650499D01*
X84733497Y-113619737D01*
X84856773Y-113568675D01*
X84879172Y-113559397D01*
X84879172Y-113559396D01*
X84879179Y-113559394D01*
X85010289Y-113471789D01*
X85022331Y-113459746D01*
X85083651Y-113426262D01*
X85153343Y-113431244D01*
X85209278Y-113473114D01*
X85233697Y-113538577D01*
X85224575Y-113594878D01*
X85205263Y-113641502D01*
X85205261Y-113641510D01*
X85174500Y-113796153D01*
X85174500Y-113953846D01*
X85205261Y-114108489D01*
X85205264Y-114108501D01*
X85265602Y-114254172D01*
X85265609Y-114254185D01*
X85353210Y-114385288D01*
X85353213Y-114385292D01*
X85464707Y-114496786D01*
X85464711Y-114496789D01*
X85595814Y-114584390D01*
X85595827Y-114584397D01*
X85741498Y-114644735D01*
X85741503Y-114644737D01*
X85896153Y-114675499D01*
X85896156Y-114675500D01*
X85896158Y-114675500D01*
X86053844Y-114675500D01*
X86053845Y-114675499D01*
X86208497Y-114644737D01*
X86354179Y-114584394D01*
X86485289Y-114496789D01*
X86596789Y-114385289D01*
X86684394Y-114254179D01*
X86744737Y-114108497D01*
X86775500Y-113953842D01*
X86775500Y-113796158D01*
X86775500Y-113796155D01*
X86775499Y-113796153D01*
X86770245Y-113769738D01*
X86744737Y-113641503D01*
X86739567Y-113629022D01*
X86684397Y-113495827D01*
X86684390Y-113495814D01*
X86596789Y-113364711D01*
X86596786Y-113364707D01*
X86485292Y-113253213D01*
X86485288Y-113253210D01*
X86354185Y-113165609D01*
X86354172Y-113165602D01*
X86208501Y-113105264D01*
X86208489Y-113105261D01*
X86053845Y-113074500D01*
X86053842Y-113074500D01*
X85896158Y-113074500D01*
X85896155Y-113074500D01*
X85741510Y-113105261D01*
X85741498Y-113105264D01*
X85595827Y-113165602D01*
X85595814Y-113165609D01*
X85464711Y-113253210D01*
X85452665Y-113265256D01*
X85391340Y-113298739D01*
X85321649Y-113293752D01*
X85265717Y-113251879D01*
X85241302Y-113186414D01*
X85250424Y-113130121D01*
X85269737Y-113083497D01*
X85300500Y-112928842D01*
X85300500Y-112771158D01*
X85300500Y-112771155D01*
X85300499Y-112771153D01*
X85278043Y-112658259D01*
X85269737Y-112616503D01*
X85249409Y-112567427D01*
X85209397Y-112470827D01*
X85209395Y-112470823D01*
X85209394Y-112470821D01*
X85197060Y-112452362D01*
X85193328Y-112446776D01*
X85172450Y-112380099D01*
X85190934Y-112312719D01*
X85242913Y-112266028D01*
X85248927Y-112263345D01*
X85379179Y-112209394D01*
X85510289Y-112121789D01*
X85621789Y-112010289D01*
X85709394Y-111879179D01*
X85769737Y-111733497D01*
X85800500Y-111578842D01*
X85800500Y-111421158D01*
X85800500Y-111421155D01*
X85793540Y-111386167D01*
X85799767Y-111316576D01*
X85842629Y-111261398D01*
X85908519Y-111238153D01*
X85962609Y-111247414D01*
X86008683Y-111266498D01*
X86016503Y-111269737D01*
X86171153Y-111300499D01*
X86171156Y-111300500D01*
X86171158Y-111300500D01*
X86328844Y-111300500D01*
X86328845Y-111300499D01*
X86483497Y-111269737D01*
X86629179Y-111209394D01*
X86760289Y-111121789D01*
X86871789Y-111010289D01*
X86959394Y-110879179D01*
X87019737Y-110733497D01*
X87032138Y-110671153D01*
X88949500Y-110671153D01*
X88949500Y-110828846D01*
X88980261Y-110983489D01*
X88980264Y-110983501D01*
X89040602Y-111129172D01*
X89040609Y-111129185D01*
X89128210Y-111260288D01*
X89128213Y-111260292D01*
X89239707Y-111371786D01*
X89239711Y-111371789D01*
X89370814Y-111459390D01*
X89370827Y-111459397D01*
X89508683Y-111516498D01*
X89516503Y-111519737D01*
X89671153Y-111550499D01*
X89671156Y-111550500D01*
X89671158Y-111550500D01*
X89828844Y-111550500D01*
X89828845Y-111550499D01*
X89983497Y-111519737D01*
X90121635Y-111462519D01*
X90129172Y-111459397D01*
X90129172Y-111459396D01*
X90129179Y-111459394D01*
X90260289Y-111371789D01*
X90371789Y-111260289D01*
X90459394Y-111129179D01*
X90462854Y-111120827D01*
X90488301Y-111059390D01*
X90519737Y-110983497D01*
X90550500Y-110828842D01*
X90550500Y-110671158D01*
X90550500Y-110671155D01*
X90550499Y-110671153D01*
X90519738Y-110516510D01*
X90519737Y-110516503D01*
X90480242Y-110421153D01*
X90459397Y-110370827D01*
X90459390Y-110370814D01*
X90371789Y-110239711D01*
X90371786Y-110239707D01*
X90260292Y-110128213D01*
X90260288Y-110128210D01*
X90129185Y-110040609D01*
X90129172Y-110040602D01*
X89983501Y-109980264D01*
X89983489Y-109980261D01*
X89828845Y-109949500D01*
X89828842Y-109949500D01*
X89671158Y-109949500D01*
X89671155Y-109949500D01*
X89516510Y-109980261D01*
X89516498Y-109980264D01*
X89370827Y-110040602D01*
X89370814Y-110040609D01*
X89239711Y-110128210D01*
X89239707Y-110128213D01*
X89128213Y-110239707D01*
X89128210Y-110239711D01*
X89040609Y-110370814D01*
X89040602Y-110370827D01*
X88980264Y-110516498D01*
X88980261Y-110516510D01*
X88949500Y-110671153D01*
X87032138Y-110671153D01*
X87041957Y-110621789D01*
X87050500Y-110578844D01*
X87050500Y-110421155D01*
X87050499Y-110421153D01*
X87040486Y-110370814D01*
X87019737Y-110266503D01*
X87017163Y-110260288D01*
X86959397Y-110120827D01*
X86959390Y-110120814D01*
X86871789Y-109989711D01*
X86871786Y-109989707D01*
X86760292Y-109878213D01*
X86760288Y-109878210D01*
X86629185Y-109790609D01*
X86629172Y-109790602D01*
X86496760Y-109735756D01*
X86442356Y-109691915D01*
X86420291Y-109625621D01*
X86437570Y-109557922D01*
X86488707Y-109510311D01*
X86520016Y-109499579D01*
X86558698Y-109491885D01*
X86704380Y-109431542D01*
X86835490Y-109343937D01*
X86946990Y-109232437D01*
X87034595Y-109101327D01*
X87094938Y-108955645D01*
X87125701Y-108800990D01*
X87125701Y-108643306D01*
X87125701Y-108643303D01*
X87125700Y-108643301D01*
X87121227Y-108620814D01*
X87094938Y-108488651D01*
X87089657Y-108475902D01*
X87034598Y-108342975D01*
X87034591Y-108342962D01*
X86946990Y-108211859D01*
X86946987Y-108211855D01*
X86835493Y-108100361D01*
X86835489Y-108100358D01*
X86704386Y-108012757D01*
X86704373Y-108012750D01*
X86558702Y-107952412D01*
X86558690Y-107952409D01*
X86404046Y-107921648D01*
X86404043Y-107921648D01*
X86246359Y-107921648D01*
X86246356Y-107921648D01*
X86091711Y-107952409D01*
X86091699Y-107952412D01*
X85946028Y-108012750D01*
X85946015Y-108012757D01*
X85814915Y-108100356D01*
X85751686Y-108163584D01*
X85690362Y-108197068D01*
X85659933Y-108198835D01*
X85659933Y-108199500D01*
X85496155Y-108199500D01*
X85341510Y-108230261D01*
X85341498Y-108230264D01*
X85195827Y-108290602D01*
X85195814Y-108290609D01*
X85064711Y-108378210D01*
X85064707Y-108378213D01*
X84953213Y-108489707D01*
X84953210Y-108489711D01*
X84865609Y-108620814D01*
X84865602Y-108620827D01*
X84805264Y-108766498D01*
X84805261Y-108766510D01*
X84774500Y-108921153D01*
X84774500Y-109078846D01*
X84805261Y-109233489D01*
X84805264Y-109233501D01*
X84865602Y-109379172D01*
X84865609Y-109379185D01*
X84953210Y-109510288D01*
X84953213Y-109510292D01*
X85064707Y-109621786D01*
X85064711Y-109621789D01*
X85195814Y-109709390D01*
X85195827Y-109709397D01*
X85308172Y-109755931D01*
X85341503Y-109769737D01*
X85473480Y-109795989D01*
X85496153Y-109800499D01*
X85496156Y-109800500D01*
X85522650Y-109800500D01*
X85589689Y-109820185D01*
X85635444Y-109872989D01*
X85645388Y-109942147D01*
X85625752Y-109993391D01*
X85540609Y-110120814D01*
X85540602Y-110120827D01*
X85480264Y-110266498D01*
X85480261Y-110266510D01*
X85449500Y-110421153D01*
X85449500Y-110421158D01*
X85449500Y-110578842D01*
X85450424Y-110583489D01*
X85456460Y-110613834D01*
X85450231Y-110683426D01*
X85407368Y-110738602D01*
X85341478Y-110761846D01*
X85287391Y-110752586D01*
X85241314Y-110733501D01*
X85233497Y-110730263D01*
X85233493Y-110730262D01*
X85233489Y-110730261D01*
X85078845Y-110699500D01*
X85078842Y-110699500D01*
X84921158Y-110699500D01*
X84921155Y-110699500D01*
X84766510Y-110730261D01*
X84766498Y-110730264D01*
X84620827Y-110790602D01*
X84620814Y-110790609D01*
X84489711Y-110878210D01*
X84379856Y-110988065D01*
X84318533Y-111021549D01*
X84248841Y-111016565D01*
X84223284Y-111003485D01*
X84129184Y-110940609D01*
X84129172Y-110940602D01*
X83983501Y-110880264D01*
X83983489Y-110880261D01*
X83828845Y-110849500D01*
X83828842Y-110849500D01*
X83671158Y-110849500D01*
X83671155Y-110849500D01*
X83516510Y-110880261D01*
X83516498Y-110880264D01*
X83370827Y-110940602D01*
X83370814Y-110940609D01*
X83239711Y-111028210D01*
X83239707Y-111028213D01*
X83128213Y-111139707D01*
X83128210Y-111139711D01*
X83040609Y-111270814D01*
X83040602Y-111270827D01*
X82980264Y-111416498D01*
X82980261Y-111416510D01*
X82949500Y-111571153D01*
X66800500Y-111571153D01*
X66800500Y-111421158D01*
X66800500Y-111421155D01*
X66800499Y-111421153D01*
X66770596Y-111270821D01*
X66769737Y-111266503D01*
X66769735Y-111266498D01*
X66709397Y-111120827D01*
X66709390Y-111120814D01*
X66621789Y-110989711D01*
X66621786Y-110989707D01*
X66510292Y-110878213D01*
X66510288Y-110878210D01*
X66379185Y-110790609D01*
X66379172Y-110790602D01*
X66233501Y-110730264D01*
X66233489Y-110730261D01*
X66078845Y-110699500D01*
X66078842Y-110699500D01*
X65921158Y-110699500D01*
X65921155Y-110699500D01*
X65766510Y-110730261D01*
X65766498Y-110730264D01*
X65620827Y-110790602D01*
X65620814Y-110790609D01*
X65489711Y-110878210D01*
X65489707Y-110878213D01*
X65378213Y-110989707D01*
X65378210Y-110989711D01*
X65290609Y-111120814D01*
X65290602Y-111120827D01*
X65230264Y-111266498D01*
X65230261Y-111266510D01*
X65199500Y-111421153D01*
X63730242Y-111421153D01*
X63728314Y-111416498D01*
X63709397Y-111370827D01*
X63709390Y-111370814D01*
X63621789Y-111239711D01*
X63621786Y-111239707D01*
X63510292Y-111128213D01*
X63510288Y-111128210D01*
X63379185Y-111040609D01*
X63379172Y-111040602D01*
X63233501Y-110980264D01*
X63233489Y-110980261D01*
X63078845Y-110949500D01*
X63078842Y-110949500D01*
X62921158Y-110949500D01*
X62921155Y-110949500D01*
X62766510Y-110980261D01*
X62766498Y-110980264D01*
X62620827Y-111040602D01*
X62620814Y-111040609D01*
X62489711Y-111128210D01*
X62489707Y-111128213D01*
X62378213Y-111239707D01*
X62378210Y-111239711D01*
X62290609Y-111370814D01*
X62290602Y-111370827D01*
X62230264Y-111516498D01*
X62230261Y-111516510D01*
X62199500Y-111671153D01*
X56800500Y-111671153D01*
X56800500Y-109483653D01*
X61762000Y-109483653D01*
X61762000Y-109641346D01*
X61792761Y-109795989D01*
X61792764Y-109796001D01*
X61853102Y-109941672D01*
X61853109Y-109941685D01*
X61940707Y-110072784D01*
X61940713Y-110072792D01*
X62052207Y-110184286D01*
X62052211Y-110184289D01*
X62183314Y-110271890D01*
X62183327Y-110271897D01*
X62328998Y-110332235D01*
X62329003Y-110332237D01*
X62483653Y-110362999D01*
X62483656Y-110363000D01*
X62483658Y-110363000D01*
X62641344Y-110363000D01*
X62641345Y-110362999D01*
X62795997Y-110332237D01*
X62941679Y-110271894D01*
X63072789Y-110184289D01*
X63184289Y-110072789D01*
X63184290Y-110072787D01*
X63184293Y-110072784D01*
X63271890Y-109941685D01*
X63271890Y-109941684D01*
X63271894Y-109941679D01*
X63280395Y-109921155D01*
X70449500Y-109921155D01*
X70449500Y-110078848D01*
X70480261Y-110233491D01*
X70480264Y-110233503D01*
X70540602Y-110379174D01*
X70540609Y-110379187D01*
X70628210Y-110510290D01*
X70628213Y-110510294D01*
X70739707Y-110621788D01*
X70739711Y-110621791D01*
X70870814Y-110709392D01*
X70870827Y-110709399D01*
X70997447Y-110761846D01*
X71016503Y-110769739D01*
X71171143Y-110800499D01*
X71171153Y-110800501D01*
X71171156Y-110800502D01*
X71171158Y-110800502D01*
X71328844Y-110800502D01*
X71328845Y-110800501D01*
X71483497Y-110769739D01*
X71629179Y-110709396D01*
X71760289Y-110621791D01*
X71871789Y-110510291D01*
X71959394Y-110379181D01*
X72019737Y-110233499D01*
X72050500Y-110078844D01*
X72050500Y-109921160D01*
X72050499Y-109921153D01*
X72449500Y-109921153D01*
X72449500Y-110078846D01*
X72480261Y-110233489D01*
X72480264Y-110233501D01*
X72540602Y-110379172D01*
X72540609Y-110379185D01*
X72628210Y-110510288D01*
X72628213Y-110510292D01*
X72739707Y-110621786D01*
X72739711Y-110621789D01*
X72870814Y-110709390D01*
X72870827Y-110709397D01*
X72997452Y-110761846D01*
X73016503Y-110769737D01*
X73171153Y-110800499D01*
X73171156Y-110800500D01*
X73171158Y-110800500D01*
X73328844Y-110800500D01*
X73328845Y-110800499D01*
X73483497Y-110769737D01*
X73629179Y-110709394D01*
X73760289Y-110621789D01*
X73871789Y-110510289D01*
X73959394Y-110379179D01*
X73962854Y-110370827D01*
X74003831Y-110271897D01*
X74004139Y-110271153D01*
X77699500Y-110271153D01*
X77699500Y-110428846D01*
X77730261Y-110583489D01*
X77730264Y-110583501D01*
X77790602Y-110729172D01*
X77790609Y-110729185D01*
X77878210Y-110860288D01*
X77878213Y-110860292D01*
X77989707Y-110971786D01*
X77989711Y-110971789D01*
X78120814Y-111059390D01*
X78120827Y-111059397D01*
X78266498Y-111119735D01*
X78266503Y-111119737D01*
X78421153Y-111150499D01*
X78421156Y-111150500D01*
X78421158Y-111150500D01*
X78578844Y-111150500D01*
X78578845Y-111150499D01*
X78733497Y-111119737D01*
X78879179Y-111059394D01*
X79010289Y-110971789D01*
X79121789Y-110860289D01*
X79209394Y-110729179D01*
X79269737Y-110583497D01*
X79300500Y-110428842D01*
X79300500Y-110271158D01*
X79300500Y-110271155D01*
X79300499Y-110271153D01*
X79293010Y-110233503D01*
X79269737Y-110116503D01*
X79254138Y-110078844D01*
X79209397Y-109970827D01*
X79209390Y-109970814D01*
X79121789Y-109839711D01*
X79121786Y-109839707D01*
X79010292Y-109728213D01*
X79010288Y-109728210D01*
X78924897Y-109671153D01*
X81699500Y-109671153D01*
X81699500Y-109828846D01*
X81730261Y-109983489D01*
X81730264Y-109983501D01*
X81790602Y-110129172D01*
X81790609Y-110129185D01*
X81878210Y-110260288D01*
X81878213Y-110260292D01*
X81989707Y-110371786D01*
X81989711Y-110371789D01*
X82120814Y-110459390D01*
X82120827Y-110459397D01*
X82243705Y-110510294D01*
X82266503Y-110519737D01*
X82421153Y-110550499D01*
X82421156Y-110550500D01*
X82421158Y-110550500D01*
X82578844Y-110550500D01*
X82578845Y-110550499D01*
X82733497Y-110519737D01*
X82879179Y-110459394D01*
X83010289Y-110371789D01*
X83121789Y-110260289D01*
X83209394Y-110129179D01*
X83212854Y-110120827D01*
X83243790Y-110046138D01*
X83269737Y-109983497D01*
X83300500Y-109828842D01*
X83300500Y-109671158D01*
X83300500Y-109671155D01*
X83300499Y-109671153D01*
X83291442Y-109625621D01*
X83269737Y-109516503D01*
X83258640Y-109489713D01*
X83209397Y-109370827D01*
X83209390Y-109370814D01*
X83121789Y-109239711D01*
X83121786Y-109239707D01*
X83010292Y-109128213D01*
X83010288Y-109128210D01*
X82879185Y-109040609D01*
X82879172Y-109040602D01*
X82733501Y-108980264D01*
X82733489Y-108980261D01*
X82578845Y-108949500D01*
X82578842Y-108949500D01*
X82421158Y-108949500D01*
X82421155Y-108949500D01*
X82266510Y-108980261D01*
X82266498Y-108980264D01*
X82120827Y-109040602D01*
X82120814Y-109040609D01*
X81989711Y-109128210D01*
X81989707Y-109128213D01*
X81878213Y-109239707D01*
X81878210Y-109239711D01*
X81790609Y-109370814D01*
X81790602Y-109370827D01*
X81730264Y-109516498D01*
X81730261Y-109516510D01*
X81699500Y-109671153D01*
X78924897Y-109671153D01*
X78879185Y-109640609D01*
X78879172Y-109640602D01*
X78733501Y-109580264D01*
X78733489Y-109580261D01*
X78578845Y-109549500D01*
X78578842Y-109549500D01*
X78421158Y-109549500D01*
X78421155Y-109549500D01*
X78266510Y-109580261D01*
X78266498Y-109580264D01*
X78120827Y-109640602D01*
X78120814Y-109640609D01*
X77989711Y-109728210D01*
X77989707Y-109728213D01*
X77878213Y-109839707D01*
X77878210Y-109839711D01*
X77790609Y-109970814D01*
X77790602Y-109970827D01*
X77730264Y-110116498D01*
X77730261Y-110116510D01*
X77699500Y-110271153D01*
X74004139Y-110271153D01*
X74019737Y-110233497D01*
X74050500Y-110078842D01*
X74050500Y-109921158D01*
X74050500Y-109921155D01*
X74050499Y-109921153D01*
X74041957Y-109878210D01*
X74019737Y-109766503D01*
X73967894Y-109641342D01*
X73959397Y-109620827D01*
X73959390Y-109620814D01*
X73871789Y-109489711D01*
X73871786Y-109489707D01*
X73760292Y-109378213D01*
X73760288Y-109378210D01*
X73629185Y-109290609D01*
X73629172Y-109290602D01*
X73592146Y-109275266D01*
X73483501Y-109230264D01*
X73483489Y-109230261D01*
X73328845Y-109199500D01*
X73328842Y-109199500D01*
X73171158Y-109199500D01*
X73171155Y-109199500D01*
X73016510Y-109230261D01*
X73016498Y-109230264D01*
X72870827Y-109290602D01*
X72870814Y-109290609D01*
X72739711Y-109378210D01*
X72739707Y-109378213D01*
X72628213Y-109489707D01*
X72628210Y-109489711D01*
X72540609Y-109620814D01*
X72540602Y-109620827D01*
X72480264Y-109766498D01*
X72480261Y-109766510D01*
X72449500Y-109921153D01*
X72050499Y-109921153D01*
X72019737Y-109766505D01*
X72015356Y-109755928D01*
X71959397Y-109620829D01*
X71959390Y-109620816D01*
X71871789Y-109489713D01*
X71871786Y-109489709D01*
X71760292Y-109378215D01*
X71760288Y-109378212D01*
X71629185Y-109290611D01*
X71629172Y-109290604D01*
X71483501Y-109230266D01*
X71483489Y-109230263D01*
X71328845Y-109199502D01*
X71328842Y-109199502D01*
X71171158Y-109199502D01*
X71171155Y-109199502D01*
X71016510Y-109230263D01*
X71016498Y-109230266D01*
X70870827Y-109290604D01*
X70870814Y-109290611D01*
X70739711Y-109378212D01*
X70739707Y-109378215D01*
X70628213Y-109489709D01*
X70628210Y-109489713D01*
X70540609Y-109620816D01*
X70540602Y-109620829D01*
X70480264Y-109766500D01*
X70480261Y-109766512D01*
X70449500Y-109921155D01*
X63280395Y-109921155D01*
X63280396Y-109921153D01*
X63302572Y-109867616D01*
X63332235Y-109796001D01*
X63332237Y-109795997D01*
X63363000Y-109641342D01*
X63363000Y-109483658D01*
X63363000Y-109483655D01*
X63362999Y-109483653D01*
X63362101Y-109479140D01*
X63332237Y-109329003D01*
X63316334Y-109290609D01*
X63271897Y-109183327D01*
X63271890Y-109183314D01*
X63260850Y-109166792D01*
X74875361Y-109166792D01*
X74875361Y-109324485D01*
X74906122Y-109479128D01*
X74906125Y-109479140D01*
X74966463Y-109624811D01*
X74966470Y-109624824D01*
X75054071Y-109755927D01*
X75054074Y-109755931D01*
X75165568Y-109867425D01*
X75165572Y-109867428D01*
X75296675Y-109955029D01*
X75296688Y-109955036D01*
X75389287Y-109993391D01*
X75442364Y-110015376D01*
X75569183Y-110040602D01*
X75597014Y-110046138D01*
X75597017Y-110046139D01*
X75597019Y-110046139D01*
X75754705Y-110046139D01*
X75754706Y-110046138D01*
X75909358Y-110015376D01*
X76055040Y-109955033D01*
X76186150Y-109867428D01*
X76297650Y-109755928D01*
X76385255Y-109624818D01*
X76386914Y-109620814D01*
X76432694Y-109510289D01*
X76445598Y-109479136D01*
X76476361Y-109324481D01*
X76476361Y-109166797D01*
X76476361Y-109166794D01*
X76476360Y-109166792D01*
X76468686Y-109128211D01*
X76445598Y-109012142D01*
X76432394Y-108980264D01*
X76385258Y-108866466D01*
X76385251Y-108866453D01*
X76297650Y-108735350D01*
X76297647Y-108735346D01*
X76186153Y-108623852D01*
X76186149Y-108623849D01*
X76055046Y-108536248D01*
X76055033Y-108536241D01*
X75909362Y-108475903D01*
X75909350Y-108475900D01*
X75754706Y-108445139D01*
X75754703Y-108445139D01*
X75597019Y-108445139D01*
X75597016Y-108445139D01*
X75442371Y-108475900D01*
X75442359Y-108475903D01*
X75296688Y-108536241D01*
X75296675Y-108536248D01*
X75165572Y-108623849D01*
X75165568Y-108623852D01*
X75054074Y-108735346D01*
X75054071Y-108735350D01*
X74966470Y-108866453D01*
X74966463Y-108866466D01*
X74906125Y-109012137D01*
X74906122Y-109012149D01*
X74875361Y-109166792D01*
X63260850Y-109166792D01*
X63184289Y-109052211D01*
X63184286Y-109052207D01*
X63072792Y-108940713D01*
X63072788Y-108940710D01*
X62941685Y-108853109D01*
X62941672Y-108853102D01*
X62796001Y-108792764D01*
X62795989Y-108792761D01*
X62641345Y-108762000D01*
X62641342Y-108762000D01*
X62483658Y-108762000D01*
X62483655Y-108762000D01*
X62329010Y-108792761D01*
X62328998Y-108792764D01*
X62183327Y-108853102D01*
X62183314Y-108853109D01*
X62052211Y-108940710D01*
X62052207Y-108940713D01*
X61940713Y-109052207D01*
X61940710Y-109052211D01*
X61853109Y-109183314D01*
X61853102Y-109183327D01*
X61792764Y-109328998D01*
X61792761Y-109329010D01*
X61762000Y-109483653D01*
X56800500Y-109483653D01*
X56800500Y-106671153D01*
X62949500Y-106671153D01*
X62949500Y-106828846D01*
X62980261Y-106983489D01*
X62980264Y-106983501D01*
X63040602Y-107129172D01*
X63040609Y-107129185D01*
X63128210Y-107260288D01*
X63128213Y-107260292D01*
X63239707Y-107371786D01*
X63239711Y-107371789D01*
X63370814Y-107459390D01*
X63370827Y-107459397D01*
X63473742Y-107502025D01*
X63516503Y-107519737D01*
X63671153Y-107550499D01*
X63671156Y-107550500D01*
X63671158Y-107550500D01*
X63828844Y-107550500D01*
X63828845Y-107550499D01*
X63983497Y-107519737D01*
X64129179Y-107459394D01*
X64242605Y-107383604D01*
X64309282Y-107362727D01*
X64376662Y-107381211D01*
X64380387Y-107383605D01*
X64420078Y-107410126D01*
X64420091Y-107410133D01*
X64539027Y-107459397D01*
X64565767Y-107470473D01*
X64720417Y-107501235D01*
X64720420Y-107501236D01*
X64720422Y-107501236D01*
X64878108Y-107501236D01*
X64878109Y-107501235D01*
X65032761Y-107470473D01*
X65178443Y-107410130D01*
X65309553Y-107322525D01*
X65421053Y-107211025D01*
X65508658Y-107079915D01*
X65512526Y-107070578D01*
X65522331Y-107046902D01*
X65569001Y-106934233D01*
X65573247Y-106912889D01*
X69899501Y-106912889D01*
X69899501Y-107070582D01*
X69930262Y-107225225D01*
X69930265Y-107225237D01*
X69990603Y-107370908D01*
X69990610Y-107370921D01*
X70078211Y-107502024D01*
X70078214Y-107502028D01*
X70189708Y-107613522D01*
X70189712Y-107613525D01*
X70320815Y-107701126D01*
X70320828Y-107701133D01*
X70466499Y-107761471D01*
X70466504Y-107761473D01*
X70621154Y-107792235D01*
X70621157Y-107792236D01*
X70621159Y-107792236D01*
X70625503Y-107792236D01*
X70692542Y-107811921D01*
X70738297Y-107864725D01*
X70749503Y-107916236D01*
X70749503Y-108078846D01*
X70780264Y-108233489D01*
X70780267Y-108233501D01*
X70840605Y-108379172D01*
X70840612Y-108379185D01*
X70928213Y-108510288D01*
X70928216Y-108510292D01*
X71039710Y-108621786D01*
X71039714Y-108621789D01*
X71170817Y-108709390D01*
X71170830Y-108709397D01*
X71297827Y-108762000D01*
X71316506Y-108769737D01*
X71432255Y-108792761D01*
X71471156Y-108800499D01*
X71471159Y-108800500D01*
X71471161Y-108800500D01*
X71628847Y-108800500D01*
X71628848Y-108800499D01*
X71783500Y-108769737D01*
X71929182Y-108709394D01*
X72060292Y-108621789D01*
X72171792Y-108510289D01*
X72259397Y-108379179D01*
X72319740Y-108233497D01*
X72350503Y-108078842D01*
X72350503Y-107921158D01*
X72350503Y-107921155D01*
X72350502Y-107921153D01*
X73449500Y-107921153D01*
X73449500Y-108078846D01*
X73480261Y-108233489D01*
X73480264Y-108233501D01*
X73540602Y-108379172D01*
X73540609Y-108379185D01*
X73628210Y-108510288D01*
X73628213Y-108510292D01*
X73739707Y-108621786D01*
X73739711Y-108621789D01*
X73870814Y-108709390D01*
X73870827Y-108709397D01*
X73997824Y-108762000D01*
X74016503Y-108769737D01*
X74132252Y-108792761D01*
X74171153Y-108800499D01*
X74171156Y-108800500D01*
X74171158Y-108800500D01*
X74328844Y-108800500D01*
X74328845Y-108800499D01*
X74483497Y-108769737D01*
X74629179Y-108709394D01*
X74760289Y-108621789D01*
X74871789Y-108510289D01*
X74959394Y-108379179D01*
X75019737Y-108233497D01*
X75050500Y-108078842D01*
X75050500Y-107921158D01*
X75050500Y-107921155D01*
X75050499Y-107921153D01*
X75035503Y-107845762D01*
X75019737Y-107766503D01*
X74992223Y-107700078D01*
X74959397Y-107620827D01*
X74959390Y-107620814D01*
X74871789Y-107489711D01*
X74871786Y-107489707D01*
X74769809Y-107387730D01*
X77894547Y-107387730D01*
X77894547Y-107545423D01*
X77925308Y-107700066D01*
X77925311Y-107700078D01*
X77985649Y-107845749D01*
X77985656Y-107845762D01*
X78073257Y-107976865D01*
X78073260Y-107976869D01*
X78184754Y-108088363D01*
X78184758Y-108088366D01*
X78315861Y-108175967D01*
X78315874Y-108175974D01*
X78446941Y-108230263D01*
X78461550Y-108236314D01*
X78616200Y-108267076D01*
X78616203Y-108267077D01*
X78616205Y-108267077D01*
X78773891Y-108267077D01*
X78773892Y-108267076D01*
X78928544Y-108236314D01*
X79074226Y-108175971D01*
X79205336Y-108088366D01*
X79316836Y-107976866D01*
X79404441Y-107845756D01*
X79464784Y-107700074D01*
X79495547Y-107545419D01*
X79495547Y-107387735D01*
X79495547Y-107387732D01*
X79495546Y-107387730D01*
X79492375Y-107371789D01*
X79464784Y-107233080D01*
X79421750Y-107129185D01*
X79404444Y-107087404D01*
X79404437Y-107087391D01*
X79316836Y-106956288D01*
X79316833Y-106956284D01*
X79205339Y-106844790D01*
X79205335Y-106844787D01*
X79090667Y-106768168D01*
X79074232Y-106757186D01*
X79074219Y-106757179D01*
X78928548Y-106696841D01*
X78928536Y-106696838D01*
X78799410Y-106671153D01*
X82599500Y-106671153D01*
X82599500Y-106828846D01*
X82630261Y-106983489D01*
X82630264Y-106983501D01*
X82690602Y-107129172D01*
X82690609Y-107129185D01*
X82778210Y-107260288D01*
X82778213Y-107260292D01*
X82889707Y-107371786D01*
X82889711Y-107371789D01*
X83020814Y-107459390D01*
X83020827Y-107459397D01*
X83123742Y-107502025D01*
X83166503Y-107519737D01*
X83321153Y-107550499D01*
X83321156Y-107550500D01*
X83321158Y-107550500D01*
X83478844Y-107550500D01*
X83478845Y-107550499D01*
X83633497Y-107519737D01*
X83779179Y-107459394D01*
X83910289Y-107371789D01*
X84021789Y-107260289D01*
X84109394Y-107129179D01*
X84169737Y-106983497D01*
X84200500Y-106828842D01*
X84200500Y-106671158D01*
X84200500Y-106671155D01*
X84200499Y-106671153D01*
X84190700Y-106621889D01*
X84169737Y-106516503D01*
X84169735Y-106516498D01*
X84109397Y-106370827D01*
X84109390Y-106370814D01*
X84021789Y-106239711D01*
X84021786Y-106239707D01*
X83910292Y-106128213D01*
X83910288Y-106128210D01*
X83779185Y-106040609D01*
X83779172Y-106040602D01*
X83633501Y-105980264D01*
X83633489Y-105980261D01*
X83478845Y-105949500D01*
X83478842Y-105949500D01*
X83321158Y-105949500D01*
X83321155Y-105949500D01*
X83166510Y-105980261D01*
X83166498Y-105980264D01*
X83020827Y-106040602D01*
X83020814Y-106040609D01*
X82889711Y-106128210D01*
X82889707Y-106128213D01*
X82778213Y-106239707D01*
X82778210Y-106239711D01*
X82690609Y-106370814D01*
X82690602Y-106370827D01*
X82630264Y-106516498D01*
X82630261Y-106516510D01*
X82599500Y-106671153D01*
X78799410Y-106671153D01*
X78773892Y-106666077D01*
X78773889Y-106666077D01*
X78616205Y-106666077D01*
X78616202Y-106666077D01*
X78461557Y-106696838D01*
X78461545Y-106696841D01*
X78315874Y-106757179D01*
X78315861Y-106757186D01*
X78184758Y-106844787D01*
X78184754Y-106844790D01*
X78073260Y-106956284D01*
X78073257Y-106956288D01*
X77985656Y-107087391D01*
X77985649Y-107087404D01*
X77925311Y-107233075D01*
X77925308Y-107233087D01*
X77894547Y-107387730D01*
X74769809Y-107387730D01*
X74760292Y-107378213D01*
X74760288Y-107378210D01*
X74629185Y-107290609D01*
X74629172Y-107290602D01*
X74483501Y-107230264D01*
X74483489Y-107230261D01*
X74328845Y-107199500D01*
X74328842Y-107199500D01*
X74171158Y-107199500D01*
X74171155Y-107199500D01*
X74016510Y-107230261D01*
X74016498Y-107230264D01*
X73870827Y-107290602D01*
X73870814Y-107290609D01*
X73739711Y-107378210D01*
X73739707Y-107378213D01*
X73628213Y-107489707D01*
X73628210Y-107489711D01*
X73540609Y-107620814D01*
X73540602Y-107620827D01*
X73480264Y-107766498D01*
X73480261Y-107766510D01*
X73449500Y-107921153D01*
X72350502Y-107921153D01*
X72335506Y-107845762D01*
X72319740Y-107766503D01*
X72292226Y-107700078D01*
X72259400Y-107620827D01*
X72259393Y-107620814D01*
X72171792Y-107489711D01*
X72171789Y-107489707D01*
X72060295Y-107378213D01*
X72060291Y-107378210D01*
X71929188Y-107290609D01*
X71929175Y-107290602D01*
X71783504Y-107230264D01*
X71783492Y-107230261D01*
X71628848Y-107199500D01*
X71628845Y-107199500D01*
X71624501Y-107199500D01*
X71557462Y-107179815D01*
X71511707Y-107127011D01*
X71500501Y-107075500D01*
X71500501Y-106912891D01*
X71500500Y-106912889D01*
X71486954Y-106844788D01*
X71469738Y-106758239D01*
X71469299Y-106757179D01*
X71409398Y-106612563D01*
X71409391Y-106612550D01*
X71321790Y-106481447D01*
X71321787Y-106481443D01*
X71210293Y-106369949D01*
X71210289Y-106369946D01*
X71079186Y-106282345D01*
X71079173Y-106282338D01*
X70933502Y-106222000D01*
X70933490Y-106221997D01*
X70778846Y-106191236D01*
X70778843Y-106191236D01*
X70621159Y-106191236D01*
X70621156Y-106191236D01*
X70466511Y-106221997D01*
X70466499Y-106222000D01*
X70320828Y-106282338D01*
X70320815Y-106282345D01*
X70189712Y-106369946D01*
X70189708Y-106369949D01*
X70078214Y-106481443D01*
X70078211Y-106481447D01*
X69990610Y-106612550D01*
X69990603Y-106612563D01*
X69930265Y-106758234D01*
X69930262Y-106758246D01*
X69899501Y-106912889D01*
X65573247Y-106912889D01*
X65586793Y-106844790D01*
X65599763Y-106779582D01*
X65599764Y-106779580D01*
X65599764Y-106621891D01*
X65599763Y-106621889D01*
X65597905Y-106612550D01*
X65569001Y-106467239D01*
X65568999Y-106467234D01*
X65508661Y-106321563D01*
X65508654Y-106321550D01*
X65421053Y-106190447D01*
X65421050Y-106190443D01*
X65309556Y-106078949D01*
X65309552Y-106078946D01*
X65178449Y-105991345D01*
X65178436Y-105991338D01*
X65032765Y-105931000D01*
X65032753Y-105930997D01*
X64878109Y-105900236D01*
X64878106Y-105900236D01*
X64720422Y-105900236D01*
X64720419Y-105900236D01*
X64565774Y-105930997D01*
X64565762Y-105931000D01*
X64420091Y-105991338D01*
X64420080Y-105991344D01*
X64306657Y-106067131D01*
X64239980Y-106088008D01*
X64172600Y-106069523D01*
X64168877Y-106067131D01*
X64157441Y-106059490D01*
X64129179Y-106040606D01*
X64129176Y-106040604D01*
X64129175Y-106040604D01*
X63983501Y-105980264D01*
X63983489Y-105980261D01*
X63828845Y-105949500D01*
X63828842Y-105949500D01*
X63671158Y-105949500D01*
X63671155Y-105949500D01*
X63516510Y-105980261D01*
X63516498Y-105980264D01*
X63370827Y-106040602D01*
X63370814Y-106040609D01*
X63239711Y-106128210D01*
X63239707Y-106128213D01*
X63128213Y-106239707D01*
X63128210Y-106239711D01*
X63040609Y-106370814D01*
X63040602Y-106370827D01*
X62980264Y-106516498D01*
X62980261Y-106516510D01*
X62949500Y-106671153D01*
X56800500Y-106671153D01*
X56800500Y-101474735D01*
X61753082Y-101474735D01*
X61753082Y-101632428D01*
X61783843Y-101787071D01*
X61783846Y-101787083D01*
X61844184Y-101932754D01*
X61844191Y-101932767D01*
X61931792Y-102063870D01*
X61931795Y-102063874D01*
X62043289Y-102175368D01*
X62043293Y-102175371D01*
X62174396Y-102262972D01*
X62179773Y-102265846D01*
X62178677Y-102267894D01*
X62225045Y-102305251D01*
X62247117Y-102371543D01*
X62229845Y-102439244D01*
X62210878Y-102463663D01*
X62154025Y-102520516D01*
X62066424Y-102651619D01*
X62066417Y-102651632D01*
X62006079Y-102797303D01*
X62006076Y-102797315D01*
X61975315Y-102951958D01*
X61975315Y-103109651D01*
X62006076Y-103264294D01*
X62006079Y-103264306D01*
X62066417Y-103409977D01*
X62066424Y-103409990D01*
X62154025Y-103541093D01*
X62154028Y-103541097D01*
X62265522Y-103652591D01*
X62265527Y-103652595D01*
X62280568Y-103662645D01*
X62325374Y-103716256D01*
X62334083Y-103785581D01*
X62314782Y-103834638D01*
X62290608Y-103870816D01*
X62290602Y-103870827D01*
X62230264Y-104016498D01*
X62230261Y-104016510D01*
X62199500Y-104171153D01*
X62199500Y-104328846D01*
X62230261Y-104483489D01*
X62230264Y-104483501D01*
X62290602Y-104629172D01*
X62290609Y-104629185D01*
X62378210Y-104760288D01*
X62378213Y-104760292D01*
X62489707Y-104871786D01*
X62489711Y-104871789D01*
X62620814Y-104959390D01*
X62620827Y-104959397D01*
X62766498Y-105019735D01*
X62766503Y-105019737D01*
X62921153Y-105050499D01*
X62921156Y-105050500D01*
X62921158Y-105050500D01*
X63078844Y-105050500D01*
X63078845Y-105050499D01*
X63233497Y-105019737D01*
X63379179Y-104959394D01*
X63436411Y-104921153D01*
X71449500Y-104921153D01*
X71449500Y-105078846D01*
X71480261Y-105233489D01*
X71480264Y-105233501D01*
X71540602Y-105379172D01*
X71540609Y-105379185D01*
X71628210Y-105510288D01*
X71628213Y-105510292D01*
X71739707Y-105621786D01*
X71739711Y-105621789D01*
X71870814Y-105709390D01*
X71870827Y-105709397D01*
X72016498Y-105769735D01*
X72016503Y-105769737D01*
X72171153Y-105800499D01*
X72171156Y-105800500D01*
X72171158Y-105800500D01*
X72328844Y-105800500D01*
X72328845Y-105800499D01*
X72483497Y-105769737D01*
X72629179Y-105709394D01*
X72760289Y-105621789D01*
X72871789Y-105510289D01*
X72959394Y-105379179D01*
X73019737Y-105233497D01*
X73050500Y-105078842D01*
X73050500Y-104921158D01*
X73050500Y-104921155D01*
X73050499Y-104921153D01*
X73028213Y-104809115D01*
X73019737Y-104766503D01*
X72972069Y-104651422D01*
X74719231Y-104651422D01*
X74719231Y-104809115D01*
X74749992Y-104963758D01*
X74749995Y-104963770D01*
X74810333Y-105109441D01*
X74810340Y-105109454D01*
X74897941Y-105240557D01*
X74897944Y-105240561D01*
X75009438Y-105352055D01*
X75009442Y-105352058D01*
X75140545Y-105439659D01*
X75140558Y-105439666D01*
X75286229Y-105500004D01*
X75286234Y-105500006D01*
X75440884Y-105530768D01*
X75440887Y-105530769D01*
X75440889Y-105530769D01*
X75598575Y-105530769D01*
X75598576Y-105530768D01*
X75753228Y-105500006D01*
X75898910Y-105439663D01*
X76030020Y-105352058D01*
X76141520Y-105240558D01*
X76229125Y-105109448D01*
X76241802Y-105078844D01*
X76289466Y-104963770D01*
X76289468Y-104963766D01*
X76320231Y-104809111D01*
X76320231Y-104651427D01*
X76320231Y-104651424D01*
X76320230Y-104651422D01*
X76291979Y-104509397D01*
X76289468Y-104496772D01*
X76281925Y-104478561D01*
X76229128Y-104351096D01*
X76229121Y-104351083D01*
X76141520Y-104219980D01*
X76141517Y-104219976D01*
X76030023Y-104108482D01*
X76030019Y-104108479D01*
X75898916Y-104020878D01*
X75898903Y-104020871D01*
X75753232Y-103960533D01*
X75753220Y-103960530D01*
X75598576Y-103929769D01*
X75598573Y-103929769D01*
X75440889Y-103929769D01*
X75440886Y-103929769D01*
X75286241Y-103960530D01*
X75286229Y-103960533D01*
X75140558Y-104020871D01*
X75140545Y-104020878D01*
X75009442Y-104108479D01*
X75009438Y-104108482D01*
X74897944Y-104219976D01*
X74897941Y-104219980D01*
X74810340Y-104351083D01*
X74810333Y-104351096D01*
X74749995Y-104496767D01*
X74749992Y-104496779D01*
X74719231Y-104651422D01*
X72972069Y-104651422D01*
X72959394Y-104620821D01*
X72959392Y-104620818D01*
X72959390Y-104620814D01*
X72871789Y-104489711D01*
X72871786Y-104489707D01*
X72760292Y-104378213D01*
X72760288Y-104378210D01*
X72629185Y-104290609D01*
X72629172Y-104290602D01*
X72483501Y-104230264D01*
X72483489Y-104230261D01*
X72328845Y-104199500D01*
X72328842Y-104199500D01*
X72171158Y-104199500D01*
X72171155Y-104199500D01*
X72016510Y-104230261D01*
X72016498Y-104230264D01*
X71870827Y-104290602D01*
X71870814Y-104290609D01*
X71739711Y-104378210D01*
X71739707Y-104378213D01*
X71628213Y-104489707D01*
X71628210Y-104489711D01*
X71540609Y-104620814D01*
X71540602Y-104620827D01*
X71480264Y-104766498D01*
X71480261Y-104766510D01*
X71449500Y-104921153D01*
X63436411Y-104921153D01*
X63510289Y-104871789D01*
X63510292Y-104871786D01*
X63554694Y-104827385D01*
X63621786Y-104760292D01*
X63621789Y-104760289D01*
X63709394Y-104629179D01*
X63712854Y-104620827D01*
X63759012Y-104509390D01*
X63769737Y-104483497D01*
X63800500Y-104328842D01*
X63800500Y-104171158D01*
X63800500Y-104171155D01*
X63800499Y-104171153D01*
X63783958Y-104087995D01*
X63769737Y-104016503D01*
X63764864Y-104004738D01*
X63709397Y-103870827D01*
X63709390Y-103870814D01*
X63621789Y-103739711D01*
X63621786Y-103739707D01*
X63510292Y-103628213D01*
X63510284Y-103628207D01*
X63495245Y-103618158D01*
X63450439Y-103564546D01*
X63441732Y-103495221D01*
X63461032Y-103446166D01*
X63485209Y-103409984D01*
X63545552Y-103264302D01*
X63562677Y-103178210D01*
X63567065Y-103156153D01*
X64449500Y-103156153D01*
X64449500Y-103313846D01*
X64480261Y-103468489D01*
X64480264Y-103468501D01*
X64540602Y-103614172D01*
X64540609Y-103614185D01*
X64628210Y-103745288D01*
X64628213Y-103745292D01*
X64739707Y-103856786D01*
X64739711Y-103856789D01*
X64870814Y-103944390D01*
X64870827Y-103944397D01*
X65016498Y-104004735D01*
X65016503Y-104004737D01*
X65171153Y-104035499D01*
X65171156Y-104035500D01*
X65171158Y-104035500D01*
X65328844Y-104035500D01*
X65328845Y-104035499D01*
X65483497Y-104004737D01*
X65629179Y-103944394D01*
X65760289Y-103856789D01*
X65871789Y-103745289D01*
X65959394Y-103614179D01*
X66019737Y-103468497D01*
X66050500Y-103313842D01*
X66050500Y-103156158D01*
X66050500Y-103156155D01*
X66050499Y-103156153D01*
X66044476Y-103125876D01*
X66019737Y-103001503D01*
X65993883Y-102939086D01*
X65959397Y-102855827D01*
X65959390Y-102855814D01*
X65871789Y-102724711D01*
X65871786Y-102724707D01*
X65760296Y-102613217D01*
X65760284Y-102613207D01*
X65629185Y-102525609D01*
X65629172Y-102525602D01*
X65627011Y-102524707D01*
X70095946Y-102524707D01*
X70095946Y-102682400D01*
X70126707Y-102837043D01*
X70126710Y-102837055D01*
X70187048Y-102982726D01*
X70187055Y-102982739D01*
X70274656Y-103113842D01*
X70274659Y-103113846D01*
X70386153Y-103225340D01*
X70386157Y-103225343D01*
X70517260Y-103312944D01*
X70517273Y-103312951D01*
X70607926Y-103350500D01*
X70662949Y-103373291D01*
X70817599Y-103404053D01*
X70817602Y-103404054D01*
X70817604Y-103404054D01*
X70975290Y-103404054D01*
X70975291Y-103404053D01*
X71129943Y-103373291D01*
X71275625Y-103312948D01*
X71406735Y-103225343D01*
X71518235Y-103113843D01*
X71605840Y-102982733D01*
X71618587Y-102951960D01*
X71651297Y-102872989D01*
X71666183Y-102837051D01*
X71696946Y-102682396D01*
X71696946Y-102524712D01*
X71696946Y-102524709D01*
X71696769Y-102522912D01*
X71696946Y-102521978D01*
X71696946Y-102518620D01*
X71697583Y-102518620D01*
X71709789Y-102454266D01*
X71757855Y-102403557D01*
X71825706Y-102386884D01*
X71844364Y-102389143D01*
X71901457Y-102400500D01*
X71901459Y-102400500D01*
X72098543Y-102400500D01*
X72251551Y-102370064D01*
X72291835Y-102362051D01*
X72384184Y-102323798D01*
X72453653Y-102316330D01*
X72516132Y-102347605D01*
X72536768Y-102374416D01*
X72537221Y-102374114D01*
X72628210Y-102510288D01*
X72628213Y-102510292D01*
X72739707Y-102621786D01*
X72739711Y-102621789D01*
X72870814Y-102709390D01*
X72870827Y-102709397D01*
X72970060Y-102750500D01*
X73016503Y-102769737D01*
X73155086Y-102797303D01*
X73171153Y-102800499D01*
X73171156Y-102800500D01*
X73300942Y-102800500D01*
X73367981Y-102820185D01*
X73413736Y-102872989D01*
X73423680Y-102942147D01*
X73394655Y-103005703D01*
X73369833Y-103027602D01*
X73280888Y-103087033D01*
X73280884Y-103087036D01*
X73169390Y-103198530D01*
X73169387Y-103198534D01*
X73081786Y-103329637D01*
X73081779Y-103329650D01*
X73021441Y-103475321D01*
X73021438Y-103475333D01*
X72990677Y-103629976D01*
X72990677Y-103787669D01*
X73021438Y-103942312D01*
X73021441Y-103942324D01*
X73081779Y-104087995D01*
X73081786Y-104088008D01*
X73169387Y-104219111D01*
X73169390Y-104219115D01*
X73280884Y-104330609D01*
X73280888Y-104330612D01*
X73411991Y-104418213D01*
X73412004Y-104418220D01*
X73557675Y-104478558D01*
X73557680Y-104478560D01*
X73712330Y-104509322D01*
X73712333Y-104509323D01*
X73712335Y-104509323D01*
X73870021Y-104509323D01*
X73870022Y-104509322D01*
X74024674Y-104478560D01*
X74137343Y-104431890D01*
X74170349Y-104418220D01*
X74170349Y-104418219D01*
X74170356Y-104418217D01*
X74301466Y-104330612D01*
X74412966Y-104219112D01*
X74500571Y-104088002D01*
X74560914Y-103942320D01*
X74591677Y-103787665D01*
X74591677Y-103721153D01*
X86199500Y-103721153D01*
X86199500Y-103878846D01*
X86230261Y-104033489D01*
X86230264Y-104033501D01*
X86290602Y-104179172D01*
X86290609Y-104179185D01*
X86378210Y-104310288D01*
X86378213Y-104310292D01*
X86489707Y-104421786D01*
X86489711Y-104421789D01*
X86620814Y-104509390D01*
X86620827Y-104509397D01*
X86766498Y-104569735D01*
X86766503Y-104569737D01*
X86921153Y-104600499D01*
X86921156Y-104600500D01*
X86921158Y-104600500D01*
X87078844Y-104600500D01*
X87078845Y-104600499D01*
X87233497Y-104569737D01*
X87379179Y-104509394D01*
X87510289Y-104421789D01*
X87621789Y-104310289D01*
X87709394Y-104179179D01*
X87712719Y-104171153D01*
X87768907Y-104035500D01*
X87769737Y-104033497D01*
X87800500Y-103878842D01*
X87800500Y-103721158D01*
X87800500Y-103721155D01*
X87800499Y-103721153D01*
X87786861Y-103652591D01*
X87769737Y-103566503D01*
X87759212Y-103541093D01*
X87709397Y-103420827D01*
X87709390Y-103420814D01*
X87621789Y-103289711D01*
X87621786Y-103289707D01*
X87510292Y-103178213D01*
X87510288Y-103178210D01*
X87379185Y-103090609D01*
X87379172Y-103090602D01*
X87233501Y-103030264D01*
X87233489Y-103030261D01*
X87078845Y-102999500D01*
X87078842Y-102999500D01*
X86921158Y-102999500D01*
X86921155Y-102999500D01*
X86766510Y-103030261D01*
X86766498Y-103030264D01*
X86620827Y-103090602D01*
X86620814Y-103090609D01*
X86489711Y-103178210D01*
X86489707Y-103178213D01*
X86378213Y-103289707D01*
X86378210Y-103289711D01*
X86290609Y-103420814D01*
X86290602Y-103420827D01*
X86230264Y-103566498D01*
X86230261Y-103566510D01*
X86199500Y-103721153D01*
X74591677Y-103721153D01*
X74591677Y-103629981D01*
X74591677Y-103629978D01*
X74591676Y-103629976D01*
X74560915Y-103475333D01*
X74560914Y-103475326D01*
X74558082Y-103468489D01*
X74500574Y-103329650D01*
X74500567Y-103329637D01*
X74412966Y-103198534D01*
X74412963Y-103198530D01*
X74301469Y-103087036D01*
X74301465Y-103087033D01*
X74170362Y-102999432D01*
X74170349Y-102999425D01*
X74024678Y-102939087D01*
X74024666Y-102939084D01*
X73870022Y-102908323D01*
X73870019Y-102908323D01*
X73740235Y-102908323D01*
X73673196Y-102888638D01*
X73627441Y-102835834D01*
X73617497Y-102766676D01*
X73646522Y-102703120D01*
X73671344Y-102681221D01*
X73738070Y-102636635D01*
X73760289Y-102621789D01*
X73871789Y-102510289D01*
X73959394Y-102379179D01*
X73963173Y-102370057D01*
X74005489Y-102267894D01*
X74019737Y-102233497D01*
X74050500Y-102078842D01*
X74050500Y-101921158D01*
X74050500Y-101921155D01*
X74050499Y-101921153D01*
X74036056Y-101848543D01*
X76499499Y-101848543D01*
X76537947Y-102041829D01*
X76537950Y-102041839D01*
X76613364Y-102223907D01*
X76613371Y-102223920D01*
X76722860Y-102387781D01*
X76722863Y-102387785D01*
X76862214Y-102527136D01*
X76862218Y-102527139D01*
X77026079Y-102636628D01*
X77026092Y-102636635D01*
X77208160Y-102712049D01*
X77208165Y-102712051D01*
X77208169Y-102712051D01*
X77208170Y-102712052D01*
X77401456Y-102750500D01*
X77401459Y-102750500D01*
X77598543Y-102750500D01*
X77728582Y-102724632D01*
X77791835Y-102712051D01*
X77973914Y-102636632D01*
X78137782Y-102527139D01*
X78277139Y-102387782D01*
X78386632Y-102223914D01*
X78462051Y-102041835D01*
X78491515Y-101893713D01*
X79109500Y-101893713D01*
X79109500Y-102106286D01*
X79134316Y-102262972D01*
X79142754Y-102316243D01*
X79205803Y-102510288D01*
X79208444Y-102518414D01*
X79304951Y-102707820D01*
X79429890Y-102879786D01*
X79580213Y-103030109D01*
X79752179Y-103155048D01*
X79752181Y-103155049D01*
X79752184Y-103155051D01*
X79941588Y-103251557D01*
X80143757Y-103317246D01*
X80353713Y-103350500D01*
X80353714Y-103350500D01*
X80566286Y-103350500D01*
X80566287Y-103350500D01*
X80776243Y-103317246D01*
X80978412Y-103251557D01*
X81167816Y-103155051D01*
X81224530Y-103113846D01*
X81339786Y-103030109D01*
X81339788Y-103030106D01*
X81339792Y-103030104D01*
X81490104Y-102879792D01*
X81490106Y-102879788D01*
X81490109Y-102879786D01*
X81611974Y-102712051D01*
X81615051Y-102707816D01*
X81619514Y-102699054D01*
X81667488Y-102648259D01*
X81735308Y-102631463D01*
X81801444Y-102653999D01*
X81840486Y-102699056D01*
X81844951Y-102707820D01*
X81969890Y-102879786D01*
X82120213Y-103030109D01*
X82292179Y-103155048D01*
X82292181Y-103155049D01*
X82292184Y-103155051D01*
X82481588Y-103251557D01*
X82683757Y-103317246D01*
X82893713Y-103350500D01*
X82893714Y-103350500D01*
X83106286Y-103350500D01*
X83106287Y-103350500D01*
X83316243Y-103317246D01*
X83518412Y-103251557D01*
X83707816Y-103155051D01*
X83764530Y-103113846D01*
X83879786Y-103030109D01*
X83879788Y-103030106D01*
X83879792Y-103030104D01*
X84030104Y-102879792D01*
X84030106Y-102879788D01*
X84030109Y-102879786D01*
X84151974Y-102712051D01*
X84155051Y-102707816D01*
X84251557Y-102518412D01*
X84317246Y-102316243D01*
X84350500Y-102106287D01*
X84350500Y-101893713D01*
X84317246Y-101683757D01*
X84251557Y-101481588D01*
X84155051Y-101292184D01*
X84155049Y-101292181D01*
X84155048Y-101292179D01*
X84030109Y-101120213D01*
X83879786Y-100969890D01*
X83707820Y-100844951D01*
X83707115Y-100844591D01*
X83699054Y-100840485D01*
X83648259Y-100792512D01*
X83631463Y-100724692D01*
X83653999Y-100658556D01*
X83699054Y-100619515D01*
X83707816Y-100615051D01*
X83794471Y-100552093D01*
X83879786Y-100490109D01*
X83879788Y-100490106D01*
X83879792Y-100490104D01*
X84030104Y-100339792D01*
X84030106Y-100339788D01*
X84030109Y-100339786D01*
X84155048Y-100167820D01*
X84155047Y-100167820D01*
X84155051Y-100167816D01*
X84251557Y-99978412D01*
X84317246Y-99776243D01*
X84350500Y-99566287D01*
X84350500Y-99353713D01*
X84317246Y-99143757D01*
X84251557Y-98941588D01*
X84155051Y-98752184D01*
X84155049Y-98752181D01*
X84155048Y-98752179D01*
X84030109Y-98580213D01*
X83879786Y-98429890D01*
X83707820Y-98304951D01*
X83518414Y-98208444D01*
X83518413Y-98208443D01*
X83518412Y-98208443D01*
X83316243Y-98142754D01*
X83316241Y-98142753D01*
X83316240Y-98142753D01*
X83154957Y-98117208D01*
X83106287Y-98109500D01*
X82893713Y-98109500D01*
X82845042Y-98117208D01*
X82683760Y-98142753D01*
X82481585Y-98208444D01*
X82292179Y-98304951D01*
X82120215Y-98429889D01*
X82006285Y-98543819D01*
X81944962Y-98577303D01*
X81875270Y-98572319D01*
X81819337Y-98530447D01*
X81802422Y-98499470D01*
X81753354Y-98367913D01*
X81753350Y-98367906D01*
X81667190Y-98252812D01*
X81667187Y-98252809D01*
X81552093Y-98166649D01*
X81552086Y-98166645D01*
X81417379Y-98116403D01*
X81417372Y-98116401D01*
X81357844Y-98110000D01*
X80710000Y-98110000D01*
X80710000Y-99026988D01*
X80652993Y-98994075D01*
X80525826Y-98960000D01*
X80394174Y-98960000D01*
X80267007Y-98994075D01*
X80210000Y-99026988D01*
X80210000Y-98110000D01*
X79562155Y-98110000D01*
X79502627Y-98116401D01*
X79502620Y-98116403D01*
X79367913Y-98166645D01*
X79367906Y-98166649D01*
X79252812Y-98252809D01*
X79252809Y-98252812D01*
X79166649Y-98367906D01*
X79166645Y-98367913D01*
X79116403Y-98502620D01*
X79116401Y-98502627D01*
X79110000Y-98562155D01*
X79110000Y-99210000D01*
X80026988Y-99210000D01*
X79994075Y-99267007D01*
X79960000Y-99394174D01*
X79960000Y-99525826D01*
X79994075Y-99652993D01*
X80026988Y-99710000D01*
X79110000Y-99710000D01*
X79110000Y-100357844D01*
X79116401Y-100417372D01*
X79116403Y-100417379D01*
X79166645Y-100552086D01*
X79166649Y-100552093D01*
X79252809Y-100667187D01*
X79252812Y-100667190D01*
X79367906Y-100753350D01*
X79367913Y-100753354D01*
X79499470Y-100802422D01*
X79555404Y-100844293D01*
X79579821Y-100909758D01*
X79564969Y-100978031D01*
X79543819Y-101006285D01*
X79429889Y-101120215D01*
X79304951Y-101292179D01*
X79208444Y-101481585D01*
X79142753Y-101683760D01*
X79109500Y-101893713D01*
X78491515Y-101893713D01*
X78500500Y-101848541D01*
X78500500Y-101651459D01*
X78500500Y-101651456D01*
X78462052Y-101458170D01*
X78462051Y-101458169D01*
X78462051Y-101458165D01*
X78424926Y-101368536D01*
X78386635Y-101276092D01*
X78386628Y-101276079D01*
X78277139Y-101112218D01*
X78277136Y-101112214D01*
X78137785Y-100972863D01*
X78137781Y-100972860D01*
X77973920Y-100863371D01*
X77973907Y-100863364D01*
X77791839Y-100787950D01*
X77791829Y-100787947D01*
X77598543Y-100749500D01*
X77598541Y-100749500D01*
X77401459Y-100749500D01*
X77401457Y-100749500D01*
X77208170Y-100787947D01*
X77208160Y-100787950D01*
X77026092Y-100863364D01*
X77026079Y-100863371D01*
X76862218Y-100972860D01*
X76862214Y-100972863D01*
X76722863Y-101112214D01*
X76722860Y-101112218D01*
X76613371Y-101276079D01*
X76613364Y-101276092D01*
X76537950Y-101458160D01*
X76537947Y-101458170D01*
X76499500Y-101651456D01*
X76499500Y-101651459D01*
X76499500Y-101848541D01*
X76499500Y-101848543D01*
X76499499Y-101848543D01*
X74036056Y-101848543D01*
X74033127Y-101833818D01*
X74019737Y-101766503D01*
X74002320Y-101724454D01*
X73989217Y-101692819D01*
X73959395Y-101620823D01*
X73959390Y-101620814D01*
X73871789Y-101489711D01*
X73871786Y-101489707D01*
X73760292Y-101378213D01*
X73760288Y-101378210D01*
X73629185Y-101290609D01*
X73629172Y-101290602D01*
X73483501Y-101230264D01*
X73483489Y-101230261D01*
X73328845Y-101199500D01*
X73328842Y-101199500D01*
X73171158Y-101199500D01*
X73171156Y-101199500D01*
X73109104Y-101211843D01*
X73039512Y-101205616D01*
X72984335Y-101162753D01*
X72963294Y-101114416D01*
X72962856Y-101112214D01*
X72962051Y-101108165D01*
X72962049Y-101108160D01*
X72886635Y-100926092D01*
X72886628Y-100926079D01*
X72777139Y-100762218D01*
X72777136Y-100762214D01*
X72637785Y-100622863D01*
X72637781Y-100622860D01*
X72473920Y-100513371D01*
X72473907Y-100513364D01*
X72291839Y-100437950D01*
X72291829Y-100437947D01*
X72098543Y-100399500D01*
X72098541Y-100399500D01*
X71901459Y-100399500D01*
X71901457Y-100399500D01*
X71708170Y-100437947D01*
X71708160Y-100437950D01*
X71526092Y-100513364D01*
X71526079Y-100513371D01*
X71362218Y-100622860D01*
X71362214Y-100622863D01*
X71222863Y-100762214D01*
X71222860Y-100762218D01*
X71113371Y-100926079D01*
X71113364Y-100926092D01*
X71037950Y-101108160D01*
X71037947Y-101108170D01*
X70999500Y-101301456D01*
X70999500Y-101498545D01*
X71030594Y-101654863D01*
X71024367Y-101724454D01*
X70981504Y-101779632D01*
X70915614Y-101802876D01*
X70908977Y-101803054D01*
X70817601Y-101803054D01*
X70662956Y-101833815D01*
X70662944Y-101833818D01*
X70517273Y-101894156D01*
X70517260Y-101894163D01*
X70386157Y-101981764D01*
X70386153Y-101981767D01*
X70274659Y-102093261D01*
X70274656Y-102093265D01*
X70187055Y-102224368D01*
X70187048Y-102224381D01*
X70126710Y-102370052D01*
X70126707Y-102370064D01*
X70095946Y-102524707D01*
X65627011Y-102524707D01*
X65483501Y-102465264D01*
X65483489Y-102465261D01*
X65328845Y-102434500D01*
X65328842Y-102434500D01*
X65171158Y-102434500D01*
X65171155Y-102434500D01*
X65016510Y-102465261D01*
X65016498Y-102465264D01*
X64870827Y-102525602D01*
X64870814Y-102525609D01*
X64739711Y-102613210D01*
X64739707Y-102613213D01*
X64628213Y-102724707D01*
X64628210Y-102724711D01*
X64540609Y-102855814D01*
X64540602Y-102855827D01*
X64480264Y-103001498D01*
X64480261Y-103001510D01*
X64449500Y-103156153D01*
X63567065Y-103156153D01*
X63573083Y-103125897D01*
X63573087Y-103125876D01*
X63575480Y-103113843D01*
X63576315Y-103109647D01*
X63576315Y-102951963D01*
X63576315Y-102951960D01*
X63576314Y-102951958D01*
X63557191Y-102855821D01*
X63545552Y-102797308D01*
X63510237Y-102712049D01*
X63485212Y-102651632D01*
X63485205Y-102651619D01*
X63397604Y-102520516D01*
X63397601Y-102520512D01*
X63286107Y-102409018D01*
X63286103Y-102409015D01*
X63155000Y-102321414D01*
X63149624Y-102318541D01*
X63150715Y-102316498D01*
X63104333Y-102279108D01*
X63082278Y-102212810D01*
X63099568Y-102145114D01*
X63118515Y-102120726D01*
X63175371Y-102063871D01*
X63262976Y-101932761D01*
X63323319Y-101787079D01*
X63354082Y-101632424D01*
X63354082Y-101474740D01*
X63354082Y-101474737D01*
X63354081Y-101474735D01*
X63334881Y-101378210D01*
X63323319Y-101320085D01*
X63315603Y-101301456D01*
X63262979Y-101174409D01*
X63262972Y-101174396D01*
X63175371Y-101043293D01*
X63175368Y-101043289D01*
X63063874Y-100931795D01*
X63063870Y-100931792D01*
X62932767Y-100844191D01*
X62932754Y-100844184D01*
X62787083Y-100783846D01*
X62787071Y-100783843D01*
X62632427Y-100753082D01*
X62632424Y-100753082D01*
X62474740Y-100753082D01*
X62474737Y-100753082D01*
X62320092Y-100783843D01*
X62320080Y-100783846D01*
X62174409Y-100844184D01*
X62174396Y-100844191D01*
X62043293Y-100931792D01*
X62043289Y-100931795D01*
X61931795Y-101043289D01*
X61931792Y-101043293D01*
X61844191Y-101174396D01*
X61844184Y-101174409D01*
X61783846Y-101320080D01*
X61783843Y-101320092D01*
X61753082Y-101474735D01*
X56800500Y-101474735D01*
X56800500Y-98391771D01*
X56820185Y-98324732D01*
X56872989Y-98278977D01*
X56942147Y-98269033D01*
X57005703Y-98298058D01*
X57039061Y-98344319D01*
X57058490Y-98391225D01*
X57058495Y-98391237D01*
X57209014Y-98672837D01*
X57209025Y-98672855D01*
X57386422Y-98938348D01*
X57386432Y-98938362D01*
X57531418Y-99115027D01*
X58705747Y-97940697D01*
X58779588Y-98042330D01*
X58957670Y-98220412D01*
X59059301Y-98294251D01*
X57884971Y-99468580D01*
X57884972Y-99468581D01*
X58061637Y-99613567D01*
X58061651Y-99613577D01*
X58327144Y-99790974D01*
X58327162Y-99790985D01*
X58608762Y-99941504D01*
X58608767Y-99941506D01*
X58903786Y-100063707D01*
X59209371Y-100156405D01*
X59209382Y-100156408D01*
X59522544Y-100218698D01*
X59522561Y-100218701D01*
X59840341Y-100250000D01*
X60159659Y-100250000D01*
X60477438Y-100218701D01*
X60477455Y-100218698D01*
X60790617Y-100156408D01*
X60790628Y-100156405D01*
X61096213Y-100063707D01*
X61391232Y-99941506D01*
X61391237Y-99941504D01*
X61672837Y-99790985D01*
X61672855Y-99790974D01*
X61852180Y-99671153D01*
X75199500Y-99671153D01*
X75199500Y-99828846D01*
X75230261Y-99983489D01*
X75230264Y-99983501D01*
X75290602Y-100129172D01*
X75290609Y-100129185D01*
X75378210Y-100260288D01*
X75378213Y-100260292D01*
X75489707Y-100371786D01*
X75489711Y-100371789D01*
X75620814Y-100459390D01*
X75620827Y-100459397D01*
X75751134Y-100513371D01*
X75766503Y-100519737D01*
X75921153Y-100550499D01*
X75921156Y-100550500D01*
X75921158Y-100550500D01*
X76078844Y-100550500D01*
X76078845Y-100550499D01*
X76233497Y-100519737D01*
X76379179Y-100459394D01*
X76510289Y-100371789D01*
X76621789Y-100260289D01*
X76709394Y-100129179D01*
X76769737Y-99983497D01*
X76800500Y-99828842D01*
X76800500Y-99671158D01*
X76800500Y-99671155D01*
X76800499Y-99671153D01*
X76783561Y-99586000D01*
X76769737Y-99516503D01*
X76746333Y-99460000D01*
X76709397Y-99370827D01*
X76709390Y-99370814D01*
X76621789Y-99239711D01*
X76621786Y-99239707D01*
X76510292Y-99128213D01*
X76510288Y-99128210D01*
X76379185Y-99040609D01*
X76379172Y-99040602D01*
X76233501Y-98980264D01*
X76233489Y-98980261D01*
X76078845Y-98949500D01*
X76078842Y-98949500D01*
X75921158Y-98949500D01*
X75921155Y-98949500D01*
X75766510Y-98980261D01*
X75766498Y-98980264D01*
X75620827Y-99040602D01*
X75620814Y-99040609D01*
X75489711Y-99128210D01*
X75489707Y-99128213D01*
X75378213Y-99239707D01*
X75378210Y-99239711D01*
X75290609Y-99370814D01*
X75290602Y-99370827D01*
X75230264Y-99516498D01*
X75230261Y-99516510D01*
X75199500Y-99671153D01*
X61852180Y-99671153D01*
X61938348Y-99613577D01*
X61938361Y-99613567D01*
X61992408Y-99569213D01*
X62115026Y-99468581D01*
X62115027Y-99468580D01*
X60940698Y-98294251D01*
X61042330Y-98220412D01*
X61220412Y-98042330D01*
X61294251Y-97940698D01*
X62468580Y-99115027D01*
X62468581Y-99115026D01*
X62613567Y-98938361D01*
X62613577Y-98938348D01*
X62790974Y-98672855D01*
X62790980Y-98672845D01*
X62883157Y-98500397D01*
X62883158Y-98500395D01*
X62941504Y-98391237D01*
X62941506Y-98391232D01*
X63063707Y-98096213D01*
X63156405Y-97790628D01*
X63156408Y-97790617D01*
X63218698Y-97477455D01*
X63218701Y-97477438D01*
X63250000Y-97159658D01*
X63250000Y-96840341D01*
X63218701Y-96522561D01*
X63218698Y-96522544D01*
X63156408Y-96209382D01*
X63156405Y-96209371D01*
X63063707Y-95903786D01*
X62941506Y-95608767D01*
X62941504Y-95608762D01*
X62790985Y-95327162D01*
X62790974Y-95327144D01*
X62613577Y-95061651D01*
X62613567Y-95061637D01*
X62468581Y-94884972D01*
X62468580Y-94884971D01*
X61294251Y-96059300D01*
X61220412Y-95957670D01*
X61042330Y-95779588D01*
X60940697Y-95705747D01*
X62115027Y-94531418D01*
X61938362Y-94386432D01*
X61938348Y-94386422D01*
X61672855Y-94209025D01*
X61672837Y-94209014D01*
X61391237Y-94058495D01*
X61391232Y-94058493D01*
X61344319Y-94039061D01*
X61289916Y-93995220D01*
X61267851Y-93928926D01*
X61285130Y-93861226D01*
X61336268Y-93813616D01*
X61391772Y-93800500D01*
X71539004Y-93800500D01*
X71606043Y-93820185D01*
G37*
G04 #@! TD.AperFunction*
G04 #@! TA.AperFunction,Conductor*
G36*
X88779588Y-128042330D02*
G01*
X88957670Y-128220412D01*
X89059301Y-128294251D01*
X87884971Y-129468580D01*
X87884972Y-129468581D01*
X88061637Y-129613567D01*
X88061651Y-129613577D01*
X88327144Y-129790974D01*
X88327162Y-129790985D01*
X88608762Y-129941504D01*
X88608767Y-129941506D01*
X88655681Y-129960939D01*
X88710084Y-130004780D01*
X88732149Y-130071074D01*
X88714870Y-130138774D01*
X88663732Y-130186384D01*
X88608228Y-130199500D01*
X87477350Y-130199500D01*
X87410311Y-130179815D01*
X87364556Y-130127011D01*
X87354612Y-130057853D01*
X87374248Y-130006609D01*
X87459390Y-129879185D01*
X87459390Y-129879184D01*
X87459394Y-129879179D01*
X87519737Y-129733497D01*
X87550500Y-129578842D01*
X87550500Y-129421158D01*
X87550500Y-129421155D01*
X87550499Y-129421153D01*
X87541854Y-129377692D01*
X87519737Y-129266503D01*
X87510497Y-129244197D01*
X87503030Y-129174729D01*
X87534306Y-129112250D01*
X87537379Y-129109066D01*
X88705747Y-127940697D01*
X88779588Y-128042330D01*
G37*
G04 #@! TD.AperFunction*
G04 #@! TD*
M02*
