%TF.GenerationSoftware,KiCad,Pcbnew,9.0.1*%
%TF.CreationDate,2025-04-30T23:29:38-04:00*%
%TF.ProjectId,Control Board V2,436f6e74-726f-46c2-9042-6f6172642056,rev?*%
%TF.SameCoordinates,Original*%
%TF.FileFunction,Drillmap*%
%TF.FilePolarity,Positive*%
%FSLAX45Y45*%
G04 Gerber Fmt 4.5, Leading zero omitted, Abs format (unit mm)*
G04 Created by KiCad (PCBNEW 9.0.1) date 2025-04-30 23:29:38*
%MOMM*%
%LPD*%
G01*
G04 APERTURE LIST*
%ADD10C,0.050000*%
%ADD11C,0.200000*%
%ADD12C,0.100000*%
%ADD13C,0.150000*%
%ADD14C,0.320000*%
G04 APERTURE END LIST*
D10*
X6000000Y-13050000D02*
X9000000Y-13050000D01*
X5650000Y-9700000D02*
G75*
G02*
X6000000Y-9350000I350000J0D01*
G01*
X9000000Y-9350000D02*
G75*
G02*
X9350000Y-9700000I0J-350000D01*
G01*
X6000000Y-9350000D02*
X9000000Y-9350000D01*
X9350000Y-12700000D02*
X9350000Y-9700000D01*
X9350000Y-12700000D02*
G75*
G02*
X9000000Y-13050000I-350000J0D01*
G01*
X5650000Y-9700000D02*
X5650000Y-12700000D01*
X6000000Y-13050000D02*
G75*
G02*
X5650000Y-12700000I0J350000D01*
G01*
D11*
D12*
X5735000Y-11060000D02*
X5765000Y-11090000D01*
X5765000Y-11060000D02*
X5735000Y-11090000D01*
X5735000Y-11260000D02*
X5765000Y-11290000D01*
X5765000Y-11260000D02*
X5735000Y-11290000D01*
X5760000Y-10310000D02*
X5790000Y-10340000D01*
X5790000Y-10310000D02*
X5760000Y-10340000D01*
X5760000Y-10435000D02*
X5790000Y-10465000D01*
X5790000Y-10435000D02*
X5760000Y-10465000D01*
X5760000Y-12060000D02*
X5790000Y-12090000D01*
X5790000Y-12060000D02*
X5760000Y-12090000D01*
X5785000Y-11860000D02*
X5815000Y-11890000D01*
X5815000Y-11860000D02*
X5785000Y-11890000D01*
X5910000Y-11035000D02*
X5940000Y-11065000D01*
X5940000Y-11035000D02*
X5910000Y-11065000D01*
X5935000Y-11310000D02*
X5965000Y-11340000D01*
X5965000Y-11310000D02*
X5935000Y-11340000D01*
X5960000Y-11962800D02*
X5990000Y-11992800D01*
X5990000Y-11962800D02*
X5960000Y-11992800D01*
X5985000Y-10685000D02*
X6015000Y-10715000D01*
X6015000Y-10685000D02*
X5985000Y-10715000D01*
X5985000Y-10860000D02*
X6015000Y-10890000D01*
X6015000Y-10860000D02*
X5985000Y-10890000D01*
X5985000Y-11485000D02*
X6015000Y-11515000D01*
X6015000Y-11485000D02*
X5985000Y-11515000D01*
X5985000Y-12285000D02*
X6015000Y-12315000D01*
X6015000Y-12285000D02*
X5985000Y-12315000D01*
X6010000Y-11635000D02*
X6040000Y-11665000D01*
X6040000Y-11635000D02*
X6010000Y-11665000D01*
X6085000Y-10060000D02*
X6115000Y-10090000D01*
X6115000Y-10060000D02*
X6085000Y-10090000D01*
X6135000Y-11560000D02*
X6165000Y-11590000D01*
X6165000Y-11560000D02*
X6135000Y-11590000D01*
X6235000Y-11735000D02*
X6265000Y-11765000D01*
X6265000Y-11735000D02*
X6235000Y-11765000D01*
X6235000Y-12385000D02*
X6265000Y-12415000D01*
X6265000Y-12385000D02*
X6235000Y-12415000D01*
X6240358Y-10140358D02*
X6270358Y-10170358D01*
X6270358Y-10140358D02*
X6240358Y-10170358D01*
X6241250Y-10941250D02*
X6271250Y-10971250D01*
X6271250Y-10941250D02*
X6241250Y-10971250D01*
X6260000Y-11485000D02*
X6290000Y-11515000D01*
X6290000Y-11485000D02*
X6260000Y-11515000D01*
X6260000Y-12875000D02*
X6290000Y-12905000D01*
X6290000Y-12875000D02*
X6260000Y-12905000D01*
X6260000Y-12955000D02*
X6290000Y-12985000D01*
X6290000Y-12955000D02*
X6260000Y-12985000D01*
X6262581Y-10288081D02*
X6292581Y-10318081D01*
X6292581Y-10288081D02*
X6262581Y-10318081D01*
X6285000Y-10410000D02*
X6315000Y-10440000D01*
X6315000Y-10410000D02*
X6285000Y-10440000D01*
X6285000Y-11160000D02*
X6315000Y-11190000D01*
X6315000Y-11160000D02*
X6285000Y-11190000D01*
X6310000Y-9435000D02*
X6340000Y-9465000D01*
X6340000Y-9435000D02*
X6310000Y-9465000D01*
X6310000Y-9885000D02*
X6340000Y-9915000D01*
X6340000Y-9885000D02*
X6310000Y-9915000D01*
X6312426Y-11764803D02*
X6342426Y-11794803D01*
X6342426Y-11764803D02*
X6312426Y-11794803D01*
X6320855Y-11270855D02*
X6350855Y-11300855D01*
X6350855Y-11270855D02*
X6320855Y-11300855D01*
X6335000Y-12035000D02*
X6365000Y-12065000D01*
X6365000Y-12035000D02*
X6335000Y-12065000D01*
X6360000Y-9660000D02*
X6390000Y-9690000D01*
X6390000Y-9660000D02*
X6360000Y-9690000D01*
X6360000Y-10660000D02*
X6390000Y-10690000D01*
X6390000Y-10660000D02*
X6360000Y-10690000D01*
X6360000Y-11385000D02*
X6390000Y-11415000D01*
X6390000Y-11385000D02*
X6360000Y-11415000D01*
X6385000Y-10060000D02*
X6415000Y-10090000D01*
X6415000Y-10060000D02*
X6385000Y-10090000D01*
X6410000Y-12285000D02*
X6440000Y-12315000D01*
X6440000Y-12285000D02*
X6410000Y-12315000D01*
X6460000Y-10435000D02*
X6490000Y-10465000D01*
X6490000Y-10435000D02*
X6460000Y-10465000D01*
X6460000Y-11655000D02*
X6490000Y-11685000D01*
X6490000Y-11655000D02*
X6460000Y-11685000D01*
X6460000Y-11810000D02*
X6490000Y-11840000D01*
X6490000Y-11810000D02*
X6460000Y-11840000D01*
X6464926Y-10655074D02*
X6494926Y-10685074D01*
X6494926Y-10655074D02*
X6464926Y-10685074D01*
X6485000Y-9910000D02*
X6515000Y-9940000D01*
X6515000Y-9910000D02*
X6485000Y-9940000D01*
X6485000Y-12226957D02*
X6515000Y-12256957D01*
X6515000Y-12226957D02*
X6485000Y-12256957D01*
X6507856Y-12067911D02*
X6537856Y-12097911D01*
X6537856Y-12067911D02*
X6507856Y-12097911D01*
X6510000Y-10308500D02*
X6540000Y-10338500D01*
X6540000Y-10308500D02*
X6510000Y-10338500D01*
X6510000Y-12760000D02*
X6540000Y-12790000D01*
X6540000Y-12760000D02*
X6510000Y-12790000D01*
X6532639Y-11580278D02*
X6562639Y-11610278D01*
X6562639Y-11580278D02*
X6532639Y-11610278D01*
X6535000Y-9735000D02*
X6565000Y-9765000D01*
X6565000Y-9735000D02*
X6535000Y-9765000D01*
X6561200Y-11876898D02*
X6591200Y-11906898D01*
X6591200Y-11876898D02*
X6561200Y-11906898D01*
X6585000Y-10060000D02*
X6615000Y-10090000D01*
X6615000Y-10060000D02*
X6585000Y-10090000D01*
X6585000Y-10135000D02*
X6615000Y-10165000D01*
X6615000Y-10135000D02*
X6585000Y-10165000D01*
X6585000Y-11135000D02*
X6615000Y-11165000D01*
X6615000Y-11135000D02*
X6585000Y-11165000D01*
X6586748Y-12737424D02*
X6616748Y-12767424D01*
X6616748Y-12737424D02*
X6586748Y-12767424D01*
X6595928Y-11270928D02*
X6625928Y-11300928D01*
X6625928Y-11270928D02*
X6595928Y-11300928D01*
X6635000Y-12010000D02*
X6665000Y-12040000D01*
X6665000Y-12010000D02*
X6635000Y-12040000D01*
X6650000Y-11455000D02*
X6680000Y-11485000D01*
X6680000Y-11455000D02*
X6650000Y-11485000D01*
X6660000Y-9860000D02*
X6690000Y-9890000D01*
X6690000Y-9860000D02*
X6660000Y-9890000D01*
X6660000Y-10060000D02*
X6690000Y-10090000D01*
X6690000Y-10060000D02*
X6660000Y-10090000D01*
X6660000Y-10135000D02*
X6690000Y-10165000D01*
X6690000Y-10135000D02*
X6660000Y-10165000D01*
X6660000Y-12760000D02*
X6690000Y-12790000D01*
X6690000Y-12760000D02*
X6660000Y-12790000D01*
X6695355Y-12324645D02*
X6725355Y-12354645D01*
X6725355Y-12324645D02*
X6695355Y-12354645D01*
X6710000Y-9470000D02*
X6740000Y-9500000D01*
X6740000Y-9470000D02*
X6710000Y-9500000D01*
X6735000Y-10060000D02*
X6765000Y-10090000D01*
X6765000Y-10060000D02*
X6735000Y-10090000D01*
X6735000Y-10135000D02*
X6765000Y-10165000D01*
X6765000Y-10135000D02*
X6735000Y-10165000D01*
X6735000Y-10785000D02*
X6765000Y-10815000D01*
X6765000Y-10785000D02*
X6735000Y-10815000D01*
X6736107Y-12662012D02*
X6766107Y-12692012D01*
X6766107Y-12662012D02*
X6736107Y-12692012D01*
X6760000Y-11209900D02*
X6790000Y-11239900D01*
X6790000Y-11209900D02*
X6760000Y-11239900D01*
X6760000Y-11562000D02*
X6790000Y-11592000D01*
X6790000Y-11562000D02*
X6760000Y-11592000D01*
X6761528Y-12585306D02*
X6791528Y-12615306D01*
X6791528Y-12585306D02*
X6761528Y-12615306D01*
X6785000Y-12010000D02*
X6815000Y-12040000D01*
X6815000Y-12010000D02*
X6785000Y-12040000D01*
X6810000Y-10060000D02*
X6840000Y-10090000D01*
X6840000Y-10060000D02*
X6810000Y-10090000D01*
X6810000Y-10135000D02*
X6840000Y-10165000D01*
X6840000Y-10135000D02*
X6810000Y-10165000D01*
X6837414Y-12739829D02*
X6867414Y-12769829D01*
X6867414Y-12739829D02*
X6837414Y-12769829D01*
X6860000Y-9660000D02*
X6890000Y-9690000D01*
X6890000Y-9660000D02*
X6860000Y-9690000D01*
X6860000Y-10360000D02*
X6890000Y-10390000D01*
X6890000Y-10360000D02*
X6860000Y-10390000D01*
X6885000Y-10635000D02*
X6915000Y-10665000D01*
X6915000Y-10635000D02*
X6885000Y-10665000D01*
X6900000Y-12335000D02*
X6930000Y-12365000D01*
X6930000Y-12335000D02*
X6900000Y-12365000D01*
X6985000Y-9785000D02*
X7015000Y-9815000D01*
X7015000Y-9785000D02*
X6985000Y-9815000D01*
X7010000Y-10485000D02*
X7040000Y-10515000D01*
X7040000Y-10485000D02*
X7010000Y-10515000D01*
X7010000Y-11660000D02*
X7040000Y-11690000D01*
X7040000Y-11660000D02*
X7010000Y-11690000D01*
X7025000Y-11752600D02*
X7055000Y-11782600D01*
X7055000Y-11752600D02*
X7025000Y-11782600D01*
X7043044Y-11337336D02*
X7073044Y-11367336D01*
X7073044Y-11337336D02*
X7043044Y-11367336D01*
X7045000Y-11253585D02*
X7075000Y-11283585D01*
X7075000Y-11253585D02*
X7045000Y-11283585D01*
X7055000Y-10684174D02*
X7085000Y-10714174D01*
X7085000Y-10684174D02*
X7055000Y-10714174D01*
X7062000Y-12310000D02*
X7092000Y-12340000D01*
X7092000Y-12310000D02*
X7062000Y-12340000D01*
X7074645Y-10245355D02*
X7104645Y-10275355D01*
X7104645Y-10245355D02*
X7074645Y-10275355D01*
X7085000Y-10360000D02*
X7115000Y-10390000D01*
X7115000Y-10360000D02*
X7085000Y-10390000D01*
X7110000Y-10985000D02*
X7140000Y-11015000D01*
X7140000Y-10985000D02*
X7110000Y-11015000D01*
X7110000Y-11562000D02*
X7140000Y-11592000D01*
X7140000Y-11562000D02*
X7110000Y-11592000D01*
X7122107Y-11433000D02*
X7152107Y-11463000D01*
X7152107Y-11433000D02*
X7122107Y-11463000D01*
X7140000Y-12183000D02*
X7170000Y-12213000D01*
X7170000Y-12183000D02*
X7140000Y-12213000D01*
X7140000Y-10785000D02*
X7170000Y-10815000D01*
X7170000Y-10785000D02*
X7140000Y-10815000D01*
X7185000Y-11610000D02*
X7215000Y-11640000D01*
X7215000Y-11610000D02*
X7185000Y-11640000D01*
X7191121Y-11392538D02*
X7221121Y-11422538D01*
X7221121Y-11392538D02*
X7191121Y-11422538D01*
X7195938Y-11312682D02*
X7225938Y-11342682D01*
X7225938Y-11312682D02*
X7195938Y-11342682D01*
X7210000Y-10485000D02*
X7240000Y-10515000D01*
X7240000Y-10485000D02*
X7210000Y-10515000D01*
X7283000Y-10760000D02*
X7313000Y-10790000D01*
X7313000Y-10760000D02*
X7283000Y-10790000D01*
X7299800Y-12536564D02*
X7329800Y-12566564D01*
X7329800Y-12536564D02*
X7299800Y-12566564D01*
X7310000Y-10185000D02*
X7340000Y-10215000D01*
X7340000Y-10185000D02*
X7310000Y-10215000D01*
X7310000Y-10985000D02*
X7340000Y-11015000D01*
X7340000Y-10985000D02*
X7310000Y-11015000D01*
X7310000Y-12310000D02*
X7340000Y-12340000D01*
X7340000Y-12310000D02*
X7310000Y-12340000D01*
X7331500Y-11252976D02*
X7361500Y-11282976D01*
X7361500Y-11252976D02*
X7331500Y-11282976D01*
X7364118Y-10355882D02*
X7394118Y-10385882D01*
X7394118Y-10355882D02*
X7364118Y-10385882D01*
X7365000Y-11905000D02*
X7395000Y-11935000D01*
X7395000Y-11905000D02*
X7365000Y-11935000D01*
X7365000Y-12085000D02*
X7395000Y-12115000D01*
X7395000Y-12085000D02*
X7365000Y-12115000D01*
X7410000Y-10785000D02*
X7440000Y-10815000D01*
X7440000Y-10785000D02*
X7410000Y-10815000D01*
X7410000Y-11635000D02*
X7440000Y-11665000D01*
X7440000Y-11635000D02*
X7410000Y-11665000D01*
X7435000Y-12684000D02*
X7465000Y-12714000D01*
X7465000Y-12684000D02*
X7435000Y-12714000D01*
X7450000Y-12548143D02*
X7480000Y-12578143D01*
X7480000Y-12548143D02*
X7450000Y-12578143D01*
X7470000Y-11885000D02*
X7500000Y-11915000D01*
X7500000Y-11885000D02*
X7470000Y-11915000D01*
X7485000Y-11135000D02*
X7515000Y-11165000D01*
X7515000Y-11135000D02*
X7485000Y-11165000D01*
X7535000Y-9835000D02*
X7565000Y-9865000D01*
X7565000Y-9835000D02*
X7535000Y-9865000D01*
X7535000Y-12684000D02*
X7565000Y-12714000D01*
X7565000Y-12684000D02*
X7535000Y-12714000D01*
X7536973Y-10458027D02*
X7566973Y-10488027D01*
X7566973Y-10458027D02*
X7536973Y-10488027D01*
X7552586Y-10909564D02*
X7582586Y-10939564D01*
X7582586Y-10909564D02*
X7552586Y-10939564D01*
X7560000Y-11885000D02*
X7590000Y-11915000D01*
X7590000Y-11885000D02*
X7560000Y-11915000D01*
X7570000Y-12517801D02*
X7600000Y-12547801D01*
X7600000Y-12517801D02*
X7570000Y-12547801D01*
X7585000Y-9960000D02*
X7615000Y-9990000D01*
X7615000Y-9960000D02*
X7585000Y-9990000D01*
X7634786Y-10263879D02*
X7664786Y-10293879D01*
X7664786Y-10263879D02*
X7634786Y-10293879D01*
X7677500Y-10860000D02*
X7707500Y-10890000D01*
X7707500Y-10860000D02*
X7677500Y-10890000D01*
X7735000Y-12110000D02*
X7765000Y-12140000D01*
X7765000Y-12110000D02*
X7735000Y-12140000D01*
X7760000Y-9735000D02*
X7790000Y-9765000D01*
X7790000Y-9735000D02*
X7760000Y-9765000D01*
X7785000Y-11485000D02*
X7815000Y-11515000D01*
X7815000Y-11485000D02*
X7785000Y-11515000D01*
X7785000Y-11560000D02*
X7815000Y-11590000D01*
X7815000Y-11560000D02*
X7785000Y-11590000D01*
X7835000Y-10035000D02*
X7865000Y-10065000D01*
X7865000Y-10035000D02*
X7835000Y-10065000D01*
X7835000Y-10310000D02*
X7865000Y-10340000D01*
X7865000Y-10310000D02*
X7835000Y-10340000D01*
X7835000Y-11020000D02*
X7865000Y-11050000D01*
X7865000Y-11020000D02*
X7835000Y-11050000D01*
X7854505Y-10731658D02*
X7884505Y-10761658D01*
X7884505Y-10731658D02*
X7854505Y-10761658D01*
X7885000Y-11160000D02*
X7915000Y-11190000D01*
X7915000Y-11160000D02*
X7885000Y-11190000D01*
X7885000Y-11934000D02*
X7915000Y-11964000D01*
X7915000Y-11934000D02*
X7885000Y-11964000D01*
X7910000Y-9410000D02*
X7940000Y-9440000D01*
X7940000Y-9410000D02*
X7910000Y-9440000D01*
X7910000Y-9610000D02*
X7940000Y-9640000D01*
X7940000Y-9610000D02*
X7910000Y-9640000D01*
X7910000Y-11285000D02*
X7940000Y-11315000D01*
X7940000Y-11285000D02*
X7910000Y-11315000D01*
X7910000Y-11470000D02*
X7940000Y-11500000D01*
X7940000Y-11470000D02*
X7910000Y-11500000D01*
X7925102Y-11548562D02*
X7955102Y-11578562D01*
X7955102Y-11548562D02*
X7925102Y-11578562D01*
X8110000Y-11960000D02*
X8140000Y-11990000D01*
X8140000Y-11960000D02*
X8110000Y-11990000D01*
X8160000Y-9535000D02*
X8190000Y-9565000D01*
X8190000Y-9535000D02*
X8160000Y-9565000D01*
X8185000Y-9760000D02*
X8215000Y-9790000D01*
X8215000Y-9760000D02*
X8185000Y-9790000D01*
X8185000Y-12524902D02*
X8215000Y-12554902D01*
X8215000Y-12524902D02*
X8185000Y-12554902D01*
X8235000Y-10960000D02*
X8265000Y-10990000D01*
X8265000Y-10960000D02*
X8235000Y-10990000D01*
X8325000Y-10660000D02*
X8355000Y-10690000D01*
X8355000Y-10660000D02*
X8325000Y-10690000D01*
X8345000Y-12110000D02*
X8375000Y-12140000D01*
X8375000Y-12110000D02*
X8345000Y-12140000D01*
X8360000Y-11150000D02*
X8390000Y-11180000D01*
X8390000Y-11150000D02*
X8360000Y-11180000D01*
X8360000Y-11385000D02*
X8390000Y-11415000D01*
X8390000Y-11385000D02*
X8360000Y-11415000D01*
X8360000Y-11635000D02*
X8390000Y-11665000D01*
X8390000Y-11635000D02*
X8360000Y-11665000D01*
X8385000Y-10760000D02*
X8415000Y-10790000D01*
X8415000Y-10760000D02*
X8385000Y-10790000D01*
X8385000Y-11735000D02*
X8415000Y-11765000D01*
X8415000Y-11735000D02*
X8385000Y-11765000D01*
X8385000Y-12205000D02*
X8415000Y-12235000D01*
X8415000Y-12205000D02*
X8385000Y-12235000D01*
X8410000Y-12955000D02*
X8440000Y-12985000D01*
X8440000Y-12955000D02*
X8410000Y-12985000D01*
X8435000Y-11270000D02*
X8465000Y-11300000D01*
X8465000Y-11270000D02*
X8435000Y-11300000D01*
X8460000Y-9835000D02*
X8490000Y-9865000D01*
X8490000Y-9835000D02*
X8460000Y-9865000D01*
X8460000Y-12585000D02*
X8490000Y-12615000D01*
X8490000Y-12585000D02*
X8460000Y-12615000D01*
X8485000Y-11135000D02*
X8515000Y-11165000D01*
X8515000Y-11135000D02*
X8485000Y-11165000D01*
X8510000Y-10310000D02*
X8540000Y-10340000D01*
X8540000Y-10310000D02*
X8510000Y-10340000D01*
X8535000Y-9535000D02*
X8565000Y-9565000D01*
X8565000Y-9535000D02*
X8535000Y-9565000D01*
X8542500Y-10885000D02*
X8572500Y-10915000D01*
X8572500Y-10885000D02*
X8542500Y-10915000D01*
X8545100Y-11910000D02*
X8575100Y-11940000D01*
X8575100Y-11910000D02*
X8545100Y-11940000D01*
X8560000Y-10585000D02*
X8590000Y-10615000D01*
X8590000Y-10585000D02*
X8560000Y-10615000D01*
X8560000Y-12185000D02*
X8590000Y-12215000D01*
X8590000Y-12185000D02*
X8560000Y-12215000D01*
X8575285Y-12321396D02*
X8605285Y-12351396D01*
X8605285Y-12321396D02*
X8575285Y-12351396D01*
X8582500Y-11372500D02*
X8612500Y-11402500D01*
X8612500Y-11372500D02*
X8582500Y-11402500D01*
X8610000Y-11035000D02*
X8640000Y-11065000D01*
X8640000Y-11035000D02*
X8610000Y-11065000D01*
X8617520Y-10857215D02*
X8647520Y-10887215D01*
X8647520Y-10857215D02*
X8617520Y-10887215D01*
X8660000Y-10635000D02*
X8690000Y-10665000D01*
X8690000Y-10635000D02*
X8660000Y-10665000D01*
X8660000Y-12335000D02*
X8690000Y-12365000D01*
X8690000Y-12335000D02*
X8660000Y-12365000D01*
X8660000Y-12835000D02*
X8690000Y-12865000D01*
X8690000Y-12835000D02*
X8660000Y-12865000D01*
X8660000Y-12935000D02*
X8690000Y-12965000D01*
X8690000Y-12935000D02*
X8660000Y-12965000D01*
X8685000Y-10365000D02*
X8715000Y-10395000D01*
X8715000Y-10365000D02*
X8685000Y-10395000D01*
X8685000Y-11485000D02*
X8715000Y-11515000D01*
X8715000Y-11485000D02*
X8685000Y-11515000D01*
X8685000Y-12260000D02*
X8715000Y-12290000D01*
X8715000Y-12260000D02*
X8685000Y-12290000D01*
X8710000Y-10860000D02*
X8740000Y-10890000D01*
X8740000Y-10860000D02*
X8710000Y-10890000D01*
X8710000Y-11685000D02*
X8740000Y-11715000D01*
X8740000Y-11685000D02*
X8710000Y-11715000D01*
X8735000Y-12385000D02*
X8765000Y-12415000D01*
X8765000Y-12385000D02*
X8735000Y-12415000D01*
X8835000Y-10060000D02*
X8865000Y-10090000D01*
X8865000Y-10060000D02*
X8835000Y-10090000D01*
X8885000Y-10660000D02*
X8915000Y-10690000D01*
X8915000Y-10660000D02*
X8885000Y-10690000D01*
X8885000Y-11460000D02*
X8915000Y-11490000D01*
X8915000Y-11460000D02*
X8885000Y-11490000D01*
X8910000Y-10885000D02*
X8940000Y-10915000D01*
X8940000Y-10885000D02*
X8910000Y-10915000D01*
X8960000Y-11060000D02*
X8990000Y-11090000D01*
X8990000Y-11060000D02*
X8960000Y-11090000D01*
X8960000Y-11685000D02*
X8990000Y-11715000D01*
X8990000Y-11685000D02*
X8960000Y-11715000D01*
X8960000Y-11810000D02*
X8990000Y-11840000D01*
X8990000Y-11810000D02*
X8960000Y-11840000D01*
X8960000Y-12185000D02*
X8990000Y-12215000D01*
X8990000Y-12185000D02*
X8960000Y-12215000D01*
X8985000Y-11935000D02*
X9015000Y-11965000D01*
X9015000Y-11935000D02*
X8985000Y-11965000D01*
X9010000Y-11172500D02*
X9040000Y-11202500D01*
X9040000Y-11172500D02*
X9010000Y-11202500D01*
X9010000Y-11310000D02*
X9040000Y-11340000D01*
X9040000Y-11310000D02*
X9010000Y-11340000D01*
X9197500Y-11452500D02*
X9227500Y-11482500D01*
X9227500Y-11452500D02*
X9197500Y-11482500D01*
X9210000Y-10235000D02*
X9240000Y-10265000D01*
X9240000Y-10235000D02*
X9210000Y-10265000D01*
X9210000Y-10510000D02*
X9240000Y-10540000D01*
X9240000Y-10510000D02*
X9210000Y-10540000D01*
X9210000Y-11085000D02*
X9240000Y-11115000D01*
X9240000Y-11085000D02*
X9210000Y-11115000D01*
X9210000Y-11260000D02*
X9240000Y-11290000D01*
X9240000Y-11260000D02*
X9210000Y-11290000D01*
X9235000Y-12410000D02*
X9265000Y-12440000D01*
X9265000Y-12410000D02*
X9235000Y-12440000D01*
X6875000Y-12900000D02*
G75*
G02*
X6825000Y-12900000I-25000J0D01*
G01*
X6825000Y-12900000D02*
G75*
G02*
X6875000Y-12900000I25000J0D01*
G01*
X7225000Y-10140000D02*
G75*
G02*
X7175000Y-10140000I-25000J0D01*
G01*
X7175000Y-10140000D02*
G75*
G02*
X7225000Y-10140000I25000J0D01*
G01*
X7775000Y-10175000D02*
G75*
G02*
X7725000Y-10175000I-25000J0D01*
G01*
X7725000Y-10175000D02*
G75*
G02*
X7775000Y-10175000I25000J0D01*
G01*
X8175000Y-12725000D02*
G75*
G02*
X8125000Y-12725000I-25000J0D01*
G01*
X8125000Y-12725000D02*
G75*
G02*
X8175000Y-12725000I25000J0D01*
G01*
X7068000Y-12457500D02*
X7068000Y-12517500D01*
X7038000Y-12487500D02*
X7098000Y-12487500D01*
X7038000Y-12432500D02*
X7038000Y-12542500D01*
X7098000Y-12542500D02*
G75*
G02*
X7038000Y-12542500I-30000J0D01*
G01*
X7098000Y-12542500D02*
X7098000Y-12432500D01*
X7098000Y-12432500D02*
G75*
G03*
X7038000Y-12432500I-30000J0D01*
G01*
X7068000Y-12877500D02*
X7068000Y-12937500D01*
X7038000Y-12907500D02*
X7098000Y-12907500D01*
X7038000Y-12867500D02*
X7038000Y-12947500D01*
X7098000Y-12947500D02*
G75*
G02*
X7038000Y-12947500I-30000J0D01*
G01*
X7098000Y-12947500D02*
X7098000Y-12867500D01*
X7098000Y-12867500D02*
G75*
G03*
X7038000Y-12867500I-30000J0D01*
G01*
X7932000Y-12457500D02*
X7932000Y-12517500D01*
X7902000Y-12487500D02*
X7962000Y-12487500D01*
X7902000Y-12432500D02*
X7902000Y-12542500D01*
X7962000Y-12542500D02*
G75*
G02*
X7902000Y-12542500I-30000J0D01*
G01*
X7962000Y-12542500D02*
X7962000Y-12432500D01*
X7962000Y-12432500D02*
G75*
G03*
X7902000Y-12432500I-30000J0D01*
G01*
X7932000Y-12877500D02*
X7932000Y-12937500D01*
X7902000Y-12907500D02*
X7962000Y-12907500D01*
X7902000Y-12867500D02*
X7902000Y-12947500D01*
X7962000Y-12947500D02*
G75*
G02*
X7902000Y-12947500I-30000J0D01*
G01*
X7962000Y-12947500D02*
X7962000Y-12867500D01*
X7962000Y-12867500D02*
G75*
G03*
X7902000Y-12867500I-30000J0D01*
G01*
X8081356Y-9981356D02*
X8081356Y-9910644D01*
X8010644Y-9910644D01*
X8010644Y-9981356D01*
X8081356Y-9981356D01*
X8081356Y-10235356D02*
X8081356Y-10164644D01*
X8010644Y-10164644D01*
X8010644Y-10235356D01*
X8081356Y-10235356D01*
X8335356Y-9981356D02*
X8335356Y-9910644D01*
X8264644Y-9910644D01*
X8264644Y-9981356D01*
X8335356Y-9981356D01*
X8335356Y-10235356D02*
X8335356Y-10164644D01*
X8264644Y-10164644D01*
X8264644Y-10235356D01*
X8335356Y-10235356D01*
D13*
X7296800Y-9625000D02*
X7371800Y-9550000D01*
X7296800Y-9475000D01*
X7221800Y-9550000D01*
X7296800Y-9625000D01*
X7703200Y-9625000D02*
X7778200Y-9550000D01*
X7703200Y-9475000D01*
X7628200Y-9550000D01*
X7703200Y-9625000D01*
D14*
X5840000Y-9540000D02*
X6160000Y-9860000D01*
X6160000Y-9540000D02*
X5840000Y-9860000D01*
X6160000Y-9700000D02*
G75*
G02*
X5840000Y-9700000I-160000J0D01*
G01*
X5840000Y-9700000D02*
G75*
G02*
X6160000Y-9700000I160000J0D01*
G01*
X5840000Y-12540000D02*
X6160000Y-12860000D01*
X6160000Y-12540000D02*
X5840000Y-12860000D01*
X6160000Y-12700000D02*
G75*
G02*
X5840000Y-12700000I-160000J0D01*
G01*
X5840000Y-12700000D02*
G75*
G02*
X6160000Y-12700000I160000J0D01*
G01*
X8840000Y-9540000D02*
X9160000Y-9860000D01*
X9160000Y-9540000D02*
X8840000Y-9860000D01*
X9160000Y-9700000D02*
G75*
G02*
X8840000Y-9700000I-160000J0D01*
G01*
X8840000Y-9700000D02*
G75*
G02*
X9160000Y-9700000I160000J0D01*
G01*
X8840000Y-12540000D02*
X9160000Y-12860000D01*
X9160000Y-12540000D02*
X8840000Y-12860000D01*
X9160000Y-12700000D02*
G75*
G02*
X8840000Y-12700000I-160000J0D01*
G01*
X8840000Y-12700000D02*
G75*
G02*
X9160000Y-12700000I160000J0D01*
G01*
D11*
X5908277Y-13363984D02*
X5908277Y-13163984D01*
X5908277Y-13163984D02*
X5955896Y-13163984D01*
X5955896Y-13163984D02*
X5984467Y-13173508D01*
X5984467Y-13173508D02*
X6003515Y-13192555D01*
X6003515Y-13192555D02*
X6013039Y-13211603D01*
X6013039Y-13211603D02*
X6022562Y-13249698D01*
X6022562Y-13249698D02*
X6022562Y-13278269D01*
X6022562Y-13278269D02*
X6013039Y-13316365D01*
X6013039Y-13316365D02*
X6003515Y-13335412D01*
X6003515Y-13335412D02*
X5984467Y-13354460D01*
X5984467Y-13354460D02*
X5955896Y-13363984D01*
X5955896Y-13363984D02*
X5908277Y-13363984D01*
X6108277Y-13363984D02*
X6108277Y-13230650D01*
X6108277Y-13268746D02*
X6117801Y-13249698D01*
X6117801Y-13249698D02*
X6127324Y-13240174D01*
X6127324Y-13240174D02*
X6146372Y-13230650D01*
X6146372Y-13230650D02*
X6165420Y-13230650D01*
X6232086Y-13363984D02*
X6232086Y-13230650D01*
X6232086Y-13163984D02*
X6222562Y-13173508D01*
X6222562Y-13173508D02*
X6232086Y-13183031D01*
X6232086Y-13183031D02*
X6241610Y-13173508D01*
X6241610Y-13173508D02*
X6232086Y-13163984D01*
X6232086Y-13163984D02*
X6232086Y-13183031D01*
X6355896Y-13363984D02*
X6336848Y-13354460D01*
X6336848Y-13354460D02*
X6327324Y-13335412D01*
X6327324Y-13335412D02*
X6327324Y-13163984D01*
X6460658Y-13363984D02*
X6441610Y-13354460D01*
X6441610Y-13354460D02*
X6432086Y-13335412D01*
X6432086Y-13335412D02*
X6432086Y-13163984D01*
X6689229Y-13363984D02*
X6689229Y-13163984D01*
X6689229Y-13163984D02*
X6755896Y-13306841D01*
X6755896Y-13306841D02*
X6822562Y-13163984D01*
X6822562Y-13163984D02*
X6822562Y-13363984D01*
X7003515Y-13363984D02*
X7003515Y-13259222D01*
X7003515Y-13259222D02*
X6993991Y-13240174D01*
X6993991Y-13240174D02*
X6974943Y-13230650D01*
X6974943Y-13230650D02*
X6936848Y-13230650D01*
X6936848Y-13230650D02*
X6917801Y-13240174D01*
X7003515Y-13354460D02*
X6984467Y-13363984D01*
X6984467Y-13363984D02*
X6936848Y-13363984D01*
X6936848Y-13363984D02*
X6917801Y-13354460D01*
X6917801Y-13354460D02*
X6908277Y-13335412D01*
X6908277Y-13335412D02*
X6908277Y-13316365D01*
X6908277Y-13316365D02*
X6917801Y-13297317D01*
X6917801Y-13297317D02*
X6936848Y-13287793D01*
X6936848Y-13287793D02*
X6984467Y-13287793D01*
X6984467Y-13287793D02*
X7003515Y-13278269D01*
X7098753Y-13230650D02*
X7098753Y-13430650D01*
X7098753Y-13240174D02*
X7117801Y-13230650D01*
X7117801Y-13230650D02*
X7155896Y-13230650D01*
X7155896Y-13230650D02*
X7174943Y-13240174D01*
X7174943Y-13240174D02*
X7184467Y-13249698D01*
X7184467Y-13249698D02*
X7193991Y-13268746D01*
X7193991Y-13268746D02*
X7193991Y-13325888D01*
X7193991Y-13325888D02*
X7184467Y-13344936D01*
X7184467Y-13344936D02*
X7174943Y-13354460D01*
X7174943Y-13354460D02*
X7155896Y-13363984D01*
X7155896Y-13363984D02*
X7117801Y-13363984D01*
X7117801Y-13363984D02*
X7098753Y-13354460D01*
X7279705Y-13344936D02*
X7289229Y-13354460D01*
X7289229Y-13354460D02*
X7279705Y-13363984D01*
X7279705Y-13363984D02*
X7270182Y-13354460D01*
X7270182Y-13354460D02*
X7279705Y-13344936D01*
X7279705Y-13344936D02*
X7279705Y-13363984D01*
X7279705Y-13240174D02*
X7289229Y-13249698D01*
X7289229Y-13249698D02*
X7279705Y-13259222D01*
X7279705Y-13259222D02*
X7270182Y-13249698D01*
X7270182Y-13249698D02*
X7279705Y-13240174D01*
X7279705Y-13240174D02*
X7279705Y-13259222D01*
D12*
X5617500Y-13677500D02*
X5647500Y-13707500D01*
X5647500Y-13677500D02*
X5617500Y-13707500D01*
D11*
X5946372Y-13583984D02*
X5965420Y-13583984D01*
X5965420Y-13583984D02*
X5984467Y-13593508D01*
X5984467Y-13593508D02*
X5993991Y-13603031D01*
X5993991Y-13603031D02*
X6003515Y-13622079D01*
X6003515Y-13622079D02*
X6013039Y-13660174D01*
X6013039Y-13660174D02*
X6013039Y-13707793D01*
X6013039Y-13707793D02*
X6003515Y-13745888D01*
X6003515Y-13745888D02*
X5993991Y-13764936D01*
X5993991Y-13764936D02*
X5984467Y-13774460D01*
X5984467Y-13774460D02*
X5965420Y-13783984D01*
X5965420Y-13783984D02*
X5946372Y-13783984D01*
X5946372Y-13783984D02*
X5927324Y-13774460D01*
X5927324Y-13774460D02*
X5917801Y-13764936D01*
X5917801Y-13764936D02*
X5908277Y-13745888D01*
X5908277Y-13745888D02*
X5898753Y-13707793D01*
X5898753Y-13707793D02*
X5898753Y-13660174D01*
X5898753Y-13660174D02*
X5908277Y-13622079D01*
X5908277Y-13622079D02*
X5917801Y-13603031D01*
X5917801Y-13603031D02*
X5927324Y-13593508D01*
X5927324Y-13593508D02*
X5946372Y-13583984D01*
X6098753Y-13764936D02*
X6108277Y-13774460D01*
X6108277Y-13774460D02*
X6098753Y-13783984D01*
X6098753Y-13783984D02*
X6089229Y-13774460D01*
X6089229Y-13774460D02*
X6098753Y-13764936D01*
X6098753Y-13764936D02*
X6098753Y-13783984D01*
X6174943Y-13583984D02*
X6298753Y-13583984D01*
X6298753Y-13583984D02*
X6232086Y-13660174D01*
X6232086Y-13660174D02*
X6260658Y-13660174D01*
X6260658Y-13660174D02*
X6279705Y-13669698D01*
X6279705Y-13669698D02*
X6289229Y-13679222D01*
X6289229Y-13679222D02*
X6298753Y-13698269D01*
X6298753Y-13698269D02*
X6298753Y-13745888D01*
X6298753Y-13745888D02*
X6289229Y-13764936D01*
X6289229Y-13764936D02*
X6279705Y-13774460D01*
X6279705Y-13774460D02*
X6260658Y-13783984D01*
X6260658Y-13783984D02*
X6203515Y-13783984D01*
X6203515Y-13783984D02*
X6184467Y-13774460D01*
X6184467Y-13774460D02*
X6174943Y-13764936D01*
X6422562Y-13583984D02*
X6441610Y-13583984D01*
X6441610Y-13583984D02*
X6460658Y-13593508D01*
X6460658Y-13593508D02*
X6470182Y-13603031D01*
X6470182Y-13603031D02*
X6479705Y-13622079D01*
X6479705Y-13622079D02*
X6489229Y-13660174D01*
X6489229Y-13660174D02*
X6489229Y-13707793D01*
X6489229Y-13707793D02*
X6479705Y-13745888D01*
X6479705Y-13745888D02*
X6470182Y-13764936D01*
X6470182Y-13764936D02*
X6460658Y-13774460D01*
X6460658Y-13774460D02*
X6441610Y-13783984D01*
X6441610Y-13783984D02*
X6422562Y-13783984D01*
X6422562Y-13783984D02*
X6403515Y-13774460D01*
X6403515Y-13774460D02*
X6393991Y-13764936D01*
X6393991Y-13764936D02*
X6384467Y-13745888D01*
X6384467Y-13745888D02*
X6374943Y-13707793D01*
X6374943Y-13707793D02*
X6374943Y-13660174D01*
X6374943Y-13660174D02*
X6384467Y-13622079D01*
X6384467Y-13622079D02*
X6393991Y-13603031D01*
X6393991Y-13603031D02*
X6403515Y-13593508D01*
X6403515Y-13593508D02*
X6422562Y-13583984D01*
X6613039Y-13583984D02*
X6632086Y-13583984D01*
X6632086Y-13583984D02*
X6651134Y-13593508D01*
X6651134Y-13593508D02*
X6660658Y-13603031D01*
X6660658Y-13603031D02*
X6670182Y-13622079D01*
X6670182Y-13622079D02*
X6679705Y-13660174D01*
X6679705Y-13660174D02*
X6679705Y-13707793D01*
X6679705Y-13707793D02*
X6670182Y-13745888D01*
X6670182Y-13745888D02*
X6660658Y-13764936D01*
X6660658Y-13764936D02*
X6651134Y-13774460D01*
X6651134Y-13774460D02*
X6632086Y-13783984D01*
X6632086Y-13783984D02*
X6613039Y-13783984D01*
X6613039Y-13783984D02*
X6593991Y-13774460D01*
X6593991Y-13774460D02*
X6584467Y-13764936D01*
X6584467Y-13764936D02*
X6574943Y-13745888D01*
X6574943Y-13745888D02*
X6565420Y-13707793D01*
X6565420Y-13707793D02*
X6565420Y-13660174D01*
X6565420Y-13660174D02*
X6574943Y-13622079D01*
X6574943Y-13622079D02*
X6584467Y-13603031D01*
X6584467Y-13603031D02*
X6593991Y-13593508D01*
X6593991Y-13593508D02*
X6613039Y-13583984D01*
X6765420Y-13783984D02*
X6765420Y-13650650D01*
X6765420Y-13669698D02*
X6774943Y-13660174D01*
X6774943Y-13660174D02*
X6793991Y-13650650D01*
X6793991Y-13650650D02*
X6822563Y-13650650D01*
X6822563Y-13650650D02*
X6841610Y-13660174D01*
X6841610Y-13660174D02*
X6851134Y-13679222D01*
X6851134Y-13679222D02*
X6851134Y-13783984D01*
X6851134Y-13679222D02*
X6860658Y-13660174D01*
X6860658Y-13660174D02*
X6879705Y-13650650D01*
X6879705Y-13650650D02*
X6908277Y-13650650D01*
X6908277Y-13650650D02*
X6927324Y-13660174D01*
X6927324Y-13660174D02*
X6936848Y-13679222D01*
X6936848Y-13679222D02*
X6936848Y-13783984D01*
X7032086Y-13783984D02*
X7032086Y-13650650D01*
X7032086Y-13669698D02*
X7041610Y-13660174D01*
X7041610Y-13660174D02*
X7060658Y-13650650D01*
X7060658Y-13650650D02*
X7089229Y-13650650D01*
X7089229Y-13650650D02*
X7108277Y-13660174D01*
X7108277Y-13660174D02*
X7117801Y-13679222D01*
X7117801Y-13679222D02*
X7117801Y-13783984D01*
X7117801Y-13679222D02*
X7127324Y-13660174D01*
X7127324Y-13660174D02*
X7146372Y-13650650D01*
X7146372Y-13650650D02*
X7174943Y-13650650D01*
X7174943Y-13650650D02*
X7193991Y-13660174D01*
X7193991Y-13660174D02*
X7203515Y-13679222D01*
X7203515Y-13679222D02*
X7203515Y-13783984D01*
X7593991Y-13574460D02*
X7422563Y-13831603D01*
X7851134Y-13583984D02*
X7870182Y-13583984D01*
X7870182Y-13583984D02*
X7889229Y-13593508D01*
X7889229Y-13593508D02*
X7898753Y-13603031D01*
X7898753Y-13603031D02*
X7908277Y-13622079D01*
X7908277Y-13622079D02*
X7917801Y-13660174D01*
X7917801Y-13660174D02*
X7917801Y-13707793D01*
X7917801Y-13707793D02*
X7908277Y-13745888D01*
X7908277Y-13745888D02*
X7898753Y-13764936D01*
X7898753Y-13764936D02*
X7889229Y-13774460D01*
X7889229Y-13774460D02*
X7870182Y-13783984D01*
X7870182Y-13783984D02*
X7851134Y-13783984D01*
X7851134Y-13783984D02*
X7832086Y-13774460D01*
X7832086Y-13774460D02*
X7822563Y-13764936D01*
X7822563Y-13764936D02*
X7813039Y-13745888D01*
X7813039Y-13745888D02*
X7803515Y-13707793D01*
X7803515Y-13707793D02*
X7803515Y-13660174D01*
X7803515Y-13660174D02*
X7813039Y-13622079D01*
X7813039Y-13622079D02*
X7822563Y-13603031D01*
X7822563Y-13603031D02*
X7832086Y-13593508D01*
X7832086Y-13593508D02*
X7851134Y-13583984D01*
X8003515Y-13764936D02*
X8013039Y-13774460D01*
X8013039Y-13774460D02*
X8003515Y-13783984D01*
X8003515Y-13783984D02*
X7993991Y-13774460D01*
X7993991Y-13774460D02*
X8003515Y-13764936D01*
X8003515Y-13764936D02*
X8003515Y-13783984D01*
X8136848Y-13583984D02*
X8155896Y-13583984D01*
X8155896Y-13583984D02*
X8174944Y-13593508D01*
X8174944Y-13593508D02*
X8184467Y-13603031D01*
X8184467Y-13603031D02*
X8193991Y-13622079D01*
X8193991Y-13622079D02*
X8203515Y-13660174D01*
X8203515Y-13660174D02*
X8203515Y-13707793D01*
X8203515Y-13707793D02*
X8193991Y-13745888D01*
X8193991Y-13745888D02*
X8184467Y-13764936D01*
X8184467Y-13764936D02*
X8174944Y-13774460D01*
X8174944Y-13774460D02*
X8155896Y-13783984D01*
X8155896Y-13783984D02*
X8136848Y-13783984D01*
X8136848Y-13783984D02*
X8117801Y-13774460D01*
X8117801Y-13774460D02*
X8108277Y-13764936D01*
X8108277Y-13764936D02*
X8098753Y-13745888D01*
X8098753Y-13745888D02*
X8089229Y-13707793D01*
X8089229Y-13707793D02*
X8089229Y-13660174D01*
X8089229Y-13660174D02*
X8098753Y-13622079D01*
X8098753Y-13622079D02*
X8108277Y-13603031D01*
X8108277Y-13603031D02*
X8117801Y-13593508D01*
X8117801Y-13593508D02*
X8136848Y-13583984D01*
X8393991Y-13783984D02*
X8279706Y-13783984D01*
X8336848Y-13783984D02*
X8336848Y-13583984D01*
X8336848Y-13583984D02*
X8317801Y-13612555D01*
X8317801Y-13612555D02*
X8298753Y-13631603D01*
X8298753Y-13631603D02*
X8279706Y-13641127D01*
X8584468Y-13783984D02*
X8470182Y-13783984D01*
X8527325Y-13783984D02*
X8527325Y-13583984D01*
X8527325Y-13583984D02*
X8508277Y-13612555D01*
X8508277Y-13612555D02*
X8489229Y-13631603D01*
X8489229Y-13631603D02*
X8470182Y-13641127D01*
X8698753Y-13669698D02*
X8679706Y-13660174D01*
X8679706Y-13660174D02*
X8670182Y-13650650D01*
X8670182Y-13650650D02*
X8660658Y-13631603D01*
X8660658Y-13631603D02*
X8660658Y-13622079D01*
X8660658Y-13622079D02*
X8670182Y-13603031D01*
X8670182Y-13603031D02*
X8679706Y-13593508D01*
X8679706Y-13593508D02*
X8698753Y-13583984D01*
X8698753Y-13583984D02*
X8736849Y-13583984D01*
X8736849Y-13583984D02*
X8755896Y-13593508D01*
X8755896Y-13593508D02*
X8765420Y-13603031D01*
X8765420Y-13603031D02*
X8774944Y-13622079D01*
X8774944Y-13622079D02*
X8774944Y-13631603D01*
X8774944Y-13631603D02*
X8765420Y-13650650D01*
X8765420Y-13650650D02*
X8755896Y-13660174D01*
X8755896Y-13660174D02*
X8736849Y-13669698D01*
X8736849Y-13669698D02*
X8698753Y-13669698D01*
X8698753Y-13669698D02*
X8679706Y-13679222D01*
X8679706Y-13679222D02*
X8670182Y-13688746D01*
X8670182Y-13688746D02*
X8660658Y-13707793D01*
X8660658Y-13707793D02*
X8660658Y-13745888D01*
X8660658Y-13745888D02*
X8670182Y-13764936D01*
X8670182Y-13764936D02*
X8679706Y-13774460D01*
X8679706Y-13774460D02*
X8698753Y-13783984D01*
X8698753Y-13783984D02*
X8736849Y-13783984D01*
X8736849Y-13783984D02*
X8755896Y-13774460D01*
X8755896Y-13774460D02*
X8765420Y-13764936D01*
X8765420Y-13764936D02*
X8774944Y-13745888D01*
X8774944Y-13745888D02*
X8774944Y-13707793D01*
X8774944Y-13707793D02*
X8765420Y-13688746D01*
X8765420Y-13688746D02*
X8755896Y-13679222D01*
X8755896Y-13679222D02*
X8736849Y-13669698D01*
X8851134Y-13583984D02*
X8851134Y-13622079D01*
X8927325Y-13583984D02*
X8927325Y-13622079D01*
X9222563Y-13860174D02*
X9213039Y-13850650D01*
X9213039Y-13850650D02*
X9193991Y-13822079D01*
X9193991Y-13822079D02*
X9184468Y-13803031D01*
X9184468Y-13803031D02*
X9174944Y-13774460D01*
X9174944Y-13774460D02*
X9165420Y-13726841D01*
X9165420Y-13726841D02*
X9165420Y-13688746D01*
X9165420Y-13688746D02*
X9174944Y-13641127D01*
X9174944Y-13641127D02*
X9184468Y-13612555D01*
X9184468Y-13612555D02*
X9193991Y-13593508D01*
X9193991Y-13593508D02*
X9213039Y-13564936D01*
X9213039Y-13564936D02*
X9222563Y-13555412D01*
X9403515Y-13783984D02*
X9289230Y-13783984D01*
X9346372Y-13783984D02*
X9346372Y-13583984D01*
X9346372Y-13583984D02*
X9327325Y-13612555D01*
X9327325Y-13612555D02*
X9308277Y-13631603D01*
X9308277Y-13631603D02*
X9289230Y-13641127D01*
X9517801Y-13669698D02*
X9498753Y-13660174D01*
X9498753Y-13660174D02*
X9489230Y-13650650D01*
X9489230Y-13650650D02*
X9479706Y-13631603D01*
X9479706Y-13631603D02*
X9479706Y-13622079D01*
X9479706Y-13622079D02*
X9489230Y-13603031D01*
X9489230Y-13603031D02*
X9498753Y-13593508D01*
X9498753Y-13593508D02*
X9517801Y-13583984D01*
X9517801Y-13583984D02*
X9555896Y-13583984D01*
X9555896Y-13583984D02*
X9574944Y-13593508D01*
X9574944Y-13593508D02*
X9584468Y-13603031D01*
X9584468Y-13603031D02*
X9593991Y-13622079D01*
X9593991Y-13622079D02*
X9593991Y-13631603D01*
X9593991Y-13631603D02*
X9584468Y-13650650D01*
X9584468Y-13650650D02*
X9574944Y-13660174D01*
X9574944Y-13660174D02*
X9555896Y-13669698D01*
X9555896Y-13669698D02*
X9517801Y-13669698D01*
X9517801Y-13669698D02*
X9498753Y-13679222D01*
X9498753Y-13679222D02*
X9489230Y-13688746D01*
X9489230Y-13688746D02*
X9479706Y-13707793D01*
X9479706Y-13707793D02*
X9479706Y-13745888D01*
X9479706Y-13745888D02*
X9489230Y-13764936D01*
X9489230Y-13764936D02*
X9498753Y-13774460D01*
X9498753Y-13774460D02*
X9517801Y-13783984D01*
X9517801Y-13783984D02*
X9555896Y-13783984D01*
X9555896Y-13783984D02*
X9574944Y-13774460D01*
X9574944Y-13774460D02*
X9584468Y-13764936D01*
X9584468Y-13764936D02*
X9593991Y-13745888D01*
X9593991Y-13745888D02*
X9593991Y-13707793D01*
X9593991Y-13707793D02*
X9584468Y-13688746D01*
X9584468Y-13688746D02*
X9574944Y-13679222D01*
X9574944Y-13679222D02*
X9555896Y-13669698D01*
X9689230Y-13783984D02*
X9727325Y-13783984D01*
X9727325Y-13783984D02*
X9746372Y-13774460D01*
X9746372Y-13774460D02*
X9755896Y-13764936D01*
X9755896Y-13764936D02*
X9774944Y-13736365D01*
X9774944Y-13736365D02*
X9784468Y-13698269D01*
X9784468Y-13698269D02*
X9784468Y-13622079D01*
X9784468Y-13622079D02*
X9774944Y-13603031D01*
X9774944Y-13603031D02*
X9765420Y-13593508D01*
X9765420Y-13593508D02*
X9746372Y-13583984D01*
X9746372Y-13583984D02*
X9708277Y-13583984D01*
X9708277Y-13583984D02*
X9689230Y-13593508D01*
X9689230Y-13593508D02*
X9679706Y-13603031D01*
X9679706Y-13603031D02*
X9670182Y-13622079D01*
X9670182Y-13622079D02*
X9670182Y-13669698D01*
X9670182Y-13669698D02*
X9679706Y-13688746D01*
X9679706Y-13688746D02*
X9689230Y-13698269D01*
X9689230Y-13698269D02*
X9708277Y-13707793D01*
X9708277Y-13707793D02*
X9746372Y-13707793D01*
X9746372Y-13707793D02*
X9765420Y-13698269D01*
X9765420Y-13698269D02*
X9774944Y-13688746D01*
X9774944Y-13688746D02*
X9784468Y-13669698D01*
X10022563Y-13783984D02*
X10022563Y-13583984D01*
X10108277Y-13783984D02*
X10108277Y-13679222D01*
X10108277Y-13679222D02*
X10098753Y-13660174D01*
X10098753Y-13660174D02*
X10079706Y-13650650D01*
X10079706Y-13650650D02*
X10051134Y-13650650D01*
X10051134Y-13650650D02*
X10032087Y-13660174D01*
X10032087Y-13660174D02*
X10022563Y-13669698D01*
X10232087Y-13783984D02*
X10213039Y-13774460D01*
X10213039Y-13774460D02*
X10203515Y-13764936D01*
X10203515Y-13764936D02*
X10193992Y-13745888D01*
X10193992Y-13745888D02*
X10193992Y-13688746D01*
X10193992Y-13688746D02*
X10203515Y-13669698D01*
X10203515Y-13669698D02*
X10213039Y-13660174D01*
X10213039Y-13660174D02*
X10232087Y-13650650D01*
X10232087Y-13650650D02*
X10260658Y-13650650D01*
X10260658Y-13650650D02*
X10279706Y-13660174D01*
X10279706Y-13660174D02*
X10289230Y-13669698D01*
X10289230Y-13669698D02*
X10298753Y-13688746D01*
X10298753Y-13688746D02*
X10298753Y-13745888D01*
X10298753Y-13745888D02*
X10289230Y-13764936D01*
X10289230Y-13764936D02*
X10279706Y-13774460D01*
X10279706Y-13774460D02*
X10260658Y-13783984D01*
X10260658Y-13783984D02*
X10232087Y-13783984D01*
X10413039Y-13783984D02*
X10393992Y-13774460D01*
X10393992Y-13774460D02*
X10384468Y-13755412D01*
X10384468Y-13755412D02*
X10384468Y-13583984D01*
X10565420Y-13774460D02*
X10546373Y-13783984D01*
X10546373Y-13783984D02*
X10508277Y-13783984D01*
X10508277Y-13783984D02*
X10489230Y-13774460D01*
X10489230Y-13774460D02*
X10479706Y-13755412D01*
X10479706Y-13755412D02*
X10479706Y-13679222D01*
X10479706Y-13679222D02*
X10489230Y-13660174D01*
X10489230Y-13660174D02*
X10508277Y-13650650D01*
X10508277Y-13650650D02*
X10546373Y-13650650D01*
X10546373Y-13650650D02*
X10565420Y-13660174D01*
X10565420Y-13660174D02*
X10574944Y-13679222D01*
X10574944Y-13679222D02*
X10574944Y-13698269D01*
X10574944Y-13698269D02*
X10479706Y-13717317D01*
X10651134Y-13774460D02*
X10670182Y-13783984D01*
X10670182Y-13783984D02*
X10708277Y-13783984D01*
X10708277Y-13783984D02*
X10727325Y-13774460D01*
X10727325Y-13774460D02*
X10736849Y-13755412D01*
X10736849Y-13755412D02*
X10736849Y-13745888D01*
X10736849Y-13745888D02*
X10727325Y-13726841D01*
X10727325Y-13726841D02*
X10708277Y-13717317D01*
X10708277Y-13717317D02*
X10679706Y-13717317D01*
X10679706Y-13717317D02*
X10660658Y-13707793D01*
X10660658Y-13707793D02*
X10651134Y-13688746D01*
X10651134Y-13688746D02*
X10651134Y-13679222D01*
X10651134Y-13679222D02*
X10660658Y-13660174D01*
X10660658Y-13660174D02*
X10679706Y-13650650D01*
X10679706Y-13650650D02*
X10708277Y-13650650D01*
X10708277Y-13650650D02*
X10727325Y-13660174D01*
X10803515Y-13860174D02*
X10813039Y-13850650D01*
X10813039Y-13850650D02*
X10832087Y-13822079D01*
X10832087Y-13822079D02*
X10841611Y-13803031D01*
X10841611Y-13803031D02*
X10851134Y-13774460D01*
X10851134Y-13774460D02*
X10860658Y-13726841D01*
X10860658Y-13726841D02*
X10860658Y-13688746D01*
X10860658Y-13688746D02*
X10851134Y-13641127D01*
X10851134Y-13641127D02*
X10841611Y-13612555D01*
X10841611Y-13612555D02*
X10832087Y-13593508D01*
X10832087Y-13593508D02*
X10813039Y-13564936D01*
X10813039Y-13564936D02*
X10803515Y-13555412D01*
D12*
X5647500Y-13956500D02*
G75*
G02*
X5597500Y-13956500I-25000J0D01*
G01*
X5597500Y-13956500D02*
G75*
G02*
X5647500Y-13956500I25000J0D01*
G01*
D11*
X5946372Y-13847984D02*
X5965420Y-13847984D01*
X5965420Y-13847984D02*
X5984467Y-13857508D01*
X5984467Y-13857508D02*
X5993991Y-13867031D01*
X5993991Y-13867031D02*
X6003515Y-13886079D01*
X6003515Y-13886079D02*
X6013039Y-13924174D01*
X6013039Y-13924174D02*
X6013039Y-13971793D01*
X6013039Y-13971793D02*
X6003515Y-14009888D01*
X6003515Y-14009888D02*
X5993991Y-14028936D01*
X5993991Y-14028936D02*
X5984467Y-14038460D01*
X5984467Y-14038460D02*
X5965420Y-14047984D01*
X5965420Y-14047984D02*
X5946372Y-14047984D01*
X5946372Y-14047984D02*
X5927324Y-14038460D01*
X5927324Y-14038460D02*
X5917801Y-14028936D01*
X5917801Y-14028936D02*
X5908277Y-14009888D01*
X5908277Y-14009888D02*
X5898753Y-13971793D01*
X5898753Y-13971793D02*
X5898753Y-13924174D01*
X5898753Y-13924174D02*
X5908277Y-13886079D01*
X5908277Y-13886079D02*
X5917801Y-13867031D01*
X5917801Y-13867031D02*
X5927324Y-13857508D01*
X5927324Y-13857508D02*
X5946372Y-13847984D01*
X6098753Y-14028936D02*
X6108277Y-14038460D01*
X6108277Y-14038460D02*
X6098753Y-14047984D01*
X6098753Y-14047984D02*
X6089229Y-14038460D01*
X6089229Y-14038460D02*
X6098753Y-14028936D01*
X6098753Y-14028936D02*
X6098753Y-14047984D01*
X6289229Y-13847984D02*
X6193991Y-13847984D01*
X6193991Y-13847984D02*
X6184467Y-13943222D01*
X6184467Y-13943222D02*
X6193991Y-13933698D01*
X6193991Y-13933698D02*
X6213039Y-13924174D01*
X6213039Y-13924174D02*
X6260658Y-13924174D01*
X6260658Y-13924174D02*
X6279705Y-13933698D01*
X6279705Y-13933698D02*
X6289229Y-13943222D01*
X6289229Y-13943222D02*
X6298753Y-13962269D01*
X6298753Y-13962269D02*
X6298753Y-14009888D01*
X6298753Y-14009888D02*
X6289229Y-14028936D01*
X6289229Y-14028936D02*
X6279705Y-14038460D01*
X6279705Y-14038460D02*
X6260658Y-14047984D01*
X6260658Y-14047984D02*
X6213039Y-14047984D01*
X6213039Y-14047984D02*
X6193991Y-14038460D01*
X6193991Y-14038460D02*
X6184467Y-14028936D01*
X6422562Y-13847984D02*
X6441610Y-13847984D01*
X6441610Y-13847984D02*
X6460658Y-13857508D01*
X6460658Y-13857508D02*
X6470182Y-13867031D01*
X6470182Y-13867031D02*
X6479705Y-13886079D01*
X6479705Y-13886079D02*
X6489229Y-13924174D01*
X6489229Y-13924174D02*
X6489229Y-13971793D01*
X6489229Y-13971793D02*
X6479705Y-14009888D01*
X6479705Y-14009888D02*
X6470182Y-14028936D01*
X6470182Y-14028936D02*
X6460658Y-14038460D01*
X6460658Y-14038460D02*
X6441610Y-14047984D01*
X6441610Y-14047984D02*
X6422562Y-14047984D01*
X6422562Y-14047984D02*
X6403515Y-14038460D01*
X6403515Y-14038460D02*
X6393991Y-14028936D01*
X6393991Y-14028936D02*
X6384467Y-14009888D01*
X6384467Y-14009888D02*
X6374943Y-13971793D01*
X6374943Y-13971793D02*
X6374943Y-13924174D01*
X6374943Y-13924174D02*
X6384467Y-13886079D01*
X6384467Y-13886079D02*
X6393991Y-13867031D01*
X6393991Y-13867031D02*
X6403515Y-13857508D01*
X6403515Y-13857508D02*
X6422562Y-13847984D01*
X6613039Y-13847984D02*
X6632086Y-13847984D01*
X6632086Y-13847984D02*
X6651134Y-13857508D01*
X6651134Y-13857508D02*
X6660658Y-13867031D01*
X6660658Y-13867031D02*
X6670182Y-13886079D01*
X6670182Y-13886079D02*
X6679705Y-13924174D01*
X6679705Y-13924174D02*
X6679705Y-13971793D01*
X6679705Y-13971793D02*
X6670182Y-14009888D01*
X6670182Y-14009888D02*
X6660658Y-14028936D01*
X6660658Y-14028936D02*
X6651134Y-14038460D01*
X6651134Y-14038460D02*
X6632086Y-14047984D01*
X6632086Y-14047984D02*
X6613039Y-14047984D01*
X6613039Y-14047984D02*
X6593991Y-14038460D01*
X6593991Y-14038460D02*
X6584467Y-14028936D01*
X6584467Y-14028936D02*
X6574943Y-14009888D01*
X6574943Y-14009888D02*
X6565420Y-13971793D01*
X6565420Y-13971793D02*
X6565420Y-13924174D01*
X6565420Y-13924174D02*
X6574943Y-13886079D01*
X6574943Y-13886079D02*
X6584467Y-13867031D01*
X6584467Y-13867031D02*
X6593991Y-13857508D01*
X6593991Y-13857508D02*
X6613039Y-13847984D01*
X6765420Y-14047984D02*
X6765420Y-13914650D01*
X6765420Y-13933698D02*
X6774943Y-13924174D01*
X6774943Y-13924174D02*
X6793991Y-13914650D01*
X6793991Y-13914650D02*
X6822563Y-13914650D01*
X6822563Y-13914650D02*
X6841610Y-13924174D01*
X6841610Y-13924174D02*
X6851134Y-13943222D01*
X6851134Y-13943222D02*
X6851134Y-14047984D01*
X6851134Y-13943222D02*
X6860658Y-13924174D01*
X6860658Y-13924174D02*
X6879705Y-13914650D01*
X6879705Y-13914650D02*
X6908277Y-13914650D01*
X6908277Y-13914650D02*
X6927324Y-13924174D01*
X6927324Y-13924174D02*
X6936848Y-13943222D01*
X6936848Y-13943222D02*
X6936848Y-14047984D01*
X7032086Y-14047984D02*
X7032086Y-13914650D01*
X7032086Y-13933698D02*
X7041610Y-13924174D01*
X7041610Y-13924174D02*
X7060658Y-13914650D01*
X7060658Y-13914650D02*
X7089229Y-13914650D01*
X7089229Y-13914650D02*
X7108277Y-13924174D01*
X7108277Y-13924174D02*
X7117801Y-13943222D01*
X7117801Y-13943222D02*
X7117801Y-14047984D01*
X7117801Y-13943222D02*
X7127324Y-13924174D01*
X7127324Y-13924174D02*
X7146372Y-13914650D01*
X7146372Y-13914650D02*
X7174943Y-13914650D01*
X7174943Y-13914650D02*
X7193991Y-13924174D01*
X7193991Y-13924174D02*
X7203515Y-13943222D01*
X7203515Y-13943222D02*
X7203515Y-14047984D01*
X7593991Y-13838460D02*
X7422563Y-14095603D01*
X7851134Y-13847984D02*
X7870182Y-13847984D01*
X7870182Y-13847984D02*
X7889229Y-13857508D01*
X7889229Y-13857508D02*
X7898753Y-13867031D01*
X7898753Y-13867031D02*
X7908277Y-13886079D01*
X7908277Y-13886079D02*
X7917801Y-13924174D01*
X7917801Y-13924174D02*
X7917801Y-13971793D01*
X7917801Y-13971793D02*
X7908277Y-14009888D01*
X7908277Y-14009888D02*
X7898753Y-14028936D01*
X7898753Y-14028936D02*
X7889229Y-14038460D01*
X7889229Y-14038460D02*
X7870182Y-14047984D01*
X7870182Y-14047984D02*
X7851134Y-14047984D01*
X7851134Y-14047984D02*
X7832086Y-14038460D01*
X7832086Y-14038460D02*
X7822563Y-14028936D01*
X7822563Y-14028936D02*
X7813039Y-14009888D01*
X7813039Y-14009888D02*
X7803515Y-13971793D01*
X7803515Y-13971793D02*
X7803515Y-13924174D01*
X7803515Y-13924174D02*
X7813039Y-13886079D01*
X7813039Y-13886079D02*
X7822563Y-13867031D01*
X7822563Y-13867031D02*
X7832086Y-13857508D01*
X7832086Y-13857508D02*
X7851134Y-13847984D01*
X8003515Y-14028936D02*
X8013039Y-14038460D01*
X8013039Y-14038460D02*
X8003515Y-14047984D01*
X8003515Y-14047984D02*
X7993991Y-14038460D01*
X7993991Y-14038460D02*
X8003515Y-14028936D01*
X8003515Y-14028936D02*
X8003515Y-14047984D01*
X8136848Y-13847984D02*
X8155896Y-13847984D01*
X8155896Y-13847984D02*
X8174944Y-13857508D01*
X8174944Y-13857508D02*
X8184467Y-13867031D01*
X8184467Y-13867031D02*
X8193991Y-13886079D01*
X8193991Y-13886079D02*
X8203515Y-13924174D01*
X8203515Y-13924174D02*
X8203515Y-13971793D01*
X8203515Y-13971793D02*
X8193991Y-14009888D01*
X8193991Y-14009888D02*
X8184467Y-14028936D01*
X8184467Y-14028936D02*
X8174944Y-14038460D01*
X8174944Y-14038460D02*
X8155896Y-14047984D01*
X8155896Y-14047984D02*
X8136848Y-14047984D01*
X8136848Y-14047984D02*
X8117801Y-14038460D01*
X8117801Y-14038460D02*
X8108277Y-14028936D01*
X8108277Y-14028936D02*
X8098753Y-14009888D01*
X8098753Y-14009888D02*
X8089229Y-13971793D01*
X8089229Y-13971793D02*
X8089229Y-13924174D01*
X8089229Y-13924174D02*
X8098753Y-13886079D01*
X8098753Y-13886079D02*
X8108277Y-13867031D01*
X8108277Y-13867031D02*
X8117801Y-13857508D01*
X8117801Y-13857508D02*
X8136848Y-13847984D01*
X8393991Y-14047984D02*
X8279706Y-14047984D01*
X8336848Y-14047984D02*
X8336848Y-13847984D01*
X8336848Y-13847984D02*
X8317801Y-13876555D01*
X8317801Y-13876555D02*
X8298753Y-13895603D01*
X8298753Y-13895603D02*
X8279706Y-13905127D01*
X8489229Y-14047984D02*
X8527325Y-14047984D01*
X8527325Y-14047984D02*
X8546372Y-14038460D01*
X8546372Y-14038460D02*
X8555896Y-14028936D01*
X8555896Y-14028936D02*
X8574944Y-14000365D01*
X8574944Y-14000365D02*
X8584468Y-13962269D01*
X8584468Y-13962269D02*
X8584468Y-13886079D01*
X8584468Y-13886079D02*
X8574944Y-13867031D01*
X8574944Y-13867031D02*
X8565420Y-13857508D01*
X8565420Y-13857508D02*
X8546372Y-13847984D01*
X8546372Y-13847984D02*
X8508277Y-13847984D01*
X8508277Y-13847984D02*
X8489229Y-13857508D01*
X8489229Y-13857508D02*
X8479706Y-13867031D01*
X8479706Y-13867031D02*
X8470182Y-13886079D01*
X8470182Y-13886079D02*
X8470182Y-13933698D01*
X8470182Y-13933698D02*
X8479706Y-13952746D01*
X8479706Y-13952746D02*
X8489229Y-13962269D01*
X8489229Y-13962269D02*
X8508277Y-13971793D01*
X8508277Y-13971793D02*
X8546372Y-13971793D01*
X8546372Y-13971793D02*
X8565420Y-13962269D01*
X8565420Y-13962269D02*
X8574944Y-13952746D01*
X8574944Y-13952746D02*
X8584468Y-13933698D01*
X8651134Y-13847984D02*
X8784468Y-13847984D01*
X8784468Y-13847984D02*
X8698753Y-14047984D01*
X8851134Y-13847984D02*
X8851134Y-13886079D01*
X8927325Y-13847984D02*
X8927325Y-13886079D01*
X9222563Y-14124174D02*
X9213039Y-14114650D01*
X9213039Y-14114650D02*
X9193991Y-14086079D01*
X9193991Y-14086079D02*
X9184468Y-14067031D01*
X9184468Y-14067031D02*
X9174944Y-14038460D01*
X9174944Y-14038460D02*
X9165420Y-13990841D01*
X9165420Y-13990841D02*
X9165420Y-13952746D01*
X9165420Y-13952746D02*
X9174944Y-13905127D01*
X9174944Y-13905127D02*
X9184468Y-13876555D01*
X9184468Y-13876555D02*
X9193991Y-13857508D01*
X9193991Y-13857508D02*
X9213039Y-13828936D01*
X9213039Y-13828936D02*
X9222563Y-13819412D01*
X9384468Y-13914650D02*
X9384468Y-14047984D01*
X9336849Y-13838460D02*
X9289230Y-13981317D01*
X9289230Y-13981317D02*
X9413039Y-13981317D01*
X9641611Y-14047984D02*
X9641611Y-13847984D01*
X9727325Y-14047984D02*
X9727325Y-13943222D01*
X9727325Y-13943222D02*
X9717801Y-13924174D01*
X9717801Y-13924174D02*
X9698753Y-13914650D01*
X9698753Y-13914650D02*
X9670182Y-13914650D01*
X9670182Y-13914650D02*
X9651134Y-13924174D01*
X9651134Y-13924174D02*
X9641611Y-13933698D01*
X9851134Y-14047984D02*
X9832087Y-14038460D01*
X9832087Y-14038460D02*
X9822563Y-14028936D01*
X9822563Y-14028936D02*
X9813039Y-14009888D01*
X9813039Y-14009888D02*
X9813039Y-13952746D01*
X9813039Y-13952746D02*
X9822563Y-13933698D01*
X9822563Y-13933698D02*
X9832087Y-13924174D01*
X9832087Y-13924174D02*
X9851134Y-13914650D01*
X9851134Y-13914650D02*
X9879706Y-13914650D01*
X9879706Y-13914650D02*
X9898753Y-13924174D01*
X9898753Y-13924174D02*
X9908277Y-13933698D01*
X9908277Y-13933698D02*
X9917801Y-13952746D01*
X9917801Y-13952746D02*
X9917801Y-14009888D01*
X9917801Y-14009888D02*
X9908277Y-14028936D01*
X9908277Y-14028936D02*
X9898753Y-14038460D01*
X9898753Y-14038460D02*
X9879706Y-14047984D01*
X9879706Y-14047984D02*
X9851134Y-14047984D01*
X10032087Y-14047984D02*
X10013039Y-14038460D01*
X10013039Y-14038460D02*
X10003515Y-14019412D01*
X10003515Y-14019412D02*
X10003515Y-13847984D01*
X10184468Y-14038460D02*
X10165420Y-14047984D01*
X10165420Y-14047984D02*
X10127325Y-14047984D01*
X10127325Y-14047984D02*
X10108277Y-14038460D01*
X10108277Y-14038460D02*
X10098753Y-14019412D01*
X10098753Y-14019412D02*
X10098753Y-13943222D01*
X10098753Y-13943222D02*
X10108277Y-13924174D01*
X10108277Y-13924174D02*
X10127325Y-13914650D01*
X10127325Y-13914650D02*
X10165420Y-13914650D01*
X10165420Y-13914650D02*
X10184468Y-13924174D01*
X10184468Y-13924174D02*
X10193992Y-13943222D01*
X10193992Y-13943222D02*
X10193992Y-13962269D01*
X10193992Y-13962269D02*
X10098753Y-13981317D01*
X10270182Y-14038460D02*
X10289230Y-14047984D01*
X10289230Y-14047984D02*
X10327325Y-14047984D01*
X10327325Y-14047984D02*
X10346373Y-14038460D01*
X10346373Y-14038460D02*
X10355896Y-14019412D01*
X10355896Y-14019412D02*
X10355896Y-14009888D01*
X10355896Y-14009888D02*
X10346373Y-13990841D01*
X10346373Y-13990841D02*
X10327325Y-13981317D01*
X10327325Y-13981317D02*
X10298753Y-13981317D01*
X10298753Y-13981317D02*
X10279706Y-13971793D01*
X10279706Y-13971793D02*
X10270182Y-13952746D01*
X10270182Y-13952746D02*
X10270182Y-13943222D01*
X10270182Y-13943222D02*
X10279706Y-13924174D01*
X10279706Y-13924174D02*
X10298753Y-13914650D01*
X10298753Y-13914650D02*
X10327325Y-13914650D01*
X10327325Y-13914650D02*
X10346373Y-13924174D01*
X10422563Y-14124174D02*
X10432087Y-14114650D01*
X10432087Y-14114650D02*
X10451134Y-14086079D01*
X10451134Y-14086079D02*
X10460658Y-14067031D01*
X10460658Y-14067031D02*
X10470182Y-14038460D01*
X10470182Y-14038460D02*
X10479706Y-13990841D01*
X10479706Y-13990841D02*
X10479706Y-13952746D01*
X10479706Y-13952746D02*
X10470182Y-13905127D01*
X10470182Y-13905127D02*
X10460658Y-13876555D01*
X10460658Y-13876555D02*
X10451134Y-13857508D01*
X10451134Y-13857508D02*
X10432087Y-13828936D01*
X10432087Y-13828936D02*
X10422563Y-13819412D01*
D12*
X5617500Y-14190500D02*
X5617500Y-14250500D01*
X5587500Y-14220500D02*
X5647500Y-14220500D01*
D11*
X5946372Y-14111984D02*
X5965420Y-14111984D01*
X5965420Y-14111984D02*
X5984467Y-14121508D01*
X5984467Y-14121508D02*
X5993991Y-14131031D01*
X5993991Y-14131031D02*
X6003515Y-14150079D01*
X6003515Y-14150079D02*
X6013039Y-14188174D01*
X6013039Y-14188174D02*
X6013039Y-14235793D01*
X6013039Y-14235793D02*
X6003515Y-14273888D01*
X6003515Y-14273888D02*
X5993991Y-14292936D01*
X5993991Y-14292936D02*
X5984467Y-14302460D01*
X5984467Y-14302460D02*
X5965420Y-14311984D01*
X5965420Y-14311984D02*
X5946372Y-14311984D01*
X5946372Y-14311984D02*
X5927324Y-14302460D01*
X5927324Y-14302460D02*
X5917801Y-14292936D01*
X5917801Y-14292936D02*
X5908277Y-14273888D01*
X5908277Y-14273888D02*
X5898753Y-14235793D01*
X5898753Y-14235793D02*
X5898753Y-14188174D01*
X5898753Y-14188174D02*
X5908277Y-14150079D01*
X5908277Y-14150079D02*
X5917801Y-14131031D01*
X5917801Y-14131031D02*
X5927324Y-14121508D01*
X5927324Y-14121508D02*
X5946372Y-14111984D01*
X6098753Y-14292936D02*
X6108277Y-14302460D01*
X6108277Y-14302460D02*
X6098753Y-14311984D01*
X6098753Y-14311984D02*
X6089229Y-14302460D01*
X6089229Y-14302460D02*
X6098753Y-14292936D01*
X6098753Y-14292936D02*
X6098753Y-14311984D01*
X6279705Y-14111984D02*
X6241610Y-14111984D01*
X6241610Y-14111984D02*
X6222562Y-14121508D01*
X6222562Y-14121508D02*
X6213039Y-14131031D01*
X6213039Y-14131031D02*
X6193991Y-14159603D01*
X6193991Y-14159603D02*
X6184467Y-14197698D01*
X6184467Y-14197698D02*
X6184467Y-14273888D01*
X6184467Y-14273888D02*
X6193991Y-14292936D01*
X6193991Y-14292936D02*
X6203515Y-14302460D01*
X6203515Y-14302460D02*
X6222562Y-14311984D01*
X6222562Y-14311984D02*
X6260658Y-14311984D01*
X6260658Y-14311984D02*
X6279705Y-14302460D01*
X6279705Y-14302460D02*
X6289229Y-14292936D01*
X6289229Y-14292936D02*
X6298753Y-14273888D01*
X6298753Y-14273888D02*
X6298753Y-14226269D01*
X6298753Y-14226269D02*
X6289229Y-14207222D01*
X6289229Y-14207222D02*
X6279705Y-14197698D01*
X6279705Y-14197698D02*
X6260658Y-14188174D01*
X6260658Y-14188174D02*
X6222562Y-14188174D01*
X6222562Y-14188174D02*
X6203515Y-14197698D01*
X6203515Y-14197698D02*
X6193991Y-14207222D01*
X6193991Y-14207222D02*
X6184467Y-14226269D01*
X6422562Y-14111984D02*
X6441610Y-14111984D01*
X6441610Y-14111984D02*
X6460658Y-14121508D01*
X6460658Y-14121508D02*
X6470182Y-14131031D01*
X6470182Y-14131031D02*
X6479705Y-14150079D01*
X6479705Y-14150079D02*
X6489229Y-14188174D01*
X6489229Y-14188174D02*
X6489229Y-14235793D01*
X6489229Y-14235793D02*
X6479705Y-14273888D01*
X6479705Y-14273888D02*
X6470182Y-14292936D01*
X6470182Y-14292936D02*
X6460658Y-14302460D01*
X6460658Y-14302460D02*
X6441610Y-14311984D01*
X6441610Y-14311984D02*
X6422562Y-14311984D01*
X6422562Y-14311984D02*
X6403515Y-14302460D01*
X6403515Y-14302460D02*
X6393991Y-14292936D01*
X6393991Y-14292936D02*
X6384467Y-14273888D01*
X6384467Y-14273888D02*
X6374943Y-14235793D01*
X6374943Y-14235793D02*
X6374943Y-14188174D01*
X6374943Y-14188174D02*
X6384467Y-14150079D01*
X6384467Y-14150079D02*
X6393991Y-14131031D01*
X6393991Y-14131031D02*
X6403515Y-14121508D01*
X6403515Y-14121508D02*
X6422562Y-14111984D01*
X6613039Y-14111984D02*
X6632086Y-14111984D01*
X6632086Y-14111984D02*
X6651134Y-14121508D01*
X6651134Y-14121508D02*
X6660658Y-14131031D01*
X6660658Y-14131031D02*
X6670182Y-14150079D01*
X6670182Y-14150079D02*
X6679705Y-14188174D01*
X6679705Y-14188174D02*
X6679705Y-14235793D01*
X6679705Y-14235793D02*
X6670182Y-14273888D01*
X6670182Y-14273888D02*
X6660658Y-14292936D01*
X6660658Y-14292936D02*
X6651134Y-14302460D01*
X6651134Y-14302460D02*
X6632086Y-14311984D01*
X6632086Y-14311984D02*
X6613039Y-14311984D01*
X6613039Y-14311984D02*
X6593991Y-14302460D01*
X6593991Y-14302460D02*
X6584467Y-14292936D01*
X6584467Y-14292936D02*
X6574943Y-14273888D01*
X6574943Y-14273888D02*
X6565420Y-14235793D01*
X6565420Y-14235793D02*
X6565420Y-14188174D01*
X6565420Y-14188174D02*
X6574943Y-14150079D01*
X6574943Y-14150079D02*
X6584467Y-14131031D01*
X6584467Y-14131031D02*
X6593991Y-14121508D01*
X6593991Y-14121508D02*
X6613039Y-14111984D01*
X6765420Y-14311984D02*
X6765420Y-14178650D01*
X6765420Y-14197698D02*
X6774943Y-14188174D01*
X6774943Y-14188174D02*
X6793991Y-14178650D01*
X6793991Y-14178650D02*
X6822563Y-14178650D01*
X6822563Y-14178650D02*
X6841610Y-14188174D01*
X6841610Y-14188174D02*
X6851134Y-14207222D01*
X6851134Y-14207222D02*
X6851134Y-14311984D01*
X6851134Y-14207222D02*
X6860658Y-14188174D01*
X6860658Y-14188174D02*
X6879705Y-14178650D01*
X6879705Y-14178650D02*
X6908277Y-14178650D01*
X6908277Y-14178650D02*
X6927324Y-14188174D01*
X6927324Y-14188174D02*
X6936848Y-14207222D01*
X6936848Y-14207222D02*
X6936848Y-14311984D01*
X7032086Y-14311984D02*
X7032086Y-14178650D01*
X7032086Y-14197698D02*
X7041610Y-14188174D01*
X7041610Y-14188174D02*
X7060658Y-14178650D01*
X7060658Y-14178650D02*
X7089229Y-14178650D01*
X7089229Y-14178650D02*
X7108277Y-14188174D01*
X7108277Y-14188174D02*
X7117801Y-14207222D01*
X7117801Y-14207222D02*
X7117801Y-14311984D01*
X7117801Y-14207222D02*
X7127324Y-14188174D01*
X7127324Y-14188174D02*
X7146372Y-14178650D01*
X7146372Y-14178650D02*
X7174943Y-14178650D01*
X7174943Y-14178650D02*
X7193991Y-14188174D01*
X7193991Y-14188174D02*
X7203515Y-14207222D01*
X7203515Y-14207222D02*
X7203515Y-14311984D01*
X7593991Y-14102460D02*
X7422563Y-14359603D01*
X7851134Y-14111984D02*
X7870182Y-14111984D01*
X7870182Y-14111984D02*
X7889229Y-14121508D01*
X7889229Y-14121508D02*
X7898753Y-14131031D01*
X7898753Y-14131031D02*
X7908277Y-14150079D01*
X7908277Y-14150079D02*
X7917801Y-14188174D01*
X7917801Y-14188174D02*
X7917801Y-14235793D01*
X7917801Y-14235793D02*
X7908277Y-14273888D01*
X7908277Y-14273888D02*
X7898753Y-14292936D01*
X7898753Y-14292936D02*
X7889229Y-14302460D01*
X7889229Y-14302460D02*
X7870182Y-14311984D01*
X7870182Y-14311984D02*
X7851134Y-14311984D01*
X7851134Y-14311984D02*
X7832086Y-14302460D01*
X7832086Y-14302460D02*
X7822563Y-14292936D01*
X7822563Y-14292936D02*
X7813039Y-14273888D01*
X7813039Y-14273888D02*
X7803515Y-14235793D01*
X7803515Y-14235793D02*
X7803515Y-14188174D01*
X7803515Y-14188174D02*
X7813039Y-14150079D01*
X7813039Y-14150079D02*
X7822563Y-14131031D01*
X7822563Y-14131031D02*
X7832086Y-14121508D01*
X7832086Y-14121508D02*
X7851134Y-14111984D01*
X8003515Y-14292936D02*
X8013039Y-14302460D01*
X8013039Y-14302460D02*
X8003515Y-14311984D01*
X8003515Y-14311984D02*
X7993991Y-14302460D01*
X7993991Y-14302460D02*
X8003515Y-14292936D01*
X8003515Y-14292936D02*
X8003515Y-14311984D01*
X8136848Y-14111984D02*
X8155896Y-14111984D01*
X8155896Y-14111984D02*
X8174944Y-14121508D01*
X8174944Y-14121508D02*
X8184467Y-14131031D01*
X8184467Y-14131031D02*
X8193991Y-14150079D01*
X8193991Y-14150079D02*
X8203515Y-14188174D01*
X8203515Y-14188174D02*
X8203515Y-14235793D01*
X8203515Y-14235793D02*
X8193991Y-14273888D01*
X8193991Y-14273888D02*
X8184467Y-14292936D01*
X8184467Y-14292936D02*
X8174944Y-14302460D01*
X8174944Y-14302460D02*
X8155896Y-14311984D01*
X8155896Y-14311984D02*
X8136848Y-14311984D01*
X8136848Y-14311984D02*
X8117801Y-14302460D01*
X8117801Y-14302460D02*
X8108277Y-14292936D01*
X8108277Y-14292936D02*
X8098753Y-14273888D01*
X8098753Y-14273888D02*
X8089229Y-14235793D01*
X8089229Y-14235793D02*
X8089229Y-14188174D01*
X8089229Y-14188174D02*
X8098753Y-14150079D01*
X8098753Y-14150079D02*
X8108277Y-14131031D01*
X8108277Y-14131031D02*
X8117801Y-14121508D01*
X8117801Y-14121508D02*
X8136848Y-14111984D01*
X8279706Y-14131031D02*
X8289229Y-14121508D01*
X8289229Y-14121508D02*
X8308277Y-14111984D01*
X8308277Y-14111984D02*
X8355896Y-14111984D01*
X8355896Y-14111984D02*
X8374944Y-14121508D01*
X8374944Y-14121508D02*
X8384467Y-14131031D01*
X8384467Y-14131031D02*
X8393991Y-14150079D01*
X8393991Y-14150079D02*
X8393991Y-14169127D01*
X8393991Y-14169127D02*
X8384467Y-14197698D01*
X8384467Y-14197698D02*
X8270182Y-14311984D01*
X8270182Y-14311984D02*
X8393991Y-14311984D01*
X8460658Y-14111984D02*
X8584468Y-14111984D01*
X8584468Y-14111984D02*
X8517801Y-14188174D01*
X8517801Y-14188174D02*
X8546372Y-14188174D01*
X8546372Y-14188174D02*
X8565420Y-14197698D01*
X8565420Y-14197698D02*
X8574944Y-14207222D01*
X8574944Y-14207222D02*
X8584468Y-14226269D01*
X8584468Y-14226269D02*
X8584468Y-14273888D01*
X8584468Y-14273888D02*
X8574944Y-14292936D01*
X8574944Y-14292936D02*
X8565420Y-14302460D01*
X8565420Y-14302460D02*
X8546372Y-14311984D01*
X8546372Y-14311984D02*
X8489229Y-14311984D01*
X8489229Y-14311984D02*
X8470182Y-14302460D01*
X8470182Y-14302460D02*
X8460658Y-14292936D01*
X8755896Y-14111984D02*
X8717801Y-14111984D01*
X8717801Y-14111984D02*
X8698753Y-14121508D01*
X8698753Y-14121508D02*
X8689229Y-14131031D01*
X8689229Y-14131031D02*
X8670182Y-14159603D01*
X8670182Y-14159603D02*
X8660658Y-14197698D01*
X8660658Y-14197698D02*
X8660658Y-14273888D01*
X8660658Y-14273888D02*
X8670182Y-14292936D01*
X8670182Y-14292936D02*
X8679706Y-14302460D01*
X8679706Y-14302460D02*
X8698753Y-14311984D01*
X8698753Y-14311984D02*
X8736849Y-14311984D01*
X8736849Y-14311984D02*
X8755896Y-14302460D01*
X8755896Y-14302460D02*
X8765420Y-14292936D01*
X8765420Y-14292936D02*
X8774944Y-14273888D01*
X8774944Y-14273888D02*
X8774944Y-14226269D01*
X8774944Y-14226269D02*
X8765420Y-14207222D01*
X8765420Y-14207222D02*
X8755896Y-14197698D01*
X8755896Y-14197698D02*
X8736849Y-14188174D01*
X8736849Y-14188174D02*
X8698753Y-14188174D01*
X8698753Y-14188174D02*
X8679706Y-14197698D01*
X8679706Y-14197698D02*
X8670182Y-14207222D01*
X8670182Y-14207222D02*
X8660658Y-14226269D01*
X8851134Y-14111984D02*
X8851134Y-14150079D01*
X8927325Y-14111984D02*
X8927325Y-14150079D01*
X9222563Y-14388174D02*
X9213039Y-14378650D01*
X9213039Y-14378650D02*
X9193991Y-14350079D01*
X9193991Y-14350079D02*
X9184468Y-14331031D01*
X9184468Y-14331031D02*
X9174944Y-14302460D01*
X9174944Y-14302460D02*
X9165420Y-14254841D01*
X9165420Y-14254841D02*
X9165420Y-14216746D01*
X9165420Y-14216746D02*
X9174944Y-14169127D01*
X9174944Y-14169127D02*
X9184468Y-14140555D01*
X9184468Y-14140555D02*
X9193991Y-14121508D01*
X9193991Y-14121508D02*
X9213039Y-14092936D01*
X9213039Y-14092936D02*
X9222563Y-14083412D01*
X9336849Y-14111984D02*
X9355896Y-14111984D01*
X9355896Y-14111984D02*
X9374944Y-14121508D01*
X9374944Y-14121508D02*
X9384468Y-14131031D01*
X9384468Y-14131031D02*
X9393991Y-14150079D01*
X9393991Y-14150079D02*
X9403515Y-14188174D01*
X9403515Y-14188174D02*
X9403515Y-14235793D01*
X9403515Y-14235793D02*
X9393991Y-14273888D01*
X9393991Y-14273888D02*
X9384468Y-14292936D01*
X9384468Y-14292936D02*
X9374944Y-14302460D01*
X9374944Y-14302460D02*
X9355896Y-14311984D01*
X9355896Y-14311984D02*
X9336849Y-14311984D01*
X9336849Y-14311984D02*
X9317801Y-14302460D01*
X9317801Y-14302460D02*
X9308277Y-14292936D01*
X9308277Y-14292936D02*
X9298753Y-14273888D01*
X9298753Y-14273888D02*
X9289230Y-14235793D01*
X9289230Y-14235793D02*
X9289230Y-14188174D01*
X9289230Y-14188174D02*
X9298753Y-14150079D01*
X9298753Y-14150079D02*
X9308277Y-14131031D01*
X9308277Y-14131031D02*
X9317801Y-14121508D01*
X9317801Y-14121508D02*
X9336849Y-14111984D01*
X9641611Y-14311984D02*
X9641611Y-14111984D01*
X9727325Y-14311984D02*
X9727325Y-14207222D01*
X9727325Y-14207222D02*
X9717801Y-14188174D01*
X9717801Y-14188174D02*
X9698753Y-14178650D01*
X9698753Y-14178650D02*
X9670182Y-14178650D01*
X9670182Y-14178650D02*
X9651134Y-14188174D01*
X9651134Y-14188174D02*
X9641611Y-14197698D01*
X9851134Y-14311984D02*
X9832087Y-14302460D01*
X9832087Y-14302460D02*
X9822563Y-14292936D01*
X9822563Y-14292936D02*
X9813039Y-14273888D01*
X9813039Y-14273888D02*
X9813039Y-14216746D01*
X9813039Y-14216746D02*
X9822563Y-14197698D01*
X9822563Y-14197698D02*
X9832087Y-14188174D01*
X9832087Y-14188174D02*
X9851134Y-14178650D01*
X9851134Y-14178650D02*
X9879706Y-14178650D01*
X9879706Y-14178650D02*
X9898753Y-14188174D01*
X9898753Y-14188174D02*
X9908277Y-14197698D01*
X9908277Y-14197698D02*
X9917801Y-14216746D01*
X9917801Y-14216746D02*
X9917801Y-14273888D01*
X9917801Y-14273888D02*
X9908277Y-14292936D01*
X9908277Y-14292936D02*
X9898753Y-14302460D01*
X9898753Y-14302460D02*
X9879706Y-14311984D01*
X9879706Y-14311984D02*
X9851134Y-14311984D01*
X10032087Y-14311984D02*
X10013039Y-14302460D01*
X10013039Y-14302460D02*
X10003515Y-14283412D01*
X10003515Y-14283412D02*
X10003515Y-14111984D01*
X10184468Y-14302460D02*
X10165420Y-14311984D01*
X10165420Y-14311984D02*
X10127325Y-14311984D01*
X10127325Y-14311984D02*
X10108277Y-14302460D01*
X10108277Y-14302460D02*
X10098753Y-14283412D01*
X10098753Y-14283412D02*
X10098753Y-14207222D01*
X10098753Y-14207222D02*
X10108277Y-14188174D01*
X10108277Y-14188174D02*
X10127325Y-14178650D01*
X10127325Y-14178650D02*
X10165420Y-14178650D01*
X10165420Y-14178650D02*
X10184468Y-14188174D01*
X10184468Y-14188174D02*
X10193992Y-14207222D01*
X10193992Y-14207222D02*
X10193992Y-14226269D01*
X10193992Y-14226269D02*
X10098753Y-14245317D01*
X10270182Y-14302460D02*
X10289230Y-14311984D01*
X10289230Y-14311984D02*
X10327325Y-14311984D01*
X10327325Y-14311984D02*
X10346373Y-14302460D01*
X10346373Y-14302460D02*
X10355896Y-14283412D01*
X10355896Y-14283412D02*
X10355896Y-14273888D01*
X10355896Y-14273888D02*
X10346373Y-14254841D01*
X10346373Y-14254841D02*
X10327325Y-14245317D01*
X10327325Y-14245317D02*
X10298753Y-14245317D01*
X10298753Y-14245317D02*
X10279706Y-14235793D01*
X10279706Y-14235793D02*
X10270182Y-14216746D01*
X10270182Y-14216746D02*
X10270182Y-14207222D01*
X10270182Y-14207222D02*
X10279706Y-14188174D01*
X10279706Y-14188174D02*
X10298753Y-14178650D01*
X10298753Y-14178650D02*
X10327325Y-14178650D01*
X10327325Y-14178650D02*
X10346373Y-14188174D01*
X10593992Y-14235793D02*
X10746373Y-14235793D01*
X10670182Y-14311984D02*
X10670182Y-14159603D01*
X11079706Y-14178650D02*
X11079706Y-14311984D01*
X11032087Y-14102460D02*
X10984468Y-14245317D01*
X10984468Y-14245317D02*
X11108277Y-14245317D01*
X11327325Y-14302460D02*
X11346373Y-14311984D01*
X11346373Y-14311984D02*
X11384468Y-14311984D01*
X11384468Y-14311984D02*
X11403515Y-14302460D01*
X11403515Y-14302460D02*
X11413039Y-14283412D01*
X11413039Y-14283412D02*
X11413039Y-14273888D01*
X11413039Y-14273888D02*
X11403515Y-14254841D01*
X11403515Y-14254841D02*
X11384468Y-14245317D01*
X11384468Y-14245317D02*
X11355896Y-14245317D01*
X11355896Y-14245317D02*
X11336849Y-14235793D01*
X11336849Y-14235793D02*
X11327325Y-14216746D01*
X11327325Y-14216746D02*
X11327325Y-14207222D01*
X11327325Y-14207222D02*
X11336849Y-14188174D01*
X11336849Y-14188174D02*
X11355896Y-14178650D01*
X11355896Y-14178650D02*
X11384468Y-14178650D01*
X11384468Y-14178650D02*
X11403515Y-14188174D01*
X11527325Y-14311984D02*
X11508277Y-14302460D01*
X11508277Y-14302460D02*
X11498754Y-14283412D01*
X11498754Y-14283412D02*
X11498754Y-14111984D01*
X11632087Y-14311984D02*
X11613039Y-14302460D01*
X11613039Y-14302460D02*
X11603515Y-14292936D01*
X11603515Y-14292936D02*
X11593992Y-14273888D01*
X11593992Y-14273888D02*
X11593992Y-14216746D01*
X11593992Y-14216746D02*
X11603515Y-14197698D01*
X11603515Y-14197698D02*
X11613039Y-14188174D01*
X11613039Y-14188174D02*
X11632087Y-14178650D01*
X11632087Y-14178650D02*
X11660658Y-14178650D01*
X11660658Y-14178650D02*
X11679706Y-14188174D01*
X11679706Y-14188174D02*
X11689230Y-14197698D01*
X11689230Y-14197698D02*
X11698754Y-14216746D01*
X11698754Y-14216746D02*
X11698754Y-14273888D01*
X11698754Y-14273888D02*
X11689230Y-14292936D01*
X11689230Y-14292936D02*
X11679706Y-14302460D01*
X11679706Y-14302460D02*
X11660658Y-14311984D01*
X11660658Y-14311984D02*
X11632087Y-14311984D01*
X11755896Y-14178650D02*
X11832087Y-14178650D01*
X11784468Y-14111984D02*
X11784468Y-14283412D01*
X11784468Y-14283412D02*
X11793992Y-14302460D01*
X11793992Y-14302460D02*
X11813039Y-14311984D01*
X11813039Y-14311984D02*
X11832087Y-14311984D01*
X11889230Y-14302460D02*
X11908277Y-14311984D01*
X11908277Y-14311984D02*
X11946373Y-14311984D01*
X11946373Y-14311984D02*
X11965420Y-14302460D01*
X11965420Y-14302460D02*
X11974944Y-14283412D01*
X11974944Y-14283412D02*
X11974944Y-14273888D01*
X11974944Y-14273888D02*
X11965420Y-14254841D01*
X11965420Y-14254841D02*
X11946373Y-14245317D01*
X11946373Y-14245317D02*
X11917801Y-14245317D01*
X11917801Y-14245317D02*
X11898754Y-14235793D01*
X11898754Y-14235793D02*
X11889230Y-14216746D01*
X11889230Y-14216746D02*
X11889230Y-14207222D01*
X11889230Y-14207222D02*
X11898754Y-14188174D01*
X11898754Y-14188174D02*
X11917801Y-14178650D01*
X11917801Y-14178650D02*
X11946373Y-14178650D01*
X11946373Y-14178650D02*
X11965420Y-14188174D01*
X12041611Y-14388174D02*
X12051135Y-14378650D01*
X12051135Y-14378650D02*
X12070182Y-14350079D01*
X12070182Y-14350079D02*
X12079706Y-14331031D01*
X12079706Y-14331031D02*
X12089230Y-14302460D01*
X12089230Y-14302460D02*
X12098754Y-14254841D01*
X12098754Y-14254841D02*
X12098754Y-14216746D01*
X12098754Y-14216746D02*
X12089230Y-14169127D01*
X12089230Y-14169127D02*
X12079706Y-14140555D01*
X12079706Y-14140555D02*
X12070182Y-14121508D01*
X12070182Y-14121508D02*
X12051135Y-14092936D01*
X12051135Y-14092936D02*
X12041611Y-14083412D01*
D12*
X5632856Y-14519856D02*
X5632856Y-14449144D01*
X5562144Y-14449144D01*
X5562144Y-14519856D01*
X5632856Y-14519856D01*
D11*
X6013039Y-14575984D02*
X5898753Y-14575984D01*
X5955896Y-14575984D02*
X5955896Y-14375984D01*
X5955896Y-14375984D02*
X5936848Y-14404555D01*
X5936848Y-14404555D02*
X5917801Y-14423603D01*
X5917801Y-14423603D02*
X5898753Y-14433127D01*
X6098753Y-14556936D02*
X6108277Y-14566460D01*
X6108277Y-14566460D02*
X6098753Y-14575984D01*
X6098753Y-14575984D02*
X6089229Y-14566460D01*
X6089229Y-14566460D02*
X6098753Y-14556936D01*
X6098753Y-14556936D02*
X6098753Y-14575984D01*
X6232086Y-14375984D02*
X6251134Y-14375984D01*
X6251134Y-14375984D02*
X6270182Y-14385508D01*
X6270182Y-14385508D02*
X6279705Y-14395031D01*
X6279705Y-14395031D02*
X6289229Y-14414079D01*
X6289229Y-14414079D02*
X6298753Y-14452174D01*
X6298753Y-14452174D02*
X6298753Y-14499793D01*
X6298753Y-14499793D02*
X6289229Y-14537888D01*
X6289229Y-14537888D02*
X6279705Y-14556936D01*
X6279705Y-14556936D02*
X6270182Y-14566460D01*
X6270182Y-14566460D02*
X6251134Y-14575984D01*
X6251134Y-14575984D02*
X6232086Y-14575984D01*
X6232086Y-14575984D02*
X6213039Y-14566460D01*
X6213039Y-14566460D02*
X6203515Y-14556936D01*
X6203515Y-14556936D02*
X6193991Y-14537888D01*
X6193991Y-14537888D02*
X6184467Y-14499793D01*
X6184467Y-14499793D02*
X6184467Y-14452174D01*
X6184467Y-14452174D02*
X6193991Y-14414079D01*
X6193991Y-14414079D02*
X6203515Y-14395031D01*
X6203515Y-14395031D02*
X6213039Y-14385508D01*
X6213039Y-14385508D02*
X6232086Y-14375984D01*
X6422562Y-14375984D02*
X6441610Y-14375984D01*
X6441610Y-14375984D02*
X6460658Y-14385508D01*
X6460658Y-14385508D02*
X6470182Y-14395031D01*
X6470182Y-14395031D02*
X6479705Y-14414079D01*
X6479705Y-14414079D02*
X6489229Y-14452174D01*
X6489229Y-14452174D02*
X6489229Y-14499793D01*
X6489229Y-14499793D02*
X6479705Y-14537888D01*
X6479705Y-14537888D02*
X6470182Y-14556936D01*
X6470182Y-14556936D02*
X6460658Y-14566460D01*
X6460658Y-14566460D02*
X6441610Y-14575984D01*
X6441610Y-14575984D02*
X6422562Y-14575984D01*
X6422562Y-14575984D02*
X6403515Y-14566460D01*
X6403515Y-14566460D02*
X6393991Y-14556936D01*
X6393991Y-14556936D02*
X6384467Y-14537888D01*
X6384467Y-14537888D02*
X6374943Y-14499793D01*
X6374943Y-14499793D02*
X6374943Y-14452174D01*
X6374943Y-14452174D02*
X6384467Y-14414079D01*
X6384467Y-14414079D02*
X6393991Y-14395031D01*
X6393991Y-14395031D02*
X6403515Y-14385508D01*
X6403515Y-14385508D02*
X6422562Y-14375984D01*
X6613039Y-14375984D02*
X6632086Y-14375984D01*
X6632086Y-14375984D02*
X6651134Y-14385508D01*
X6651134Y-14385508D02*
X6660658Y-14395031D01*
X6660658Y-14395031D02*
X6670182Y-14414079D01*
X6670182Y-14414079D02*
X6679705Y-14452174D01*
X6679705Y-14452174D02*
X6679705Y-14499793D01*
X6679705Y-14499793D02*
X6670182Y-14537888D01*
X6670182Y-14537888D02*
X6660658Y-14556936D01*
X6660658Y-14556936D02*
X6651134Y-14566460D01*
X6651134Y-14566460D02*
X6632086Y-14575984D01*
X6632086Y-14575984D02*
X6613039Y-14575984D01*
X6613039Y-14575984D02*
X6593991Y-14566460D01*
X6593991Y-14566460D02*
X6584467Y-14556936D01*
X6584467Y-14556936D02*
X6574943Y-14537888D01*
X6574943Y-14537888D02*
X6565420Y-14499793D01*
X6565420Y-14499793D02*
X6565420Y-14452174D01*
X6565420Y-14452174D02*
X6574943Y-14414079D01*
X6574943Y-14414079D02*
X6584467Y-14395031D01*
X6584467Y-14395031D02*
X6593991Y-14385508D01*
X6593991Y-14385508D02*
X6613039Y-14375984D01*
X6765420Y-14575984D02*
X6765420Y-14442650D01*
X6765420Y-14461698D02*
X6774943Y-14452174D01*
X6774943Y-14452174D02*
X6793991Y-14442650D01*
X6793991Y-14442650D02*
X6822563Y-14442650D01*
X6822563Y-14442650D02*
X6841610Y-14452174D01*
X6841610Y-14452174D02*
X6851134Y-14471222D01*
X6851134Y-14471222D02*
X6851134Y-14575984D01*
X6851134Y-14471222D02*
X6860658Y-14452174D01*
X6860658Y-14452174D02*
X6879705Y-14442650D01*
X6879705Y-14442650D02*
X6908277Y-14442650D01*
X6908277Y-14442650D02*
X6927324Y-14452174D01*
X6927324Y-14452174D02*
X6936848Y-14471222D01*
X6936848Y-14471222D02*
X6936848Y-14575984D01*
X7032086Y-14575984D02*
X7032086Y-14442650D01*
X7032086Y-14461698D02*
X7041610Y-14452174D01*
X7041610Y-14452174D02*
X7060658Y-14442650D01*
X7060658Y-14442650D02*
X7089229Y-14442650D01*
X7089229Y-14442650D02*
X7108277Y-14452174D01*
X7108277Y-14452174D02*
X7117801Y-14471222D01*
X7117801Y-14471222D02*
X7117801Y-14575984D01*
X7117801Y-14471222D02*
X7127324Y-14452174D01*
X7127324Y-14452174D02*
X7146372Y-14442650D01*
X7146372Y-14442650D02*
X7174943Y-14442650D01*
X7174943Y-14442650D02*
X7193991Y-14452174D01*
X7193991Y-14452174D02*
X7203515Y-14471222D01*
X7203515Y-14471222D02*
X7203515Y-14575984D01*
X7593991Y-14366460D02*
X7422563Y-14623603D01*
X7851134Y-14375984D02*
X7870182Y-14375984D01*
X7870182Y-14375984D02*
X7889229Y-14385508D01*
X7889229Y-14385508D02*
X7898753Y-14395031D01*
X7898753Y-14395031D02*
X7908277Y-14414079D01*
X7908277Y-14414079D02*
X7917801Y-14452174D01*
X7917801Y-14452174D02*
X7917801Y-14499793D01*
X7917801Y-14499793D02*
X7908277Y-14537888D01*
X7908277Y-14537888D02*
X7898753Y-14556936D01*
X7898753Y-14556936D02*
X7889229Y-14566460D01*
X7889229Y-14566460D02*
X7870182Y-14575984D01*
X7870182Y-14575984D02*
X7851134Y-14575984D01*
X7851134Y-14575984D02*
X7832086Y-14566460D01*
X7832086Y-14566460D02*
X7822563Y-14556936D01*
X7822563Y-14556936D02*
X7813039Y-14537888D01*
X7813039Y-14537888D02*
X7803515Y-14499793D01*
X7803515Y-14499793D02*
X7803515Y-14452174D01*
X7803515Y-14452174D02*
X7813039Y-14414079D01*
X7813039Y-14414079D02*
X7822563Y-14395031D01*
X7822563Y-14395031D02*
X7832086Y-14385508D01*
X7832086Y-14385508D02*
X7851134Y-14375984D01*
X8003515Y-14556936D02*
X8013039Y-14566460D01*
X8013039Y-14566460D02*
X8003515Y-14575984D01*
X8003515Y-14575984D02*
X7993991Y-14566460D01*
X7993991Y-14566460D02*
X8003515Y-14556936D01*
X8003515Y-14556936D02*
X8003515Y-14575984D01*
X8136848Y-14375984D02*
X8155896Y-14375984D01*
X8155896Y-14375984D02*
X8174944Y-14385508D01*
X8174944Y-14385508D02*
X8184467Y-14395031D01*
X8184467Y-14395031D02*
X8193991Y-14414079D01*
X8193991Y-14414079D02*
X8203515Y-14452174D01*
X8203515Y-14452174D02*
X8203515Y-14499793D01*
X8203515Y-14499793D02*
X8193991Y-14537888D01*
X8193991Y-14537888D02*
X8184467Y-14556936D01*
X8184467Y-14556936D02*
X8174944Y-14566460D01*
X8174944Y-14566460D02*
X8155896Y-14575984D01*
X8155896Y-14575984D02*
X8136848Y-14575984D01*
X8136848Y-14575984D02*
X8117801Y-14566460D01*
X8117801Y-14566460D02*
X8108277Y-14556936D01*
X8108277Y-14556936D02*
X8098753Y-14537888D01*
X8098753Y-14537888D02*
X8089229Y-14499793D01*
X8089229Y-14499793D02*
X8089229Y-14452174D01*
X8089229Y-14452174D02*
X8098753Y-14414079D01*
X8098753Y-14414079D02*
X8108277Y-14395031D01*
X8108277Y-14395031D02*
X8117801Y-14385508D01*
X8117801Y-14385508D02*
X8136848Y-14375984D01*
X8270182Y-14375984D02*
X8393991Y-14375984D01*
X8393991Y-14375984D02*
X8327325Y-14452174D01*
X8327325Y-14452174D02*
X8355896Y-14452174D01*
X8355896Y-14452174D02*
X8374944Y-14461698D01*
X8374944Y-14461698D02*
X8384467Y-14471222D01*
X8384467Y-14471222D02*
X8393991Y-14490269D01*
X8393991Y-14490269D02*
X8393991Y-14537888D01*
X8393991Y-14537888D02*
X8384467Y-14556936D01*
X8384467Y-14556936D02*
X8374944Y-14566460D01*
X8374944Y-14566460D02*
X8355896Y-14575984D01*
X8355896Y-14575984D02*
X8298753Y-14575984D01*
X8298753Y-14575984D02*
X8279706Y-14566460D01*
X8279706Y-14566460D02*
X8270182Y-14556936D01*
X8489229Y-14575984D02*
X8527325Y-14575984D01*
X8527325Y-14575984D02*
X8546372Y-14566460D01*
X8546372Y-14566460D02*
X8555896Y-14556936D01*
X8555896Y-14556936D02*
X8574944Y-14528365D01*
X8574944Y-14528365D02*
X8584468Y-14490269D01*
X8584468Y-14490269D02*
X8584468Y-14414079D01*
X8584468Y-14414079D02*
X8574944Y-14395031D01*
X8574944Y-14395031D02*
X8565420Y-14385508D01*
X8565420Y-14385508D02*
X8546372Y-14375984D01*
X8546372Y-14375984D02*
X8508277Y-14375984D01*
X8508277Y-14375984D02*
X8489229Y-14385508D01*
X8489229Y-14385508D02*
X8479706Y-14395031D01*
X8479706Y-14395031D02*
X8470182Y-14414079D01*
X8470182Y-14414079D02*
X8470182Y-14461698D01*
X8470182Y-14461698D02*
X8479706Y-14480746D01*
X8479706Y-14480746D02*
X8489229Y-14490269D01*
X8489229Y-14490269D02*
X8508277Y-14499793D01*
X8508277Y-14499793D02*
X8546372Y-14499793D01*
X8546372Y-14499793D02*
X8565420Y-14490269D01*
X8565420Y-14490269D02*
X8574944Y-14480746D01*
X8574944Y-14480746D02*
X8584468Y-14461698D01*
X8755896Y-14442650D02*
X8755896Y-14575984D01*
X8708277Y-14366460D02*
X8660658Y-14509317D01*
X8660658Y-14509317D02*
X8784468Y-14509317D01*
X8851134Y-14375984D02*
X8851134Y-14414079D01*
X8927325Y-14375984D02*
X8927325Y-14414079D01*
X9222563Y-14652174D02*
X9213039Y-14642650D01*
X9213039Y-14642650D02*
X9193991Y-14614079D01*
X9193991Y-14614079D02*
X9184468Y-14595031D01*
X9184468Y-14595031D02*
X9174944Y-14566460D01*
X9174944Y-14566460D02*
X9165420Y-14518841D01*
X9165420Y-14518841D02*
X9165420Y-14480746D01*
X9165420Y-14480746D02*
X9174944Y-14433127D01*
X9174944Y-14433127D02*
X9184468Y-14404555D01*
X9184468Y-14404555D02*
X9193991Y-14385508D01*
X9193991Y-14385508D02*
X9213039Y-14356936D01*
X9213039Y-14356936D02*
X9222563Y-14347412D01*
X9384468Y-14442650D02*
X9384468Y-14575984D01*
X9336849Y-14366460D02*
X9289230Y-14509317D01*
X9289230Y-14509317D02*
X9413039Y-14509317D01*
X9641611Y-14575984D02*
X9641611Y-14375984D01*
X9727325Y-14575984D02*
X9727325Y-14471222D01*
X9727325Y-14471222D02*
X9717801Y-14452174D01*
X9717801Y-14452174D02*
X9698753Y-14442650D01*
X9698753Y-14442650D02*
X9670182Y-14442650D01*
X9670182Y-14442650D02*
X9651134Y-14452174D01*
X9651134Y-14452174D02*
X9641611Y-14461698D01*
X9851134Y-14575984D02*
X9832087Y-14566460D01*
X9832087Y-14566460D02*
X9822563Y-14556936D01*
X9822563Y-14556936D02*
X9813039Y-14537888D01*
X9813039Y-14537888D02*
X9813039Y-14480746D01*
X9813039Y-14480746D02*
X9822563Y-14461698D01*
X9822563Y-14461698D02*
X9832087Y-14452174D01*
X9832087Y-14452174D02*
X9851134Y-14442650D01*
X9851134Y-14442650D02*
X9879706Y-14442650D01*
X9879706Y-14442650D02*
X9898753Y-14452174D01*
X9898753Y-14452174D02*
X9908277Y-14461698D01*
X9908277Y-14461698D02*
X9917801Y-14480746D01*
X9917801Y-14480746D02*
X9917801Y-14537888D01*
X9917801Y-14537888D02*
X9908277Y-14556936D01*
X9908277Y-14556936D02*
X9898753Y-14566460D01*
X9898753Y-14566460D02*
X9879706Y-14575984D01*
X9879706Y-14575984D02*
X9851134Y-14575984D01*
X10032087Y-14575984D02*
X10013039Y-14566460D01*
X10013039Y-14566460D02*
X10003515Y-14547412D01*
X10003515Y-14547412D02*
X10003515Y-14375984D01*
X10184468Y-14566460D02*
X10165420Y-14575984D01*
X10165420Y-14575984D02*
X10127325Y-14575984D01*
X10127325Y-14575984D02*
X10108277Y-14566460D01*
X10108277Y-14566460D02*
X10098753Y-14547412D01*
X10098753Y-14547412D02*
X10098753Y-14471222D01*
X10098753Y-14471222D02*
X10108277Y-14452174D01*
X10108277Y-14452174D02*
X10127325Y-14442650D01*
X10127325Y-14442650D02*
X10165420Y-14442650D01*
X10165420Y-14442650D02*
X10184468Y-14452174D01*
X10184468Y-14452174D02*
X10193992Y-14471222D01*
X10193992Y-14471222D02*
X10193992Y-14490269D01*
X10193992Y-14490269D02*
X10098753Y-14509317D01*
X10270182Y-14566460D02*
X10289230Y-14575984D01*
X10289230Y-14575984D02*
X10327325Y-14575984D01*
X10327325Y-14575984D02*
X10346373Y-14566460D01*
X10346373Y-14566460D02*
X10355896Y-14547412D01*
X10355896Y-14547412D02*
X10355896Y-14537888D01*
X10355896Y-14537888D02*
X10346373Y-14518841D01*
X10346373Y-14518841D02*
X10327325Y-14509317D01*
X10327325Y-14509317D02*
X10298753Y-14509317D01*
X10298753Y-14509317D02*
X10279706Y-14499793D01*
X10279706Y-14499793D02*
X10270182Y-14480746D01*
X10270182Y-14480746D02*
X10270182Y-14471222D01*
X10270182Y-14471222D02*
X10279706Y-14452174D01*
X10279706Y-14452174D02*
X10298753Y-14442650D01*
X10298753Y-14442650D02*
X10327325Y-14442650D01*
X10327325Y-14442650D02*
X10346373Y-14452174D01*
X10422563Y-14652174D02*
X10432087Y-14642650D01*
X10432087Y-14642650D02*
X10451134Y-14614079D01*
X10451134Y-14614079D02*
X10460658Y-14595031D01*
X10460658Y-14595031D02*
X10470182Y-14566460D01*
X10470182Y-14566460D02*
X10479706Y-14518841D01*
X10479706Y-14518841D02*
X10479706Y-14480746D01*
X10479706Y-14480746D02*
X10470182Y-14433127D01*
X10470182Y-14433127D02*
X10460658Y-14404555D01*
X10460658Y-14404555D02*
X10451134Y-14385508D01*
X10451134Y-14385508D02*
X10432087Y-14356936D01*
X10432087Y-14356936D02*
X10422563Y-14347412D01*
D13*
X5572500Y-14823500D02*
X5647500Y-14748500D01*
X5572500Y-14673500D01*
X5497500Y-14748500D01*
X5572500Y-14823500D01*
D11*
X6013039Y-14839984D02*
X5898753Y-14839984D01*
X5955896Y-14839984D02*
X5955896Y-14639984D01*
X5955896Y-14639984D02*
X5936848Y-14668555D01*
X5936848Y-14668555D02*
X5917801Y-14687603D01*
X5917801Y-14687603D02*
X5898753Y-14697127D01*
X6098753Y-14820936D02*
X6108277Y-14830460D01*
X6108277Y-14830460D02*
X6098753Y-14839984D01*
X6098753Y-14839984D02*
X6089229Y-14830460D01*
X6089229Y-14830460D02*
X6098753Y-14820936D01*
X6098753Y-14820936D02*
X6098753Y-14839984D01*
X6289229Y-14639984D02*
X6193991Y-14639984D01*
X6193991Y-14639984D02*
X6184467Y-14735222D01*
X6184467Y-14735222D02*
X6193991Y-14725698D01*
X6193991Y-14725698D02*
X6213039Y-14716174D01*
X6213039Y-14716174D02*
X6260658Y-14716174D01*
X6260658Y-14716174D02*
X6279705Y-14725698D01*
X6279705Y-14725698D02*
X6289229Y-14735222D01*
X6289229Y-14735222D02*
X6298753Y-14754269D01*
X6298753Y-14754269D02*
X6298753Y-14801888D01*
X6298753Y-14801888D02*
X6289229Y-14820936D01*
X6289229Y-14820936D02*
X6279705Y-14830460D01*
X6279705Y-14830460D02*
X6260658Y-14839984D01*
X6260658Y-14839984D02*
X6213039Y-14839984D01*
X6213039Y-14839984D02*
X6193991Y-14830460D01*
X6193991Y-14830460D02*
X6184467Y-14820936D01*
X6422562Y-14639984D02*
X6441610Y-14639984D01*
X6441610Y-14639984D02*
X6460658Y-14649508D01*
X6460658Y-14649508D02*
X6470182Y-14659031D01*
X6470182Y-14659031D02*
X6479705Y-14678079D01*
X6479705Y-14678079D02*
X6489229Y-14716174D01*
X6489229Y-14716174D02*
X6489229Y-14763793D01*
X6489229Y-14763793D02*
X6479705Y-14801888D01*
X6479705Y-14801888D02*
X6470182Y-14820936D01*
X6470182Y-14820936D02*
X6460658Y-14830460D01*
X6460658Y-14830460D02*
X6441610Y-14839984D01*
X6441610Y-14839984D02*
X6422562Y-14839984D01*
X6422562Y-14839984D02*
X6403515Y-14830460D01*
X6403515Y-14830460D02*
X6393991Y-14820936D01*
X6393991Y-14820936D02*
X6384467Y-14801888D01*
X6384467Y-14801888D02*
X6374943Y-14763793D01*
X6374943Y-14763793D02*
X6374943Y-14716174D01*
X6374943Y-14716174D02*
X6384467Y-14678079D01*
X6384467Y-14678079D02*
X6393991Y-14659031D01*
X6393991Y-14659031D02*
X6403515Y-14649508D01*
X6403515Y-14649508D02*
X6422562Y-14639984D01*
X6613039Y-14639984D02*
X6632086Y-14639984D01*
X6632086Y-14639984D02*
X6651134Y-14649508D01*
X6651134Y-14649508D02*
X6660658Y-14659031D01*
X6660658Y-14659031D02*
X6670182Y-14678079D01*
X6670182Y-14678079D02*
X6679705Y-14716174D01*
X6679705Y-14716174D02*
X6679705Y-14763793D01*
X6679705Y-14763793D02*
X6670182Y-14801888D01*
X6670182Y-14801888D02*
X6660658Y-14820936D01*
X6660658Y-14820936D02*
X6651134Y-14830460D01*
X6651134Y-14830460D02*
X6632086Y-14839984D01*
X6632086Y-14839984D02*
X6613039Y-14839984D01*
X6613039Y-14839984D02*
X6593991Y-14830460D01*
X6593991Y-14830460D02*
X6584467Y-14820936D01*
X6584467Y-14820936D02*
X6574943Y-14801888D01*
X6574943Y-14801888D02*
X6565420Y-14763793D01*
X6565420Y-14763793D02*
X6565420Y-14716174D01*
X6565420Y-14716174D02*
X6574943Y-14678079D01*
X6574943Y-14678079D02*
X6584467Y-14659031D01*
X6584467Y-14659031D02*
X6593991Y-14649508D01*
X6593991Y-14649508D02*
X6613039Y-14639984D01*
X6765420Y-14839984D02*
X6765420Y-14706650D01*
X6765420Y-14725698D02*
X6774943Y-14716174D01*
X6774943Y-14716174D02*
X6793991Y-14706650D01*
X6793991Y-14706650D02*
X6822563Y-14706650D01*
X6822563Y-14706650D02*
X6841610Y-14716174D01*
X6841610Y-14716174D02*
X6851134Y-14735222D01*
X6851134Y-14735222D02*
X6851134Y-14839984D01*
X6851134Y-14735222D02*
X6860658Y-14716174D01*
X6860658Y-14716174D02*
X6879705Y-14706650D01*
X6879705Y-14706650D02*
X6908277Y-14706650D01*
X6908277Y-14706650D02*
X6927324Y-14716174D01*
X6927324Y-14716174D02*
X6936848Y-14735222D01*
X6936848Y-14735222D02*
X6936848Y-14839984D01*
X7032086Y-14839984D02*
X7032086Y-14706650D01*
X7032086Y-14725698D02*
X7041610Y-14716174D01*
X7041610Y-14716174D02*
X7060658Y-14706650D01*
X7060658Y-14706650D02*
X7089229Y-14706650D01*
X7089229Y-14706650D02*
X7108277Y-14716174D01*
X7108277Y-14716174D02*
X7117801Y-14735222D01*
X7117801Y-14735222D02*
X7117801Y-14839984D01*
X7117801Y-14735222D02*
X7127324Y-14716174D01*
X7127324Y-14716174D02*
X7146372Y-14706650D01*
X7146372Y-14706650D02*
X7174943Y-14706650D01*
X7174943Y-14706650D02*
X7193991Y-14716174D01*
X7193991Y-14716174D02*
X7203515Y-14735222D01*
X7203515Y-14735222D02*
X7203515Y-14839984D01*
X7593991Y-14630460D02*
X7422563Y-14887603D01*
X7851134Y-14639984D02*
X7870182Y-14639984D01*
X7870182Y-14639984D02*
X7889229Y-14649508D01*
X7889229Y-14649508D02*
X7898753Y-14659031D01*
X7898753Y-14659031D02*
X7908277Y-14678079D01*
X7908277Y-14678079D02*
X7917801Y-14716174D01*
X7917801Y-14716174D02*
X7917801Y-14763793D01*
X7917801Y-14763793D02*
X7908277Y-14801888D01*
X7908277Y-14801888D02*
X7898753Y-14820936D01*
X7898753Y-14820936D02*
X7889229Y-14830460D01*
X7889229Y-14830460D02*
X7870182Y-14839984D01*
X7870182Y-14839984D02*
X7851134Y-14839984D01*
X7851134Y-14839984D02*
X7832086Y-14830460D01*
X7832086Y-14830460D02*
X7822563Y-14820936D01*
X7822563Y-14820936D02*
X7813039Y-14801888D01*
X7813039Y-14801888D02*
X7803515Y-14763793D01*
X7803515Y-14763793D02*
X7803515Y-14716174D01*
X7803515Y-14716174D02*
X7813039Y-14678079D01*
X7813039Y-14678079D02*
X7822563Y-14659031D01*
X7822563Y-14659031D02*
X7832086Y-14649508D01*
X7832086Y-14649508D02*
X7851134Y-14639984D01*
X8003515Y-14820936D02*
X8013039Y-14830460D01*
X8013039Y-14830460D02*
X8003515Y-14839984D01*
X8003515Y-14839984D02*
X7993991Y-14830460D01*
X7993991Y-14830460D02*
X8003515Y-14820936D01*
X8003515Y-14820936D02*
X8003515Y-14839984D01*
X8136848Y-14639984D02*
X8155896Y-14639984D01*
X8155896Y-14639984D02*
X8174944Y-14649508D01*
X8174944Y-14649508D02*
X8184467Y-14659031D01*
X8184467Y-14659031D02*
X8193991Y-14678079D01*
X8193991Y-14678079D02*
X8203515Y-14716174D01*
X8203515Y-14716174D02*
X8203515Y-14763793D01*
X8203515Y-14763793D02*
X8193991Y-14801888D01*
X8193991Y-14801888D02*
X8184467Y-14820936D01*
X8184467Y-14820936D02*
X8174944Y-14830460D01*
X8174944Y-14830460D02*
X8155896Y-14839984D01*
X8155896Y-14839984D02*
X8136848Y-14839984D01*
X8136848Y-14839984D02*
X8117801Y-14830460D01*
X8117801Y-14830460D02*
X8108277Y-14820936D01*
X8108277Y-14820936D02*
X8098753Y-14801888D01*
X8098753Y-14801888D02*
X8089229Y-14763793D01*
X8089229Y-14763793D02*
X8089229Y-14716174D01*
X8089229Y-14716174D02*
X8098753Y-14678079D01*
X8098753Y-14678079D02*
X8108277Y-14659031D01*
X8108277Y-14659031D02*
X8117801Y-14649508D01*
X8117801Y-14649508D02*
X8136848Y-14639984D01*
X8384467Y-14639984D02*
X8289229Y-14639984D01*
X8289229Y-14639984D02*
X8279706Y-14735222D01*
X8279706Y-14735222D02*
X8289229Y-14725698D01*
X8289229Y-14725698D02*
X8308277Y-14716174D01*
X8308277Y-14716174D02*
X8355896Y-14716174D01*
X8355896Y-14716174D02*
X8374944Y-14725698D01*
X8374944Y-14725698D02*
X8384467Y-14735222D01*
X8384467Y-14735222D02*
X8393991Y-14754269D01*
X8393991Y-14754269D02*
X8393991Y-14801888D01*
X8393991Y-14801888D02*
X8384467Y-14820936D01*
X8384467Y-14820936D02*
X8374944Y-14830460D01*
X8374944Y-14830460D02*
X8355896Y-14839984D01*
X8355896Y-14839984D02*
X8308277Y-14839984D01*
X8308277Y-14839984D02*
X8289229Y-14830460D01*
X8289229Y-14830460D02*
X8279706Y-14820936D01*
X8489229Y-14839984D02*
X8527325Y-14839984D01*
X8527325Y-14839984D02*
X8546372Y-14830460D01*
X8546372Y-14830460D02*
X8555896Y-14820936D01*
X8555896Y-14820936D02*
X8574944Y-14792365D01*
X8574944Y-14792365D02*
X8584468Y-14754269D01*
X8584468Y-14754269D02*
X8584468Y-14678079D01*
X8584468Y-14678079D02*
X8574944Y-14659031D01*
X8574944Y-14659031D02*
X8565420Y-14649508D01*
X8565420Y-14649508D02*
X8546372Y-14639984D01*
X8546372Y-14639984D02*
X8508277Y-14639984D01*
X8508277Y-14639984D02*
X8489229Y-14649508D01*
X8489229Y-14649508D02*
X8479706Y-14659031D01*
X8479706Y-14659031D02*
X8470182Y-14678079D01*
X8470182Y-14678079D02*
X8470182Y-14725698D01*
X8470182Y-14725698D02*
X8479706Y-14744746D01*
X8479706Y-14744746D02*
X8489229Y-14754269D01*
X8489229Y-14754269D02*
X8508277Y-14763793D01*
X8508277Y-14763793D02*
X8546372Y-14763793D01*
X8546372Y-14763793D02*
X8565420Y-14754269D01*
X8565420Y-14754269D02*
X8574944Y-14744746D01*
X8574944Y-14744746D02*
X8584468Y-14725698D01*
X8774944Y-14839984D02*
X8660658Y-14839984D01*
X8717801Y-14839984D02*
X8717801Y-14639984D01*
X8717801Y-14639984D02*
X8698753Y-14668555D01*
X8698753Y-14668555D02*
X8679706Y-14687603D01*
X8679706Y-14687603D02*
X8660658Y-14697127D01*
X8851134Y-14639984D02*
X8851134Y-14678079D01*
X8927325Y-14639984D02*
X8927325Y-14678079D01*
X9222563Y-14916174D02*
X9213039Y-14906650D01*
X9213039Y-14906650D02*
X9193991Y-14878079D01*
X9193991Y-14878079D02*
X9184468Y-14859031D01*
X9184468Y-14859031D02*
X9174944Y-14830460D01*
X9174944Y-14830460D02*
X9165420Y-14782841D01*
X9165420Y-14782841D02*
X9165420Y-14744746D01*
X9165420Y-14744746D02*
X9174944Y-14697127D01*
X9174944Y-14697127D02*
X9184468Y-14668555D01*
X9184468Y-14668555D02*
X9193991Y-14649508D01*
X9193991Y-14649508D02*
X9213039Y-14620936D01*
X9213039Y-14620936D02*
X9222563Y-14611412D01*
X9289230Y-14659031D02*
X9298753Y-14649508D01*
X9298753Y-14649508D02*
X9317801Y-14639984D01*
X9317801Y-14639984D02*
X9365420Y-14639984D01*
X9365420Y-14639984D02*
X9384468Y-14649508D01*
X9384468Y-14649508D02*
X9393991Y-14659031D01*
X9393991Y-14659031D02*
X9403515Y-14678079D01*
X9403515Y-14678079D02*
X9403515Y-14697127D01*
X9403515Y-14697127D02*
X9393991Y-14725698D01*
X9393991Y-14725698D02*
X9279706Y-14839984D01*
X9279706Y-14839984D02*
X9403515Y-14839984D01*
X9641611Y-14839984D02*
X9641611Y-14639984D01*
X9727325Y-14839984D02*
X9727325Y-14735222D01*
X9727325Y-14735222D02*
X9717801Y-14716174D01*
X9717801Y-14716174D02*
X9698753Y-14706650D01*
X9698753Y-14706650D02*
X9670182Y-14706650D01*
X9670182Y-14706650D02*
X9651134Y-14716174D01*
X9651134Y-14716174D02*
X9641611Y-14725698D01*
X9851134Y-14839984D02*
X9832087Y-14830460D01*
X9832087Y-14830460D02*
X9822563Y-14820936D01*
X9822563Y-14820936D02*
X9813039Y-14801888D01*
X9813039Y-14801888D02*
X9813039Y-14744746D01*
X9813039Y-14744746D02*
X9822563Y-14725698D01*
X9822563Y-14725698D02*
X9832087Y-14716174D01*
X9832087Y-14716174D02*
X9851134Y-14706650D01*
X9851134Y-14706650D02*
X9879706Y-14706650D01*
X9879706Y-14706650D02*
X9898753Y-14716174D01*
X9898753Y-14716174D02*
X9908277Y-14725698D01*
X9908277Y-14725698D02*
X9917801Y-14744746D01*
X9917801Y-14744746D02*
X9917801Y-14801888D01*
X9917801Y-14801888D02*
X9908277Y-14820936D01*
X9908277Y-14820936D02*
X9898753Y-14830460D01*
X9898753Y-14830460D02*
X9879706Y-14839984D01*
X9879706Y-14839984D02*
X9851134Y-14839984D01*
X10032087Y-14839984D02*
X10013039Y-14830460D01*
X10013039Y-14830460D02*
X10003515Y-14811412D01*
X10003515Y-14811412D02*
X10003515Y-14639984D01*
X10184468Y-14830460D02*
X10165420Y-14839984D01*
X10165420Y-14839984D02*
X10127325Y-14839984D01*
X10127325Y-14839984D02*
X10108277Y-14830460D01*
X10108277Y-14830460D02*
X10098753Y-14811412D01*
X10098753Y-14811412D02*
X10098753Y-14735222D01*
X10098753Y-14735222D02*
X10108277Y-14716174D01*
X10108277Y-14716174D02*
X10127325Y-14706650D01*
X10127325Y-14706650D02*
X10165420Y-14706650D01*
X10165420Y-14706650D02*
X10184468Y-14716174D01*
X10184468Y-14716174D02*
X10193992Y-14735222D01*
X10193992Y-14735222D02*
X10193992Y-14754269D01*
X10193992Y-14754269D02*
X10098753Y-14773317D01*
X10270182Y-14830460D02*
X10289230Y-14839984D01*
X10289230Y-14839984D02*
X10327325Y-14839984D01*
X10327325Y-14839984D02*
X10346373Y-14830460D01*
X10346373Y-14830460D02*
X10355896Y-14811412D01*
X10355896Y-14811412D02*
X10355896Y-14801888D01*
X10355896Y-14801888D02*
X10346373Y-14782841D01*
X10346373Y-14782841D02*
X10327325Y-14773317D01*
X10327325Y-14773317D02*
X10298753Y-14773317D01*
X10298753Y-14773317D02*
X10279706Y-14763793D01*
X10279706Y-14763793D02*
X10270182Y-14744746D01*
X10270182Y-14744746D02*
X10270182Y-14735222D01*
X10270182Y-14735222D02*
X10279706Y-14716174D01*
X10279706Y-14716174D02*
X10298753Y-14706650D01*
X10298753Y-14706650D02*
X10327325Y-14706650D01*
X10327325Y-14706650D02*
X10346373Y-14716174D01*
X10422563Y-14916174D02*
X10432087Y-14906650D01*
X10432087Y-14906650D02*
X10451134Y-14878079D01*
X10451134Y-14878079D02*
X10460658Y-14859031D01*
X10460658Y-14859031D02*
X10470182Y-14830460D01*
X10470182Y-14830460D02*
X10479706Y-14782841D01*
X10479706Y-14782841D02*
X10479706Y-14744746D01*
X10479706Y-14744746D02*
X10470182Y-14697127D01*
X10470182Y-14697127D02*
X10460658Y-14668555D01*
X10460658Y-14668555D02*
X10451134Y-14649508D01*
X10451134Y-14649508D02*
X10432087Y-14620936D01*
X10432087Y-14620936D02*
X10422563Y-14611412D01*
X5447500Y-14918500D02*
X5647500Y-15118500D01*
X5647500Y-14918500D02*
X5447500Y-15118500D01*
X5647500Y-15018500D02*
G75*
G02*
X5447500Y-15018500I-100000J0D01*
G01*
X5447500Y-15018500D02*
G75*
G02*
X5647500Y-15018500I100000J0D01*
G01*
X5889229Y-14909984D02*
X6013039Y-14909984D01*
X6013039Y-14909984D02*
X5946372Y-14986174D01*
X5946372Y-14986174D02*
X5974943Y-14986174D01*
X5974943Y-14986174D02*
X5993991Y-14995698D01*
X5993991Y-14995698D02*
X6003515Y-15005222D01*
X6003515Y-15005222D02*
X6013039Y-15024269D01*
X6013039Y-15024269D02*
X6013039Y-15071888D01*
X6013039Y-15071888D02*
X6003515Y-15090936D01*
X6003515Y-15090936D02*
X5993991Y-15100460D01*
X5993991Y-15100460D02*
X5974943Y-15109984D01*
X5974943Y-15109984D02*
X5917801Y-15109984D01*
X5917801Y-15109984D02*
X5898753Y-15100460D01*
X5898753Y-15100460D02*
X5889229Y-15090936D01*
X6098753Y-15090936D02*
X6108277Y-15100460D01*
X6108277Y-15100460D02*
X6098753Y-15109984D01*
X6098753Y-15109984D02*
X6089229Y-15100460D01*
X6089229Y-15100460D02*
X6098753Y-15090936D01*
X6098753Y-15090936D02*
X6098753Y-15109984D01*
X6184467Y-14929031D02*
X6193991Y-14919508D01*
X6193991Y-14919508D02*
X6213039Y-14909984D01*
X6213039Y-14909984D02*
X6260658Y-14909984D01*
X6260658Y-14909984D02*
X6279705Y-14919508D01*
X6279705Y-14919508D02*
X6289229Y-14929031D01*
X6289229Y-14929031D02*
X6298753Y-14948079D01*
X6298753Y-14948079D02*
X6298753Y-14967127D01*
X6298753Y-14967127D02*
X6289229Y-14995698D01*
X6289229Y-14995698D02*
X6174943Y-15109984D01*
X6174943Y-15109984D02*
X6298753Y-15109984D01*
X6422562Y-14909984D02*
X6441610Y-14909984D01*
X6441610Y-14909984D02*
X6460658Y-14919508D01*
X6460658Y-14919508D02*
X6470182Y-14929031D01*
X6470182Y-14929031D02*
X6479705Y-14948079D01*
X6479705Y-14948079D02*
X6489229Y-14986174D01*
X6489229Y-14986174D02*
X6489229Y-15033793D01*
X6489229Y-15033793D02*
X6479705Y-15071888D01*
X6479705Y-15071888D02*
X6470182Y-15090936D01*
X6470182Y-15090936D02*
X6460658Y-15100460D01*
X6460658Y-15100460D02*
X6441610Y-15109984D01*
X6441610Y-15109984D02*
X6422562Y-15109984D01*
X6422562Y-15109984D02*
X6403515Y-15100460D01*
X6403515Y-15100460D02*
X6393991Y-15090936D01*
X6393991Y-15090936D02*
X6384467Y-15071888D01*
X6384467Y-15071888D02*
X6374943Y-15033793D01*
X6374943Y-15033793D02*
X6374943Y-14986174D01*
X6374943Y-14986174D02*
X6384467Y-14948079D01*
X6384467Y-14948079D02*
X6393991Y-14929031D01*
X6393991Y-14929031D02*
X6403515Y-14919508D01*
X6403515Y-14919508D02*
X6422562Y-14909984D01*
X6613039Y-14909984D02*
X6632086Y-14909984D01*
X6632086Y-14909984D02*
X6651134Y-14919508D01*
X6651134Y-14919508D02*
X6660658Y-14929031D01*
X6660658Y-14929031D02*
X6670182Y-14948079D01*
X6670182Y-14948079D02*
X6679705Y-14986174D01*
X6679705Y-14986174D02*
X6679705Y-15033793D01*
X6679705Y-15033793D02*
X6670182Y-15071888D01*
X6670182Y-15071888D02*
X6660658Y-15090936D01*
X6660658Y-15090936D02*
X6651134Y-15100460D01*
X6651134Y-15100460D02*
X6632086Y-15109984D01*
X6632086Y-15109984D02*
X6613039Y-15109984D01*
X6613039Y-15109984D02*
X6593991Y-15100460D01*
X6593991Y-15100460D02*
X6584467Y-15090936D01*
X6584467Y-15090936D02*
X6574943Y-15071888D01*
X6574943Y-15071888D02*
X6565420Y-15033793D01*
X6565420Y-15033793D02*
X6565420Y-14986174D01*
X6565420Y-14986174D02*
X6574943Y-14948079D01*
X6574943Y-14948079D02*
X6584467Y-14929031D01*
X6584467Y-14929031D02*
X6593991Y-14919508D01*
X6593991Y-14919508D02*
X6613039Y-14909984D01*
X6765420Y-15109984D02*
X6765420Y-14976650D01*
X6765420Y-14995698D02*
X6774943Y-14986174D01*
X6774943Y-14986174D02*
X6793991Y-14976650D01*
X6793991Y-14976650D02*
X6822563Y-14976650D01*
X6822563Y-14976650D02*
X6841610Y-14986174D01*
X6841610Y-14986174D02*
X6851134Y-15005222D01*
X6851134Y-15005222D02*
X6851134Y-15109984D01*
X6851134Y-15005222D02*
X6860658Y-14986174D01*
X6860658Y-14986174D02*
X6879705Y-14976650D01*
X6879705Y-14976650D02*
X6908277Y-14976650D01*
X6908277Y-14976650D02*
X6927324Y-14986174D01*
X6927324Y-14986174D02*
X6936848Y-15005222D01*
X6936848Y-15005222D02*
X6936848Y-15109984D01*
X7032086Y-15109984D02*
X7032086Y-14976650D01*
X7032086Y-14995698D02*
X7041610Y-14986174D01*
X7041610Y-14986174D02*
X7060658Y-14976650D01*
X7060658Y-14976650D02*
X7089229Y-14976650D01*
X7089229Y-14976650D02*
X7108277Y-14986174D01*
X7108277Y-14986174D02*
X7117801Y-15005222D01*
X7117801Y-15005222D02*
X7117801Y-15109984D01*
X7117801Y-15005222D02*
X7127324Y-14986174D01*
X7127324Y-14986174D02*
X7146372Y-14976650D01*
X7146372Y-14976650D02*
X7174943Y-14976650D01*
X7174943Y-14976650D02*
X7193991Y-14986174D01*
X7193991Y-14986174D02*
X7203515Y-15005222D01*
X7203515Y-15005222D02*
X7203515Y-15109984D01*
X7593991Y-14900460D02*
X7422563Y-15157603D01*
X7851134Y-14909984D02*
X7870182Y-14909984D01*
X7870182Y-14909984D02*
X7889229Y-14919508D01*
X7889229Y-14919508D02*
X7898753Y-14929031D01*
X7898753Y-14929031D02*
X7908277Y-14948079D01*
X7908277Y-14948079D02*
X7917801Y-14986174D01*
X7917801Y-14986174D02*
X7917801Y-15033793D01*
X7917801Y-15033793D02*
X7908277Y-15071888D01*
X7908277Y-15071888D02*
X7898753Y-15090936D01*
X7898753Y-15090936D02*
X7889229Y-15100460D01*
X7889229Y-15100460D02*
X7870182Y-15109984D01*
X7870182Y-15109984D02*
X7851134Y-15109984D01*
X7851134Y-15109984D02*
X7832086Y-15100460D01*
X7832086Y-15100460D02*
X7822563Y-15090936D01*
X7822563Y-15090936D02*
X7813039Y-15071888D01*
X7813039Y-15071888D02*
X7803515Y-15033793D01*
X7803515Y-15033793D02*
X7803515Y-14986174D01*
X7803515Y-14986174D02*
X7813039Y-14948079D01*
X7813039Y-14948079D02*
X7822563Y-14929031D01*
X7822563Y-14929031D02*
X7832086Y-14919508D01*
X7832086Y-14919508D02*
X7851134Y-14909984D01*
X8003515Y-15090936D02*
X8013039Y-15100460D01*
X8013039Y-15100460D02*
X8003515Y-15109984D01*
X8003515Y-15109984D02*
X7993991Y-15100460D01*
X7993991Y-15100460D02*
X8003515Y-15090936D01*
X8003515Y-15090936D02*
X8003515Y-15109984D01*
X8203515Y-15109984D02*
X8089229Y-15109984D01*
X8146372Y-15109984D02*
X8146372Y-14909984D01*
X8146372Y-14909984D02*
X8127325Y-14938555D01*
X8127325Y-14938555D02*
X8108277Y-14957603D01*
X8108277Y-14957603D02*
X8089229Y-14967127D01*
X8279706Y-14929031D02*
X8289229Y-14919508D01*
X8289229Y-14919508D02*
X8308277Y-14909984D01*
X8308277Y-14909984D02*
X8355896Y-14909984D01*
X8355896Y-14909984D02*
X8374944Y-14919508D01*
X8374944Y-14919508D02*
X8384467Y-14929031D01*
X8384467Y-14929031D02*
X8393991Y-14948079D01*
X8393991Y-14948079D02*
X8393991Y-14967127D01*
X8393991Y-14967127D02*
X8384467Y-14995698D01*
X8384467Y-14995698D02*
X8270182Y-15109984D01*
X8270182Y-15109984D02*
X8393991Y-15109984D01*
X8565420Y-14909984D02*
X8527325Y-14909984D01*
X8527325Y-14909984D02*
X8508277Y-14919508D01*
X8508277Y-14919508D02*
X8498753Y-14929031D01*
X8498753Y-14929031D02*
X8479706Y-14957603D01*
X8479706Y-14957603D02*
X8470182Y-14995698D01*
X8470182Y-14995698D02*
X8470182Y-15071888D01*
X8470182Y-15071888D02*
X8479706Y-15090936D01*
X8479706Y-15090936D02*
X8489229Y-15100460D01*
X8489229Y-15100460D02*
X8508277Y-15109984D01*
X8508277Y-15109984D02*
X8546372Y-15109984D01*
X8546372Y-15109984D02*
X8565420Y-15100460D01*
X8565420Y-15100460D02*
X8574944Y-15090936D01*
X8574944Y-15090936D02*
X8584468Y-15071888D01*
X8584468Y-15071888D02*
X8584468Y-15024269D01*
X8584468Y-15024269D02*
X8574944Y-15005222D01*
X8574944Y-15005222D02*
X8565420Y-14995698D01*
X8565420Y-14995698D02*
X8546372Y-14986174D01*
X8546372Y-14986174D02*
X8508277Y-14986174D01*
X8508277Y-14986174D02*
X8489229Y-14995698D01*
X8489229Y-14995698D02*
X8479706Y-15005222D01*
X8479706Y-15005222D02*
X8470182Y-15024269D01*
X8708277Y-14909984D02*
X8727325Y-14909984D01*
X8727325Y-14909984D02*
X8746372Y-14919508D01*
X8746372Y-14919508D02*
X8755896Y-14929031D01*
X8755896Y-14929031D02*
X8765420Y-14948079D01*
X8765420Y-14948079D02*
X8774944Y-14986174D01*
X8774944Y-14986174D02*
X8774944Y-15033793D01*
X8774944Y-15033793D02*
X8765420Y-15071888D01*
X8765420Y-15071888D02*
X8755896Y-15090936D01*
X8755896Y-15090936D02*
X8746372Y-15100460D01*
X8746372Y-15100460D02*
X8727325Y-15109984D01*
X8727325Y-15109984D02*
X8708277Y-15109984D01*
X8708277Y-15109984D02*
X8689229Y-15100460D01*
X8689229Y-15100460D02*
X8679706Y-15090936D01*
X8679706Y-15090936D02*
X8670182Y-15071888D01*
X8670182Y-15071888D02*
X8660658Y-15033793D01*
X8660658Y-15033793D02*
X8660658Y-14986174D01*
X8660658Y-14986174D02*
X8670182Y-14948079D01*
X8670182Y-14948079D02*
X8679706Y-14929031D01*
X8679706Y-14929031D02*
X8689229Y-14919508D01*
X8689229Y-14919508D02*
X8708277Y-14909984D01*
X8851134Y-14909984D02*
X8851134Y-14948079D01*
X8927325Y-14909984D02*
X8927325Y-14948079D01*
X9222563Y-15186174D02*
X9213039Y-15176650D01*
X9213039Y-15176650D02*
X9193991Y-15148079D01*
X9193991Y-15148079D02*
X9184468Y-15129031D01*
X9184468Y-15129031D02*
X9174944Y-15100460D01*
X9174944Y-15100460D02*
X9165420Y-15052841D01*
X9165420Y-15052841D02*
X9165420Y-15014746D01*
X9165420Y-15014746D02*
X9174944Y-14967127D01*
X9174944Y-14967127D02*
X9184468Y-14938555D01*
X9184468Y-14938555D02*
X9193991Y-14919508D01*
X9193991Y-14919508D02*
X9213039Y-14890936D01*
X9213039Y-14890936D02*
X9222563Y-14881412D01*
X9384468Y-14976650D02*
X9384468Y-15109984D01*
X9336849Y-14900460D02*
X9289230Y-15043317D01*
X9289230Y-15043317D02*
X9413039Y-15043317D01*
X9641611Y-15109984D02*
X9641611Y-14909984D01*
X9727325Y-15109984D02*
X9727325Y-15005222D01*
X9727325Y-15005222D02*
X9717801Y-14986174D01*
X9717801Y-14986174D02*
X9698753Y-14976650D01*
X9698753Y-14976650D02*
X9670182Y-14976650D01*
X9670182Y-14976650D02*
X9651134Y-14986174D01*
X9651134Y-14986174D02*
X9641611Y-14995698D01*
X9851134Y-15109984D02*
X9832087Y-15100460D01*
X9832087Y-15100460D02*
X9822563Y-15090936D01*
X9822563Y-15090936D02*
X9813039Y-15071888D01*
X9813039Y-15071888D02*
X9813039Y-15014746D01*
X9813039Y-15014746D02*
X9822563Y-14995698D01*
X9822563Y-14995698D02*
X9832087Y-14986174D01*
X9832087Y-14986174D02*
X9851134Y-14976650D01*
X9851134Y-14976650D02*
X9879706Y-14976650D01*
X9879706Y-14976650D02*
X9898753Y-14986174D01*
X9898753Y-14986174D02*
X9908277Y-14995698D01*
X9908277Y-14995698D02*
X9917801Y-15014746D01*
X9917801Y-15014746D02*
X9917801Y-15071888D01*
X9917801Y-15071888D02*
X9908277Y-15090936D01*
X9908277Y-15090936D02*
X9898753Y-15100460D01*
X9898753Y-15100460D02*
X9879706Y-15109984D01*
X9879706Y-15109984D02*
X9851134Y-15109984D01*
X10032087Y-15109984D02*
X10013039Y-15100460D01*
X10013039Y-15100460D02*
X10003515Y-15081412D01*
X10003515Y-15081412D02*
X10003515Y-14909984D01*
X10184468Y-15100460D02*
X10165420Y-15109984D01*
X10165420Y-15109984D02*
X10127325Y-15109984D01*
X10127325Y-15109984D02*
X10108277Y-15100460D01*
X10108277Y-15100460D02*
X10098753Y-15081412D01*
X10098753Y-15081412D02*
X10098753Y-15005222D01*
X10098753Y-15005222D02*
X10108277Y-14986174D01*
X10108277Y-14986174D02*
X10127325Y-14976650D01*
X10127325Y-14976650D02*
X10165420Y-14976650D01*
X10165420Y-14976650D02*
X10184468Y-14986174D01*
X10184468Y-14986174D02*
X10193992Y-15005222D01*
X10193992Y-15005222D02*
X10193992Y-15024269D01*
X10193992Y-15024269D02*
X10098753Y-15043317D01*
X10270182Y-15100460D02*
X10289230Y-15109984D01*
X10289230Y-15109984D02*
X10327325Y-15109984D01*
X10327325Y-15109984D02*
X10346373Y-15100460D01*
X10346373Y-15100460D02*
X10355896Y-15081412D01*
X10355896Y-15081412D02*
X10355896Y-15071888D01*
X10355896Y-15071888D02*
X10346373Y-15052841D01*
X10346373Y-15052841D02*
X10327325Y-15043317D01*
X10327325Y-15043317D02*
X10298753Y-15043317D01*
X10298753Y-15043317D02*
X10279706Y-15033793D01*
X10279706Y-15033793D02*
X10270182Y-15014746D01*
X10270182Y-15014746D02*
X10270182Y-15005222D01*
X10270182Y-15005222D02*
X10279706Y-14986174D01*
X10279706Y-14986174D02*
X10298753Y-14976650D01*
X10298753Y-14976650D02*
X10327325Y-14976650D01*
X10327325Y-14976650D02*
X10346373Y-14986174D01*
X10422563Y-15186174D02*
X10432087Y-15176650D01*
X10432087Y-15176650D02*
X10451134Y-15148079D01*
X10451134Y-15148079D02*
X10460658Y-15129031D01*
X10460658Y-15129031D02*
X10470182Y-15100460D01*
X10470182Y-15100460D02*
X10479706Y-15052841D01*
X10479706Y-15052841D02*
X10479706Y-15014746D01*
X10479706Y-15014746D02*
X10470182Y-14967127D01*
X10470182Y-14967127D02*
X10460658Y-14938555D01*
X10460658Y-14938555D02*
X10451134Y-14919508D01*
X10451134Y-14919508D02*
X10432087Y-14890936D01*
X10432087Y-14890936D02*
X10422563Y-14881412D01*
M02*
