G04 #@! TF.GenerationSoftware,KiCad,Pcbnew,9.0.1*
G04 #@! TF.CreationDate,2025-04-30T23:29:38-04:00*
G04 #@! TF.ProjectId,Control Board V2,436f6e74-726f-46c2-9042-6f6172642056,rev?*
G04 #@! TF.SameCoordinates,Original*
G04 #@! TF.FileFunction,Legend,Bot*
G04 #@! TF.FilePolarity,Positive*
%FSLAX46Y46*%
G04 Gerber Fmt 4.6, Leading zero omitted, Abs format (unit mm)*
G04 Created by KiCad (PCBNEW 9.0.1) date 2025-04-30 23:29:38*
%MOMM*%
%LPD*%
G01*
G04 APERTURE LIST*
G04 Aperture macros list*
%AMRoundRect*
0 Rectangle with rounded corners*
0 $1 Rounding radius*
0 $2 $3 $4 $5 $6 $7 $8 $9 X,Y pos of 4 corners*
0 Add a 4 corners polygon primitive as box body*
4,1,4,$2,$3,$4,$5,$6,$7,$8,$9,$2,$3,0*
0 Add four circle primitives for the rounded corners*
1,1,$1+$1,$2,$3*
1,1,$1+$1,$4,$5*
1,1,$1+$1,$6,$7*
1,1,$1+$1,$8,$9*
0 Add four rect primitives between the rounded corners*
20,1,$1+$1,$2,$3,$4,$5,0*
20,1,$1+$1,$4,$5,$6,$7,0*
20,1,$1+$1,$6,$7,$8,$9,0*
20,1,$1+$1,$8,$9,$2,$3,0*%
G04 Aperture macros list end*
%ADD10C,0.200000*%
%ADD11C,0.125000*%
%ADD12C,0.120000*%
%ADD13C,1.700000*%
%ADD14R,1.700000X1.700000*%
%ADD15C,1.000000*%
%ADD16C,5.500000*%
%ADD17C,0.650000*%
%ADD18O,1.000000X2.100000*%
%ADD19O,1.000000X1.800000*%
%ADD20O,3.000000X3.000000*%
%ADD21RoundRect,0.140000X0.140000X0.170000X-0.140000X0.170000X-0.140000X-0.170000X0.140000X-0.170000X0*%
%ADD22RoundRect,0.200000X-0.650000X-0.400000X0.650000X-0.400000X0.650000X0.400000X-0.650000X0.400000X0*%
%ADD23RoundRect,0.135000X0.185000X-0.135000X0.185000X0.135000X-0.185000X0.135000X-0.185000X-0.135000X0*%
%ADD24RoundRect,0.140000X-0.140000X-0.170000X0.140000X-0.170000X0.140000X0.170000X-0.140000X0.170000X0*%
%ADD25RoundRect,0.050000X-0.200000X0.050000X-0.200000X-0.050000X0.200000X-0.050000X0.200000X0.050000X0*%
%ADD26R,0.400000X0.700000*%
%ADD27RoundRect,0.135000X-0.135000X-0.185000X0.135000X-0.185000X0.135000X0.185000X-0.135000X0.185000X0*%
%ADD28R,1.300000X1.100000*%
%ADD29RoundRect,0.140000X0.170000X-0.140000X0.170000X0.140000X-0.170000X0.140000X-0.170000X-0.140000X0*%
%ADD30RoundRect,0.140000X-0.170000X0.140000X-0.170000X-0.140000X0.170000X-0.140000X0.170000X0.140000X0*%
%ADD31RoundRect,0.135000X-0.185000X0.135000X-0.185000X-0.135000X0.185000X-0.135000X0.185000X0.135000X0*%
%ADD32RoundRect,0.135000X0.135000X0.185000X-0.135000X0.185000X-0.135000X-0.185000X0.135000X-0.185000X0*%
%ADD33RoundRect,0.075000X-0.275000X0.390000X-0.275000X-0.390000X0.275000X-0.390000X0.275000X0.390000X0*%
%ADD34RoundRect,0.075000X-0.275000X0.075000X-0.275000X-0.075000X0.275000X-0.075000X0.275000X0.075000X0*%
%ADD35R,1.200000X0.700000*%
%ADD36R,0.800000X1.000000*%
%ADD37R,2.800000X1.000000*%
%ADD38R,1.200000X1.000000*%
%ADD39R,1.900000X1.300000*%
%ADD40RoundRect,0.218750X-0.218750X-0.256250X0.218750X-0.256250X0.218750X0.256250X-0.218750X0.256250X0*%
G04 APERTURE END LIST*
D10*
X92156590Y-104296993D02*
X92108971Y-104154136D01*
X92108971Y-104154136D02*
X92061352Y-104106517D01*
X92061352Y-104106517D02*
X91966114Y-104058898D01*
X91966114Y-104058898D02*
X91823257Y-104058898D01*
X91823257Y-104058898D02*
X91728019Y-104106517D01*
X91728019Y-104106517D02*
X91680400Y-104154136D01*
X91680400Y-104154136D02*
X91632780Y-104249374D01*
X91632780Y-104249374D02*
X91632780Y-104630326D01*
X91632780Y-104630326D02*
X92632780Y-104630326D01*
X92632780Y-104630326D02*
X92632780Y-104296993D01*
X92632780Y-104296993D02*
X92585161Y-104201755D01*
X92585161Y-104201755D02*
X92537542Y-104154136D01*
X92537542Y-104154136D02*
X92442304Y-104106517D01*
X92442304Y-104106517D02*
X92347066Y-104106517D01*
X92347066Y-104106517D02*
X92251828Y-104154136D01*
X92251828Y-104154136D02*
X92204209Y-104201755D01*
X92204209Y-104201755D02*
X92156590Y-104296993D01*
X92156590Y-104296993D02*
X92156590Y-104630326D01*
X91632780Y-103058898D02*
X92108971Y-103392231D01*
X91632780Y-103630326D02*
X92632780Y-103630326D01*
X92632780Y-103630326D02*
X92632780Y-103249374D01*
X92632780Y-103249374D02*
X92585161Y-103154136D01*
X92585161Y-103154136D02*
X92537542Y-103106517D01*
X92537542Y-103106517D02*
X92442304Y-103058898D01*
X92442304Y-103058898D02*
X92299447Y-103058898D01*
X92299447Y-103058898D02*
X92204209Y-103106517D01*
X92204209Y-103106517D02*
X92156590Y-103154136D01*
X92156590Y-103154136D02*
X92108971Y-103249374D01*
X92108971Y-103249374D02*
X92108971Y-103630326D01*
X83369673Y-128332780D02*
X83369673Y-129332780D01*
X83369673Y-129332780D02*
X83750625Y-129332780D01*
X83750625Y-129332780D02*
X83845863Y-129285161D01*
X83845863Y-129285161D02*
X83893482Y-129237542D01*
X83893482Y-129237542D02*
X83941101Y-129142304D01*
X83941101Y-129142304D02*
X83941101Y-128999447D01*
X83941101Y-128999447D02*
X83893482Y-128904209D01*
X83893482Y-128904209D02*
X83845863Y-128856590D01*
X83845863Y-128856590D02*
X83750625Y-128808971D01*
X83750625Y-128808971D02*
X83369673Y-128808971D01*
X81893482Y-125685161D02*
X81798244Y-125732780D01*
X81798244Y-125732780D02*
X81655387Y-125732780D01*
X81655387Y-125732780D02*
X81512530Y-125685161D01*
X81512530Y-125685161D02*
X81417292Y-125589923D01*
X81417292Y-125589923D02*
X81369673Y-125494685D01*
X81369673Y-125494685D02*
X81322054Y-125304209D01*
X81322054Y-125304209D02*
X81322054Y-125161352D01*
X81322054Y-125161352D02*
X81369673Y-124970876D01*
X81369673Y-124970876D02*
X81417292Y-124875638D01*
X81417292Y-124875638D02*
X81512530Y-124780400D01*
X81512530Y-124780400D02*
X81655387Y-124732780D01*
X81655387Y-124732780D02*
X81750625Y-124732780D01*
X81750625Y-124732780D02*
X81893482Y-124780400D01*
X81893482Y-124780400D02*
X81941101Y-124828019D01*
X81941101Y-124828019D02*
X81941101Y-125161352D01*
X81941101Y-125161352D02*
X81750625Y-125161352D01*
X82369673Y-124732780D02*
X82369673Y-125732780D01*
X82369673Y-125732780D02*
X82941101Y-124732780D01*
X82941101Y-124732780D02*
X82941101Y-125732780D01*
X83417292Y-124732780D02*
X83417292Y-125732780D01*
X83417292Y-125732780D02*
X83655387Y-125732780D01*
X83655387Y-125732780D02*
X83798244Y-125685161D01*
X83798244Y-125685161D02*
X83893482Y-125589923D01*
X83893482Y-125589923D02*
X83941101Y-125494685D01*
X83941101Y-125494685D02*
X83988720Y-125304209D01*
X83988720Y-125304209D02*
X83988720Y-125161352D01*
X83988720Y-125161352D02*
X83941101Y-124970876D01*
X83941101Y-124970876D02*
X83893482Y-124875638D01*
X83893482Y-124875638D02*
X83798244Y-124780400D01*
X83798244Y-124780400D02*
X83655387Y-124732780D01*
X83655387Y-124732780D02*
X83417292Y-124732780D01*
X86136340Y-104332780D02*
X86755387Y-104332780D01*
X86755387Y-104332780D02*
X86422054Y-103951828D01*
X86422054Y-103951828D02*
X86564911Y-103951828D01*
X86564911Y-103951828D02*
X86660149Y-103904209D01*
X86660149Y-103904209D02*
X86707768Y-103856590D01*
X86707768Y-103856590D02*
X86755387Y-103761352D01*
X86755387Y-103761352D02*
X86755387Y-103523257D01*
X86755387Y-103523257D02*
X86707768Y-103428019D01*
X86707768Y-103428019D02*
X86660149Y-103380400D01*
X86660149Y-103380400D02*
X86564911Y-103332780D01*
X86564911Y-103332780D02*
X86279197Y-103332780D01*
X86279197Y-103332780D02*
X86183959Y-103380400D01*
X86183959Y-103380400D02*
X86136340Y-103428019D01*
X87041102Y-104332780D02*
X87374435Y-103332780D01*
X87374435Y-103332780D02*
X87707768Y-104332780D01*
X87945864Y-104332780D02*
X88564911Y-104332780D01*
X88564911Y-104332780D02*
X88231578Y-103951828D01*
X88231578Y-103951828D02*
X88374435Y-103951828D01*
X88374435Y-103951828D02*
X88469673Y-103904209D01*
X88469673Y-103904209D02*
X88517292Y-103856590D01*
X88517292Y-103856590D02*
X88564911Y-103761352D01*
X88564911Y-103761352D02*
X88564911Y-103523257D01*
X88564911Y-103523257D02*
X88517292Y-103428019D01*
X88517292Y-103428019D02*
X88469673Y-103380400D01*
X88469673Y-103380400D02*
X88374435Y-103332780D01*
X88374435Y-103332780D02*
X88088721Y-103332780D01*
X88088721Y-103332780D02*
X87993483Y-103380400D01*
X87993483Y-103380400D02*
X87945864Y-103428019D01*
X86612530Y-102485161D02*
X86517292Y-102532780D01*
X86517292Y-102532780D02*
X86374435Y-102532780D01*
X86374435Y-102532780D02*
X86231578Y-102485161D01*
X86231578Y-102485161D02*
X86136340Y-102389923D01*
X86136340Y-102389923D02*
X86088721Y-102294685D01*
X86088721Y-102294685D02*
X86041102Y-102104209D01*
X86041102Y-102104209D02*
X86041102Y-101961352D01*
X86041102Y-101961352D02*
X86088721Y-101770876D01*
X86088721Y-101770876D02*
X86136340Y-101675638D01*
X86136340Y-101675638D02*
X86231578Y-101580400D01*
X86231578Y-101580400D02*
X86374435Y-101532780D01*
X86374435Y-101532780D02*
X86469673Y-101532780D01*
X86469673Y-101532780D02*
X86612530Y-101580400D01*
X86612530Y-101580400D02*
X86660149Y-101628019D01*
X86660149Y-101628019D02*
X86660149Y-101961352D01*
X86660149Y-101961352D02*
X86469673Y-101961352D01*
X87088721Y-101532780D02*
X87088721Y-102532780D01*
X87088721Y-102532780D02*
X87660149Y-101532780D01*
X87660149Y-101532780D02*
X87660149Y-102532780D01*
X88136340Y-101532780D02*
X88136340Y-102532780D01*
X88136340Y-102532780D02*
X88374435Y-102532780D01*
X88374435Y-102532780D02*
X88517292Y-102485161D01*
X88517292Y-102485161D02*
X88612530Y-102389923D01*
X88612530Y-102389923D02*
X88660149Y-102294685D01*
X88660149Y-102294685D02*
X88707768Y-102104209D01*
X88707768Y-102104209D02*
X88707768Y-101961352D01*
X88707768Y-101961352D02*
X88660149Y-101770876D01*
X88660149Y-101770876D02*
X88612530Y-101675638D01*
X88612530Y-101675638D02*
X88517292Y-101580400D01*
X88517292Y-101580400D02*
X88374435Y-101532780D01*
X88374435Y-101532780D02*
X88136340Y-101532780D01*
X85969673Y-105132780D02*
X85969673Y-106132780D01*
X85969673Y-106132780D02*
X86350625Y-106132780D01*
X86350625Y-106132780D02*
X86445863Y-106085161D01*
X86445863Y-106085161D02*
X86493482Y-106037542D01*
X86493482Y-106037542D02*
X86541101Y-105942304D01*
X86541101Y-105942304D02*
X86541101Y-105799447D01*
X86541101Y-105799447D02*
X86493482Y-105704209D01*
X86493482Y-105704209D02*
X86445863Y-105656590D01*
X86445863Y-105656590D02*
X86350625Y-105608971D01*
X86350625Y-105608971D02*
X85969673Y-105608971D01*
X86874435Y-106132780D02*
X87112530Y-105132780D01*
X87112530Y-105132780D02*
X87303006Y-105847066D01*
X87303006Y-105847066D02*
X87493482Y-105132780D01*
X87493482Y-105132780D02*
X87731578Y-106132780D01*
X88112530Y-105132780D02*
X88112530Y-106132780D01*
X88112530Y-106132780D02*
X88445863Y-105418495D01*
X88445863Y-105418495D02*
X88779196Y-106132780D01*
X88779196Y-106132780D02*
X88779196Y-105132780D01*
X61536340Y-104532780D02*
X62155387Y-104532780D01*
X62155387Y-104532780D02*
X61822054Y-104151828D01*
X61822054Y-104151828D02*
X61964911Y-104151828D01*
X61964911Y-104151828D02*
X62060149Y-104104209D01*
X62060149Y-104104209D02*
X62107768Y-104056590D01*
X62107768Y-104056590D02*
X62155387Y-103961352D01*
X62155387Y-103961352D02*
X62155387Y-103723257D01*
X62155387Y-103723257D02*
X62107768Y-103628019D01*
X62107768Y-103628019D02*
X62060149Y-103580400D01*
X62060149Y-103580400D02*
X61964911Y-103532780D01*
X61964911Y-103532780D02*
X61679197Y-103532780D01*
X61679197Y-103532780D02*
X61583959Y-103580400D01*
X61583959Y-103580400D02*
X61536340Y-103628019D01*
X62441102Y-104532780D02*
X62774435Y-103532780D01*
X62774435Y-103532780D02*
X63107768Y-104532780D01*
X63345864Y-104532780D02*
X63964911Y-104532780D01*
X63964911Y-104532780D02*
X63631578Y-104151828D01*
X63631578Y-104151828D02*
X63774435Y-104151828D01*
X63774435Y-104151828D02*
X63869673Y-104104209D01*
X63869673Y-104104209D02*
X63917292Y-104056590D01*
X63917292Y-104056590D02*
X63964911Y-103961352D01*
X63964911Y-103961352D02*
X63964911Y-103723257D01*
X63964911Y-103723257D02*
X63917292Y-103628019D01*
X63917292Y-103628019D02*
X63869673Y-103580400D01*
X63869673Y-103580400D02*
X63774435Y-103532780D01*
X63774435Y-103532780D02*
X63488721Y-103532780D01*
X63488721Y-103532780D02*
X63393483Y-103580400D01*
X63393483Y-103580400D02*
X63345864Y-103628019D01*
X61369673Y-105332780D02*
X61369673Y-106332780D01*
X61369673Y-106332780D02*
X61750625Y-106332780D01*
X61750625Y-106332780D02*
X61845863Y-106285161D01*
X61845863Y-106285161D02*
X61893482Y-106237542D01*
X61893482Y-106237542D02*
X61941101Y-106142304D01*
X61941101Y-106142304D02*
X61941101Y-105999447D01*
X61941101Y-105999447D02*
X61893482Y-105904209D01*
X61893482Y-105904209D02*
X61845863Y-105856590D01*
X61845863Y-105856590D02*
X61750625Y-105808971D01*
X61750625Y-105808971D02*
X61369673Y-105808971D01*
X62274435Y-106332780D02*
X62512530Y-105332780D01*
X62512530Y-105332780D02*
X62703006Y-106047066D01*
X62703006Y-106047066D02*
X62893482Y-105332780D01*
X62893482Y-105332780D02*
X63131578Y-106332780D01*
X63512530Y-105332780D02*
X63512530Y-106332780D01*
X63512530Y-106332780D02*
X63845863Y-105618495D01*
X63845863Y-105618495D02*
X64179196Y-106332780D01*
X64179196Y-106332780D02*
X64179196Y-105332780D01*
X62012530Y-102685161D02*
X61917292Y-102732780D01*
X61917292Y-102732780D02*
X61774435Y-102732780D01*
X61774435Y-102732780D02*
X61631578Y-102685161D01*
X61631578Y-102685161D02*
X61536340Y-102589923D01*
X61536340Y-102589923D02*
X61488721Y-102494685D01*
X61488721Y-102494685D02*
X61441102Y-102304209D01*
X61441102Y-102304209D02*
X61441102Y-102161352D01*
X61441102Y-102161352D02*
X61488721Y-101970876D01*
X61488721Y-101970876D02*
X61536340Y-101875638D01*
X61536340Y-101875638D02*
X61631578Y-101780400D01*
X61631578Y-101780400D02*
X61774435Y-101732780D01*
X61774435Y-101732780D02*
X61869673Y-101732780D01*
X61869673Y-101732780D02*
X62012530Y-101780400D01*
X62012530Y-101780400D02*
X62060149Y-101828019D01*
X62060149Y-101828019D02*
X62060149Y-102161352D01*
X62060149Y-102161352D02*
X61869673Y-102161352D01*
X62488721Y-101732780D02*
X62488721Y-102732780D01*
X62488721Y-102732780D02*
X63060149Y-101732780D01*
X63060149Y-101732780D02*
X63060149Y-102732780D01*
X63536340Y-101732780D02*
X63536340Y-102732780D01*
X63536340Y-102732780D02*
X63774435Y-102732780D01*
X63774435Y-102732780D02*
X63917292Y-102685161D01*
X63917292Y-102685161D02*
X64012530Y-102589923D01*
X64012530Y-102589923D02*
X64060149Y-102494685D01*
X64060149Y-102494685D02*
X64107768Y-102304209D01*
X64107768Y-102304209D02*
X64107768Y-102161352D01*
X64107768Y-102161352D02*
X64060149Y-101970876D01*
X64060149Y-101970876D02*
X64012530Y-101875638D01*
X64012530Y-101875638D02*
X63917292Y-101780400D01*
X63917292Y-101780400D02*
X63774435Y-101732780D01*
X63774435Y-101732780D02*
X63536340Y-101732780D01*
X61369673Y-121132780D02*
X61369673Y-122132780D01*
X61369673Y-122132780D02*
X61750625Y-122132780D01*
X61750625Y-122132780D02*
X61845863Y-122085161D01*
X61845863Y-122085161D02*
X61893482Y-122037542D01*
X61893482Y-122037542D02*
X61941101Y-121942304D01*
X61941101Y-121942304D02*
X61941101Y-121799447D01*
X61941101Y-121799447D02*
X61893482Y-121704209D01*
X61893482Y-121704209D02*
X61845863Y-121656590D01*
X61845863Y-121656590D02*
X61750625Y-121608971D01*
X61750625Y-121608971D02*
X61369673Y-121608971D01*
X62274435Y-122132780D02*
X62512530Y-121132780D01*
X62512530Y-121132780D02*
X62703006Y-121847066D01*
X62703006Y-121847066D02*
X62893482Y-121132780D01*
X62893482Y-121132780D02*
X63131578Y-122132780D01*
X63512530Y-121132780D02*
X63512530Y-122132780D01*
X63512530Y-122132780D02*
X63845863Y-121418495D01*
X63845863Y-121418495D02*
X64179196Y-122132780D01*
X64179196Y-122132780D02*
X64179196Y-121132780D01*
X61536340Y-120332780D02*
X62155387Y-120332780D01*
X62155387Y-120332780D02*
X61822054Y-119951828D01*
X61822054Y-119951828D02*
X61964911Y-119951828D01*
X61964911Y-119951828D02*
X62060149Y-119904209D01*
X62060149Y-119904209D02*
X62107768Y-119856590D01*
X62107768Y-119856590D02*
X62155387Y-119761352D01*
X62155387Y-119761352D02*
X62155387Y-119523257D01*
X62155387Y-119523257D02*
X62107768Y-119428019D01*
X62107768Y-119428019D02*
X62060149Y-119380400D01*
X62060149Y-119380400D02*
X61964911Y-119332780D01*
X61964911Y-119332780D02*
X61679197Y-119332780D01*
X61679197Y-119332780D02*
X61583959Y-119380400D01*
X61583959Y-119380400D02*
X61536340Y-119428019D01*
X62441102Y-120332780D02*
X62774435Y-119332780D01*
X62774435Y-119332780D02*
X63107768Y-120332780D01*
X63345864Y-120332780D02*
X63964911Y-120332780D01*
X63964911Y-120332780D02*
X63631578Y-119951828D01*
X63631578Y-119951828D02*
X63774435Y-119951828D01*
X63774435Y-119951828D02*
X63869673Y-119904209D01*
X63869673Y-119904209D02*
X63917292Y-119856590D01*
X63917292Y-119856590D02*
X63964911Y-119761352D01*
X63964911Y-119761352D02*
X63964911Y-119523257D01*
X63964911Y-119523257D02*
X63917292Y-119428019D01*
X63917292Y-119428019D02*
X63869673Y-119380400D01*
X63869673Y-119380400D02*
X63774435Y-119332780D01*
X63774435Y-119332780D02*
X63488721Y-119332780D01*
X63488721Y-119332780D02*
X63393483Y-119380400D01*
X63393483Y-119380400D02*
X63345864Y-119428019D01*
X62012530Y-118485161D02*
X61917292Y-118532780D01*
X61917292Y-118532780D02*
X61774435Y-118532780D01*
X61774435Y-118532780D02*
X61631578Y-118485161D01*
X61631578Y-118485161D02*
X61536340Y-118389923D01*
X61536340Y-118389923D02*
X61488721Y-118294685D01*
X61488721Y-118294685D02*
X61441102Y-118104209D01*
X61441102Y-118104209D02*
X61441102Y-117961352D01*
X61441102Y-117961352D02*
X61488721Y-117770876D01*
X61488721Y-117770876D02*
X61536340Y-117675638D01*
X61536340Y-117675638D02*
X61631578Y-117580400D01*
X61631578Y-117580400D02*
X61774435Y-117532780D01*
X61774435Y-117532780D02*
X61869673Y-117532780D01*
X61869673Y-117532780D02*
X62012530Y-117580400D01*
X62012530Y-117580400D02*
X62060149Y-117628019D01*
X62060149Y-117628019D02*
X62060149Y-117961352D01*
X62060149Y-117961352D02*
X61869673Y-117961352D01*
X62488721Y-117532780D02*
X62488721Y-118532780D01*
X62488721Y-118532780D02*
X63060149Y-117532780D01*
X63060149Y-117532780D02*
X63060149Y-118532780D01*
X63536340Y-117532780D02*
X63536340Y-118532780D01*
X63536340Y-118532780D02*
X63774435Y-118532780D01*
X63774435Y-118532780D02*
X63917292Y-118485161D01*
X63917292Y-118485161D02*
X64012530Y-118389923D01*
X64012530Y-118389923D02*
X64060149Y-118294685D01*
X64060149Y-118294685D02*
X64107768Y-118104209D01*
X64107768Y-118104209D02*
X64107768Y-117961352D01*
X64107768Y-117961352D02*
X64060149Y-117770876D01*
X64060149Y-117770876D02*
X64012530Y-117675638D01*
X64012530Y-117675638D02*
X63917292Y-117580400D01*
X63917292Y-117580400D02*
X63774435Y-117532780D01*
X63774435Y-117532780D02*
X63536340Y-117532780D01*
X83656590Y-127296993D02*
X83608971Y-127154136D01*
X83608971Y-127154136D02*
X83561352Y-127106517D01*
X83561352Y-127106517D02*
X83466114Y-127058898D01*
X83466114Y-127058898D02*
X83323257Y-127058898D01*
X83323257Y-127058898D02*
X83228019Y-127106517D01*
X83228019Y-127106517D02*
X83180400Y-127154136D01*
X83180400Y-127154136D02*
X83132780Y-127249374D01*
X83132780Y-127249374D02*
X83132780Y-127630326D01*
X83132780Y-127630326D02*
X84132780Y-127630326D01*
X84132780Y-127630326D02*
X84132780Y-127296993D01*
X84132780Y-127296993D02*
X84085161Y-127201755D01*
X84085161Y-127201755D02*
X84037542Y-127154136D01*
X84037542Y-127154136D02*
X83942304Y-127106517D01*
X83942304Y-127106517D02*
X83847066Y-127106517D01*
X83847066Y-127106517D02*
X83751828Y-127154136D01*
X83751828Y-127154136D02*
X83704209Y-127201755D01*
X83704209Y-127201755D02*
X83656590Y-127296993D01*
X83656590Y-127296993D02*
X83656590Y-127630326D01*
X83132780Y-126154136D02*
X83132780Y-126630326D01*
X83132780Y-126630326D02*
X84132780Y-126630326D01*
D11*
X80831261Y-96905859D02*
X80878880Y-97001097D01*
X80878880Y-97001097D02*
X80878880Y-97143954D01*
X80878880Y-97143954D02*
X80831261Y-97286811D01*
X80831261Y-97286811D02*
X80736023Y-97382049D01*
X80736023Y-97382049D02*
X80640785Y-97429668D01*
X80640785Y-97429668D02*
X80450309Y-97477287D01*
X80450309Y-97477287D02*
X80307452Y-97477287D01*
X80307452Y-97477287D02*
X80116976Y-97429668D01*
X80116976Y-97429668D02*
X80021738Y-97382049D01*
X80021738Y-97382049D02*
X79926500Y-97286811D01*
X79926500Y-97286811D02*
X79878880Y-97143954D01*
X79878880Y-97143954D02*
X79878880Y-97048716D01*
X79878880Y-97048716D02*
X79926500Y-96905859D01*
X79926500Y-96905859D02*
X79974119Y-96858240D01*
X79974119Y-96858240D02*
X80307452Y-96858240D01*
X80307452Y-96858240D02*
X80307452Y-97048716D01*
X79878880Y-96429668D02*
X80878880Y-96429668D01*
X80878880Y-96429668D02*
X79878880Y-95858240D01*
X79878880Y-95858240D02*
X80878880Y-95858240D01*
X79878880Y-95382049D02*
X80878880Y-95382049D01*
X80878880Y-95382049D02*
X80878880Y-95143954D01*
X80878880Y-95143954D02*
X80831261Y-95001097D01*
X80831261Y-95001097D02*
X80736023Y-94905859D01*
X80736023Y-94905859D02*
X80640785Y-94858240D01*
X80640785Y-94858240D02*
X80450309Y-94810621D01*
X80450309Y-94810621D02*
X80307452Y-94810621D01*
X80307452Y-94810621D02*
X80116976Y-94858240D01*
X80116976Y-94858240D02*
X80021738Y-94905859D01*
X80021738Y-94905859D02*
X79926500Y-95001097D01*
X79926500Y-95001097D02*
X79878880Y-95143954D01*
X79878880Y-95143954D02*
X79878880Y-95382049D01*
D10*
X57843409Y-119453006D02*
X57843409Y-119119673D01*
X58367219Y-119119673D02*
X57367219Y-119119673D01*
X57367219Y-119119673D02*
X57367219Y-119595863D01*
X58367219Y-120453006D02*
X58367219Y-119976816D01*
X58367219Y-119976816D02*
X57367219Y-119976816D01*
D11*
X82628880Y-97429668D02*
X83628880Y-97429668D01*
X83628880Y-97429668D02*
X83628880Y-97191573D01*
X83628880Y-97191573D02*
X83581261Y-97048716D01*
X83581261Y-97048716D02*
X83486023Y-96953478D01*
X83486023Y-96953478D02*
X83390785Y-96905859D01*
X83390785Y-96905859D02*
X83200309Y-96858240D01*
X83200309Y-96858240D02*
X83057452Y-96858240D01*
X83057452Y-96858240D02*
X82866976Y-96905859D01*
X82866976Y-96905859D02*
X82771738Y-96953478D01*
X82771738Y-96953478D02*
X82676500Y-97048716D01*
X82676500Y-97048716D02*
X82628880Y-97191573D01*
X82628880Y-97191573D02*
X82628880Y-97429668D01*
X82628880Y-96429668D02*
X83628880Y-96429668D01*
X83628880Y-95763002D02*
X83628880Y-95572526D01*
X83628880Y-95572526D02*
X83581261Y-95477288D01*
X83581261Y-95477288D02*
X83486023Y-95382050D01*
X83486023Y-95382050D02*
X83295547Y-95334431D01*
X83295547Y-95334431D02*
X82962214Y-95334431D01*
X82962214Y-95334431D02*
X82771738Y-95382050D01*
X82771738Y-95382050D02*
X82676500Y-95477288D01*
X82676500Y-95477288D02*
X82628880Y-95572526D01*
X82628880Y-95572526D02*
X82628880Y-95763002D01*
X82628880Y-95763002D02*
X82676500Y-95858240D01*
X82676500Y-95858240D02*
X82771738Y-95953478D01*
X82771738Y-95953478D02*
X82962214Y-96001097D01*
X82962214Y-96001097D02*
X83295547Y-96001097D01*
X83295547Y-96001097D02*
X83486023Y-95953478D01*
X83486023Y-95953478D02*
X83581261Y-95858240D01*
X83581261Y-95858240D02*
X83628880Y-95763002D01*
D10*
X57843409Y-103703006D02*
X57843409Y-103369673D01*
X58367219Y-103369673D02*
X57367219Y-103369673D01*
X57367219Y-103369673D02*
X57367219Y-103845863D01*
X58367219Y-104798244D02*
X57891028Y-104464911D01*
X58367219Y-104226816D02*
X57367219Y-104226816D01*
X57367219Y-104226816D02*
X57367219Y-104607768D01*
X57367219Y-104607768D02*
X57414838Y-104703006D01*
X57414838Y-104703006D02*
X57462457Y-104750625D01*
X57462457Y-104750625D02*
X57557695Y-104798244D01*
X57557695Y-104798244D02*
X57700552Y-104798244D01*
X57700552Y-104798244D02*
X57795790Y-104750625D01*
X57795790Y-104750625D02*
X57843409Y-104703006D01*
X57843409Y-104703006D02*
X57891028Y-104607768D01*
X57891028Y-104607768D02*
X57891028Y-104226816D01*
D11*
X82378880Y-105608240D02*
X82855071Y-105941573D01*
X82378880Y-106179668D02*
X83378880Y-106179668D01*
X83378880Y-106179668D02*
X83378880Y-105798716D01*
X83378880Y-105798716D02*
X83331261Y-105703478D01*
X83331261Y-105703478D02*
X83283642Y-105655859D01*
X83283642Y-105655859D02*
X83188404Y-105608240D01*
X83188404Y-105608240D02*
X83045547Y-105608240D01*
X83045547Y-105608240D02*
X82950309Y-105655859D01*
X82950309Y-105655859D02*
X82902690Y-105703478D01*
X82902690Y-105703478D02*
X82855071Y-105798716D01*
X82855071Y-105798716D02*
X82855071Y-106179668D01*
X82426500Y-105227287D02*
X82378880Y-105084430D01*
X82378880Y-105084430D02*
X82378880Y-104846335D01*
X82378880Y-104846335D02*
X82426500Y-104751097D01*
X82426500Y-104751097D02*
X82474119Y-104703478D01*
X82474119Y-104703478D02*
X82569357Y-104655859D01*
X82569357Y-104655859D02*
X82664595Y-104655859D01*
X82664595Y-104655859D02*
X82759833Y-104703478D01*
X82759833Y-104703478D02*
X82807452Y-104751097D01*
X82807452Y-104751097D02*
X82855071Y-104846335D01*
X82855071Y-104846335D02*
X82902690Y-105036811D01*
X82902690Y-105036811D02*
X82950309Y-105132049D01*
X82950309Y-105132049D02*
X82997928Y-105179668D01*
X82997928Y-105179668D02*
X83093166Y-105227287D01*
X83093166Y-105227287D02*
X83188404Y-105227287D01*
X83188404Y-105227287D02*
X83283642Y-105179668D01*
X83283642Y-105179668D02*
X83331261Y-105132049D01*
X83331261Y-105132049D02*
X83378880Y-105036811D01*
X83378880Y-105036811D02*
X83378880Y-104798716D01*
X83378880Y-104798716D02*
X83331261Y-104655859D01*
X83378880Y-104370144D02*
X83378880Y-103798716D01*
X82378880Y-104084430D02*
X83378880Y-104084430D01*
X83656500Y-106317764D02*
X83656500Y-103803478D01*
X79974119Y-105608240D02*
X79926500Y-105655859D01*
X79926500Y-105655859D02*
X79878880Y-105798716D01*
X79878880Y-105798716D02*
X79878880Y-105893954D01*
X79878880Y-105893954D02*
X79926500Y-106036811D01*
X79926500Y-106036811D02*
X80021738Y-106132049D01*
X80021738Y-106132049D02*
X80116976Y-106179668D01*
X80116976Y-106179668D02*
X80307452Y-106227287D01*
X80307452Y-106227287D02*
X80450309Y-106227287D01*
X80450309Y-106227287D02*
X80640785Y-106179668D01*
X80640785Y-106179668D02*
X80736023Y-106132049D01*
X80736023Y-106132049D02*
X80831261Y-106036811D01*
X80831261Y-106036811D02*
X80878880Y-105893954D01*
X80878880Y-105893954D02*
X80878880Y-105798716D01*
X80878880Y-105798716D02*
X80831261Y-105655859D01*
X80831261Y-105655859D02*
X80783642Y-105608240D01*
X79878880Y-104703478D02*
X79878880Y-105179668D01*
X79878880Y-105179668D02*
X80878880Y-105179668D01*
X79878880Y-104370144D02*
X80878880Y-104370144D01*
X79878880Y-103798716D02*
X80450309Y-104227287D01*
X80878880Y-103798716D02*
X80307452Y-104370144D01*
D12*
G04 #@! TO.C,C11*
X73087836Y-116640000D02*
X72872164Y-116640000D01*
X73087836Y-117360000D02*
X72872164Y-117360000D01*
G04 #@! TO.C,R2*
X67560000Y-121903641D02*
X67560000Y-121596359D01*
X68320000Y-121903641D02*
X68320000Y-121596359D01*
G04 #@! TO.C,C2*
X68162164Y-123920000D02*
X68377836Y-123920000D01*
X68162164Y-124640000D02*
X68377836Y-124640000D01*
G04 #@! TO.C,U5*
X72765000Y-112720000D02*
X73945000Y-112720000D01*
X72775000Y-116240000D02*
X74175000Y-116240000D01*
X74745000Y-112720000D02*
X74265000Y-112720000D01*
X74265000Y-112240000D01*
X74745000Y-112720000D01*
G36*
X74745000Y-112720000D02*
G01*
X74265000Y-112720000D01*
X74265000Y-112240000D01*
X74745000Y-112720000D01*
G37*
G04 #@! TO.C,R18*
X63596359Y-109870000D02*
X63903641Y-109870000D01*
X63596359Y-110630000D02*
X63903641Y-110630000D01*
G04 #@! TO.C,C30*
X81642164Y-129360000D02*
X81857836Y-129360000D01*
X81642164Y-130080000D02*
X81857836Y-130080000D01*
G04 #@! TO.C,C1*
X66607836Y-128140000D02*
X66392164Y-128140000D01*
X66607836Y-128860000D02*
X66392164Y-128860000D01*
D10*
G04 #@! TO.C,Y2*
X69750000Y-119200000D02*
X69750000Y-119200000D01*
X69750000Y-119200000D02*
X69750000Y-119200000D01*
X69850000Y-119200000D02*
X69850000Y-119200000D01*
X69750000Y-119200000D02*
G75*
G02*
X69850000Y-119200000I50000J0D01*
G01*
X69750000Y-119200000D02*
G75*
G02*
X69850000Y-119200000I50000J0D01*
G01*
X69850000Y-119200000D02*
G75*
G02*
X69750000Y-119200000I-50000J0D01*
G01*
D12*
G04 #@! TO.C,C33*
X67390000Y-114087836D02*
X67390000Y-113872164D01*
X68110000Y-114087836D02*
X68110000Y-113872164D01*
G04 #@! TO.C,C25*
X68390000Y-116142164D02*
X68390000Y-116357836D01*
X69110000Y-116142164D02*
X69110000Y-116357836D01*
G04 #@! TO.C,R9*
X75120000Y-127346359D02*
X75120000Y-127653641D01*
X75880000Y-127346359D02*
X75880000Y-127653641D01*
G04 #@! TO.C,C6*
X71357836Y-122890000D02*
X71142164Y-122890000D01*
X71357836Y-123610000D02*
X71142164Y-123610000D01*
G04 #@! TO.C,R7*
X74903641Y-109620000D02*
X74596359Y-109620000D01*
X74903641Y-110380000D02*
X74596359Y-110380000D01*
G04 #@! TO.C,C5*
X68162164Y-122890000D02*
X68377836Y-122890000D01*
X68162164Y-123610000D02*
X68377836Y-123610000D01*
G04 #@! TO.C,C8*
X66892164Y-118890000D02*
X67107836Y-118890000D01*
X66892164Y-119610000D02*
X67107836Y-119610000D01*
G04 #@! TO.C,C35*
X66580000Y-121857836D02*
X66580000Y-121642164D01*
X67300000Y-121857836D02*
X67300000Y-121642164D01*
G04 #@! TO.C,R19*
X63596359Y-110870000D02*
X63903641Y-110870000D01*
X63596359Y-111630000D02*
X63903641Y-111630000D01*
G04 #@! TO.C,C16*
X69890000Y-116377836D02*
X69890000Y-116162164D01*
X70610000Y-116377836D02*
X70610000Y-116162164D01*
G04 #@! TO.C,D5*
X72640000Y-126520000D02*
X73860000Y-126520000D01*
X72640000Y-128335000D02*
X72640000Y-126520000D01*
X73860000Y-126520000D02*
X73860000Y-128335000D01*
G04 #@! TO.C,C7*
X68162164Y-124950000D02*
X68377836Y-124950000D01*
X68162164Y-125670000D02*
X68377836Y-125670000D01*
G04 #@! TO.C,R22*
X66370000Y-114153641D02*
X66370000Y-113846359D01*
X67130000Y-114153641D02*
X67130000Y-113846359D01*
G04 #@! TO.C,R21*
X69380000Y-102246359D02*
X69380000Y-102553641D01*
X68620000Y-102246359D02*
X68620000Y-102553641D01*
G04 #@! TO.C,C3*
X64607836Y-128140000D02*
X64392164Y-128140000D01*
X64607836Y-128860000D02*
X64392164Y-128860000D01*
G04 #@! TO.C,C4*
X64607836Y-129140000D02*
X64392164Y-129140000D01*
X64607836Y-129860000D02*
X64392164Y-129860000D01*
G04 #@! TO.C,C31*
X81642164Y-128390000D02*
X81857836Y-128390000D01*
X81642164Y-129110000D02*
X81857836Y-129110000D01*
G04 #@! TO.C,C23*
X72392164Y-106390000D02*
X72607836Y-106390000D01*
X72392164Y-107110000D02*
X72607836Y-107110000D01*
G04 #@! TO.C,J2*
X76615000Y-108525000D02*
X80225000Y-108525000D01*
X76615000Y-108975000D02*
X76615000Y-108525000D01*
X76615000Y-120575000D02*
X76615000Y-122495000D01*
X76615000Y-122495000D02*
X90625000Y-122495000D01*
X81925000Y-108525000D02*
X86625000Y-108525000D01*
X87925000Y-108525000D02*
X89725000Y-108525000D01*
X92535000Y-111625000D02*
X92535000Y-117995000D01*
X92535000Y-111625000D02*
X92685000Y-111625000D01*
X92685000Y-121015000D02*
X92685000Y-121275000D01*
X92885000Y-109555000D02*
X92685000Y-109355000D01*
X92885000Y-109555000D02*
X92885000Y-111415000D01*
X92885000Y-111415000D02*
X92685000Y-111625000D01*
X92885000Y-118505000D02*
X92535000Y-117995000D01*
X92885000Y-120815000D02*
X92685000Y-121015000D01*
X92885000Y-120815000D02*
X92885000Y-118505000D01*
G04 #@! TO.C,R20*
X70380000Y-102246359D02*
X70380000Y-102553641D01*
X69620000Y-102246359D02*
X69620000Y-102553641D01*
G04 #@! TO.C,C17*
X70890000Y-116357836D02*
X70890000Y-116142164D01*
X71610000Y-116357836D02*
X71610000Y-116142164D01*
G04 #@! TO.C,C22*
X72392164Y-107390000D02*
X72607836Y-107390000D01*
X72392164Y-108110000D02*
X72607836Y-108110000D01*
G04 #@! TO.C,FB1*
X73837221Y-122990000D02*
X74162779Y-122990000D01*
X73837221Y-124010000D02*
X74162779Y-124010000D01*
G04 #@! TO.C,C36*
X65640000Y-121857836D02*
X65640000Y-121642164D01*
X66360000Y-121857836D02*
X66360000Y-121642164D01*
G04 #@! TO.C,R6*
X71903641Y-109620000D02*
X71596359Y-109620000D01*
X71903641Y-110380000D02*
X71596359Y-110380000D01*
G04 #@! TO.C,C9*
X66892164Y-117890000D02*
X67107836Y-117890000D01*
X66892164Y-118610000D02*
X67107836Y-118610000D01*
G04 #@! TO.C,C24*
X67390000Y-116142164D02*
X67390000Y-116357836D01*
X68110000Y-116142164D02*
X68110000Y-116357836D01*
G04 #@! TO.C,R8*
X74120000Y-127346359D02*
X74120000Y-127653641D01*
X74880000Y-127346359D02*
X74880000Y-127653641D01*
G04 #@! TD*
%LPC*%
D13*
G04 #@! TO.C,J1*
X83000000Y-99460000D03*
X83000000Y-102000000D03*
X80460000Y-102000000D03*
D14*
X80460000Y-99460000D03*
G04 #@! TD*
D15*
G04 #@! TO.C,TP4*
X68500000Y-129000000D03*
G04 #@! TD*
G04 #@! TO.C,TP3*
X81500000Y-127250000D03*
G04 #@! TD*
D16*
G04 #@! TO.C,H2*
X60000000Y-97000000D03*
G04 #@! TD*
G04 #@! TO.C,H1*
X90000000Y-127000000D03*
G04 #@! TD*
D15*
G04 #@! TO.C,TP2*
X77500000Y-101750000D03*
G04 #@! TD*
G04 #@! TO.C,TP1*
X72000000Y-101400000D03*
G04 #@! TD*
D17*
G04 #@! TO.C,J35*
X72110000Y-125395000D03*
X77890000Y-125395000D03*
D18*
X70680000Y-124875000D03*
D19*
X70680000Y-129075000D03*
D18*
X79320000Y-124875000D03*
D19*
X79320000Y-129075000D03*
G04 #@! TD*
D16*
G04 #@! TO.C,H4*
X90000000Y-97000000D03*
G04 #@! TD*
D20*
G04 #@! TO.C,BT1*
X72968000Y-95500000D03*
X77032000Y-95500000D03*
G04 #@! TD*
D16*
G04 #@! TO.C,H3*
X60000000Y-127000000D03*
G04 #@! TD*
D21*
G04 #@! TO.C,C11*
X73460000Y-117000000D03*
X72500000Y-117000000D03*
G04 #@! TD*
D22*
G04 #@! TO.C,J30*
X59750000Y-121556000D03*
X59750000Y-119778000D03*
X59750000Y-118000000D03*
G04 #@! TD*
D23*
G04 #@! TO.C,R2*
X67940000Y-122260000D03*
X67940000Y-121240000D03*
G04 #@! TD*
D24*
G04 #@! TO.C,C2*
X67790000Y-124280000D03*
X68750000Y-124280000D03*
G04 #@! TD*
D22*
G04 #@! TO.C,J32*
X59750000Y-105778000D03*
X59750000Y-104000000D03*
X59750000Y-102222000D03*
G04 #@! TD*
D25*
G04 #@! TO.C,U5*
X74090000Y-113080000D03*
X74090000Y-113480000D03*
X74090000Y-113880000D03*
X74090000Y-114280000D03*
X74090000Y-114680000D03*
X74090000Y-115080000D03*
X74090000Y-115480000D03*
X74090000Y-115880000D03*
X72840000Y-115880000D03*
X72840000Y-115480000D03*
X72840000Y-115080000D03*
X72840000Y-114680000D03*
X72840000Y-114280000D03*
X72840000Y-113880000D03*
X72840000Y-113480000D03*
X72840000Y-113080000D03*
D26*
X73465000Y-115530000D03*
X73465000Y-114830000D03*
X73465000Y-114130000D03*
X73465000Y-113430000D03*
G04 #@! TD*
D27*
G04 #@! TO.C,R18*
X63240000Y-110250000D03*
X64260000Y-110250000D03*
G04 #@! TD*
D24*
G04 #@! TO.C,C30*
X81270000Y-129720000D03*
X82230000Y-129720000D03*
G04 #@! TD*
D21*
G04 #@! TO.C,C1*
X66980000Y-128500000D03*
X66020000Y-128500000D03*
G04 #@! TD*
D28*
G04 #@! TO.C,Y2*
X71500000Y-119200000D03*
X73800000Y-119200000D03*
X73800000Y-121000000D03*
X71500000Y-121000000D03*
G04 #@! TD*
D29*
G04 #@! TO.C,C33*
X67750000Y-114460000D03*
X67750000Y-113500000D03*
G04 #@! TD*
D30*
G04 #@! TO.C,C25*
X68750000Y-115770000D03*
X68750000Y-116730000D03*
G04 #@! TD*
D31*
G04 #@! TO.C,R9*
X75500000Y-126990000D03*
X75500000Y-128010000D03*
G04 #@! TD*
D21*
G04 #@! TO.C,C6*
X71730000Y-123250000D03*
X70770000Y-123250000D03*
G04 #@! TD*
D32*
G04 #@! TO.C,R7*
X75260000Y-110000000D03*
X74240000Y-110000000D03*
G04 #@! TD*
D24*
G04 #@! TO.C,C5*
X67790000Y-123250000D03*
X68750000Y-123250000D03*
G04 #@! TD*
D22*
G04 #@! TO.C,J31*
X85500000Y-128778000D03*
X85500000Y-127000000D03*
X85500000Y-125222000D03*
G04 #@! TD*
D24*
G04 #@! TO.C,C8*
X66520000Y-119250000D03*
X67480000Y-119250000D03*
G04 #@! TD*
D29*
G04 #@! TO.C,C35*
X66940000Y-122230000D03*
X66940000Y-121270000D03*
G04 #@! TD*
D27*
G04 #@! TO.C,R19*
X63240000Y-111250000D03*
X64260000Y-111250000D03*
G04 #@! TD*
D22*
G04 #@! TO.C,J33*
X90250000Y-105806000D03*
X90250000Y-104028000D03*
X90250000Y-102250000D03*
G04 #@! TD*
D29*
G04 #@! TO.C,C16*
X70250000Y-116750000D03*
X70250000Y-115790000D03*
G04 #@! TD*
D33*
G04 #@! TO.C,D5*
X73250000Y-127250000D03*
D34*
X73250000Y-128135000D03*
G04 #@! TD*
D24*
G04 #@! TO.C,C7*
X67790000Y-125310000D03*
X68750000Y-125310000D03*
G04 #@! TD*
D23*
G04 #@! TO.C,R22*
X66750000Y-114510000D03*
X66750000Y-113490000D03*
G04 #@! TD*
D31*
G04 #@! TO.C,R21*
X69000000Y-101890000D03*
X69000000Y-102910000D03*
G04 #@! TD*
D21*
G04 #@! TO.C,C3*
X64980000Y-128500000D03*
X64020000Y-128500000D03*
G04 #@! TD*
G04 #@! TO.C,C4*
X64980000Y-129500000D03*
X64020000Y-129500000D03*
G04 #@! TD*
D24*
G04 #@! TO.C,C31*
X81270000Y-128750000D03*
X82230000Y-128750000D03*
G04 #@! TD*
G04 #@! TO.C,C23*
X72020000Y-106750000D03*
X72980000Y-106750000D03*
G04 #@! TD*
D35*
G04 #@! TO.C,J2*
X76775000Y-118275000D03*
X76775000Y-117175000D03*
X76775000Y-116075000D03*
X76775000Y-114975000D03*
X76775000Y-113875000D03*
X76775000Y-112775000D03*
X76775000Y-111675000D03*
X76775000Y-110575000D03*
X76775000Y-109625000D03*
D36*
X87275000Y-108675000D03*
D37*
X91425000Y-108675000D03*
D38*
X81075000Y-108675000D03*
X76775000Y-119825000D03*
D39*
X91875000Y-122175000D03*
G04 #@! TD*
D31*
G04 #@! TO.C,R20*
X70000000Y-101890000D03*
X70000000Y-102910000D03*
G04 #@! TD*
D29*
G04 #@! TO.C,C17*
X71250000Y-116730000D03*
X71250000Y-115770000D03*
G04 #@! TD*
D24*
G04 #@! TO.C,C22*
X72020000Y-107750000D03*
X72980000Y-107750000D03*
G04 #@! TD*
D40*
G04 #@! TO.C,FB1*
X73212500Y-123500000D03*
X74787500Y-123500000D03*
G04 #@! TD*
D29*
G04 #@! TO.C,C36*
X66000000Y-122230000D03*
X66000000Y-121270000D03*
G04 #@! TD*
D32*
G04 #@! TO.C,R6*
X72260000Y-110000000D03*
X71240000Y-110000000D03*
G04 #@! TD*
D24*
G04 #@! TO.C,C9*
X66520000Y-118250000D03*
X67480000Y-118250000D03*
G04 #@! TD*
D30*
G04 #@! TO.C,C24*
X67750000Y-115770000D03*
X67750000Y-116730000D03*
G04 #@! TD*
D31*
G04 #@! TO.C,R8*
X74500000Y-126990000D03*
X74500000Y-128010000D03*
G04 #@! TD*
%LPD*%
M02*
