M48
; DRILL file {KiCad 9.0.1} date 2025-04-30T23:29:38-0400
; FORMAT={-:-/ absolute / metric / decimal}
; #@! TF.CreationDate,2025-04-30T23:29:38-04:00
; #@! TF.GenerationSoftware,Kicad,Pcbnew,9.0.1
; #@! TF.FileFunction,Plated,1,4,PTH
FMAT,2
METRIC
; #@! TA.AperFunction,Plated,PTH,ViaDrill
T1C0.300
; #@! TA.AperFunction,Plated,PTH,ComponentDrill
T2C0.500
; #@! TA.AperFunction,Plated,PTH,ComponentDrill
T3C0.600
; #@! TA.AperFunction,Plated,PTH,ComponentDrill
T4C1.000
; #@! TA.AperFunction,Plated,PTH,ComponentDrill
T5C1.500
; #@! TA.AperFunction,Plated,PTH,ComponentDrill
T6C3.200
%
G90
G05
T1
X57.5Y-110.75
X57.5Y-112.75
X57.75Y-103.25
X57.75Y-104.5
X57.75Y-120.75
X58.0Y-118.75
X59.25Y-110.5
X59.5Y-113.25
X59.75Y-119.778
X60.0Y-107.0
X60.0Y-108.75
X60.0Y-115.0
X60.0Y-123.0
X60.25Y-116.5
X61.0Y-100.75
X61.5Y-115.75
X62.5Y-117.5
X62.5Y-124.0
X62.554Y-101.554
X62.562Y-109.562
X62.75Y-115.0
X62.75Y-128.9
X62.75Y-129.7
X62.776Y-103.031
X63.0Y-104.25
X63.0Y-111.75
X63.25Y-94.5
X63.25Y-99.0
X63.274Y-117.798
X63.359Y-112.859
X63.5Y-120.5
X63.75Y-96.75
X63.75Y-106.75
X63.75Y-114.0
X64.0Y-100.75
X64.25Y-123.0
X64.75Y-104.5
X64.75Y-116.7
X64.75Y-118.25
X64.799Y-106.701
X65.0Y-99.25
X65.0Y-122.42
X65.229Y-120.829
X65.25Y-103.235
X65.25Y-127.75
X65.476Y-115.953
X65.5Y-97.5
X65.762Y-118.919
X66.0Y-100.75
X66.0Y-101.5
X66.0Y-111.5
X66.017Y-127.524
X66.109Y-112.859
X66.5Y-120.25
X66.65Y-114.7
X66.75Y-98.75
X66.75Y-100.75
X66.75Y-101.5
X66.75Y-127.75
X67.104Y-123.396
X67.25Y-94.85
X67.5Y-100.75
X67.5Y-101.5
X67.5Y-108.0
X67.511Y-126.77
X67.75Y-112.249
X67.75Y-115.77
X67.765Y-126.003
X68.0Y-120.25
X68.25Y-100.75
X68.25Y-101.5
X68.524Y-127.548
X68.75Y-96.75
X68.75Y-103.75
X69.0Y-106.5
X69.15Y-123.5
X70.0Y-98.0
X70.25Y-105.0
X70.25Y-116.75
X70.4Y-117.676
X70.58Y-113.523
X70.6Y-112.686
X70.7Y-106.992
X70.77Y-123.25
X70.896Y-102.604
X71.0Y-103.75
X71.25Y-110.0
X71.25Y-115.77
X71.371Y-114.48
X71.55Y-121.98
X71.55Y-108.0
X72.0Y-116.25
X72.061Y-114.075
X72.109Y-113.277
X72.25Y-105.0
X72.98Y-107.75
X73.148Y-125.516
X73.25Y-102.0
X73.25Y-110.0
X73.25Y-123.25
X73.465Y-112.68
X73.791Y-103.709
X73.8Y-119.2
X73.8Y-121.0
X74.25Y-108.0
X74.25Y-116.5
X74.5Y-126.99
X74.65Y-125.631
X74.85Y-119.0
X75.0Y-111.5
X75.5Y-98.5
X75.5Y-126.99
X75.52Y-104.73
X75.676Y-109.246
X75.75Y-119.0
X75.85Y-125.328
X76.0Y-99.75
X76.498Y-102.789
X76.925Y-108.75
X77.5Y-121.25
X77.75Y-97.5
X78.0Y-115.0
X78.0Y-115.75
X78.5Y-100.5
X78.5Y-103.25
X78.5Y-110.35
X78.695Y-107.467
X79.0Y-111.75
X79.0Y-119.49
X79.25Y-94.25
X79.25Y-96.25
X79.25Y-113.0
X79.25Y-114.85
X79.401Y-115.636
X81.25Y-119.75
X81.75Y-95.5
X82.0Y-97.75
X82.0Y-125.399
X82.5Y-109.75
X83.4Y-106.75
X83.6Y-121.25
X83.75Y-111.65
X83.75Y-114.0
X83.75Y-116.5
X84.0Y-107.75
X84.0Y-117.5
X84.0Y-122.2
X84.25Y-129.7
X84.5Y-112.85
X84.75Y-98.5
X84.75Y-126.0
X85.0Y-111.5
X85.25Y-103.25
X85.5Y-95.5
X85.575Y-109.0
X85.601Y-119.25
X85.75Y-106.0
X85.75Y-122.0
X85.903Y-123.364
X85.975Y-113.875
X86.25Y-110.5
X86.325Y-108.722
X86.75Y-106.5
X86.75Y-123.5
X86.75Y-128.5
X86.75Y-129.5
X87.0Y-103.8
X87.0Y-115.0
X87.0Y-122.75
X87.25Y-108.75
X87.25Y-117.0
X87.5Y-124.0
X88.5Y-100.75
X89.0Y-106.75
X89.0Y-114.75
X89.25Y-109.0
X89.75Y-110.75
X89.75Y-117.0
X89.75Y-118.25
X89.75Y-122.0
X90.0Y-119.5
X90.25Y-111.875
X90.25Y-113.25
X92.125Y-114.675
X92.25Y-102.5
X92.25Y-105.25
X92.25Y-111.0
X92.25Y-112.75
X92.5Y-124.25
T2
X68.5Y-129.0
X72.0Y-101.4
X77.5Y-101.75
X81.5Y-127.25
T4
X80.46Y-99.46
X80.46Y-102.0
X83.0Y-99.46
X83.0Y-102.0
T5
X72.968Y-95.5
X77.032Y-95.5
T6
X60.0Y-97.0
X60.0Y-127.0
X90.0Y-97.0
X90.0Y-127.0
T3
G00X70.68Y-124.325
M15
G01X70.68Y-125.425
M16
G05
G00X70.68Y-128.675
M15
G01X70.68Y-129.475
M16
G05
G00X79.32Y-124.325
M15
G01X79.32Y-125.425
M16
G05
G00X79.32Y-128.675
M15
G01X79.32Y-129.475
M16
G05
M30
