%TF.GenerationSoftware,KiCad,Pcbnew,9.0.1*%
%TF.CreationDate,2025-04-30T23:29:38-04:00*%
%TF.ProjectId,Control Board V2,436f6e74-726f-46c2-9042-6f6172642056,rev?*%
%TF.SameCoordinates,Original*%
%TF.FileFunction,Drillmap*%
%TF.FilePolarity,Positive*%
%FSLAX45Y45*%
G04 Gerber Fmt 4.5, Leading zero omitted, Abs format (unit mm)*
G04 Created by KiCad (PCBNEW 9.0.1) date 2025-04-30 23:29:38*
%MOMM*%
%LPD*%
G01*
G04 APERTURE LIST*
%ADD10C,0.050000*%
%ADD11C,0.200000*%
%ADD12C,0.100000*%
G04 APERTURE END LIST*
D10*
X6000000Y-13050000D02*
X9000000Y-13050000D01*
X5650000Y-9700000D02*
G75*
G02*
X6000000Y-9350000I350000J0D01*
G01*
X9000000Y-9350000D02*
G75*
G02*
X9350000Y-9700000I0J-350000D01*
G01*
X6000000Y-9350000D02*
X9000000Y-9350000D01*
X9350000Y-12700000D02*
X9350000Y-9700000D01*
X9350000Y-12700000D02*
G75*
G02*
X9000000Y-13050000I-350000J0D01*
G01*
X5650000Y-9700000D02*
X5650000Y-12700000D01*
X6000000Y-13050000D02*
G75*
G02*
X5650000Y-12700000I0J350000D01*
G01*
D11*
D12*
X7178500Y-12507000D02*
X7243500Y-12572000D01*
X7243500Y-12507000D02*
X7178500Y-12572000D01*
X7756500Y-12507000D02*
X7821500Y-12572000D01*
X7821500Y-12507000D02*
X7756500Y-12572000D01*
D11*
X5908277Y-13363984D02*
X5908277Y-13163984D01*
X5908277Y-13163984D02*
X5955896Y-13163984D01*
X5955896Y-13163984D02*
X5984467Y-13173508D01*
X5984467Y-13173508D02*
X6003515Y-13192555D01*
X6003515Y-13192555D02*
X6013039Y-13211603D01*
X6013039Y-13211603D02*
X6022562Y-13249698D01*
X6022562Y-13249698D02*
X6022562Y-13278269D01*
X6022562Y-13278269D02*
X6013039Y-13316365D01*
X6013039Y-13316365D02*
X6003515Y-13335412D01*
X6003515Y-13335412D02*
X5984467Y-13354460D01*
X5984467Y-13354460D02*
X5955896Y-13363984D01*
X5955896Y-13363984D02*
X5908277Y-13363984D01*
X6108277Y-13363984D02*
X6108277Y-13230650D01*
X6108277Y-13268746D02*
X6117801Y-13249698D01*
X6117801Y-13249698D02*
X6127324Y-13240174D01*
X6127324Y-13240174D02*
X6146372Y-13230650D01*
X6146372Y-13230650D02*
X6165420Y-13230650D01*
X6232086Y-13363984D02*
X6232086Y-13230650D01*
X6232086Y-13163984D02*
X6222562Y-13173508D01*
X6222562Y-13173508D02*
X6232086Y-13183031D01*
X6232086Y-13183031D02*
X6241610Y-13173508D01*
X6241610Y-13173508D02*
X6232086Y-13163984D01*
X6232086Y-13163984D02*
X6232086Y-13183031D01*
X6355896Y-13363984D02*
X6336848Y-13354460D01*
X6336848Y-13354460D02*
X6327324Y-13335412D01*
X6327324Y-13335412D02*
X6327324Y-13163984D01*
X6460658Y-13363984D02*
X6441610Y-13354460D01*
X6441610Y-13354460D02*
X6432086Y-13335412D01*
X6432086Y-13335412D02*
X6432086Y-13163984D01*
X6689229Y-13363984D02*
X6689229Y-13163984D01*
X6689229Y-13163984D02*
X6755896Y-13306841D01*
X6755896Y-13306841D02*
X6822562Y-13163984D01*
X6822562Y-13163984D02*
X6822562Y-13363984D01*
X7003515Y-13363984D02*
X7003515Y-13259222D01*
X7003515Y-13259222D02*
X6993991Y-13240174D01*
X6993991Y-13240174D02*
X6974943Y-13230650D01*
X6974943Y-13230650D02*
X6936848Y-13230650D01*
X6936848Y-13230650D02*
X6917801Y-13240174D01*
X7003515Y-13354460D02*
X6984467Y-13363984D01*
X6984467Y-13363984D02*
X6936848Y-13363984D01*
X6936848Y-13363984D02*
X6917801Y-13354460D01*
X6917801Y-13354460D02*
X6908277Y-13335412D01*
X6908277Y-13335412D02*
X6908277Y-13316365D01*
X6908277Y-13316365D02*
X6917801Y-13297317D01*
X6917801Y-13297317D02*
X6936848Y-13287793D01*
X6936848Y-13287793D02*
X6984467Y-13287793D01*
X6984467Y-13287793D02*
X7003515Y-13278269D01*
X7098753Y-13230650D02*
X7098753Y-13430650D01*
X7098753Y-13240174D02*
X7117801Y-13230650D01*
X7117801Y-13230650D02*
X7155896Y-13230650D01*
X7155896Y-13230650D02*
X7174943Y-13240174D01*
X7174943Y-13240174D02*
X7184467Y-13249698D01*
X7184467Y-13249698D02*
X7193991Y-13268746D01*
X7193991Y-13268746D02*
X7193991Y-13325888D01*
X7193991Y-13325888D02*
X7184467Y-13344936D01*
X7184467Y-13344936D02*
X7174943Y-13354460D01*
X7174943Y-13354460D02*
X7155896Y-13363984D01*
X7155896Y-13363984D02*
X7117801Y-13363984D01*
X7117801Y-13363984D02*
X7098753Y-13354460D01*
X7279705Y-13344936D02*
X7289229Y-13354460D01*
X7289229Y-13354460D02*
X7279705Y-13363984D01*
X7279705Y-13363984D02*
X7270182Y-13354460D01*
X7270182Y-13354460D02*
X7279705Y-13344936D01*
X7279705Y-13344936D02*
X7279705Y-13363984D01*
X7279705Y-13240174D02*
X7289229Y-13249698D01*
X7289229Y-13249698D02*
X7279705Y-13259222D01*
X7279705Y-13259222D02*
X7270182Y-13249698D01*
X7270182Y-13249698D02*
X7279705Y-13240174D01*
X7279705Y-13240174D02*
X7279705Y-13259222D01*
D12*
X5582500Y-13660000D02*
X5647500Y-13725000D01*
X5647500Y-13660000D02*
X5582500Y-13725000D01*
D11*
X5946372Y-13583984D02*
X5965420Y-13583984D01*
X5965420Y-13583984D02*
X5984467Y-13593508D01*
X5984467Y-13593508D02*
X5993991Y-13603031D01*
X5993991Y-13603031D02*
X6003515Y-13622079D01*
X6003515Y-13622079D02*
X6013039Y-13660174D01*
X6013039Y-13660174D02*
X6013039Y-13707793D01*
X6013039Y-13707793D02*
X6003515Y-13745888D01*
X6003515Y-13745888D02*
X5993991Y-13764936D01*
X5993991Y-13764936D02*
X5984467Y-13774460D01*
X5984467Y-13774460D02*
X5965420Y-13783984D01*
X5965420Y-13783984D02*
X5946372Y-13783984D01*
X5946372Y-13783984D02*
X5927324Y-13774460D01*
X5927324Y-13774460D02*
X5917801Y-13764936D01*
X5917801Y-13764936D02*
X5908277Y-13745888D01*
X5908277Y-13745888D02*
X5898753Y-13707793D01*
X5898753Y-13707793D02*
X5898753Y-13660174D01*
X5898753Y-13660174D02*
X5908277Y-13622079D01*
X5908277Y-13622079D02*
X5917801Y-13603031D01*
X5917801Y-13603031D02*
X5927324Y-13593508D01*
X5927324Y-13593508D02*
X5946372Y-13583984D01*
X6098753Y-13764936D02*
X6108277Y-13774460D01*
X6108277Y-13774460D02*
X6098753Y-13783984D01*
X6098753Y-13783984D02*
X6089229Y-13774460D01*
X6089229Y-13774460D02*
X6098753Y-13764936D01*
X6098753Y-13764936D02*
X6098753Y-13783984D01*
X6279705Y-13583984D02*
X6241610Y-13583984D01*
X6241610Y-13583984D02*
X6222562Y-13593508D01*
X6222562Y-13593508D02*
X6213039Y-13603031D01*
X6213039Y-13603031D02*
X6193991Y-13631603D01*
X6193991Y-13631603D02*
X6184467Y-13669698D01*
X6184467Y-13669698D02*
X6184467Y-13745888D01*
X6184467Y-13745888D02*
X6193991Y-13764936D01*
X6193991Y-13764936D02*
X6203515Y-13774460D01*
X6203515Y-13774460D02*
X6222562Y-13783984D01*
X6222562Y-13783984D02*
X6260658Y-13783984D01*
X6260658Y-13783984D02*
X6279705Y-13774460D01*
X6279705Y-13774460D02*
X6289229Y-13764936D01*
X6289229Y-13764936D02*
X6298753Y-13745888D01*
X6298753Y-13745888D02*
X6298753Y-13698269D01*
X6298753Y-13698269D02*
X6289229Y-13679222D01*
X6289229Y-13679222D02*
X6279705Y-13669698D01*
X6279705Y-13669698D02*
X6260658Y-13660174D01*
X6260658Y-13660174D02*
X6222562Y-13660174D01*
X6222562Y-13660174D02*
X6203515Y-13669698D01*
X6203515Y-13669698D02*
X6193991Y-13679222D01*
X6193991Y-13679222D02*
X6184467Y-13698269D01*
X6479705Y-13583984D02*
X6384467Y-13583984D01*
X6384467Y-13583984D02*
X6374943Y-13679222D01*
X6374943Y-13679222D02*
X6384467Y-13669698D01*
X6384467Y-13669698D02*
X6403515Y-13660174D01*
X6403515Y-13660174D02*
X6451134Y-13660174D01*
X6451134Y-13660174D02*
X6470182Y-13669698D01*
X6470182Y-13669698D02*
X6479705Y-13679222D01*
X6479705Y-13679222D02*
X6489229Y-13698269D01*
X6489229Y-13698269D02*
X6489229Y-13745888D01*
X6489229Y-13745888D02*
X6479705Y-13764936D01*
X6479705Y-13764936D02*
X6470182Y-13774460D01*
X6470182Y-13774460D02*
X6451134Y-13783984D01*
X6451134Y-13783984D02*
X6403515Y-13783984D01*
X6403515Y-13783984D02*
X6384467Y-13774460D01*
X6384467Y-13774460D02*
X6374943Y-13764936D01*
X6613039Y-13583984D02*
X6632086Y-13583984D01*
X6632086Y-13583984D02*
X6651134Y-13593508D01*
X6651134Y-13593508D02*
X6660658Y-13603031D01*
X6660658Y-13603031D02*
X6670182Y-13622079D01*
X6670182Y-13622079D02*
X6679705Y-13660174D01*
X6679705Y-13660174D02*
X6679705Y-13707793D01*
X6679705Y-13707793D02*
X6670182Y-13745888D01*
X6670182Y-13745888D02*
X6660658Y-13764936D01*
X6660658Y-13764936D02*
X6651134Y-13774460D01*
X6651134Y-13774460D02*
X6632086Y-13783984D01*
X6632086Y-13783984D02*
X6613039Y-13783984D01*
X6613039Y-13783984D02*
X6593991Y-13774460D01*
X6593991Y-13774460D02*
X6584467Y-13764936D01*
X6584467Y-13764936D02*
X6574943Y-13745888D01*
X6574943Y-13745888D02*
X6565420Y-13707793D01*
X6565420Y-13707793D02*
X6565420Y-13660174D01*
X6565420Y-13660174D02*
X6574943Y-13622079D01*
X6574943Y-13622079D02*
X6584467Y-13603031D01*
X6584467Y-13603031D02*
X6593991Y-13593508D01*
X6593991Y-13593508D02*
X6613039Y-13583984D01*
X6765420Y-13783984D02*
X6765420Y-13650650D01*
X6765420Y-13669698D02*
X6774943Y-13660174D01*
X6774943Y-13660174D02*
X6793991Y-13650650D01*
X6793991Y-13650650D02*
X6822563Y-13650650D01*
X6822563Y-13650650D02*
X6841610Y-13660174D01*
X6841610Y-13660174D02*
X6851134Y-13679222D01*
X6851134Y-13679222D02*
X6851134Y-13783984D01*
X6851134Y-13679222D02*
X6860658Y-13660174D01*
X6860658Y-13660174D02*
X6879705Y-13650650D01*
X6879705Y-13650650D02*
X6908277Y-13650650D01*
X6908277Y-13650650D02*
X6927324Y-13660174D01*
X6927324Y-13660174D02*
X6936848Y-13679222D01*
X6936848Y-13679222D02*
X6936848Y-13783984D01*
X7032086Y-13783984D02*
X7032086Y-13650650D01*
X7032086Y-13669698D02*
X7041610Y-13660174D01*
X7041610Y-13660174D02*
X7060658Y-13650650D01*
X7060658Y-13650650D02*
X7089229Y-13650650D01*
X7089229Y-13650650D02*
X7108277Y-13660174D01*
X7108277Y-13660174D02*
X7117801Y-13679222D01*
X7117801Y-13679222D02*
X7117801Y-13783984D01*
X7117801Y-13679222D02*
X7127324Y-13660174D01*
X7127324Y-13660174D02*
X7146372Y-13650650D01*
X7146372Y-13650650D02*
X7174943Y-13650650D01*
X7174943Y-13650650D02*
X7193991Y-13660174D01*
X7193991Y-13660174D02*
X7203515Y-13679222D01*
X7203515Y-13679222D02*
X7203515Y-13783984D01*
X7593991Y-13574460D02*
X7422563Y-13831603D01*
X7851134Y-13583984D02*
X7870182Y-13583984D01*
X7870182Y-13583984D02*
X7889229Y-13593508D01*
X7889229Y-13593508D02*
X7898753Y-13603031D01*
X7898753Y-13603031D02*
X7908277Y-13622079D01*
X7908277Y-13622079D02*
X7917801Y-13660174D01*
X7917801Y-13660174D02*
X7917801Y-13707793D01*
X7917801Y-13707793D02*
X7908277Y-13745888D01*
X7908277Y-13745888D02*
X7898753Y-13764936D01*
X7898753Y-13764936D02*
X7889229Y-13774460D01*
X7889229Y-13774460D02*
X7870182Y-13783984D01*
X7870182Y-13783984D02*
X7851134Y-13783984D01*
X7851134Y-13783984D02*
X7832086Y-13774460D01*
X7832086Y-13774460D02*
X7822563Y-13764936D01*
X7822563Y-13764936D02*
X7813039Y-13745888D01*
X7813039Y-13745888D02*
X7803515Y-13707793D01*
X7803515Y-13707793D02*
X7803515Y-13660174D01*
X7803515Y-13660174D02*
X7813039Y-13622079D01*
X7813039Y-13622079D02*
X7822563Y-13603031D01*
X7822563Y-13603031D02*
X7832086Y-13593508D01*
X7832086Y-13593508D02*
X7851134Y-13583984D01*
X8003515Y-13764936D02*
X8013039Y-13774460D01*
X8013039Y-13774460D02*
X8003515Y-13783984D01*
X8003515Y-13783984D02*
X7993991Y-13774460D01*
X7993991Y-13774460D02*
X8003515Y-13764936D01*
X8003515Y-13764936D02*
X8003515Y-13783984D01*
X8136848Y-13583984D02*
X8155896Y-13583984D01*
X8155896Y-13583984D02*
X8174944Y-13593508D01*
X8174944Y-13593508D02*
X8184467Y-13603031D01*
X8184467Y-13603031D02*
X8193991Y-13622079D01*
X8193991Y-13622079D02*
X8203515Y-13660174D01*
X8203515Y-13660174D02*
X8203515Y-13707793D01*
X8203515Y-13707793D02*
X8193991Y-13745888D01*
X8193991Y-13745888D02*
X8184467Y-13764936D01*
X8184467Y-13764936D02*
X8174944Y-13774460D01*
X8174944Y-13774460D02*
X8155896Y-13783984D01*
X8155896Y-13783984D02*
X8136848Y-13783984D01*
X8136848Y-13783984D02*
X8117801Y-13774460D01*
X8117801Y-13774460D02*
X8108277Y-13764936D01*
X8108277Y-13764936D02*
X8098753Y-13745888D01*
X8098753Y-13745888D02*
X8089229Y-13707793D01*
X8089229Y-13707793D02*
X8089229Y-13660174D01*
X8089229Y-13660174D02*
X8098753Y-13622079D01*
X8098753Y-13622079D02*
X8108277Y-13603031D01*
X8108277Y-13603031D02*
X8117801Y-13593508D01*
X8117801Y-13593508D02*
X8136848Y-13583984D01*
X8279706Y-13603031D02*
X8289229Y-13593508D01*
X8289229Y-13593508D02*
X8308277Y-13583984D01*
X8308277Y-13583984D02*
X8355896Y-13583984D01*
X8355896Y-13583984D02*
X8374944Y-13593508D01*
X8374944Y-13593508D02*
X8384467Y-13603031D01*
X8384467Y-13603031D02*
X8393991Y-13622079D01*
X8393991Y-13622079D02*
X8393991Y-13641127D01*
X8393991Y-13641127D02*
X8384467Y-13669698D01*
X8384467Y-13669698D02*
X8270182Y-13783984D01*
X8270182Y-13783984D02*
X8393991Y-13783984D01*
X8574944Y-13583984D02*
X8479706Y-13583984D01*
X8479706Y-13583984D02*
X8470182Y-13679222D01*
X8470182Y-13679222D02*
X8479706Y-13669698D01*
X8479706Y-13669698D02*
X8498753Y-13660174D01*
X8498753Y-13660174D02*
X8546372Y-13660174D01*
X8546372Y-13660174D02*
X8565420Y-13669698D01*
X8565420Y-13669698D02*
X8574944Y-13679222D01*
X8574944Y-13679222D02*
X8584468Y-13698269D01*
X8584468Y-13698269D02*
X8584468Y-13745888D01*
X8584468Y-13745888D02*
X8574944Y-13764936D01*
X8574944Y-13764936D02*
X8565420Y-13774460D01*
X8565420Y-13774460D02*
X8546372Y-13783984D01*
X8546372Y-13783984D02*
X8498753Y-13783984D01*
X8498753Y-13783984D02*
X8479706Y-13774460D01*
X8479706Y-13774460D02*
X8470182Y-13764936D01*
X8755896Y-13583984D02*
X8717801Y-13583984D01*
X8717801Y-13583984D02*
X8698753Y-13593508D01*
X8698753Y-13593508D02*
X8689229Y-13603031D01*
X8689229Y-13603031D02*
X8670182Y-13631603D01*
X8670182Y-13631603D02*
X8660658Y-13669698D01*
X8660658Y-13669698D02*
X8660658Y-13745888D01*
X8660658Y-13745888D02*
X8670182Y-13764936D01*
X8670182Y-13764936D02*
X8679706Y-13774460D01*
X8679706Y-13774460D02*
X8698753Y-13783984D01*
X8698753Y-13783984D02*
X8736849Y-13783984D01*
X8736849Y-13783984D02*
X8755896Y-13774460D01*
X8755896Y-13774460D02*
X8765420Y-13764936D01*
X8765420Y-13764936D02*
X8774944Y-13745888D01*
X8774944Y-13745888D02*
X8774944Y-13698269D01*
X8774944Y-13698269D02*
X8765420Y-13679222D01*
X8765420Y-13679222D02*
X8755896Y-13669698D01*
X8755896Y-13669698D02*
X8736849Y-13660174D01*
X8736849Y-13660174D02*
X8698753Y-13660174D01*
X8698753Y-13660174D02*
X8679706Y-13669698D01*
X8679706Y-13669698D02*
X8670182Y-13679222D01*
X8670182Y-13679222D02*
X8660658Y-13698269D01*
X8851134Y-13583984D02*
X8851134Y-13622079D01*
X8927325Y-13583984D02*
X8927325Y-13622079D01*
X9222563Y-13860174D02*
X9213039Y-13850650D01*
X9213039Y-13850650D02*
X9193991Y-13822079D01*
X9193991Y-13822079D02*
X9184468Y-13803031D01*
X9184468Y-13803031D02*
X9174944Y-13774460D01*
X9174944Y-13774460D02*
X9165420Y-13726841D01*
X9165420Y-13726841D02*
X9165420Y-13688746D01*
X9165420Y-13688746D02*
X9174944Y-13641127D01*
X9174944Y-13641127D02*
X9184468Y-13612555D01*
X9184468Y-13612555D02*
X9193991Y-13593508D01*
X9193991Y-13593508D02*
X9213039Y-13564936D01*
X9213039Y-13564936D02*
X9222563Y-13555412D01*
X9289230Y-13603031D02*
X9298753Y-13593508D01*
X9298753Y-13593508D02*
X9317801Y-13583984D01*
X9317801Y-13583984D02*
X9365420Y-13583984D01*
X9365420Y-13583984D02*
X9384468Y-13593508D01*
X9384468Y-13593508D02*
X9393991Y-13603031D01*
X9393991Y-13603031D02*
X9403515Y-13622079D01*
X9403515Y-13622079D02*
X9403515Y-13641127D01*
X9403515Y-13641127D02*
X9393991Y-13669698D01*
X9393991Y-13669698D02*
X9279706Y-13783984D01*
X9279706Y-13783984D02*
X9403515Y-13783984D01*
X9641611Y-13783984D02*
X9641611Y-13583984D01*
X9727325Y-13783984D02*
X9727325Y-13679222D01*
X9727325Y-13679222D02*
X9717801Y-13660174D01*
X9717801Y-13660174D02*
X9698753Y-13650650D01*
X9698753Y-13650650D02*
X9670182Y-13650650D01*
X9670182Y-13650650D02*
X9651134Y-13660174D01*
X9651134Y-13660174D02*
X9641611Y-13669698D01*
X9851134Y-13783984D02*
X9832087Y-13774460D01*
X9832087Y-13774460D02*
X9822563Y-13764936D01*
X9822563Y-13764936D02*
X9813039Y-13745888D01*
X9813039Y-13745888D02*
X9813039Y-13688746D01*
X9813039Y-13688746D02*
X9822563Y-13669698D01*
X9822563Y-13669698D02*
X9832087Y-13660174D01*
X9832087Y-13660174D02*
X9851134Y-13650650D01*
X9851134Y-13650650D02*
X9879706Y-13650650D01*
X9879706Y-13650650D02*
X9898753Y-13660174D01*
X9898753Y-13660174D02*
X9908277Y-13669698D01*
X9908277Y-13669698D02*
X9917801Y-13688746D01*
X9917801Y-13688746D02*
X9917801Y-13745888D01*
X9917801Y-13745888D02*
X9908277Y-13764936D01*
X9908277Y-13764936D02*
X9898753Y-13774460D01*
X9898753Y-13774460D02*
X9879706Y-13783984D01*
X9879706Y-13783984D02*
X9851134Y-13783984D01*
X10032087Y-13783984D02*
X10013039Y-13774460D01*
X10013039Y-13774460D02*
X10003515Y-13755412D01*
X10003515Y-13755412D02*
X10003515Y-13583984D01*
X10184468Y-13774460D02*
X10165420Y-13783984D01*
X10165420Y-13783984D02*
X10127325Y-13783984D01*
X10127325Y-13783984D02*
X10108277Y-13774460D01*
X10108277Y-13774460D02*
X10098753Y-13755412D01*
X10098753Y-13755412D02*
X10098753Y-13679222D01*
X10098753Y-13679222D02*
X10108277Y-13660174D01*
X10108277Y-13660174D02*
X10127325Y-13650650D01*
X10127325Y-13650650D02*
X10165420Y-13650650D01*
X10165420Y-13650650D02*
X10184468Y-13660174D01*
X10184468Y-13660174D02*
X10193992Y-13679222D01*
X10193992Y-13679222D02*
X10193992Y-13698269D01*
X10193992Y-13698269D02*
X10098753Y-13717317D01*
X10270182Y-13774460D02*
X10289230Y-13783984D01*
X10289230Y-13783984D02*
X10327325Y-13783984D01*
X10327325Y-13783984D02*
X10346373Y-13774460D01*
X10346373Y-13774460D02*
X10355896Y-13755412D01*
X10355896Y-13755412D02*
X10355896Y-13745888D01*
X10355896Y-13745888D02*
X10346373Y-13726841D01*
X10346373Y-13726841D02*
X10327325Y-13717317D01*
X10327325Y-13717317D02*
X10298753Y-13717317D01*
X10298753Y-13717317D02*
X10279706Y-13707793D01*
X10279706Y-13707793D02*
X10270182Y-13688746D01*
X10270182Y-13688746D02*
X10270182Y-13679222D01*
X10270182Y-13679222D02*
X10279706Y-13660174D01*
X10279706Y-13660174D02*
X10298753Y-13650650D01*
X10298753Y-13650650D02*
X10327325Y-13650650D01*
X10327325Y-13650650D02*
X10346373Y-13660174D01*
X10422563Y-13860174D02*
X10432087Y-13850650D01*
X10432087Y-13850650D02*
X10451134Y-13822079D01*
X10451134Y-13822079D02*
X10460658Y-13803031D01*
X10460658Y-13803031D02*
X10470182Y-13774460D01*
X10470182Y-13774460D02*
X10479706Y-13726841D01*
X10479706Y-13726841D02*
X10479706Y-13688746D01*
X10479706Y-13688746D02*
X10470182Y-13641127D01*
X10470182Y-13641127D02*
X10460658Y-13612555D01*
X10460658Y-13612555D02*
X10451134Y-13593508D01*
X10451134Y-13593508D02*
X10432087Y-13564936D01*
X10432087Y-13564936D02*
X10422563Y-13555412D01*
X10784468Y-13860174D02*
X10774944Y-13850650D01*
X10774944Y-13850650D02*
X10755896Y-13822079D01*
X10755896Y-13822079D02*
X10746373Y-13803031D01*
X10746373Y-13803031D02*
X10736849Y-13774460D01*
X10736849Y-13774460D02*
X10727325Y-13726841D01*
X10727325Y-13726841D02*
X10727325Y-13688746D01*
X10727325Y-13688746D02*
X10736849Y-13641127D01*
X10736849Y-13641127D02*
X10746373Y-13612555D01*
X10746373Y-13612555D02*
X10755896Y-13593508D01*
X10755896Y-13593508D02*
X10774944Y-13564936D01*
X10774944Y-13564936D02*
X10784468Y-13555412D01*
X10860658Y-13650650D02*
X10860658Y-13783984D01*
X10860658Y-13669698D02*
X10870182Y-13660174D01*
X10870182Y-13660174D02*
X10889230Y-13650650D01*
X10889230Y-13650650D02*
X10917801Y-13650650D01*
X10917801Y-13650650D02*
X10936849Y-13660174D01*
X10936849Y-13660174D02*
X10946373Y-13679222D01*
X10946373Y-13679222D02*
X10946373Y-13783984D01*
X11070182Y-13783984D02*
X11051134Y-13774460D01*
X11051134Y-13774460D02*
X11041611Y-13764936D01*
X11041611Y-13764936D02*
X11032087Y-13745888D01*
X11032087Y-13745888D02*
X11032087Y-13688746D01*
X11032087Y-13688746D02*
X11041611Y-13669698D01*
X11041611Y-13669698D02*
X11051134Y-13660174D01*
X11051134Y-13660174D02*
X11070182Y-13650650D01*
X11070182Y-13650650D02*
X11098754Y-13650650D01*
X11098754Y-13650650D02*
X11117801Y-13660174D01*
X11117801Y-13660174D02*
X11127325Y-13669698D01*
X11127325Y-13669698D02*
X11136849Y-13688746D01*
X11136849Y-13688746D02*
X11136849Y-13745888D01*
X11136849Y-13745888D02*
X11127325Y-13764936D01*
X11127325Y-13764936D02*
X11117801Y-13774460D01*
X11117801Y-13774460D02*
X11098754Y-13783984D01*
X11098754Y-13783984D02*
X11070182Y-13783984D01*
X11193992Y-13650650D02*
X11270182Y-13650650D01*
X11222563Y-13583984D02*
X11222563Y-13755412D01*
X11222563Y-13755412D02*
X11232087Y-13774460D01*
X11232087Y-13774460D02*
X11251134Y-13783984D01*
X11251134Y-13783984D02*
X11270182Y-13783984D01*
X11489230Y-13650650D02*
X11489230Y-13850650D01*
X11489230Y-13660174D02*
X11508277Y-13650650D01*
X11508277Y-13650650D02*
X11546373Y-13650650D01*
X11546373Y-13650650D02*
X11565420Y-13660174D01*
X11565420Y-13660174D02*
X11574944Y-13669698D01*
X11574944Y-13669698D02*
X11584468Y-13688746D01*
X11584468Y-13688746D02*
X11584468Y-13745888D01*
X11584468Y-13745888D02*
X11574944Y-13764936D01*
X11574944Y-13764936D02*
X11565420Y-13774460D01*
X11565420Y-13774460D02*
X11546373Y-13783984D01*
X11546373Y-13783984D02*
X11508277Y-13783984D01*
X11508277Y-13783984D02*
X11489230Y-13774460D01*
X11698753Y-13783984D02*
X11679706Y-13774460D01*
X11679706Y-13774460D02*
X11670182Y-13755412D01*
X11670182Y-13755412D02*
X11670182Y-13583984D01*
X11860658Y-13783984D02*
X11860658Y-13679222D01*
X11860658Y-13679222D02*
X11851134Y-13660174D01*
X11851134Y-13660174D02*
X11832087Y-13650650D01*
X11832087Y-13650650D02*
X11793992Y-13650650D01*
X11793992Y-13650650D02*
X11774944Y-13660174D01*
X11860658Y-13774460D02*
X11841611Y-13783984D01*
X11841611Y-13783984D02*
X11793992Y-13783984D01*
X11793992Y-13783984D02*
X11774944Y-13774460D01*
X11774944Y-13774460D02*
X11765420Y-13755412D01*
X11765420Y-13755412D02*
X11765420Y-13736365D01*
X11765420Y-13736365D02*
X11774944Y-13717317D01*
X11774944Y-13717317D02*
X11793992Y-13707793D01*
X11793992Y-13707793D02*
X11841611Y-13707793D01*
X11841611Y-13707793D02*
X11860658Y-13698269D01*
X11927325Y-13650650D02*
X12003515Y-13650650D01*
X11955896Y-13583984D02*
X11955896Y-13755412D01*
X11955896Y-13755412D02*
X11965420Y-13774460D01*
X11965420Y-13774460D02*
X11984468Y-13783984D01*
X11984468Y-13783984D02*
X12003515Y-13783984D01*
X12146373Y-13774460D02*
X12127325Y-13783984D01*
X12127325Y-13783984D02*
X12089230Y-13783984D01*
X12089230Y-13783984D02*
X12070182Y-13774460D01*
X12070182Y-13774460D02*
X12060658Y-13755412D01*
X12060658Y-13755412D02*
X12060658Y-13679222D01*
X12060658Y-13679222D02*
X12070182Y-13660174D01*
X12070182Y-13660174D02*
X12089230Y-13650650D01*
X12089230Y-13650650D02*
X12127325Y-13650650D01*
X12127325Y-13650650D02*
X12146373Y-13660174D01*
X12146373Y-13660174D02*
X12155896Y-13679222D01*
X12155896Y-13679222D02*
X12155896Y-13698269D01*
X12155896Y-13698269D02*
X12060658Y-13717317D01*
X12327325Y-13783984D02*
X12327325Y-13583984D01*
X12327325Y-13774460D02*
X12308277Y-13783984D01*
X12308277Y-13783984D02*
X12270182Y-13783984D01*
X12270182Y-13783984D02*
X12251134Y-13774460D01*
X12251134Y-13774460D02*
X12241611Y-13764936D01*
X12241611Y-13764936D02*
X12232087Y-13745888D01*
X12232087Y-13745888D02*
X12232087Y-13688746D01*
X12232087Y-13688746D02*
X12241611Y-13669698D01*
X12241611Y-13669698D02*
X12251134Y-13660174D01*
X12251134Y-13660174D02*
X12270182Y-13650650D01*
X12270182Y-13650650D02*
X12308277Y-13650650D01*
X12308277Y-13650650D02*
X12327325Y-13660174D01*
X12403515Y-13860174D02*
X12413039Y-13850650D01*
X12413039Y-13850650D02*
X12432087Y-13822079D01*
X12432087Y-13822079D02*
X12441611Y-13803031D01*
X12441611Y-13803031D02*
X12451134Y-13774460D01*
X12451134Y-13774460D02*
X12460658Y-13726841D01*
X12460658Y-13726841D02*
X12460658Y-13688746D01*
X12460658Y-13688746D02*
X12451134Y-13641127D01*
X12451134Y-13641127D02*
X12441611Y-13612555D01*
X12441611Y-13612555D02*
X12432087Y-13593508D01*
X12432087Y-13593508D02*
X12413039Y-13564936D01*
X12413039Y-13564936D02*
X12403515Y-13555412D01*
M02*
