G04 #@! TF.GenerationSoftware,KiCad,Pcbnew,9.0.1*
G04 #@! TF.CreationDate,2025-04-30T23:29:38-04:00*
G04 #@! TF.ProjectId,Control Board V2,436f6e74-726f-46c2-9042-6f6172642056,rev?*
G04 #@! TF.SameCoordinates,Original*
G04 #@! TF.FileFunction,Copper,L4,Bot*
G04 #@! TF.FilePolarity,Positive*
%FSLAX46Y46*%
G04 Gerber Fmt 4.6, Leading zero omitted, Abs format (unit mm)*
G04 Created by KiCad (PCBNEW 9.0.1) date 2025-04-30 23:29:38*
%MOMM*%
%LPD*%
G01*
G04 APERTURE LIST*
G04 Aperture macros list*
%AMRoundRect*
0 Rectangle with rounded corners*
0 $1 Rounding radius*
0 $2 $3 $4 $5 $6 $7 $8 $9 X,Y pos of 4 corners*
0 Add a 4 corners polygon primitive as box body*
4,1,4,$2,$3,$4,$5,$6,$7,$8,$9,$2,$3,0*
0 Add four circle primitives for the rounded corners*
1,1,$1+$1,$2,$3*
1,1,$1+$1,$4,$5*
1,1,$1+$1,$6,$7*
1,1,$1+$1,$8,$9*
0 Add four rect primitives between the rounded corners*
20,1,$1+$1,$2,$3,$4,$5,0*
20,1,$1+$1,$4,$5,$6,$7,0*
20,1,$1+$1,$6,$7,$8,$9,0*
20,1,$1+$1,$8,$9,$2,$3,0*%
G04 Aperture macros list end*
G04 #@! TA.AperFunction,ComponentPad*
%ADD10C,1.700000*%
G04 #@! TD*
G04 #@! TA.AperFunction,ComponentPad*
%ADD11R,1.700000X1.700000*%
G04 #@! TD*
G04 #@! TA.AperFunction,ComponentPad*
%ADD12C,1.000000*%
G04 #@! TD*
G04 #@! TA.AperFunction,ComponentPad*
%ADD13C,5.500000*%
G04 #@! TD*
G04 #@! TA.AperFunction,HeatsinkPad*
%ADD14O,1.000000X2.100000*%
G04 #@! TD*
G04 #@! TA.AperFunction,HeatsinkPad*
%ADD15O,1.000000X1.800000*%
G04 #@! TD*
G04 #@! TA.AperFunction,CastellatedPad*
%ADD16O,3.000000X3.000000*%
G04 #@! TD*
G04 #@! TA.AperFunction,SMDPad,CuDef*
%ADD17RoundRect,0.140000X0.140000X0.170000X-0.140000X0.170000X-0.140000X-0.170000X0.140000X-0.170000X0*%
G04 #@! TD*
G04 #@! TA.AperFunction,SMDPad,CuDef*
%ADD18RoundRect,0.200000X-0.650000X-0.400000X0.650000X-0.400000X0.650000X0.400000X-0.650000X0.400000X0*%
G04 #@! TD*
G04 #@! TA.AperFunction,SMDPad,CuDef*
%ADD19RoundRect,0.135000X0.185000X-0.135000X0.185000X0.135000X-0.185000X0.135000X-0.185000X-0.135000X0*%
G04 #@! TD*
G04 #@! TA.AperFunction,SMDPad,CuDef*
%ADD20RoundRect,0.140000X-0.140000X-0.170000X0.140000X-0.170000X0.140000X0.170000X-0.140000X0.170000X0*%
G04 #@! TD*
G04 #@! TA.AperFunction,SMDPad,CuDef*
%ADD21RoundRect,0.050000X-0.200000X0.050000X-0.200000X-0.050000X0.200000X-0.050000X0.200000X0.050000X0*%
G04 #@! TD*
G04 #@! TA.AperFunction,SMDPad,CuDef*
%ADD22R,0.400000X0.700000*%
G04 #@! TD*
G04 #@! TA.AperFunction,SMDPad,CuDef*
%ADD23RoundRect,0.135000X-0.135000X-0.185000X0.135000X-0.185000X0.135000X0.185000X-0.135000X0.185000X0*%
G04 #@! TD*
G04 #@! TA.AperFunction,SMDPad,CuDef*
%ADD24R,1.300000X1.100000*%
G04 #@! TD*
G04 #@! TA.AperFunction,SMDPad,CuDef*
%ADD25RoundRect,0.140000X0.170000X-0.140000X0.170000X0.140000X-0.170000X0.140000X-0.170000X-0.140000X0*%
G04 #@! TD*
G04 #@! TA.AperFunction,SMDPad,CuDef*
%ADD26RoundRect,0.140000X-0.170000X0.140000X-0.170000X-0.140000X0.170000X-0.140000X0.170000X0.140000X0*%
G04 #@! TD*
G04 #@! TA.AperFunction,SMDPad,CuDef*
%ADD27RoundRect,0.135000X-0.185000X0.135000X-0.185000X-0.135000X0.185000X-0.135000X0.185000X0.135000X0*%
G04 #@! TD*
G04 #@! TA.AperFunction,SMDPad,CuDef*
%ADD28RoundRect,0.135000X0.135000X0.185000X-0.135000X0.185000X-0.135000X-0.185000X0.135000X-0.185000X0*%
G04 #@! TD*
G04 #@! TA.AperFunction,SMDPad,CuDef*
%ADD29RoundRect,0.075000X-0.275000X0.390000X-0.275000X-0.390000X0.275000X-0.390000X0.275000X0.390000X0*%
G04 #@! TD*
G04 #@! TA.AperFunction,SMDPad,CuDef*
%ADD30RoundRect,0.075000X-0.275000X0.075000X-0.275000X-0.075000X0.275000X-0.075000X0.275000X0.075000X0*%
G04 #@! TD*
G04 #@! TA.AperFunction,SMDPad,CuDef*
%ADD31R,1.200000X0.700000*%
G04 #@! TD*
G04 #@! TA.AperFunction,SMDPad,CuDef*
%ADD32R,0.800000X1.000000*%
G04 #@! TD*
G04 #@! TA.AperFunction,SMDPad,CuDef*
%ADD33R,2.800000X1.000000*%
G04 #@! TD*
G04 #@! TA.AperFunction,SMDPad,CuDef*
%ADD34R,1.200000X1.000000*%
G04 #@! TD*
G04 #@! TA.AperFunction,SMDPad,CuDef*
%ADD35R,1.900000X1.300000*%
G04 #@! TD*
G04 #@! TA.AperFunction,SMDPad,CuDef*
%ADD36RoundRect,0.218750X-0.218750X-0.256250X0.218750X-0.256250X0.218750X0.256250X-0.218750X0.256250X0*%
G04 #@! TD*
G04 #@! TA.AperFunction,ViaPad*
%ADD37C,0.600000*%
G04 #@! TD*
G04 #@! TA.AperFunction,Conductor*
%ADD38C,0.160000*%
G04 #@! TD*
G04 #@! TA.AperFunction,Conductor*
%ADD39C,0.200000*%
G04 #@! TD*
G04 #@! TA.AperFunction,Conductor*
%ADD40C,0.250000*%
G04 #@! TD*
G04 #@! TA.AperFunction,Conductor*
%ADD41C,0.500000*%
G04 #@! TD*
G04 APERTURE END LIST*
D10*
G04 #@! TO.P,J1,2,SWDIO*
G04 #@! TO.N,/SWDIO*
X83000000Y-99460000D03*
G04 #@! TO.P,J1,3,~{RESET}*
G04 #@! TO.N,/RESET*
X83000000Y-102000000D03*
G04 #@! TO.P,J1,4,SWCLK*
G04 #@! TO.N,/SWCLK*
X80460000Y-102000000D03*
D11*
G04 #@! TO.P,J1,5,GND*
G04 #@! TO.N,GND*
X80460000Y-99460000D03*
G04 #@! TD*
D12*
G04 #@! TO.P,TP4,1,1*
G04 #@! TO.N,+VBUS*
X68500000Y-129000000D03*
G04 #@! TD*
G04 #@! TO.P,TP3,1,1*
G04 #@! TO.N,+3V3USB*
X81500000Y-127250000D03*
G04 #@! TD*
D13*
G04 #@! TO.P,H2,1,1*
G04 #@! TO.N,GND*
X60000000Y-97000000D03*
G04 #@! TD*
G04 #@! TO.P,H1,1,1*
G04 #@! TO.N,GND*
X90000000Y-127000000D03*
G04 #@! TD*
D12*
G04 #@! TO.P,TP2,1,1*
G04 #@! TO.N,+3V3*
X77500000Y-101750000D03*
G04 #@! TD*
G04 #@! TO.P,TP1,1,1*
G04 #@! TO.N,+VBAT*
X72000000Y-101400000D03*
G04 #@! TD*
D14*
G04 #@! TO.P,J35,S1,SHIELD*
G04 #@! TO.N,GND*
X70680000Y-124875000D03*
D15*
X70680000Y-129075000D03*
D14*
X79320000Y-124875000D03*
D15*
X79320000Y-129075000D03*
G04 #@! TD*
D13*
G04 #@! TO.P,H4,1,1*
G04 #@! TO.N,GND*
X90000000Y-97000000D03*
G04 #@! TD*
D16*
G04 #@! TO.P,BT1,1,+*
G04 #@! TO.N,Net-(BT1-+)*
X72968000Y-95500000D03*
G04 #@! TO.P,BT1,2,-*
G04 #@! TO.N,GND*
X77032000Y-95500000D03*
G04 #@! TD*
D13*
G04 #@! TO.P,H3,1,1*
G04 #@! TO.N,GND*
X60000000Y-127000000D03*
G04 #@! TD*
D17*
G04 #@! TO.P,C11,1*
G04 #@! TO.N,GND*
X73460000Y-117000000D03*
G04 #@! TO.P,C11,2*
G04 #@! TO.N,+3V3*
X72500000Y-117000000D03*
G04 #@! TD*
D18*
G04 #@! TO.P,J30,1,Pin_1*
G04 #@! TO.N,/FL_PWM*
X59750000Y-121556000D03*
G04 #@! TO.P,J30,2,Pin_2*
G04 #@! TO.N,+3V3*
X59750000Y-119778000D03*
G04 #@! TO.P,J30,3,Pin_3*
G04 #@! TO.N,GND*
X59750000Y-118000000D03*
G04 #@! TD*
D19*
G04 #@! TO.P,R2,1*
G04 #@! TO.N,Net-(Y2-IN{slash}OUT)*
X67940000Y-122260000D03*
G04 #@! TO.P,R2,2*
G04 #@! TO.N,/HSE_OUT*
X67940000Y-121240000D03*
G04 #@! TD*
D20*
G04 #@! TO.P,C2,1*
G04 #@! TO.N,GND*
X67790000Y-124280000D03*
G04 #@! TO.P,C2,2*
G04 #@! TO.N,+1V8*
X68750000Y-124280000D03*
G04 #@! TD*
D18*
G04 #@! TO.P,J32,1,Pin_1*
G04 #@! TO.N,/FR_PWM*
X59750000Y-105778000D03*
G04 #@! TO.P,J32,2,Pin_2*
G04 #@! TO.N,+3V3*
X59750000Y-104000000D03*
G04 #@! TO.P,J32,3,Pin_3*
G04 #@! TO.N,GND*
X59750000Y-102222000D03*
G04 #@! TD*
D21*
G04 #@! TO.P,U5,1,Ch1_In*
G04 #@! TO.N,unconnected-(U5-Ch1_In-Pad1)*
X74090000Y-113080000D03*
G04 #@! TO.P,U5,2,Ch2_In*
G04 #@! TO.N,Net-(J2-DAT0)*
X74090000Y-113480000D03*
G04 #@! TO.P,U5,3,Ch3_In*
G04 #@! TO.N,Net-(J2-VSS)*
X74090000Y-113880000D03*
G04 #@! TO.P,U5,4,Ch4_In*
G04 #@! TO.N,Net-(J2-CLK)*
X74090000Y-114280000D03*
G04 #@! TO.P,U5,5,Ch5_In*
G04 #@! TO.N,Net-(J2-VDD)*
X74090000Y-114680000D03*
G04 #@! TO.P,U5,6,Ch6_In*
G04 #@! TO.N,Net-(J2-CMD)*
X74090000Y-115080000D03*
G04 #@! TO.P,U5,7,Ch7_In*
G04 #@! TO.N,Net-(J2-DAT3{slash}CD)*
X74090000Y-115480000D03*
G04 #@! TO.P,U5,8,Ch8_In*
G04 #@! TO.N,unconnected-(U5-Ch8_In-Pad8)*
X74090000Y-115880000D03*
G04 #@! TO.P,U5,9,Ch8_Out*
G04 #@! TO.N,unconnected-(U5-Ch8_Out-Pad9)*
X72840000Y-115880000D03*
G04 #@! TO.P,U5,10,Ch7_Out*
G04 #@! TO.N,/SD_CS*
X72840000Y-115480000D03*
G04 #@! TO.P,U5,11,Ch6_Out*
G04 #@! TO.N,/SPI2_MOSI*
X72840000Y-115080000D03*
G04 #@! TO.P,U5,12,Ch5_Out*
G04 #@! TO.N,+3V3*
X72840000Y-114680000D03*
G04 #@! TO.P,U5,13,Ch4_Out*
G04 #@! TO.N,/SPI1_SCK*
X72840000Y-114280000D03*
G04 #@! TO.P,U5,14,Ch3_Out*
G04 #@! TO.N,GND*
X72840000Y-113880000D03*
G04 #@! TO.P,U5,15,Ch2_Out*
G04 #@! TO.N,/SPI1_MISO*
X72840000Y-113480000D03*
G04 #@! TO.P,U5,16,Ch1_Out*
G04 #@! TO.N,unconnected-(U5-Ch1_Out-Pad16)*
X72840000Y-113080000D03*
D22*
G04 #@! TO.P,U5,17,GND*
G04 #@! TO.N,GND*
X73465000Y-115530000D03*
X73465000Y-114830000D03*
X73465000Y-114130000D03*
X73465000Y-113430000D03*
G04 #@! TD*
D23*
G04 #@! TO.P,R18,1*
G04 #@! TO.N,I2C_2_SCL*
X63240000Y-110250000D03*
G04 #@! TO.P,R18,2*
G04 #@! TO.N,GND*
X64260000Y-110250000D03*
G04 #@! TD*
D20*
G04 #@! TO.P,C30,1*
G04 #@! TO.N,+3V3USB*
X81270000Y-129720000D03*
G04 #@! TO.P,C30,2*
G04 #@! TO.N,GND*
X82230000Y-129720000D03*
G04 #@! TD*
D17*
G04 #@! TO.P,C1,1*
G04 #@! TO.N,+3V3*
X66980000Y-128500000D03*
G04 #@! TO.P,C1,2*
G04 #@! TO.N,GND*
X66020000Y-128500000D03*
G04 #@! TD*
D24*
G04 #@! TO.P,Y2,1,IN/OUT*
G04 #@! TO.N,Net-(Y2-IN{slash}OUT)*
X71500000Y-119200000D03*
G04 #@! TO.P,Y2,2,GND_1*
G04 #@! TO.N,GND*
X73800000Y-119200000D03*
G04 #@! TO.P,Y2,3,OUT/IN*
G04 #@! TO.N,/HSE_IN*
X73800000Y-121000000D03*
G04 #@! TO.P,Y2,4,GND_2*
G04 #@! TO.N,GND*
X71500000Y-121000000D03*
G04 #@! TD*
D25*
G04 #@! TO.P,C33,1*
G04 #@! TO.N,Net-(U2-BOOT0)*
X67750000Y-114460000D03*
G04 #@! TO.P,C33,2*
G04 #@! TO.N,GND*
X67750000Y-113500000D03*
G04 #@! TD*
D26*
G04 #@! TO.P,C25,1*
G04 #@! TO.N,+3V3*
X68750000Y-115770000D03*
G04 #@! TO.P,C25,2*
G04 #@! TO.N,GND*
X68750000Y-116730000D03*
G04 #@! TD*
D27*
G04 #@! TO.P,R9,1*
G04 #@! TO.N,Net-(J35-CC2)*
X75500000Y-126990000D03*
G04 #@! TO.P,R9,2*
G04 #@! TO.N,GND*
X75500000Y-128010000D03*
G04 #@! TD*
D17*
G04 #@! TO.P,C6,1*
G04 #@! TO.N,GND*
X71730000Y-123250000D03*
G04 #@! TO.P,C6,2*
G04 #@! TO.N,+3V3*
X70770000Y-123250000D03*
G04 #@! TD*
D28*
G04 #@! TO.P,R7,1*
G04 #@! TO.N,/SD_DET*
X75260000Y-110000000D03*
G04 #@! TO.P,R7,2*
G04 #@! TO.N,+3V3*
X74240000Y-110000000D03*
G04 #@! TD*
D20*
G04 #@! TO.P,C5,1*
G04 #@! TO.N,GND*
X67790000Y-123250000D03*
G04 #@! TO.P,C5,2*
G04 #@! TO.N,+1V8*
X68750000Y-123250000D03*
G04 #@! TD*
D18*
G04 #@! TO.P,J31,1,Pin_1*
G04 #@! TO.N,/BL_PWM*
X85500000Y-128778000D03*
G04 #@! TO.P,J31,2,Pin_2*
G04 #@! TO.N,+3V3*
X85500000Y-127000000D03*
G04 #@! TO.P,J31,3,Pin_3*
G04 #@! TO.N,GND*
X85500000Y-125222000D03*
G04 #@! TD*
D20*
G04 #@! TO.P,C8,1*
G04 #@! TO.N,+3V3*
X66520000Y-119250000D03*
G04 #@! TO.P,C8,2*
G04 #@! TO.N,GND*
X67480000Y-119250000D03*
G04 #@! TD*
D25*
G04 #@! TO.P,C35,1*
G04 #@! TO.N,Net-(Y2-IN{slash}OUT)*
X66940000Y-122230000D03*
G04 #@! TO.P,C35,2*
G04 #@! TO.N,GND*
X66940000Y-121270000D03*
G04 #@! TD*
D23*
G04 #@! TO.P,R19,1*
G04 #@! TO.N,I2C_2_SDA*
X63240000Y-111250000D03*
G04 #@! TO.P,R19,2*
G04 #@! TO.N,GND*
X64260000Y-111250000D03*
G04 #@! TD*
D18*
G04 #@! TO.P,J33,1,Pin_1*
G04 #@! TO.N,/BR_PWM*
X90250000Y-105806000D03*
G04 #@! TO.P,J33,2,Pin_2*
G04 #@! TO.N,+3V3*
X90250000Y-104028000D03*
G04 #@! TO.P,J33,3,Pin_3*
G04 #@! TO.N,GND*
X90250000Y-102250000D03*
G04 #@! TD*
D25*
G04 #@! TO.P,C16,1*
G04 #@! TO.N,GND*
X70250000Y-116750000D03*
G04 #@! TO.P,C16,2*
G04 #@! TO.N,Net-(C16-Pad2)*
X70250000Y-115790000D03*
G04 #@! TD*
D29*
G04 #@! TO.P,D5,1,K*
G04 #@! TO.N,+VBUS*
X73250000Y-127250000D03*
D30*
G04 #@! TO.P,D5,2,A*
G04 #@! TO.N,GND*
X73250000Y-128135000D03*
G04 #@! TD*
D20*
G04 #@! TO.P,C7,1*
G04 #@! TO.N,GND*
X67790000Y-125310000D03*
G04 #@! TO.P,C7,2*
G04 #@! TO.N,+1V8*
X68750000Y-125310000D03*
G04 #@! TD*
D19*
G04 #@! TO.P,R22,1*
G04 #@! TO.N,Net-(U2-BOOT0)*
X66750000Y-114510000D03*
G04 #@! TO.P,R22,2*
G04 #@! TO.N,GND*
X66750000Y-113490000D03*
G04 #@! TD*
D27*
G04 #@! TO.P,R21,1*
G04 #@! TO.N,I2C_3_SDA*
X69000000Y-101890000D03*
G04 #@! TO.P,R21,2*
G04 #@! TO.N,GND*
X69000000Y-102910000D03*
G04 #@! TD*
D17*
G04 #@! TO.P,C3,1*
G04 #@! TO.N,GND*
X64980000Y-128500000D03*
G04 #@! TO.P,C3,2*
G04 #@! TO.N,Net-(U1-REGOUT)*
X64020000Y-128500000D03*
G04 #@! TD*
G04 #@! TO.P,C4,1*
G04 #@! TO.N,+3V3*
X64980000Y-129500000D03*
G04 #@! TO.P,C4,2*
G04 #@! TO.N,Net-(IC1-EN)*
X64020000Y-129500000D03*
G04 #@! TD*
D20*
G04 #@! TO.P,C31,1*
G04 #@! TO.N,+3V3USB*
X81270000Y-128750000D03*
G04 #@! TO.P,C31,2*
G04 #@! TO.N,GND*
X82230000Y-128750000D03*
G04 #@! TD*
G04 #@! TO.P,C23,1*
G04 #@! TO.N,+3V3*
X72020000Y-106750000D03*
G04 #@! TO.P,C23,2*
G04 #@! TO.N,GND*
X72980000Y-106750000D03*
G04 #@! TD*
D31*
G04 #@! TO.P,J2,1,DAT2*
G04 #@! TO.N,unconnected-(J2-DAT2-Pad1)*
X76775000Y-118275000D03*
G04 #@! TO.P,J2,2,DAT3/CD*
G04 #@! TO.N,Net-(J2-DAT3{slash}CD)*
X76775000Y-117175000D03*
G04 #@! TO.P,J2,3,CMD*
G04 #@! TO.N,Net-(J2-CMD)*
X76775000Y-116075000D03*
G04 #@! TO.P,J2,4,VDD*
G04 #@! TO.N,Net-(J2-VDD)*
X76775000Y-114975000D03*
G04 #@! TO.P,J2,5,CLK*
G04 #@! TO.N,Net-(J2-CLK)*
X76775000Y-113875000D03*
G04 #@! TO.P,J2,6,VSS*
G04 #@! TO.N,Net-(J2-VSS)*
X76775000Y-112775000D03*
G04 #@! TO.P,J2,7,DAT0*
G04 #@! TO.N,Net-(J2-DAT0)*
X76775000Y-111675000D03*
G04 #@! TO.P,J2,8,DAT1*
G04 #@! TO.N,unconnected-(J2-DAT1-Pad8)*
X76775000Y-110575000D03*
G04 #@! TO.P,J2,9,DET*
G04 #@! TO.N,/SD_DET*
X76775000Y-109625000D03*
D32*
G04 #@! TO.P,J2,10,SHIELD*
G04 #@! TO.N,GND*
X87275000Y-108675000D03*
D33*
G04 #@! TO.P,J2,11*
G04 #@! TO.N,N/C*
X91425000Y-108675000D03*
D34*
X81075000Y-108675000D03*
X76775000Y-119825000D03*
D35*
X91875000Y-122175000D03*
G04 #@! TD*
D27*
G04 #@! TO.P,R20,1*
G04 #@! TO.N,I2C_3_SCL*
X70000000Y-101890000D03*
G04 #@! TO.P,R20,2*
G04 #@! TO.N,GND*
X70000000Y-102910000D03*
G04 #@! TD*
D25*
G04 #@! TO.P,C17,1*
G04 #@! TO.N,GND*
X71250000Y-116730000D03*
G04 #@! TO.P,C17,2*
G04 #@! TO.N,Net-(C16-Pad2)*
X71250000Y-115770000D03*
G04 #@! TD*
D20*
G04 #@! TO.P,C22,1*
G04 #@! TO.N,+3V3*
X72020000Y-107750000D03*
G04 #@! TO.P,C22,2*
G04 #@! TO.N,GND*
X72980000Y-107750000D03*
G04 #@! TD*
D36*
G04 #@! TO.P,FB1,1*
G04 #@! TO.N,+3V3*
X73212500Y-123500000D03*
G04 #@! TO.P,FB1,2*
G04 #@! TO.N,Net-(U2-VDDA)*
X74787500Y-123500000D03*
G04 #@! TD*
D25*
G04 #@! TO.P,C36,1*
G04 #@! TO.N,/HSE_IN*
X66000000Y-122230000D03*
G04 #@! TO.P,C36,2*
G04 #@! TO.N,GND*
X66000000Y-121270000D03*
G04 #@! TD*
D28*
G04 #@! TO.P,R6,1*
G04 #@! TO.N,+3V3*
X72260000Y-110000000D03*
G04 #@! TO.P,R6,2*
G04 #@! TO.N,/RESET*
X71240000Y-110000000D03*
G04 #@! TD*
D20*
G04 #@! TO.P,C9,1*
G04 #@! TO.N,+3V3*
X66520000Y-118250000D03*
G04 #@! TO.P,C9,2*
G04 #@! TO.N,GND*
X67480000Y-118250000D03*
G04 #@! TD*
D26*
G04 #@! TO.P,C24,1*
G04 #@! TO.N,+3V3*
X67750000Y-115770000D03*
G04 #@! TO.P,C24,2*
G04 #@! TO.N,GND*
X67750000Y-116730000D03*
G04 #@! TD*
D27*
G04 #@! TO.P,R8,1*
G04 #@! TO.N,Net-(J35-CC1)*
X74500000Y-126990000D03*
G04 #@! TO.P,R8,2*
G04 #@! TO.N,GND*
X74500000Y-128010000D03*
G04 #@! TD*
D37*
G04 #@! TO.N,I2C_3_SCL*
X70896446Y-102603554D03*
G04 #@! TO.N,+3V3*
X87000000Y-103800000D03*
G04 #@! TO.N,GND*
X92500000Y-124250000D03*
X78500000Y-100500000D03*
X63500000Y-120500000D03*
X65228561Y-120829112D03*
X92250000Y-112750000D03*
X68750000Y-103750000D03*
X57750000Y-103250000D03*
X67500000Y-100750000D03*
X68250000Y-101500000D03*
X59500000Y-113250000D03*
X66750000Y-100750000D03*
X87250000Y-108750000D03*
X61000000Y-100750000D03*
X57500000Y-112750000D03*
X64750000Y-104500000D03*
X85750000Y-106000000D03*
X67500000Y-108000000D03*
X63750000Y-114000000D03*
X67250000Y-94850000D03*
X66750000Y-101500000D03*
X77750000Y-97500000D03*
X85500000Y-95500000D03*
X73465000Y-112679759D03*
X61500000Y-115750000D03*
X76925000Y-108750000D03*
X69000000Y-106500000D03*
X92250000Y-111000000D03*
X88500000Y-100750000D03*
X57750000Y-120750000D03*
X92125000Y-114675000D03*
X90000000Y-119500000D03*
X79401024Y-115635616D03*
X58000000Y-118750000D03*
X89000000Y-114750000D03*
X82000000Y-97750000D03*
X60000000Y-108750000D03*
X87000000Y-115000000D03*
X75000000Y-111500000D03*
X89250000Y-109000000D03*
X73800000Y-119200000D03*
X67500000Y-101500000D03*
X60250000Y-116500000D03*
X59250000Y-110500000D03*
X68750000Y-96750000D03*
X92250000Y-102500000D03*
X65762001Y-118918978D03*
X83750000Y-116500000D03*
X92250000Y-105250000D03*
X67765276Y-126003058D03*
X68000000Y-120250000D03*
X60000000Y-123000000D03*
X68250000Y-100750000D03*
X60000000Y-115000000D03*
X66000000Y-101500000D03*
X71000000Y-103750000D03*
X79250000Y-96250000D03*
X89750000Y-122000000D03*
X63250000Y-99000000D03*
X90250000Y-111875000D03*
X65250000Y-127750000D03*
X76497858Y-102788794D03*
X57750000Y-104500000D03*
X79000000Y-119490000D03*
X87000000Y-122750000D03*
X89000000Y-106750000D03*
X79000000Y-111750000D03*
X63250000Y-94500000D03*
X90250000Y-113250000D03*
X60000000Y-107000000D03*
X78000000Y-115750000D03*
X87500000Y-124000000D03*
X79250000Y-94250000D03*
X67750000Y-112248999D03*
X84250000Y-129700000D03*
X65000000Y-99250000D03*
X70250000Y-105000000D03*
X65500000Y-97500000D03*
X72980000Y-107750000D03*
X63750000Y-96750000D03*
X70000000Y-98000000D03*
X83750000Y-114000000D03*
X75500000Y-98500000D03*
X66000000Y-100750000D03*
X84750000Y-98500000D03*
X66750000Y-98750000D03*
X84000000Y-117500000D03*
X85250000Y-103250000D03*
X62750000Y-115000000D03*
X89750000Y-117000000D03*
X62500000Y-124000000D03*
X71550000Y-121980000D03*
X70250000Y-116750000D03*
X64000000Y-100750000D03*
X86750000Y-106500000D03*
X84000000Y-107750000D03*
X67103554Y-123396446D03*
X57500000Y-110750000D03*
X65476392Y-115952785D03*
X84750000Y-126000000D03*
X78500000Y-103250000D03*
X82000000Y-125399020D03*
X87250000Y-117000000D03*
X81750000Y-95500000D03*
G04 #@! TO.N,+3V3*
X86750000Y-129500000D03*
X83400000Y-106750000D03*
X59750000Y-119778000D03*
X86750000Y-128500000D03*
X71371075Y-114480000D03*
X66750000Y-127750000D03*
X66000000Y-111500000D03*
X79250000Y-114850000D03*
X70770000Y-123250000D03*
X62750000Y-128899997D03*
X89750000Y-118250000D03*
X73250000Y-110000000D03*
X71550003Y-108000000D03*
X70400000Y-117676000D03*
X65250000Y-103235000D03*
X66500000Y-120250000D03*
X73250000Y-102000000D03*
X63358554Y-112858554D03*
X63000000Y-104250000D03*
X89750000Y-110750000D03*
X73250000Y-123250000D03*
X67750000Y-115770000D03*
G04 #@! TO.N,+1V8*
X69150000Y-123500000D03*
G04 #@! TO.N,Net-(U1-REGOUT)*
X66017484Y-127524239D03*
G04 #@! TO.N,Net-(IC1-EN)*
X62750000Y-129700000D03*
G04 #@! TO.N,/RESET*
X74250000Y-108000000D03*
X71250000Y-110000002D03*
X74250000Y-116500000D03*
G04 #@! TO.N,Net-(U2-VDDA)*
X77500000Y-121250000D03*
G04 #@! TO.N,Net-(C16-Pad2)*
X71250000Y-115770000D03*
G04 #@! TO.N,+3V3USB*
X85000000Y-111500000D03*
X85575000Y-109000000D03*
X76000000Y-99750000D03*
G04 #@! TO.N,+VBUS*
X73148000Y-125515636D03*
G04 #@! TO.N,I2C_1_SCL*
X64750000Y-116700000D03*
X62500000Y-117500000D03*
X64750000Y-118250000D03*
G04 #@! TO.N,Net-(IC2-SDA_A)*
X64250000Y-123000000D03*
X67511070Y-126770119D03*
G04 #@! TO.N,Net-(IC2-SCL_A)*
X65000000Y-122419571D03*
X68524144Y-127548286D03*
G04 #@! TO.N,I2C_1_SDA*
X66109285Y-112859285D03*
X63274265Y-117798035D03*
G04 #@! TO.N,/SWCLK*
X70700001Y-106991736D03*
G04 #@! TO.N,/SWDIO*
X75519731Y-104730269D03*
X72250000Y-105000000D03*
G04 #@! TO.N,/SD_DET*
X78000000Y-115000000D03*
G04 #@! TO.N,I2C_2_SCL*
X62562500Y-109562500D03*
X63750000Y-106750000D03*
X75675861Y-109245639D03*
G04 #@! TO.N,I2C_2_SDA*
X64799264Y-106700736D03*
X78695047Y-107466577D03*
X63000000Y-111750000D03*
G04 #@! TO.N,I2C_3_SDA*
X73791177Y-103708823D03*
X62775815Y-103030805D03*
G04 #@! TO.N,I2C_3_SCL*
X62553582Y-101553582D03*
G04 #@! TO.N,USART3_TX*
X82500000Y-109750000D03*
X84500000Y-112850000D03*
X78500000Y-110350000D03*
X83750000Y-111650000D03*
G04 #@! TO.N,/FL_PWM*
X75750000Y-119000000D03*
G04 #@! TO.N,/BL_PWM*
X79250000Y-113000000D03*
X85750000Y-122000000D03*
X83600000Y-121250000D03*
G04 #@! TO.N,/FR_PWM*
X70580442Y-113523362D03*
G04 #@! TO.N,/BR_PWM*
X86250000Y-110500000D03*
X86325201Y-108722148D03*
X85975000Y-113875000D03*
G04 #@! TO.N,Net-(U2-BOOT0)*
X66650000Y-114700000D03*
G04 #@! TO.N,/SPI1_MISO*
X72109381Y-113276825D03*
G04 #@! TO.N,/SD_CS*
X72000000Y-116250000D03*
G04 #@! TO.N,/SPI2_MOSI*
X70600000Y-112685852D03*
G04 #@! TO.N,/SPI1_SCK*
X72061206Y-114075376D03*
G04 #@! TO.N,/USB to UART/D+*
X74650000Y-125631427D03*
X75850000Y-125328013D03*
G04 #@! TO.N,Net-(J35-CC1)*
X74500000Y-126990000D03*
G04 #@! TO.N,Net-(J35-CC2)*
X75500000Y-126990000D03*
G04 #@! TO.N,/USART2_RX*
X85902852Y-123363961D03*
X85601000Y-119250000D03*
G04 #@! TO.N,/USART2_TX*
X86750000Y-123500000D03*
X84000000Y-122200000D03*
X81250000Y-119750000D03*
G04 #@! TO.N,/HSE_OUT*
X74850002Y-119000000D03*
G04 #@! TO.N,/HSE_IN*
X73800000Y-121000000D03*
G04 #@! TD*
D38*
G04 #@! TO.N,I2C_3_SCL*
X70182892Y-101890000D02*
X70896446Y-102603554D01*
X70000000Y-101890000D02*
X70182892Y-101890000D01*
G04 #@! TO.N,I2C_3_SDA*
X69000000Y-101890000D02*
X69000000Y-100149000D01*
D39*
X63251057Y-100149000D02*
X69000000Y-100149000D01*
D40*
G04 #@! TO.N,+3V3*
X87228000Y-104028000D02*
X90250000Y-104028000D01*
X87000000Y-103800000D02*
X87228000Y-104028000D01*
D39*
G04 #@! TO.N,I2C_3_SDA*
X73750000Y-103750000D02*
X73791177Y-103708823D01*
X69149000Y-100149000D02*
X71772700Y-102772700D01*
X72772700Y-102772700D02*
X73750000Y-103750000D01*
X61149000Y-102251057D02*
X63251057Y-100149000D01*
X61149000Y-102899000D02*
X61149000Y-102251057D01*
X69000000Y-100149000D02*
X69149000Y-100149000D01*
X61280805Y-103030805D02*
X61149000Y-102899000D01*
X62775815Y-103030805D02*
X61280805Y-103030805D01*
X71772700Y-102772700D02*
X72772700Y-102772700D01*
G04 #@! TO.N,/BR_PWM*
X86250000Y-113500000D02*
X86250000Y-110500000D01*
X85975000Y-113875000D02*
X85975000Y-113775000D01*
X85975000Y-113775000D02*
X86250000Y-113500000D01*
D38*
G04 #@! TO.N,/USART2_TX*
X84200000Y-121000000D02*
X83450000Y-120250000D01*
X84200000Y-122000000D02*
X84200000Y-121000000D01*
X83450000Y-120250000D02*
X81750000Y-120250000D01*
X81750000Y-120250000D02*
X81250000Y-119750000D01*
X84000000Y-122200000D02*
X84200000Y-122000000D01*
D39*
G04 #@! TO.N,/BL_PWM*
X78750000Y-113500000D02*
X79250000Y-113000000D01*
X78750000Y-114000000D02*
X78750000Y-113500000D01*
X78649000Y-114101000D02*
X78750000Y-114000000D01*
X78649000Y-117963649D02*
X78649000Y-114101000D01*
X81935351Y-121250000D02*
X78649000Y-117963649D01*
X83600000Y-121250000D02*
X81935351Y-121250000D01*
D38*
G04 #@! TO.N,+3V3*
X70401000Y-117675000D02*
X71825000Y-117675000D01*
X70400000Y-117676000D02*
X70401000Y-117675000D01*
X71825000Y-117675000D02*
X72500000Y-117000000D01*
D39*
G04 #@! TO.N,GND*
X73215000Y-113880000D02*
X73465000Y-114130000D01*
X84230000Y-129720000D02*
X84250000Y-129700000D01*
X65250000Y-128230000D02*
X64980000Y-128500000D01*
D38*
X73460000Y-115535000D02*
X73465000Y-115530000D01*
X71500000Y-121930000D02*
X71550000Y-121980000D01*
D39*
X66000000Y-116250000D02*
X65702785Y-115952785D01*
D38*
X73460000Y-117000000D02*
X73460000Y-115535000D01*
D39*
X71250000Y-116730000D02*
X71371000Y-116851000D01*
X67765276Y-126003058D02*
X67765276Y-125334724D01*
X67250000Y-123250000D02*
X67790000Y-123250000D01*
X75500000Y-128010000D02*
X74500000Y-128010000D01*
X67103554Y-123396446D02*
X67250000Y-123250000D01*
X66480000Y-116730000D02*
X66000000Y-116250000D01*
X71230000Y-116750000D02*
X71250000Y-116730000D01*
X72980000Y-107750000D02*
X72980000Y-106750000D01*
X82230000Y-129720000D02*
X82230000Y-128750000D01*
X67750000Y-116730000D02*
X70230000Y-116730000D01*
D38*
X71730000Y-123825000D02*
X70680000Y-124875000D01*
D39*
X59750000Y-102222000D02*
X59750000Y-102250000D01*
X73465000Y-113430000D02*
X73465000Y-112679759D01*
X67750000Y-116730000D02*
X66480000Y-116730000D01*
D38*
X65669449Y-121270000D02*
X65228561Y-120829112D01*
X66000000Y-121270000D02*
X65669449Y-121270000D01*
D39*
X70250000Y-116750000D02*
X71230000Y-116750000D01*
X87275000Y-108725000D02*
X87250000Y-108750000D01*
X66750000Y-113490000D02*
X67740000Y-113490000D01*
X70230000Y-116730000D02*
X70250000Y-116750000D01*
X82230000Y-129720000D02*
X84230000Y-129720000D01*
X71925000Y-129075000D02*
X70680000Y-129075000D01*
X72840000Y-113880000D02*
X73215000Y-113880000D01*
X61000000Y-128000000D02*
X60000000Y-127000000D01*
D38*
X85500000Y-125222000D02*
X85500000Y-125250000D01*
D39*
X67740000Y-113490000D02*
X67750000Y-113500000D01*
X73250000Y-128135000D02*
X74375000Y-128135000D01*
X73250000Y-128135000D02*
X72865000Y-128135000D01*
D38*
X71500000Y-121000000D02*
X71500000Y-121930000D01*
D39*
X72865000Y-128135000D02*
X71925000Y-129075000D01*
X67480000Y-118250000D02*
X67480000Y-119250000D01*
D38*
X85500000Y-125250000D02*
X84750000Y-126000000D01*
D39*
X74375000Y-128135000D02*
X74500000Y-128010000D01*
X64260000Y-111250000D02*
X62135000Y-113375000D01*
X70730000Y-124825000D02*
X70680000Y-124875000D01*
X67750000Y-113500000D02*
X67750000Y-112248999D01*
X62135000Y-113375000D02*
X61750000Y-113375000D01*
X65250000Y-127750000D02*
X65270000Y-127750000D01*
D38*
X66000000Y-121270000D02*
X66940000Y-121270000D01*
D41*
X88222000Y-125222000D02*
X90000000Y-127000000D01*
D39*
X64260000Y-110250000D02*
X64260000Y-111250000D01*
X67790000Y-125310000D02*
X67790000Y-123250000D01*
X87275000Y-108675000D02*
X87275000Y-108725000D01*
X65270000Y-127750000D02*
X66020000Y-128500000D01*
X65702785Y-115952785D02*
X65476392Y-115952785D01*
X65250000Y-127750000D02*
X65250000Y-128230000D01*
D41*
X85500000Y-125222000D02*
X88222000Y-125222000D01*
D39*
X67765276Y-125334724D02*
X67790000Y-125310000D01*
D38*
X71730000Y-123250000D02*
X71730000Y-123825000D01*
D39*
G04 #@! TO.N,+3V3*
X61500000Y-104250000D02*
X61250000Y-104000000D01*
X74240000Y-110000000D02*
X73250000Y-110000000D01*
X72020000Y-107530003D02*
X72020000Y-106750000D01*
D41*
X85500000Y-127000000D02*
X85556774Y-127000000D01*
D39*
X71371077Y-114480000D02*
X71571077Y-114680000D01*
X65980000Y-129500000D02*
X66980000Y-128500000D01*
X67750000Y-115770000D02*
X68750000Y-115770000D01*
X63000000Y-104250000D02*
X61500000Y-104250000D01*
D41*
X85556774Y-127000000D02*
X86750000Y-128193226D01*
X86750000Y-128193226D02*
X86750000Y-128500000D01*
D38*
X73212500Y-123500000D02*
X73212500Y-123287500D01*
D39*
X71571077Y-114680000D02*
X72840000Y-114680000D01*
X66750000Y-127750000D02*
X66750000Y-127858968D01*
X66520000Y-118250000D02*
X66520000Y-119250000D01*
D38*
X73212500Y-123287500D02*
X73250000Y-123250000D01*
D39*
X71550003Y-108000000D02*
X72020000Y-107530003D01*
X66980000Y-128088968D02*
X66980000Y-128500000D01*
X66500000Y-119270000D02*
X66520000Y-119250000D01*
X72260000Y-110000000D02*
X73250000Y-110000000D01*
D41*
X86750000Y-128500000D02*
X86750000Y-129500000D01*
D39*
X71371075Y-114480000D02*
X71371077Y-114480000D01*
X66750000Y-127858968D02*
X66980000Y-128088968D01*
X64980000Y-129500000D02*
X65980000Y-129500000D01*
X61250000Y-104000000D02*
X59750000Y-104000000D01*
X66500000Y-120250000D02*
X66500000Y-119270000D01*
G04 #@! TO.N,+1V8*
X68750000Y-125310000D02*
X68750000Y-123250000D01*
X68960000Y-123690000D02*
X68750000Y-123690000D01*
X69150000Y-123500000D02*
X68960000Y-123690000D01*
G04 #@! TO.N,Net-(U1-REGOUT)*
X65001057Y-127149000D02*
X64020000Y-128130057D01*
X64020000Y-128130057D02*
X64020000Y-128500000D01*
X65642245Y-127149000D02*
X65001057Y-127149000D01*
X66017484Y-127524239D02*
X65642245Y-127149000D01*
G04 #@! TO.N,Net-(IC1-EN)*
X64020000Y-129500000D02*
X62950000Y-129500000D01*
X62950000Y-129500000D02*
X62750000Y-129700000D01*
D38*
G04 #@! TO.N,/RESET*
X71249998Y-110000000D02*
X71250000Y-110000002D01*
X71240000Y-110000000D02*
X71249998Y-110000000D01*
X74250000Y-108000000D02*
X74531000Y-107719000D01*
X77281000Y-107719000D02*
X83000000Y-102000000D01*
X74531000Y-107719000D02*
X77281000Y-107719000D01*
G04 #@! TO.N,Net-(U2-VDDA)*
X74787500Y-123500000D02*
X74787500Y-122750000D01*
X76287500Y-121250000D02*
X77500000Y-121250000D01*
X74787500Y-122750000D02*
X76287500Y-121250000D01*
D39*
G04 #@! TO.N,Net-(C16-Pad2)*
X71250000Y-115770000D02*
X70270000Y-115770000D01*
X70270000Y-115770000D02*
X70250000Y-115790000D01*
G04 #@! TO.N,+3V3USB*
X81270000Y-129720000D02*
X81270000Y-128750000D01*
X81500000Y-127250000D02*
X81500000Y-128520000D01*
X84500000Y-106500000D02*
X85575000Y-107575000D01*
X77000000Y-98750000D02*
X77648000Y-98750000D01*
X85575000Y-107575000D02*
X85575000Y-109000000D01*
X83449000Y-100949000D02*
X84500000Y-102000000D01*
X85101000Y-122899000D02*
X82601000Y-125399000D01*
X82248943Y-126000020D02*
X81999980Y-126000020D01*
X81500000Y-128520000D02*
X81270000Y-128750000D01*
X76000000Y-99750000D02*
X77000000Y-98750000D01*
X81999980Y-126000020D02*
X81500000Y-126500000D01*
X84500000Y-102000000D02*
X84500000Y-106500000D01*
X82601000Y-125399000D02*
X82601000Y-125647963D01*
X81500000Y-126500000D02*
X81500000Y-127250000D01*
X85101000Y-111601000D02*
X85101000Y-122899000D01*
X82601000Y-125647963D02*
X82248943Y-126000020D01*
X85000000Y-111500000D02*
X85101000Y-111601000D01*
X79847000Y-100949000D02*
X83449000Y-100949000D01*
X77648000Y-98750000D02*
X79847000Y-100949000D01*
G04 #@! TO.N,+VBUS*
X69222215Y-129000000D02*
X68500000Y-129000000D01*
X73250000Y-125617636D02*
X73250000Y-127250000D01*
X73148000Y-125515636D02*
X73250000Y-125617636D01*
X70972215Y-127250000D02*
X69222215Y-129000000D01*
X73250000Y-127250000D02*
X70972215Y-127250000D01*
G04 #@! TO.N,I2C_1_SCL*
X63065744Y-118298035D02*
X63066744Y-118299035D01*
X63774265Y-117725735D02*
X63774265Y-118298035D01*
X63481786Y-118299035D02*
X63482786Y-118298035D01*
X63000000Y-118232291D02*
X63000000Y-118250000D01*
X63482786Y-118298035D02*
X63774265Y-118298035D01*
X62773265Y-118005556D02*
X63000000Y-118232291D01*
X63048035Y-118298035D02*
X63065744Y-118298035D01*
X63066744Y-118299035D02*
X63481786Y-118299035D01*
X64701965Y-118298035D02*
X64750000Y-118250000D01*
X64750000Y-116700000D02*
X64750000Y-116750000D01*
X64750000Y-116750000D02*
X63774265Y-117725735D01*
X63774265Y-118298035D02*
X64701965Y-118298035D01*
X62500000Y-117500000D02*
X62773265Y-117773265D01*
X63000000Y-118250000D02*
X63048035Y-118298035D01*
X62773265Y-117773265D02*
X62773265Y-118005556D01*
G04 #@! TO.N,Net-(IC2-SDA_A)*
X64750057Y-123019571D02*
X64751057Y-123020571D01*
X67000000Y-126259049D02*
X67511070Y-126770119D01*
X67000000Y-124000000D02*
X67000000Y-126259049D01*
X64250000Y-123000000D02*
X64269571Y-123019571D01*
X65249943Y-123019571D02*
X66019571Y-123019571D01*
X65248943Y-123020571D02*
X65249943Y-123019571D01*
X64269571Y-123019571D02*
X64750057Y-123019571D01*
X64751057Y-123020571D02*
X65248943Y-123020571D01*
X66019571Y-123019571D02*
X67000000Y-124000000D01*
G04 #@! TO.N,Net-(IC2-SCL_A)*
X66458521Y-126750000D02*
X64857164Y-126750000D01*
X63749000Y-125641836D02*
X63749000Y-122751000D01*
X63749000Y-122751000D02*
X64080429Y-122419571D01*
X68524144Y-127548286D02*
X67256807Y-127548286D01*
X64080429Y-122419571D02*
X65000000Y-122419571D01*
X67256807Y-127548286D02*
X66458521Y-126750000D01*
X64857164Y-126750000D02*
X63749000Y-125641836D01*
G04 #@! TO.N,I2C_1_SDA*
X63274265Y-117798035D02*
X63274265Y-117774265D01*
X66109285Y-113140715D02*
X66109285Y-112859285D01*
X63000000Y-116250000D02*
X66109285Y-113140715D01*
X63000000Y-117500000D02*
X63000000Y-116250000D01*
X63274265Y-117774265D02*
X63000000Y-117500000D01*
D38*
G04 #@! TO.N,/SWCLK*
X71432737Y-106259000D02*
X76201000Y-106259000D01*
X76201000Y-106259000D02*
X80460000Y-102000000D01*
X70700001Y-106991736D02*
X71432737Y-106259000D01*
G04 #@! TO.N,/SWDIO*
X73019731Y-104730269D02*
X73000000Y-104750000D01*
X75519731Y-104730269D02*
X73019731Y-104730269D01*
X72500000Y-104750000D02*
X72250000Y-105000000D01*
X73000000Y-104750000D02*
X72500000Y-104750000D01*
D39*
G04 #@! TO.N,Net-(J2-VDD)*
X76480000Y-114680000D02*
X76775000Y-114975000D01*
X74090000Y-114680000D02*
X76480000Y-114680000D01*
G04 #@! TO.N,Net-(J2-CMD)*
X74090000Y-115080000D02*
X75015000Y-115080000D01*
X75015000Y-115080000D02*
X76010000Y-116075000D01*
X76010000Y-116075000D02*
X76775000Y-116075000D01*
G04 #@! TO.N,/SD_DET*
X75771443Y-110000000D02*
X75260000Y-110000000D01*
X76775000Y-109625000D02*
X76146443Y-109625000D01*
X78000000Y-114000000D02*
X78000000Y-115000000D01*
X77177000Y-109625000D02*
X78000000Y-110448000D01*
X78000000Y-110448000D02*
X78000000Y-114000000D01*
X76146443Y-109625000D02*
X75771443Y-110000000D01*
X76775000Y-109625000D02*
X77177000Y-109625000D01*
G04 #@! TO.N,Net-(J2-CLK)*
X76370000Y-114280000D02*
X76775000Y-113875000D01*
X74090000Y-114280000D02*
X76370000Y-114280000D01*
G04 #@! TO.N,Net-(J2-VSS)*
X75218000Y-113880000D02*
X76323000Y-112775000D01*
X76323000Y-112775000D02*
X76775000Y-112775000D01*
X74090000Y-113880000D02*
X75218000Y-113880000D01*
G04 #@! TO.N,Net-(J2-DAT0)*
X74090000Y-113480000D02*
X74515000Y-113480000D01*
X76320000Y-111675000D02*
X76775000Y-111675000D01*
X74515000Y-113480000D02*
X76320000Y-111675000D01*
G04 #@! TO.N,Net-(J2-DAT3{slash}CD)*
X74628000Y-115480000D02*
X76323000Y-117175000D01*
X74090000Y-115480000D02*
X74628000Y-115480000D01*
X76323000Y-117175000D02*
X76775000Y-117175000D01*
G04 #@! TO.N,I2C_2_SCL*
X62562500Y-109562500D02*
X63240000Y-110240000D01*
X64000000Y-106750000D02*
X66499999Y-109250000D01*
X63240000Y-110240000D02*
X63240000Y-110250000D01*
X75671500Y-109250000D02*
X75675861Y-109245639D01*
X66499999Y-109250000D02*
X75671500Y-109250000D01*
X63750000Y-106750000D02*
X64000000Y-106750000D01*
G04 #@! TO.N,I2C_2_SDA*
X74851000Y-108949000D02*
X75800000Y-108000000D01*
X63115000Y-111635000D02*
X63115000Y-111375000D01*
X78161624Y-108000000D02*
X78695047Y-107466577D01*
X63000000Y-111750000D02*
X63115000Y-111635000D01*
X67047528Y-108949000D02*
X74851000Y-108949000D01*
X75800000Y-108000000D02*
X78161624Y-108000000D01*
X64799264Y-106700736D02*
X67047528Y-108949000D01*
X63115000Y-111375000D02*
X63240000Y-111250000D01*
G04 #@! TO.N,I2C_3_SDA*
X62775815Y-103030805D02*
X62775815Y-102964185D01*
G04 #@! TO.N,I2C_3_SCL*
X62553582Y-101696418D02*
X62553582Y-101553582D01*
G04 #@! TO.N,USART3_TX*
X82000000Y-109750000D02*
X82500000Y-109750000D01*
X79100000Y-109750000D02*
X82000000Y-109750000D01*
X83750000Y-111650000D02*
X83750000Y-112000000D01*
X84250000Y-112500000D02*
X84500000Y-112750000D01*
X84500000Y-112750000D02*
X84500000Y-112850000D01*
X78500000Y-110350000D02*
X79100000Y-109750000D01*
X83750000Y-112000000D02*
X84250000Y-112500000D01*
G04 #@! TO.N,/FL_PWM*
X64001000Y-119972872D02*
X62735649Y-119972872D01*
X67765128Y-117739000D02*
X66234872Y-117739000D01*
X75750000Y-119000000D02*
X74926000Y-118176000D01*
X59750000Y-121278000D02*
X60350000Y-121878000D01*
X62735649Y-119972872D02*
X61152521Y-121556000D01*
X68202128Y-118176000D02*
X67765128Y-117739000D01*
X66234872Y-117739000D02*
X64001000Y-119972872D01*
X74926000Y-118176000D02*
X68202128Y-118176000D01*
X61152521Y-121556000D02*
X59750000Y-121556000D01*
G04 #@! TO.N,/BL_PWM*
X85502000Y-122248000D02*
X85750000Y-122000000D01*
X84250000Y-127528000D02*
X84250000Y-124317100D01*
X85502000Y-123065100D02*
X85502000Y-122248000D01*
X84250000Y-124317100D02*
X85502000Y-123065100D01*
X85500000Y-128778000D02*
X84250000Y-127528000D01*
G04 #@! TO.N,/FR_PWM*
X70557080Y-113500000D02*
X70580442Y-113523362D01*
X68496999Y-111647999D02*
X70349000Y-113500000D01*
X62128000Y-106378000D02*
X67397999Y-111647999D01*
X59750000Y-105778000D02*
X60350000Y-106378000D01*
X67397999Y-111647999D02*
X68496999Y-111647999D01*
X60350000Y-106378000D02*
X62128000Y-106378000D01*
X70349000Y-113500000D02*
X70557080Y-113500000D01*
G04 #@! TO.N,/BR_PWM*
X88444000Y-105806000D02*
X86325201Y-107924799D01*
X90250000Y-105806000D02*
X88444000Y-105806000D01*
X86325201Y-107924799D02*
X86325201Y-108722148D01*
G04 #@! TO.N,Net-(U2-BOOT0)*
X66750000Y-114510000D02*
X67700000Y-114510000D01*
X67700000Y-114510000D02*
X67750000Y-114460000D01*
X66750000Y-114510000D02*
X66750000Y-114600000D01*
X66750000Y-114600000D02*
X66650000Y-114700000D01*
G04 #@! TO.N,/SPI1_MISO*
X72840000Y-113480000D02*
X72312556Y-113480000D01*
X72312556Y-113480000D02*
X72109381Y-113276825D01*
G04 #@! TO.N,/SD_CS*
X72103070Y-115480000D02*
X72840000Y-115480000D01*
X72000000Y-116250000D02*
X72000000Y-115583070D01*
X72000000Y-115583070D02*
X72103070Y-115480000D01*
G04 #@! TO.N,/SPI2_MOSI*
X71181442Y-113267294D02*
X71181442Y-113772305D01*
X71080000Y-115080000D02*
X72840000Y-115080000D01*
X70750000Y-114203747D02*
X70750000Y-114750000D01*
X70600000Y-112685852D02*
X71181442Y-113267294D01*
X70750000Y-114750000D02*
X71080000Y-115080000D01*
X71181442Y-113772305D02*
X70750000Y-114203747D01*
G04 #@! TO.N,/SPI1_SCK*
X72061206Y-114075376D02*
X72197318Y-114211488D01*
X72197318Y-114211488D02*
X72197318Y-114260736D01*
X72197318Y-114260736D02*
X72216582Y-114280000D01*
X72216582Y-114280000D02*
X72840000Y-114280000D01*
G04 #@! TO.N,/USB to UART/D+*
X75850000Y-125328013D02*
X74953414Y-125328013D01*
X74953414Y-125328013D02*
X74650000Y-125631427D01*
D38*
G04 #@! TO.N,/USART2_RX*
X85902852Y-123363961D02*
X86231000Y-123035813D01*
X86231000Y-123035813D02*
X86231000Y-119880000D01*
X86231000Y-119880000D02*
X85601000Y-119250000D01*
G04 #@! TO.N,/HSE_OUT*
X74631000Y-118469000D02*
X74850002Y-118688002D01*
X74500000Y-118469000D02*
X74631000Y-118469000D01*
X70711000Y-118469000D02*
X74500000Y-118469000D01*
X74850002Y-118688002D02*
X74850002Y-119000000D01*
X67940000Y-121240000D02*
X70711000Y-118469000D01*
G04 #@! TO.N,/HSE_IN*
X66520000Y-122750000D02*
X72050000Y-122750000D01*
X72050000Y-122750000D02*
X73800000Y-121000000D01*
X66000000Y-122230000D02*
X66520000Y-122750000D01*
G04 #@! TO.N,Net-(Y2-IN{slash}OUT)*
X67940000Y-122260000D02*
X66970000Y-122260000D01*
X71500000Y-119200000D02*
X68440000Y-122260000D01*
X68440000Y-122260000D02*
X67940000Y-122260000D01*
X66970000Y-122260000D02*
X66940000Y-122230000D01*
G04 #@! TD*
G04 #@! TA.AperFunction,Conductor*
G04 #@! TO.N,GND*
G36*
X78080701Y-118193968D02*
G01*
X78106886Y-118225681D01*
X78168477Y-118332361D01*
X78168481Y-118332366D01*
X78287349Y-118451234D01*
X78287355Y-118451239D01*
X81450490Y-121614374D01*
X81450500Y-121614385D01*
X81454830Y-121618715D01*
X81454831Y-121618716D01*
X81566635Y-121730520D01*
X81645297Y-121775935D01*
X81703566Y-121809577D01*
X81856294Y-121850500D01*
X83020234Y-121850500D01*
X83038379Y-121855828D01*
X83057288Y-121856166D01*
X83085503Y-121869665D01*
X83087273Y-121870185D01*
X83089125Y-121871398D01*
X83161512Y-121919766D01*
X83206317Y-121973379D01*
X83215024Y-122042704D01*
X83214239Y-122047058D01*
X83199500Y-122121158D01*
X83199500Y-122278846D01*
X83230261Y-122433489D01*
X83230264Y-122433501D01*
X83290602Y-122579172D01*
X83290609Y-122579185D01*
X83378210Y-122710288D01*
X83378213Y-122710292D01*
X83489707Y-122821786D01*
X83489711Y-122821789D01*
X83620814Y-122909390D01*
X83620827Y-122909397D01*
X83689194Y-122937715D01*
X83766503Y-122969737D01*
X83812328Y-122978852D01*
X83884722Y-122993253D01*
X83946633Y-123025638D01*
X83981208Y-123086354D01*
X83977468Y-123156123D01*
X83948212Y-123202551D01*
X82232286Y-124918478D01*
X82120481Y-125030282D01*
X82120479Y-125030285D01*
X82110380Y-125047778D01*
X82087364Y-125087643D01*
X82041423Y-125167215D01*
X82002212Y-125313551D01*
X81995964Y-125323799D01*
X81993975Y-125335635D01*
X81978116Y-125353080D01*
X81965846Y-125373211D01*
X81953876Y-125379747D01*
X81946978Y-125387336D01*
X81914534Y-125401231D01*
X81893551Y-125406854D01*
X81893548Y-125406855D01*
X81768194Y-125440443D01*
X81768189Y-125440446D01*
X81631270Y-125519495D01*
X81631262Y-125519501D01*
X81019481Y-126131282D01*
X81019479Y-126131285D01*
X81002083Y-126161417D01*
X80975454Y-126207540D01*
X80940423Y-126268215D01*
X80901035Y-126415209D01*
X80899095Y-126420487D01*
X80881501Y-126444219D01*
X80866121Y-126469452D01*
X80862490Y-126472589D01*
X80722859Y-126612219D01*
X80613371Y-126776079D01*
X80613364Y-126776092D01*
X80537950Y-126958160D01*
X80537947Y-126958170D01*
X80499500Y-127151456D01*
X80499500Y-127151459D01*
X80499500Y-127348541D01*
X80499500Y-127348543D01*
X80499499Y-127348543D01*
X80537947Y-127541829D01*
X80537950Y-127541839D01*
X80613364Y-127723907D01*
X80613371Y-127723920D01*
X80722860Y-127887781D01*
X80722863Y-127887785D01*
X80731955Y-127896877D01*
X80765440Y-127958200D01*
X80760456Y-128027892D01*
X80731956Y-128072239D01*
X80619884Y-128184311D01*
X80619881Y-128184315D01*
X80537505Y-128323606D01*
X80537504Y-128323607D01*
X80519950Y-128384030D01*
X80482343Y-128442915D01*
X80418871Y-128472121D01*
X80349684Y-128462375D01*
X80296750Y-128416770D01*
X80282213Y-128385429D01*
X80281568Y-128383304D01*
X80206192Y-128201328D01*
X80206185Y-128201315D01*
X80096751Y-128037537D01*
X80096748Y-128037533D01*
X79957466Y-127898251D01*
X79957462Y-127898248D01*
X79793684Y-127788814D01*
X79793671Y-127788807D01*
X79611691Y-127713429D01*
X79611683Y-127713427D01*
X79570000Y-127705135D01*
X79570000Y-128508011D01*
X79560060Y-128490795D01*
X79504205Y-128434940D01*
X79435796Y-128395444D01*
X79359496Y-128375000D01*
X79280504Y-128375000D01*
X79204204Y-128395444D01*
X79135795Y-128434940D01*
X79079940Y-128490795D01*
X79070000Y-128508011D01*
X79070000Y-127705136D01*
X79069999Y-127705135D01*
X79028316Y-127713427D01*
X79028308Y-127713429D01*
X78846328Y-127788807D01*
X78846315Y-127788814D01*
X78682537Y-127898248D01*
X78682533Y-127898251D01*
X78543251Y-128037533D01*
X78543248Y-128037537D01*
X78433814Y-128201315D01*
X78433807Y-128201328D01*
X78358430Y-128383306D01*
X78358427Y-128383318D01*
X78320000Y-128576504D01*
X78320000Y-128825000D01*
X79020000Y-128825000D01*
X79020000Y-129325000D01*
X78320000Y-129325000D01*
X78320000Y-129573495D01*
X78358427Y-129766681D01*
X78358430Y-129766693D01*
X78433807Y-129948671D01*
X78433814Y-129948684D01*
X78472519Y-130006609D01*
X78493397Y-130073286D01*
X78474913Y-130140666D01*
X78422934Y-130187357D01*
X78369417Y-130199500D01*
X71630583Y-130199500D01*
X71563544Y-130179815D01*
X71517789Y-130127011D01*
X71507845Y-130057853D01*
X71527481Y-130006609D01*
X71566185Y-129948684D01*
X71566192Y-129948671D01*
X71641569Y-129766693D01*
X71641572Y-129766681D01*
X71679999Y-129573495D01*
X71680000Y-129573492D01*
X71680000Y-129325000D01*
X70980000Y-129325000D01*
X70980000Y-128825000D01*
X71680000Y-128825000D01*
X71680000Y-128576508D01*
X71679999Y-128576504D01*
X71641572Y-128383318D01*
X71641569Y-128383306D01*
X71566192Y-128201328D01*
X71566185Y-128201315D01*
X71460663Y-128043391D01*
X71439785Y-127976714D01*
X71458269Y-127909333D01*
X71510248Y-127862643D01*
X71563765Y-127850500D01*
X72281224Y-127850500D01*
X72348263Y-127870185D01*
X72357621Y-127876830D01*
X72529573Y-128011330D01*
X72533693Y-128017085D01*
X72551551Y-128033513D01*
X72564545Y-128050447D01*
X72564547Y-128050448D01*
X72564549Y-128050451D01*
X72580415Y-128062626D01*
X72621617Y-128119053D01*
X72625771Y-128188799D01*
X72591558Y-128249719D01*
X72529840Y-128282472D01*
X72504927Y-128285000D01*
X72404912Y-128285000D01*
X72414800Y-128360103D01*
X72414801Y-128360108D01*
X72472736Y-128499978D01*
X72564905Y-128620094D01*
X72685021Y-128712263D01*
X72824891Y-128770198D01*
X72824895Y-128770199D01*
X72937302Y-128784999D01*
X72937317Y-128785000D01*
X73100000Y-128785000D01*
X73100000Y-128339500D01*
X73102550Y-128330814D01*
X73101262Y-128321853D01*
X73112240Y-128297812D01*
X73119685Y-128272461D01*
X73126525Y-128266533D01*
X73130287Y-128258297D01*
X73152521Y-128244007D01*
X73172489Y-128226706D01*
X73183003Y-128224418D01*
X73189065Y-128220523D01*
X73224000Y-128215500D01*
X73276000Y-128215500D01*
X73343039Y-128235185D01*
X73388794Y-128287989D01*
X73400000Y-128339500D01*
X73400000Y-128785000D01*
X73562683Y-128785000D01*
X73562697Y-128784999D01*
X73675104Y-128770199D01*
X73675108Y-128770198D01*
X73814978Y-128712263D01*
X73840671Y-128692548D01*
X73905840Y-128667353D01*
X73974285Y-128681390D01*
X73979280Y-128684191D01*
X74060808Y-128732406D01*
X74060811Y-128732407D01*
X74214871Y-128777166D01*
X74214877Y-128777167D01*
X74250000Y-128779931D01*
X74250000Y-128779930D01*
X74750000Y-128779930D01*
X74785122Y-128777167D01*
X74785128Y-128777166D01*
X74939189Y-128732407D01*
X74946352Y-128729308D01*
X74947157Y-128731169D01*
X75004585Y-128716591D01*
X75052999Y-128730806D01*
X75053648Y-128729308D01*
X75060810Y-128732407D01*
X75214871Y-128777166D01*
X75214877Y-128777167D01*
X75250000Y-128779931D01*
X75250000Y-128779930D01*
X75750000Y-128779930D01*
X75785122Y-128777167D01*
X75785128Y-128777166D01*
X75939188Y-128732407D01*
X75939191Y-128732406D01*
X76077285Y-128650738D01*
X76077294Y-128650731D01*
X76190731Y-128537294D01*
X76190738Y-128537285D01*
X76208474Y-128507296D01*
X76272404Y-128399194D01*
X76312844Y-128260000D01*
X75750000Y-128260000D01*
X75750000Y-128779930D01*
X75250000Y-128779930D01*
X75250000Y-128260000D01*
X74750000Y-128260000D01*
X74750000Y-128779930D01*
X74250000Y-128779930D01*
X74250000Y-128308695D01*
X74140389Y-128285000D01*
X73995073Y-128285000D01*
X73928034Y-128265315D01*
X73882279Y-128212511D01*
X73872335Y-128143353D01*
X73901360Y-128079797D01*
X73919582Y-128062627D01*
X73935451Y-128050451D01*
X74027698Y-127930233D01*
X74066504Y-127836548D01*
X74079046Y-127820983D01*
X74087352Y-127802797D01*
X74100522Y-127794332D01*
X74110345Y-127782144D01*
X74129312Y-127775831D01*
X74146130Y-127765023D01*
X74173690Y-127761060D01*
X74176639Y-127760079D01*
X74181065Y-127760000D01*
X74239592Y-127760000D01*
X74249319Y-127760382D01*
X74249419Y-127760389D01*
X74250819Y-127760500D01*
X74258121Y-127760499D01*
X74282314Y-127762881D01*
X74379151Y-127782144D01*
X74421157Y-127790500D01*
X74421158Y-127790500D01*
X74578844Y-127790500D01*
X74717685Y-127762882D01*
X74738536Y-127760544D01*
X74740206Y-127760499D01*
X74749180Y-127760499D01*
X74753856Y-127760131D01*
X74757052Y-127760045D01*
X74757335Y-127760120D01*
X74760393Y-127760000D01*
X75239592Y-127760000D01*
X75249319Y-127760382D01*
X75249419Y-127760389D01*
X75250819Y-127760500D01*
X75258121Y-127760499D01*
X75282314Y-127762881D01*
X75379151Y-127782144D01*
X75421157Y-127790500D01*
X75421158Y-127790500D01*
X75578844Y-127790500D01*
X75717685Y-127762882D01*
X75738536Y-127760544D01*
X75740206Y-127760499D01*
X75749180Y-127760499D01*
X75753856Y-127760131D01*
X75757052Y-127760045D01*
X75757335Y-127760120D01*
X75760393Y-127760000D01*
X76312844Y-127760000D01*
X76272404Y-127620805D01*
X76238581Y-127563612D01*
X76221398Y-127495888D01*
X76238582Y-127437369D01*
X76272867Y-127379396D01*
X76272869Y-127379393D01*
X76317665Y-127225204D01*
X76320500Y-127189181D01*
X76320499Y-126790820D01*
X76317665Y-126754796D01*
X76272869Y-126600607D01*
X76191135Y-126462402D01*
X76191133Y-126462400D01*
X76191130Y-126462396D01*
X76077603Y-126348869D01*
X76077594Y-126348862D01*
X76040478Y-126326912D01*
X75992794Y-126275843D01*
X75980291Y-126207101D01*
X76006937Y-126142512D01*
X76064272Y-126102582D01*
X76079412Y-126098562D01*
X76083497Y-126097750D01*
X76214457Y-126043505D01*
X76229172Y-126037410D01*
X76229172Y-126037409D01*
X76229179Y-126037407D01*
X76360289Y-125949802D01*
X76471789Y-125838302D01*
X76559394Y-125707192D01*
X76562748Y-125699096D01*
X76574706Y-125670225D01*
X76619737Y-125561510D01*
X76650500Y-125406855D01*
X76650500Y-125320550D01*
X77324500Y-125320550D01*
X77324500Y-125469450D01*
X77349508Y-125562779D01*
X77363038Y-125613276D01*
X77363039Y-125613277D01*
X77437484Y-125742221D01*
X77437486Y-125742224D01*
X77437487Y-125742225D01*
X77542775Y-125847513D01*
X77542776Y-125847514D01*
X77542778Y-125847515D01*
X77591569Y-125875684D01*
X77671725Y-125921962D01*
X77815550Y-125960500D01*
X77815553Y-125960500D01*
X77964447Y-125960500D01*
X77964450Y-125960500D01*
X78108275Y-125921962D01*
X78237225Y-125847513D01*
X78237233Y-125847504D01*
X78242099Y-125843771D01*
X78307266Y-125818570D01*
X78375712Y-125832601D01*
X78425707Y-125881410D01*
X78432156Y-125894684D01*
X78433808Y-125898672D01*
X78433814Y-125898684D01*
X78543248Y-126062462D01*
X78543251Y-126062466D01*
X78682533Y-126201748D01*
X78682537Y-126201751D01*
X78846315Y-126311185D01*
X78846328Y-126311192D01*
X79028308Y-126386569D01*
X79070000Y-126394862D01*
X79070000Y-125591988D01*
X79079940Y-125609205D01*
X79135795Y-125665060D01*
X79204204Y-125704556D01*
X79280504Y-125725000D01*
X79359496Y-125725000D01*
X79435796Y-125704556D01*
X79504205Y-125665060D01*
X79560060Y-125609205D01*
X79570000Y-125591988D01*
X79570000Y-126394862D01*
X79611690Y-126386569D01*
X79611692Y-126386569D01*
X79793671Y-126311192D01*
X79793684Y-126311185D01*
X79957462Y-126201751D01*
X79957466Y-126201748D01*
X80096748Y-126062466D01*
X80096751Y-126062462D01*
X80206185Y-125898684D01*
X80206192Y-125898671D01*
X80281569Y-125716693D01*
X80281572Y-125716681D01*
X80319999Y-125523495D01*
X80320000Y-125523492D01*
X80320000Y-125125000D01*
X79620000Y-125125000D01*
X79620000Y-124625000D01*
X80320000Y-124625000D01*
X80320000Y-124226508D01*
X80319999Y-124226504D01*
X80281572Y-124033318D01*
X80281569Y-124033306D01*
X80206192Y-123851328D01*
X80206185Y-123851315D01*
X80096751Y-123687537D01*
X80096748Y-123687533D01*
X79957466Y-123548251D01*
X79957462Y-123548248D01*
X79793684Y-123438814D01*
X79793671Y-123438807D01*
X79611691Y-123363429D01*
X79611683Y-123363427D01*
X79570000Y-123355135D01*
X79570000Y-124158011D01*
X79560060Y-124140795D01*
X79504205Y-124084940D01*
X79435796Y-124045444D01*
X79359496Y-124025000D01*
X79280504Y-124025000D01*
X79204204Y-124045444D01*
X79135795Y-124084940D01*
X79079940Y-124140795D01*
X79070000Y-124158011D01*
X79070000Y-123355136D01*
X79069999Y-123355135D01*
X79028316Y-123363427D01*
X79028308Y-123363429D01*
X78846328Y-123438807D01*
X78846315Y-123438814D01*
X78682537Y-123548248D01*
X78682533Y-123548251D01*
X78543251Y-123687533D01*
X78543248Y-123687537D01*
X78433814Y-123851315D01*
X78433807Y-123851328D01*
X78358430Y-124033306D01*
X78358427Y-124033318D01*
X78320000Y-124226504D01*
X78320000Y-124625000D01*
X79020000Y-124625000D01*
X79020000Y-125125000D01*
X78458690Y-125125000D01*
X78391651Y-125105315D01*
X78351303Y-125063000D01*
X78350516Y-125061637D01*
X78342513Y-125047775D01*
X78237225Y-124942487D01*
X78237224Y-124942486D01*
X78237221Y-124942484D01*
X78108277Y-124868039D01*
X78108276Y-124868038D01*
X78072318Y-124858403D01*
X77964450Y-124829500D01*
X77815550Y-124829500D01*
X77729255Y-124852622D01*
X77671723Y-124868038D01*
X77671722Y-124868039D01*
X77542778Y-124942484D01*
X77542773Y-124942488D01*
X77437488Y-125047773D01*
X77437484Y-125047778D01*
X77363039Y-125176722D01*
X77363038Y-125176723D01*
X77356872Y-125199735D01*
X77324500Y-125320550D01*
X76650500Y-125320550D01*
X76650500Y-125249171D01*
X76650500Y-125249168D01*
X76650499Y-125249166D01*
X76648181Y-125237511D01*
X76619737Y-125094516D01*
X76600378Y-125047778D01*
X76559397Y-124948840D01*
X76559390Y-124948827D01*
X76471789Y-124817724D01*
X76471786Y-124817720D01*
X76360292Y-124706226D01*
X76360288Y-124706223D01*
X76229185Y-124618622D01*
X76229172Y-124618615D01*
X76083501Y-124558277D01*
X76083489Y-124558274D01*
X75928845Y-124527513D01*
X75928842Y-124527513D01*
X75771158Y-124527513D01*
X75771155Y-124527513D01*
X75616510Y-124558274D01*
X75616498Y-124558277D01*
X75470827Y-124618615D01*
X75470814Y-124618622D01*
X75339125Y-124706615D01*
X75272447Y-124727493D01*
X75270234Y-124727513D01*
X74874356Y-124727513D01*
X74721627Y-124768436D01*
X74671511Y-124797372D01*
X74671509Y-124797373D01*
X74642164Y-124814315D01*
X74580165Y-124830927D01*
X74571155Y-124830927D01*
X74416510Y-124861688D01*
X74416498Y-124861691D01*
X74270827Y-124922029D01*
X74270814Y-124922036D01*
X74139711Y-125009637D01*
X74026517Y-125122831D01*
X73965194Y-125156315D01*
X73895502Y-125151331D01*
X73839569Y-125109459D01*
X73835734Y-125104040D01*
X73769789Y-125005347D01*
X73769786Y-125005343D01*
X73658292Y-124893849D01*
X73658288Y-124893846D01*
X73527185Y-124806245D01*
X73527172Y-124806238D01*
X73381501Y-124745900D01*
X73381491Y-124745897D01*
X73256913Y-124721117D01*
X73195002Y-124688732D01*
X73160428Y-124628016D01*
X73164168Y-124558247D01*
X73205035Y-124501575D01*
X73270053Y-124475994D01*
X73281105Y-124475500D01*
X73479169Y-124475500D01*
X73479174Y-124475500D01*
X73577685Y-124465436D01*
X73737287Y-124412549D01*
X73880391Y-124324281D01*
X73912319Y-124292353D01*
X73973642Y-124258868D01*
X74043334Y-124263852D01*
X74087681Y-124292353D01*
X74119608Y-124324280D01*
X74119612Y-124324283D01*
X74262704Y-124412544D01*
X74262707Y-124412545D01*
X74262713Y-124412549D01*
X74422315Y-124465436D01*
X74520826Y-124475500D01*
X74520831Y-124475500D01*
X75054169Y-124475500D01*
X75054174Y-124475500D01*
X75152685Y-124465436D01*
X75312287Y-124412549D01*
X75455391Y-124324281D01*
X75574281Y-124205391D01*
X75662549Y-124062287D01*
X75715436Y-123902685D01*
X75725500Y-123804174D01*
X75725500Y-123195826D01*
X75715436Y-123097315D01*
X75662549Y-122937713D01*
X75662545Y-122937707D01*
X75662544Y-122937704D01*
X75621770Y-122871600D01*
X75603329Y-122804208D01*
X75624251Y-122737545D01*
X75639622Y-122718828D01*
X76491632Y-121866819D01*
X76552955Y-121833334D01*
X76579313Y-121830500D01*
X76897059Y-121830500D01*
X76964098Y-121850185D01*
X76984740Y-121866819D01*
X76989707Y-121871786D01*
X76989711Y-121871789D01*
X77120814Y-121959390D01*
X77120827Y-121959397D01*
X77203875Y-121993796D01*
X77266503Y-122019737D01*
X77388938Y-122044091D01*
X77421153Y-122050499D01*
X77421156Y-122050500D01*
X77421158Y-122050500D01*
X77578844Y-122050500D01*
X77578845Y-122050499D01*
X77733497Y-122019737D01*
X77879179Y-121959394D01*
X78010289Y-121871789D01*
X78121789Y-121760289D01*
X78209394Y-121629179D01*
X78216794Y-121611315D01*
X78254617Y-121520000D01*
X78269737Y-121483497D01*
X78300500Y-121328842D01*
X78300500Y-121171158D01*
X78300500Y-121171155D01*
X78300499Y-121171153D01*
X78286943Y-121103003D01*
X78269737Y-121016503D01*
X78268408Y-121013294D01*
X78209397Y-120870827D01*
X78209390Y-120870814D01*
X78121789Y-120739711D01*
X78121786Y-120739707D01*
X78010292Y-120628213D01*
X78010288Y-120628210D01*
X77919985Y-120567871D01*
X77875180Y-120514259D01*
X77866473Y-120444934D01*
X77868201Y-120436247D01*
X77869087Y-120432491D01*
X77869091Y-120432483D01*
X77875500Y-120372873D01*
X77875499Y-119277128D01*
X77869091Y-119217517D01*
X77854422Y-119178187D01*
X77818797Y-119082670D01*
X77811786Y-119073305D01*
X77793823Y-119049310D01*
X77769406Y-118983849D01*
X77784257Y-118915575D01*
X77793820Y-118900694D01*
X77818796Y-118867331D01*
X77822422Y-118857611D01*
X77861944Y-118751645D01*
X77869091Y-118732483D01*
X77875500Y-118672873D01*
X77875499Y-118287679D01*
X77895183Y-118220642D01*
X77947987Y-118174887D01*
X78017146Y-118164943D01*
X78080701Y-118193968D01*
G37*
G04 #@! TD.AperFunction*
G04 #@! TA.AperFunction,Conductor*
G36*
X83568834Y-125382915D02*
G01*
X83624767Y-125424787D01*
X83649184Y-125490251D01*
X83649500Y-125499097D01*
X83649500Y-127441330D01*
X83649499Y-127441348D01*
X83649499Y-127607054D01*
X83649498Y-127607054D01*
X83653183Y-127620805D01*
X83690423Y-127759785D01*
X83690424Y-127759787D01*
X83690423Y-127759787D01*
X83703124Y-127781784D01*
X83703125Y-127781786D01*
X83769475Y-127896709D01*
X83769481Y-127896717D01*
X83888349Y-128015585D01*
X83888355Y-128015590D01*
X84113181Y-128240416D01*
X84146666Y-128301739D01*
X84149500Y-128328097D01*
X84149500Y-129234613D01*
X84155913Y-129305192D01*
X84155913Y-129305194D01*
X84155914Y-129305196D01*
X84206522Y-129467606D01*
X84286540Y-129599972D01*
X84294530Y-129613188D01*
X84414811Y-129733469D01*
X84414813Y-129733470D01*
X84414815Y-129733472D01*
X84560394Y-129821478D01*
X84722804Y-129872086D01*
X84793384Y-129878500D01*
X85973873Y-129878500D01*
X85981490Y-129880736D01*
X85989327Y-129879467D01*
X86014534Y-129890439D01*
X86040912Y-129898185D01*
X86047742Y-129904894D01*
X86053390Y-129907353D01*
X86076975Y-129933609D01*
X86125752Y-130006609D01*
X86146630Y-130073287D01*
X86128145Y-130140667D01*
X86076166Y-130187357D01*
X86022650Y-130199500D01*
X83111698Y-130199500D01*
X83044659Y-130179815D01*
X82998904Y-130127011D01*
X82988960Y-130057853D01*
X82992621Y-130040906D01*
X83007145Y-129990912D01*
X83008790Y-129970000D01*
X82354000Y-129970000D01*
X82286961Y-129950315D01*
X82241206Y-129897511D01*
X82230000Y-129846000D01*
X82230000Y-129720000D01*
X82174500Y-129720000D01*
X82107461Y-129700315D01*
X82061706Y-129647511D01*
X82050500Y-129596000D01*
X82050500Y-129485317D01*
X82050499Y-129485302D01*
X82049603Y-129473920D01*
X82049295Y-129470000D01*
X82480000Y-129470000D01*
X83008790Y-129470000D01*
X83007145Y-129449089D01*
X82962031Y-129293803D01*
X82958934Y-129286646D01*
X82961406Y-129285575D01*
X82947400Y-129230429D01*
X82960964Y-129184232D01*
X82958934Y-129183354D01*
X82962030Y-129176198D01*
X83007145Y-129020910D01*
X83008790Y-129000000D01*
X82480000Y-129000000D01*
X82480000Y-129470000D01*
X82049295Y-129470000D01*
X82047643Y-129449007D01*
X82039551Y-129421155D01*
X82002495Y-129293608D01*
X81999395Y-129286443D01*
X82001923Y-129285348D01*
X81987983Y-129230393D01*
X82001474Y-129184449D01*
X81999397Y-129183551D01*
X82002489Y-129176402D01*
X82002494Y-129176395D01*
X82047643Y-129020993D01*
X82050500Y-128984690D01*
X82050500Y-128874000D01*
X82070185Y-128806961D01*
X82122989Y-128761206D01*
X82174500Y-128750000D01*
X82230000Y-128750000D01*
X82230000Y-128624000D01*
X82249685Y-128556961D01*
X82302489Y-128511206D01*
X82354000Y-128500000D01*
X83008790Y-128500000D01*
X83007145Y-128479089D01*
X82962031Y-128323804D01*
X82879721Y-128184625D01*
X82879714Y-128184616D01*
X82765383Y-128070285D01*
X82765374Y-128070278D01*
X82626196Y-127987969D01*
X82470909Y-127942854D01*
X82462771Y-127942214D01*
X82397483Y-127917329D01*
X82356012Y-127861098D01*
X82351526Y-127791372D01*
X82369400Y-127749704D01*
X82386627Y-127723921D01*
X82386628Y-127723920D01*
X82386632Y-127723914D01*
X82394411Y-127705135D01*
X82417440Y-127649537D01*
X82462051Y-127541835D01*
X82482831Y-127437369D01*
X82500500Y-127348543D01*
X82500500Y-127151456D01*
X82462052Y-126958170D01*
X82462051Y-126958169D01*
X82462051Y-126958165D01*
X82448934Y-126926497D01*
X82386635Y-126776092D01*
X82386631Y-126776085D01*
X82385496Y-126774387D01*
X82374369Y-126757734D01*
X82353492Y-126691057D01*
X82371976Y-126623677D01*
X82423955Y-126576986D01*
X82425959Y-126576049D01*
X82435370Y-126571750D01*
X82480728Y-126559597D01*
X82546568Y-126521584D01*
X82617659Y-126480540D01*
X82729463Y-126368736D01*
X82729464Y-126368734D01*
X83081520Y-126016679D01*
X83160577Y-125879748D01*
X83201501Y-125727020D01*
X83201501Y-125699096D01*
X83221186Y-125632057D01*
X83237820Y-125611415D01*
X83437819Y-125411416D01*
X83499142Y-125377931D01*
X83568834Y-125382915D01*
G37*
G04 #@! TD.AperFunction*
G04 #@! TA.AperFunction,Conductor*
G36*
X88779588Y-128042330D02*
G01*
X88957670Y-128220412D01*
X89059301Y-128294251D01*
X87884971Y-129468580D01*
X87884972Y-129468581D01*
X88061637Y-129613567D01*
X88061651Y-129613577D01*
X88327144Y-129790974D01*
X88327162Y-129790985D01*
X88608762Y-129941504D01*
X88608767Y-129941506D01*
X88655681Y-129960939D01*
X88710084Y-130004780D01*
X88732149Y-130071074D01*
X88714870Y-130138774D01*
X88663732Y-130186384D01*
X88608228Y-130199500D01*
X87477350Y-130199500D01*
X87410311Y-130179815D01*
X87364556Y-130127011D01*
X87354612Y-130057853D01*
X87374248Y-130006609D01*
X87459390Y-129879185D01*
X87459390Y-129879184D01*
X87459394Y-129879179D01*
X87468025Y-129858343D01*
X87495929Y-129790974D01*
X87519737Y-129733497D01*
X87550500Y-129578842D01*
X87550500Y-129421158D01*
X87550500Y-129421155D01*
X87550499Y-129421153D01*
X87519739Y-129266511D01*
X87519737Y-129266505D01*
X87519737Y-129266503D01*
X87510497Y-129244196D01*
X87503029Y-129174731D01*
X87534304Y-129112252D01*
X87537378Y-129109066D01*
X88705747Y-127940697D01*
X88779588Y-128042330D01*
G37*
G04 #@! TD.AperFunction*
G04 #@! TA.AperFunction,Conductor*
G36*
X65700606Y-128259439D02*
G01*
X65762317Y-128285000D01*
X65783987Y-128293976D01*
X65849267Y-128306961D01*
X65920191Y-128321069D01*
X65948314Y-128335779D01*
X65977203Y-128348973D01*
X65979060Y-128351862D01*
X65982102Y-128353454D01*
X65997808Y-128381036D01*
X66014977Y-128407751D01*
X66015637Y-128412345D01*
X66016676Y-128414169D01*
X66020000Y-128442686D01*
X66020000Y-128559401D01*
X66000315Y-128626440D01*
X65983682Y-128647082D01*
X65917084Y-128713681D01*
X65855761Y-128747166D01*
X65829402Y-128750000D01*
X65430946Y-128750000D01*
X65381697Y-128739800D01*
X65376394Y-128737505D01*
X65220997Y-128692357D01*
X65220991Y-128692356D01*
X65184697Y-128689500D01*
X65184690Y-128689500D01*
X65104000Y-128689500D01*
X65095314Y-128686949D01*
X65086353Y-128688238D01*
X65062312Y-128677259D01*
X65036961Y-128669815D01*
X65031033Y-128662974D01*
X65022797Y-128659213D01*
X65008507Y-128636978D01*
X64991206Y-128617011D01*
X64988918Y-128606496D01*
X64985023Y-128600435D01*
X64980000Y-128565500D01*
X64980000Y-128374000D01*
X64999685Y-128306961D01*
X65052489Y-128261206D01*
X65104000Y-128250000D01*
X65653154Y-128250000D01*
X65700606Y-128259439D01*
G37*
G04 #@! TD.AperFunction*
G04 #@! TA.AperFunction,Conductor*
G36*
X70930000Y-126394863D02*
G01*
X70971681Y-126386572D01*
X70971692Y-126386569D01*
X71153671Y-126311192D01*
X71153684Y-126311185D01*
X71317462Y-126201751D01*
X71317466Y-126201748D01*
X71456748Y-126062466D01*
X71456751Y-126062462D01*
X71566185Y-125898684D01*
X71566189Y-125898675D01*
X71567839Y-125894694D01*
X71611676Y-125840287D01*
X71677969Y-125818218D01*
X71745670Y-125835493D01*
X71757896Y-125843768D01*
X71762771Y-125847509D01*
X71762775Y-125847513D01*
X71762779Y-125847515D01*
X71762780Y-125847516D01*
X71763303Y-125847818D01*
X71891725Y-125921962D01*
X72035550Y-125960500D01*
X72035553Y-125960500D01*
X72184447Y-125960500D01*
X72184450Y-125960500D01*
X72328275Y-125921962D01*
X72328277Y-125921960D01*
X72328279Y-125921960D01*
X72334881Y-125919226D01*
X72359302Y-125916601D01*
X72382908Y-125909789D01*
X72393432Y-125912932D01*
X72404350Y-125911759D01*
X72426315Y-125922754D01*
X72449856Y-125929786D01*
X72459628Y-125939430D01*
X72466829Y-125943035D01*
X72476421Y-125953023D01*
X72481287Y-125958692D01*
X72526211Y-126025925D01*
X72616510Y-126116224D01*
X72619590Y-126119812D01*
X72632094Y-126147532D01*
X72646666Y-126174219D01*
X72647459Y-126181595D01*
X72648319Y-126183502D01*
X72647939Y-126186059D01*
X72649500Y-126200577D01*
X72649500Y-126323213D01*
X72629815Y-126390252D01*
X72600987Y-126421588D01*
X72564552Y-126449545D01*
X72564549Y-126449549D01*
X72492547Y-126543384D01*
X72472300Y-126569770D01*
X72470982Y-126572953D01*
X72469149Y-126575227D01*
X72468236Y-126576809D01*
X72467989Y-126576666D01*
X72427141Y-126627356D01*
X72360847Y-126649421D01*
X72356421Y-126649500D01*
X71058885Y-126649500D01*
X71058869Y-126649499D01*
X71051273Y-126649499D01*
X70893158Y-126649499D01*
X70816794Y-126669961D01*
X70740429Y-126690423D01*
X70740424Y-126690426D01*
X70603505Y-126769475D01*
X70603497Y-126769481D01*
X69509102Y-127863876D01*
X69447779Y-127897361D01*
X69378087Y-127892377D01*
X69322154Y-127850505D01*
X69297737Y-127785041D01*
X69299803Y-127752007D01*
X69317068Y-127665213D01*
X69324644Y-127627130D01*
X69324644Y-127469441D01*
X69324643Y-127469439D01*
X69306732Y-127379396D01*
X69293881Y-127314789D01*
X69293879Y-127314784D01*
X69233541Y-127169113D01*
X69233534Y-127169100D01*
X69145933Y-127037997D01*
X69145930Y-127037993D01*
X69034436Y-126926499D01*
X69034432Y-126926496D01*
X68903329Y-126838895D01*
X68903316Y-126838888D01*
X68757645Y-126778550D01*
X68757633Y-126778547D01*
X68602989Y-126747786D01*
X68602986Y-126747786D01*
X68445302Y-126747786D01*
X68445299Y-126747786D01*
X68439237Y-126748383D01*
X68439016Y-126746140D01*
X68379446Y-126740783D01*
X68324288Y-126697896D01*
X68303281Y-126649605D01*
X68288772Y-126576666D01*
X68280807Y-126536622D01*
X68257577Y-126480540D01*
X68220467Y-126390946D01*
X68220460Y-126390933D01*
X68130096Y-126255695D01*
X68125804Y-126241988D01*
X68117160Y-126230520D01*
X68115573Y-126209313D01*
X68109218Y-126189018D01*
X68113017Y-126175166D01*
X68111946Y-126160846D01*
X68122075Y-126142148D01*
X68127702Y-126121638D01*
X68139015Y-126110878D01*
X68145228Y-126099412D01*
X68165895Y-126085317D01*
X68173413Y-126078168D01*
X68209724Y-126058185D01*
X68242039Y-126051043D01*
X68274108Y-126042906D01*
X68276149Y-126043505D01*
X68277947Y-126043108D01*
X68290184Y-126047626D01*
X68332629Y-126060089D01*
X68353605Y-126072494D01*
X68359429Y-126074186D01*
X68509002Y-126117642D01*
X68509005Y-126117642D01*
X68509007Y-126117643D01*
X68545310Y-126120500D01*
X68545318Y-126120500D01*
X68954682Y-126120500D01*
X68954690Y-126120500D01*
X68990993Y-126117643D01*
X68990995Y-126117642D01*
X68990997Y-126117642D01*
X69042833Y-126102582D01*
X69146395Y-126072494D01*
X69285687Y-125990117D01*
X69400117Y-125875687D01*
X69482494Y-125736395D01*
X69484610Y-125729112D01*
X69522215Y-125670225D01*
X69585686Y-125641017D01*
X69654873Y-125650762D01*
X69707809Y-125696364D01*
X69718248Y-125716252D01*
X69793807Y-125898671D01*
X69793814Y-125898684D01*
X69903248Y-126062462D01*
X69903251Y-126062466D01*
X70042533Y-126201748D01*
X70042537Y-126201751D01*
X70206315Y-126311185D01*
X70206328Y-126311192D01*
X70388308Y-126386569D01*
X70430000Y-126394862D01*
X70430000Y-125591988D01*
X70439940Y-125609205D01*
X70495795Y-125665060D01*
X70564204Y-125704556D01*
X70640504Y-125725000D01*
X70719496Y-125725000D01*
X70795796Y-125704556D01*
X70864205Y-125665060D01*
X70920060Y-125609205D01*
X70930000Y-125591988D01*
X70930000Y-126394863D01*
G37*
G04 #@! TD.AperFunction*
G04 #@! TA.AperFunction,Conductor*
G36*
X71606043Y-93820185D02*
G01*
X71651798Y-93872989D01*
X71661742Y-93942147D01*
X71632717Y-94005703D01*
X71626685Y-94012181D01*
X71460718Y-94178148D01*
X71301075Y-94386196D01*
X71169958Y-94613299D01*
X71169953Y-94613309D01*
X71069605Y-94855571D01*
X71069602Y-94855581D01*
X71001730Y-95108885D01*
X70967500Y-95368872D01*
X70967500Y-95631127D01*
X70994123Y-95833339D01*
X71001730Y-95891116D01*
X71069602Y-96144418D01*
X71069605Y-96144428D01*
X71169953Y-96386690D01*
X71169958Y-96386700D01*
X71301075Y-96613803D01*
X71460718Y-96821851D01*
X71460726Y-96821860D01*
X71646140Y-97007274D01*
X71646148Y-97007281D01*
X71854196Y-97166924D01*
X72081299Y-97298041D01*
X72081309Y-97298046D01*
X72323571Y-97398394D01*
X72323581Y-97398398D01*
X72576884Y-97466270D01*
X72836880Y-97500500D01*
X72836887Y-97500500D01*
X73099113Y-97500500D01*
X73099120Y-97500500D01*
X73359116Y-97466270D01*
X73612419Y-97398398D01*
X73854697Y-97298043D01*
X74081803Y-97166924D01*
X74289851Y-97007282D01*
X74289855Y-97007277D01*
X74289860Y-97007274D01*
X74475274Y-96821860D01*
X74475277Y-96821855D01*
X74475282Y-96821851D01*
X74634924Y-96613803D01*
X74766043Y-96386697D01*
X74866398Y-96144419D01*
X74934270Y-95891116D01*
X74968500Y-95631120D01*
X74968500Y-95368880D01*
X74934270Y-95108884D01*
X74866398Y-94855581D01*
X74815754Y-94733315D01*
X74766046Y-94613309D01*
X74766041Y-94613299D01*
X74634924Y-94386196D01*
X74475281Y-94178148D01*
X74475274Y-94178140D01*
X74309315Y-94012181D01*
X74275830Y-93950858D01*
X74280814Y-93881166D01*
X74322686Y-93825233D01*
X74388150Y-93800816D01*
X74396996Y-93800500D01*
X88608228Y-93800500D01*
X88675267Y-93820185D01*
X88721022Y-93872989D01*
X88730966Y-93942147D01*
X88701941Y-94005703D01*
X88655681Y-94039061D01*
X88608767Y-94058493D01*
X88608762Y-94058495D01*
X88327162Y-94209014D01*
X88327144Y-94209025D01*
X88061651Y-94386422D01*
X88061650Y-94386423D01*
X87884971Y-94531418D01*
X89059301Y-95705748D01*
X88957670Y-95779588D01*
X88779588Y-95957670D01*
X88705748Y-96059301D01*
X87531418Y-94884971D01*
X87386423Y-95061650D01*
X87386422Y-95061651D01*
X87209025Y-95327144D01*
X87209014Y-95327162D01*
X87058495Y-95608762D01*
X87058493Y-95608767D01*
X86936292Y-95903786D01*
X86843594Y-96209371D01*
X86843591Y-96209382D01*
X86781301Y-96522544D01*
X86781298Y-96522561D01*
X86750000Y-96840341D01*
X86750000Y-97159658D01*
X86781298Y-97477438D01*
X86781301Y-97477455D01*
X86843591Y-97790617D01*
X86843594Y-97790628D01*
X86936292Y-98096213D01*
X87058493Y-98391232D01*
X87058495Y-98391237D01*
X87209014Y-98672837D01*
X87209025Y-98672855D01*
X87386422Y-98938348D01*
X87386432Y-98938362D01*
X87531418Y-99115027D01*
X88705747Y-97940697D01*
X88779588Y-98042330D01*
X88957670Y-98220412D01*
X89059301Y-98294251D01*
X87884971Y-99468580D01*
X87884972Y-99468581D01*
X88061637Y-99613567D01*
X88061651Y-99613577D01*
X88327144Y-99790974D01*
X88327162Y-99790985D01*
X88608762Y-99941504D01*
X88608767Y-99941506D01*
X88903786Y-100063707D01*
X89209371Y-100156405D01*
X89209382Y-100156408D01*
X89522544Y-100218698D01*
X89522561Y-100218701D01*
X89840341Y-100250000D01*
X90159659Y-100250000D01*
X90477438Y-100218701D01*
X90477455Y-100218698D01*
X90790617Y-100156408D01*
X90790628Y-100156405D01*
X91096213Y-100063707D01*
X91391232Y-99941506D01*
X91391237Y-99941504D01*
X91672837Y-99790985D01*
X91672855Y-99790974D01*
X91938348Y-99613577D01*
X91938361Y-99613567D01*
X92115026Y-99468581D01*
X92115027Y-99468580D01*
X90940698Y-98294251D01*
X91042330Y-98220412D01*
X91220412Y-98042330D01*
X91294251Y-97940698D01*
X92468580Y-99115027D01*
X92468581Y-99115026D01*
X92613567Y-98938361D01*
X92613577Y-98938348D01*
X92790974Y-98672855D01*
X92790985Y-98672837D01*
X92941504Y-98391237D01*
X92941509Y-98391225D01*
X92960939Y-98344319D01*
X93004779Y-98289915D01*
X93071073Y-98267850D01*
X93138773Y-98285129D01*
X93186384Y-98336266D01*
X93199500Y-98391771D01*
X93199500Y-107601906D01*
X93179815Y-107668945D01*
X93127011Y-107714700D01*
X93057853Y-107724644D01*
X93032167Y-107718088D01*
X92932482Y-107680908D01*
X92932483Y-107680908D01*
X92872883Y-107674501D01*
X92872881Y-107674500D01*
X92872873Y-107674500D01*
X92872864Y-107674500D01*
X89977129Y-107674500D01*
X89977123Y-107674501D01*
X89917516Y-107680908D01*
X89782671Y-107731202D01*
X89782664Y-107731206D01*
X89667455Y-107817452D01*
X89667452Y-107817455D01*
X89581206Y-107932664D01*
X89581202Y-107932671D01*
X89530908Y-108067517D01*
X89528667Y-108088366D01*
X89524501Y-108127123D01*
X89524500Y-108127135D01*
X89524500Y-109222870D01*
X89524501Y-109222874D01*
X89526100Y-109237746D01*
X89513694Y-109306505D01*
X89466083Y-109357642D01*
X89402810Y-109375000D01*
X88296686Y-109375000D01*
X88229647Y-109355315D01*
X88183892Y-109302511D01*
X88173397Y-109237743D01*
X88174999Y-109222841D01*
X88175000Y-109222827D01*
X88175000Y-108925000D01*
X87399000Y-108925000D01*
X87331961Y-108905315D01*
X87286206Y-108852511D01*
X87275000Y-108801000D01*
X87275000Y-108549000D01*
X87294685Y-108481961D01*
X87347489Y-108436206D01*
X87399000Y-108425000D01*
X88175000Y-108425000D01*
X88175000Y-108127172D01*
X88174999Y-108127155D01*
X88168598Y-108067627D01*
X88168596Y-108067620D01*
X88118354Y-107932913D01*
X88118350Y-107932906D01*
X88032190Y-107817812D01*
X88032187Y-107817809D01*
X87917093Y-107731649D01*
X87917086Y-107731645D01*
X87782379Y-107681403D01*
X87782372Y-107681401D01*
X87722844Y-107675000D01*
X87719521Y-107674823D01*
X87719530Y-107674644D01*
X87719525Y-107674644D01*
X87719536Y-107674540D01*
X87719574Y-107673818D01*
X87656558Y-107655315D01*
X87610803Y-107602511D01*
X87600859Y-107533353D01*
X87629884Y-107469797D01*
X87635916Y-107463319D01*
X88656416Y-106442819D01*
X88683343Y-106428115D01*
X88709162Y-106411523D01*
X88715362Y-106410631D01*
X88717739Y-106409334D01*
X88744097Y-106406500D01*
X88837515Y-106406500D01*
X88904554Y-106426185D01*
X88950309Y-106478989D01*
X88955899Y-106493609D01*
X88956522Y-106495606D01*
X89027603Y-106613188D01*
X89044530Y-106641188D01*
X89164811Y-106761469D01*
X89164813Y-106761470D01*
X89164815Y-106761472D01*
X89310394Y-106849478D01*
X89472804Y-106900086D01*
X89543384Y-106906500D01*
X89543387Y-106906500D01*
X90956613Y-106906500D01*
X90956616Y-106906500D01*
X91027196Y-106900086D01*
X91189606Y-106849478D01*
X91335185Y-106761472D01*
X91455472Y-106641185D01*
X91543478Y-106495606D01*
X91594086Y-106333196D01*
X91600500Y-106262616D01*
X91600500Y-105349384D01*
X91594086Y-105278804D01*
X91543478Y-105116394D01*
X91461718Y-104981147D01*
X91443883Y-104913596D01*
X91461718Y-104852852D01*
X91543478Y-104717606D01*
X91594086Y-104555196D01*
X91600500Y-104484616D01*
X91600500Y-103571384D01*
X91594086Y-103500804D01*
X91543478Y-103338394D01*
X91461424Y-103202661D01*
X91443590Y-103135112D01*
X91461427Y-103074365D01*
X91543018Y-102939398D01*
X91543019Y-102939396D01*
X91593590Y-102777106D01*
X91599999Y-102706572D01*
X91599999Y-101793417D01*
X91593591Y-101722897D01*
X91593590Y-101722892D01*
X91543018Y-101560603D01*
X91455072Y-101415122D01*
X91446751Y-101406801D01*
X91446749Y-101406801D01*
X90514456Y-102339094D01*
X90453133Y-102372579D01*
X90383441Y-102367595D01*
X90339094Y-102339094D01*
X90250000Y-102250000D01*
X90160905Y-102339095D01*
X90099582Y-102372579D01*
X90029890Y-102367595D01*
X89985543Y-102339094D01*
X89053250Y-101406801D01*
X89053249Y-101406801D01*
X89044926Y-101415125D01*
X88956980Y-101560604D01*
X88906409Y-101722893D01*
X88900000Y-101793427D01*
X88900000Y-102706582D01*
X88906408Y-102777102D01*
X88906409Y-102777107D01*
X88956981Y-102939396D01*
X89038573Y-103074366D01*
X89042269Y-103088365D01*
X89050429Y-103100327D01*
X89051009Y-103121471D01*
X89056409Y-103141921D01*
X89051985Y-103156985D01*
X89052348Y-103170171D01*
X89038573Y-103202665D01*
X88956522Y-103338394D01*
X88956522Y-103338395D01*
X88953950Y-103342650D01*
X88902422Y-103389837D01*
X88847833Y-103402500D01*
X87763432Y-103402500D01*
X87696393Y-103382815D01*
X87660330Y-103347391D01*
X87621789Y-103289711D01*
X87621786Y-103289707D01*
X87510292Y-103178213D01*
X87510288Y-103178210D01*
X87379185Y-103090609D01*
X87379172Y-103090602D01*
X87233501Y-103030264D01*
X87233489Y-103030261D01*
X87078845Y-102999500D01*
X87078842Y-102999500D01*
X86921158Y-102999500D01*
X86921155Y-102999500D01*
X86766510Y-103030261D01*
X86766498Y-103030264D01*
X86620827Y-103090602D01*
X86620814Y-103090609D01*
X86489711Y-103178210D01*
X86489707Y-103178213D01*
X86378213Y-103289707D01*
X86378210Y-103289711D01*
X86290609Y-103420814D01*
X86290602Y-103420827D01*
X86230264Y-103566498D01*
X86230261Y-103566510D01*
X86199500Y-103721153D01*
X86199500Y-103878846D01*
X86230261Y-104033489D01*
X86230264Y-104033501D01*
X86290602Y-104179172D01*
X86290609Y-104179185D01*
X86378210Y-104310288D01*
X86378213Y-104310292D01*
X86489707Y-104421786D01*
X86489711Y-104421789D01*
X86620814Y-104509390D01*
X86620827Y-104509397D01*
X86766498Y-104569735D01*
X86766503Y-104569737D01*
X86921153Y-104600499D01*
X86921156Y-104600500D01*
X86921158Y-104600500D01*
X86950960Y-104600500D01*
X86954220Y-104601036D01*
X86955958Y-104600601D01*
X86968938Y-104603456D01*
X86990662Y-104607028D01*
X86994594Y-104608357D01*
X86998397Y-104609932D01*
X87045548Y-104629463D01*
X87065597Y-104633451D01*
X87108232Y-104641931D01*
X87166392Y-104653501D01*
X87166394Y-104653501D01*
X87295721Y-104653501D01*
X87295741Y-104653500D01*
X88847833Y-104653500D01*
X88858156Y-104656531D01*
X88868844Y-104655293D01*
X88891097Y-104666204D01*
X88914872Y-104673185D01*
X88923570Y-104682125D01*
X88931579Y-104686052D01*
X88953950Y-104713350D01*
X88956521Y-104717603D01*
X88956522Y-104717606D01*
X89012120Y-104809576D01*
X89038280Y-104852850D01*
X89056116Y-104920405D01*
X89038280Y-104981150D01*
X88956522Y-105116394D01*
X88955902Y-105118385D01*
X88955050Y-105119663D01*
X88953443Y-105123235D01*
X88952849Y-105122967D01*
X88917167Y-105176535D01*
X88853143Y-105204511D01*
X88837515Y-105205500D01*
X88364942Y-105205500D01*
X88212213Y-105246423D01*
X88169285Y-105271209D01*
X88169284Y-105271209D01*
X88075287Y-105325477D01*
X88075282Y-105325481D01*
X86212681Y-107188083D01*
X86151358Y-107221568D01*
X86081666Y-107216584D01*
X86037319Y-107188083D01*
X85136819Y-106287583D01*
X85103334Y-106226260D01*
X85100500Y-106199902D01*
X85100500Y-101920945D01*
X85100500Y-101920943D01*
X85059577Y-101768216D01*
X85057967Y-101765427D01*
X84980524Y-101631290D01*
X84980521Y-101631286D01*
X84980520Y-101631284D01*
X84868716Y-101519480D01*
X84868715Y-101519479D01*
X84864385Y-101515149D01*
X84864374Y-101515139D01*
X84502556Y-101153321D01*
X89506873Y-101153321D01*
X90250000Y-101896448D01*
X90250001Y-101896448D01*
X90993125Y-101153321D01*
X90993125Y-101153320D01*
X90956582Y-101150000D01*
X89543426Y-101150000D01*
X89506873Y-101153321D01*
X84502556Y-101153321D01*
X83947246Y-100598011D01*
X83913761Y-100536688D01*
X83918745Y-100466996D01*
X83947242Y-100422653D01*
X84030104Y-100339792D01*
X84155051Y-100167816D01*
X84251557Y-99978412D01*
X84317246Y-99776243D01*
X84350500Y-99566287D01*
X84350500Y-99353713D01*
X84317246Y-99143757D01*
X84251557Y-98941588D01*
X84155051Y-98752184D01*
X84155049Y-98752181D01*
X84155048Y-98752179D01*
X84030109Y-98580213D01*
X83879786Y-98429890D01*
X83707820Y-98304951D01*
X83518414Y-98208444D01*
X83518413Y-98208443D01*
X83518412Y-98208443D01*
X83316243Y-98142754D01*
X83316241Y-98142753D01*
X83316240Y-98142753D01*
X83154957Y-98117208D01*
X83106287Y-98109500D01*
X82893713Y-98109500D01*
X82845042Y-98117208D01*
X82683760Y-98142753D01*
X82481585Y-98208444D01*
X82292179Y-98304951D01*
X82120215Y-98429889D01*
X82006285Y-98543819D01*
X81944962Y-98577303D01*
X81875270Y-98572319D01*
X81819337Y-98530447D01*
X81802422Y-98499470D01*
X81753354Y-98367913D01*
X81753350Y-98367906D01*
X81667190Y-98252812D01*
X81667187Y-98252809D01*
X81552093Y-98166649D01*
X81552086Y-98166645D01*
X81417379Y-98116403D01*
X81417372Y-98116401D01*
X81357844Y-98110000D01*
X80710000Y-98110000D01*
X80710000Y-99026988D01*
X80652993Y-98994075D01*
X80525826Y-98960000D01*
X80394174Y-98960000D01*
X80267007Y-98994075D01*
X80210000Y-99026988D01*
X80210000Y-98110000D01*
X79562155Y-98110000D01*
X79502627Y-98116401D01*
X79502620Y-98116403D01*
X79367913Y-98166645D01*
X79367906Y-98166649D01*
X79252812Y-98252809D01*
X79252809Y-98252812D01*
X79166649Y-98367906D01*
X79166645Y-98367913D01*
X79116403Y-98502620D01*
X79116401Y-98502627D01*
X79110000Y-98562155D01*
X79110000Y-99063402D01*
X79090315Y-99130441D01*
X79037511Y-99176196D01*
X78968353Y-99186140D01*
X78904797Y-99157115D01*
X78898319Y-99151083D01*
X78135590Y-98388355D01*
X78135588Y-98388352D01*
X78016717Y-98269481D01*
X78016716Y-98269480D01*
X77910996Y-98208443D01*
X77910995Y-98208442D01*
X77879783Y-98190422D01*
X77823881Y-98175443D01*
X77727057Y-98149499D01*
X77568943Y-98149499D01*
X77561347Y-98149499D01*
X77561331Y-98149500D01*
X77086670Y-98149500D01*
X77086654Y-98149499D01*
X77079058Y-98149499D01*
X76920943Y-98149499D01*
X76856955Y-98166645D01*
X76768214Y-98190423D01*
X76768209Y-98190426D01*
X76631290Y-98269475D01*
X76631282Y-98269481D01*
X75985339Y-98915425D01*
X75924016Y-98948910D01*
X75921850Y-98949361D01*
X75766508Y-98980261D01*
X75766498Y-98980264D01*
X75620827Y-99040602D01*
X75620814Y-99040609D01*
X75489711Y-99128210D01*
X75489707Y-99128213D01*
X75378213Y-99239707D01*
X75378210Y-99239711D01*
X75290609Y-99370814D01*
X75290602Y-99370827D01*
X75230264Y-99516498D01*
X75230261Y-99516510D01*
X75199500Y-99671153D01*
X75199500Y-99828846D01*
X75230261Y-99983489D01*
X75230264Y-99983501D01*
X75290602Y-100129172D01*
X75290609Y-100129185D01*
X75378210Y-100260288D01*
X75378213Y-100260292D01*
X75489707Y-100371786D01*
X75489711Y-100371789D01*
X75620814Y-100459390D01*
X75620827Y-100459397D01*
X75751134Y-100513371D01*
X75766503Y-100519737D01*
X75921153Y-100550499D01*
X75921156Y-100550500D01*
X75921158Y-100550500D01*
X76078844Y-100550500D01*
X76078845Y-100550499D01*
X76233497Y-100519737D01*
X76379179Y-100459394D01*
X76510289Y-100371789D01*
X76621789Y-100260289D01*
X76709394Y-100129179D01*
X76769737Y-99983497D01*
X76794283Y-99860099D01*
X76800638Y-99828150D01*
X76833023Y-99766239D01*
X76834514Y-99764720D01*
X77212417Y-99386819D01*
X77239344Y-99372115D01*
X77265163Y-99355523D01*
X77271363Y-99354631D01*
X77273740Y-99353334D01*
X77300098Y-99350500D01*
X77347903Y-99350500D01*
X77414942Y-99370185D01*
X77435584Y-99386819D01*
X79253395Y-101204631D01*
X79286880Y-101265954D01*
X79281896Y-101335646D01*
X79276199Y-101348606D01*
X79208445Y-101481582D01*
X79142753Y-101683760D01*
X79109500Y-101893713D01*
X79109500Y-102106286D01*
X79142754Y-102316246D01*
X79163427Y-102379872D01*
X79165422Y-102449713D01*
X79133177Y-102505870D01*
X76457459Y-105181589D01*
X76396136Y-105215074D01*
X76326444Y-105210090D01*
X76270511Y-105168218D01*
X76246094Y-105102754D01*
X76255217Y-105046455D01*
X76289468Y-104963766D01*
X76320231Y-104809111D01*
X76320231Y-104651427D01*
X76320231Y-104651424D01*
X76320230Y-104651422D01*
X76310689Y-104603456D01*
X76289468Y-104496772D01*
X76272834Y-104456613D01*
X76229128Y-104351096D01*
X76229121Y-104351083D01*
X76141520Y-104219980D01*
X76141517Y-104219976D01*
X76030023Y-104108482D01*
X76030019Y-104108479D01*
X75898916Y-104020878D01*
X75898903Y-104020871D01*
X75753232Y-103960533D01*
X75753220Y-103960530D01*
X75598576Y-103929769D01*
X75598573Y-103929769D01*
X75440889Y-103929769D01*
X75440886Y-103929769D01*
X75286241Y-103960530D01*
X75286229Y-103960533D01*
X75140558Y-104020871D01*
X75140545Y-104020878D01*
X75009442Y-104108479D01*
X75009438Y-104108482D01*
X75004471Y-104113450D01*
X74943148Y-104146935D01*
X74916790Y-104149769D01*
X74660565Y-104149769D01*
X74593526Y-104130084D01*
X74547771Y-104077280D01*
X74537827Y-104008122D01*
X74546004Y-103978317D01*
X74553371Y-103960530D01*
X74560914Y-103942320D01*
X74591677Y-103787665D01*
X74591677Y-103629981D01*
X74591677Y-103629978D01*
X74591676Y-103629976D01*
X74588532Y-103614172D01*
X74560914Y-103475326D01*
X74558082Y-103468489D01*
X74500574Y-103329650D01*
X74500567Y-103329637D01*
X74412966Y-103198534D01*
X74412963Y-103198530D01*
X74301469Y-103087036D01*
X74301465Y-103087033D01*
X74170362Y-102999432D01*
X74170349Y-102999425D01*
X74024678Y-102939087D01*
X74024666Y-102939084D01*
X73870022Y-102908323D01*
X73870019Y-102908323D01*
X73808920Y-102908323D01*
X73779479Y-102899678D01*
X73749493Y-102893155D01*
X73744477Y-102889400D01*
X73741881Y-102888638D01*
X73721239Y-102872004D01*
X73693727Y-102844492D01*
X73660242Y-102783169D01*
X73665226Y-102713477D01*
X73707098Y-102657544D01*
X73712502Y-102653718D01*
X73760289Y-102621789D01*
X73871789Y-102510289D01*
X73959394Y-102379179D01*
X74019737Y-102233497D01*
X74050500Y-102078842D01*
X74050500Y-101921158D01*
X74050500Y-101921155D01*
X74050499Y-101921153D01*
X74036055Y-101848543D01*
X76499499Y-101848543D01*
X76537947Y-102041829D01*
X76537950Y-102041839D01*
X76613364Y-102223907D01*
X76613371Y-102223920D01*
X76722860Y-102387781D01*
X76722863Y-102387785D01*
X76862214Y-102527136D01*
X76862218Y-102527139D01*
X77026079Y-102636628D01*
X77026092Y-102636635D01*
X77195570Y-102706834D01*
X77208165Y-102712051D01*
X77208169Y-102712051D01*
X77208170Y-102712052D01*
X77401456Y-102750500D01*
X77401459Y-102750500D01*
X77598543Y-102750500D01*
X77728582Y-102724632D01*
X77791835Y-102712051D01*
X77973914Y-102636632D01*
X78137782Y-102527139D01*
X78277139Y-102387782D01*
X78386632Y-102223914D01*
X78462051Y-102041835D01*
X78483746Y-101932767D01*
X78500500Y-101848543D01*
X78500500Y-101651456D01*
X78462052Y-101458170D01*
X78462051Y-101458169D01*
X78462051Y-101458165D01*
X78451929Y-101433729D01*
X78386635Y-101276092D01*
X78386628Y-101276079D01*
X78277139Y-101112218D01*
X78277136Y-101112214D01*
X78137785Y-100972863D01*
X78137781Y-100972860D01*
X77973920Y-100863371D01*
X77973907Y-100863364D01*
X77791839Y-100787950D01*
X77791829Y-100787947D01*
X77598543Y-100749500D01*
X77598541Y-100749500D01*
X77401459Y-100749500D01*
X77401457Y-100749500D01*
X77208170Y-100787947D01*
X77208160Y-100787950D01*
X77026092Y-100863364D01*
X77026079Y-100863371D01*
X76862218Y-100972860D01*
X76862214Y-100972863D01*
X76722863Y-101112214D01*
X76722860Y-101112218D01*
X76613371Y-101276079D01*
X76613364Y-101276092D01*
X76537950Y-101458160D01*
X76537947Y-101458170D01*
X76499500Y-101651456D01*
X76499500Y-101651459D01*
X76499500Y-101848541D01*
X76499500Y-101848543D01*
X76499499Y-101848543D01*
X74036055Y-101848543D01*
X74036055Y-101848541D01*
X74019737Y-101766503D01*
X74001675Y-101722897D01*
X73989217Y-101692819D01*
X73959395Y-101620823D01*
X73959390Y-101620814D01*
X73871789Y-101489711D01*
X73871786Y-101489707D01*
X73760292Y-101378213D01*
X73760288Y-101378210D01*
X73629185Y-101290609D01*
X73629172Y-101290602D01*
X73483501Y-101230264D01*
X73483489Y-101230261D01*
X73328845Y-101199500D01*
X73328842Y-101199500D01*
X73171158Y-101199500D01*
X73171156Y-101199500D01*
X73109104Y-101211843D01*
X73039512Y-101205616D01*
X72984335Y-101162753D01*
X72963294Y-101114416D01*
X72962856Y-101112214D01*
X72962051Y-101108165D01*
X72950215Y-101079590D01*
X72886635Y-100926092D01*
X72886628Y-100926079D01*
X72777139Y-100762218D01*
X72777136Y-100762214D01*
X72637785Y-100622863D01*
X72637781Y-100622860D01*
X72473920Y-100513371D01*
X72473907Y-100513364D01*
X72291839Y-100437950D01*
X72291829Y-100437947D01*
X72098543Y-100399500D01*
X72098541Y-100399500D01*
X71901459Y-100399500D01*
X71901457Y-100399500D01*
X71708170Y-100437947D01*
X71708160Y-100437950D01*
X71526092Y-100513364D01*
X71526079Y-100513371D01*
X71362218Y-100622860D01*
X71362214Y-100622863D01*
X71222863Y-100762214D01*
X71222860Y-100762218D01*
X71113371Y-100926079D01*
X71113366Y-100926088D01*
X71085374Y-100993669D01*
X71041533Y-101048072D01*
X70975239Y-101070137D01*
X70907540Y-101052858D01*
X70883132Y-101033897D01*
X69636590Y-99787355D01*
X69636588Y-99787352D01*
X69517717Y-99668481D01*
X69517712Y-99668477D01*
X69413065Y-99608060D01*
X69413063Y-99608059D01*
X69380787Y-99589424D01*
X69380786Y-99589423D01*
X69380785Y-99589423D01*
X69228057Y-99548499D01*
X69069943Y-99548499D01*
X69062347Y-99548499D01*
X69062331Y-99548500D01*
X63337727Y-99548500D01*
X63337711Y-99548499D01*
X63330115Y-99548499D01*
X63172000Y-99548499D01*
X63105620Y-99566286D01*
X63019271Y-99589423D01*
X63019266Y-99589426D01*
X62882347Y-99668475D01*
X62882339Y-99668481D01*
X61145591Y-101405228D01*
X61084268Y-101438713D01*
X61014576Y-101433729D01*
X60959945Y-101392831D01*
X60959697Y-101393026D01*
X60958977Y-101392107D01*
X60958643Y-101391857D01*
X60957787Y-101390587D01*
X60955071Y-101387121D01*
X60946751Y-101378801D01*
X60946749Y-101378801D01*
X60014456Y-102311094D01*
X59953133Y-102344579D01*
X59883441Y-102339595D01*
X59839094Y-102311094D01*
X59750000Y-102222000D01*
X59660905Y-102311095D01*
X59599582Y-102344579D01*
X59529890Y-102339595D01*
X59485543Y-102311094D01*
X58553250Y-101378801D01*
X58553249Y-101378801D01*
X58544926Y-101387125D01*
X58456980Y-101532604D01*
X58406409Y-101694893D01*
X58400000Y-101765427D01*
X58400000Y-102678582D01*
X58406408Y-102749102D01*
X58406409Y-102749107D01*
X58456981Y-102911396D01*
X58538573Y-103046366D01*
X58556409Y-103113921D01*
X58538573Y-103174665D01*
X58524144Y-103198534D01*
X58456522Y-103310393D01*
X58405913Y-103472807D01*
X58399500Y-103543386D01*
X58399500Y-104456613D01*
X58405913Y-104527192D01*
X58405913Y-104527194D01*
X58405914Y-104527196D01*
X58445830Y-104655293D01*
X58456522Y-104689606D01*
X58538280Y-104824850D01*
X58556116Y-104892405D01*
X58538280Y-104953150D01*
X58456522Y-105088393D01*
X58405913Y-105250807D01*
X58399500Y-105321386D01*
X58399500Y-106234613D01*
X58405913Y-106305192D01*
X58405913Y-106305194D01*
X58405914Y-106305196D01*
X58456522Y-106467606D01*
X58544148Y-106612557D01*
X58544530Y-106613188D01*
X58664811Y-106733469D01*
X58664813Y-106733470D01*
X58664815Y-106733472D01*
X58810394Y-106821478D01*
X58972804Y-106872086D01*
X59043384Y-106878500D01*
X59982665Y-106878500D01*
X60044665Y-106895113D01*
X60047000Y-106896461D01*
X60118215Y-106937577D01*
X60270943Y-106978500D01*
X61827903Y-106978500D01*
X61894942Y-106998185D01*
X61915584Y-107014819D01*
X64120878Y-109220113D01*
X64154363Y-109281436D01*
X64149379Y-109351128D01*
X64107507Y-109407061D01*
X64042927Y-109431412D01*
X64024876Y-109432832D01*
X64024870Y-109432833D01*
X63870812Y-109477592D01*
X63870807Y-109477593D01*
X63813611Y-109511419D01*
X63745886Y-109528600D01*
X63687371Y-109511419D01*
X63684799Y-109509898D01*
X63629393Y-109477131D01*
X63629392Y-109477130D01*
X63629391Y-109477130D01*
X63629388Y-109477129D01*
X63475208Y-109432335D01*
X63475202Y-109432334D01*
X63444420Y-109429912D01*
X63379131Y-109405028D01*
X63337661Y-109348796D01*
X63332531Y-109330481D01*
X63332238Y-109329010D01*
X63332237Y-109329003D01*
X63302159Y-109256387D01*
X63271897Y-109183327D01*
X63271890Y-109183314D01*
X63184289Y-109052211D01*
X63184286Y-109052207D01*
X63072792Y-108940713D01*
X63072788Y-108940710D01*
X62941685Y-108853109D01*
X62941672Y-108853102D01*
X62796001Y-108792764D01*
X62795989Y-108792761D01*
X62641345Y-108762000D01*
X62641342Y-108762000D01*
X62483658Y-108762000D01*
X62483655Y-108762000D01*
X62329010Y-108792761D01*
X62328998Y-108792764D01*
X62183327Y-108853102D01*
X62183314Y-108853109D01*
X62052211Y-108940710D01*
X62052207Y-108940713D01*
X61940713Y-109052207D01*
X61940710Y-109052211D01*
X61853109Y-109183314D01*
X61853102Y-109183327D01*
X61792764Y-109328998D01*
X61792761Y-109329010D01*
X61762000Y-109483653D01*
X61762000Y-109641346D01*
X61792761Y-109795989D01*
X61792764Y-109796001D01*
X61853102Y-109941672D01*
X61853109Y-109941685D01*
X61940710Y-110072788D01*
X61940713Y-110072792D01*
X62052207Y-110184286D01*
X62052211Y-110184289D01*
X62183314Y-110271890D01*
X62183327Y-110271897D01*
X62265320Y-110305859D01*
X62329003Y-110332237D01*
X62369693Y-110340330D01*
X62431601Y-110372714D01*
X62466176Y-110433429D01*
X62469500Y-110461944D01*
X62469500Y-110499167D01*
X62469501Y-110499192D01*
X62472335Y-110535205D01*
X62517129Y-110689388D01*
X62520230Y-110696554D01*
X62518313Y-110697383D01*
X62532825Y-110754626D01*
X62518686Y-110802777D01*
X62520230Y-110803446D01*
X62517129Y-110810611D01*
X62472335Y-110964791D01*
X62472334Y-110964797D01*
X62469500Y-111000811D01*
X62469500Y-111097058D01*
X62449815Y-111164097D01*
X62433183Y-111184738D01*
X62378208Y-111239714D01*
X62290609Y-111370814D01*
X62290602Y-111370827D01*
X62230264Y-111516498D01*
X62230261Y-111516510D01*
X62199500Y-111671153D01*
X62199500Y-111828846D01*
X62230261Y-111983489D01*
X62230264Y-111983501D01*
X62290602Y-112129172D01*
X62290609Y-112129185D01*
X62378210Y-112260288D01*
X62378213Y-112260292D01*
X62489707Y-112371786D01*
X62489711Y-112371789D01*
X62564885Y-112422019D01*
X62609690Y-112475631D01*
X62618397Y-112544956D01*
X62610556Y-112572571D01*
X62588818Y-112625053D01*
X62588815Y-112625064D01*
X62558054Y-112779707D01*
X62558054Y-112937400D01*
X62588815Y-113092043D01*
X62588818Y-113092055D01*
X62649156Y-113237726D01*
X62649163Y-113237739D01*
X62736764Y-113368842D01*
X62736767Y-113368846D01*
X62848261Y-113480340D01*
X62848265Y-113480343D01*
X62979368Y-113567944D01*
X62979381Y-113567951D01*
X63125052Y-113628289D01*
X63125057Y-113628291D01*
X63279707Y-113659053D01*
X63279710Y-113659054D01*
X63279712Y-113659054D01*
X63437398Y-113659054D01*
X63437399Y-113659053D01*
X63592051Y-113628291D01*
X63737733Y-113567948D01*
X63868843Y-113480343D01*
X63980343Y-113368843D01*
X64067948Y-113237733D01*
X64128291Y-113092051D01*
X64159054Y-112937396D01*
X64159054Y-112779712D01*
X64159054Y-112779709D01*
X64159053Y-112779707D01*
X64155614Y-112762416D01*
X64128291Y-112625057D01*
X64102145Y-112561934D01*
X64067951Y-112479381D01*
X64067944Y-112479368D01*
X63980343Y-112348265D01*
X63980340Y-112348261D01*
X63907396Y-112275317D01*
X63873911Y-112213994D01*
X63878895Y-112144302D01*
X63920767Y-112088369D01*
X63986231Y-112063952D01*
X64005765Y-112066024D01*
X64010000Y-112062844D01*
X64010000Y-111510408D01*
X64010382Y-111500679D01*
X64010500Y-111499181D01*
X64010499Y-111000820D01*
X64010434Y-111000000D01*
X64010382Y-110999332D01*
X64010000Y-110989607D01*
X64010000Y-110510408D01*
X64010001Y-110509954D01*
X64010018Y-110505305D01*
X64010500Y-110499181D01*
X64010500Y-110373546D01*
X64020417Y-110340218D01*
X64030183Y-110306961D01*
X64030361Y-110306806D01*
X64030429Y-110306579D01*
X64056834Y-110283867D01*
X64082987Y-110261206D01*
X64083247Y-110261149D01*
X64083400Y-110261018D01*
X64084666Y-110260840D01*
X64134499Y-110250000D01*
X64386000Y-110250000D01*
X64453039Y-110269685D01*
X64498794Y-110322489D01*
X64510000Y-110374000D01*
X64510000Y-111000000D01*
X65029931Y-111000000D01*
X65027167Y-110964877D01*
X65027166Y-110964871D01*
X64982407Y-110810810D01*
X64979308Y-110803648D01*
X64981169Y-110802842D01*
X64966591Y-110745415D01*
X64980806Y-110697000D01*
X64979308Y-110696352D01*
X64982407Y-110689189D01*
X65027166Y-110535129D01*
X65027167Y-110535123D01*
X65029999Y-110499135D01*
X65030000Y-110499120D01*
X65030000Y-110428597D01*
X65049685Y-110361558D01*
X65102489Y-110315803D01*
X65171647Y-110305859D01*
X65235203Y-110334884D01*
X65241681Y-110340916D01*
X65556272Y-110655507D01*
X65589757Y-110716830D01*
X65584773Y-110786522D01*
X65542901Y-110842455D01*
X65537483Y-110846289D01*
X65489713Y-110878208D01*
X65489707Y-110878213D01*
X65378213Y-110989707D01*
X65378210Y-110989711D01*
X65290609Y-111120814D01*
X65290602Y-111120827D01*
X65230264Y-111266498D01*
X65230261Y-111266510D01*
X65203670Y-111400191D01*
X65171285Y-111462102D01*
X65110569Y-111496677D01*
X65082053Y-111500000D01*
X64510000Y-111500000D01*
X64510000Y-112062843D01*
X64649194Y-112022404D01*
X64787285Y-111940738D01*
X64787294Y-111940731D01*
X64900731Y-111827294D01*
X64900738Y-111827285D01*
X64982404Y-111689194D01*
X64982651Y-111688347D01*
X64983026Y-111687758D01*
X64985506Y-111682030D01*
X64986429Y-111682429D01*
X65020252Y-111629457D01*
X65083721Y-111600245D01*
X65152909Y-111609984D01*
X65205848Y-111655583D01*
X65223348Y-111698737D01*
X65230261Y-111733492D01*
X65230264Y-111733501D01*
X65290602Y-111879172D01*
X65290609Y-111879185D01*
X65378210Y-112010288D01*
X65378213Y-112010292D01*
X65489709Y-112121788D01*
X65498950Y-112127962D01*
X65543756Y-112181573D01*
X65552466Y-112250897D01*
X65522313Y-112313926D01*
X65517745Y-112318746D01*
X65487495Y-112348996D01*
X65399894Y-112480099D01*
X65399887Y-112480112D01*
X65339549Y-112625783D01*
X65339546Y-112625795D01*
X65308785Y-112780438D01*
X65308785Y-112938125D01*
X65321380Y-113001449D01*
X65315151Y-113071041D01*
X65287443Y-113113320D01*
X62631286Y-115769478D01*
X62519481Y-115881282D01*
X62519479Y-115881285D01*
X62469361Y-115968094D01*
X62469359Y-115968096D01*
X62440425Y-116018209D01*
X62440424Y-116018210D01*
X62440423Y-116018215D01*
X62399499Y-116170943D01*
X62399499Y-116170945D01*
X62399499Y-116339046D01*
X62399500Y-116339059D01*
X62399500Y-116602044D01*
X62379815Y-116669083D01*
X62327011Y-116714838D01*
X62299691Y-116723661D01*
X62266510Y-116730261D01*
X62266498Y-116730264D01*
X62120827Y-116790602D01*
X62120814Y-116790609D01*
X61989711Y-116878210D01*
X61989707Y-116878213D01*
X61878213Y-116989707D01*
X61878210Y-116989711D01*
X61790609Y-117120814D01*
X61790602Y-117120827D01*
X61730264Y-117266498D01*
X61730261Y-117266510D01*
X61699500Y-117421153D01*
X61699500Y-117578846D01*
X61730261Y-117733489D01*
X61730264Y-117733501D01*
X61790602Y-117879172D01*
X61790609Y-117879185D01*
X61878210Y-118010288D01*
X61878213Y-118010292D01*
X61989710Y-118121789D01*
X62097734Y-118193968D01*
X62120821Y-118209394D01*
X62182781Y-118235058D01*
X62237184Y-118278898D01*
X62242716Y-118287619D01*
X62292742Y-118374268D01*
X62292746Y-118374273D01*
X62421985Y-118503512D01*
X62421991Y-118503517D01*
X62483743Y-118565269D01*
X62503449Y-118590950D01*
X62519477Y-118618712D01*
X62519479Y-118618715D01*
X62519480Y-118618716D01*
X62567515Y-118666751D01*
X62609824Y-118709060D01*
X62679319Y-118778555D01*
X62679321Y-118778556D01*
X62679325Y-118778559D01*
X62801315Y-118848989D01*
X62816251Y-118857612D01*
X62968978Y-118898536D01*
X62971970Y-118898536D01*
X62987210Y-118899535D01*
X62987686Y-118899535D01*
X62987687Y-118899535D01*
X63402725Y-118899535D01*
X63402729Y-118899536D01*
X63560843Y-118899536D01*
X63564333Y-118898600D01*
X63575892Y-118898537D01*
X63576013Y-118898571D01*
X63576575Y-118898535D01*
X63695208Y-118898535D01*
X63926740Y-118898535D01*
X63993779Y-118918220D01*
X64039534Y-118971024D01*
X64049478Y-119040182D01*
X64020453Y-119103738D01*
X64014421Y-119110216D01*
X63788584Y-119336053D01*
X63727261Y-119369538D01*
X63700903Y-119372372D01*
X62814706Y-119372372D01*
X62656592Y-119372372D01*
X62503864Y-119413295D01*
X62503863Y-119413295D01*
X62503861Y-119413296D01*
X62503860Y-119413296D01*
X62454365Y-119441873D01*
X62366936Y-119492349D01*
X62366931Y-119492353D01*
X62255127Y-119604158D01*
X61233343Y-120625941D01*
X61172020Y-120659426D01*
X61102328Y-120654442D01*
X61046395Y-120612570D01*
X61021978Y-120547106D01*
X61036830Y-120478833D01*
X61039524Y-120474145D01*
X61043478Y-120467606D01*
X61094086Y-120305196D01*
X61100500Y-120234616D01*
X61100500Y-119321384D01*
X61094086Y-119250804D01*
X61043478Y-119088394D01*
X60961424Y-118952661D01*
X60943590Y-118885112D01*
X60961427Y-118824365D01*
X61043018Y-118689398D01*
X61043019Y-118689396D01*
X61093590Y-118527106D01*
X61099999Y-118456572D01*
X61099999Y-117543417D01*
X61093591Y-117472897D01*
X61093590Y-117472892D01*
X61043018Y-117310603D01*
X60955072Y-117165122D01*
X60946751Y-117156801D01*
X60946749Y-117156801D01*
X60014456Y-118089094D01*
X59953133Y-118122579D01*
X59883441Y-118117595D01*
X59839094Y-118089094D01*
X59750000Y-118000000D01*
X59660905Y-118089095D01*
X59599582Y-118122579D01*
X59529890Y-118117595D01*
X59485543Y-118089094D01*
X58553250Y-117156801D01*
X58553249Y-117156801D01*
X58544926Y-117165125D01*
X58456980Y-117310604D01*
X58406409Y-117472893D01*
X58400000Y-117543427D01*
X58400000Y-118456582D01*
X58406408Y-118527102D01*
X58406409Y-118527107D01*
X58456981Y-118689396D01*
X58538573Y-118824366D01*
X58556409Y-118891921D01*
X58538573Y-118952666D01*
X58456522Y-119088393D01*
X58405913Y-119250807D01*
X58400782Y-119307275D01*
X58400657Y-119308658D01*
X58399500Y-119321386D01*
X58399500Y-120234613D01*
X58405913Y-120305192D01*
X58405913Y-120305194D01*
X58405914Y-120305196D01*
X58445795Y-120433181D01*
X58456522Y-120467606D01*
X58538280Y-120602850D01*
X58556116Y-120670405D01*
X58538280Y-120731150D01*
X58456522Y-120866393D01*
X58405913Y-121028807D01*
X58399500Y-121099386D01*
X58399500Y-122012613D01*
X58405913Y-122083192D01*
X58405913Y-122083194D01*
X58405914Y-122083196D01*
X58421490Y-122133182D01*
X58456522Y-122245606D01*
X58544530Y-122391188D01*
X58664811Y-122511469D01*
X58664813Y-122511470D01*
X58664815Y-122511472D01*
X58810394Y-122599478D01*
X58972804Y-122650086D01*
X59043384Y-122656500D01*
X59043387Y-122656500D01*
X60456613Y-122656500D01*
X60456616Y-122656500D01*
X60527196Y-122650086D01*
X60689606Y-122599478D01*
X60835185Y-122511472D01*
X60955472Y-122391185D01*
X61043478Y-122245606D01*
X61044099Y-122243611D01*
X61044951Y-122242332D01*
X61046557Y-122238765D01*
X61047150Y-122239031D01*
X61082836Y-122185464D01*
X61146861Y-122157489D01*
X61162485Y-122156501D01*
X61231575Y-122156501D01*
X61231578Y-122156501D01*
X61384306Y-122115577D01*
X61452119Y-122076425D01*
X61521237Y-122036520D01*
X61633041Y-121924716D01*
X61633041Y-121924714D01*
X61643245Y-121914511D01*
X61643248Y-121914506D01*
X62948065Y-120609691D01*
X63009388Y-120576206D01*
X63035746Y-120573372D01*
X63914331Y-120573372D01*
X63914347Y-120573373D01*
X63921943Y-120573373D01*
X64080054Y-120573373D01*
X64080057Y-120573373D01*
X64232785Y-120532449D01*
X64310822Y-120487394D01*
X64346725Y-120466666D01*
X64369709Y-120453396D01*
X64369708Y-120453396D01*
X64369716Y-120453392D01*
X64481520Y-120341588D01*
X64481520Y-120341586D01*
X64491724Y-120331383D01*
X64491727Y-120331378D01*
X65527820Y-119295285D01*
X65589142Y-119261802D01*
X65658834Y-119266786D01*
X65714767Y-119308658D01*
X65739184Y-119374122D01*
X65739500Y-119382968D01*
X65739500Y-119484697D01*
X65742356Y-119520991D01*
X65742357Y-119520997D01*
X65787504Y-119676390D01*
X65787504Y-119676391D01*
X65787505Y-119676392D01*
X65787506Y-119676395D01*
X65807023Y-119709396D01*
X65810247Y-119714848D01*
X65827428Y-119782572D01*
X65806618Y-119846857D01*
X65790607Y-119870819D01*
X65790602Y-119870828D01*
X65730264Y-120016498D01*
X65730261Y-120016510D01*
X65699500Y-120171153D01*
X65699500Y-120328846D01*
X65709771Y-120380481D01*
X65703544Y-120450072D01*
X65660681Y-120505250D01*
X65622749Y-120523748D01*
X65573810Y-120537966D01*
X65573804Y-120537968D01*
X65434625Y-120620278D01*
X65434616Y-120620285D01*
X65320285Y-120734616D01*
X65320278Y-120734625D01*
X65237968Y-120873804D01*
X65195496Y-121020000D01*
X65876000Y-121020000D01*
X65884685Y-121022550D01*
X65893647Y-121021262D01*
X65917687Y-121032240D01*
X65943039Y-121039685D01*
X65948966Y-121046525D01*
X65957203Y-121050287D01*
X65971492Y-121072521D01*
X65988794Y-121092489D01*
X65991081Y-121103003D01*
X65994977Y-121109065D01*
X66000000Y-121144000D01*
X66000000Y-121325500D01*
X65980315Y-121392539D01*
X65927511Y-121438294D01*
X65876000Y-121449500D01*
X65765302Y-121449500D01*
X65729008Y-121452356D01*
X65729002Y-121452357D01*
X65573610Y-121497503D01*
X65573605Y-121497506D01*
X65564766Y-121502732D01*
X65501648Y-121520000D01*
X65195495Y-121520000D01*
X65158312Y-121569523D01*
X65102318Y-121611315D01*
X65059151Y-121619071D01*
X64921155Y-121619071D01*
X64766510Y-121649832D01*
X64766498Y-121649835D01*
X64620827Y-121710173D01*
X64620814Y-121710180D01*
X64489125Y-121798173D01*
X64422447Y-121819051D01*
X64420234Y-121819071D01*
X64001370Y-121819071D01*
X63973776Y-121826464D01*
X63973777Y-121826465D01*
X63848643Y-121859994D01*
X63848638Y-121859997D01*
X63711719Y-121939046D01*
X63711711Y-121939052D01*
X63268481Y-122382282D01*
X63268479Y-122382285D01*
X63261967Y-122393565D01*
X63229674Y-122449500D01*
X63224085Y-122459180D01*
X63224083Y-122459182D01*
X63189425Y-122519209D01*
X63189423Y-122519212D01*
X63167916Y-122599478D01*
X63148499Y-122671943D01*
X63148499Y-122671945D01*
X63148499Y-122840046D01*
X63148500Y-122840059D01*
X63148500Y-125500989D01*
X63128815Y-125568028D01*
X63076011Y-125613783D01*
X63006853Y-125623727D01*
X62943297Y-125594702D01*
X62915142Y-125559442D01*
X62790985Y-125327162D01*
X62790974Y-125327144D01*
X62613577Y-125061651D01*
X62613567Y-125061637D01*
X62468581Y-124884972D01*
X62468580Y-124884971D01*
X61294250Y-126059300D01*
X61220412Y-125957670D01*
X61042330Y-125779588D01*
X60940698Y-125705748D01*
X62115027Y-124531418D01*
X61938362Y-124386432D01*
X61938348Y-124386422D01*
X61672855Y-124209025D01*
X61672837Y-124209014D01*
X61391237Y-124058495D01*
X61391232Y-124058493D01*
X61096213Y-123936292D01*
X60790628Y-123843594D01*
X60790617Y-123843591D01*
X60477455Y-123781301D01*
X60477438Y-123781298D01*
X60159659Y-123750000D01*
X59840341Y-123750000D01*
X59522561Y-123781298D01*
X59522544Y-123781301D01*
X59209382Y-123843591D01*
X59209371Y-123843594D01*
X58903786Y-123936292D01*
X58608767Y-124058493D01*
X58608762Y-124058495D01*
X58327162Y-124209014D01*
X58327144Y-124209025D01*
X58061651Y-124386422D01*
X58061650Y-124386423D01*
X57884971Y-124531418D01*
X59059301Y-125705748D01*
X58957670Y-125779588D01*
X58779588Y-125957670D01*
X58705748Y-126059301D01*
X57531418Y-124884971D01*
X57386423Y-125061650D01*
X57386422Y-125061651D01*
X57209025Y-125327144D01*
X57209014Y-125327162D01*
X57058495Y-125608762D01*
X57058493Y-125608767D01*
X57039061Y-125655681D01*
X56995220Y-125710084D01*
X56928926Y-125732149D01*
X56861226Y-125714870D01*
X56813616Y-125663732D01*
X56800500Y-125608228D01*
X56800500Y-116903321D01*
X59006873Y-116903321D01*
X59750000Y-117646448D01*
X59750001Y-117646448D01*
X60493125Y-116903321D01*
X60493125Y-116903320D01*
X60456582Y-116900000D01*
X59043426Y-116900000D01*
X59006873Y-116903321D01*
X56800500Y-116903321D01*
X56800500Y-101125321D01*
X59006873Y-101125321D01*
X59750000Y-101868448D01*
X59750001Y-101868448D01*
X60493125Y-101125321D01*
X60493125Y-101125320D01*
X60456582Y-101122000D01*
X59043426Y-101122000D01*
X59006873Y-101125321D01*
X56800500Y-101125321D01*
X56800500Y-98391771D01*
X56820185Y-98324732D01*
X56872989Y-98278977D01*
X56942147Y-98269033D01*
X57005703Y-98298058D01*
X57039061Y-98344319D01*
X57058490Y-98391225D01*
X57058495Y-98391237D01*
X57209014Y-98672837D01*
X57209025Y-98672855D01*
X57386422Y-98938348D01*
X57386432Y-98938362D01*
X57531418Y-99115027D01*
X58705747Y-97940697D01*
X58779588Y-98042330D01*
X58957670Y-98220412D01*
X59059301Y-98294251D01*
X57884971Y-99468580D01*
X57884972Y-99468581D01*
X58061637Y-99613567D01*
X58061651Y-99613577D01*
X58327144Y-99790974D01*
X58327162Y-99790985D01*
X58608762Y-99941504D01*
X58608767Y-99941506D01*
X58903786Y-100063707D01*
X59209371Y-100156405D01*
X59209382Y-100156408D01*
X59522544Y-100218698D01*
X59522561Y-100218701D01*
X59840341Y-100250000D01*
X60159659Y-100250000D01*
X60477438Y-100218701D01*
X60477455Y-100218698D01*
X60790617Y-100156408D01*
X60790628Y-100156405D01*
X61096213Y-100063707D01*
X61391232Y-99941506D01*
X61391237Y-99941504D01*
X61672837Y-99790985D01*
X61672855Y-99790974D01*
X61938348Y-99613577D01*
X61938361Y-99613567D01*
X62115026Y-99468581D01*
X62115027Y-99468580D01*
X60940698Y-98294251D01*
X61042330Y-98220412D01*
X61220412Y-98042330D01*
X61294251Y-97940698D01*
X62468580Y-99115027D01*
X62468581Y-99115026D01*
X62613567Y-98938361D01*
X62613577Y-98938348D01*
X62790974Y-98672855D01*
X62790985Y-98672837D01*
X62941504Y-98391237D01*
X62941506Y-98391232D01*
X63063707Y-98096213D01*
X63156405Y-97790628D01*
X63156408Y-97790617D01*
X63218698Y-97477455D01*
X63218701Y-97477438D01*
X63250000Y-97159658D01*
X63250000Y-96840341D01*
X63218701Y-96522561D01*
X63218698Y-96522544D01*
X63156408Y-96209382D01*
X63156405Y-96209371D01*
X63063707Y-95903786D01*
X62941506Y-95608767D01*
X62941504Y-95608762D01*
X62790985Y-95327162D01*
X62790974Y-95327144D01*
X62613577Y-95061651D01*
X62613567Y-95061637D01*
X62468581Y-94884972D01*
X62468580Y-94884971D01*
X61294251Y-96059300D01*
X61220412Y-95957670D01*
X61042330Y-95779588D01*
X60940697Y-95705747D01*
X62115027Y-94531418D01*
X61938362Y-94386432D01*
X61938348Y-94386422D01*
X61672855Y-94209025D01*
X61672837Y-94209014D01*
X61391237Y-94058495D01*
X61391232Y-94058493D01*
X61344319Y-94039061D01*
X61289916Y-93995220D01*
X61267851Y-93928926D01*
X61285130Y-93861226D01*
X61336268Y-93813616D01*
X61391772Y-93800500D01*
X71539004Y-93800500D01*
X71606043Y-93820185D01*
G37*
G04 #@! TD.AperFunction*
G04 #@! TA.AperFunction,Conductor*
G36*
X93163181Y-109660412D02*
G01*
X93196666Y-109721735D01*
X93199500Y-109748093D01*
X93199500Y-120951906D01*
X93191236Y-120980047D01*
X93185654Y-121008846D01*
X93181505Y-121013187D01*
X93179815Y-121018945D01*
X93157650Y-121038150D01*
X93137383Y-121059360D01*
X93131547Y-121060768D01*
X93127011Y-121064700D01*
X93097976Y-121068874D01*
X93069465Y-121075759D01*
X93061217Y-121074160D01*
X93057853Y-121074644D01*
X93039343Y-121069919D01*
X93034816Y-121069042D01*
X93033463Y-121068572D01*
X92932483Y-121030909D01*
X92921679Y-121029747D01*
X92908316Y-121025106D01*
X92851446Y-120984516D01*
X92825549Y-120919623D01*
X92825000Y-120907970D01*
X92825000Y-118425000D01*
X91475000Y-118425000D01*
X91475000Y-120900500D01*
X91455315Y-120967539D01*
X91402511Y-121013294D01*
X91351000Y-121024500D01*
X90877129Y-121024500D01*
X90877123Y-121024501D01*
X90817516Y-121030908D01*
X90682671Y-121081202D01*
X90682664Y-121081206D01*
X90567455Y-121167452D01*
X90567452Y-121167455D01*
X90481206Y-121282664D01*
X90481202Y-121282671D01*
X90430908Y-121417517D01*
X90424501Y-121477116D01*
X90424500Y-121477135D01*
X90424500Y-122872870D01*
X90424501Y-122872876D01*
X90430908Y-122932483D01*
X90481202Y-123067328D01*
X90481206Y-123067335D01*
X90567452Y-123182544D01*
X90567455Y-123182547D01*
X90682664Y-123268793D01*
X90682671Y-123268797D01*
X90817517Y-123319091D01*
X90817516Y-123319091D01*
X90824444Y-123319835D01*
X90877127Y-123325500D01*
X92872872Y-123325499D01*
X92932483Y-123319091D01*
X93032168Y-123281910D01*
X93101858Y-123276927D01*
X93163181Y-123310412D01*
X93196666Y-123371735D01*
X93199500Y-123398093D01*
X93199500Y-125608228D01*
X93179815Y-125675267D01*
X93127011Y-125721022D01*
X93057853Y-125730966D01*
X92994297Y-125701941D01*
X92960939Y-125655681D01*
X92941506Y-125608767D01*
X92941504Y-125608762D01*
X92790985Y-125327162D01*
X92790974Y-125327144D01*
X92613577Y-125061651D01*
X92613567Y-125061637D01*
X92468581Y-124884972D01*
X92468580Y-124884971D01*
X91294251Y-126059301D01*
X91220412Y-125957670D01*
X91042330Y-125779588D01*
X90940698Y-125705748D01*
X92115027Y-124531418D01*
X91938362Y-124386432D01*
X91938348Y-124386422D01*
X91672855Y-124209025D01*
X91672837Y-124209014D01*
X91391237Y-124058495D01*
X91391232Y-124058493D01*
X91096213Y-123936292D01*
X90790628Y-123843594D01*
X90790617Y-123843591D01*
X90477455Y-123781301D01*
X90477438Y-123781298D01*
X90159659Y-123750000D01*
X89840341Y-123750000D01*
X89522561Y-123781298D01*
X89522544Y-123781301D01*
X89209382Y-123843591D01*
X89209371Y-123843594D01*
X88903786Y-123936292D01*
X88608767Y-124058493D01*
X88608762Y-124058495D01*
X88327162Y-124209014D01*
X88327144Y-124209025D01*
X88061651Y-124386422D01*
X88061650Y-124386423D01*
X87884971Y-124531418D01*
X89059301Y-125705748D01*
X88957670Y-125779588D01*
X88779588Y-125957670D01*
X88705748Y-126059301D01*
X87531418Y-124884971D01*
X87386423Y-125061650D01*
X87386422Y-125061651D01*
X87209025Y-125327144D01*
X87209019Y-125327154D01*
X87083357Y-125562249D01*
X87034394Y-125612093D01*
X86966256Y-125627553D01*
X86900577Y-125603721D01*
X86858208Y-125548163D01*
X86849999Y-125503795D01*
X86849999Y-124765417D01*
X86843591Y-124694897D01*
X86843590Y-124694892D01*
X86821199Y-124623035D01*
X86755060Y-124467404D01*
X86751988Y-124441102D01*
X86745229Y-124415502D01*
X86747999Y-124406942D01*
X86746956Y-124398006D01*
X86758591Y-124374219D01*
X86766746Y-124349028D01*
X86773704Y-124343325D01*
X86777658Y-124335243D01*
X86800306Y-124321523D01*
X86820786Y-124304739D01*
X86835480Y-124300215D01*
X86837418Y-124299042D01*
X86839144Y-124299087D01*
X86844991Y-124297288D01*
X86904231Y-124285504D01*
X86983497Y-124269737D01*
X87129179Y-124209394D01*
X87260289Y-124121789D01*
X87371789Y-124010289D01*
X87459394Y-123879179D01*
X87519737Y-123733497D01*
X87550500Y-123578842D01*
X87550500Y-123421158D01*
X87550500Y-123421155D01*
X87550499Y-123421153D01*
X87539017Y-123363429D01*
X87519737Y-123266503D01*
X87519735Y-123266498D01*
X87459397Y-123120827D01*
X87459390Y-123120814D01*
X87371789Y-122989711D01*
X87371786Y-122989707D01*
X87260292Y-122878213D01*
X87260288Y-122878210D01*
X87129185Y-122790609D01*
X87129172Y-122790602D01*
X86983501Y-122730264D01*
X86983491Y-122730261D01*
X86911308Y-122715903D01*
X86849397Y-122683518D01*
X86814823Y-122622802D01*
X86811500Y-122594286D01*
X86811500Y-119803578D01*
X86811499Y-119803574D01*
X86810978Y-119801630D01*
X86802433Y-119769737D01*
X86771941Y-119655936D01*
X86695516Y-119523565D01*
X86437819Y-119265868D01*
X86404334Y-119204545D01*
X86401500Y-119178187D01*
X86401500Y-119171155D01*
X86401499Y-119171153D01*
X86385037Y-119088393D01*
X86370737Y-119016503D01*
X86359006Y-118988181D01*
X86310397Y-118870827D01*
X86310390Y-118870814D01*
X86222789Y-118739711D01*
X86222786Y-118739707D01*
X86111292Y-118628213D01*
X86111288Y-118628210D01*
X85980185Y-118540609D01*
X85980172Y-118540602D01*
X85834501Y-118480264D01*
X85834489Y-118480261D01*
X85801309Y-118473661D01*
X85773185Y-118458950D01*
X85744297Y-118445757D01*
X85742439Y-118442867D01*
X85739398Y-118441276D01*
X85723691Y-118413693D01*
X85706523Y-118386979D01*
X85705862Y-118382384D01*
X85704824Y-118380561D01*
X85701500Y-118352044D01*
X85701500Y-118171153D01*
X88949500Y-118171153D01*
X88949500Y-118328846D01*
X88980261Y-118483489D01*
X88980264Y-118483501D01*
X89040602Y-118629172D01*
X89040609Y-118629185D01*
X89128210Y-118760288D01*
X89128213Y-118760292D01*
X89239707Y-118871786D01*
X89239711Y-118871789D01*
X89370814Y-118959390D01*
X89370827Y-118959397D01*
X89440319Y-118988181D01*
X89516503Y-119019737D01*
X89665186Y-119049312D01*
X89671153Y-119050499D01*
X89671156Y-119050500D01*
X89671158Y-119050500D01*
X89828844Y-119050500D01*
X89828845Y-119050499D01*
X89983497Y-119019737D01*
X90096166Y-118973067D01*
X90129172Y-118959397D01*
X90129172Y-118959396D01*
X90129179Y-118959394D01*
X90260289Y-118871789D01*
X90371789Y-118760289D01*
X90459394Y-118629179D01*
X90463728Y-118618717D01*
X90494381Y-118544713D01*
X90519737Y-118483497D01*
X90550500Y-118328842D01*
X90550500Y-118171158D01*
X90550500Y-118171155D01*
X90550499Y-118171153D01*
X90540680Y-118121789D01*
X90519737Y-118016503D01*
X90474752Y-117907898D01*
X90459397Y-117870827D01*
X90459390Y-117870814D01*
X90371789Y-117739711D01*
X90371786Y-117739707D01*
X90260292Y-117628213D01*
X90260288Y-117628210D01*
X90129185Y-117540609D01*
X90129172Y-117540602D01*
X89983501Y-117480264D01*
X89983489Y-117480261D01*
X89828845Y-117449500D01*
X89828842Y-117449500D01*
X89671158Y-117449500D01*
X89671155Y-117449500D01*
X89516510Y-117480261D01*
X89516498Y-117480264D01*
X89370827Y-117540602D01*
X89370814Y-117540609D01*
X89239711Y-117628210D01*
X89239707Y-117628213D01*
X89128213Y-117739707D01*
X89128210Y-117739711D01*
X89040609Y-117870814D01*
X89040602Y-117870827D01*
X88980264Y-118016498D01*
X88980261Y-118016510D01*
X88949500Y-118171153D01*
X85701500Y-118171153D01*
X85701500Y-114787874D01*
X85721185Y-114720835D01*
X85773989Y-114675080D01*
X85843147Y-114665136D01*
X85849675Y-114666254D01*
X85873249Y-114670943D01*
X85896157Y-114675500D01*
X85896158Y-114675500D01*
X86053844Y-114675500D01*
X86053845Y-114675499D01*
X86208497Y-114644737D01*
X86354179Y-114584394D01*
X86485289Y-114496789D01*
X86596789Y-114385289D01*
X86684394Y-114254179D01*
X86744737Y-114108497D01*
X86775500Y-113953842D01*
X86775500Y-113824033D01*
X86792113Y-113762032D01*
X86809577Y-113731784D01*
X86850501Y-113579057D01*
X86850501Y-113420942D01*
X86850501Y-113413347D01*
X86850500Y-113413329D01*
X86850500Y-111079765D01*
X86870185Y-111012726D01*
X86871398Y-111010874D01*
X86959390Y-110879185D01*
X86959390Y-110879184D01*
X86959394Y-110879179D01*
X87019737Y-110733497D01*
X87050500Y-110578842D01*
X87050500Y-110421158D01*
X87050500Y-110421155D01*
X87050499Y-110421153D01*
X87029543Y-110315803D01*
X87019737Y-110266503D01*
X87017391Y-110260840D01*
X87011432Y-110246452D01*
X87003963Y-110176983D01*
X87035239Y-110114504D01*
X87095328Y-110078852D01*
X87125993Y-110075000D01*
X89006279Y-110075000D01*
X89073318Y-110094685D01*
X89119073Y-110147489D01*
X89129017Y-110216647D01*
X89109381Y-110267891D01*
X89040609Y-110370814D01*
X89040602Y-110370827D01*
X88980264Y-110516498D01*
X88980261Y-110516510D01*
X88949500Y-110671153D01*
X88949500Y-110828846D01*
X88980261Y-110983489D01*
X88980264Y-110983501D01*
X89040602Y-111129172D01*
X89040609Y-111129185D01*
X89128210Y-111260288D01*
X89128213Y-111260292D01*
X89239707Y-111371786D01*
X89239711Y-111371789D01*
X89370814Y-111459390D01*
X89370827Y-111459397D01*
X89508683Y-111516498D01*
X89516503Y-111519737D01*
X89671153Y-111550499D01*
X89671156Y-111550500D01*
X89671158Y-111550500D01*
X89828844Y-111550500D01*
X89828845Y-111550499D01*
X89983497Y-111519737D01*
X90129179Y-111459394D01*
X90260289Y-111371789D01*
X90371789Y-111260289D01*
X90459394Y-111129179D01*
X90462854Y-111120827D01*
X90508639Y-111010289D01*
X90519737Y-110983497D01*
X90550500Y-110828842D01*
X90550500Y-110671158D01*
X90550500Y-110671155D01*
X90550499Y-110671153D01*
X90532137Y-110578841D01*
X90519737Y-110516503D01*
X90497138Y-110461944D01*
X90459397Y-110370827D01*
X90459390Y-110370814D01*
X90390619Y-110267891D01*
X90369741Y-110201213D01*
X90388226Y-110133833D01*
X90440204Y-110087143D01*
X90493721Y-110075000D01*
X90675000Y-110075000D01*
X90675000Y-109799499D01*
X90694685Y-109732460D01*
X90747489Y-109686705D01*
X90799000Y-109675499D01*
X92872871Y-109675499D01*
X92872872Y-109675499D01*
X92932483Y-109669091D01*
X93032168Y-109631910D01*
X93101858Y-109626927D01*
X93163181Y-109660412D01*
G37*
G04 #@! TD.AperFunction*
G04 #@! TA.AperFunction,Conductor*
G36*
X67912539Y-123350185D02*
G01*
X67958294Y-123402989D01*
X67969500Y-123454500D01*
X67969500Y-123484697D01*
X67972356Y-123520991D01*
X67972357Y-123520997D01*
X68017503Y-123676389D01*
X68017505Y-123676393D01*
X68017506Y-123676395D01*
X68022732Y-123685233D01*
X68027082Y-123701132D01*
X68034977Y-123713417D01*
X68040000Y-123748352D01*
X68040000Y-123781645D01*
X68022734Y-123844763D01*
X68017507Y-123853600D01*
X68017504Y-123853608D01*
X67972357Y-124009002D01*
X67972356Y-124009008D01*
X67969500Y-124045302D01*
X67969500Y-124514697D01*
X67972356Y-124550991D01*
X67972357Y-124550997D01*
X68017503Y-124706389D01*
X68017505Y-124706393D01*
X68017506Y-124706395D01*
X68022732Y-124715233D01*
X68027082Y-124731132D01*
X68034977Y-124743417D01*
X68040000Y-124778352D01*
X68040000Y-124811645D01*
X68022734Y-124874763D01*
X68017507Y-124883600D01*
X68017504Y-124883608D01*
X67972357Y-125039002D01*
X67972356Y-125039008D01*
X67969500Y-125075302D01*
X67969500Y-125186000D01*
X67966949Y-125194685D01*
X67968238Y-125203647D01*
X67957259Y-125227687D01*
X67949815Y-125253039D01*
X67942974Y-125258966D01*
X67939213Y-125267203D01*
X67916978Y-125281492D01*
X67897011Y-125298794D01*
X67886496Y-125301081D01*
X67880435Y-125304977D01*
X67845500Y-125310000D01*
X67724500Y-125310000D01*
X67657461Y-125290315D01*
X67611706Y-125237511D01*
X67600500Y-125186000D01*
X67600500Y-124089059D01*
X67600501Y-124089046D01*
X67600501Y-123920945D01*
X67600501Y-123920943D01*
X67559577Y-123768215D01*
X67559576Y-123768214D01*
X67559576Y-123768212D01*
X67559573Y-123768207D01*
X67556613Y-123763079D01*
X67552463Y-123747592D01*
X67545023Y-123736015D01*
X67540000Y-123701080D01*
X67540000Y-123454500D01*
X67559685Y-123387461D01*
X67612489Y-123341706D01*
X67664000Y-123330500D01*
X67845500Y-123330500D01*
X67912539Y-123350185D01*
G37*
G04 #@! TD.AperFunction*
G04 #@! TA.AperFunction,Conductor*
G36*
X71923039Y-123350185D02*
G01*
X71968794Y-123402989D01*
X71980000Y-123454500D01*
X71980000Y-124054503D01*
X72126194Y-124012031D01*
X72156477Y-123994122D01*
X72224201Y-123976938D01*
X72290464Y-123999097D01*
X72334228Y-124053562D01*
X72337306Y-124061849D01*
X72337451Y-124062288D01*
X72337452Y-124062290D01*
X72425716Y-124205387D01*
X72425719Y-124205391D01*
X72544608Y-124324280D01*
X72544612Y-124324283D01*
X72687704Y-124412544D01*
X72687707Y-124412545D01*
X72687713Y-124412549D01*
X72847315Y-124465436D01*
X72945826Y-124475500D01*
X72945831Y-124475500D01*
X73014895Y-124475500D01*
X73081934Y-124495185D01*
X73127689Y-124547989D01*
X73137633Y-124617147D01*
X73108608Y-124680703D01*
X73049830Y-124718477D01*
X73039087Y-124721117D01*
X72914508Y-124745897D01*
X72914498Y-124745900D01*
X72768827Y-124806238D01*
X72768814Y-124806245D01*
X72637711Y-124893846D01*
X72608090Y-124923467D01*
X72546766Y-124956951D01*
X72477075Y-124951965D01*
X72458410Y-124943171D01*
X72328277Y-124868039D01*
X72328276Y-124868038D01*
X72292318Y-124858403D01*
X72184450Y-124829500D01*
X72035550Y-124829500D01*
X71949255Y-124852622D01*
X71891723Y-124868038D01*
X71891722Y-124868039D01*
X71762778Y-124942484D01*
X71762773Y-124942488D01*
X71657489Y-125047772D01*
X71657485Y-125047778D01*
X71648697Y-125063000D01*
X71598131Y-125111215D01*
X71541310Y-125125000D01*
X70980000Y-125125000D01*
X70980000Y-124625000D01*
X71680000Y-124625000D01*
X71680000Y-124226508D01*
X71679999Y-124226504D01*
X71672738Y-124190000D01*
X71604000Y-124190000D01*
X71536961Y-124170315D01*
X71491206Y-124117511D01*
X71480000Y-124066000D01*
X71480000Y-123748352D01*
X71497267Y-123685233D01*
X71502494Y-123676395D01*
X71518562Y-123621091D01*
X71547642Y-123520997D01*
X71547643Y-123520991D01*
X71550499Y-123484697D01*
X71550500Y-123484690D01*
X71550500Y-123454500D01*
X71553050Y-123445814D01*
X71551762Y-123436853D01*
X71562740Y-123412812D01*
X71570185Y-123387461D01*
X71577025Y-123381533D01*
X71580787Y-123373297D01*
X71603021Y-123359007D01*
X71622989Y-123341706D01*
X71633503Y-123339418D01*
X71639565Y-123335523D01*
X71674500Y-123330500D01*
X71856000Y-123330500D01*
X71923039Y-123350185D01*
G37*
G04 #@! TD.AperFunction*
G04 #@! TA.AperFunction,Conductor*
G36*
X67532070Y-118359185D02*
G01*
X67552712Y-118375819D01*
X67693681Y-118516788D01*
X67727166Y-118578111D01*
X67730000Y-118604469D01*
X67730000Y-119000000D01*
X68258790Y-119000000D01*
X68257145Y-118979088D01*
X68244364Y-118935093D01*
X68244565Y-118865224D01*
X68282507Y-118806554D01*
X68346146Y-118777712D01*
X68363441Y-118776500D01*
X69283187Y-118776500D01*
X69350226Y-118796185D01*
X69395981Y-118848989D01*
X69405925Y-118918147D01*
X69376900Y-118981703D01*
X69370868Y-118988181D01*
X67925866Y-120433181D01*
X67864543Y-120466666D01*
X67838186Y-120469500D01*
X67690831Y-120469500D01*
X67690807Y-120469501D01*
X67654794Y-120472335D01*
X67500611Y-120517129D01*
X67500605Y-120517131D01*
X67477846Y-120530591D01*
X67472545Y-120531935D01*
X67468486Y-120535598D01*
X67439042Y-120540434D01*
X67410121Y-120547771D01*
X67403503Y-120546271D01*
X67399540Y-120546923D01*
X67365484Y-120537659D01*
X67359316Y-120534990D01*
X67305607Y-120490301D01*
X67284585Y-120423669D01*
X67286943Y-120396995D01*
X67291740Y-120372883D01*
X67300500Y-120328842D01*
X67300500Y-120171158D01*
X67300500Y-120171155D01*
X67300499Y-120171153D01*
X67277296Y-120054503D01*
X67730000Y-120054503D01*
X67876195Y-120012031D01*
X68015374Y-119929721D01*
X68015383Y-119929714D01*
X68129714Y-119815383D01*
X68129721Y-119815374D01*
X68212031Y-119676195D01*
X68212033Y-119676190D01*
X68257144Y-119520918D01*
X68257145Y-119520912D01*
X68258790Y-119500000D01*
X67730000Y-119500000D01*
X67730000Y-120054503D01*
X67277296Y-120054503D01*
X67269739Y-120016511D01*
X67269736Y-120016501D01*
X67239439Y-119943356D01*
X67237812Y-119935179D01*
X67235023Y-119930839D01*
X67230000Y-119895904D01*
X67230000Y-119748352D01*
X67247269Y-119685229D01*
X67252494Y-119676395D01*
X67297643Y-119520993D01*
X67300500Y-119484690D01*
X67300500Y-119015310D01*
X67297643Y-118979007D01*
X67289990Y-118952667D01*
X67252495Y-118823608D01*
X67252492Y-118823600D01*
X67247266Y-118814763D01*
X67242916Y-118798862D01*
X67235023Y-118786580D01*
X67230000Y-118751645D01*
X67230000Y-118748352D01*
X67247267Y-118685233D01*
X67252494Y-118676395D01*
X67253515Y-118672883D01*
X67297642Y-118520997D01*
X67297643Y-118520991D01*
X67299018Y-118503517D01*
X67300500Y-118484690D01*
X67300500Y-118463500D01*
X67303050Y-118454814D01*
X67301762Y-118445853D01*
X67312740Y-118421812D01*
X67320185Y-118396461D01*
X67327025Y-118390533D01*
X67330787Y-118382297D01*
X67353021Y-118368007D01*
X67372989Y-118350706D01*
X67383503Y-118348418D01*
X67389565Y-118344523D01*
X67424500Y-118339500D01*
X67465031Y-118339500D01*
X67532070Y-118359185D01*
G37*
G04 #@! TD.AperFunction*
G04 #@! TA.AperFunction,Conductor*
G36*
X81718039Y-110370185D02*
G01*
X81763794Y-110422989D01*
X81775000Y-110474500D01*
X81775000Y-118775000D01*
X83375000Y-118775000D01*
X83375000Y-112773597D01*
X83381238Y-112752351D01*
X83382818Y-112730263D01*
X83390890Y-112719479D01*
X83394685Y-112706558D01*
X83411418Y-112692058D01*
X83424690Y-112674330D01*
X83437310Y-112669622D01*
X83447489Y-112660803D01*
X83469406Y-112657651D01*
X83490154Y-112649913D01*
X83503314Y-112652775D01*
X83516647Y-112650859D01*
X83536790Y-112660058D01*
X83558427Y-112664765D01*
X83576152Y-112678033D01*
X83580203Y-112679884D01*
X83586681Y-112685916D01*
X83663181Y-112762416D01*
X83696666Y-112823739D01*
X83699500Y-112850097D01*
X83699500Y-112928846D01*
X83730261Y-113083489D01*
X83730264Y-113083501D01*
X83790602Y-113229172D01*
X83790609Y-113229185D01*
X83878210Y-113360288D01*
X83878213Y-113360292D01*
X83989707Y-113471786D01*
X83989711Y-113471789D01*
X84120814Y-113559390D01*
X84120827Y-113559397D01*
X84256274Y-113615500D01*
X84266503Y-113619737D01*
X84360645Y-113638463D01*
X84400691Y-113646429D01*
X84462602Y-113678814D01*
X84497176Y-113739529D01*
X84500500Y-113768046D01*
X84500500Y-120180187D01*
X84480815Y-120247226D01*
X84428011Y-120292981D01*
X84358853Y-120302925D01*
X84295297Y-120273900D01*
X84288819Y-120267868D01*
X83806437Y-119785486D01*
X83806431Y-119785481D01*
X83674068Y-119709061D01*
X83674069Y-119709061D01*
X83648206Y-119702131D01*
X83552157Y-119676395D01*
X83552154Y-119676394D01*
X83526425Y-119669500D01*
X83526424Y-119669500D01*
X82151934Y-119669500D01*
X82084895Y-119649815D01*
X82039140Y-119597011D01*
X82030317Y-119569691D01*
X82026225Y-119549124D01*
X82019737Y-119516503D01*
X82004651Y-119480082D01*
X81959397Y-119370827D01*
X81959390Y-119370814D01*
X81871789Y-119239711D01*
X81871786Y-119239707D01*
X81760292Y-119128213D01*
X81760288Y-119128210D01*
X81629185Y-119040609D01*
X81629172Y-119040602D01*
X81483501Y-118980264D01*
X81483489Y-118980261D01*
X81328845Y-118949500D01*
X81328842Y-118949500D01*
X81171158Y-118949500D01*
X81171155Y-118949500D01*
X81016510Y-118980261D01*
X81016498Y-118980264D01*
X80870827Y-119040602D01*
X80870816Y-119040608D01*
X80778216Y-119102481D01*
X80711538Y-119123358D01*
X80644158Y-119104873D01*
X80621645Y-119087059D01*
X79285819Y-117751233D01*
X79252334Y-117689910D01*
X79249500Y-117663552D01*
X79249500Y-115768046D01*
X79269185Y-115701007D01*
X79321989Y-115655252D01*
X79349309Y-115646429D01*
X79378848Y-115640552D01*
X79483497Y-115619737D01*
X79596166Y-115573067D01*
X79629172Y-115559397D01*
X79629172Y-115559396D01*
X79629179Y-115559394D01*
X79760289Y-115471789D01*
X79871789Y-115360289D01*
X79959394Y-115229179D01*
X80019737Y-115083497D01*
X80050500Y-114928842D01*
X80050500Y-114771158D01*
X80050500Y-114771155D01*
X80050499Y-114771153D01*
X80030565Y-114670939D01*
X80019737Y-114616503D01*
X80019735Y-114616498D01*
X79959397Y-114470827D01*
X79959390Y-114470814D01*
X79871789Y-114339711D01*
X79871786Y-114339707D01*
X79760292Y-114228213D01*
X79760288Y-114228210D01*
X79629185Y-114140609D01*
X79629172Y-114140602D01*
X79483501Y-114080264D01*
X79483491Y-114080261D01*
X79450309Y-114073661D01*
X79422174Y-114058944D01*
X79393301Y-114045759D01*
X79391443Y-114042869D01*
X79388398Y-114041276D01*
X79372683Y-114013679D01*
X79355525Y-113986982D01*
X79354864Y-113982386D01*
X79353824Y-113980560D01*
X79350501Y-113952047D01*
X79350501Y-113920942D01*
X79350500Y-113920938D01*
X79350500Y-113897955D01*
X79370185Y-113830916D01*
X79422989Y-113785161D01*
X79450303Y-113776339D01*
X79483497Y-113769737D01*
X79629179Y-113709394D01*
X79760289Y-113621789D01*
X79871789Y-113510289D01*
X79959394Y-113379179D01*
X79959525Y-113378864D01*
X80017043Y-113240000D01*
X80019737Y-113233497D01*
X80050500Y-113078842D01*
X80050500Y-112921158D01*
X80050500Y-112921155D01*
X80050499Y-112921153D01*
X80023901Y-112787437D01*
X80019737Y-112766503D01*
X80001657Y-112722854D01*
X79959397Y-112620827D01*
X79959390Y-112620814D01*
X79871789Y-112489711D01*
X79871786Y-112489707D01*
X79760292Y-112378213D01*
X79760288Y-112378210D01*
X79629185Y-112290609D01*
X79629172Y-112290602D01*
X79483501Y-112230264D01*
X79483489Y-112230261D01*
X79328845Y-112199500D01*
X79328842Y-112199500D01*
X79171158Y-112199500D01*
X79171155Y-112199500D01*
X79016510Y-112230261D01*
X79016498Y-112230264D01*
X78870827Y-112290602D01*
X78870809Y-112290612D01*
X78793390Y-112342342D01*
X78726713Y-112363220D01*
X78659333Y-112344735D01*
X78612643Y-112292756D01*
X78600500Y-112239240D01*
X78600500Y-111247955D01*
X78620185Y-111180916D01*
X78672989Y-111135161D01*
X78700303Y-111126339D01*
X78733497Y-111119737D01*
X78879179Y-111059394D01*
X79010289Y-110971789D01*
X79121789Y-110860289D01*
X79209394Y-110729179D01*
X79269737Y-110583497D01*
X79283064Y-110516498D01*
X79296231Y-110450308D01*
X79328616Y-110388397D01*
X79389332Y-110353823D01*
X79417848Y-110350500D01*
X81651000Y-110350500D01*
X81718039Y-110370185D01*
G37*
G04 #@! TD.AperFunction*
G04 #@! TA.AperFunction,Conductor*
G36*
X65783694Y-114418053D02*
G01*
X65839627Y-114459925D01*
X65864044Y-114525389D01*
X65861978Y-114558425D01*
X65849500Y-114621158D01*
X65849500Y-114778846D01*
X65880261Y-114933489D01*
X65880264Y-114933501D01*
X65940602Y-115079172D01*
X65940609Y-115079185D01*
X66028210Y-115210288D01*
X66028213Y-115210292D01*
X66139707Y-115321786D01*
X66139711Y-115321789D01*
X66270814Y-115409390D01*
X66270827Y-115409397D01*
X66416498Y-115469735D01*
X66416503Y-115469737D01*
X66539999Y-115494302D01*
X66571153Y-115500499D01*
X66571156Y-115500500D01*
X66571158Y-115500500D01*
X66728844Y-115500500D01*
X66791308Y-115488075D01*
X66860900Y-115494302D01*
X66916077Y-115537165D01*
X66939322Y-115603055D01*
X66939500Y-115609692D01*
X66939500Y-115974697D01*
X66942356Y-116010991D01*
X66942357Y-116010997D01*
X66987504Y-116166390D01*
X66987507Y-116166397D01*
X66999910Y-116187370D01*
X67017093Y-116255094D01*
X66999912Y-116313608D01*
X66987968Y-116333804D01*
X66945496Y-116480000D01*
X67251648Y-116480000D01*
X67314766Y-116497267D01*
X67323605Y-116502494D01*
X67323608Y-116502494D01*
X67323610Y-116502496D01*
X67479002Y-116547642D01*
X67479005Y-116547642D01*
X67479007Y-116547643D01*
X67515310Y-116550500D01*
X67558401Y-116550500D01*
X67582591Y-116552882D01*
X67610992Y-116558532D01*
X67671156Y-116570500D01*
X67671158Y-116570500D01*
X67828843Y-116570500D01*
X67874398Y-116561438D01*
X67917408Y-116552882D01*
X67941599Y-116550500D01*
X67984682Y-116550500D01*
X67984690Y-116550500D01*
X68020993Y-116547643D01*
X68020995Y-116547642D01*
X68020997Y-116547642D01*
X68176389Y-116502496D01*
X68176389Y-116502495D01*
X68176395Y-116502494D01*
X68185233Y-116497267D01*
X68201132Y-116492917D01*
X68213417Y-116485023D01*
X68248352Y-116480000D01*
X68251648Y-116480000D01*
X68314766Y-116497267D01*
X68323605Y-116502494D01*
X68323608Y-116502494D01*
X68323610Y-116502496D01*
X68479002Y-116547642D01*
X68479005Y-116547642D01*
X68479007Y-116547643D01*
X68515310Y-116550500D01*
X68515318Y-116550500D01*
X68984682Y-116550500D01*
X68984690Y-116550500D01*
X69020993Y-116547643D01*
X69020995Y-116547642D01*
X69020997Y-116547642D01*
X69176389Y-116502496D01*
X69176389Y-116502495D01*
X69176395Y-116502494D01*
X69185233Y-116497267D01*
X69248352Y-116480000D01*
X69618638Y-116480000D01*
X69637076Y-116481378D01*
X69770086Y-116501378D01*
X69789284Y-116510296D01*
X69814766Y-116517267D01*
X69823605Y-116522494D01*
X69823608Y-116522494D01*
X69823610Y-116522496D01*
X69979002Y-116567642D01*
X69979005Y-116567642D01*
X69979007Y-116567643D01*
X70015310Y-116570500D01*
X70015318Y-116570500D01*
X70484682Y-116570500D01*
X70484690Y-116570500D01*
X70520993Y-116567643D01*
X70520995Y-116567642D01*
X70520997Y-116567642D01*
X70581389Y-116550096D01*
X70676395Y-116522494D01*
X70703788Y-116506293D01*
X70771510Y-116489110D01*
X70815320Y-116502004D01*
X70816449Y-116499397D01*
X70823600Y-116502491D01*
X70823605Y-116502494D01*
X70864587Y-116514400D01*
X70979002Y-116547642D01*
X70979005Y-116547642D01*
X70979007Y-116547643D01*
X71015310Y-116550500D01*
X71058401Y-116550500D01*
X71082592Y-116552883D01*
X71150192Y-116566329D01*
X71212102Y-116598713D01*
X71246676Y-116659429D01*
X71250000Y-116687946D01*
X71250000Y-116868638D01*
X71230315Y-116935677D01*
X71213681Y-116956319D01*
X71206319Y-116963681D01*
X71144996Y-116997166D01*
X71118638Y-117000000D01*
X70866771Y-117000000D01*
X70799732Y-116980315D01*
X70797879Y-116979101D01*
X70779186Y-116966610D01*
X70779180Y-116966607D01*
X70779179Y-116966606D01*
X70779176Y-116966605D01*
X70779171Y-116966602D01*
X70633501Y-116906264D01*
X70633489Y-116906261D01*
X70478845Y-116875500D01*
X70478842Y-116875500D01*
X70321158Y-116875500D01*
X70321157Y-116875500D01*
X70250001Y-116889654D01*
X70250000Y-116889654D01*
X70166510Y-116906261D01*
X70166498Y-116906264D01*
X70020828Y-116966602D01*
X70020813Y-116966610D01*
X70002121Y-116979101D01*
X69935444Y-116999980D01*
X69933229Y-117000000D01*
X69381362Y-117000000D01*
X69314323Y-116980315D01*
X69313932Y-116980000D01*
X66945495Y-116980000D01*
X66945467Y-116980036D01*
X66945267Y-117049776D01*
X66907325Y-117108445D01*
X66843686Y-117137288D01*
X66826391Y-117138500D01*
X66155815Y-117138500D01*
X66003085Y-117179423D01*
X65958309Y-117205276D01*
X65958308Y-117205276D01*
X65866159Y-117258477D01*
X65866154Y-117258481D01*
X65754350Y-117370286D01*
X65466038Y-117658597D01*
X65465182Y-117659064D01*
X65464702Y-117659913D01*
X65434574Y-117675777D01*
X65404715Y-117692082D01*
X65403743Y-117692012D01*
X65402880Y-117692467D01*
X65368980Y-117689526D01*
X65335023Y-117687098D01*
X65333920Y-117686485D01*
X65333272Y-117686429D01*
X65330149Y-117684388D01*
X65302554Y-117669048D01*
X65296278Y-117664200D01*
X65260289Y-117628211D01*
X65181757Y-117575737D01*
X65178384Y-117573132D01*
X65160272Y-117548160D01*
X65140491Y-117524490D01*
X65139943Y-117520129D01*
X65137363Y-117516572D01*
X65135627Y-117485767D01*
X65131784Y-117455165D01*
X65133680Y-117451201D01*
X65133433Y-117446813D01*
X65148624Y-117419965D01*
X65161938Y-117392138D01*
X65166710Y-117388002D01*
X65167842Y-117386003D01*
X65170839Y-117384424D01*
X65185296Y-117371898D01*
X65233908Y-117339416D01*
X65260289Y-117321789D01*
X65371789Y-117210289D01*
X65459394Y-117079179D01*
X65519737Y-116933497D01*
X65550500Y-116778842D01*
X65550500Y-116621158D01*
X65550500Y-116621155D01*
X65550499Y-116621153D01*
X65535877Y-116547643D01*
X65519737Y-116466503D01*
X65500955Y-116421158D01*
X65459397Y-116320827D01*
X65459390Y-116320814D01*
X65371789Y-116189711D01*
X65371786Y-116189707D01*
X65260292Y-116078213D01*
X65260288Y-116078210D01*
X65129185Y-115990609D01*
X65129172Y-115990602D01*
X64983501Y-115930264D01*
X64983489Y-115930261D01*
X64828845Y-115899500D01*
X64828842Y-115899500D01*
X64671158Y-115899500D01*
X64671155Y-115899500D01*
X64516510Y-115930261D01*
X64516503Y-115930263D01*
X64499164Y-115937445D01*
X64429695Y-115944912D01*
X64367216Y-115913637D01*
X64331564Y-115853547D01*
X64334059Y-115783722D01*
X64364030Y-115735203D01*
X65652681Y-114446552D01*
X65714002Y-114413069D01*
X65783694Y-114418053D01*
G37*
G04 #@! TD.AperFunction*
G04 #@! TA.AperFunction,Conductor*
G36*
X66781630Y-111911390D02*
G01*
X66787156Y-111911178D01*
X66812813Y-111926308D01*
X66839673Y-111939159D01*
X66844492Y-111943727D01*
X66913138Y-112012373D01*
X66913148Y-112012384D01*
X66917478Y-112016714D01*
X66917479Y-112016715D01*
X67029283Y-112128519D01*
X67108925Y-112174500D01*
X67166214Y-112207576D01*
X67318942Y-112248499D01*
X68196902Y-112248499D01*
X68263941Y-112268184D01*
X68284583Y-112284818D01*
X69831503Y-113831738D01*
X69858383Y-113871966D01*
X69871046Y-113902537D01*
X69871051Y-113902547D01*
X69958652Y-114033650D01*
X69958655Y-114033654D01*
X70070151Y-114145150D01*
X70079360Y-114151303D01*
X70094388Y-114161344D01*
X70099477Y-114167433D01*
X70106698Y-114170731D01*
X70121561Y-114193856D01*
X70139194Y-114214954D01*
X70141146Y-114224328D01*
X70144475Y-114229508D01*
X70149497Y-114264434D01*
X70149499Y-114264443D01*
X70149499Y-114282804D01*
X70149499Y-114282805D01*
X70149500Y-114292800D01*
X70149500Y-114663330D01*
X70149499Y-114663348D01*
X70149499Y-114829054D01*
X70149498Y-114829054D01*
X70149499Y-114829057D01*
X70156023Y-114853408D01*
X70154361Y-114923256D01*
X70115199Y-114981119D01*
X70050970Y-115008623D01*
X70036249Y-115009500D01*
X70015302Y-115009500D01*
X69979008Y-115012356D01*
X69979002Y-115012357D01*
X69823609Y-115057504D01*
X69823606Y-115057505D01*
X69684315Y-115139881D01*
X69684307Y-115139887D01*
X69597681Y-115226514D01*
X69536358Y-115259999D01*
X69466666Y-115255015D01*
X69422319Y-115226514D01*
X69315692Y-115119887D01*
X69315684Y-115119881D01*
X69176393Y-115037505D01*
X69176390Y-115037504D01*
X69020997Y-114992357D01*
X69020991Y-114992356D01*
X68984697Y-114989500D01*
X68984690Y-114989500D01*
X68638976Y-114989500D01*
X68571937Y-114969815D01*
X68526182Y-114917011D01*
X68516238Y-114847853D01*
X68519900Y-114830905D01*
X68557642Y-114700997D01*
X68557643Y-114700991D01*
X68559682Y-114675080D01*
X68560500Y-114664690D01*
X68560500Y-114255310D01*
X68557643Y-114219007D01*
X68556465Y-114214954D01*
X68517333Y-114080261D01*
X68512494Y-114063605D01*
X68500089Y-114042630D01*
X68482906Y-113974909D01*
X68500091Y-113916384D01*
X68512032Y-113896194D01*
X68554504Y-113750000D01*
X68248352Y-113750000D01*
X68185233Y-113732732D01*
X68176395Y-113727506D01*
X68176393Y-113727505D01*
X68176389Y-113727503D01*
X68020997Y-113682357D01*
X68020991Y-113682356D01*
X67984697Y-113679500D01*
X67984690Y-113679500D01*
X67515310Y-113679500D01*
X67515302Y-113679500D01*
X67479008Y-113682356D01*
X67479002Y-113682357D01*
X67323608Y-113727504D01*
X67323600Y-113727507D01*
X67314767Y-113732732D01*
X67298865Y-113737082D01*
X67286581Y-113744977D01*
X67251646Y-113750000D01*
X67079234Y-113750000D01*
X67044640Y-113745076D01*
X67035204Y-113742335D01*
X67035201Y-113742334D01*
X67035202Y-113742334D01*
X66999188Y-113739500D01*
X66874000Y-113739500D01*
X66806961Y-113719815D01*
X66761206Y-113667011D01*
X66750000Y-113615500D01*
X66750000Y-113378864D01*
X66755328Y-113360718D01*
X66755666Y-113341810D01*
X66769166Y-113313591D01*
X66769685Y-113311825D01*
X66770858Y-113310033D01*
X66780831Y-113295106D01*
X66834443Y-113250304D01*
X66835903Y-113250000D01*
X68000000Y-113250000D01*
X68554504Y-113250000D01*
X68512031Y-113103804D01*
X68429721Y-112964625D01*
X68429714Y-112964616D01*
X68315383Y-112850285D01*
X68315374Y-112850278D01*
X68176195Y-112767968D01*
X68176190Y-112767966D01*
X68020918Y-112722855D01*
X68020912Y-112722854D01*
X68000000Y-112721209D01*
X68000000Y-113250000D01*
X66835903Y-113250000D01*
X66883932Y-113240000D01*
X67500000Y-113240000D01*
X67500000Y-112721210D01*
X67499999Y-112721209D01*
X67479087Y-112722854D01*
X67479081Y-112722855D01*
X67323809Y-112767966D01*
X67323798Y-112767971D01*
X67319924Y-112770262D01*
X67252198Y-112787437D01*
X67193697Y-112770257D01*
X67189198Y-112767596D01*
X67189187Y-112767592D01*
X67035129Y-112722833D01*
X67035123Y-112722832D01*
X66999135Y-112720000D01*
X66996700Y-112719905D01*
X66996703Y-112719809D01*
X66996701Y-112719809D01*
X66996706Y-112719738D01*
X66996728Y-112719178D01*
X66932487Y-112700315D01*
X66886732Y-112647511D01*
X66881531Y-112631395D01*
X66880791Y-112631620D01*
X66879020Y-112625783D01*
X66818682Y-112480112D01*
X66818675Y-112480099D01*
X66731074Y-112348996D01*
X66731071Y-112348992D01*
X66619577Y-112237498D01*
X66619572Y-112237494D01*
X66610333Y-112231321D01*
X66601098Y-112220271D01*
X66588693Y-112212956D01*
X66579139Y-112193997D01*
X66565527Y-112177710D01*
X66563731Y-112163421D01*
X66557251Y-112150560D01*
X66559464Y-112129447D01*
X66556818Y-112108385D01*
X66563170Y-112094088D01*
X66564535Y-112081071D01*
X66577804Y-112061154D01*
X66582463Y-112050670D01*
X66586721Y-112045356D01*
X66621789Y-112010289D01*
X66656694Y-111958049D01*
X66660052Y-111953860D01*
X66684467Y-111936811D01*
X66707320Y-111917713D01*
X66712805Y-111917023D01*
X66717338Y-111913859D01*
X66747100Y-111912716D01*
X66776645Y-111909005D01*
X66781630Y-111911390D01*
G37*
G04 #@! TD.AperFunction*
G04 #@! TA.AperFunction,Conductor*
G36*
X70328635Y-109851420D02*
G01*
X70331814Y-109850661D01*
X70361935Y-109861198D01*
X70392539Y-109870185D01*
X70394677Y-109872653D01*
X70397764Y-109873733D01*
X70417409Y-109898887D01*
X70438294Y-109922989D01*
X70439089Y-109926646D01*
X70440771Y-109928799D01*
X70448977Y-109963125D01*
X70449500Y-109968802D01*
X70449500Y-110078844D01*
X70468381Y-110173771D01*
X70468977Y-110180234D01*
X70469500Y-110191607D01*
X70469500Y-110249168D01*
X70469501Y-110249192D01*
X70472335Y-110285205D01*
X70517129Y-110439388D01*
X70517131Y-110439393D01*
X70598863Y-110577595D01*
X70598869Y-110577603D01*
X70712396Y-110691130D01*
X70712400Y-110691133D01*
X70712402Y-110691135D01*
X70850607Y-110772869D01*
X70850614Y-110772871D01*
X71004791Y-110817664D01*
X71004794Y-110817664D01*
X71004796Y-110817665D01*
X71040819Y-110820500D01*
X71439180Y-110820499D01*
X71475204Y-110817665D01*
X71629393Y-110772869D01*
X71686882Y-110738869D01*
X71754602Y-110721688D01*
X71813117Y-110738869D01*
X71870607Y-110772869D01*
X71870610Y-110772869D01*
X71870612Y-110772871D01*
X72024791Y-110817664D01*
X72024794Y-110817664D01*
X72024796Y-110817665D01*
X72060819Y-110820500D01*
X72459180Y-110820499D01*
X72495204Y-110817665D01*
X72649393Y-110772869D01*
X72750844Y-110712870D01*
X72818564Y-110695689D01*
X72864732Y-110708172D01*
X72865192Y-110707063D01*
X73016498Y-110769735D01*
X73016503Y-110769737D01*
X73171153Y-110800499D01*
X73171156Y-110800500D01*
X73171158Y-110800500D01*
X73328844Y-110800500D01*
X73328845Y-110800499D01*
X73483497Y-110769737D01*
X73558664Y-110738602D01*
X73634808Y-110707063D01*
X73635450Y-110708614D01*
X73695957Y-110696001D01*
X73749156Y-110712871D01*
X73850607Y-110772869D01*
X73850614Y-110772871D01*
X74004791Y-110817664D01*
X74004794Y-110817664D01*
X74004796Y-110817665D01*
X74040819Y-110820500D01*
X74439180Y-110820499D01*
X74475204Y-110817665D01*
X74629393Y-110772869D01*
X74686882Y-110738869D01*
X74754602Y-110721688D01*
X74813117Y-110738869D01*
X74870607Y-110772869D01*
X74870610Y-110772869D01*
X74870612Y-110772871D01*
X75024791Y-110817664D01*
X75024794Y-110817664D01*
X75024796Y-110817665D01*
X75060819Y-110820500D01*
X75459180Y-110820499D01*
X75495204Y-110817665D01*
X75515904Y-110811651D01*
X75585771Y-110811848D01*
X75644442Y-110849788D01*
X75672793Y-110910223D01*
X75674500Y-110920409D01*
X75674501Y-110972872D01*
X75680909Y-111032483D01*
X75703401Y-111092788D01*
X75705364Y-111104496D01*
X75702557Y-111127871D01*
X75704237Y-111151358D01*
X75699253Y-111168331D01*
X75680909Y-111217514D01*
X75680908Y-111217516D01*
X75674501Y-111277116D01*
X75674500Y-111277135D01*
X75674500Y-111419902D01*
X75654815Y-111486941D01*
X75638181Y-111507583D01*
X74646949Y-112498814D01*
X74585626Y-112532299D01*
X74515934Y-112527315D01*
X74513804Y-112526498D01*
X74421564Y-112490123D01*
X74421563Y-112490122D01*
X74421561Y-112490122D01*
X74375926Y-112484642D01*
X74333102Y-112479500D01*
X73846898Y-112479500D01*
X73807853Y-112484188D01*
X73758438Y-112490122D01*
X73617656Y-112545639D01*
X73539925Y-112604585D01*
X73474613Y-112629408D01*
X73406250Y-112614980D01*
X73390075Y-112604585D01*
X73312343Y-112545639D01*
X73214579Y-112507086D01*
X73171564Y-112490123D01*
X73171563Y-112490122D01*
X73171561Y-112490122D01*
X73125926Y-112484642D01*
X73083102Y-112479500D01*
X72596898Y-112479500D01*
X72557853Y-112484188D01*
X72508438Y-112490122D01*
X72449270Y-112513454D01*
X72379683Y-112519734D01*
X72356335Y-112512661D01*
X72342879Y-112507088D01*
X72342874Y-112507086D01*
X72188226Y-112476325D01*
X72188223Y-112476325D01*
X72030539Y-112476325D01*
X72030536Y-112476325D01*
X71875891Y-112507086D01*
X71875879Y-112507089D01*
X71730208Y-112567427D01*
X71730195Y-112567434D01*
X71599087Y-112655038D01*
X71596500Y-112657162D01*
X71594880Y-112657849D01*
X71594027Y-112658420D01*
X71593918Y-112658258D01*
X71532190Y-112684474D01*
X71463322Y-112672680D01*
X71411764Y-112625527D01*
X71396221Y-112585498D01*
X71385417Y-112531183D01*
X71369737Y-112452355D01*
X71339026Y-112378211D01*
X71309397Y-112306679D01*
X71309390Y-112306666D01*
X71221789Y-112175563D01*
X71221786Y-112175559D01*
X71110292Y-112064065D01*
X71110288Y-112064062D01*
X70979185Y-111976461D01*
X70979172Y-111976454D01*
X70833501Y-111916116D01*
X70833489Y-111916113D01*
X70678845Y-111885352D01*
X70678842Y-111885352D01*
X70521158Y-111885352D01*
X70521155Y-111885352D01*
X70366510Y-111916113D01*
X70366498Y-111916116D01*
X70220827Y-111976454D01*
X70220814Y-111976461D01*
X70089711Y-112064062D01*
X70089707Y-112064065D01*
X70013685Y-112140088D01*
X69952362Y-112173573D01*
X69882670Y-112168589D01*
X69838323Y-112140088D01*
X68984589Y-111286354D01*
X68984587Y-111286351D01*
X68865716Y-111167480D01*
X68865708Y-111167474D01*
X68747972Y-111099500D01*
X68747969Y-111099499D01*
X68728784Y-111088422D01*
X68576056Y-111047498D01*
X68417942Y-111047498D01*
X68410346Y-111047498D01*
X68410330Y-111047499D01*
X67698096Y-111047499D01*
X67631057Y-111027814D01*
X67610415Y-111011180D01*
X66661416Y-110062181D01*
X66627931Y-110000858D01*
X66632915Y-109931166D01*
X66674787Y-109875233D01*
X66740251Y-109850816D01*
X66749097Y-109850500D01*
X70325500Y-109850500D01*
X70328635Y-109851420D01*
G37*
G04 #@! TD.AperFunction*
G04 #@! TA.AperFunction,Conductor*
G36*
X68362539Y-100769185D02*
G01*
X68408294Y-100821989D01*
X68419500Y-100873500D01*
X68419500Y-101200404D01*
X68399815Y-101267443D01*
X68383181Y-101288085D01*
X68308869Y-101362396D01*
X68308863Y-101362404D01*
X68227131Y-101500606D01*
X68227129Y-101500611D01*
X68182335Y-101654791D01*
X68182334Y-101654797D01*
X68179500Y-101690811D01*
X68179500Y-102089169D01*
X68179501Y-102089191D01*
X68182335Y-102125205D01*
X68227129Y-102279388D01*
X68227130Y-102279391D01*
X68227131Y-102279393D01*
X68248924Y-102316243D01*
X68261419Y-102337371D01*
X68278601Y-102405095D01*
X68261419Y-102463611D01*
X68227594Y-102520806D01*
X68187156Y-102660000D01*
X68739591Y-102660000D01*
X68749318Y-102660382D01*
X68749516Y-102660397D01*
X68750819Y-102660500D01*
X69249180Y-102660499D01*
X69249193Y-102660498D01*
X69250668Y-102660382D01*
X69260393Y-102660000D01*
X69739591Y-102660000D01*
X69740045Y-102660001D01*
X69744694Y-102660018D01*
X69750819Y-102660500D01*
X69876354Y-102660499D01*
X69876454Y-102660500D01*
X69909781Y-102670417D01*
X69943039Y-102680183D01*
X69943193Y-102680361D01*
X69943421Y-102680429D01*
X69966132Y-102706834D01*
X69988794Y-102732987D01*
X69988850Y-102733247D01*
X69988982Y-102733400D01*
X69989159Y-102734666D01*
X70000000Y-102784499D01*
X70000000Y-102910000D01*
X70074071Y-102910000D01*
X70141110Y-102929685D01*
X70178293Y-102966815D01*
X70184351Y-102976213D01*
X70187052Y-102982733D01*
X70229680Y-103046531D01*
X70230222Y-103047371D01*
X70239835Y-103079943D01*
X70249980Y-103112342D01*
X70249998Y-103114377D01*
X70250000Y-103114383D01*
X70249998Y-103114388D01*
X70250000Y-103114556D01*
X70250000Y-103679930D01*
X70285122Y-103677167D01*
X70285128Y-103677166D01*
X70439188Y-103632407D01*
X70439191Y-103632406D01*
X70577285Y-103550738D01*
X70577290Y-103550734D01*
X70692637Y-103435386D01*
X70753960Y-103401901D01*
X70804511Y-103401450D01*
X70817601Y-103404054D01*
X70817604Y-103404054D01*
X70975290Y-103404054D01*
X70975291Y-103404053D01*
X71129943Y-103373291D01*
X71275625Y-103312948D01*
X71318966Y-103283987D01*
X71334248Y-103279202D01*
X71347297Y-103269910D01*
X71366906Y-103268975D01*
X71385639Y-103263110D01*
X71401890Y-103267309D01*
X71417088Y-103266585D01*
X71449850Y-103279700D01*
X71475872Y-103294724D01*
X71475873Y-103294725D01*
X71507440Y-103312950D01*
X71540915Y-103332277D01*
X71693643Y-103373200D01*
X72472603Y-103373200D01*
X72539642Y-103392885D01*
X72560284Y-103409519D01*
X72977052Y-103826287D01*
X72984689Y-103839183D01*
X72993800Y-103847105D01*
X73003199Y-103870439D01*
X73008407Y-103879234D01*
X73009928Y-103884447D01*
X73021440Y-103942320D01*
X73039625Y-103986225D01*
X73041517Y-103992706D01*
X73041468Y-104021163D01*
X73044511Y-104049458D01*
X73041410Y-104055651D01*
X73041399Y-104062576D01*
X73025973Y-104086489D01*
X73013235Y-104111936D01*
X73007279Y-104115469D01*
X73003525Y-104121290D01*
X72977615Y-104133069D01*
X72953146Y-104147588D01*
X72947081Y-104148757D01*
X72885436Y-104165275D01*
X72853343Y-104169500D01*
X72423575Y-104169500D01*
X72327381Y-104195275D01*
X72295288Y-104199500D01*
X72171155Y-104199500D01*
X72016510Y-104230261D01*
X72016498Y-104230264D01*
X71870827Y-104290602D01*
X71870814Y-104290609D01*
X71739711Y-104378210D01*
X71739707Y-104378213D01*
X71628213Y-104489707D01*
X71628210Y-104489711D01*
X71540609Y-104620814D01*
X71540602Y-104620827D01*
X71480264Y-104766498D01*
X71480261Y-104766510D01*
X71449500Y-104921153D01*
X71449500Y-105078846D01*
X71480261Y-105233489D01*
X71480264Y-105233501D01*
X71540602Y-105379172D01*
X71540609Y-105379185D01*
X71611720Y-105485609D01*
X71632598Y-105552286D01*
X71614114Y-105619667D01*
X71562135Y-105666357D01*
X71508618Y-105678500D01*
X71356312Y-105678500D01*
X71280017Y-105698942D01*
X71280018Y-105698943D01*
X71208668Y-105718061D01*
X71076305Y-105794481D01*
X71076299Y-105794486D01*
X70715869Y-106154917D01*
X70654546Y-106188402D01*
X70628188Y-106191236D01*
X70621156Y-106191236D01*
X70466511Y-106221997D01*
X70466499Y-106222000D01*
X70320828Y-106282338D01*
X70320815Y-106282345D01*
X70189712Y-106369946D01*
X70189708Y-106369949D01*
X70078214Y-106481443D01*
X70078211Y-106481447D01*
X69990610Y-106612550D01*
X69990603Y-106612563D01*
X69930265Y-106758234D01*
X69930262Y-106758246D01*
X69899501Y-106912889D01*
X69899501Y-107070582D01*
X69930262Y-107225225D01*
X69930265Y-107225237D01*
X69990603Y-107370908D01*
X69990610Y-107370921D01*
X70078211Y-107502024D01*
X70078214Y-107502028D01*
X70189708Y-107613522D01*
X70189712Y-107613525D01*
X70320815Y-107701126D01*
X70320828Y-107701133D01*
X70466499Y-107761471D01*
X70466504Y-107761473D01*
X70621154Y-107792235D01*
X70621157Y-107792236D01*
X70621159Y-107792236D01*
X70625503Y-107792236D01*
X70692542Y-107811921D01*
X70738297Y-107864725D01*
X70749503Y-107916236D01*
X70749503Y-107921158D01*
X70749503Y-108078842D01*
X70749503Y-108078844D01*
X70749502Y-108078844D01*
X70773664Y-108200308D01*
X70767437Y-108269900D01*
X70724574Y-108325077D01*
X70658684Y-108348322D01*
X70652047Y-108348500D01*
X67347625Y-108348500D01*
X67280586Y-108328815D01*
X67259944Y-108312181D01*
X65633838Y-106686075D01*
X65600353Y-106624752D01*
X65599902Y-106622585D01*
X65578799Y-106516498D01*
X65569001Y-106467239D01*
X65558886Y-106442819D01*
X65508661Y-106321563D01*
X65508654Y-106321550D01*
X65421053Y-106190447D01*
X65421050Y-106190443D01*
X65309556Y-106078949D01*
X65309552Y-106078946D01*
X65178449Y-105991345D01*
X65178436Y-105991338D01*
X65032765Y-105931000D01*
X65032753Y-105930997D01*
X64878109Y-105900236D01*
X64878106Y-105900236D01*
X64720422Y-105900236D01*
X64720419Y-105900236D01*
X64565774Y-105930997D01*
X64565762Y-105931000D01*
X64420091Y-105991338D01*
X64420080Y-105991344D01*
X64306657Y-106067131D01*
X64239980Y-106088008D01*
X64172600Y-106069523D01*
X64168877Y-106067131D01*
X64157441Y-106059490D01*
X64129179Y-106040606D01*
X64129176Y-106040604D01*
X64129175Y-106040604D01*
X63983501Y-105980264D01*
X63983489Y-105980261D01*
X63828845Y-105949500D01*
X63828842Y-105949500D01*
X63671158Y-105949500D01*
X63671155Y-105949500D01*
X63516510Y-105980261D01*
X63516498Y-105980264D01*
X63370827Y-106040602D01*
X63370814Y-106040609D01*
X63239711Y-106128210D01*
X63239707Y-106128213D01*
X63128213Y-106239707D01*
X63128208Y-106239713D01*
X63096289Y-106287483D01*
X63042676Y-106332288D01*
X62973351Y-106340994D01*
X62910324Y-106310838D01*
X62905507Y-106306272D01*
X62615590Y-106016355D01*
X62615588Y-106016352D01*
X62496717Y-105897481D01*
X62496716Y-105897480D01*
X62409904Y-105847360D01*
X62409904Y-105847359D01*
X62409900Y-105847358D01*
X62359785Y-105818423D01*
X62207057Y-105777499D01*
X62048943Y-105777499D01*
X62041347Y-105777499D01*
X62041331Y-105777500D01*
X61224500Y-105777500D01*
X61157461Y-105757815D01*
X61111706Y-105705011D01*
X61100500Y-105653500D01*
X61100500Y-105321386D01*
X61096631Y-105278807D01*
X61094086Y-105250804D01*
X61043478Y-105088394D01*
X60961718Y-104953147D01*
X60958022Y-104939151D01*
X60949863Y-104927190D01*
X60949282Y-104906044D01*
X60943883Y-104885596D01*
X60948306Y-104870531D01*
X60947944Y-104857346D01*
X60961719Y-104824851D01*
X60961720Y-104824850D01*
X60984990Y-104786355D01*
X61036516Y-104739169D01*
X61105375Y-104727330D01*
X61153106Y-104743119D01*
X61268216Y-104809577D01*
X61363787Y-104835185D01*
X61420942Y-104850500D01*
X61420943Y-104850500D01*
X62420234Y-104850500D01*
X62487273Y-104870185D01*
X62489125Y-104871398D01*
X62620814Y-104959390D01*
X62620827Y-104959397D01*
X62766498Y-105019735D01*
X62766503Y-105019737D01*
X62900823Y-105046455D01*
X62921153Y-105050499D01*
X62921156Y-105050500D01*
X62921158Y-105050500D01*
X63078844Y-105050500D01*
X63078845Y-105050499D01*
X63233497Y-105019737D01*
X63379179Y-104959394D01*
X63510289Y-104871789D01*
X63621789Y-104760289D01*
X63709394Y-104629179D01*
X63712854Y-104620827D01*
X63734016Y-104569735D01*
X63769737Y-104483497D01*
X63800500Y-104328842D01*
X63800500Y-104171158D01*
X63800500Y-104171155D01*
X63800499Y-104171153D01*
X63795682Y-104146935D01*
X63769737Y-104016503D01*
X63764864Y-104004738D01*
X63709397Y-103870827D01*
X63709390Y-103870814D01*
X63621789Y-103739711D01*
X63621786Y-103739707D01*
X63510292Y-103628213D01*
X63510284Y-103628207D01*
X63495245Y-103618158D01*
X63450439Y-103564546D01*
X63441732Y-103495221D01*
X63461032Y-103446166D01*
X63485209Y-103409984D01*
X63545552Y-103264302D01*
X63564276Y-103170171D01*
X63567064Y-103156155D01*
X64449500Y-103156155D01*
X64449500Y-103313846D01*
X64480261Y-103468489D01*
X64480264Y-103468501D01*
X64540602Y-103614172D01*
X64540609Y-103614185D01*
X64628210Y-103745288D01*
X64628213Y-103745292D01*
X64739707Y-103856786D01*
X64739711Y-103856789D01*
X64870814Y-103944390D01*
X64870827Y-103944397D01*
X64987457Y-103992706D01*
X65016503Y-104004737D01*
X65171153Y-104035499D01*
X65171156Y-104035500D01*
X65171158Y-104035500D01*
X65328844Y-104035500D01*
X65328845Y-104035499D01*
X65483497Y-104004737D01*
X65629179Y-103944394D01*
X65760289Y-103856789D01*
X65871789Y-103745289D01*
X65959394Y-103614179D01*
X66019737Y-103468497D01*
X66050500Y-103313842D01*
X66050500Y-103160000D01*
X68187156Y-103160000D01*
X68227595Y-103299194D01*
X68309261Y-103437285D01*
X68309268Y-103437294D01*
X68422705Y-103550731D01*
X68422714Y-103550738D01*
X68560808Y-103632406D01*
X68560811Y-103632407D01*
X68714871Y-103677166D01*
X68714877Y-103677167D01*
X68750000Y-103679931D01*
X68750000Y-103679930D01*
X69250000Y-103679930D01*
X69285122Y-103677167D01*
X69285128Y-103677166D01*
X69439189Y-103632407D01*
X69446352Y-103629308D01*
X69447157Y-103631169D01*
X69504585Y-103616591D01*
X69552999Y-103630806D01*
X69553648Y-103629308D01*
X69560810Y-103632407D01*
X69714871Y-103677166D01*
X69714877Y-103677167D01*
X69750000Y-103679931D01*
X69750000Y-103160000D01*
X69250000Y-103160000D01*
X69250000Y-103679930D01*
X68750000Y-103679930D01*
X68750000Y-103160000D01*
X68187156Y-103160000D01*
X66050500Y-103160000D01*
X66050500Y-103156158D01*
X66050500Y-103156155D01*
X66050499Y-103156150D01*
X66019738Y-103001510D01*
X66019737Y-103001503D01*
X66005369Y-102966815D01*
X65959397Y-102855827D01*
X65959390Y-102855814D01*
X65871789Y-102724711D01*
X65871786Y-102724707D01*
X65760292Y-102613213D01*
X65760288Y-102613210D01*
X65629185Y-102525609D01*
X65629172Y-102525602D01*
X65483501Y-102465264D01*
X65483489Y-102465261D01*
X65328845Y-102434500D01*
X65328842Y-102434500D01*
X65171158Y-102434500D01*
X65171155Y-102434500D01*
X65016510Y-102465261D01*
X65016498Y-102465264D01*
X64870827Y-102525602D01*
X64870814Y-102525609D01*
X64739711Y-102613210D01*
X64739707Y-102613213D01*
X64628213Y-102724707D01*
X64628210Y-102724711D01*
X64540609Y-102855814D01*
X64540602Y-102855827D01*
X64480264Y-103001498D01*
X64480261Y-103001510D01*
X64449501Y-103156150D01*
X64449500Y-103156155D01*
X63567064Y-103156155D01*
X63573083Y-103125897D01*
X63573087Y-103125876D01*
X63574577Y-103118382D01*
X63576315Y-103109647D01*
X63576315Y-102951963D01*
X63576315Y-102951960D01*
X63576314Y-102951958D01*
X63557191Y-102855821D01*
X63545552Y-102797308D01*
X63540246Y-102784499D01*
X63485212Y-102651632D01*
X63485205Y-102651619D01*
X63397604Y-102520516D01*
X63397601Y-102520512D01*
X63286107Y-102409018D01*
X63286103Y-102409015D01*
X63155000Y-102321414D01*
X63149624Y-102318541D01*
X63150715Y-102316498D01*
X63104333Y-102279108D01*
X63082278Y-102212810D01*
X63099568Y-102145114D01*
X63118515Y-102120726D01*
X63175371Y-102063871D01*
X63262976Y-101932761D01*
X63323319Y-101787079D01*
X63354082Y-101632424D01*
X63354082Y-101474740D01*
X63354082Y-101474737D01*
X63354081Y-101474735D01*
X63323320Y-101320092D01*
X63323319Y-101320085D01*
X63311110Y-101290609D01*
X63262977Y-101174405D01*
X63255191Y-101162753D01*
X63244175Y-101146266D01*
X63223298Y-101079590D01*
X63241782Y-101012209D01*
X63259597Y-100989695D01*
X63463474Y-100785819D01*
X63524797Y-100752334D01*
X63551155Y-100749500D01*
X68295500Y-100749500D01*
X68362539Y-100769185D01*
G37*
G04 #@! TD.AperFunction*
G04 #@! TA.AperFunction,Conductor*
G36*
X83844759Y-103156150D02*
G01*
X83889372Y-103209921D01*
X83899500Y-103259005D01*
X83899500Y-105904865D01*
X83879815Y-105971904D01*
X83827011Y-106017659D01*
X83757853Y-106027603D01*
X83728048Y-106019427D01*
X83703560Y-106009284D01*
X83633497Y-105980263D01*
X83633494Y-105980262D01*
X83633491Y-105980261D01*
X83478845Y-105949500D01*
X83478842Y-105949500D01*
X83321158Y-105949500D01*
X83321155Y-105949500D01*
X83166510Y-105980261D01*
X83166498Y-105980264D01*
X83020827Y-106040602D01*
X83020814Y-106040609D01*
X82889711Y-106128210D01*
X82889707Y-106128213D01*
X82778213Y-106239707D01*
X82778210Y-106239711D01*
X82690609Y-106370814D01*
X82690602Y-106370827D01*
X82630264Y-106516498D01*
X82630261Y-106516510D01*
X82599500Y-106671153D01*
X82599500Y-106828846D01*
X82630261Y-106983489D01*
X82630264Y-106983501D01*
X82690602Y-107129172D01*
X82690609Y-107129185D01*
X82778210Y-107260288D01*
X82778213Y-107260292D01*
X82889707Y-107371786D01*
X82889711Y-107371789D01*
X83020814Y-107459390D01*
X83020827Y-107459397D01*
X83123742Y-107502025D01*
X83166503Y-107519737D01*
X83321153Y-107550499D01*
X83321156Y-107550500D01*
X83321158Y-107550500D01*
X83478844Y-107550500D01*
X83478845Y-107550499D01*
X83633497Y-107519737D01*
X83779179Y-107459394D01*
X83910289Y-107371789D01*
X84021789Y-107260289D01*
X84093764Y-107152569D01*
X84147374Y-107107767D01*
X84216699Y-107099059D01*
X84279727Y-107129213D01*
X84284546Y-107133781D01*
X84938181Y-107787416D01*
X84971666Y-107848739D01*
X84974500Y-107875097D01*
X84974500Y-108151000D01*
X84954815Y-108218039D01*
X84902011Y-108263794D01*
X84850500Y-108275000D01*
X82299499Y-108275000D01*
X82232460Y-108255315D01*
X82186705Y-108202511D01*
X82175499Y-108151000D01*
X82175499Y-108127129D01*
X82175498Y-108127123D01*
X82175497Y-108127116D01*
X82169091Y-108067517D01*
X82167525Y-108063319D01*
X82118797Y-107932671D01*
X82118793Y-107932664D01*
X82032547Y-107817455D01*
X82032544Y-107817452D01*
X81917335Y-107731206D01*
X81917328Y-107731202D01*
X81782482Y-107680908D01*
X81782483Y-107680908D01*
X81722883Y-107674501D01*
X81722881Y-107674500D01*
X81722873Y-107674500D01*
X81722864Y-107674500D01*
X80427129Y-107674500D01*
X80427123Y-107674501D01*
X80367516Y-107680908D01*
X80232671Y-107731202D01*
X80232664Y-107731206D01*
X80117455Y-107817452D01*
X80117452Y-107817455D01*
X80031206Y-107932664D01*
X80031202Y-107932671D01*
X79980908Y-108067517D01*
X79978667Y-108088366D01*
X79974501Y-108127123D01*
X79974500Y-108127135D01*
X79974500Y-108151000D01*
X79954815Y-108218039D01*
X79902011Y-108263794D01*
X79850500Y-108275000D01*
X79318065Y-108275000D01*
X79251026Y-108255315D01*
X79205271Y-108202511D01*
X79195327Y-108133353D01*
X79224352Y-108069797D01*
X79230384Y-108063319D01*
X79316833Y-107976869D01*
X79316836Y-107976866D01*
X79404441Y-107845756D01*
X79464784Y-107700074D01*
X79495547Y-107545419D01*
X79495547Y-107387735D01*
X79495547Y-107387732D01*
X79495546Y-107387730D01*
X79492375Y-107371789D01*
X79464784Y-107233080D01*
X79443993Y-107182886D01*
X79404444Y-107087404D01*
X79404437Y-107087391D01*
X79316836Y-106956288D01*
X79316833Y-106956284D01*
X79205337Y-106844788D01*
X79193584Y-106836935D01*
X79148780Y-106783321D01*
X79140074Y-106713996D01*
X79170230Y-106650969D01*
X79174777Y-106646172D01*
X82494130Y-103326819D01*
X82555451Y-103293336D01*
X82620126Y-103296570D01*
X82683757Y-103317246D01*
X82893713Y-103350500D01*
X82893714Y-103350500D01*
X83106286Y-103350500D01*
X83106287Y-103350500D01*
X83316243Y-103317246D01*
X83518412Y-103251557D01*
X83707816Y-103155051D01*
X83707834Y-103155037D01*
X83710710Y-103153277D01*
X83711962Y-103152938D01*
X83712157Y-103152839D01*
X83712177Y-103152879D01*
X83778156Y-103135033D01*
X83844759Y-103156150D01*
G37*
G04 #@! TD.AperFunction*
G04 #@! TA.AperFunction,Conductor*
G36*
X73173039Y-106859185D02*
G01*
X73218794Y-106911989D01*
X73230000Y-106963500D01*
X73230000Y-107626000D01*
X73227449Y-107634685D01*
X73228738Y-107643647D01*
X73217759Y-107667687D01*
X73210315Y-107693039D01*
X73203474Y-107698966D01*
X73199713Y-107707203D01*
X73177478Y-107721492D01*
X73157511Y-107738794D01*
X73146996Y-107741081D01*
X73140935Y-107744977D01*
X73106000Y-107750000D01*
X72924500Y-107750000D01*
X72857461Y-107730315D01*
X72811706Y-107677511D01*
X72800500Y-107626000D01*
X72800500Y-107515317D01*
X72800499Y-107515302D01*
X72799454Y-107502028D01*
X72797643Y-107479007D01*
X72794967Y-107469797D01*
X72752495Y-107323608D01*
X72752492Y-107323600D01*
X72747266Y-107314763D01*
X72742916Y-107298862D01*
X72735023Y-107286580D01*
X72730000Y-107251645D01*
X72730000Y-107248352D01*
X72747267Y-107185233D01*
X72752494Y-107176395D01*
X72759416Y-107152572D01*
X72797642Y-107020997D01*
X72797643Y-107020991D01*
X72800499Y-106984697D01*
X72800500Y-106984690D01*
X72800500Y-106963500D01*
X72803050Y-106954814D01*
X72801762Y-106945853D01*
X72812740Y-106921812D01*
X72820185Y-106896461D01*
X72827025Y-106890533D01*
X72830787Y-106882297D01*
X72853021Y-106868007D01*
X72872989Y-106850706D01*
X72883503Y-106848418D01*
X72889565Y-106844523D01*
X72924500Y-106839500D01*
X73106000Y-106839500D01*
X73173039Y-106859185D01*
G37*
G04 #@! TD.AperFunction*
G04 #@! TD*
M02*
